<svg xmlns="http://www.w3.org/2000/svg" viewBox="0 0 1366 768"><defs><style>.cls-1{isolation:isolate;}.cls-2{fill:#e0cfe2;fill-rule:evenodd;}.cls-3{fill:#52494b;opacity:0.36;mix-blend-mode:multiply;}.cls-4{fill:#fff6f0;}.cls-5{fill:#628d93;}.cls-6{fill:#eae2dd;}.cls-7{fill:#c95687;}.cls-8{fill:#66334e;}.cls-9{fill:#ad4979;}.cls-10{fill:#a54171;}.cls-11{fill:#fff;stroke:#231f20;stroke-miterlimit:10;stroke-width:0.72px;}.cls-12{fill:#8e3c67;}.cls-13{fill:#d6679c;}</style></defs><title>Background Contact</title><g class="cls-1"><g id="Contact_New" data-name="Contact New"><polygon class="cls-2" points="1366 205.13 0 265.23 0 -1 1366 -1 1366 205.13"/><polygon class="cls-3" points="287.47 559.46 305.71 537.92 235.35 518.06 232.2 517.79 284.32 559.18 287.47 559.46"/><polygon class="cls-4" points="232.2 517.79 302.56 537.64 284.32 559.18 213.97 539.33 232.2 517.79"/><polygon class="cls-5" points="232.01 534.44 224.92 532.43 219.9 538.36 227 540.36 232.01 534.44"/><path class="cls-5" d="M281.1,554.56H281l-24.07-6.79a.36.36,0,1,1,.19-.69l24.07,6.79a.36.36,0,0,1-.1.7Z"/><path class="cls-5" d="M282.44,553h-.1l-24.07-6.79a.36.36,0,1,1,.19-.69l24.07,6.79a.36.36,0,0,1-.1.7Z"/><path class="cls-5" d="M283.77,551.41h-.1L259.6,544.6a.36.36,0,1,1,.19-.69l24.07,6.79a.36.36,0,0,1-.1.7Z"/><polygon class="cls-3" points="462.29 566.42 503.77 567.6 507.61 522.44 504.46 522.16 459.14 566.14 462.29 566.42"/><polygon class="cls-4" points="459.14 566.14 462.99 520.99 504.46 522.16 500.62 567.32 459.14 566.14"/><polygon class="cls-6" points="481.8 544.15 500.62 567.32 504.46 522.16 481.8 544.15"/><polygon class="cls-3" points="392.35 646.94 469.14 655.8 461 679.31 457.19 678.98 388.54 646.61 392.35 646.94"/><polygon class="cls-4" points="388.54 646.61 465.33 655.47 457.19 678.98 380.4 670.12 388.54 646.61"/><polygon class="cls-6" points="422.87 662.79 380.4 670.12 457.19 678.98 422.87 662.79"/><polygon class="cls-3" points="179.75 619.16 221.23 620.34 225.07 575.18 221.93 574.91 176.6 618.89 179.75 619.16"/><polygon class="cls-4" points="176.6 618.89 180.45 573.73 221.93 574.91 218.08 620.07 176.6 618.89"/><polygon class="cls-6" points="199.26 596.9 218.08 620.07 221.93 574.91 199.26 596.9"/><polygon class="cls-3" points="445.75 444.23 501.64 483.95 504.79 484.22 521 462.15 448.9 444.5 445.75 444.23"/><polygon class="cls-4" points="501.64 483.95 429.55 466.3 445.75 444.23 517.85 461.87 501.64 483.95"/><polygon class="cls-6" points="473.7 464.08 517.85 461.87 445.75 444.23 473.7 464.08"/><polygon class="cls-3" points="184.45 653.03 240.34 692.75 243.49 693.03 259.69 670.95 187.6 653.31 184.45 653.03"/><polygon class="cls-4" points="240.34 692.75 168.24 675.11 184.45 653.03 256.55 670.68 240.34 692.75"/><polygon class="cls-6" points="212.39 672.89 256.55 670.68 184.45 653.03 212.39 672.89"/><polygon class="cls-3" points="404.59 621 433.95 604.04 378.58 572.07 375.43 571.8 401.44 620.72 404.59 621"/><polygon class="cls-4" points="401.44 620.72 346.06 588.75 375.43 571.8 430.8 603.77 401.44 620.72"/><polygon class="cls-6" points="388.43 596.26 430.8 603.77 375.43 571.8 388.43 596.26"/><polygon class="cls-3" points="418.87 446.04 328.47 438.13 338.92 443.93 240.14 501.29 222.04 499.89 222.04 512.2 240.14 513.66 336.26 569.31 328.47 573.69 346.57 575.27 346.57 575.27 346.57 575.27 418.87 581.64 536.16 513.7 418.87 446.04"/><path class="cls-7" d="M429.83,459.81a6.42,6.42,0,0,0-1,0,10.44,10.44,0,0,1,.73,4.1v45.17l5.33,3.08V467C434.9,462.46,432.91,459.94,429.83,459.81Z"/><path class="cls-8" d="M328.47,279.58l-5.07,2.93-11.91,6.88h0a144.16,144.16,0,0,1,8.17,13.78L323.4,301l5.07-2.91,72-41.35V238Z"/><path class="cls-9" d="M400.48,256.78l-72,41.35L323.4,301l-3.73,2.14q2,3.83,3.73,7.75a133.43,133.43,0,0,1,5.07,13.18,107.82,107.82,0,0,1,5.11,25.35l106.9-61.37Z"/><path class="cls-10" d="M222,467v45.17l5.33-3.08V463.95a10.39,10.39,0,0,1,.73-4.1C224.46,459.44,222,462,222,467Z"/><path class="cls-7" d="M328.25,352.53c-.08-1.18-.2-2.36-.33-3.55A110,110,0,0,0,323.4,328a136.43,136.43,0,0,0-9.07-21.78,144.17,144.17,0,0,0-8.17-13.77h0C296.22,277.67,283.67,265,270,257.06l-.2-.12c-14.84-8.57-28.38-10-38.7-5.49a27.9,27.9,0,0,0-2.76,1.39c-10.61,6.13-17.18,19.28-17.18,38h0V506L222,512.19V467c0-5,2.42-7.58,6.07-7.18a10.87,10.87,0,0,1,4.18,1.5l75.06,43.4a21.83,21.83,0,0,1,10.26,17.67v45.17l10.86,6.15v-6.1h0V358.55Q328.47,355.57,328.25,352.53Z"/><polygon class="cls-11" points="434.9 506.1 435.19 505.93 434.9 505.77 434.9 506.1"/><path class="cls-7" d="M418.29,227.69,400.48,238v18.8l40,31.31h0C439.1,268,430.73,246.18,418.29,227.69Z"/><path class="cls-12" d="M404.54,202.31,287.24,270a130.1,130.1,0,0,1,18.92,22.44h0a144.17,144.17,0,0,1,8.17,13.77A136.43,136.43,0,0,1,323.4,328,110,110,0,0,1,327.92,349c.13,1.19.24,2.37.33,3.55q.22,3,.22,6V567.64h0v6.1l10.86-6.15V522.41c0-6.77,4.47-14.28,10.33-17.67l75-43.4a10.9,10.9,0,0,1,4.16-1.5,6.39,6.39,0,0,1,1,0c3.08.13,5.07,2.65,5.07,7.21v38.75l.29.16-.29.16v6.1l5.67-3.21.12.07v-.14l5.07-2.87V290.78C445.76,260.37,428.42,224.67,404.54,202.31ZM323.4,310.93q-1.74-3.92-3.73-7.75a144.15,144.15,0,0,0-8.17-13.78h0l11.91-6.88,5.07-2.93,72-41.61,17.81-10.29c12.43,18.49,20.81,40.31,22.19,60.4l-106.9,61.37a107.82,107.82,0,0,0-5.11-25.35A133.44,133.44,0,0,0,323.4,310.93Z"/><polygon class="cls-9" points="431.87 432.91 348.15 481.25 348.15 370.47 431.87 322.13 431.87 432.91"/><path class="cls-7" d="M328.47,358.55l-.1-1.86-.12-2.23c-.05-.88-.07-1.88-.21-3-.21-2.26-.54-5-1.11-8.08s-1.34-6.56-2.37-10.29-2.34-7.72-3.94-11.85-3.51-8.41-5.67-12.73a143,143,0,0,0-7.38-12.94c-1.36-2.13-2.82-4.25-4.32-6.34-.75-1-1.5-2.08-2.3-3.09l-1.18-1.53-1.21-1.51a121.22,121.22,0,0,0-10.32-11.38,103,103,0,0,0-11.36-9.6A86.36,86.36,0,0,0,265,254.85a57,57,0,0,0-11.63-4.38A42.49,42.49,0,0,0,243,249.17a32.58,32.58,0,0,0-8,1l-1.53.46c-.48.14-.91.33-1.33.48A22,22,0,0,0,230,252c-1.1.52-1.65.85-1.65.85s.55-.35,1.63-.9a22.05,22.05,0,0,1,2-.92c.41-.16.84-.37,1.32-.52l1.53-.5a32.89,32.89,0,0,1,8.09-1.24,40.72,40.72,0,0,1,10.57,1.12,57.64,57.64,0,0,1,11.84,4.26,80.41,80.41,0,0,1,12.06,7.19A104,104,0,0,1,288.95,271a121.55,121.55,0,0,1,10.46,11.43l1.21,1.52,1.18,1.55c.79,1,1.55,2.08,2.3,3.14,1.5,2.1,2.94,4.23,4.31,6.4a143.94,143.94,0,0,1,7.37,13.07,130.76,130.76,0,0,1,9.36,24.85,103,103,0,0,1,2.18,10.39c.5,3.12.77,5.87.93,8.12.12,1.13.11,2.15.13,3l0,2.23Z"/><path class="cls-7" d="M328.47,573.74l-.09-9c0-5.72-.17-13.88-.21-23.68L328,507.58l-.07-38.39c0-13.07,0-26.14.07-38.39s.12-23.68.17-33.49.17-18,.21-23.68l.09-9,.09,9c0,5.72.17,13.88.21,23.68l.17,33.49c0,12.25,0,25.32.07,38.39l-.07,38.39-.17,33.49c0,9.8-.17,18-.21,23.68Z"/><path class="cls-7" d="M434.9,512.19s0-.71-.11-1.94-.14-3-.21-5.12-.13-4.59-.17-7.23l0-4.08,0-4.21,0-4.21c0-1.39,0-2.76,0-4.08,0-2.65.1-5.12.17-7.23s.16-3.88.21-5.12.11-1.94.11-1.94,0,.71.11,1.94.15,3,.21,5.12.13,4.59.17,7.23c0,1.32,0,2.69,0,4.08l0,4.21,0,4.21,0,4.08c0,2.65-.1,5.12-.17,7.23S435,509,435,510.25,434.9,512.19,434.9,512.19Z"/><path class="cls-7" d="M222,512.19s0-.71-.11-1.94-.14-3-.21-5.12-.13-4.59-.17-7.23l0-4.08,0-4.21,0-4.21c0-1.39,0-2.76,0-4.08,0-2.65.1-5.12.17-7.23s.16-3.88.21-5.12S222,467,222,467s0,.71.11,1.94.15,3,.21,5.12.13,4.59.17,7.23c0,1.32,0,2.69,0,4.08l0,4.21,0,4.21,0,4.08c0,2.65-.1,5.12-.17,7.23s-.16,3.88-.21,5.12S222,512.19,222,512.19Z"/><path class="cls-13" d="M400.48,198.69a92.08,92.08,0,0,0-13.37-9.51c-16.2-9.35-30.85-10.23-41.46-4.1L228.36,252.84a27.91,27.91,0,0,1,2.76-1.39c10.32-4.53,23.86-3.07,38.7,5.49l.2.12a94.13,94.13,0,0,1,15.17,11.11l117.3-67.73Q401.5,199.55,400.48,198.69Z"/><path class="cls-13" d="M285.2,268.18q1,.91,2,1.86l117.3-67.72q-1-.95-2-1.86Z"/><polygon class="cls-3" points="506.14 593.96 502.99 593.68 529 642.61 532.15 642.88 561.51 625.93 506.14 593.96"/><polygon class="cls-4" points="529 642.61 473.63 610.63 502.99 593.68 558.37 625.65 529 642.61"/><polygon class="cls-6" points="516 618.14 558.37 625.65 502.99 593.68 516 618.14"/><polygon class="cls-3" points="153.95 547.33 157.1 547.61 190.51 533.37 144 497 140.85 496.72 153.95 547.33"/><polygon class="cls-4" points="153.95 547.33 107.44 510.96 140.85 496.72 187.36 533.1 153.95 547.33"/><polygon class="cls-6" points="147.41 522.03 187.36 533.1 140.85 496.72 147.41 522.03"/><polygon class="cls-3" points="122.35 559.5 151.72 576.45 96.34 608.42 92.54 608.09 118.55 559.16 122.35 559.5"/><polygon class="cls-4" points="63.17 591.13 118.55 559.16 147.91 576.12 92.54 608.09 63.17 591.13"/><polygon class="cls-6" points="105.54 583.62 92.54 608.09 147.91 576.12 105.54 583.62"/><polygon class="cls-3" points="271.05 606.66 323.83 647.77 326.98 648.05 344.87 626.41 274.2 606.93 271.05 606.66"/><polygon class="cls-4" points="323.83 647.77 253.16 628.29 271.05 606.66 341.72 626.14 323.83 647.77"/><polygon class="cls-5" points="323.75 631.12 330.88 633.09 335.8 627.14 328.67 625.17 323.75 631.12"/><polygon class="cls-5" points="314.98 628.7 322.11 630.67 327.02 624.72 319.89 622.75 314.98 628.7"/><path class="cls-5" d="M298.53,618.64h-.1L274.25,612a.36.36,0,1,1,.19-.69l24.18,6.67a.36.36,0,0,1-.09.7Z"/><path class="cls-5" d="M297.22,620.22h-.1l-24.18-6.67a.36.36,0,1,1,.19-.69l24.18,6.67a.36.36,0,0,1-.09.7Z"/><path class="cls-5" d="M295.91,621.81h-.1l-24.18-6.67a.36.36,0,0,1,.19-.69L296,621.11a.36.36,0,0,1-.09.7Z"/><polygon class="cls-3" points="587.51 489.13 584.37 488.86 598.42 539.38 601.57 539.66 634.71 525.21 587.51 489.13"/><polygon class="cls-4" points="598.42 539.38 551.23 503.31 584.37 488.86 631.56 524.94 598.42 539.38"/><polygon class="cls-5" points="611.63 524.58 616.39 528.22 625.5 524.25 620.74 520.61 611.63 524.58"/><polygon class="cls-5" points="605.77 520.1 610.53 523.74 619.64 519.77 614.88 516.13 605.77 520.1"/><path class="cls-5" d="M599.49,506.84a.36.36,0,0,1-.22-.07l-16.15-12.35a.36.36,0,0,1,.43-.57L599.7,506.2a.36.36,0,0,1-.22.64Z"/><path class="cls-5" d="M597.06,507.9a.36.36,0,0,1-.22-.07l-16.15-12.35a.36.36,0,1,1,.43-.57l16.15,12.35a.36.36,0,0,1-.22.64Z"/><path class="cls-5" d="M594.63,509a.36.36,0,0,1-.22-.07l-16.15-12.35a.36.36,0,0,1,.43-.57l16.15,12.35a.36.36,0,0,1-.22.64Z"/><polygon class="cls-3" points="559.84 562.25 618.22 600.76 621.37 601.04 636.16 578.63 562.99 562.53 559.84 562.25"/><polygon class="cls-4" points="618.22 600.76 545.05 584.66 559.84 562.25 633.01 578.36 618.22 600.76"/><polygon class="cls-5" points="615.81 584.17 623.19 585.79 627.25 579.63 619.87 578.01 615.81 584.17"/><polygon class="cls-5" points="606.72 582.17 614.1 583.79 618.17 577.63 610.79 576.01 606.72 582.17"/><path class="cls-5" d="M588.87,572.91h-.08l-25-5.51a.36.36,0,0,1,.15-.7l25,5.51a.36.36,0,0,1-.08.71Z"/><path class="cls-5" d="M587.78,574.55h-.08l-25-5.51a.36.36,0,0,1,.15-.7l25,5.51a.36.36,0,0,1-.08.71Z"/><path class="cls-5" d="M586.7,576.19h-.08l-25-5.51a.36.36,0,1,1,.15-.7l25,5.51a.36.36,0,0,1-.08.71Z"/></g></g></svg>