<?xml version="1.0" encoding="utf-8"?>
<!-- Generator: Adobe Illustrator 20.1.0, SVG Export Plug-In . SVG Version: 6.00 Build 0)  -->
<svg version="1.1" id="Contact" xmlns="http://www.w3.org/2000/svg" xmlns:xlink="http://www.w3.org/1999/xlink" x="0px" y="0px"
	 viewBox="0 0 467.3 831.2" style="enable-background:new 0 0 467.3 831.2;" xml:space="preserve">
<style type="text/css">
	.st0{fill:#FFFFFF;}
	.st1{fill:#E1D0E2;}
	.st2{opacity:0.36;fill:#53494C;enable-background:new    ;}
	.st3{fill:#FFF6F0;}
	.st4{fill:#638D94;}
	.st5{fill:#EAE2DC;}
	.st6{fill:#D7679C;}
	.st7{fill:#CA5688;}
	.st8{fill:#67344F;}
	.st9{fill:#AD4A7A;}
	.st10{fill:#A64372;}
	.st11{fill:#FFFFFF;stroke:#231F20;stroke-width:0.4;stroke-miterlimit:10;}
	.st12{fill:#8F3D68;}
</style>
<title>Background Contact Mobile</title>
<rect x="0.1" y="-0.8" class="st0" width="467.9" height="832"/>
<g id="Contact_New">
	<polygon class="st1" points="929.6,158.3 -124.8,204.7 -124.8,-0.8 929.6,-0.8 	"/>
	<polygon class="st2" points="131.5,721.6 141.6,709.7 102.7,698.7 101,698.5 129.8,721.4 	"/>
	<polygon class="st3" points="101,698.5 139.9,709.5 129.8,721.4 90.9,710.5 	"/>
	<polygon class="st4" points="100.9,707.8 96.9,706.6 94.2,709.9 98.1,711 	"/>
	<path class="st4" d="M128,718.9L128,718.9l-13.3-3.8c-0.1,0-0.2-0.1-0.2-0.2c0-0.1,0.1-0.2,0.2-0.2c0,0,0,0,0.1,0l0,0l13.3,3.8
		c0.1,0,0.2,0.1,0.1,0.3C128.2,718.8,128.1,718.9,128,718.9z"/>
	<path class="st4" d="M128.8,718L128.8,718l-13.4-3.8c-0.1,0-0.2-0.1-0.2-0.2c0-0.1,0.1-0.2,0.2-0.2c0,0,0,0,0.1,0l0,0l13.3,3.8
		c0.1,0,0.2,0.1,0.1,0.3C128.9,717.9,128.8,718,128.8,718L128.8,718z"/>
	<path class="st4" d="M129.5,717.1L129.5,717.1l-13.4-3.8c-0.1,0-0.2-0.1-0.2-0.2c0-0.1,0.1-0.2,0.2-0.2c0,0,0,0,0.1,0l0,0l13.3,3.8
		c0.1,0,0.2,0.1,0.1,0.3C129.6,717.1,129.5,717.1,129.5,717.1L129.5,717.1z"/>
	<polygon class="st2" points="228.2,725.4 251.2,726.1 253.3,701.1 251.6,701 226.5,725.3 	"/>
	<polygon class="st3" points="226.5,725.3 228.6,700.3 251.6,701 249.4,725.9 	"/>
	<polygon class="st5" points="239,713.1 249.4,725.9 251.6,701 	"/>
	<polygon class="st2" points="189.6,770 232,774.9 227.5,787.9 225.4,787.7 187.4,769.8 	"/>
	<polygon class="st3" points="187.4,769.8 229.9,774.7 225.4,787.7 182.9,782.8 	"/>
	<polygon class="st5" points="206.4,778.7 182.9,782.8 225.4,787.7 	"/>
	<polygon class="st2" points="72,754.6 94.9,755.3 97,730.3 95.3,730.1 70.2,754.5 	"/>
	<polygon class="st3" points="70.2,754.5 72.3,729.5 95.3,730.1 93.2,755.1 	"/>
	<polygon class="st5" points="82.8,742.3 93.2,755.1 95.3,730.1 	"/>
	<polygon class="st2" points="219.1,657.9 250,679.8 251.7,680 260.7,667.8 220.8,658 	"/>
	<polygon class="st3" points="250,679.8 210.1,670.1 219.1,657.9 259,667.6 	"/>
	<polygon class="st5" points="234.5,668.8 259,667.6 219.1,657.9 	"/>
	<polygon class="st2" points="74.6,773.3 105.5,795.3 107.2,795.5 116.2,783.3 76.3,773.5 	"/>
	<polygon class="st3" points="105.5,795.3 65.6,785.6 74.6,773.3 114.4,783.1 	"/>
	<polygon class="st5" points="90,784.3 114.4,783.1 74.6,773.3 	"/>
	<polygon class="st2" points="196.3,755.6 212.6,746.2 181.9,728.6 180.2,728.4 194.6,755.5 	"/>
	<polygon class="st3" points="194.6,755.5 163.9,737.8 180.2,728.4 210.8,746.1 	"/>
	<polygon class="st5" points="187.4,742 210.8,746.1 180.2,728.4 	"/>
	<polygon class="st2" points="204.2,658.9 154.2,654.5 160,657.7 105.4,689.4 95.3,688.7 95.3,695.5 105.4,696.3 158.5,727 
		154.2,729.5 164.2,730.3 164.2,730.3 164.2,730.3 204.2,733.9 269.1,696.3 	"/>
	<g>
		<path class="st6" d="M196.3,524.1l-64.9,37.4c0.1,0.1,0.2,0.3,0.4,0.4c-3.1-3-6.4-5.5-9.9-7.5l-0.1-0.1c-8.2-4.7-15.7-5.5-21.4-3
			c-0.5,0.2-1,0.5-1.5,0.8c-5.9,3.4-9.5,10.7-9.5,21V692l6,3.4v0.1l3-1.7v-25c0-0.8,0.1-1.5,0.4-2.3c-1.4-0.2-2.5,0.5-3,1.9
			c0.5-1.4,1.6-2.1,3-2c0.8,0.1,1.6,0.4,2.3,0.8l41.5,24c3.4,2.1,5.5,5.8,5.7,9.8v25l6,3.4v0.1l6-3.4v-25c0.2-4,2.3-7.7,5.7-9.8
			l41.5-24c0.7-0.4,1.5-0.7,2.3-0.8c0,0,0,0,0.1,0c0.3,0.7,0.4,1.5,0.4,2.3v25l2.9,1.7v0l0,0l0,0v0l3.1-1.8h0.1v-0.1l2.8-1.6V573
			C219.1,556.2,209.5,536.4,196.3,524.1z M194,554.2L194,554.2L157.8,575L194,554.2z M149.3,579.8c-1.4-2.6-2.9-5.1-4.5-7.6
			C146.5,574.7,148,577.2,149.3,579.8L149.3,579.8z M213.1,692.1v-0.1l0.1,0.1L213.1,692.1z M157,605.5c-0.4-4.8-1.3-9.5-2.8-14
			c-0.2-0.7-0.5-1.5-0.8-2.2c0.3,0.7,0.5,1.4,0.8,2.2C155.7,595.9,156.6,600.6,157,605.5l59.1-34l0,0c0,0,0,0,0,0l0,0l0,0
			c-0.3-4.9-1.4-9.9-3-14.9c1.7,5,2.8,10,3.1,14.9L157,605.5z"/>
		<g>
			<polygon class="st6" points="195.2,523 130.3,560.5 131.4,561.5 196.3,524 			"/>
		</g>
	</g>
	<path class="st7" d="M210.3,666.5c-0.2,0-0.4,0-0.6,0c0.3,0.7,0.4,1.5,0.4,2.3v25l2.9,1.7v-25C213.1,668,212,666.5,210.3,666.5z"/>
	<path class="st8" d="M154.2,566.8l-2.8,1.6l-6.6,3.8l0,0c1.6,2.5,3.2,5,4.5,7.6l2.1-1.2l2.8-1.6l39.8-22.9v-10.4L154.2,566.8z"/>
	<path class="st9" d="M194,554.2l-39.8,22.9l-2.8,1.6l-2.1,1.2c0.7,1.4,1.4,2.8,2.1,4.3c1.1,2.4,2,4.8,2.8,7.3
		c1.5,4.5,2.5,9.2,2.8,14l59.1-33.9L194,554.2z"/>
	<path class="st10" d="M95.3,670.5v25l2.9-1.7v-25c0-0.8,0.1-1.5,0.4-2.3C96.7,666.3,95.3,667.7,95.3,670.5z"/>
	<path class="st7" d="M154.1,607.1c0-0.7-0.1-1.3-0.2-2c-0.5-3.9-1.3-7.8-2.5-11.6c-1.3-4.1-3-8.2-5-12c-1.4-2.6-2.9-5.2-4.5-7.6
		l0,0c-5.5-8.2-12.4-15.2-20-19.6l-0.1-0.1c-8.2-4.7-15.7-5.5-21.4-3c-0.5,0.2-1,0.5-1.5,0.8c-5.9,3.4-9.5,10.7-9.5,21l0,0V692
		l6,3.4v-25c0-2.8,1.3-4.2,3.4-4c0.8,0.1,1.6,0.4,2.3,0.8l41.5,24c3.4,2.1,5.5,5.8,5.7,9.8v25l6,3.4v-3.3l0,0V610.5
		C154.2,609.4,154.2,608.3,154.1,607.1z"/>
	<polygon class="st11" points="213.1,692.1 213.2,692 213.1,691.9 	"/>
	<path class="st7" d="M203.9,538.1l-9.9,5.7v10.4l22.1,17.3l0,0C215.4,560.4,210.8,548.3,203.9,538.1z"/>
	<path class="st12" d="M196.3,524.1l-64.9,37.4c3.9,3.7,7.5,7.9,10.5,12.4l0,0c1.6,2.5,3.2,5,4.5,7.6c2,3.9,3.7,7.9,5,12
		c1.2,3.8,2,7.7,2.5,11.6c0.1,0.7,0.1,1.3,0.2,2c0.1,1.1,0.1,2.2,0.1,3.3v115.6l0,0v3.4l6-3.4v-25c0.2-4,2.3-7.7,5.7-9.8l41.5-24
		c0.7-0.4,1.5-0.7,2.3-0.8c0.2,0,0.4,0,0.6,0c1.7,0.1,2.8,1.5,2.8,4v21.4l0.2,0.1l-0.2,0.1v3.4l3.1-1.8h0.1v-0.1l2.8-1.6V573
		C219.1,556.2,209.5,536.4,196.3,524.1z M151.4,584.1c-0.7-1.4-1.4-2.9-2.1-4.3c-1.4-2.6-2.9-5.2-4.5-7.6l0,0l6.6-3.8l2.8-1.6
		l39.8-23l9.9-5.7c6.9,10.2,11.5,22.3,12.3,33.4L157,605.5c-0.4-4.8-1.3-9.5-2.8-14C153.4,589,152.5,586.5,151.4,584.1L151.4,584.1z
		"/>
	<polygon class="st9" points="211.4,651.6 165.1,678.3 165.1,617.1 211.4,590.3 	"/>
	<path class="st7" d="M154.2,610.5l-0.1-1l-0.1-1.2c0-0.5,0-1-0.1-1.7c-0.1-1.2-0.3-2.8-0.6-4.5s-0.7-3.6-1.3-5.7s-1.3-4.3-2.2-6.5
		s-1.9-4.7-3.1-7c-1.2-2.5-2.6-4.8-4.1-7.2c-0.8-1.2-1.6-2.3-2.4-3.5c-0.4-0.5-0.8-1.2-1.3-1.7l-0.6-0.8l-0.7-0.8
		c-1.8-2.2-3.7-4.3-5.7-6.3c-2-1.9-4.1-3.7-6.3-5.3c-2.1-1.5-4.3-2.8-6.6-4c-2-1-4.2-1.8-6.4-2.4c-1.9-0.5-3.8-0.7-5.7-0.7
		c-1.5,0-3,0.2-4.4,0.5l-0.8,0.2c-0.3,0.1-0.5,0.2-0.7,0.3c-0.4,0.1-0.8,0.3-1.2,0.5c-0.6,0.3-0.9,0.5-0.9,0.5s0.3-0.2,0.9-0.5
		c0.4-0.2,0.7-0.4,1.1-0.5c0.2-0.1,0.5-0.2,0.7-0.3l0.8-0.3c1.5-0.4,3-0.6,4.5-0.7c2,0,3.9,0.2,5.8,0.6c2.3,0.5,4.5,1.3,6.6,2.4
		c2.3,1.1,4.6,2.5,6.7,4c2.3,1.6,4.4,3.4,6.4,5.3c2.1,2,4,4.1,5.8,6.3l0.7,0.8l0.6,0.9c0.4,0.5,0.9,1.2,1.3,1.7
		c0.8,1.2,1.6,2.3,2.4,3.5c1.5,2.3,2.8,4.8,4.1,7.2c2.2,4.4,3.9,9,5.2,13.7c0.5,1.9,0.9,3.8,1.2,5.8c0.3,1.7,0.4,3.2,0.5,4.5
		c0.1,0.6,0.1,1.2,0.1,1.7v1.2L154.2,610.5z"/>
	<path class="st7" d="M154.2,729.5v-5c0-3.2-0.1-7.7-0.1-13.1l-0.1-18.5v-21.2c0-7.2,0-14.5,0-21.2s0.1-13.1,0.1-18.5
		s0.1-10,0.1-13.1v-5v5c0,3.2,0.1,7.7,0.1,13.1l0.1,18.5c0,6.8,0,14,0,21.2v21.2l-0.1,18.5c0,5.4-0.1,10-0.1,13.1L154.2,729.5z"/>
	<path class="st7" d="M213.1,695.5c0,0,0-0.4-0.1-1.1s-0.1-1.7-0.1-2.8s-0.1-2.5-0.1-4v-9.2c0-1.5,0.1-2.8,0.1-4s0.1-2.2,0.1-2.8
		s0.1-1.1,0.1-1.1s0,0.4,0.1,1.1s0.1,1.7,0.1,2.8s0.1,2.5,0.1,4v9.2c0,1.5-0.1,2.8-0.1,4s-0.1,2.1-0.1,2.8
		C213.1,694.7,213.1,695.1,213.1,695.5z"/>
	<path class="st7" d="M95.3,695.5c0,0,0-0.4-0.1-1.1s-0.1-1.7-0.1-2.8s-0.1-2.5-0.1-4v-9.2c0-1.5,0.1-2.8,0.1-4s0.1-2.2,0.1-2.8
		s0.1-1.1,0.1-1.1s0,0.4,0.1,1.1s0.1,1.7,0.1,2.8s0.1,2.5,0.1,4v9.2c0,1.5-0.1,2.8-0.1,4s-0.1,2.2-0.1,2.8S95.3,695.5,95.3,695.5z"
		/>
	<path class="st6" d="M194,522.1c-2.3-2-4.8-3.7-7.4-5.3c-9-5.2-17.1-5.7-22.9-2.3L98.8,552c0.5-0.3,1-0.5,1.5-0.8
		c5.7-2.5,13.2-1.7,21.4,3l0.1,0.1c3,1.8,6.9,4.9,9.5,7.2l64.9-37.4C195.9,523.7,194.4,522.4,194,522.1z"/>
	<polygon class="st2" points="252.5,740.7 250.7,740.5 265.1,767.6 266.9,767.7 283.1,758.4 	"/>
	<polygon class="st3" points="265.1,767.6 234.5,749.9 250.7,740.5 281.4,758.2 	"/>
	<polygon class="st5" points="257.9,754 281.4,758.2 250.7,740.5 	"/>
	<polygon class="st2" points="57.7,714.9 59.4,715 77.9,707.2 52.2,687 50.5,686.9 	"/>
	<polygon class="st3" points="57.7,714.9 32,694.8 50.5,686.9 76.2,707 	"/>
	<polygon class="st5" points="54.1,700.9 76.2,707 50.5,686.9 	"/>
	<polygon class="st2" points="40.2,721.6 56.5,731 25.8,748.7 23.7,748.5 38.1,721.4 	"/>
	<polygon class="st3" points="7.5,739.1 38.1,721.4 54.3,730.8 23.7,748.5 	"/>
	<polygon class="st5" points="30.9,735 23.7,748.5 54.3,730.8 	"/>
	<polygon class="st2" points="122.5,747.7 151.6,770.4 153.4,770.6 163.3,758.6 124.2,747.8 	"/>
	<polygon class="st3" points="151.6,770.4 112.6,759.7 122.5,747.7 161.5,758.5 	"/>
	<polygon class="st4" points="151.6,761.2 155.6,762.3 158.3,759 154.3,757.9 	"/>
	<polygon class="st4" points="146.8,759.9 150.7,761 153.4,757.7 149.5,756.6 	"/>
	<path class="st4" d="M137.7,754.3L137.7,754.3l-13.4-3.7c-0.1,0-0.2-0.1-0.2-0.2c0-0.1,0.1-0.2,0.2-0.2c0,0,0,0,0.1,0l0,0l13.4,3.7
		c0.1,0,0.2,0.1,0.2,0.2C137.8,754.3,137.8,754.4,137.7,754.3L137.7,754.3z"/>
	<path class="st4" d="M136.9,755.2L136.9,755.2l-13.4-3.7c-0.1,0-0.2-0.1-0.2-0.2c0-0.1,0.1-0.2,0.2-0.2c0,0,0,0,0.1,0l0,0l13.4,3.7
		c0.1,0,0.2,0.1,0.2,0.2C137.1,755.1,137.1,755.2,136.9,755.2L136.9,755.2z"/>
	<path class="st4" d="M136.2,756.1L136.2,756.1l-13.4-3.7c-0.1,0-0.1-0.2-0.1-0.3c0-0.1,0.1-0.1,0.2-0.1l13.4,3.7
		c0.1,0,0.2,0.1,0.2,0.2C136.4,756,136.3,756.1,136.2,756.1L136.2,756.1z"/>
	<polygon class="st2" points="297.5,682.7 295.8,682.5 303.5,710.5 305.3,710.6 323.6,702.7 	"/>
	<polygon class="st3" points="303.5,710.5 277.4,690.5 295.8,682.5 321.9,702.5 	"/>
	<polygon class="st4" points="310.8,702.3 313.5,704.3 318.5,702.1 315.9,700.1 	"/>
	<polygon class="st4" points="307.6,699.8 310.2,701.8 315.3,699.6 312.6,697.6 	"/>
	<path class="st4" d="M304.1,692.5c0,0-0.1,0-0.1,0l-8.9-6.8c-0.1-0.1-0.1-0.2,0-0.3c0.1-0.1,0.2-0.1,0.3,0l8.9,6.8
		c0.1,0.1,0.1,0.2,0,0.3C304.2,692.5,304.2,692.5,304.1,692.5L304.1,692.5z"/>
	<path class="st4" d="M302.8,693.1c0,0-0.1,0-0.1,0l-8.9-6.8c-0.1-0.1-0.1-0.2-0.1-0.3c0.1-0.1,0.2-0.1,0.3-0.1l0,0l0,0l8.9,6.8
		C302.9,692.8,302.9,692.9,302.8,693.1C302.8,693.1,302.8,693.1,302.8,693.1L302.8,693.1z"/>
	<path class="st4" d="M301.4,693.7c0,0-0.1,0-0.1,0l-8.9-6.8c-0.1-0.1-0.1-0.2,0-0.3c0.1-0.1,0.2-0.1,0.3,0l8.9,6.8
		c0.1,0.1,0.1,0.2,0,0.3C301.5,693.7,301.5,693.7,301.4,693.7L301.4,693.7z"/>
	<polygon class="st2" points="282.2,723.1 314.5,744.4 316.2,744.6 324.4,732.2 283.9,723.3 	"/>
	<polygon class="st3" points="314.5,744.4 274,735.5 282.2,723.1 322.6,732 	"/>
	<polygon class="st4" points="313.1,735.3 317.2,736.2 319.5,732.8 315.4,731.8 	"/>
	<polygon class="st4" points="308.1,734.2 312.2,735 314.4,731.6 310.4,730.8 	"/>
	<path class="st4" d="M298.2,729L298.2,729l-13.8-3c-0.1,0-0.2-0.1-0.1-0.3c0-0.1,0.1-0.2,0.2-0.1l13.8,3c0.1,0,0.2,0.1,0.2,0.2
		C298.5,728.9,298.4,729,298.2,729L298.2,729z"/>
	<path class="st4" d="M297.6,729.9L297.6,729.9l-13.8-3c-0.1,0-0.2-0.1-0.1-0.3c0-0.1,0.1-0.2,0.2-0.1l13.8,3c0.1,0,0.2,0.1,0.2,0.2
		C297.9,729.9,297.8,729.9,297.6,729.9L297.6,729.9z"/>
	<path class="st4" d="M297,730.8L297,730.8l-13.8-3c-0.1,0-0.2-0.1-0.2-0.2s0.1-0.2,0.2-0.2l0,0l13.8,3c0.1,0,0.2,0.1,0.2,0.2
		C297.1,730.8,297.1,730.8,297,730.8L297,730.8z"/>
</g>
</svg>
