<?xml version="1.0" encoding="utf-8"?>
<!-- Generator: Adobe Illustrator 20.1.0, SVG Export Plug-In . SVG Version: 6.00 Build 0)  -->
<svg version="1.1" id="Layer_1" xmlns="http://www.w3.org/2000/svg" xmlns:xlink="http://www.w3.org/1999/xlink" x="0px" y="0px"
	 viewBox="0 0 1366 768" style="enable-background:new 0 0 1366 768;" xml:space="preserve">
<style type="text/css">
	.st0{fill:#E0CFE2;}
	.st1{opacity:0.36;fill:#52494B;enable-background:new    ;}
	.st2{fill:#FFF6F0;}
	.st3{fill:#628D93;}
	.st4{fill:#EAE2DD;}
	.st5{fill:#C95687;}
	.st6{fill:#66334E;}
	.st7{fill:#AD4979;}
	.st8{fill:#A54171;}
	.st9{fill:#8E3C67;}
	.st10{fill:#D6679C;}
	.st11{fill:#FFFFFF;stroke:#231F20;stroke-width:0.72;stroke-miterlimit:10;}
</style>
<title>Background Contact</title>
<g>
	<g id="Contact_New">
		<polygon class="st0" points="1366,205.1 0,265.2 0,-1 1366,-1 		"/>
		<polygon class="st1" points="287.5,559.5 305.7,537.9 235.4,518.1 232.2,517.8 284.3,559.2 		"/>
		<polygon class="st2" points="232.2,517.8 302.6,537.6 284.3,559.2 214,539.3 		"/>
		<polygon class="st3" points="232,534.4 224.9,532.4 219.9,538.4 227,540.4 		"/>
		<path class="st3" d="M281.1,554.6H281l-24.1-6.8c-0.2,0-0.3-0.2-0.3-0.4c0-0.2,0.2-0.3,0.4-0.3c0,0,0.1,0,0.1,0l24.1,6.8
			c0.2,0.1,0.3,0.3,0.2,0.5C281.4,554.5,281.2,554.6,281.1,554.6L281.1,554.6z"/>
		<path class="st3" d="M282.4,553h-0.1l-24.1-6.8c-0.2,0-0.3-0.2-0.3-0.4c0-0.2,0.2-0.3,0.4-0.3c0,0,0.1,0,0.1,0l24.1,6.8
			c0.2,0.1,0.3,0.3,0.2,0.5C282.7,552.9,282.6,553,282.4,553L282.4,553z"/>
		<path class="st3" d="M283.8,551.4h-0.1l-24.1-6.8c-0.2,0-0.3-0.2-0.3-0.4c0-0.2,0.2-0.3,0.4-0.3c0,0,0.1,0,0.1,0l24.1,6.8
			c0.2,0.1,0.3,0.3,0.2,0.5C284,551.3,283.9,551.4,283.8,551.4L283.8,551.4z"/>
		<polygon class="st1" points="462.3,566.4 503.8,567.6 507.6,522.4 504.5,522.2 459.1,566.1 		"/>
		<polygon class="st2" points="459.1,566.1 463,521 504.5,522.2 500.6,567.3 		"/>
		<polygon class="st4" points="481.8,544.2 500.6,567.3 504.5,522.2 		"/>
		<polygon class="st1" points="392.4,646.9 469.1,655.8 461,679.3 457.2,679 388.5,646.6 		"/>
		<polygon class="st2" points="388.5,646.6 465.3,655.5 457.2,679 380.4,670.1 		"/>
		<polygon class="st4" points="422.9,662.8 380.4,670.1 457.2,679 		"/>
		<polygon class="st1" points="179.8,619.2 221.2,620.3 225.1,575.2 221.9,574.9 176.6,618.9 		"/>
		<polygon class="st2" points="176.6,618.9 180.4,573.7 221.9,574.9 218.1,620.1 		"/>
		<polygon class="st4" points="199.3,596.9 218.1,620.1 221.9,574.9 		"/>
		<polygon class="st1" points="445.8,444.2 501.6,484 504.8,484.2 521,462.1 448.9,444.5 		"/>
		<polygon class="st2" points="501.6,484 429.5,466.3 445.8,444.2 517.8,461.9 		"/>
		<polygon class="st4" points="473.7,464.1 517.8,461.9 445.8,444.2 		"/>
		<polygon class="st1" points="184.4,653 240.3,692.8 243.5,693 259.7,671 187.6,653.3 		"/>
		<polygon class="st2" points="240.3,692.8 168.2,675.1 184.4,653 256.5,670.7 		"/>
		<polygon class="st4" points="212.4,672.9 256.5,670.7 184.4,653 		"/>
		<polygon class="st1" points="404.6,621 434,604 378.6,572.1 375.4,571.8 401.4,620.7 		"/>
		<polygon class="st2" points="401.4,620.7 346.1,588.8 375.4,571.8 430.8,603.8 		"/>
		<polygon class="st4" points="388.4,596.3 430.8,603.8 375.4,571.8 		"/>
		<polygon class="st1" points="418.9,446 328.5,438.1 338.9,443.9 240.1,501.3 222,499.9 222,512.2 240.1,513.7 336.3,569.3 
			328.5,573.7 346.6,575.3 346.6,575.3 346.6,575.3 418.9,581.6 536.2,513.7 		"/>
		<path class="st5" d="M404.5,202.3l-2-1.9c-0.7-0.6-1.3-1.2-2-1.7c-4.2-3.6-8.6-6.7-13.4-9.5c-16.2-9.3-30.9-10.2-41.5-4.1
			l-117,67.6c-0.1,0.1-0.2,0.1-0.3,0.2c-10.6,6.1-17.2,19.3-17.2,38V506l10.8,6.2v0l5.3-3.1V464c0-1.4,0.2-2.8,0.7-4.1
			c-3.6-0.4-6.1,2.2-6.1,7.2c0-5,2.4-7.6,6.1-7.2c1.5,0.2,2.9,0.7,4.2,1.5l75.1,43.4c6.1,3.8,10,10.4,10.3,17.7v45.2l10.9,6.2v-6.1
			V358.5c0-1.9,0-3.8-0.2-5.7c0.1,1.9,0.2,3.8,0.2,5.7v209.1v6.1l10.9-6.2v-45.2c0-6.8,4.5-14.3,10.3-17.7l75-43.4
			c1.3-0.8,2.7-1.3,4.2-1.5c0,0,0,0,0,0c0.5,1.3,0.8,2.7,0.7,4.1v45.2l5.3,3.1v0.1l5.7-3.2l0.1,0.1v-0.1l5.1-2.9V290.8
			C445.8,260.4,428.4,224.7,404.5,202.3z M269.8,256.9c-13-7.5-25-9.5-34.7-6.9C244.8,247.4,256.8,249.4,269.8,256.9l0.2,0.1
			c0.2,0.1,0.5,0.3,0.7,0.4c-0.2-0.1-0.5-0.3-0.7-0.4L269.8,256.9z M282.2,265.6c-0.5-0.4-1-0.8-1.5-1.2
			C281.2,264.8,281.7,265.2,282.2,265.6z M278.7,262.9c-0.4-0.3-0.7-0.6-1.1-0.8C278,262.3,278.4,262.6,278.7,262.9z M274.4,259.8
			c-0.3-0.2-0.5-0.4-0.8-0.5C273.8,259.4,274.1,259.6,274.4,259.8z M440.5,288.1C440.5,288.1,440.5,288.1,440.5,288.1L440.5,288.1
			C440.5,288.1,440.5,288.1,440.5,288.1L440.5,288.1z M440.5,288c-0.4-5.7-1.4-11.6-2.8-17.5C439.1,276.5,440.1,282.3,440.5,288
			L440.5,288z M418.3,227.7L418.3,227.7L400.5,238v18.8l-72,41.4l-5.1,2.9l5.1-2.9l72-41.3V238l-34.2,19.8l34.2-19.8L418.3,227.7z
			 M314.3,306.2c-2.5-4.7-5.2-9.3-8.2-13.8c-3.7-5.5-7.8-10.8-12.2-15.6c4.5,4.9,8.5,10.1,12.2,15.6
			C309.1,296.9,311.9,301.5,314.3,306.2c3.6,7,6.7,14.3,9.1,21.8C321,320.5,318,313.2,314.3,306.2z M333.6,349.5
			c-0.7-8.6-2.4-17.1-5.1-25.3c-1.5-4.5-3.1-8.9-5.1-13.2c-1.2-2.6-2.4-5.2-3.7-7.8c0,0,0,0,0,0l0,0c1.3,2.5,2.6,5.1,3.7,7.7
			c1.9,4.3,3.6,8.7,5.1,13.2C331.2,332.3,332.9,340.8,333.6,349.5l106.9-61.4l0,0L333.6,349.5z M434.9,506.1v-0.3l0.3,0.2
			L434.9,506.1z"/>
		<path class="st5" d="M429.8,459.8c-0.3,0-0.7,0-1,0c0.5,1.3,0.8,2.7,0.7,4.1v45.2l5.3,3.1V467
			C434.9,462.5,432.9,459.9,429.8,459.8z"/>
		<path class="st6" d="M328.5,279.6l-5.1,2.9l-11.9,6.9l0,0c3,4.4,5.7,9,8.2,13.8l3.7-2.2l5.1-2.9l72-41.4V238L328.5,279.6z"/>
		<path class="st7" d="M400.5,256.8l-72,41.4l-5.1,2.9l-3.7,2.1c1.3,2.6,2.6,5.1,3.7,7.8c1.9,4.3,3.6,8.7,5.1,13.2
			c2.7,8.2,4.4,16.7,5.1,25.4l106.9-61.4L400.5,256.8z"/>
		<path class="st8" d="M222,467v45.2l5.3-3.1V464c0-1.4,0.2-2.8,0.7-4.1C224.5,459.4,222,462,222,467z"/>
		<path class="st5" d="M328.2,352.5c-0.1-1.2-0.2-2.4-0.3-3.5c-0.8-7.1-2.3-14.2-4.5-21c-2.4-7.5-5.4-14.8-9.1-21.8
			c-2.5-4.7-5.2-9.3-8.2-13.8l0,0c-9.9-14.8-22.5-27.5-36.2-35.4l-0.2-0.1c-14.8-8.6-28.4-10-38.7-5.5c-0.9,0.4-1.9,0.9-2.8,1.4
			c-10.6,6.1-17.2,19.3-17.2,38l0,0V506l10.8,6.2V467c0-5,2.4-7.6,6.1-7.2c1.5,0.2,2.9,0.7,4.2,1.5l75.1,43.4
			c6.1,3.8,10,10.4,10.3,17.7v45.2l10.9,6.2v-6.1l0,0V358.5C328.5,356.6,328.4,354.6,328.2,352.5z"/>
		<path class="st9" d="M404.5,202.3L287.2,270c7.1,6.7,13.5,14.3,18.9,22.4l0,0c3,4.4,5.7,9,8.2,13.8c3.6,7,6.7,14.3,9.1,21.8
			c2.2,6.8,3.7,13.9,4.5,21c0.1,1.2,0.2,2.4,0.3,3.5c0.1,2,0.2,4,0.2,6v209.1l0,0v6.1l10.9-6.2v-45.2c0-6.8,4.5-14.3,10.3-17.7
			l75-43.4c1.3-0.8,2.7-1.3,4.2-1.5c0.3,0,0.7,0,1,0c3.1,0.1,5.1,2.6,5.1,7.2v38.8l0.3,0.2l-0.3,0.2v6.1l5.7-3.2l0.1,0.1v-0.1
			l5.1-2.9V290.8C445.8,260.4,428.4,224.7,404.5,202.3z M323.4,310.9c-1.2-2.6-2.4-5.2-3.7-7.8c-2.5-4.7-5.2-9.3-8.2-13.8l0,0
			l11.9-6.9l5.1-2.9l72-41.6l17.8-10.3c12.4,18.5,20.8,40.3,22.2,60.4l-106.9,61.4c-0.7-8.6-2.4-17.1-5.1-25.4
			C327,319.6,325.3,315.2,323.4,310.9z"/>
		<polygon class="st7" points="431.9,432.9 348.1,481.2 348.1,370.5 431.9,322.1 		"/>
		<path class="st10" d="M400.5,198.7c-4.2-3.6-8.6-6.7-13.4-9.5c-16.2-9.4-30.9-10.2-41.5-4.1l-117.3,67.8c0.9-0.5,1.8-1,2.8-1.4
			c10.3-4.5,23.9-3.1,38.7,5.5l0.2,0.1c5.4,3.2,10.5,6.9,15.2,11.1l117.3-67.7C401.8,199.8,401.2,199.3,400.5,198.7z"/>
		<path class="st5" d="M418.3,227.7L400.5,238v18.8l40,31.3l0,0C439.1,268,430.7,246.2,418.3,227.7z"/>
		<path class="st5" d="M429.8,459.8c-0.3,0-0.7,0-1,0c0.5,1.3,0.8,2.7,0.7,4.1v45.2l5.3,3.1V467
			C434.9,462.5,432.9,459.9,429.8,459.8z"/>
		<path class="st6" d="M328.5,279.6l-5.1,2.9l-11.9,6.9l0,0c3,4.4,5.7,9,8.2,13.8l3.7-2.2l5.1-2.9l72-41.4V238L328.5,279.6z"/>
		<path class="st7" d="M400.5,256.8l-72,41.4l-5.1,2.9l-3.7,2.1c1.3,2.6,2.6,5.1,3.7,7.8c1.9,4.3,3.6,8.7,5.1,13.2
			c2.7,8.2,4.4,16.7,5.1,25.4l106.9-61.4L400.5,256.8z"/>
		<path class="st8" d="M222,467v45.2l5.3-3.1V464c0-1.4,0.2-2.8,0.7-4.1C224.5,459.4,222,462,222,467z"/>
		<path class="st5" d="M328.2,352.5c-0.1-1.2-0.2-2.4-0.3-3.5c-0.8-7.1-2.3-14.2-4.5-21c-2.4-7.5-5.4-14.8-9.1-21.8
			c-2.5-4.7-5.2-9.3-8.2-13.8l0,0c-9.9-14.8-22.5-27.5-36.2-35.4l-0.2-0.1c-14.8-8.6-28.4-10-38.7-5.5c-0.9,0.4-1.9,0.9-2.8,1.4
			c-10.6,6.1-17.2,19.3-17.2,38l0,0V506l10.8,6.2V467c0-5,2.4-7.6,6.1-7.2c1.5,0.2,2.9,0.7,4.2,1.5l75.1,43.4
			c6.1,3.8,10,10.4,10.3,17.7v45.2l10.9,6.2v-6.1l0,0V358.5C328.5,356.6,328.4,354.6,328.2,352.5z"/>
		<path class="st9" d="M404.5,202.3L287.2,270c7.1,6.7,13.5,14.3,18.9,22.4l0,0c3,4.4,5.7,9,8.2,13.8c3.6,7,6.7,14.3,9.1,21.8
			c2.2,6.8,3.7,13.9,4.5,21c0.1,1.2,0.2,2.4,0.3,3.5c0.1,2,0.2,4,0.2,6v209.1l0,0v6.1l10.9-6.2v-45.2c0-6.8,4.5-14.3,10.3-17.7
			l75-43.4c1.3-0.8,2.7-1.3,4.2-1.5c0.3,0,0.7,0,1,0c3.1,0.1,5.1,2.6,5.1,7.2v38.8l0.3,0.2l-0.3,0.2v6.1l5.7-3.2l0.1,0.1v-0.1
			l5.1-2.9V290.8C445.8,260.4,428.4,224.7,404.5,202.3z M323.4,310.9c-1.2-2.6-2.4-5.2-3.7-7.8c-2.5-4.7-5.2-9.3-8.2-13.8l0,0
			l11.9-6.9l5.1-2.9l72-41.6l17.8-10.3c12.4,18.5,20.8,40.3,22.2,60.4l-106.9,61.4c-0.7-8.6-2.4-17.1-5.1-25.4
			C327,319.6,325.3,315.2,323.4,310.9z"/>
		<polygon class="st7" points="431.9,432.9 348.1,481.2 348.1,370.5 431.9,322.1 		"/>
		<path class="st10" d="M400.5,198.7c-4.2-3.6-8.6-6.7-13.4-9.5c-16.2-9.4-30.9-10.2-41.5-4.1l-117.3,67.8c0.9-0.5,1.8-1,2.8-1.4
			c10.3-4.5,23.9-3.1,38.7,5.5l0.2,0.1c5.4,3.2,10.5,6.9,15.2,11.1l117.3-67.7C401.8,199.8,401.2,199.3,400.5,198.7z"/>
		<path class="st5" d="M429.8,459.8c-0.3,0-0.7,0-1,0c0.5,1.3,0.8,2.7,0.7,4.1v45.2l5.3,3.1V467
			C434.9,462.5,432.9,459.9,429.8,459.8z"/>
		<path class="st6" d="M328.5,279.6l-5.1,2.9l-11.9,6.9l0,0c3,4.4,5.7,9,8.2,13.8l3.7-2.2l5.1-2.9l72-41.4V238L328.5,279.6z"/>
		<path class="st7" d="M400.5,256.8l-72,41.4l-5.1,2.9l-3.7,2.1c1.3,2.6,2.6,5.1,3.7,7.8c1.9,4.3,3.6,8.7,5.1,13.2
			c2.7,8.2,4.4,16.7,5.1,25.4l106.9-61.4L400.5,256.8z"/>
		<path class="st8" d="M222,467v45.2l5.3-3.1V464c0-1.4,0.2-2.8,0.7-4.1C224.5,459.4,222,462,222,467z"/>
		<path class="st5" d="M328.2,352.5c-0.1-1.2-0.2-2.4-0.3-3.5c-0.8-7.1-2.3-14.2-4.5-21c-2.4-7.5-5.4-14.8-9.1-21.8
			c-2.5-4.7-5.2-9.3-8.2-13.8l0,0c-9.9-14.8-22.5-27.5-36.2-35.4l-0.2-0.1c-14.8-8.6-28.4-10-38.7-5.5c-0.9,0.4-1.9,0.9-2.8,1.4
			c-10.6,6.1-17.2,19.3-17.2,38l0,0V506l10.8,6.2V467c0-5,2.4-7.6,6.1-7.2c1.5,0.2,2.9,0.7,4.2,1.5l75.1,43.4
			c6.1,3.8,10,10.4,10.3,17.7v45.2l10.9,6.2v-6.1l0,0V358.5C328.5,356.6,328.4,354.6,328.2,352.5z"/>
		<polygon class="st11" points="434.9,506.1 435.2,505.9 434.9,505.8 		"/>
		<path class="st5" d="M418.3,227.7L400.5,238v18.8l40,31.3l0,0C439.1,268,430.7,246.2,418.3,227.7z"/>
		<path class="st9" d="M404.5,202.3L287.2,270c7.1,6.7,13.5,14.3,18.9,22.4l0,0c3,4.4,5.7,9,8.2,13.8c3.6,7,6.7,14.3,9.1,21.8
			c2.2,6.8,3.7,13.9,4.5,21c0.1,1.2,0.2,2.4,0.3,3.5c0.1,2,0.2,4,0.2,6v209.1l0,0v6.1l10.9-6.2v-45.2c0-6.8,4.5-14.3,10.3-17.7
			l75-43.4c1.3-0.8,2.7-1.3,4.2-1.5c0.3,0,0.7,0,1,0c3.1,0.1,5.1,2.6,5.1,7.2v38.8l0.3,0.2l-0.3,0.2v6.1l5.7-3.2l0.1,0.1v-0.1
			l5.1-2.9V290.8C445.8,260.4,428.4,224.7,404.5,202.3z M323.4,310.9c-1.2-2.6-2.4-5.2-3.7-7.8c-2.5-4.7-5.2-9.3-8.2-13.8l0,0
			l11.9-6.9l5.1-2.9l72-41.6l17.8-10.3c12.4,18.5,20.8,40.3,22.2,60.4l-106.9,61.4c-0.7-8.6-2.4-17.1-5.1-25.4
			C327,319.6,325.3,315.2,323.4,310.9z"/>
		<polygon class="st7" points="431.9,432.9 348.1,481.2 348.1,370.5 431.9,322.1 		"/>
		<path class="st5" d="M328.5,358.5l-0.1-1.9l-0.1-2.2c0-0.9-0.1-1.9-0.2-3c-0.2-2.3-0.5-5-1.1-8.1s-1.3-6.6-2.4-10.3
			s-2.3-7.7-3.9-11.9s-3.5-8.4-5.7-12.7c-2.2-4.4-4.7-8.8-7.4-12.9c-1.4-2.1-2.8-4.2-4.3-6.3c-0.8-1-1.5-2.1-2.3-3.1l-1.2-1.5
			l-1.2-1.5c-3.2-4-6.6-7.8-10.3-11.4c-3.6-3.5-7.3-6.7-11.4-9.6c-3.8-2.7-7.7-5.2-11.9-7.3c-3.7-1.9-7.6-3.3-11.6-4.4
			c-3.4-0.9-6.9-1.3-10.4-1.3c-2.7,0-5.4,0.3-8,1l-1.5,0.5c-0.5,0.1-0.9,0.3-1.3,0.5c-0.7,0.3-1.4,0.6-2.1,0.9
			c-1.1,0.5-1.6,0.9-1.6,0.9s0.6-0.4,1.6-0.9c0.7-0.3,1.3-0.6,2-0.9c0.4-0.2,0.8-0.4,1.3-0.5l1.5-0.5c2.6-0.7,5.4-1.2,8.1-1.2
			c3.6-0.1,7.1,0.3,10.6,1.1c4.1,1,8.1,2.4,11.8,4.3c4.2,2,8.3,4.4,12.1,7.2c4.1,2.9,7.9,6.2,11.6,9.7c3.7,3.6,7.2,7.4,10.5,11.4
			l1.2,1.5l1.2,1.5c0.8,1,1.5,2.1,2.3,3.1c1.5,2.1,2.9,4.2,4.3,6.4c2.7,4.2,5.1,8.6,7.4,13.1c4,7.9,7.1,16.3,9.4,24.9
			c0.9,3.4,1.6,6.9,2.2,10.4c0.5,3.1,0.8,5.9,0.9,8.1c0.1,1.1,0.1,2.1,0.1,3v2.2L328.5,358.5z"/>
		<path class="st5" d="M328.5,573.7l-0.1-9c0-5.7-0.2-13.9-0.2-23.7l-0.2-33.5l-0.1-38.4c0-13.1,0-26.1,0.1-38.4s0.1-23.7,0.2-33.5
			s0.2-18,0.2-23.7l0.1-9l0.1,9c0,5.7,0.2,13.9,0.2,23.7l0.2,33.5c0,12.2,0,25.3,0.1,38.4l-0.1,38.4l-0.2,33.5
			c0,9.8-0.2,18-0.2,23.7L328.5,573.7z"/>
		<path class="st5" d="M434.9,512.2c0,0,0-0.7-0.1-1.9s-0.1-3-0.2-5.1s-0.1-4.6-0.2-7.2v-4.1v-4.2v-4.2c0-1.4,0-2.8,0-4.1
			c0-2.6,0.1-5.1,0.2-7.2s0.2-3.9,0.2-5.1s0.1-1.9,0.1-1.9s0,0.7,0.1,1.9s0.1,3,0.2,5.1s0.1,4.6,0.2,7.2c0,1.3,0,2.7,0,4.1v4.2v4.2
			v4.1c0,2.6-0.1,5.1-0.2,7.2s-0.2,3.9-0.2,5.1S434.9,512.2,434.9,512.2z"/>
		<path class="st5" d="M222,512.2c0,0,0-0.7-0.1-1.9s-0.1-3-0.2-5.1s-0.1-4.6-0.2-7.2v-4.1v-4.2v-4.2c0-1.4,0-2.8,0-4.1
			c0-2.6,0.1-5.1,0.2-7.2s0.2-3.9,0.2-5.1s0.1-2,0.1-2s0,0.7,0.1,1.9s0.1,3,0.2,5.1s0.1,4.6,0.2,7.2c0,1.3,0,2.7,0,4.1v4.2v4.2v4.1
			c0,2.6-0.1,5.1-0.2,7.2s-0.2,3.9-0.2,5.1S222,512.2,222,512.2z"/>
		<path class="st10" d="M400.5,198.7c-4.2-3.6-8.6-6.7-13.4-9.5c-16.2-9.4-30.9-10.2-41.5-4.1l-117.3,67.8c0.9-0.5,1.8-1,2.8-1.4
			c10.3-4.5,23.9-3.1,38.7,5.5l0.2,0.1c5.4,3.2,10.5,6.9,15.2,11.1l117.3-67.7C401.8,199.8,401.2,199.3,400.5,198.7z"/>
		<path class="st10" d="M285.2,268.2c0.7,0.6,1.3,1.2,2,1.9l117.3-67.7c-0.7-0.6-1.3-1.3-2-1.9L285.2,268.2z"/>
		<polygon class="st1" points="506.1,594 503,593.7 529,642.6 532.2,642.9 561.5,625.9 		"/>
		<polygon class="st2" points="529,642.6 473.6,610.6 503,593.7 558.4,625.7 		"/>
		<polygon class="st4" points="516,618.1 558.4,625.7 503,593.7 		"/>
		<polygon class="st1" points="153.9,547.3 157.1,547.6 190.5,533.4 144,497 140.9,496.7 		"/>
		<polygon class="st2" points="153.9,547.3 107.4,511 140.9,496.7 187.4,533.1 		"/>
		<polygon class="st4" points="147.4,522 187.4,533.1 140.9,496.7 		"/>
		<polygon class="st1" points="122.3,559.5 151.7,576.5 96.3,608.4 92.5,608.1 118.6,559.2 		"/>
		<polygon class="st2" points="63.2,591.1 118.6,559.2 147.9,576.1 92.5,608.1 		"/>
		<polygon class="st4" points="105.5,583.6 92.5,608.1 147.9,576.1 		"/>
		<polygon class="st1" points="271,606.7 323.8,647.8 327,648 344.9,626.4 274.2,606.9 		"/>
		<polygon class="st2" points="323.8,647.8 253.2,628.3 271,606.7 341.7,626.1 		"/>
		<polygon class="st3" points="323.8,631.1 330.9,633.1 335.8,627.1 328.7,625.2 		"/>
		<polygon class="st3" points="315,628.7 322.1,630.7 327,624.7 319.9,622.8 		"/>
		<path class="st3" d="M298.5,618.6h-0.1l-24.2-6.6c-0.2,0-0.3-0.2-0.3-0.4c0-0.2,0.2-0.3,0.4-0.3c0,0,0.1,0,0.1,0l24.2,6.7
			c0.2,0.1,0.3,0.3,0.2,0.5C298.8,618.6,298.7,618.7,298.5,618.6L298.5,618.6z"/>
		<path class="st3" d="M297.2,620.2h-0.1l-24.2-6.7c-0.2,0-0.3-0.2-0.3-0.4c0-0.2,0.2-0.3,0.4-0.3c0,0,0.1,0,0.1,0l24.2,6.7
			c0.2,0.1,0.3,0.3,0.2,0.5C297.5,620.1,297.4,620.2,297.2,620.2L297.2,620.2z"/>
		<path class="st3" d="M295.9,621.8h-0.1l-24.2-6.7c-0.2-0.1-0.3-0.3-0.2-0.5c0.1-0.2,0.2-0.2,0.4-0.2l24.2,6.7
			c0.2,0.1,0.3,0.3,0.2,0.5C296.2,621.7,296.1,621.8,295.9,621.8z"/>
		<polygon class="st1" points="587.5,489.1 584.4,488.9 598.4,539.4 601.6,539.7 634.7,525.2 		"/>
		<polygon class="st2" points="598.4,539.4 551.2,503.3 584.4,488.9 631.6,524.9 		"/>
		<polygon class="st3" points="611.6,524.6 616.4,528.2 625.5,524.2 620.7,520.6 		"/>
		<polygon class="st3" points="605.8,520.1 610.5,523.7 619.6,519.8 614.9,516.1 		"/>
		<path class="st3" d="M599.5,506.8c-0.1,0-0.2,0-0.2-0.1l-16.2-12.4c-0.1-0.1-0.1-0.4,0-0.5c0.1-0.1,0.3-0.1,0.4-0.1l16.2,12.4
			c0.2,0.1,0.2,0.4,0.1,0.5C599.7,506.8,599.6,506.8,599.5,506.8L599.5,506.8z"/>
		<path class="st3" d="M597.1,507.9c-0.1,0-0.2,0-0.2-0.1l-16.2-12.4c-0.2-0.1-0.2-0.3-0.1-0.5c0.1-0.2,0.3-0.2,0.5-0.1
			c0,0,0.1,0,0.1,0.1l16.2,12.4c0.2,0.1,0.2,0.4,0.1,0.5C597.3,507.8,597.2,507.9,597.1,507.9L597.1,507.9z"/>
		<path class="st3" d="M594.6,509c-0.1,0-0.2,0-0.2-0.1l-16.2-12.4c-0.1-0.1-0.1-0.4,0-0.5c0.1-0.1,0.3-0.1,0.4-0.1l16.2,12.4
			c0.2,0.1,0.2,0.4,0.1,0.5C594.8,508.9,594.7,509,594.6,509L594.6,509z"/>
		<polygon class="st1" points="559.8,562.2 618.2,600.8 621.4,601 636.2,578.6 563,562.5 		"/>
		<polygon class="st2" points="618.2,600.8 545,584.7 559.8,562.2 633,578.4 		"/>
		<polygon class="st3" points="615.8,584.2 623.2,585.8 627.2,579.6 619.9,578 		"/>
		<polygon class="st3" points="606.7,582.2 614.1,583.8 618.2,577.6 610.8,576 		"/>
		<path class="st3" d="M588.9,572.9L588.9,572.9l-25.1-5.5c-0.2-0.1-0.3-0.3-0.2-0.5c0.1-0.2,0.2-0.3,0.4-0.2l25,5.5
			c0.2,0,0.3,0.2,0.3,0.4C589.2,572.8,589,572.9,588.9,572.9L588.9,572.9z"/>
		<path class="st3" d="M587.8,574.5L587.8,574.5l-25.1-5.5c-0.2-0.1-0.3-0.3-0.2-0.5c0.1-0.2,0.2-0.3,0.4-0.2l25,5.5
			c0.2,0,0.3,0.2,0.3,0.4C588.1,574.4,587.9,574.6,587.8,574.5L587.8,574.5z"/>
		<path class="st3" d="M586.7,576.2L586.7,576.2l-25.1-5.5c-0.2,0-0.3-0.2-0.3-0.4s0.2-0.3,0.4-0.3c0,0,0.1,0,0.1,0l25,5.5
			c0.2,0,0.3,0.2,0.3,0.4C587,576.1,586.9,576.2,586.7,576.2L586.7,576.2z"/>
	</g>
</g>
</svg>
