<?xml version="1.0" encoding="utf-8"?>
<!-- Generator: Adobe Illustrator 20.1.0, SVG Export Plug-In . SVG Version: 6.00 Build 0)  -->
<svg version="1.1" id="Layer_1" xmlns="http://www.w3.org/2000/svg" xmlns:xlink="http://www.w3.org/1999/xlink" x="0px" y="0px"
	 viewBox="0 0 1366 768" style="enable-background:new 0 0 1366 768;" xml:space="preserve">
<style type="text/css">
	.st0{fill:#E0CFE2;}
	.st1{opacity:0.36;fill:#52494B;enable-background:new    ;}
	.st2{fill:#FFF6F0;}
	.st3{fill:#628D93;}
	.st4{fill:#EAE2DD;}
	.st5{fill:#C95687;}
	.st6{fill:#66334E;}
	.st7{fill:#AD4979;}
	.st8{fill:#A54171;}
	.st9{fill:#8E3C67;}
	.st10{fill:#D6679C;}
	.st11{fill:#FFFFFF;stroke:#231F20;stroke-width:0.5316;stroke-miterlimit:10;}
	.st12{fill:#F3E6F2;}
	.st13{fill:#EADCEB;}
	.st14{fill:#DDD0E7;}
	.st15{fill:#CFC5DD;}
	.st16{fill:#D4C7DE;}
	.st17{fill:#E3D1E6;}
	.st18{fill:#E7D3E7;}
	.st19{fill:#ECD8E9;}
	.st20{fill:#E8D4E8;}
	.st21{fill:#E3D2E7;}
	.st22{fill:#EFDDEC;}
	.st23{fill:#F1E3F0;}
	.st24{fill:#EDDDED;}
	.st25{fill:#DDCDE0;}
	.st26{fill:#CAC2DB;}
	.st27{fill:#DCCDE0;}
</style>
<title>Background Contact</title>
<g>
	<g id="Contact_New">
		<polygon class="st0" points="1366,370.6 0,430.7 0,-13.9 1366,-13.9 		"/>
		<polygon class="st1" points="303.8,632.9 317.2,617 265.3,602.4 263,602.1 301.4,632.7 		"/>
		<polygon class="st2" points="263,602.1 314.9,616.8 301.4,632.7 249.5,618 		"/>
		<polygon class="st3" points="262.8,614.4 257.6,612.9 253.9,617.3 259.1,618.8 		"/>
		<path class="st3" d="M299.1,629.3L299.1,629.3l-17.9-5c-0.1,0-0.2-0.1-0.2-0.3s0.1-0.2,0.3-0.2h0.1l17.8,5
			c0.1,0.1,0.2,0.2,0.1,0.4C299.3,629.2,299.1,629.3,299.1,629.3L299.1,629.3z"/>
		<path class="st3" d="M300,628.1L300,628.1l-17.9-5c-0.1,0-0.2-0.1-0.2-0.3s0.1-0.2,0.3-0.2h0.1l17.8,5c0.1,0.1,0.2,0.2,0.1,0.4
			C300.2,628.1,300.2,628.1,300,628.1L300,628.1z"/>
		<path class="st3" d="M301,626.9L301,626.9l-17.9-5c-0.1,0-0.2-0.1-0.2-0.3s0.1-0.2,0.3-0.2h0.1l17.8,5c0.1,0.1,0.2,0.2,0.1,0.4
			C301.2,626.9,301.1,626.9,301,626.9L301,626.9z"/>
		<polygon class="st1" points="432.8,638 463.5,638.9 466.3,605.5 464,605.4 430.5,637.8 		"/>
		<polygon class="st2" points="430.5,637.8 433.3,604.5 464,605.4 461.1,638.7 		"/>
		<polygon class="st4" points="447.2,621.6 461.1,638.7 464,605.4 		"/>
		<polygon class="st1" points="381.2,697.5 437.8,704 431.9,721.4 429.1,721.1 378.3,697.2 		"/>
		<polygon class="st2" points="378.3,697.2 435,703.8 429.1,721.1 372.4,714.6 		"/>
		<polygon class="st4" points="403.7,709.2 372.4,714.6 429.1,721.1 		"/>
		<polygon class="st1" points="224.3,677 254.8,677.8 257.7,644.5 255.3,644.3 221.9,676.8 		"/>
		<polygon class="st2" points="221.9,676.8 224.7,643.4 255.3,644.3 252.5,677.7 		"/>
		<polygon class="st4" points="238.7,660.5 252.5,677.7 255.3,644.3 		"/>
		<polygon class="st1" points="420.6,547.8 461.8,577.2 464.2,577.3 476.2,561 422.9,548 		"/>
		<polygon class="st2" points="461.8,577.2 408.6,564.1 420.6,547.8 473.8,560.9 		"/>
		<polygon class="st4" points="441.2,562.5 473.8,560.9 420.6,547.8 		"/>
		<polygon class="st1" points="227.7,702 268.9,731.3 271.3,731.5 283.3,715.2 230,702.2 		"/>
		<polygon class="st2" points="268.9,731.3 215.7,718.3 227.7,702 280.9,715 		"/>
		<polygon class="st4" points="248.3,716.6 280.9,715 227.7,702 		"/>
		<polygon class="st1" points="390.2,678.3 411.9,665.8 371,642.2 368.7,642 387.9,678.1 		"/>
		<polygon class="st2" points="387.9,678.1 347,654.6 368.7,642 409.6,665.6 		"/>
		<polygon class="st4" points="378.3,660.1 409.6,665.6 368.7,642 		"/>
		<polygon class="st1" points="400.8,549.1 334,543.3 341.7,547.6 268.8,590 255.4,588.9 255.4,598 268.8,599.1 339.8,640.2 
			334,643.4 347.4,644.6 347.4,644.6 347.4,644.6 400.8,649.2 487.4,599.1 		"/>
		<path class="st5" d="M390.2,369.2l-1.5-1.4c-0.5-0.4-1-0.9-1.5-1.3c-3.1-2.7-6.3-4.9-9.9-7c-12-6.9-22.8-7.5-30.6-3l-86.4,49.9
			c-0.1,0.1-0.1,0.1-0.2,0.1c-7.8,4.5-12.7,14.2-12.7,28.1v158.8l8,4.6l0,0l3.9-2.3v-33.3c0-1,0.1-2.1,0.5-3
			c-2.7-0.3-4.5,1.6-4.5,5.3c0-3.7,1.8-5.6,4.5-5.3c1.1,0.1,2.1,0.5,3.1,1.1l55.4,32c4.5,2.8,7.4,7.7,7.6,13.1V639l8,4.6v-4.5V484.5
			c0-1.4,0-2.8-0.1-4.2c0.1,1.4,0.1,2.8,0.1,4.2v154.4v4.5l8-4.6v-33.4c0-5,3.3-10.6,7.6-13.1l55.4-32c1-0.6,2-1,3.1-1.1l0,0
			c0.4,1,0.6,2,0.5,3v33.4l3.9,2.3v0.1l4.2-2.4l0.1,0.1v-0.1l3.8-2.1v-159C420.6,412.1,407.8,385.8,390.2,369.2z M290.7,409.5
			c-9.6-5.5-18.5-7-25.6-5.1C272.3,402.5,281.1,404,290.7,409.5l0.1,0.1c0.1,0.1,0.4,0.2,0.5,0.3c-0.1-0.1-0.4-0.2-0.5-0.3
			L290.7,409.5z M299.9,415.9c-0.4-0.3-0.7-0.6-1.1-0.9C299.1,415.4,299.5,415.7,299.9,415.9z M297.3,414c-0.3-0.2-0.5-0.4-0.8-0.6
			C296.8,413.5,297.1,413.7,297.3,414z M294.1,411.7c-0.2-0.1-0.4-0.3-0.6-0.4C293.7,411.4,293.9,411.5,294.1,411.7z M416.7,432.6
			L416.7,432.6L416.7,432.6L416.7,432.6L416.7,432.6z M416.7,432.5c-0.3-4.2-1-8.6-2.1-12.9C415.7,424,416.4,428.3,416.7,432.5
			L416.7,432.5z M400.3,388L400.3,388l-13.1,7.6v13.9L334,440l-3.8,2.1l3.8-2.1l53.2-30.5v-14L362,410.2l25.2-14.6L400.3,388z
			 M323.6,445.9c-1.8-3.5-3.8-6.9-6.1-10.2c-2.7-4.1-5.8-8-9-11.5c3.3,3.6,6.3,7.5,9,11.5C319.7,439.1,321.8,442.5,323.6,445.9
			c2.7,5.2,4.9,10.6,6.7,16.1C328.5,456.5,326.3,451.1,323.6,445.9z M337.8,477.9c-0.5-6.3-1.8-12.6-3.8-18.7
			c-1.1-3.3-2.3-6.6-3.8-9.7c-0.9-1.9-1.8-3.8-2.7-5.8l0,0l0,0c1,1.8,1.9,3.8,2.7,5.7c1.4,3.2,2.7,6.4,3.8,9.7
			C336,465.2,337.3,471.5,337.8,477.9l78.9-45.3l0,0L337.8,477.9z M412.6,593.5v-0.2l0.2,0.1L412.6,593.5z"/>
		<path class="st5" d="M408.8,559.3c-0.2,0-0.5,0-0.7,0c0.4,1,0.6,2,0.5,3v33.4l3.9,2.3v-33.4C412.6,561.3,411.1,559.4,408.8,559.3z
			"/>
		<path class="st6" d="M334,426.3l-3.8,2.1l-8.8,5.1l0,0c2.2,3.2,4.2,6.6,6.1,10.2l2.7-1.6l3.8-2.1l53.2-30.6v-13.8L334,426.3z"/>
		<path class="st7" d="M387.2,409.4L334,440l-3.8,2.1l-2.7,1.6c1,1.9,1.9,3.8,2.7,5.8c1.4,3.2,2.7,6.4,3.8,9.7
			c2,6.1,3.2,12.3,3.8,18.8l78.9-45.3L387.2,409.4z"/>
		<path class="st8" d="M255.4,564.6V598l3.9-2.3v-33.3c0-1,0.1-2.1,0.5-3C257.3,559,255.4,560.9,255.4,564.6z"/>
		<path class="st5" d="M333.8,480.1c-0.1-0.9-0.1-1.8-0.2-2.6c-0.6-5.2-1.7-10.5-3.3-15.5c-1.8-5.5-4-10.9-6.7-16.1
			c-1.8-3.5-3.8-6.9-6.1-10.2l0,0c-7.3-10.9-16.6-20.3-26.7-26.1l-0.1-0.1c-10.9-6.3-21-7.4-28.6-4.1c-0.7,0.3-1.4,0.7-2.1,1
			c-7.8,4.5-12.7,14.2-12.7,28.1l0,0v158.9l8,4.6v-33.4c0-3.7,1.8-5.6,4.5-5.3c1.1,0.1,2.1,0.5,3.1,1.1l55.4,32
			c4.5,2.8,7.4,7.7,7.6,13.1v33.4l8,4.6V639l0,0V484.5C334,483.1,334,481.7,333.8,480.1z"/>
		<path class="st9" d="M390.2,369.2l-86.6,50c5.2,4.9,10,10.6,14,16.5l0,0c2.2,3.2,4.2,6.6,6.1,10.2c2.7,5.2,4.9,10.6,6.7,16.1
			c1.6,5,2.7,10.3,3.3,15.5c0.1,0.9,0.1,1.8,0.2,2.6c0.1,1.5,0.1,3,0.1,4.4v154.4l0,0v4.5l8-4.6v-33.4c0-5,3.3-10.6,7.6-13.1
			l55.4-32c1-0.6,2-1,3.1-1.1c0.2,0,0.5,0,0.7,0c2.3,0.1,3.8,1.9,3.8,5.3v28.6l0.2,0.1l-0.2,0.1v4.5l4.2-2.4l0.1,0.1v-0.1l3.8-2.1
			v-159C420.6,412.1,407.8,385.8,390.2,369.2z M330.3,449.4c-0.9-1.9-1.8-3.8-2.7-5.8c-1.8-3.5-3.8-6.9-6.1-10.2l0,0l8.8-5.1
			l3.8-2.1l53.2-30.7l13.1-7.6c9.2,13.7,15.4,29.8,16.4,44.6l-78.9,45.3c-0.5-6.3-1.8-12.6-3.8-18.8
			C332.9,455.8,331.7,452.6,330.3,449.4z"/>
		<polygon class="st7" points="410.4,539.5 348.5,575.1 348.5,493.4 410.4,457.7 		"/>
		<path class="st10" d="M387.2,366.6c-3.1-2.7-6.3-4.9-9.9-7c-12-6.9-22.8-7.5-30.6-3l-86.6,50.1c0.7-0.4,1.3-0.7,2.1-1
			c7.6-3.3,17.6-2.3,28.6,4.1l0.1,0.1c4,2.4,7.8,5.1,11.2,8.2l86.6-50C388.2,367.4,387.7,367,387.2,366.6z"/>
		<path class="st5" d="M400.3,388l-13.1,7.6v13.9l29.5,23.1l0,0C415.7,417.7,409.5,401.6,400.3,388z"/>
		<path class="st5" d="M408.8,559.3c-0.2,0-0.5,0-0.7,0c0.4,1,0.6,2,0.5,3v33.4l3.9,2.3v-33.4C412.6,561.3,411.1,559.4,408.8,559.3z
			"/>
		<path class="st6" d="M334,426.3l-3.8,2.1l-8.8,5.1l0,0c2.2,3.2,4.2,6.6,6.1,10.2l2.7-1.6l3.8-2.1l53.2-30.6v-13.8L334,426.3z"/>
		<path class="st7" d="M387.2,409.4L334,440l-3.8,2.1l-2.7,1.6c1,1.9,1.9,3.8,2.7,5.8c1.4,3.2,2.7,6.4,3.8,9.7
			c2,6.1,3.2,12.3,3.8,18.8l78.9-45.3L387.2,409.4z"/>
		<path class="st8" d="M255.4,564.6V598l3.9-2.3v-33.3c0-1,0.1-2.1,0.5-3C257.3,559,255.4,560.9,255.4,564.6z"/>
		<path class="st5" d="M333.8,480.1c-0.1-0.9-0.1-1.8-0.2-2.6c-0.6-5.2-1.7-10.5-3.3-15.5c-1.8-5.5-4-10.9-6.7-16.1
			c-1.8-3.5-3.8-6.9-6.1-10.2l0,0c-7.3-10.9-16.6-20.3-26.7-26.1l-0.1-0.1c-10.9-6.3-21-7.4-28.6-4.1c-0.7,0.3-1.4,0.7-2.1,1
			c-7.8,4.5-12.7,14.2-12.7,28.1l0,0v158.9l8,4.6v-33.4c0-3.7,1.8-5.6,4.5-5.3c1.1,0.1,2.1,0.5,3.1,1.1l55.4,32
			c4.5,2.8,7.4,7.7,7.6,13.1v33.4l8,4.6V639l0,0V484.5C334,483.1,334,481.7,333.8,480.1z"/>
		<path class="st9" d="M390.2,369.2l-86.6,50c5.2,4.9,10,10.6,14,16.5l0,0c2.2,3.2,4.2,6.6,6.1,10.2c2.7,5.2,4.9,10.6,6.7,16.1
			c1.6,5,2.7,10.3,3.3,15.5c0.1,0.9,0.1,1.8,0.2,2.6c0.1,1.5,0.1,3,0.1,4.4v154.4l0,0v4.5l8-4.6v-33.4c0-5,3.3-10.6,7.6-13.1
			l55.4-32c1-0.6,2-1,3.1-1.1c0.2,0,0.5,0,0.7,0c2.3,0.1,3.8,1.9,3.8,5.3v28.6l0.2,0.1l-0.2,0.1v4.5l4.2-2.4l0.1,0.1v-0.1l3.8-2.1
			v-159C420.6,412.1,407.8,385.8,390.2,369.2z M330.3,449.4c-0.9-1.9-1.8-3.8-2.7-5.8c-1.8-3.5-3.8-6.9-6.1-10.2l0,0l8.8-5.1
			l3.8-2.1l53.2-30.7l13.1-7.6c9.2,13.7,15.4,29.8,16.4,44.6l-78.9,45.3c-0.5-6.3-1.8-12.6-3.8-18.8
			C332.9,455.8,331.7,452.6,330.3,449.4z"/>
		<polygon class="st7" points="410.4,539.5 348.5,575.1 348.5,493.4 410.4,457.7 		"/>
		<path class="st10" d="M387.2,366.6c-3.1-2.7-6.3-4.9-9.9-7c-12-6.9-22.8-7.5-30.6-3l-86.6,50.1c0.7-0.4,1.3-0.7,2.1-1
			c7.6-3.3,17.6-2.3,28.6,4.1l0.1,0.1c4,2.4,7.8,5.1,11.2,8.2l86.6-50C388.2,367.4,387.7,367,387.2,366.6z"/>
		<path class="st5" d="M408.8,559.3c-0.2,0-0.5,0-0.7,0c0.4,1,0.6,2,0.5,3v33.4l3.9,2.3v-33.4C412.6,561.3,411.1,559.4,408.8,559.3z
			"/>
		<path class="st6" d="M334,426.3l-3.8,2.1l-8.8,5.1l0,0c2.2,3.2,4.2,6.6,6.1,10.2l2.7-1.6l3.8-2.1l53.2-30.6v-13.8L334,426.3z"/>
		<path class="st7" d="M387.2,409.4L334,440l-3.8,2.1l-2.7,1.6c1,1.9,1.9,3.8,2.7,5.8c1.4,3.2,2.7,6.4,3.8,9.7
			c2,6.1,3.2,12.3,3.8,18.8l78.9-45.3L387.2,409.4z"/>
		<path class="st8" d="M255.4,564.6V598l3.9-2.3v-33.3c0-1,0.1-2.1,0.5-3C257.3,559,255.4,560.9,255.4,564.6z"/>
		<path class="st5" d="M333.8,480.1c-0.1-0.9-0.1-1.8-0.2-2.6c-0.6-5.2-1.7-10.5-3.3-15.5c-1.8-5.5-4-10.9-6.7-16.1
			c-1.8-3.5-3.8-6.9-6.1-10.2l0,0c-7.3-10.9-16.6-20.3-26.7-26.1l-0.1-0.1c-10.9-6.3-21-7.4-28.6-4.1c-0.7,0.3-1.4,0.7-2.1,1
			c-7.8,4.5-12.7,14.2-12.7,28.1l0,0v158.9l8,4.6v-33.4c0-3.7,1.8-5.6,4.5-5.3c1.1,0.1,2.1,0.5,3.1,1.1l55.4,32
			c4.5,2.8,7.4,7.7,7.6,13.1v33.4l8,4.6V639l0,0V484.5C334,483.1,334,481.7,333.8,480.1z"/>
		<polygon class="st11" points="412.6,593.5 412.8,593.4 412.6,593.3 		"/>
		<path class="st5" d="M400.3,388l-13.1,7.6v13.9l29.5,23.1l0,0C415.7,417.7,409.5,401.6,400.3,388z"/>
		<path class="st9" d="M390.2,369.2l-86.6,50c5.2,4.9,10,10.6,14,16.5l0,0c2.2,3.2,4.2,6.6,6.1,10.2c2.7,5.2,4.9,10.6,6.7,16.1
			c1.6,5,2.7,10.3,3.3,15.5c0.1,0.9,0.1,1.8,0.2,2.6c0.1,1.5,0.1,3,0.1,4.4v154.4l0,0v4.5l8-4.6v-33.4c0-5,3.3-10.6,7.6-13.1
			l55.4-32c1-0.6,2-1,3.1-1.1c0.2,0,0.5,0,0.7,0c2.3,0.1,3.8,1.9,3.8,5.3v28.6l0.2,0.1l-0.2,0.1v4.5l4.2-2.4l0.1,0.1v-0.1l3.8-2.1
			v-159C420.6,412.1,407.8,385.8,390.2,369.2z M330.3,449.4c-0.9-1.9-1.8-3.8-2.7-5.8c-1.8-3.5-3.8-6.9-6.1-10.2l0,0l8.8-5.1
			l3.8-2.1l53.2-30.7l13.1-7.6c9.2,13.7,15.4,29.8,16.4,44.6l-78.9,45.3c-0.5-6.3-1.8-12.6-3.8-18.8
			C332.9,455.8,331.7,452.6,330.3,449.4z"/>
		<polygon class="st7" points="410.4,539.5 348.5,575.1 348.5,493.4 410.4,457.7 		"/>
		<path class="st5" d="M334,484.5l-0.1-1.4l-0.1-1.6c0-0.7-0.1-1.4-0.1-2.2c-0.1-1.7-0.4-3.7-0.8-6c-0.4-2.3-1-4.9-1.8-7.6
			s-1.7-5.7-2.9-8.8c-1.2-3.1-2.6-6.2-4.2-9.4c-1.6-3.2-3.5-6.5-5.5-9.5c-1-1.6-2.1-3.1-3.2-4.7c-0.6-0.7-1.1-1.6-1.7-2.3l-0.9-1.1
			l-0.9-1.1c-2.4-3-4.9-5.8-7.6-8.4c-2.7-2.6-5.4-4.9-8.4-7.1c-2.8-2-5.7-3.8-8.8-5.4c-2.7-1.4-5.6-2.4-8.6-3.2
			c-2.5-0.7-5.1-1-7.7-1c-2,0-4,0.2-5.9,0.7l-1.1,0.4c-0.4,0.1-0.7,0.2-1,0.4c-0.5,0.2-1,0.4-1.6,0.7c-0.8,0.4-1.2,0.7-1.2,0.7
			s0.4-0.3,1.2-0.7c0.5-0.2,1-0.4,1.5-0.7c0.3-0.1,0.6-0.3,1-0.4l1.1-0.4c1.9-0.5,4-0.9,6-0.9c2.7-0.1,5.2,0.2,7.8,0.8
			c3,0.7,6,1.8,8.7,3.2c3.1,1.5,6.1,3.2,8.9,5.3c3,2.1,5.8,4.6,8.6,7.2c2.7,2.7,5.3,5.5,7.8,8.4l0.9,1.1l0.9,1.1
			c0.6,0.7,1.1,1.6,1.7,2.3c1.1,1.6,2.1,3.1,3.2,4.7c2,3.1,3.8,6.3,5.5,9.7c3,5.8,5.2,12,6.9,18.4c0.7,2.5,1.2,5.1,1.6,7.7
			c0.4,2.3,0.6,4.4,0.7,6c0.1,0.8,0.1,1.6,0.1,2.2v1.6L334,484.5z"/>
		<path class="st5" d="M334,643.4l-0.1-6.6c0-4.2-0.1-10.3-0.1-17.5l-0.1-24.7l-0.1-28.3c0-9.7,0-19.3,0.1-28.3s0.1-17.5,0.1-24.7
			c0.1-7.2,0.1-13.3,0.1-17.5l0.1-6.6l0.1,6.6c0,4.2,0.1,10.3,0.1,17.5l0.1,24.7c0,9,0,18.7,0.1,28.3l-0.1,28.3l-0.1,24.7
			c0,7.2-0.1,13.3-0.1,17.5L334,643.4z"/>
		<path class="st5" d="M412.6,598c0,0,0-0.5-0.1-1.4c-0.1-0.9-0.1-2.2-0.1-3.8c-0.1-1.6-0.1-3.4-0.1-5.3v-3v-3.1v-3.1c0-1,0-2.1,0-3
			c0-1.9,0.1-3.8,0.1-5.3c0.1-1.6,0.1-2.9,0.1-3.8s0.1-1.4,0.1-1.4s0,0.5,0.1,1.4s0.1,2.2,0.1,3.8c0.1,1.6,0.1,3.4,0.1,5.3
			c0,1,0,2,0,3v3.1v3.1v3c0,1.9-0.1,3.8-0.1,5.3c-0.1,1.6-0.1,2.9-0.1,3.8S412.6,598,412.6,598z"/>
		<path class="st5" d="M255.4,598c0,0,0-0.5-0.1-1.4s-0.1-2.2-0.1-3.8c-0.1-1.6-0.1-3.4-0.1-5.3v-3v-3.1v-3.1c0-1,0-2.1,0-3
			c0-1.9,0.1-3.8,0.1-5.3c0.1-1.6,0.1-2.9,0.1-3.8s0.1-1.5,0.1-1.5s0,0.5,0.1,1.4c0.1,0.9,0.1,2.2,0.1,3.8c0.1,1.6,0.1,3.4,0.1,5.3
			c0,1,0,2,0,3v3.1v3.1v3c0,1.9-0.1,3.8-0.1,5.3c-0.1,1.6-0.1,2.9-0.1,3.8S255.4,598,255.4,598z"/>
		<path class="st10" d="M387.2,366.6c-3.1-2.7-6.3-4.9-9.9-7c-12-6.9-22.8-7.5-30.6-3l-86.6,50.1c0.7-0.4,1.3-0.7,2.1-1
			c7.6-3.3,17.6-2.3,28.6,4.1l0.1,0.1c4,2.4,7.8,5.1,11.2,8.2l86.6-50C388.2,367.4,387.7,367,387.2,366.6z"/>
		<path class="st10" d="M302.1,417.9c0.5,0.4,1,0.9,1.5,1.4l86.6-50c-0.5-0.4-1-1-1.5-1.4L302.1,417.9z"/>
		<polygon class="st1" points="465.2,658.4 462.9,658.2 482.1,694.3 484.4,694.5 506.1,681.9 		"/>
		<polygon class="st2" points="482.1,694.3 441.2,670.7 462.9,658.2 503.8,681.8 		"/>
		<polygon class="st4" points="472.5,676.2 503.8,681.8 462.9,658.2 		"/>
		<polygon class="st1" points="205.1,623.9 207.5,624.1 232.2,613.7 197.8,586.8 195.5,586.6 		"/>
		<polygon class="st2" points="205.1,623.9 170.8,597.1 195.5,586.6 229.9,613.4 		"/>
		<polygon class="st4" points="200.3,605.2 229.9,613.4 195.5,586.6 		"/>
		<polygon class="st1" points="181.8,632.9 203.5,645.5 162.6,669 159.8,668.8 179.1,632.7 		"/>
		<polygon class="st2" points="138.2,656.3 179.1,632.7 200.7,645.2 159.8,668.8 		"/>
		<polygon class="st4" points="169.4,650.7 159.8,668.8 200.7,645.2 		"/>
		<polygon class="st1" points="291.6,667.8 330.6,698.1 332.9,698.3 346.2,682.3 294,667.9 		"/>
		<polygon class="st2" points="330.6,698.1 278.5,683.7 291.6,667.8 343.8,682.1 		"/>
		<polygon class="st3" points="330.6,685.8 335.8,687.3 339.4,682.8 334.2,681.4 		"/>
		<polygon class="st3" points="324.1,684 329.3,685.5 332.9,681.1 327.7,679.7 		"/>
		<path class="st3" d="M311.9,676.6L311.9,676.6l-17.9-4.9c-0.1,0-0.2-0.1-0.2-0.3c0-0.1,0.1-0.2,0.3-0.2h0.1l17.9,4.9
			c0.1,0.1,0.2,0.2,0.1,0.4C312.1,676.6,312,676.6,311.9,676.6L311.9,676.6z"/>
		<path class="st3" d="M310.9,677.7L310.9,677.7l-17.9-4.9c-0.1,0-0.2-0.1-0.2-0.3c0-0.1,0.1-0.2,0.3-0.2h0.1l17.9,4.9
			c0.1,0.1,0.2,0.2,0.1,0.4C311.2,677.7,311.1,677.7,310.9,677.7L310.9,677.7z"/>
		<path class="st3" d="M310,678.9L310,678.9L292,674c-0.1-0.1-0.2-0.2-0.1-0.4s0.1-0.1,0.3-0.1l17.9,4.9c0.1,0.1,0.2,0.2,0.1,0.4
			C310.2,678.8,310.1,678.9,310,678.9z"/>
		<polygon class="st1" points="525.3,581 523,580.8 533.3,618.1 535.7,618.3 560.1,607.6 		"/>
		<polygon class="st2" points="533.3,618.1 498.5,591.4 523,580.8 557.8,607.4 		"/>
		<polygon class="st3" points="543.1,607.2 546.6,609.8 553.3,606.9 549.8,604.2 		"/>
		<polygon class="st3" points="538.8,603.8 542.2,606.5 549,603.6 545.5,600.9 		"/>
		<path class="st3" d="M534.1,594c-0.1,0-0.1,0-0.1-0.1l-12-9.2c-0.1-0.1-0.1-0.3,0-0.4c0.1-0.1,0.2-0.1,0.3-0.1l12,9.2
			c0.1,0.1,0.1,0.3,0.1,0.4C534.3,594,534.2,594,534.1,594L534.1,594z"/>
		<path class="st3" d="M532.3,594.8c-0.1,0-0.1,0-0.1-0.1l-12-9.2c-0.1-0.1-0.1-0.2-0.1-0.4c0.1-0.1,0.2-0.1,0.4-0.1
			c0,0,0.1,0,0.1,0.1l12,9.2c0.1,0.1,0.1,0.3,0.1,0.4C532.5,594.8,532.4,594.8,532.3,594.8L532.3,594.8z"/>
		<path class="st3" d="M530.5,595.6c-0.1,0-0.1,0-0.1-0.1l-12-9.2c-0.1-0.1-0.1-0.3,0-0.4c0.1-0.1,0.2-0.1,0.3-0.1l12,9.2
			c0.1,0.1,0.1,0.3,0.1,0.4C530.7,595.6,530.6,595.6,530.5,595.6L530.5,595.6z"/>
		<polygon class="st1" points="504.8,634.9 547.9,663.4 550.3,663.6 561.2,647 507.2,635.1 		"/>
		<polygon class="st2" points="547.9,663.4 493.9,651.5 504.8,634.9 558.9,646.9 		"/>
		<polygon class="st3" points="546.2,651.2 551.6,652.3 554.6,647.8 549.2,646.6 		"/>
		<polygon class="st3" points="539.4,649.7 544.9,650.9 547.9,646.3 542.5,645.1 		"/>
		<path class="st3" d="M526.3,642.8L526.3,642.8l-18.5-4.1c-0.1-0.1-0.2-0.2-0.1-0.4c0.1-0.1,0.1-0.2,0.3-0.1l18.5,4.1
			c0.1,0,0.2,0.1,0.2,0.3C526.5,642.7,526.4,642.8,526.3,642.8L526.3,642.8z"/>
		<path class="st3" d="M525.5,644L525.5,644l-18.5-4.1c-0.1-0.1-0.2-0.2-0.1-0.4c0.1-0.1,0.1-0.2,0.3-0.1l18.5,4.1
			c0.1,0,0.2,0.1,0.2,0.3C525.7,643.9,525.6,644.1,525.5,644L525.5,644z"/>
		<path class="st3" d="M524.7,645.3L524.7,645.3l-18.5-4.1c-0.1,0-0.2-0.1-0.2-0.3s0.1-0.2,0.3-0.2h0.1l18.5,4.1
			c0.1,0,0.2,0.1,0.2,0.3C524.9,645.2,524.8,645.3,524.7,645.3L524.7,645.3z"/>
	</g>
</g>
<polygon class="st12" points="559.9,112.8 587.3,106.8 603.8,101.2 603.3,106.6 557.7,117.7 "/>
<polygon class="st13" points="536.2,104.7 559.9,112.8 559.8,113.5 514.2,102.6 518.4,96.9 "/>
<polygon class="st14" points="515.1,73.8 503.2,82.3 524,102.8 536.2,104.7 524.3,88.8 "/>
<polygon class="st15" points="534.9,79.2 524.3,88.8 507.4,80.6 517.3,69.2 524.3,63 "/>
<polygon class="st16" points="566.8,67.4 555.1,71.1 534.6,79.3 523.3,64.2 556.8,52.2 "/>
<polygon class="st17" points="583.8,77.4 555.1,71.1 556.8,52.2 599,61 "/>
<polygon class="st18" points="595.1,91.4 583.8,77.4 597.2,60.8 618,84 "/>
<polygon class="st19" points="599.6,104.6 587.3,106.8 595.1,91.4 613.4,82.1 616.6,88.8 "/>
<path class="st20" d="M496,87.5c0,0,11.4-7.1,11.4-6.9c0,0.2,16.7,22.2,16.7,22.2l-6.4,9L496,87.5z"/>
<polygon class="st21" points="524,102.8 559.8,113.5 559.6,122.5 517.6,111.7 "/>
<polygon class="st22" points="507.4,80.6 523.3,64.2 517.7,65.2 496,87.5 "/>
<polygon class="st23" points="523.3,64.2 556.8,52.2 517.7,65.2 "/>
<polygon class="st24" points="597.2,60.8 556.8,52.2 560.8,52.3 604,61.5 "/>
<polygon class="st25" points="597.2,60.8 613.4,82.1 626.4,85.9 604,61.5 "/>
<polygon class="st26" points="613.4,82.1 599.6,104.6 603.9,111.1 626.4,85.9 "/>
<polygon class="st27" points="599.6,104.6 559.8,113.5 559.6,122.5 603.9,111.1 "/>
<polygon class="st12" points="1159,145.7 1205.2,135.6 1233,126.1 1232.1,135.2 1155.3,153.9 "/>
<polygon class="st13" points="1119,132 1159,145.7 1158.8,146.9 1082,128.5 1089,118.9 "/>
<polygon class="st14" points="1083.5,80 1063.4,94.3 1098.5,128.8 1119,132 1099,105.2 "/>
<polygon class="st15" points="1116.9,89.1 1099,105.2 1070.5,91.4 1087.2,72.2 1099,61.8 "/>
<polygon class="st16" points="1170.6,69.2 1150.9,75.4 1116.3,89.2 1097.3,63.8 1153.8,43.6 "/>
<polygon class="st17" points="1199.3,86 1150.9,75.4 1153.8,43.6 1224.9,58.4 "/>
<polygon class="st18" points="1218.3,109.6 1199.3,86 1221.8,58 1256.9,97.1 "/>
<polygon class="st19" points="1225.9,131.9 1205.2,135.6 1218.3,109.6 1249.1,93.9 1254.5,105.2 "/>
<path class="st20" d="M1051.3,103c0,0,19.2-12,19.2-11.6c0,0.3,28.1,37.4,28.1,37.4l-10.8,15.2L1051.3,103z"/>
<polygon class="st21" points="1098.5,128.8 1158.8,146.9 1158.5,162 1087.7,143.8 "/>
<polygon class="st22" points="1070.5,91.4 1097.3,63.8 1087.9,65.5 1051.3,103 "/>
<polygon class="st23" points="1097.3,63.8 1153.8,43.6 1087.9,65.5 "/>
<polygon class="st24" points="1221.8,58 1153.8,43.6 1160.5,43.7 1233.3,59.2 "/>
<polygon class="st25" points="1221.8,58 1249.1,93.9 1271,100.3 1233.3,59.2 "/>
<polygon class="st26" points="1249.1,93.9 1225.9,131.9 1233.1,142.8 1271,100.3 "/>
<polygon class="st27" points="1225.9,131.9 1158.8,146.9 1158.5,162 1233.1,142.8 "/>
</svg>
