<svg id="Contact" xmlns="http://www.w3.org/2000/svg" viewBox="0 0 467.32 831.22"><defs><style>.cls-1,.cls-11{fill:#fff;}.cls-2{fill:#e1d0e2;}.cls-3{fill:#53494c;opacity:0.36;isolation:isolate;}.cls-4{fill:#fff6f0;}.cls-5{fill:#638d94;}.cls-6{fill:#eae2dc;}.cls-7{fill:#ca5688;}.cls-8{fill:#67344f;}.cls-9{fill:#ad4a7a;}.cls-10{fill:#a64372;}.cls-11{stroke:#231f20;stroke-miterlimit:10;stroke-width:0.4px;}.cls-12{fill:#8f3d68;}.cls-13{fill:#d7679c;}</style></defs><title>Background Contact Mobile</title><rect class="cls-1" x="0.09" y="-0.77" width="467.87" height="831.99"/><g id="Contact_New" data-name="Contact New"><polygon class="cls-2" points="929.63 158.34 -124.78 204.73 -124.78 -0.77 929.63 -0.77 929.63 158.34"/><polygon class="cls-3" points="131.54 721.59 141.63 709.68 102.71 698.7 100.97 698.55 129.8 721.44 131.54 721.59"/><polygon class="cls-4" points="100.97 698.55 139.88 709.53 129.8 721.44 90.89 710.46 100.97 698.55"/><polygon class="cls-5" points="100.86 707.76 96.94 706.64 94.17 709.92 98.09 711.03 100.86 707.76"/><path class="cls-5" d="M128,718.88H128l-13.31-3.76a.2.2,0,1,1,.06-.39h0l13.31,3.76a.2.2,0,0,1-.06.39Z"/><path class="cls-5" d="M128.76,718h-.06l-13.31-3.76a.2.2,0,1,1,.06-.39h0l13.31,3.76a.2.2,0,0,1-.06.39Z"/><path class="cls-5" d="M129.49,717.14h-.06l-13.31-3.77a.2.2,0,1,1,.06-.39h0l13.31,3.76a.2.2,0,0,1-.06.39Z"/><polygon class="cls-3" points="228.23 725.44 251.17 726.1 253.29 701.12 251.55 700.96 226.49 725.29 228.23 725.44"/><polygon class="cls-4" points="226.49 725.29 228.62 700.32 251.55 700.96 249.43 725.94 226.49 725.29"/><polygon class="cls-6" points="239.02 713.13 249.43 725.94 251.55 700.96 239.02 713.13"/><polygon class="cls-3" points="189.55 769.98 232.02 774.88 227.52 787.88 225.41 787.7 187.44 769.8 189.55 769.98"/><polygon class="cls-4" points="187.44 769.8 229.91 774.7 225.41 787.7 182.94 782.8 187.44 769.8"/><polygon class="cls-6" points="206.43 778.74 182.94 782.8 225.41 787.7 206.43 778.74"/><polygon class="cls-3" points="71.96 754.61 94.9 755.27 97.03 730.29 95.29 730.14 70.22 754.46 71.96 754.61"/><polygon class="cls-4" points="70.22 754.46 72.35 729.49 95.29 730.14 93.16 755.12 70.22 754.46"/><polygon class="cls-6" points="82.75 742.3 93.16 755.12 95.29 730.14 82.75 742.3"/><polygon class="cls-3" points="219.08 657.86 249.99 679.83 251.74 679.98 260.7 667.77 220.82 658.01 219.08 657.86"/><polygon class="cls-4" points="249.99 679.83 210.12 670.07 219.08 657.86 258.96 667.62 249.99 679.83"/><polygon class="cls-6" points="234.54 668.84 258.96 667.62 219.08 657.86 234.54 668.84"/><polygon class="cls-3" points="74.56 773.35 105.47 795.32 107.21 795.47 116.17 783.26 76.3 773.5 74.56 773.35"/><polygon class="cls-4" points="105.47 795.32 65.59 785.56 74.56 773.35 114.44 783.11 105.47 795.32"/><polygon class="cls-6" points="90.01 784.33 114.44 783.11 74.56 773.35 90.01 784.33"/><polygon class="cls-3" points="196.32 755.63 212.56 746.25 181.93 728.57 180.19 728.42 194.57 755.48 196.32 755.63"/><polygon class="cls-4" points="194.57 755.48 163.94 737.79 180.19 728.42 210.81 746.1 194.57 755.48"/><polygon class="cls-6" points="187.38 741.95 210.81 746.1 180.19 728.42 187.38 741.95"/><polygon class="cls-3" points="204.21 658.86 154.22 654.49 160 657.7 105.36 689.42 95.35 688.65 95.35 695.46 105.36 696.26 158.52 727.04 154.22 729.47 164.23 730.34 164.23 730.34 164.23 730.34 204.21 733.86 269.08 696.28 204.21 658.86"/><path class="cls-7" d="M210.28,666.48a3.55,3.55,0,0,0-.55,0,5.77,5.77,0,0,1,.4,2.27v25l2.95,1.7v-25C213.08,667.95,212,666.55,210.28,666.48Z"/><path class="cls-8" d="M154.22,566.8l-2.8,1.62-6.59,3.81h0a79.73,79.73,0,0,1,4.52,7.62l2.07-1.2,2.8-1.61L194,554.16V543.8Z"/><path class="cls-9" d="M194,554.19l-39.82,22.87-2.81,1.59-2.06,1.18q1.11,2.12,2.06,4.29a73.8,73.8,0,0,1,2.8,7.29,59.63,59.63,0,0,1,2.83,14l59.12-33.94Z"/><path class="cls-10" d="M95.33,670.46v25l2.95-1.7v-25a5.75,5.75,0,0,1,.4-2.27C96.69,666.27,95.33,667.69,95.33,670.46Z"/><path class="cls-7" d="M154.09,607.14c0-.65-.11-1.31-.18-2a60.84,60.84,0,0,0-2.5-11.6,75.46,75.46,0,0,0-5-12,79.74,79.74,0,0,0-4.52-7.62h0c-5.5-8.17-12.44-15.18-20-19.57l-.11-.07c-8.21-4.74-15.7-5.53-21.4-3a15.43,15.43,0,0,0-1.53.77c-5.87,3.39-9.5,10.66-9.5,21h0V692l6,3.42v-25c0-2.77,1.34-4.19,3.36-4a6,6,0,0,1,2.31.83l41.51,24a12.07,12.07,0,0,1,5.67,9.77v25l6,3.4V726.1h0V610.47Q154.22,608.83,154.09,607.14Z"/><polygon class="cls-11" points="213.08 692.08 213.24 691.99 213.08 691.9 213.08 692.08"/><path class="cls-7" d="M203.89,538.1,194,543.8v10.4l22.12,17.32h0C215.4,560.39,210.77,548.32,203.89,538.1Z"/><path class="cls-12" d="M196.29,524.06,131.41,561.5a72,72,0,0,1,10.46,12.41h0a79.74,79.74,0,0,1,4.52,7.62,75.46,75.46,0,0,1,5,12.05,60.84,60.84,0,0,1,2.5,11.61c.07.66.13,1.31.18,2q.12,1.66.12,3.32V726.12h0v3.37l6-3.4v-25a12.12,12.12,0,0,1,5.71-9.77l41.48-24a6,6,0,0,1,2.3-.83,3.53,3.53,0,0,1,.55,0c1.7.07,2.8,1.47,2.8,4v21.43l.16.09-.16.09v3.37l3.14-1.78.07,0v-.08l2.8-1.59V573C219.09,556.17,209.5,536.43,196.29,524.06Zm-44.88,60.08q-1-2.17-2.06-4.29a79.73,79.73,0,0,0-4.52-7.62h0l6.59-3.81,2.8-1.62,39.82-23,9.85-5.69c6.87,10.23,11.51,22.29,12.27,33.41L157,605.45a59.63,59.63,0,0,0-2.83-14A73.8,73.8,0,0,0,151.41,584.14Z"/><polygon class="cls-9" points="211.4 651.6 165.1 678.34 165.1 617.07 211.4 590.33 211.4 651.6"/><path class="cls-7" d="M154.22,610.47l-.06-1-.07-1.23c0-.49,0-1-.12-1.66-.12-1.25-.3-2.77-.61-4.47s-.74-3.63-1.31-5.69-1.29-4.27-2.18-6.55-1.94-4.65-3.14-7a79.09,79.09,0,0,0-4.08-7.16c-.75-1.18-1.56-2.35-2.39-3.51-.41-.55-.83-1.15-1.27-1.71l-.65-.85-.67-.84a67,67,0,0,0-5.71-6.29,57,57,0,0,0-6.28-5.31,47.76,47.76,0,0,0-6.57-4,31.53,31.53,0,0,0-6.43-2.42,23.5,23.5,0,0,0-5.74-.72,18,18,0,0,0-4.42.55l-.85.25c-.27.08-.5.18-.74.27a12.17,12.17,0,0,0-1.18.49c-.61.29-.91.47-.91.47s.3-.19.9-.5q.54-.28,1.11-.51c.23-.09.46-.2.73-.29l.85-.28a18.19,18.19,0,0,1,4.47-.69,22.52,22.52,0,0,1,5.85.62,31.88,31.88,0,0,1,6.55,2.36,44.47,44.47,0,0,1,6.67,4,57.52,57.52,0,0,1,6.39,5.34,67.23,67.23,0,0,1,5.79,6.32l.67.84.65.86c.44.55.86,1.15,1.27,1.74q1.24,1.74,2.38,3.54a79.61,79.61,0,0,1,4.08,7.23,72.32,72.32,0,0,1,5.18,13.74,57,57,0,0,1,1.21,5.75c.28,1.73.43,3.25.51,4.49.07.62.06,1.19.07,1.66v1.23Z"/><path class="cls-7" d="M154.22,729.49l0-5c0-3.16-.09-7.68-.12-13.1L154,692.9l0-21.23c0-7.23,0-14.46,0-21.23s.07-13.1.09-18.52.09-10,.12-13.1l0-5,0,5c0,3.16.09,7.68.12,13.1l.09,18.52c0,6.78,0,14,0,21.23l0,21.23-.09,18.52c0,5.42-.09,10-.12,13.1Z"/><path class="cls-7" d="M213.08,695.45s0-.39-.06-1.07-.08-1.66-.12-2.83-.07-2.54-.09-4v-9.17c0-1.47.06-2.83.09-4s.09-2.15.12-2.83.06-1.07.06-1.07,0,.39.06,1.07.08,1.66.12,2.83.07,2.54.09,4v9.17c0,1.47-.06,2.83-.09,4s-.12,2.14-.12,2.83A8.31,8.31,0,0,1,213.08,695.45Z"/><path class="cls-7" d="M95.33,695.45s0-.39-.06-1.07-.08-1.66-.12-2.83-.07-2.54-.09-4v-9.17c0-1.47.06-2.83.09-4s.09-2.15.12-2.83.06-1.09.06-1.09,0,.39.06,1.07.08,1.66.12,2.83.07,2.54.09,4v9.17c0,1.47-.06,2.83-.09,4s-.09,2.15-.12,2.83S95.33,695.45,95.33,695.45Z"/><path class="cls-13" d="M194,522.06a50.93,50.93,0,0,0-7.39-5.26c-9-5.17-17.06-5.66-22.93-2.27L98.85,552a15.44,15.44,0,0,1,1.53-.77c5.71-2.51,13.2-1.7,21.4,3l.11.07a52.06,52.06,0,0,1,8.39,6.14L195.15,523Q194.61,522.53,194,522.06Z"/><path class="cls-13" d="M130.28,560.49l1.11,1,64.88-37.45-1.11-1Z"/><polygon class="cls-3" points="252.48 740.68 250.74 740.52 265.13 767.58 266.87 767.73 283.11 758.36 252.48 740.68"/><polygon class="cls-4" points="265.13 767.58 234.5 749.9 250.74 740.52 281.37 758.2 265.13 767.58"/><polygon class="cls-6" points="257.94 754.05 281.37 758.2 250.74 740.52 257.94 754.05"/><polygon class="cls-3" points="57.69 714.88 59.43 715.04 77.91 707.16 52.19 687.05 50.45 686.89 57.69 714.88"/><polygon class="cls-4" points="57.69 714.88 31.97 694.77 50.45 686.89 76.17 707.01 57.69 714.88"/><polygon class="cls-6" points="54.07 700.89 76.17 707.01 50.45 686.89 54.07 700.89"/><polygon class="cls-3" points="40.21 721.62 56.46 730.99 25.83 748.67 23.73 748.49 38.11 721.43 40.21 721.62"/><polygon class="cls-4" points="7.48 739.11 38.11 721.43 54.35 730.81 23.73 748.49 7.48 739.11"/><polygon class="cls-6" points="30.92 734.96 23.73 748.49 54.35 730.81 30.92 734.96"/><polygon class="cls-3" points="122.46 747.7 151.65 770.44 153.39 770.59 163.29 758.62 124.2 747.85 122.46 747.7"/><polygon class="cls-4" points="151.65 770.44 112.56 759.66 122.46 747.7 161.54 758.47 151.65 770.44"/><polygon class="cls-5" points="151.6 761.23 155.55 762.32 158.27 759.03 154.33 757.94 151.6 761.23"/><polygon class="cls-5" points="146.75 759.89 150.7 760.98 153.41 757.69 149.47 756.6 146.75 759.89"/><path class="cls-5" d="M137.66,754.33h-.06l-13.37-3.67a.2.2,0,1,1,.06-.39h0L137.71,754a.2.2,0,0,1,0,.39Z"/><path class="cls-5" d="M136.93,755.2h-.06l-13.37-3.69a.2.2,0,1,1,.06-.39h0L137,754.82a.2.2,0,0,1,0,.39Z"/><path class="cls-5" d="M136.21,756.08h-.06l-13.37-3.69a.2.2,0,0,1,.11-.38l13.37,3.68a.2.2,0,0,1,0,.39Z"/><polygon class="cls-3" points="297.49 682.7 295.75 682.55 303.52 710.49 305.26 710.64 323.59 702.65 297.49 682.7"/><polygon class="cls-4" points="303.52 710.49 277.42 690.54 295.75 682.55 321.85 702.5 303.52 710.49"/><polygon class="cls-5" points="310.83 702.3 313.46 704.32 318.5 702.12 315.87 700.11 310.83 702.3"/><polygon class="cls-5" points="307.59 699.83 310.22 701.84 315.26 699.64 312.62 697.63 307.59 699.83"/><path class="cls-5" d="M304.11,692.49a.2.2,0,0,1-.12,0l-8.93-6.83a.2.2,0,0,1,.24-.32l8.93,6.83a.2.2,0,0,1-.12.35Z"/><path class="cls-5" d="M302.77,693.08a.2.2,0,0,1-.12,0l-8.93-6.83a.2.2,0,1,1,.2-.35l0,0,8.93,6.83a.2.2,0,0,1-.12.35Z"/><path class="cls-5" d="M301.42,693.69a.2.2,0,0,1-.12,0l-8.93-6.83a.2.2,0,0,1,.24-.32l8.93,6.83a.2.2,0,0,1-.12.35Z"/><polygon class="cls-3" points="282.18 723.14 314.47 744.44 316.21 744.59 324.39 732.2 283.93 723.29 282.18 723.14"/><polygon class="cls-4" points="314.47 744.44 274 735.53 282.18 723.14 322.65 732.05 314.47 744.44"/><polygon class="cls-5" points="313.14 735.26 317.22 736.16 319.47 732.75 315.38 731.85 313.14 735.26"/><polygon class="cls-5" points="308.11 734.15 312.19 735.05 314.44 731.64 310.36 730.75 308.11 734.15"/><path class="cls-5" d="M298.24,729h0l-13.83-3a.2.2,0,0,1,.08-.39l13.83,3a.2.2,0,0,1,0,.39Z"/><path class="cls-5" d="M297.64,729.94h0l-13.83-3a.2.2,0,0,1,.08-.39l13.83,3a.2.2,0,0,1,0,.39Z"/><path class="cls-5" d="M297,730.85h0l-13.83-3a.2.2,0,0,1,0-.4h0l13.83,3a.2.2,0,0,1,0,.39Z"/></g></svg>