<svg xmlns="http://www.w3.org/2000/svg" viewBox="0 0 1366 768"><defs><style>.cls-1{fill:#fec;}.cls-2{fill:#ffbe2e;}.cls-3{fill:#16110d;}.cls-4{isolation:isolate;}</style></defs><title>Background Contact</title><g id="Contact"><g id="smoke"><g id="_Group_" data-name="&lt;Group&gt;"><circle id="_Path_" data-name="&lt;Path&gt;" class="cls-1" cx="171.37" cy="113.49" r="33.75"/><circle id="_Path_2" data-name="&lt;Path&gt;" class="cls-1" cx="103.69" cy="83.43" r="19.9"/><circle id="_Path_3" data-name="&lt;Path&gt;" class="cls-1" cx="341.44" cy="379.83" r="17.11"/><circle id="_Path_4" data-name="&lt;Path&gt;" class="cls-1" cx="239" cy="289.47" r="13.87"/><circle id="_Path_5" data-name="&lt;Path&gt;" class="cls-1" cx="508.46" cy="558.65" r="33.75"/><circle id="_Path_6" data-name="&lt;Path&gt;" class="cls-1" cx="566.35" cy="549" r="14.61"/><path id="_Path_7" data-name="&lt;Path&gt;" class="cls-2" d="M523,646.9a54.28,54.28,0,1,1,33.89,96.66c-1.37,0-2.71-.11-4.05-.2a33.25,33.25,0,0,1-3.18,21.52H491.26l-2.84,1.9L-379,766l-14.19-5.59-.68-14.23V-1.55H218a67.6,67.6,0,0,1-64.1,46.16A67.38,67.38,0,0,1,101,19,91.43,91.43,0,0,1,13.71,83.43c-.75,0-1.5,0-2.25-.05a68,68,0,0,1,1,11.5,68.09,68.09,0,0,1-.66,9.35,51.43,51.43,0,1,1,38,93.53,30.84,30.84,0,0,1,1.84,42.09A67.69,67.69,0,0,1,100.83,285a44.79,44.79,0,1,1,69.68,56.22,102,102,0,0,1,10.8-.58,100.49,100.49,0,0,1,56.31,17.15,44.82,44.82,0,0,1,53.7-40.42,17.47,17.47,0,1,1,23,12.58,44.68,44.68,0,0,1-38.68,75.61,101,101,0,0,1-.9,74.35,46.57,46.57,0,0,1,5.88-.68,31.3,31.3,0,0,1,30.72-25.36h.19a44,44,0,1,1,81,17.75,67.59,67.59,0,0,1,53.78,99.74A101.06,101.06,0,0,1,523,646.9Z"/><path id="_Path_8" data-name="&lt;Path&gt;" class="cls-1" d="M514.29,648.11a54.28,54.28,0,1,1,33.89,96.66c-1.37,0-2.71-.11-4.05-.2a33.25,33.25,0,0,1-3.18,21.52H482.59l-2.84,1.9H-394.53V-.34H209.32a67.6,67.6,0,0,1-64.1,46.16A67.38,67.38,0,0,1,92.37,20.26,91.43,91.43,0,0,1,5,84.65c-.75,0-1.5,0-2.25-.05a68,68,0,0,1,1,11.5,68.09,68.09,0,0,1-.66,9.35,51.43,51.43,0,1,1,38,93.53A30.84,30.84,0,0,1,43,241.06a67.69,67.69,0,0,1,49.16,45.18,44.79,44.79,0,1,1,69.68,56.22,102,102,0,0,1,10.8-.58A100.49,100.49,0,0,1,229,359a44.82,44.82,0,0,1,53.7-40.42,17.47,17.47,0,1,1,23,12.58A44.68,44.68,0,0,1,267,406.81a101,101,0,0,1-.9,74.35,46.57,46.57,0,0,1,5.88-.68,31.3,31.3,0,0,1,30.72-25.36h.19a44,44,0,1,1,81,17.75,67.59,67.59,0,0,1,53.78,99.74A101.06,101.06,0,0,1,514.29,648.11Z"/></g><g id="_Group_2" data-name="&lt;Group&gt;"><circle id="_Path_9" data-name="&lt;Path&gt;" class="cls-2" cx="382.3" cy="594.05" r="33.75"/><circle id="_Path_10" data-name="&lt;Path&gt;" class="cls-2" cx="199.71" cy="545.85" r="24.31"/><circle id="_Path_11" data-name="&lt;Path&gt;" class="cls-2" cx="344.24" cy="547.93" r="12.95"/><circle id="_Path_12" data-name="&lt;Path&gt;" class="cls-2" cx="225.13" cy="405.37" r="12.95"/><g id="_Group_3" data-name="&lt;Group&gt;"><path id="_Compound_Path_" data-name="&lt;Compound Path&gt;" class="cls-3" d="M403.26,605.3a34.7,34.7,0,1,1-34.7-34.7A34.73,34.73,0,0,1,403.26,605.3Zm-1.88,0a32.81,32.81,0,1,0-32.81,32.81A32.85,32.85,0,0,0,401.38,605.3Z"/></g><g id="_Group_4" data-name="&lt;Group&gt;"><path id="_Compound_Path_2" data-name="&lt;Compound Path&gt;" class="cls-3" d="M211.23,557.1A25.26,25.26,0,1,1,186,531.84,25.28,25.28,0,0,1,211.23,557.1Zm-1.88,0A23.37,23.37,0,1,0,186,580.47,23.4,23.4,0,0,0,209.35,557.1Z"/></g><g id="_Group_5" data-name="&lt;Group&gt;"><path id="_Compound_Path_3" data-name="&lt;Compound Path&gt;" class="cls-3" d="M344.39,559.18a13.89,13.89,0,1,1-13.89-13.89A13.91,13.91,0,0,1,344.39,559.18Zm-1.88,0a12,12,0,1,0-12,12A12,12,0,0,0,342.51,559.18Z"/></g><g id="_Group_6" data-name="&lt;Group&gt;"><path id="_Compound_Path_4" data-name="&lt;Compound Path&gt;" class="cls-3" d="M225.29,416.62a13.89,13.89,0,1,1-13.89-13.89A13.91,13.91,0,0,1,225.29,416.62Zm-1.88,0a12,12,0,1,0-12,12A12,12,0,0,0,223.4,416.62Z"/></g><path id="_Path_13" data-name="&lt;Path&gt;" class="cls-2" d="M261.07,747.66a40,40,0,1,1,76.06,17.22L265,764.82A39.77,39.77,0,0,1,261.07,747.66Z"/></g></g></g></svg>