<svg xmlns="http://www.w3.org/2000/svg" xmlns:xlink="http://www.w3.org/1999/xlink" viewBox="0 0 388.04 642.68"><defs><style>.cls-1{isolation:isolate;}.cls-2{fill:#16110d;}.cls-3{fill:#febd33;}.cls-4{fill:#fcebcc;}.cls-5{fill:#130e0c;}.cls-6{fill:#fbeacc;}.cls-7{fill:#f7e6cc;}.cls-8{fill:#15100c;}.cls-10,.cls-11,.cls-16,.cls-17,.cls-18,.cls-9{mix-blend-mode:screen;}.cls-9{fill:url(#linear-gradient);}.cls-10{fill:url(#linear-gradient-2);}.cls-11{fill:url(#linear-gradient-3);}.cls-12{fill:#f9e8cc;}.cls-13{fill:#f8e7cc;}.cls-14{fill:none;stroke:#16110d;stroke-miterlimit:10;stroke-width:1.3px;}.cls-15{font-size:90.67px;font-family:Oswald-Bold, Oswald;font-weight:700;letter-spacing:-0.07em;}.cls-16{fill:url(#linear-gradient-4);}.cls-17{fill:url(#linear-gradient-5);}.cls-18{fill:url(#linear-gradient-6);}.cls-19{fill:#140f0c;}.cls-20{fill:#fae9cc;}.cls-21{fill:#120d0c;}.cls-22{fill:#fdbc38;}</style><linearGradient id="linear-gradient" x1="381.56" y1="131.92" x2="303.47" y2="270.06" gradientUnits="userSpaceOnUse"><stop offset="0" stop-color="#ffeaa8"/><stop offset="0.27" stop-color="#fee9a8" stop-opacity="0.99"/><stop offset="0.37" stop-color="#fbe7a6" stop-opacity="0.97"/><stop offset="0.44" stop-color="#f5e2a4" stop-opacity="0.93"/><stop offset="0.49" stop-color="#eddba1" stop-opacity="0.87"/><stop offset="0.54" stop-color="#e3d39d" stop-opacity="0.79"/><stop offset="0.58" stop-color="#d6c898" stop-opacity="0.69"/><stop offset="0.62" stop-color="#c6bc92" stop-opacity="0.58"/><stop offset="0.66" stop-color="#b5ad8b" stop-opacity="0.44"/><stop offset="0.69" stop-color="#a19d83" stop-opacity="0.3"/><stop offset="0.71" stop-color="#94927e" stop-opacity="0.2"/><stop offset="1" stop-color="#314056" stop-opacity="0"/></linearGradient><linearGradient id="linear-gradient-2" x1="315.02" y1="88.21" x2="236.93" y2="226.35" xlink:href="#linear-gradient"/><linearGradient id="linear-gradient-3" x1="243.72" y1="47.66" x2="165.63" y2="185.8" xlink:href="#linear-gradient"/><linearGradient id="linear-gradient-4" x1="253.85" y1="205.57" x2="175.75" y2="343.71" xlink:href="#linear-gradient"/><linearGradient id="linear-gradient-5" x1="189.53" y1="165.43" x2="111.43" y2="303.57" xlink:href="#linear-gradient"/><linearGradient id="linear-gradient-6" x1="120.24" y1="124.47" x2="42.14" y2="262.61" xlink:href="#linear-gradient"/></defs><title>Billboard 1</title><g class="cls-1"><g id="Layer_2" data-name="Layer 2"><g id="Work"><g id="Work_Home" data-name="Work Home"><g id="illustrator"><g id="_Group_" data-name="&lt;Group&gt;"><g id="_Group_2" data-name="&lt;Group&gt;"><path id="_Path_" data-name="&lt;Path&gt;" class="cls-2" d="M213.29,640.7a.86.86,0,0,1,0,1.64,3.13,3.13,0,0,1-2.83,0,.86.86,0,0,1,0-1.64A3.13,3.13,0,0,1,213.29,640.7Z"/><path id="_Path_2" data-name="&lt;Path&gt;" class="cls-2" d="M220.69,636.43a.86.86,0,0,1,0,1.64,3.13,3.13,0,0,1-2.83,0,.86.86,0,0,1,0-1.64A3.13,3.13,0,0,1,220.69,636.43Z"/><path id="_Path_3" data-name="&lt;Path&gt;" class="cls-2" d="M228.1,632.15a.86.86,0,0,1,0,1.64,3.13,3.13,0,0,1-2.83,0,.86.86,0,0,1,0-1.64A3.13,3.13,0,0,1,228.1,632.15Z"/><path id="_Path_4" data-name="&lt;Path&gt;" class="cls-2" d="M235.51,627.88a.86.86,0,0,1,0,1.64,3.13,3.13,0,0,1-2.83,0,.86.86,0,0,1,0-1.64A3.13,3.13,0,0,1,235.51,627.88Z"/><path id="_Path_5" data-name="&lt;Path&gt;" class="cls-2" d="M242.91,623.6a.86.86,0,0,1,0,1.64,3.13,3.13,0,0,1-2.83,0,.86.86,0,0,1,0-1.64A3.13,3.13,0,0,1,242.91,623.6Z"/><path id="_Path_6" data-name="&lt;Path&gt;" class="cls-2" d="M198.48,640.7a.86.86,0,0,1,0,1.64,3.13,3.13,0,0,1-2.83,0,.86.86,0,0,1,0-1.64A3.13,3.13,0,0,1,198.48,640.7Z"/><path id="_Path_7" data-name="&lt;Path&gt;" class="cls-2" d="M205.88,636.43a.86.86,0,0,1,0,1.64,3.13,3.13,0,0,1-2.83,0,.86.86,0,0,1,0-1.64A3.13,3.13,0,0,1,205.88,636.43Z"/><path id="_Path_8" data-name="&lt;Path&gt;" class="cls-2" d="M213.29,632.15a.86.86,0,0,1,0,1.64,3.13,3.13,0,0,1-2.83,0,.86.86,0,0,1,0-1.64A3.13,3.13,0,0,1,213.29,632.15Z"/><path id="_Path_9" data-name="&lt;Path&gt;" class="cls-2" d="M220.69,627.88a.86.86,0,0,1,0,1.64,3.13,3.13,0,0,1-2.83,0,.86.86,0,0,1,0-1.64A3.13,3.13,0,0,1,220.69,627.88Z"/><path id="_Path_10" data-name="&lt;Path&gt;" class="cls-2" d="M228.1,623.6a.86.86,0,0,1,0,1.64,3.13,3.13,0,0,1-2.83,0,.86.86,0,0,1,0-1.64A3.13,3.13,0,0,1,228.1,623.6Z"/><path id="_Path_11" data-name="&lt;Path&gt;" class="cls-2" d="M235.51,619.32a.86.86,0,0,1,0,1.64,3.13,3.13,0,0,1-2.83,0,.86.86,0,0,1,0-1.64A3.13,3.13,0,0,1,235.51,619.32Z"/><path id="_Path_12" data-name="&lt;Path&gt;" class="cls-2" d="M183.67,640.7a.86.86,0,0,1,0,1.64,3.13,3.13,0,0,1-2.83,0,.86.86,0,0,1,0-1.64A3.13,3.13,0,0,1,183.67,640.7Z"/><path id="_Path_13" data-name="&lt;Path&gt;" class="cls-2" d="M191.07,636.43a.86.86,0,0,1,0,1.64,3.13,3.13,0,0,1-2.83,0,.86.86,0,0,1,0-1.64A3.13,3.13,0,0,1,191.07,636.43Z"/><path id="_Path_14" data-name="&lt;Path&gt;" class="cls-2" d="M198.48,632.15a.86.86,0,0,1,0,1.64,3.13,3.13,0,0,1-2.83,0,.86.86,0,0,1,0-1.64A3.13,3.13,0,0,1,198.48,632.15Z"/><path id="_Path_15" data-name="&lt;Path&gt;" class="cls-2" d="M205.88,627.88a.86.86,0,0,1,0,1.64,3.13,3.13,0,0,1-2.83,0,.86.86,0,0,1,0-1.64A3.13,3.13,0,0,1,205.88,627.88Z"/><path id="_Path_16" data-name="&lt;Path&gt;" class="cls-2" d="M213.29,623.6a.86.86,0,0,1,0,1.64,3.13,3.13,0,0,1-2.83,0,.86.86,0,0,1,0-1.64A3.13,3.13,0,0,1,213.29,623.6Z"/><path id="_Path_17" data-name="&lt;Path&gt;" class="cls-2" d="M220.7,619.32a.86.86,0,0,1,0,1.64,3.13,3.13,0,0,1-2.83,0,.86.86,0,0,1,0-1.64A3.13,3.13,0,0,1,220.7,619.32Z"/><path id="_Path_18" data-name="&lt;Path&gt;" class="cls-2" d="M228.1,615a.86.86,0,0,1,0,1.64,3.13,3.13,0,0,1-2.83,0,.86.86,0,0,1,0-1.64A3.13,3.13,0,0,1,228.1,615Z"/><path id="_Path_19" data-name="&lt;Path&gt;" class="cls-2" d="M176.26,636.43a.86.86,0,0,1,0,1.64,3.13,3.13,0,0,1-2.83,0,.86.86,0,0,1,0-1.64A3.13,3.13,0,0,1,176.26,636.43Z"/><path id="_Path_20" data-name="&lt;Path&gt;" class="cls-2" d="M183.67,632.15a.86.86,0,0,1,0,1.64,3.13,3.13,0,0,1-2.83,0,.86.86,0,0,1,0-1.64A3.13,3.13,0,0,1,183.67,632.15Z"/><path id="_Path_21" data-name="&lt;Path&gt;" class="cls-2" d="M191.07,627.88a.86.86,0,0,1,0,1.64,3.13,3.13,0,0,1-2.83,0,.86.86,0,0,1,0-1.64A3.13,3.13,0,0,1,191.07,627.88Z"/><path id="_Path_22" data-name="&lt;Path&gt;" class="cls-2" d="M198.48,623.6a.86.86,0,0,1,0,1.64,3.13,3.13,0,0,1-2.83,0,.86.86,0,0,1,0-1.64A3.13,3.13,0,0,1,198.48,623.6Z"/><path id="_Path_23" data-name="&lt;Path&gt;" class="cls-2" d="M205.88,619.32a.86.86,0,0,1,0,1.64,3.13,3.13,0,0,1-2.83,0,.86.86,0,0,1,0-1.64A3.13,3.13,0,0,1,205.88,619.32Z"/><path id="_Path_24" data-name="&lt;Path&gt;" class="cls-2" d="M213.29,615a.86.86,0,0,1,0,1.64,3.13,3.13,0,0,1-2.83,0,.86.86,0,0,1,0-1.64A3.13,3.13,0,0,1,213.29,615Z"/><path id="_Path_25" data-name="&lt;Path&gt;" class="cls-2" d="M220.7,610.77a.86.86,0,0,1,0,1.64,3.13,3.13,0,0,1-2.83,0,.86.86,0,0,1,0-1.64A3.13,3.13,0,0,1,220.7,610.77Z"/><path id="_Path_26" data-name="&lt;Path&gt;" class="cls-2" d="M168.79,632.11a.86.86,0,0,1,0,1.64,3.13,3.13,0,0,1-2.83,0,.86.86,0,0,1,0-1.64A3.13,3.13,0,0,1,168.79,632.11Z"/><path id="_Path_27" data-name="&lt;Path&gt;" class="cls-2" d="M176.2,627.83a.86.86,0,0,1,0,1.64,3.13,3.13,0,0,1-2.83,0,.86.86,0,0,1,0-1.64A3.13,3.13,0,0,1,176.2,627.83Z"/><path id="_Path_28" data-name="&lt;Path&gt;" class="cls-2" d="M183.6,623.56a.86.86,0,0,1,0,1.64,3.13,3.13,0,0,1-2.83,0,.86.86,0,0,1,0-1.64A3.13,3.13,0,0,1,183.6,623.56Z"/><path id="_Path_29" data-name="&lt;Path&gt;" class="cls-2" d="M191,619.28a.86.86,0,0,1,0,1.64,3.13,3.13,0,0,1-2.83,0,.86.86,0,0,1,0-1.64A3.13,3.13,0,0,1,191,619.28Z"/><path id="_Path_30" data-name="&lt;Path&gt;" class="cls-2" d="M198.41,615a.86.86,0,0,1,0,1.64,3.13,3.13,0,0,1-2.83,0,.86.86,0,0,1,0-1.64A3.13,3.13,0,0,1,198.41,615Z"/><path id="_Path_31" data-name="&lt;Path&gt;" class="cls-2" d="M205.82,610.73a.86.86,0,0,1,0,1.64,3.13,3.13,0,0,1-2.83,0,.86.86,0,0,1,0-1.64A3.13,3.13,0,0,1,205.82,610.73Z"/><path id="_Path_32" data-name="&lt;Path&gt;" class="cls-2" d="M213.23,606.45a.86.86,0,0,1,0,1.64,3.13,3.13,0,0,1-2.83,0,.86.86,0,0,1,0-1.64A3.13,3.13,0,0,1,213.23,606.45Z"/><path id="_Path_33" data-name="&lt;Path&gt;" class="cls-2" d="M161.38,627.83a.86.86,0,0,1,0,1.64,3.13,3.13,0,0,1-2.83,0,.86.86,0,0,1,0-1.64A3.13,3.13,0,0,1,161.38,627.83Z"/><path id="_Path_34" data-name="&lt;Path&gt;" class="cls-2" d="M168.79,623.56a.86.86,0,0,1,0,1.64,3.13,3.13,0,0,1-2.83,0,.86.86,0,0,1,0-1.64A3.13,3.13,0,0,1,168.79,623.56Z"/><path id="_Path_35" data-name="&lt;Path&gt;" class="cls-2" d="M176.2,619.28a.86.86,0,0,1,0,1.64,3.13,3.13,0,0,1-2.83,0,.86.86,0,0,1,0-1.64A3.13,3.13,0,0,1,176.2,619.28Z"/><path id="_Path_36" data-name="&lt;Path&gt;" class="cls-2" d="M183.6,615a.86.86,0,0,1,0,1.64,3.13,3.13,0,0,1-2.83,0,.86.86,0,0,1,0-1.64A3.13,3.13,0,0,1,183.6,615Z"/><path id="_Path_37" data-name="&lt;Path&gt;" class="cls-2" d="M191,610.73a.86.86,0,0,1,0,1.64,3.13,3.13,0,0,1-2.83,0,.86.86,0,0,1,0-1.64A3.13,3.13,0,0,1,191,610.73Z"/><path id="_Path_38" data-name="&lt;Path&gt;" class="cls-2" d="M195.58,606.45a3.13,3.13,0,0,1,2.83,0,.86.86,0,0,1,0,1.64,3.13,3.13,0,0,1-2.83,0,.86.86,0,0,1,0-1.64Z"/><path id="_Path_39" data-name="&lt;Path&gt;" class="cls-2" d="M205.82,602.18a.86.86,0,0,1,0,1.64,3.13,3.13,0,0,1-2.83,0C202.2,603.36,205,601.72,205.82,602.18Z"/><path id="_Path_40" data-name="&lt;Path&gt;" class="cls-2" d="M154,623.56a.86.86,0,0,1,0,1.64,3.13,3.13,0,0,1-2.83,0,.86.86,0,0,1,0-1.64A3.13,3.13,0,0,1,154,623.56Z"/><path id="_Path_41" data-name="&lt;Path&gt;" class="cls-2" d="M161.38,619.28a.86.86,0,0,1,0,1.64,3.13,3.13,0,0,1-2.83,0,.86.86,0,0,1,0-1.64A3.13,3.13,0,0,1,161.38,619.28Z"/><path id="_Path_42" data-name="&lt;Path&gt;" class="cls-2" d="M168.79,615a.86.86,0,0,1,0,1.64,3.13,3.13,0,0,1-2.83,0,.86.86,0,0,1,0-1.64A3.13,3.13,0,0,1,168.79,615Z"/><path id="_Path_43" data-name="&lt;Path&gt;" class="cls-2" d="M176.2,610.73a.86.86,0,0,1,0,1.64,3.13,3.13,0,0,1-2.83,0,.86.86,0,0,1,0-1.64,3.13,3.13,0,0,1,2.83,0Z"/><path id="_Path_44" data-name="&lt;Path&gt;" class="cls-2" d="M146.57,619.28a.86.86,0,0,1,0,1.64,3.13,3.13,0,0,1-2.83,0,.86.86,0,0,1,0-1.64A3.13,3.13,0,0,1,146.57,619.28Z"/><path id="_Path_45" data-name="&lt;Path&gt;" class="cls-2" d="M154,615a.86.86,0,0,1,0,1.64,3.13,3.13,0,0,1-2.83,0,.86.86,0,0,1,0-1.64A3.13,3.13,0,0,1,154,615Z"/><path id="_Path_46" data-name="&lt;Path&gt;" class="cls-2" d="M161.38,610.73a.86.86,0,0,1,0,1.64,3.13,3.13,0,0,1-2.83,0,.86.86,0,0,1,0-1.64A3.13,3.13,0,0,1,161.38,610.73Z"/><path id="_Path_47" data-name="&lt;Path&gt;" class="cls-2" d="M168.79,608.09a3.13,3.13,0,0,1-2.83,0,.86.86,0,0,1,0-1.64C166.74,606,169.57,607.64,168.79,608.09Z"/><path id="_Path_48" data-name="&lt;Path&gt;" class="cls-2" d="M139.17,615a.86.86,0,0,1,0,1.64,3.13,3.13,0,0,1-2.83,0,.86.86,0,0,1,0-1.64A3.13,3.13,0,0,1,139.17,615Z"/><path id="_Path_49" data-name="&lt;Path&gt;" class="cls-2" d="M146.57,610.73a.86.86,0,0,1,0,1.64,3.13,3.13,0,0,1-2.83,0,.86.86,0,0,1,0-1.64A3.13,3.13,0,0,1,146.57,610.73Z"/><path id="_Path_50" data-name="&lt;Path&gt;" class="cls-2" d="M154,606.45a.86.86,0,0,1,0,1.64,3.13,3.13,0,0,1-2.83,0,.86.86,0,0,1,0-1.64A3.13,3.13,0,0,1,154,606.45Z"/><path id="_Path_51" data-name="&lt;Path&gt;" class="cls-2" d="M131.76,610.73a.86.86,0,0,1,0,1.64,3.13,3.13,0,0,1-2.83,0,.86.86,0,0,1,0-1.64A3.13,3.13,0,0,1,131.76,610.73Z"/><path id="_Path_52" data-name="&lt;Path&gt;" class="cls-2" d="M139.17,606.45a.86.86,0,0,1,0,1.64,3.13,3.13,0,0,1-2.83,0,.86.86,0,0,1,0-1.64A3.13,3.13,0,0,1,139.17,606.45Z"/><path id="_Path_53" data-name="&lt;Path&gt;" class="cls-2" d="M146.57,602.18a.86.86,0,0,1,0,1.64,3.13,3.13,0,0,1-2.83,0,.86.86,0,0,1,0-1.64A3.13,3.13,0,0,1,146.57,602.18Z"/><path id="_Path_54" data-name="&lt;Path&gt;" class="cls-2" d="M124.36,606.45a.86.86,0,0,1,0,1.64,3.13,3.13,0,0,1-2.83,0,.86.86,0,0,1,0-1.64A3.13,3.13,0,0,1,124.36,606.45Z"/><path id="_Path_55" data-name="&lt;Path&gt;" class="cls-2" d="M131.76,602.18a.86.86,0,0,1,0,1.64,3.13,3.13,0,0,1-2.83,0,.86.86,0,0,1,0-1.64A3.13,3.13,0,0,1,131.76,602.18Z"/><path id="_Path_56" data-name="&lt;Path&gt;" class="cls-2" d="M139.17,597.9a.86.86,0,0,1,0,1.64,3.13,3.13,0,0,1-2.83,0,.86.86,0,0,1,0-1.64A3.13,3.13,0,0,1,139.17,597.9Z"/><path id="_Path_57" data-name="&lt;Path&gt;" class="cls-2" d="M116.95,602.18a.86.86,0,0,1,0,1.64,3.13,3.13,0,0,1-2.83,0,.86.86,0,0,1,0-1.64A3.13,3.13,0,0,1,116.95,602.18Z"/><path id="_Path_58" data-name="&lt;Path&gt;" class="cls-2" d="M124.36,597.9a.86.86,0,0,1,0,1.64,3.13,3.13,0,0,1-2.83,0,.86.86,0,0,1,0-1.64A3.13,3.13,0,0,1,124.36,597.9Z"/><path id="_Path_59" data-name="&lt;Path&gt;" class="cls-2" d="M131.76,593.63a.86.86,0,0,1,0,1.64,3.13,3.13,0,0,1-2.83,0,.86.86,0,0,1,0-1.64A3.13,3.13,0,0,1,131.76,593.63Z"/><path id="_Path_60" data-name="&lt;Path&gt;" class="cls-2" d="M109.48,597.86a.86.86,0,0,1,0,1.64,3.13,3.13,0,0,1-2.83,0,.86.86,0,0,1,0-1.64A3.13,3.13,0,0,1,109.48,597.86Z"/><path id="_Path_61" data-name="&lt;Path&gt;" class="cls-2" d="M116.89,593.58a.86.86,0,0,1,0,1.64,3.13,3.13,0,0,1-2.83,0,.86.86,0,0,1,0-1.64A3.13,3.13,0,0,1,116.89,593.58Z"/><path id="_Path_62" data-name="&lt;Path&gt;" class="cls-2" d="M124.29,589.3a.86.86,0,0,1,0,1.64,3.13,3.13,0,0,1-2.83,0,.86.86,0,0,1,0-1.64A3.13,3.13,0,0,1,124.29,589.3Z"/><path id="_Path_63" data-name="&lt;Path&gt;" class="cls-2" d="M102.07,593.58a.86.86,0,0,1,0,1.64,3.13,3.13,0,0,1-2.83,0,.86.86,0,0,1,0-1.64A3.13,3.13,0,0,1,102.07,593.58Z"/><path id="_Path_64" data-name="&lt;Path&gt;" class="cls-2" d="M109.48,589.3a.86.86,0,0,1,0,1.64,3.13,3.13,0,0,1-2.83,0,.86.86,0,0,1,0-1.64A3.13,3.13,0,0,1,109.48,589.3Z"/><path id="_Path_65" data-name="&lt;Path&gt;" class="cls-2" d="M116.89,585a.86.86,0,0,1,0,1.64,3.13,3.13,0,0,1-2.83,0,.86.86,0,0,1,0-1.64A3.13,3.13,0,0,1,116.89,585Z"/><path id="_Path_66" data-name="&lt;Path&gt;" class="cls-2" d="M94.67,589.3a.86.86,0,0,1,0,1.64,3.13,3.13,0,0,1-2.83,0,.86.86,0,0,1,0-1.64A3.13,3.13,0,0,1,94.67,589.3Z"/><path id="_Path_67" data-name="&lt;Path&gt;" class="cls-2" d="M102.07,585a.86.86,0,0,1,0,1.64,3.13,3.13,0,0,1-2.83,0,.86.86,0,0,1,0-1.64A3.13,3.13,0,0,1,102.07,585Z"/><path id="_Path_68" data-name="&lt;Path&gt;" class="cls-2" d="M109.48,580.75a.86.86,0,0,1,0,1.64,3.13,3.13,0,0,1-2.83,0,.86.86,0,0,1,0-1.64,3.13,3.13,0,0,1,2.83,0Z"/><path id="_Path_69" data-name="&lt;Path&gt;" class="cls-2" d="M94.67,580.75a.86.86,0,0,1,0,1.64,3.13,3.13,0,0,1-2.83,0,.86.86,0,0,1,0-1.64A3.13,3.13,0,0,1,94.67,580.75Z"/><path id="_Path_70" data-name="&lt;Path&gt;" class="cls-2" d="M102.07,576.48a.86.86,0,0,1,0,1.64,3.13,3.13,0,0,1-2.83,0,.86.86,0,0,1,0-1.64A3.13,3.13,0,0,1,102.07,576.48Z"/><path id="_Path_71" data-name="&lt;Path&gt;" class="cls-2" d="M247.5,619.39a3.13,3.13,0,0,1,2.83,0,.86.86,0,0,1,0,1.64,3.13,3.13,0,0,1-2.83,0A.86.86,0,0,1,247.5,619.39Z"/><path id="_Path_72" data-name="&lt;Path&gt;" class="cls-2" d="M257.75,615.1a.86.86,0,0,1,0,1.64,3.13,3.13,0,0,1-2.83,0,.86.86,0,0,1,0-1.64A3.13,3.13,0,0,1,257.75,615.1Z"/><path id="_Path_73" data-name="&lt;Path&gt;" class="cls-2" d="M265.15,610.83a.86.86,0,0,1,0,1.64,3.13,3.13,0,0,1-2.83,0,.86.86,0,0,1,0-1.64A3.13,3.13,0,0,1,265.15,610.83Z"/><path id="_Path_74" data-name="&lt;Path&gt;" class="cls-2" d="M272.56,606.55a.86.86,0,0,1,0,1.64,3.13,3.13,0,0,1-2.83,0,.86.86,0,0,1,0-1.64A3.13,3.13,0,0,1,272.56,606.55Z"/><path id="_Path_75" data-name="&lt;Path&gt;" class="cls-2" d="M280,602.28a.86.86,0,0,1,0,1.64,3.13,3.13,0,0,1-2.83,0,.86.86,0,0,1,0-1.64A3.13,3.13,0,0,1,280,602.28Z"/><path id="_Path_76" data-name="&lt;Path&gt;" class="cls-2" d="M287.37,598a.86.86,0,0,1,0,1.64,3.13,3.13,0,0,1-2.83,0,.86.86,0,0,1,0-1.64A3.13,3.13,0,0,1,287.37,598Z"/><path id="_Path_77" data-name="&lt;Path&gt;" class="cls-2" d="M294.78,593.73a.86.86,0,0,1,0,1.64,3.13,3.13,0,0,1-2.83,0,.86.86,0,0,1,0-1.64A3.13,3.13,0,0,1,294.78,593.73Z"/><path id="_Path_78" data-name="&lt;Path&gt;" class="cls-2" d="M240.09,615.11a3.13,3.13,0,0,1,2.83,0,.86.86,0,0,1,0,1.64,3.13,3.13,0,0,1-2.83,0A.86.86,0,0,1,240.09,615.11Z"/><path id="_Path_79" data-name="&lt;Path&gt;" class="cls-2" d="M250.34,610.83a.86.86,0,0,1,0,1.64,3.13,3.13,0,0,1-2.83,0,.86.86,0,0,1,0-1.64A3.13,3.13,0,0,1,250.34,610.83Z"/><path id="_Path_80" data-name="&lt;Path&gt;" class="cls-2" d="M257.75,606.55a.86.86,0,0,1,0,1.64,3.13,3.13,0,0,1-2.83,0,.86.86,0,0,1,0-1.64A3.13,3.13,0,0,1,257.75,606.55Z"/><path id="_Path_81" data-name="&lt;Path&gt;" class="cls-2" d="M265.15,602.28a.86.86,0,0,1,0,1.64,3.13,3.13,0,0,1-2.83,0,.86.86,0,0,1,0-1.64A3.13,3.13,0,0,1,265.15,602.28Z"/><path id="_Path_82" data-name="&lt;Path&gt;" class="cls-2" d="M272.56,598a.86.86,0,0,1,0,1.64,3.13,3.13,0,0,1-2.83,0,.86.86,0,0,1,0-1.64A3.13,3.13,0,0,1,272.56,598Z"/><path id="_Path_83" data-name="&lt;Path&gt;" class="cls-2" d="M280,593.73a.86.86,0,0,1,0,1.64,3.13,3.13,0,0,1-2.83,0,.86.86,0,0,1,0-1.64A3.13,3.13,0,0,1,280,593.73Z"/><path id="_Path_84" data-name="&lt;Path&gt;" class="cls-2" d="M287.37,589.45a.86.86,0,0,1,0,1.64,3.13,3.13,0,0,1-2.83,0,.86.86,0,0,1,0-1.64A3.13,3.13,0,0,1,287.37,589.45Z"/><path id="_Path_85" data-name="&lt;Path&gt;" class="cls-2" d="M294.78,585.17a.86.86,0,0,1,0,1.64,3.13,3.13,0,0,1-2.83,0,.86.86,0,0,1,0-1.64A3.13,3.13,0,0,1,294.78,585.17Z"/><path id="_Path_86" data-name="&lt;Path&gt;" class="cls-2" d="M232.69,610.83a3.13,3.13,0,0,1,2.83,0,.86.86,0,0,1,0,1.64,3.13,3.13,0,0,1-2.83,0A.86.86,0,0,1,232.69,610.83Z"/><path id="_Path_87" data-name="&lt;Path&gt;" class="cls-2" d="M242.94,606.55a.86.86,0,0,1,0,1.64,3.13,3.13,0,0,1-2.83,0,.86.86,0,0,1,0-1.64A3.13,3.13,0,0,1,242.94,606.55Z"/><path id="_Path_88" data-name="&lt;Path&gt;" class="cls-2" d="M250.34,602.28a.86.86,0,0,1,0,1.64,3.13,3.13,0,0,1-2.83,0,.86.86,0,0,1,0-1.64A3.13,3.13,0,0,1,250.34,602.28Z"/><path id="_Path_89" data-name="&lt;Path&gt;" class="cls-2" d="M257.75,598a.86.86,0,0,1,0,1.64,3.13,3.13,0,0,1-2.83,0,.86.86,0,0,1,0-1.64A3.13,3.13,0,0,1,257.75,598Z"/><path id="_Path_90" data-name="&lt;Path&gt;" class="cls-2" d="M265.15,593.73a.86.86,0,0,1,0,1.64,3.13,3.13,0,0,1-2.83,0,.86.86,0,0,1,0-1.64A3.13,3.13,0,0,1,265.15,593.73Z"/><path id="_Path_91" data-name="&lt;Path&gt;" class="cls-2" d="M272.56,589.45a.86.86,0,0,1,0,1.64,3.13,3.13,0,0,1-2.83,0,.86.86,0,0,1,0-1.64A3.13,3.13,0,0,1,272.56,589.45Z"/><path id="_Path_92" data-name="&lt;Path&gt;" class="cls-2" d="M280,585.17a.86.86,0,0,1,0,1.64,3.13,3.13,0,0,1-2.83,0,.86.86,0,0,1,0-1.64A3.13,3.13,0,0,1,280,585.17Z"/><path id="_Path_93" data-name="&lt;Path&gt;" class="cls-2" d="M287.37,580.9a.86.86,0,0,1,0,1.64,3.13,3.13,0,0,1-2.83,0,.86.86,0,0,1,0-1.64A3.13,3.13,0,0,1,287.37,580.9Z"/><path id="_Path_94" data-name="&lt;Path&gt;" class="cls-2" d="M225.28,606.56a3.13,3.13,0,0,1,2.83,0,.86.86,0,0,1,0,1.64,3.13,3.13,0,0,1-2.83,0A.86.86,0,0,1,225.28,606.56Z"/><path id="_Path_95" data-name="&lt;Path&gt;" class="cls-2" d="M235.53,602.28a.86.86,0,0,1,0,1.64,3.13,3.13,0,0,1-2.83,0,.86.86,0,0,1,0-1.64A3.13,3.13,0,0,1,235.53,602.28Z"/><path id="_Path_96" data-name="&lt;Path&gt;" class="cls-2" d="M242.94,598a.86.86,0,0,1,0,1.64,3.13,3.13,0,0,1-2.83,0,.86.86,0,0,1,0-1.64A3.13,3.13,0,0,1,242.94,598Z"/><path id="_Path_97" data-name="&lt;Path&gt;" class="cls-2" d="M250.34,593.73a.86.86,0,0,1,0,1.64,3.13,3.13,0,0,1-2.83,0,.86.86,0,0,1,0-1.64A3.13,3.13,0,0,1,250.34,593.73Z"/><path id="_Path_98" data-name="&lt;Path&gt;" class="cls-2" d="M257.75,589.45a.86.86,0,0,1,0,1.64,3.13,3.13,0,0,1-2.83,0,.86.86,0,0,1,0-1.64A3.13,3.13,0,0,1,257.75,589.45Z"/><path id="_Path_99" data-name="&lt;Path&gt;" class="cls-2" d="M265.15,585.17a.86.86,0,0,1,0,1.64,3.13,3.13,0,0,1-2.83,0,.86.86,0,0,1,0-1.64A3.13,3.13,0,0,1,265.15,585.17Z"/><path id="_Path_100" data-name="&lt;Path&gt;" class="cls-2" d="M272.56,580.9a.86.86,0,0,1,0,1.64,3.13,3.13,0,0,1-2.83,0,.86.86,0,0,1,0-1.64A3.13,3.13,0,0,1,272.56,580.9Z"/><path id="_Path_101" data-name="&lt;Path&gt;" class="cls-2" d="M280,576.62a.86.86,0,0,1,0,1.64,3.13,3.13,0,0,1-2.83,0,.86.86,0,0,1,0-1.64A3.13,3.13,0,0,1,280,576.62Z"/><path id="_Path_102" data-name="&lt;Path&gt;" class="cls-2" d="M217.81,602.24a3.13,3.13,0,0,1,2.83,0,.86.86,0,0,1,0,1.64,3.13,3.13,0,0,1-2.83,0A.86.86,0,0,1,217.81,602.24Z"/><path id="_Path_103" data-name="&lt;Path&gt;" class="cls-2" d="M228.06,598a.86.86,0,0,1,0,1.64,3.13,3.13,0,0,1-2.83,0,.86.86,0,0,1,0-1.64A3.13,3.13,0,0,1,228.06,598Z"/><path id="_Path_104" data-name="&lt;Path&gt;" class="cls-2" d="M235.47,593.68a.86.86,0,0,1,0,1.64,3.13,3.13,0,0,1-2.83,0,.86.86,0,0,1,0-1.64A3.13,3.13,0,0,1,235.47,593.68Z"/><path id="_Path_105" data-name="&lt;Path&gt;" class="cls-2" d="M242.87,589.4a.86.86,0,0,1,0,1.64,3.13,3.13,0,0,1-2.83,0,.86.86,0,0,1,0-1.64A3.13,3.13,0,0,1,242.87,589.4Z"/><path id="_Path_106" data-name="&lt;Path&gt;" class="cls-2" d="M250.28,585.13a.86.86,0,0,1,0,1.64,3.13,3.13,0,0,1-2.83,0,.86.86,0,0,1,0-1.64A3.13,3.13,0,0,1,250.28,585.13Z"/><path id="_Path_107" data-name="&lt;Path&gt;" class="cls-2" d="M257.68,580.85a.86.86,0,0,1,0,1.64,3.13,3.13,0,0,1-2.83,0,.86.86,0,0,1,0-1.64A3.13,3.13,0,0,1,257.68,580.85Z"/><path id="_Path_108" data-name="&lt;Path&gt;" class="cls-2" d="M213.24,598a.86.86,0,0,1,0,1.64,3.13,3.13,0,0,1-2.83,0C209.63,599.15,212.45,597.51,213.24,598Z"/></g><g id="_Group_3" data-name="&lt;Group&gt;"><g id="_Group_4" data-name="&lt;Group&gt;"><polygon id="_Path_109" data-name="&lt;Path&gt;" class="cls-3" points="280.36 569.84 188.94 622.62 97.53 569.84 188.94 517.06 280.36 569.84"/><polygon id="_Path_110" data-name="&lt;Path&gt;" class="cls-4" points="280.36 579.12 188.94 631.9 97.53 579.12 188.94 526.34 280.36 579.12"/><polygon id="_Path_111" data-name="&lt;Path&gt;" class="cls-3" points="97.53 569.84 97.53 578.18 188.94 630.96 188.94 622.62 97.53 569.84"/><g id="_Group_5" data-name="&lt;Group&gt;"><polygon id="_Path_112" data-name="&lt;Path&gt;" class="cls-5" points="280.36 569.84 280.36 578.18 188.94 630.96 188.94 622.62 280.36 569.84"/><path id="_Compound_Path_" data-name="&lt;Compound Path&gt;" class="cls-2" d="M281.18,569.37l-91.82-53-.41-.24L96.71,569.37v9.28l92.23,53.25,92.23-53.25ZM188.94,518l89.79,51.84-29.1,16.8-60.69,35L99.15,569.84Zm-90.6,59.7v-6.45l89.79,51.84v6.45Zm181.21-6.45v6.45l-89.79,51.84v-6.45l42.72-24.66Z"/></g></g><g id="_Group_6" data-name="&lt;Group&gt;"><g id="_Group_7" data-name="&lt;Group&gt;"><g id="_Group_8" data-name="&lt;Group&gt;"><g id="_Group_9" data-name="&lt;Group&gt;"><path id="_Path_113" data-name="&lt;Path&gt;" class="cls-3" d="M223.34,570.28l0-9.54a1.7,1.7,0,0,0-1.7-1.7h-5a28.55,28.55,0,0,0-3.38-2.31c-13.45-7.76-35.25-7.76-48.7,0a28.52,28.52,0,0,0-3.38,2.31h-5a1.7,1.7,0,0,0-1.7,1.7v9.48q0,.57,0,1.15v0c.42,4.74,3.76,9.86,10,13.49,13.45,7.76,35.25,7.76,48.7,0,6.28-3.62,9.58-8.3,10-13l0-.47h0C223.35,571,223.36,570.63,223.34,570.28Z"/><path id="_Compound_Path_2" data-name="&lt;Compound Path&gt;" class="cls-2" d="M188.94,591.46c-9,0-17.93-2-24.76-5.91-5.93-3.42-9.79-8.53-10.4-13.74h0v-.45a11.46,11.46,0,0,1,0-1.19v-9.44a2.51,2.51,0,0,1,2.51-2.51h4.69a28.48,28.48,0,0,1,3.25-2.2c13.65-7.88,35.86-7.88,49.52,0a28.15,28.15,0,0,1,3.25,2.2h4.73a2.51,2.51,0,0,1,2.51,2.52l0,9.53c0,.37,0,.74,0,1.12l0,.49c-.46,5.21-4.16,10.07-10.41,13.68C206.88,589.49,197.91,591.46,188.94,591.46ZM155.36,571.3c.43,4.8,4,9.6,9.63,12.84,13.21,7.62,34.69,7.62,47.89,0,5.78-3.34,9.19-7.74,9.6-12.41l0-.46c0-.3,0-.63,0-1l0-9.58a.89.89,0,0,0-.26-.63.88.88,0,0,0-.62-.26h-5.29l-.22-.17a27.34,27.34,0,0,0-3.29-2.24c-13.2-7.63-34.68-7.62-47.89,0a27.66,27.66,0,0,0-3.29,2.24l-.22.17h-5.25a.88.88,0,0,0-.88.88v9.48C155.35,570.6,155.35,571,155.36,571.3Z"/></g><g id="_Group_10" data-name="&lt;Group&gt;"><path id="_Path_114" data-name="&lt;Path&gt;" class="cls-3" d="M213.3,546c13.45,7.76,13.45,20.35,0,28.12s-35.25,7.77-48.7,0-13.45-20.35,0-28.12S199.85,538.23,213.3,546Z"/><path id="_Path_115" data-name="&lt;Path&gt;" class="cls-6" d="M164.61,553.16c-5.15,3-8.31,6.66-9.52,10.5,1.22,3.83,4.38,7.49,9.5,10.44,13.45,7.76,35.25,7.76,48.7,0,5.15-3,8.31-6.66,9.52-10.5-1.22-3.83-4.38-7.49-9.5-10.44C199.87,545.4,178.06,545.4,164.61,553.16Z"/><path id="_Compound_Path_3" data-name="&lt;Compound Path&gt;" class="cls-2" d="M188.94,580.73c-9,0-17.93-2-24.76-5.91s-10.49-9.15-10.49-14.76,3.73-10.86,10.5-14.76c13.65-7.88,35.86-7.88,49.52,0h0c6.77,3.91,10.5,9.15,10.5,14.76s-3.73,10.86-10.5,14.76S197.91,580.73,188.94,580.73Zm0-39.75c-8.67,0-17.34,1.9-23.94,5.71-6.24,3.61-9.68,8.35-9.68,13.36s3.44,9.75,9.68,13.36c13.2,7.62,34.69,7.62,47.89,0,6.24-3.61,9.68-8.35,9.68-13.36s-3.44-9.75-9.68-13.36C206.29,542.88,197.61,541,188.94,541Z"/></g></g><g id="_Group_11" data-name="&lt;Group&gt;"><path id="_Path_116" data-name="&lt;Path&gt;" class="cls-3" d="M165.22,560.51a1.36,1.36,0,0,1,0,2.58,4.94,4.94,0,0,1-4.47,0,1.36,1.36,0,0,1,0-2.58A4.94,4.94,0,0,1,165.22,560.51Z"/><path id="_Compound_Path_4" data-name="&lt;Compound Path&gt;" class="cls-2" d="M163.08,562.69a5.36,5.36,0,0,1-2.64-.64,2.16,2.16,0,0,1,0-4,5.74,5.74,0,0,1,5.28,0h0a2.16,2.16,0,0,1,0,4A5.36,5.36,0,0,1,163.08,562.69Zm0-3.65a3.78,3.78,0,0,0-1.83.42c-.32.19-.52.41-.52.59s.2.4.52.59a4.16,4.16,0,0,0,3.66,0c.32-.19.52-.41.52-.59s-.2-.4-.52-.59h0A3.77,3.77,0,0,0,163.08,559Z"/></g><g id="_Group_12" data-name="&lt;Group&gt;"><path id="_Path_117" data-name="&lt;Path&gt;" class="cls-3" d="M191.1,575a1.36,1.36,0,0,1,0,2.58,4.94,4.94,0,0,1-4.47,0,1.36,1.36,0,0,1,0-2.58A4.94,4.94,0,0,1,191.1,575Z"/><path id="_Compound_Path_5" data-name="&lt;Compound Path&gt;" class="cls-2" d="M189,577.14a5.4,5.4,0,0,1-2.64-.64,2.16,2.16,0,0,1,0-4,5.75,5.75,0,0,1,5.28,0,2.16,2.16,0,0,1,0,4A5.38,5.38,0,0,1,189,577.14Zm0-3.64a3.78,3.78,0,0,0-1.83.42c-.32.18-.52.41-.52.59s.2.4.52.59a4.18,4.18,0,0,0,3.66,0c.32-.18.52-.41.52-.58s-.2-.4-.52-.58h0A3.77,3.77,0,0,0,189,573.5Z"/></g><g id="_Group_13" data-name="&lt;Group&gt;"><path id="_Path_118" data-name="&lt;Path&gt;" class="cls-3" d="M173.62,570.93a1.36,1.36,0,0,1,0,2.58,4.94,4.94,0,0,1-4.47,0,1.36,1.36,0,0,1,0-2.58A4.94,4.94,0,0,1,173.62,570.93Z"/><path id="_Compound_Path_6" data-name="&lt;Compound Path&gt;" class="cls-2" d="M171.47,573.11a5.36,5.36,0,0,1-2.64-.64,2.16,2.16,0,0,1,0-4,5.74,5.74,0,0,1,5.28,0,2.16,2.16,0,0,1,0,4A5.36,5.36,0,0,1,171.47,573.11Zm0-3.65a3.77,3.77,0,0,0-1.83.42c-.32.19-.52.41-.52.59s.2.4.52.59a4.16,4.16,0,0,0,3.66,0c.32-.19.52-.41.52-.59s-.2-.4-.52-.59A3.78,3.78,0,0,0,171.47,569.46Z"/></g><g id="_Group_14" data-name="&lt;Group&gt;"><path id="_Path_119" data-name="&lt;Path&gt;" class="cls-3" d="M173.62,550.06a1.36,1.36,0,0,1,0,2.58,4.94,4.94,0,0,1-4.47,0,1.36,1.36,0,0,1,0-2.58A4.94,4.94,0,0,1,173.62,550.06Z"/><path id="_Compound_Path_7" data-name="&lt;Compound Path&gt;" class="cls-2" d="M171.47,552.24a5.41,5.41,0,0,1-2.64-.64,2.16,2.16,0,0,1,0-4,5.74,5.74,0,0,1,5.28,0,2.16,2.16,0,0,1,0,4A5.38,5.38,0,0,1,171.47,552.24Zm0-3.64a3.77,3.77,0,0,0-1.83.42c-.32.19-.52.41-.52.59s.2.4.52.59a4.18,4.18,0,0,0,3.66,0c.32-.18.52-.41.52-.58s-.2-.4-.52-.59A3.78,3.78,0,0,0,171.47,548.59Z"/></g><g id="_Group_15" data-name="&lt;Group&gt;"><path id="_Path_120" data-name="&lt;Path&gt;" class="cls-3" d="M209,550.06a1.36,1.36,0,0,1,0,2.58,4.94,4.94,0,0,1-4.47,0,1.36,1.36,0,0,1,0-2.58A4.94,4.94,0,0,1,209,550.06Z"/><path id="_Compound_Path_8" data-name="&lt;Compound Path&gt;" class="cls-2" d="M206.81,552.24a5.41,5.41,0,0,1-2.64-.64,2.16,2.16,0,0,1,0-4,5.74,5.74,0,0,1,5.28,0,2.16,2.16,0,0,1,0,4A5.38,5.38,0,0,1,206.81,552.24Zm0-3.64A3.77,3.77,0,0,0,205,549c-.32.19-.52.41-.52.59s.2.4.52.59a4.18,4.18,0,0,0,3.66,0c.32-.18.52-.41.52-.58s-.2-.4-.52-.59A3.77,3.77,0,0,0,206.81,548.59Z"/></g><g id="_Group_16" data-name="&lt;Group&gt;"><path id="_Path_121" data-name="&lt;Path&gt;" class="cls-3" d="M209.39,570.32a1.36,1.36,0,0,1,0,2.58,4.94,4.94,0,0,1-4.47,0,1.36,1.36,0,0,1,0-2.58A4.94,4.94,0,0,1,209.39,570.32Z"/><path id="_Compound_Path_9" data-name="&lt;Compound Path&gt;" class="cls-2" d="M207.24,572.5a5.36,5.36,0,0,1-2.64-.64,2.16,2.16,0,0,1,0-4,5.74,5.74,0,0,1,5.28,0,2.16,2.16,0,0,1,0,4A5.36,5.36,0,0,1,207.24,572.5Zm0-3.65a3.77,3.77,0,0,0-1.83.42c-.32.19-.52.41-.52.59s.2.4.52.59a4.16,4.16,0,0,0,3.66,0c.32-.19.52-.41.52-.59s-.2-.4-.52-.59A3.78,3.78,0,0,0,207.24,568.85Z"/></g><g id="_Group_17" data-name="&lt;Group&gt;"><path id="_Path_122" data-name="&lt;Path&gt;" class="cls-3" d="M217.16,560.51a1.36,1.36,0,0,1,0,2.58,4.94,4.94,0,0,1-4.47,0,1.36,1.36,0,0,1,0-2.58A4.94,4.94,0,0,1,217.16,560.51Z"/><path id="_Compound_Path_10" data-name="&lt;Compound Path&gt;" class="cls-2" d="M215,562.69a5.36,5.36,0,0,1-2.64-.64,2.16,2.16,0,0,1,0-4,5.74,5.74,0,0,1,5.28,0h0a2.16,2.16,0,0,1,0,4A5.36,5.36,0,0,1,215,562.69Zm0-3.65a3.77,3.77,0,0,0-1.83.42c-.32.19-.52.41-.52.59s.2.4.52.59a4.16,4.16,0,0,0,3.66,0c.32-.19.52-.41.52-.59s-.2-.4-.52-.59h0A3.77,3.77,0,0,0,215,559Z"/></g></g><polygon id="_Path_123" data-name="&lt;Path&gt;" class="cls-5" points="188.96 579.93 188.94 590.67 198.69 589.86 210.4 586.33 217.37 582.01 222.56 576.33 223.35 567.83 222.57 564.92 218.86 569.91 210.78 575.42 197.48 579.6 188.96 579.93"/></g><g id="_Group_18" data-name="&lt;Group&gt;"><g id="_Group_19" data-name="&lt;Group&gt;"><path id="_Path_124" data-name="&lt;Path&gt;" class="cls-3" d="M171.08,314.66v244.2h0c0,2.62,1.84,5.25,5.31,7.25,6.94,4,18.18,4,25.12,0,3.47-2,5.31-4.63,5.31-7.25h0V314.66Z"/><path id="_Compound_Path_11" data-name="&lt;Compound Path&gt;" class="cls-2" d="M188.94,569.91a26.49,26.49,0,0,1-13-3.1c-3.69-2.12-5.71-5-5.71-8v-245h37.36v245c0,3-2,5.83-5.71,8A26.52,26.52,0,0,1,188.94,569.91ZM171.89,315.47V558.85c0,2.36,1.79,4.75,4.9,6.55,6.7,3.86,17.6,3.87,24.3,0,3.11-1.8,4.9-4.18,4.9-6.55V315.47Z"/></g><polygon id="_Path_125" data-name="&lt;Path&gt;" class="cls-5" points="193.26 395.88 193.26 568.77 196.77 568.05 202.83 564.92 206.72 561.06 206.72 404.59 193.26 395.88"/></g><g id="_Group_20" data-name="&lt;Group&gt;"><g id="_Group_21" data-name="&lt;Group&gt;"><polygon id="_Path_126" data-name="&lt;Path&gt;" class="cls-3" points="354.28 371.33 387.22 351.44 129.86 202.86 96.92 222.74 354.28 371.33"/><polygon id="_Path_127" data-name="&lt;Path&gt;" class="cls-7" points="352.8 378.57 385.74 358.69 128.38 210.1 95.44 229.99 352.8 378.57"/><path id="_Compound_Path_12" data-name="&lt;Compound Path&gt;" class="cls-2" d="M354.29,372.27l-.42-.24L95.32,222.76l34.53-20.85.42.24L388,351v.93ZM98.53,222.73,354.27,370.38l31.35-18.92L129.87,203.8Z"/></g><g id="_Group_22" data-name="&lt;Group&gt;"><polygon id="_Path_128" data-name="&lt;Path&gt;" class="cls-8" points="387.22 351.44 387.22 357.73 354.28 377.61 354.28 371.33 387.22 351.44"/><path id="_Compound_Path_13" data-name="&lt;Compound Path&gt;" class="cls-2" d="M353.47,379.06v-8.19l33.75-20.38.81.48v7.22Zm1.63-7.27v4.38l31.31-18.9v-4.39Z"/></g></g><polygon id="_Path_129" data-name="&lt;Path&gt;" class="cls-9" points="335.87 103.3 364.31 305.32 266.82 249.03 319.62 98.61 331.81 105.64 335.87 103.3"/><polygon id="_Path_130" data-name="&lt;Path&gt;" class="cls-10" points="269.33 59.59 297.76 261.61 200.28 205.33 253.08 54.9 265.27 61.93 269.33 59.59"/><polygon id="_Path_131" data-name="&lt;Path&gt;" class="cls-11" points="198.03 19.04 226.47 221.06 128.98 164.77 181.78 14.35 193.97 21.38 198.03 19.04"/><g id="_Group_23" data-name="&lt;Group&gt;"><polygon id="_Path_132" data-name="&lt;Path&gt;" class="cls-3" points="345.01 391.84 87.65 243.26 87.65 38.63 345.01 187.22 345.01 391.84"/><polygon id="_Path_133" data-name="&lt;Path&gt;" class="cls-3" points="345.01 187.22 354.12 181.58 96.76 32.99 87.65 38.63 345.01 187.22"/><polygon id="_Path_134" data-name="&lt;Path&gt;" class="cls-12" points="348.97 189.64 354.12 186.7 96.76 38.11 91.61 41.05 348.97 189.64"/><g id="_Group_24" data-name="&lt;Group&gt;"><polygon id="_Path_135" data-name="&lt;Path&gt;" class="cls-8" points="345.01 391.84 345.01 187.22 354.12 181.58 354.12 386.2 345.01 391.84"/><path id="_Compound_Path_14" data-name="&lt;Compound Path&gt;" class="cls-2" d="M354.93,181.11,97.16,32.28,96.74,32l-9.9,6.14V243.73L345,392.79l9.9-6.14ZM96.77,33.94,352.53,181.6l-2.9,1.8L345,186.27l-157.53-91L89.24,38.61ZM88.47,242.79V40l172.36,99.51,83.37,48.14V390.43Zm264.84,143-7.48,4.64V187.68l4-2.51,3.43-2.13Z"/></g></g><g id="_Group_25" data-name="&lt;Group&gt;"><g id="_Group_26" data-name="&lt;Group&gt;"><polygon id="_Path_136" data-name="&lt;Path&gt;" class="cls-8" points="282.04 217.8 282.04 225.24 315.46 205.94 315.46 279.02 282.04 298.31 282.04 305.75 315.46 286.46 315.46 359.72 282.04 379.02 282.04 386.45 321.9 363.44 321.9 194.78 282.04 217.8"/><polygon id="_Path_137" data-name="&lt;Path&gt;" class="cls-3" points="66.13 93.06 72.58 96.78 106 77.49 169.28 114.03 135.86 133.32 142.3 137.04 175.72 117.75 239.17 154.38 205.75 173.67 212.19 177.39 245.61 158.1 309.02 194.7 275.6 214 282.04 217.72 321.9 194.7 106 70.05 66.13 93.06"/><polygon id="_Path_138" data-name="&lt;Path&gt;" class="cls-12" points="66.13 95.64 72.58 99.36 106 80.07 169.28 116.6 135.86 135.9 142.3 139.62 175.72 120.32 239.17 156.96 205.75 176.25 212.19 179.97 245.61 160.68 309.02 197.28 275.6 216.58 279.47 218.73 319.34 195.71 106 72.63 66.13 95.64"/></g><g id="_Group_27" data-name="&lt;Group&gt;"><polygon id="_Path_139" data-name="&lt;Path&gt;" class="cls-3" points="310.87 208.59 310.87 275.83 315.46 279.02 315.46 205.94 310.87 208.59"/><polygon id="_Path_140" data-name="&lt;Path&gt;" class="cls-3" points="310.87 275.83 300.22 281.96 300.22 287.82 315.46 279.02 310.87 275.83"/><polygon id="_Path_141" data-name="&lt;Path&gt;" class="cls-12" points="310.87 278.2 300.22 284.33 300.22 287.45 313.6 280.09 310.87 278.2"/></g><g id="_Group_28" data-name="&lt;Group&gt;"><polygon id="_Path_142" data-name="&lt;Path&gt;" class="cls-3" points="310.87 289.21 310.87 356.44 315.46 359.63 315.46 286.56 310.87 289.21"/><g id="_Group_29" data-name="&lt;Group&gt;"><polygon id="_Path_143" data-name="&lt;Path&gt;" class="cls-3" points="310.87 356.44 300.22 362.57 300.22 368.44 315.46 359.63 310.87 356.44"/><polygon id="_Path_144" data-name="&lt;Path&gt;" class="cls-13" points="310.87 358.84 300.22 364.97 300.22 368.44 313.64 360.77 310.87 358.84"/><path id="_Compound_Path_15" data-name="&lt;Compound Path&gt;" class="cls-2" d="M281.23,217.33v9.32L310.06,210v65.35l-10.65,6.13v5.86l-18.18,10.5v9.32l28.83-16.64V356l-10.65,6.13v5.95l-18.18,10.49v9.32l41.49-24V194.24l-.74-.44Zm33.42-10v70.11L312.58,276l-.9-.62V209.07ZM301,286.41v-4l9.8-5.64,1,.67,2.16,1.5-1.4.81ZM311.68,356V289.68l3-1.71v70.11l-.23-.16ZM301,363l9.8-5.63,3.07,2.13,0,0L301,367Zm20.06-.07L282.85,385v-5.56l33.42-19.29V285l-33.42,19.3v-5.56l16.55-9.56h0l16.87-9.74v-75h0l-33.42,19.29v-5.56l38.24-22.07Z"/></g></g><polygon id="_Path_145" data-name="&lt;Path&gt;" class="cls-3" points="245.61 158.1 245.61 164.2 304 197.6 309.02 194.7 245.61 158.1"/><polygon id="_Path_146" data-name="&lt;Path&gt;" class="cls-8" points="225.36 169.79 245.61 158.1 245.61 164.2 230.88 172.98 225.36 169.79"/><polygon id="_Path_147" data-name="&lt;Path&gt;" class="cls-3" points="175.71 117.66 175.71 123.77 234.1 157.17 239.12 154.27 175.71 117.66"/><polygon id="_Path_148" data-name="&lt;Path&gt;" class="cls-8" points="155.46 129.36 175.71 117.66 175.71 123.77 160.98 132.55 155.46 129.36"/><polygon id="_Path_149" data-name="&lt;Path&gt;" class="cls-3" points="106.03 77.4 106.03 83.51 164.42 116.9 169.44 114.01 106.03 77.4"/><g id="_Group_30" data-name="&lt;Group&gt;"><polygon id="_Path_150" data-name="&lt;Path&gt;" class="cls-8" points="85.77 89.1 106.03 77.4 106.03 83.51 91.3 92.29 85.77 89.1"/><path id="_Compound_Path_16" data-name="&lt;Compound Path&gt;" class="cls-2" d="M106.4,69.34l-.41-.24-41.49,24,8.07,4.66,13.26-7.65,5.47,3.16L106,84.45l56.68,32.42-28.49,16.45L142.3,138l13.23-7.64,5.45,3.15,14.74-8.78,56.87,32.53-28.47,16.43,8.07,4.66,13.16-7.6,5.53,3.19,14.74-8.78,56.74,32.46L274,214l8.07,4.66,40.68-23.48v-.94l-.75-.43Zm-15.11,22-3.83-2.21,17.76-10.25V83ZM106.84,83V78.92L167.65,114l-3.3,1.9ZM161,131.6l-3.81-2.2,17.74-10.24v4.15Zm15.56-12.45,60.89,35.16-3.32,1.92L176.53,123.3ZM230.87,172,227,169.79l17.82-10.29v4.23ZM304,196.66l-57.57-32.93v-4.22l61,35.2ZM277.23,214l33.42-19.3-65-37.55-9.79,5.65-23.63,13.64-4.81-2.78,33.42-19.29-.12-.07.07,0-65-37.55-21.89,12.64.08,0-11.6,6.7-4.81-2.78,26.87-15.51.06,0,6.64-3.84L106,76.46,84.14,89.1l.06,0L72.57,95.84l-4.81-2.78L106,71,320.28,194.7,282,216.78Z"/></g></g><g id="_Group_31" data-name="&lt;Group&gt;"><polygon id="_Path_151" data-name="&lt;Path&gt;" class="cls-3" points="291.11 423.28 33.75 274.69 33.75 70.07 291.11 218.66 291.11 423.28"/><polygon id="_Path_152" data-name="&lt;Path&gt;" class="cls-3" points="291.11 218.66 300.22 213.02 42.86 64.43 33.75 70.07 291.11 218.66"/><polygon id="_Path_153" data-name="&lt;Path&gt;" class="cls-12" points="296.06 221.24 300.88 218.22 43.52 69.63 38.7 72.65 296.06 221.24"/><g id="_Group_32" data-name="&lt;Group&gt;"><polygon id="_Path_154" data-name="&lt;Path&gt;" class="cls-8" points="291.11 423.28 291.11 218.66 300.22 213.02 300.22 417.64 291.11 423.28"/><path id="_Compound_Path_17" data-name="&lt;Compound Path&gt;" class="cls-2" d="M301,212.54,43.26,63.72l-.42-.24-9.9,6.14V275.16L291.13,424.23l9.9-6.14ZM42.87,65.38,298.63,213l-1.9,1.18-5.64,3.49L146.31,134.12,35.34,70ZM34.57,274.22V71.48L206.93,171l83.37,48.14V421.87Zm264.84-59.74V417.18l-7.48,4.63V219.11l4.6-2.85Z"/></g></g><g id="_Group_33" data-name="&lt;Group&gt;"><polygon id="_Path_155" data-name="&lt;Path&gt;" class="cls-3" points="258.17 427.07 291.11 407.19 33.75 258.6 0.81 278.49 258.17 427.07"/><polygon id="_Path_156" data-name="&lt;Path&gt;" class="cls-13" points="258.99 429.82 286.81 412.17 34.09 266.26 4.84 283.92 258.99 429.82"/><polygon id="_Path_157" data-name="&lt;Path&gt;" class="cls-3" points="0.81 278.49 0.81 284.77 258.17 433.36 258.17 427.07 0.81 278.49"/><ellipse id="_Path_158" data-name="&lt;Path&gt;" class="cls-3" cx="231.91" cy="397.62" rx="10.43" ry="5.43"/><g id="_Group_34" data-name="&lt;Group&gt;"><polygon id="_Path_159" data-name="&lt;Path&gt;" class="cls-8" points="291.11 407.19 291.11 413.48 258.17 433.36 258.17 427.07 291.11 407.19"/><path id="_Compound_Path_18" data-name="&lt;Compound Path&gt;" class="cls-2" d="M291.93,406.72,34.16,257.9l-.42-.24L0,278v7.22L258.18,434.31l33.74-20.37ZM33.76,259.55,289.51,407.21l-15.14,9.14-16.21,9.78-1.75-1L2.42,278.47ZM1.63,284.3v-4.4L257.36,427.54V432ZM290.3,413,259,431.92v-4.38L274,418.44l16.25-9.81Z"/></g></g><g id="_Group_35" data-name="&lt;Group&gt;"><polygon id="_Path_160" data-name="&lt;Path&gt;" class="cls-3" points="33.75 70.07 33.75 258.6 98.09 295.75 98.09 107.22 33.75 70.07"/><polygon id="_Path_161" data-name="&lt;Path&gt;" class="cls-7" points="290.21 405.95 290.21 228.36 43.81 87.45 43.81 265.05 290.21 405.95"/><path id="_Compound_Path_19" data-name="&lt;Compound Path&gt;" class="cls-14" d="M290.21,406,32.94,259.08V69.62l.77-.51L290.62,218Z"/></g><text class="cls-15" transform="matrix(1.2, 0.68, -0.01, 1, 64.43, 187.28)">tum<tspan x="0" y="60">pero</tspan></text><path d="M225.13,300.56c-.13.05-.57.13-.57.19v18.41c0,.15.35.29.45.44.43.6.55,1.17,1.55,1.74v-20.9A6.53,6.53,0,0,0,225.13,300.56Z"/><path d="M226.56,280.79c-1-.64-1-1.32-2-2V289c1,.09,1,.19,2,.32Z"/><path d="M224.56,179.89V343.53c1,.62,1,1.26,2,1.9V182.71l62,36.21V377.05c0,.07-.16,7.3-4.15,10.32a7,7,0,0,1-6.13,1L217.18,353a8,8,0,0,0,4.27-1.74,10.51,10.51,0,0,0,2.56-3.14c-.4-.4-.8-.8-1.19-1.21a9.19,9.19,0,0,1-2.36,3.08,7,7,0,0,1-5.78,1.3,1,1,0,0,0-1.06.62l-.17.79,64.23,37.19.22.09a11.79,11.79,0,0,0,2.7.33,8,8,0,0,0,5-1.63c4.6-3.47,5-11.21,5-11.58V218Z"/><polygon id="_Path_162" data-name="&lt;Path&gt;" class="cls-16" points="208.16 176.95 236.59 378.97 139.1 322.68 191.91 172.26 204.09 179.29 208.16 176.95"/><polygon id="_Path_163" data-name="&lt;Path&gt;" class="cls-17" points="143.84 136.81 172.27 338.82 74.78 282.54 127.59 132.12 139.78 139.15 143.84 136.81"/><polygon id="_Path_164" data-name="&lt;Path&gt;" class="cls-18" points="74.55 95.85 102.98 297.87 35.67 255.6 58.3 91.16 70.49 98.19 74.55 95.85"/><g id="_Group_36" data-name="&lt;Group&gt;"><g id="_Group_37" data-name="&lt;Group&gt;"><g id="_Group_38" data-name="&lt;Group&gt;"><g id="_Group_39" data-name="&lt;Group&gt;"><g id="_Group_40" data-name="&lt;Group&gt;"><path id="_Path_165" data-name="&lt;Path&gt;" class="cls-3" d="M202.68,1.5l-.31-.17-.13-.07h0c-1.65-.78-3.84-.59-6.25.8l-20.4,11.64a3.85,3.85,0,0,0-1.74,3v8.81a1.25,1.25,0,0,0,.46,1.07l0,0,.08,0,14.17,7.73,16.19-15.6,9.42-7.15,2-2.79Z"/><path id="_Path_166" data-name="&lt;Path&gt;" class="cls-12" d="M204.57,18.83l7.95-6L202.3,7.21,202,7,201.86,7h0c-1.65-.78-3.84-.59-6.25.8L175.2,19.42a3.83,3.83,0,0,0-1.55,2v4.09a1.25,1.25,0,0,0,.46,1.07l0,0,.08,0,14.17,7.73Z"/><path id="_Compound_Path_20" data-name="&lt;Compound Path&gt;" class="cls-2" d="M188.71,35.42l-15-8.24a2,2,0,0,1-.68-1.64V16.74A4.69,4.69,0,0,1,175.18,13l20.4-11.64c2.36-1.37,4.69-1.72,6.58-1l0,0,.42.22.45.25,14.27,7.8-2.67,3.72-9.43,7.15ZM174.85,26l13.59,7.41L204.2,18.23l9.4-7.14L215,9.15,202,2.07h0L201.89,2c-1.48-.7-3.43-.42-5.49.77L176,14.42a3,3,0,0,0-1.33,2.31v8.81c0,.24.06.37.12.41Z"/></g><g id="_Group_41" data-name="&lt;Group&gt;"><path id="_Path_167" data-name="&lt;Path&gt;" class="cls-19" d="M219.48,15.23h0c0-6-4.18-8.41-9.33-5.44l-20.4,11.64a3.85,3.85,0,0,0-1.74,3v8.81c0,1.11.78,1.57,1.74,1l28-16A3.85,3.85,0,0,0,219.48,15.23Z"/><path id="_Compound_Path_21" data-name="&lt;Compound Path&gt;" class="cls-2" d="M189,35.33a1.71,1.71,0,0,1-.86-.22,2,2,0,0,1-.92-1.84V24.46a4.69,4.69,0,0,1,2.15-3.73L209.74,9.08c2.74-1.58,5.36-1.82,7.39-.65s3.15,3.59,3.15,6.79A4.69,4.69,0,0,1,218.14,19l-28,16A2.37,2.37,0,0,1,189,35.33Zm25.33-26a7.65,7.65,0,0,0-3.74,1.16L190.15,22.14a3,3,0,0,0-1.33,2.31v8.81c0,.3.09.42.11.43a.61.61,0,0,0,.41-.12l28-16a3.05,3.05,0,0,0,1.33-2.32c0-2.6-.83-4.51-2.34-5.38A4,4,0,0,0,214.3,9.33Z"/></g></g><g id="_Group_42" data-name="&lt;Group&gt;"><g id="_Group_43" data-name="&lt;Group&gt;"><path id="_Path_168" data-name="&lt;Path&gt;" class="cls-3" d="M153.53,74.18h0a4.4,4.4,0,0,1-4.4-4.4V51.52c0-7.65,5.22-16.65,11.88-20.5l16-9.16a4.4,4.4,0,0,1,6,1.66h0a4.4,4.4,0,0,1-1.65,6l-16,9.14c-4,2.28-7.45,8.3-7.45,12.86V69.77A4.4,4.4,0,0,1,153.53,74.18Z"/><path id="_Path_169" data-name="&lt;Path&gt;" class="cls-12" d="M165.28,38.29l16-9.14A4.37,4.37,0,0,0,183,27.4l0-.07a4.4,4.4,0,0,0-6-1.66l-16,9.16C154.24,38.68,149,47.68,149,55.33V69.4a4.4,4.4,0,0,0,4.4,4.4h0a4.4,4.4,0,0,0,4.4-4.4V51.14C157.83,46.58,161.32,40.57,165.28,38.29Z"/><path id="_Compound_Path_22" data-name="&lt;Compound Path&gt;" class="cls-2" d="M153.53,75a5.22,5.22,0,0,1-5.22-5.22V51.52c0-7.91,5.39-17.23,12.28-21.2l16-9.16a5.22,5.22,0,1,1,5.15,9.07l-16,9.14c-3.68,2.13-7,7.92-7,12.15V69.77A5.22,5.22,0,0,1,153.53,75ZM179.2,22.1a3.56,3.56,0,0,0-1.77.47l-16,9.16c-6.43,3.71-11.47,12.41-11.47,19.79V69.77a3.59,3.59,0,0,0,3.59,3.59h0a3.59,3.59,0,0,0,3.59-3.59V51.52c0-4.81,3.67-11.14,7.86-13.56l16-9.14a3.59,3.59,0,0,0-1.77-6.71Z"/></g></g></g><g id="_Group_44" data-name="&lt;Group&gt;"><g id="_Group_45" data-name="&lt;Group&gt;"><g id="_Group_46" data-name="&lt;Group&gt;"><path id="_Path_170" data-name="&lt;Path&gt;" class="cls-3" d="M102.11,106.51h0a4.4,4.4,0,0,1-4.4-4.4V81.48c0-1.71-.48-2.33-.61-2.41s-.91-.18-2.39.67L71.87,93.23a4.4,4.4,0,0,1-6-1.57h0a4.4,4.4,0,0,1,1.57-6l22.85-13.5c4-2.28,8-2.53,11.23-.69s5,5.5,5,10v20.63A4.4,4.4,0,0,1,102.11,106.51Z"/><path id="_Path_171" data-name="&lt;Path&gt;" class="cls-12" d="M101.45,75.4c-3.19-1.84-7.27-1.59-11.23.69L67.37,89.59a4.37,4.37,0,0,0-1.69,1.81,4.34,4.34,0,0,0,.21.46,4.4,4.4,0,0,0,6,1.57L94.75,79.94c1.48-.86,2.26-.75,2.39-.67s.61.7.61,2.41V102.3a4.4,4.4,0,0,0,8.72.88V85.43C106.47,80.9,104.64,77.24,101.45,75.4Z"/><path id="_Compound_Path_23" data-name="&lt;Compound Path&gt;" class="cls-2" d="M102.11,107.32a5.22,5.22,0,0,1-5.22-5.22V81.48a4.37,4.37,0,0,0-.25-1.64,4.36,4.36,0,0,0-1.54.61L72.28,93.93a5.22,5.22,0,1,1-5.28-9l22.85-13.5c4.21-2.43,8.6-2.68,12-.69s5.42,5.9,5.42,10.74v20.63A5.22,5.22,0,0,1,102.11,107.32ZM96.77,78.2a1.45,1.45,0,0,1,.73.16c.49.28,1,1.25,1,3.11v20.63a3.59,3.59,0,0,0,7.18,0V81.48c0-4.24-1.68-7.64-4.61-9.33s-6.72-1.44-10.41.69L67.83,86.34a3.59,3.59,0,1,0,3.63,6.19L94.28,79A5.23,5.23,0,0,1,96.77,78.2Z"/></g></g><g id="_Group_47" data-name="&lt;Group&gt;"><g id="_Group_48" data-name="&lt;Group&gt;"><path id="_Path_172" data-name="&lt;Path&gt;" class="cls-3" d="M60.16,79.81a.69.69,0,0,0-.44-.25l-.06,0a2.17,2.17,0,0,0-.7.19L39.37,91a17.26,17.26,0,0,0-7.81,13.53,1.11,1.11,0,0,0,.26.75h0l15.86,9.08L62.82,100,71.9,93.3l3.5-4.39a.4.4,0,0,0-.12-.59Z"/><path id="_Path_173" data-name="&lt;Path&gt;" class="cls-20" d="M59.47,84.88l-.06,0a2.17,2.17,0,0,0-.7.19L39.12,96.34a17.21,17.21,0,0,0-7,9l15.37,8.8L62.68,99.81l9.08-6.74.7-.88L59.91,85.12A.69.69,0,0,0,59.47,84.88Z"/><path id="_Compound_Path_24" data-name="&lt;Compound Path&gt;" class="cls-2" d="M47.8,115.39l-16.59-9.56a1.91,1.91,0,0,1-.46-1.28c0-5.23,3.69-11.62,8.22-14.23L58.56,79a2.82,2.82,0,0,1,1-.29l.25,0,.17.09a1.48,1.48,0,0,1,.66.37l15,8.45a1.22,1.22,0,0,1,.6.82,1.2,1.2,0,0,1-.24,1L72.39,94l-9.08,6.74ZM32.4,104.69l15.16,8.69,14.7-13.93,9.07-6.74,3.13-3.92-14.9-8.43-.2.06L39.78,91.73a16.38,16.38,0,0,0-7.4,12.82A.52.52,0,0,0,32.4,104.69Z"/></g><g id="_Group_49" data-name="&lt;Group&gt;"><path id="_Path_174" data-name="&lt;Path&gt;" class="cls-19" d="M47.34,113.51h0A17.26,17.26,0,0,1,55.15,100L74.74,88.68c.8-.46,1.46-.09,1.46.84v7.34a3.22,3.22,0,0,1-1.46,2.52l-25.94,15C48,114.82,47.34,114.44,47.34,113.51Z"/><path id="_Compound_Path_25" data-name="&lt;Compound Path&gt;" class="cls-2" d="M48.14,115.37a1.55,1.55,0,0,1-.78-.2,1.82,1.82,0,0,1-.83-1.65c0-5.23,3.69-11.62,8.22-14.23L74.33,88A1.69,1.69,0,0,1,77,89.52v7.34a4,4,0,0,1-1.86,3.23l-25.94,15A2.13,2.13,0,0,1,48.14,115.37ZM75.35,89.29s-.09,0-.2.1L55.56,100.69a16.39,16.39,0,0,0-7.4,12.82.65.65,0,0,0,0,.23s.09,0,.2-.1l25.94-15a2.44,2.44,0,0,0,1-1.82V89.52A.65.65,0,0,0,75.35,89.29Z"/></g></g></g></g><path id="_Path_175" data-name="&lt;Path&gt;" class="cls-19" d="M97.5,78.37s8.19-.06,8.19,9.48.75,13.32.75,13.32a29.21,29.21,0,0,1-.75,3.48c-.27.6-3.59,1.87-3.59,1.87l-3.2-1.39-1.2-3Z"/><path id="_Path_176" data-name="&lt;Path&gt;" class="cls-19" d="M149.94,54s-.43-6.73,13.31-14.85-.81,1.92-.81,1.92l-3.2,4.92-1.3,5.47v12L157.75,71l-2.3,3.19L152.4,74l-3.27-1.42V55.11Z"/></g><g id="_Group_50" data-name="&lt;Group&gt;"><g id="_Group_51" data-name="&lt;Group&gt;"><g id="_Group_52" data-name="&lt;Group&gt;"><g id="_Group_53" data-name="&lt;Group&gt;"><g id="_Group_54" data-name="&lt;Group&gt;"><path id="_Path_177" data-name="&lt;Path&gt;" class="cls-3" d="M272,41.74l-.31-.17-.13-.07h0c-1.65-.78-3.84-.59-6.25.8L244.87,54a3.85,3.85,0,0,0-1.74,3v8.81a1.25,1.25,0,0,0,.46,1.07l0,0,.08,0,14.17,7.73,16.19-15.6,9.42-7.15,2-2.79Z"/><path id="_Path_178" data-name="&lt;Path&gt;" class="cls-12" d="M273.87,59.07l7.95-6-10.22-5.59-.31-.17-.13-.07h0c-1.65-.78-3.84-.59-6.25.8l-20.4,11.64a3.83,3.83,0,0,0-1.55,2v4.09a1.25,1.25,0,0,0,.46,1.07l0,0,.08,0,14.17,7.73Z"/><path id="_Compound_Path_26" data-name="&lt;Compound Path&gt;" class="cls-2" d="M258,75.66l-15-8.24a2,2,0,0,1-.68-1.64V57a4.69,4.69,0,0,1,2.15-3.73l20.4-11.64c2.36-1.37,4.69-1.72,6.58-1l0,0,.43.22.45.25,14.27,7.8L284,52.55l-9.42,7.15Zm-13.86-9.41,13.59,7.41,15.76-15.18,9.4-7.14,1.37-1.95-12.94-7.08h0l-.14-.06c-1.48-.7-3.43-.42-5.49.77l-20.4,11.64A3,3,0,0,0,243.95,57v8.81c0,.24.06.37.12.41Z"/></g><g id="_Group_55" data-name="&lt;Group&gt;"><path id="_Path_179" data-name="&lt;Path&gt;" class="cls-19" d="M288.77,55.47h0c0-6-4.18-8.41-9.33-5.44L259,61.67a3.85,3.85,0,0,0-1.74,3V73.5c0,1.11.78,1.57,1.74,1l28-16A3.85,3.85,0,0,0,288.77,55.47Z"/><path id="_Compound_Path_27" data-name="&lt;Compound Path&gt;" class="cls-2" d="M258.26,75.57a1.71,1.71,0,0,1-.86-.22,2,2,0,0,1-.92-1.84V64.7A4.69,4.69,0,0,1,258.63,61L279,49.32c2.74-1.58,5.36-1.82,7.39-.65s3.15,3.59,3.15,6.79a4.69,4.69,0,0,1-2.15,3.73l-28,16A2.38,2.38,0,0,1,258.26,75.57Zm25.33-26a7.66,7.66,0,0,0-3.74,1.16L259.44,62.38a3,3,0,0,0-1.33,2.31V73.5c0,.3.09.42.11.43a.61.61,0,0,0,.41-.12l28-16A3.05,3.05,0,0,0,288,55.47c0-2.6-.83-4.51-2.34-5.38A4,4,0,0,0,283.59,49.57Z"/></g></g><g id="_Group_56" data-name="&lt;Group&gt;"><g id="_Group_57" data-name="&lt;Group&gt;"><path id="_Path_180" data-name="&lt;Path&gt;" class="cls-3" d="M222.82,114.42h0a4.4,4.4,0,0,1-4.4-4.4V91.76c0-7.65,5.22-16.65,11.88-20.5l16-9.16a4.4,4.4,0,0,1,6,1.66h0a4.4,4.4,0,0,1-1.65,6l-16,9.14c-4,2.28-7.45,8.3-7.45,12.86V110A4.4,4.4,0,0,1,222.82,114.42Z"/><path id="_Path_181" data-name="&lt;Path&gt;" class="cls-12" d="M234.57,78.53l16-9.14a4.37,4.37,0,0,0,1.69-1.74l0-.07a4.4,4.4,0,0,0-6-1.66l-16,9.16c-6.66,3.84-11.88,12.85-11.88,20.5v14.06a4.4,4.4,0,0,0,4.4,4.4h0a4.4,4.4,0,0,0,4.4-4.4V91.38C227.12,86.82,230.62,80.81,234.57,78.53Z"/><path id="_Compound_Path_28" data-name="&lt;Compound Path&gt;" class="cls-2" d="M222.82,115.23a5.22,5.22,0,0,1-5.22-5.22V91.76c0-7.91,5.39-17.23,12.28-21.2l16-9.16a5.22,5.22,0,1,1,5.15,9.07l-16,9.14c-3.68,2.13-7,7.92-7,12.15V110A5.22,5.22,0,0,1,222.82,115.23Zm25.66-52.89a3.56,3.56,0,0,0-1.77.47L230.7,72c-6.43,3.71-11.47,12.41-11.47,19.79V110a3.59,3.59,0,0,0,3.59,3.59h0a3.59,3.59,0,0,0,3.59-3.59V91.76c0-4.81,3.67-11.14,7.86-13.56l16-9.14a3.59,3.59,0,0,0-1.77-6.71Z"/></g></g></g><g id="_Group_58" data-name="&lt;Group&gt;"><g id="_Group_59" data-name="&lt;Group&gt;"><g id="_Group_60" data-name="&lt;Group&gt;"><path id="_Path_182" data-name="&lt;Path&gt;" class="cls-3" d="M171.4,146.75h0a4.4,4.4,0,0,1-4.4-4.4V121.72c0-1.71-.48-2.33-.61-2.41s-.91-.18-2.39.67l-22.83,13.49a4.4,4.4,0,0,1-6-1.57h0a4.4,4.4,0,0,1,1.57-6l22.85-13.5c4-2.28,8-2.53,11.23-.69s5,5.5,5,10v20.63A4.4,4.4,0,0,1,171.4,146.75Z"/><path id="_Path_183" data-name="&lt;Path&gt;" class="cls-12" d="M170.74,115.64c-3.19-1.84-7.27-1.59-11.23.69l-22.85,13.5a4.37,4.37,0,0,0-1.69,1.81,4.29,4.29,0,0,0,.21.46,4.4,4.4,0,0,0,6,1.57L164,120.18c1.48-.86,2.26-.75,2.39-.67s.61.7.61,2.41v20.63a4.4,4.4,0,0,0,8.72.88V125.67C175.76,121.14,173.93,117.48,170.74,115.64Z"/><path id="_Compound_Path_29" data-name="&lt;Compound Path&gt;" class="cls-2" d="M171.4,147.56a5.22,5.22,0,0,1-5.22-5.22V121.72a4.37,4.37,0,0,0-.25-1.64,4.36,4.36,0,0,0-1.54.61l-22.82,13.48a5.22,5.22,0,1,1-5.28-9l22.85-13.5c4.22-2.43,8.6-2.68,12-.69s5.42,5.9,5.42,10.74v20.63A5.22,5.22,0,0,1,171.4,147.56Zm-5.33-29.12a1.45,1.45,0,0,1,.73.16c.49.28,1,1.25,1,3.11v20.63a3.59,3.59,0,0,0,7.18,0V121.72c0-4.24-1.68-7.64-4.61-9.33s-6.72-1.44-10.41.69l-22.85,13.5a3.59,3.59,0,1,0,3.63,6.19l22.83-13.48A5.23,5.23,0,0,1,166.06,118.44Z"/></g></g><g id="_Group_61" data-name="&lt;Group&gt;"><g id="_Group_62" data-name="&lt;Group&gt;"><path id="_Path_184" data-name="&lt;Path&gt;" class="cls-3" d="M129.46,120a.69.69,0,0,0-.44-.25l-.06,0a2.17,2.17,0,0,0-.7.19l-19.59,11.31a17.26,17.26,0,0,0-7.81,13.53,1.11,1.11,0,0,0,.26.75h0L117,154.63l15.14-14.35,9.08-6.74,3.5-4.39a.4.4,0,0,0-.12-.59Z"/><path id="_Path_185" data-name="&lt;Path&gt;" class="cls-20" d="M128.76,125.12l-.06,0a2.17,2.17,0,0,0-.7.19l-19.59,11.31a17.21,17.21,0,0,0-7,9l15.37,8.8L132,140l9.08-6.74.7-.88-12.55-7.06A.69.69,0,0,0,128.76,125.12Z"/><path id="_Compound_Path_30" data-name="&lt;Compound Path&gt;" class="cls-2" d="M117.09,155.63l-16.59-9.56a1.91,1.91,0,0,1-.46-1.28c0-5.23,3.69-11.62,8.22-14.23l19.59-11.31a2.82,2.82,0,0,1,1-.29l.25,0,.17.09a1.49,1.49,0,0,1,.66.37l15,8.45a1.22,1.22,0,0,1,.6.82,1.21,1.21,0,0,1-.24,1l-3.65,4.53-9.08,6.74Zm-15.41-10.7,15.16,8.69,14.7-13.93,9.07-6.74,3.13-3.92-14.9-8.43-.2.06L109.07,132a16.38,16.38,0,0,0-7.4,12.82A.52.52,0,0,0,101.69,144.93Z"/></g><g id="_Group_63" data-name="&lt;Group&gt;"><path id="_Path_186" data-name="&lt;Path&gt;" class="cls-19" d="M116.63,153.75h0a17.26,17.26,0,0,1,7.81-13.53L144,128.92c.8-.46,1.46-.09,1.46.84v7.34a3.22,3.22,0,0,1-1.46,2.52l-25.94,15C117.28,155.06,116.63,154.68,116.63,153.75Z"/><path id="_Compound_Path_31" data-name="&lt;Compound Path&gt;" class="cls-2" d="M117.43,155.61a1.55,1.55,0,0,1-.78-.2,1.82,1.82,0,0,1-.83-1.65c0-5.23,3.69-11.62,8.22-14.23l19.59-11.31a1.69,1.69,0,0,1,2.68,1.55v7.34a4,4,0,0,1-1.86,3.23l-25.94,15A2.13,2.13,0,0,1,117.43,155.61Zm27.21-26.08s-.09,0-.2.1l-19.59,11.31a16.39,16.39,0,0,0-7.4,12.82.65.65,0,0,0,0,.23s.09,0,.2-.1l25.94-15a2.44,2.44,0,0,0,1-1.82v-7.34A.65.65,0,0,0,144.64,129.53Z"/></g></g></g></g><path id="_Path_187" data-name="&lt;Path&gt;" class="cls-19" d="M166.79,118.61s8.19-.06,8.19,9.48.75,13.32.75,13.32a29.19,29.19,0,0,1-.75,3.48c-.27.6-3.59,1.87-3.59,1.87l-3.2-1.39-1.2-3Z"/><path id="_Path_188" data-name="&lt;Path&gt;" class="cls-19" d="M219.23,94.29s-.43-6.73,13.31-14.85-.81,1.92-.81,1.92l-3.2,4.92-1.3,5.47v12l-.18,7.51-2.3,3.19-3.06-.2-3.27-1.42V95.35Z"/></g><g id="_Group_64" data-name="&lt;Group&gt;"><g id="_Group_65" data-name="&lt;Group&gt;"><g id="_Group_66" data-name="&lt;Group&gt;"><g id="_Group_67" data-name="&lt;Group&gt;"><g id="_Group_68" data-name="&lt;Group&gt;"><path id="_Path_189" data-name="&lt;Path&gt;" class="cls-3" d="M341.26,81.46l-.31-.17-.13-.07h0c-1.65-.78-3.84-.59-6.25.8l-20.4,11.64a3.85,3.85,0,0,0-1.74,3v8.81a1.25,1.25,0,0,0,.46,1.07l0,0,.08,0,14.17,7.73,16.19-15.6,9.42-7.15,2-2.79Z"/><path id="_Path_190" data-name="&lt;Path&gt;" class="cls-12" d="M343.16,98.78l7.95-6-10.22-5.59-.31-.17-.13-.07h0c-1.65-.78-3.84-.59-6.25.8l-20.4,11.64a3.83,3.83,0,0,0-1.55,2v4.09a1.25,1.25,0,0,0,.46,1.07l0,0,.08,0L327,114.38Z"/><path id="_Compound_Path_32" data-name="&lt;Compound Path&gt;" class="cls-2" d="M327.29,115.37l-15-8.24a2,2,0,0,1-.68-1.64V96.69A4.69,4.69,0,0,1,313.76,93l20.4-11.64c2.36-1.37,4.69-1.72,6.58-1l0,0,.42.22.45.25,14.27,7.8-2.67,3.72-9.43,7.15ZM313.43,106,327,113.37l15.76-15.18,9.4-7.14,1.37-1.95L340.61,82h0l-.14-.06c-1.48-.7-3.43-.42-5.49.77l-20.4,11.64a3,3,0,0,0-1.33,2.31v8.81c0,.24.06.37.12.41Z"/></g><g id="_Group_69" data-name="&lt;Group&gt;"><path id="_Path_191" data-name="&lt;Path&gt;" class="cls-19" d="M358.06,95.18h0c0-6-4.18-8.41-9.33-5.44l-20.4,11.64a3.85,3.85,0,0,0-1.74,3v8.81c0,1.11.78,1.57,1.74,1l28-16A3.85,3.85,0,0,0,358.06,95.18Z"/><path id="_Compound_Path_33" data-name="&lt;Compound Path&gt;" class="cls-2" d="M327.55,115.28a1.71,1.71,0,0,1-.86-.22,2,2,0,0,1-.92-1.84v-8.81a4.69,4.69,0,0,1,2.15-3.73L348.33,89c2.74-1.58,5.36-1.82,7.39-.65s3.15,3.59,3.15,6.79a4.69,4.69,0,0,1-2.15,3.73l-28,16A2.38,2.38,0,0,1,327.55,115.28Zm25.33-26a7.65,7.65,0,0,0-3.74,1.16L328.73,102.1a3,3,0,0,0-1.33,2.31v8.81c0,.3.09.42.11.43a.61.61,0,0,0,.41-.12l28-16a3.05,3.05,0,0,0,1.33-2.32c0-2.6-.83-4.51-2.34-5.38A4,4,0,0,0,352.88,89.29Z"/></g></g><g id="_Group_70" data-name="&lt;Group&gt;"><g id="_Group_71" data-name="&lt;Group&gt;"><path id="_Path_192" data-name="&lt;Path&gt;" class="cls-3" d="M292.11,154.13h0a4.4,4.4,0,0,1-4.4-4.4V131.47c0-7.65,5.22-16.65,11.88-20.5l16-9.16a4.4,4.4,0,0,1,6,1.66h0a4.4,4.4,0,0,1-1.65,6l-16,9.14c-4,2.28-7.45,8.3-7.45,12.86v18.25A4.4,4.4,0,0,1,292.11,154.13Z"/><path id="_Path_193" data-name="&lt;Path&gt;" class="cls-12" d="M303.86,118.24l16-9.14a4.37,4.37,0,0,0,1.69-1.74l0-.07a4.4,4.4,0,0,0-6-1.66l-16,9.16c-6.66,3.84-11.88,12.85-11.88,20.5v14.06a4.4,4.4,0,0,0,4.4,4.4h0a4.4,4.4,0,0,0,4.4-4.4V131.09C296.41,126.54,299.91,120.52,303.86,118.24Z"/><path id="_Compound_Path_34" data-name="&lt;Compound Path&gt;" class="cls-2" d="M292.11,154.94a5.22,5.22,0,0,1-5.22-5.22V131.47c0-7.91,5.39-17.23,12.28-21.2l16-9.16a5.22,5.22,0,1,1,5.15,9.07l-16,9.14c-3.68,2.13-7,7.92-7,12.15v18.25A5.22,5.22,0,0,1,292.11,154.94Zm25.66-52.89a3.56,3.56,0,0,0-1.77.47l-16,9.16c-6.43,3.71-11.47,12.41-11.47,19.79v18.25a3.59,3.59,0,0,0,3.59,3.59h0a3.59,3.59,0,0,0,3.59-3.59V131.47c0-4.81,3.67-11.14,7.86-13.56l16-9.14a3.59,3.59,0,0,0-1.77-6.71Z"/></g></g></g><g id="_Group_72" data-name="&lt;Group&gt;"><g id="_Group_73" data-name="&lt;Group&gt;"><g id="_Group_74" data-name="&lt;Group&gt;"><path id="_Path_194" data-name="&lt;Path&gt;" class="cls-3" d="M240.69,186.46h0a4.4,4.4,0,0,1-4.4-4.4V161.43c0-1.71-.48-2.33-.61-2.41s-.91-.18-2.39.67l-22.83,13.49a4.4,4.4,0,0,1-6-1.57h0a4.4,4.4,0,0,1,1.57-6l22.85-13.5c4-2.28,8-2.53,11.23-.69s5,5.5,5,10v20.63A4.4,4.4,0,0,1,240.69,186.46Z"/><path id="_Path_195" data-name="&lt;Path&gt;" class="cls-12" d="M240,155.35c-3.19-1.84-7.27-1.59-11.23.69L206,169.54a4.37,4.37,0,0,0-1.69,1.81,4.31,4.31,0,0,0,.21.46,4.4,4.4,0,0,0,6,1.57l22.83-13.49c1.48-.86,2.26-.75,2.39-.67s.61.7.61,2.41v20.63a4.4,4.4,0,0,0,8.72.88V165.39C245.05,160.85,243.22,157.19,240,155.35Z"/><path id="_Compound_Path_35" data-name="&lt;Compound Path&gt;" class="cls-2" d="M240.69,187.28a5.22,5.22,0,0,1-5.22-5.22V161.43a4.37,4.37,0,0,0-.25-1.64,4.36,4.36,0,0,0-1.54.61l-22.82,13.48a5.22,5.22,0,1,1-5.28-9l22.85-13.5c4.21-2.43,8.61-2.68,12-.69s5.42,5.9,5.42,10.74v20.63A5.22,5.22,0,0,1,240.69,187.28Zm-5.33-29.12a1.45,1.45,0,0,1,.73.16c.49.28,1,1.25,1,3.11v20.63a3.59,3.59,0,0,0,7.18,0V161.43c0-4.24-1.68-7.64-4.61-9.33s-6.72-1.44-10.41.69l-22.85,13.5a3.59,3.59,0,1,0,3.63,6.19L232.87,159A5.23,5.23,0,0,1,235.36,158.16Z"/></g></g><g id="_Group_75" data-name="&lt;Group&gt;"><g id="_Group_76" data-name="&lt;Group&gt;"><path id="_Path_196" data-name="&lt;Path&gt;" class="cls-3" d="M198.75,159.76a.69.69,0,0,0-.44-.25l-.06,0a2.17,2.17,0,0,0-.7.19L178,171a17.26,17.26,0,0,0-7.81,13.53,1.11,1.11,0,0,0,.26.75h0l15.86,9.08L201.41,180l9.08-6.74,3.5-4.39a.4.4,0,0,0-.12-.59Z"/><path id="_Path_197" data-name="&lt;Path&gt;" class="cls-20" d="M198.05,164.83l-.06,0a2.17,2.17,0,0,0-.7.19L177.7,176.3a17.21,17.21,0,0,0-7,9l15.37,8.8,15.14-14.35,9.08-6.74.7-.88-12.55-7.06A.69.69,0,0,0,198.05,164.83Z"/><path id="_Compound_Path_36" data-name="&lt;Compound Path&gt;" class="cls-2" d="M186.39,195.35l-16.59-9.56a1.91,1.91,0,0,1-.46-1.28c0-5.23,3.69-11.62,8.22-14.23L197.14,159a2.82,2.82,0,0,1,1-.29l.25,0,.17.09a1.48,1.48,0,0,1,.66.37l15,8.45a1.21,1.21,0,0,1,.35,1.81L211,173.91l-9.08,6.74ZM171,184.65l15.16,8.69,14.7-13.93,9.07-6.74,3.13-3.92-14.9-8.43-.2.06-19.59,11.31A16.38,16.38,0,0,0,171,184.5.52.52,0,0,0,171,184.65Z"/></g><g id="_Group_77" data-name="&lt;Group&gt;"><path id="_Path_198" data-name="&lt;Path&gt;" class="cls-19" d="M185.92,193.47h0a17.26,17.26,0,0,1,7.81-13.53l19.59-11.31c.8-.46,1.46-.09,1.46.84v7.34a3.22,3.22,0,0,1-1.46,2.52l-25.94,15C186.58,194.77,185.92,194.4,185.92,193.47Z"/><path id="_Compound_Path_37" data-name="&lt;Compound Path&gt;" class="cls-2" d="M186.73,195.32a1.55,1.55,0,0,1-.78-.2,1.82,1.82,0,0,1-.83-1.65c0-5.23,3.69-11.62,8.22-14.23l19.59-11.31a1.69,1.69,0,0,1,2.68,1.55v7.34a4,4,0,0,1-1.86,3.23l-25.94,15A2.13,2.13,0,0,1,186.73,195.32Zm27.21-26.08s-.09,0-.2.1l-19.59,11.31a16.39,16.39,0,0,0-7.4,12.82.65.65,0,0,0,0,.23s.09,0,.2-.1l25.94-15a2.44,2.44,0,0,0,1-1.82v-7.34A.65.65,0,0,0,213.93,169.24Z"/></g></g></g></g><path id="_Path_199" data-name="&lt;Path&gt;" class="cls-19" d="M236.09,158.32s8.19-.06,8.19,9.48.75,13.32.75,13.32a29.19,29.19,0,0,1-.75,3.48c-.27.6-3.59,1.87-3.59,1.87l-3.2-1.39-1.2-3Z"/><path id="_Path_200" data-name="&lt;Path&gt;" class="cls-19" d="M288.52,134s-.43-6.73,13.31-14.85-.81,1.92-.81,1.92l-3.2,4.92-1.3,5.47v12l-.18,7.51-2.3,3.19-3.06-.2-3.27-1.42V135.06Z"/></g><g id="_Group_78" data-name="&lt;Group&gt;"><polygon id="_Path_201" data-name="&lt;Path&gt;" class="cls-3" points="97.86 88.72 96.7 89.29 96.7 83.09 97.86 82.52 97.86 88.72"/></g><g id="_Group_79" data-name="&lt;Group&gt;"><polygon id="_Path_202" data-name="&lt;Path&gt;" class="cls-3" points="167.38 128.96 166.21 129.53 166.21 123.33 167.38 122.76 167.38 128.96"/></g><g id="_Group_80" data-name="&lt;Group&gt;"><polygon id="_Path_203" data-name="&lt;Path&gt;" class="cls-3" points="236.47 169.82 235.31 170.39 235.31 164.19 236.47 163.62 236.47 169.82"/></g><g id="_Group_81" data-name="&lt;Group&gt;"><polygon id="_Path_204" data-name="&lt;Path&gt;" class="cls-3" points="301.03 294.59 299.87 295.16 299.87 288.39 301.03 287.82 301.03 294.59"/></g><g id="_Group_82" data-name="&lt;Group&gt;"><polygon id="_Path_205" data-name="&lt;Path&gt;" class="cls-3" points="301.03 374.99 299.87 375.56 299.87 368.79 301.03 368.22 301.03 374.99"/></g><g id="_Group_83" data-name="&lt;Group&gt;"><g id="_4" data-name="4"><g id="_Group_84" data-name="&lt;Group&gt;"><path id="_Path_206" data-name="&lt;Path&gt;" class="cls-3" d="M220.08,386.21l1.06,9.38c0,2.26,4.06,4.34,8.13,4.34s8.27-2.07,8.27-4.33l.92-9.39Z"/><path id="_Compound_Path_38" data-name="&lt;Compound Path&gt;" class="cls-19" d="M229.27,400.38c-4.06,0-8.59-2.05-8.59-4.8l-1.11-9.84H239l-1,9.89C238,398.29,233.3,400.38,229.27,400.38Zm-8.67-13.72,1,8.87c0,2,3.87,3.93,7.67,3.93s7.81-2,7.81-3.87l.87-8.93Z"/></g><g id="_Group_85" data-name="&lt;Group&gt;"><path id="_Path_207" data-name="&lt;Path&gt;" class="cls-3" d="M239.66,378.47l-4.8.11a16.92,16.92,0,0,0-5.59-.91,16.43,16.43,0,0,0-6.27,1.17l-4.17.09v4.53c0,3.2,4.67,5.79,10.43,5.79s10.43-2.59,10.43-5.79Z"/><path id="_Compound_Path_39" data-name="&lt;Compound Path&gt;" class="cls-19" d="M229.26,389.71c-6.11,0-10.89-2.75-10.89-6.25v-5l4.53-.1a16.93,16.93,0,0,1,6.36-1.17,17.46,17.46,0,0,1,5.67.91l4.25-.09a.92.92,0,0,1,.94.91l0,4.53C240.16,387,235.37,389.71,229.26,389.71Zm-10-10.33v4.08c0,2.94,4.47,5.33,10,5.33s10-2.39,10-5.33l0-4.52-4.42.1-.08,0a16.49,16.49,0,0,0-5.44-.88,15.92,15.92,0,0,0-6.09,1.13l-.17,0Z"/></g><g id="_Group_86" data-name="&lt;Group&gt;"><ellipse id="_Path_208" data-name="&lt;Path&gt;" class="cls-3" cx="229.26" cy="378.94" rx="10.43" ry="5.43"/><path id="_Path_209" data-name="&lt;Path&gt;" class="cls-12" d="M229.27,379.95a15,15,0,0,0-8.39,2.21,17,17,0,0,0,16.78,0A15,15,0,0,0,229.27,379.95Z"/><path id="_Compound_Path_40" data-name="&lt;Compound Path&gt;" class="cls-19" d="M229.26,384.83c-6.11,0-10.89-2.59-10.89-5.89s4.78-5.89,10.89-5.89,10.89,2.59,10.89,5.89S235.37,384.83,229.26,384.83Zm0-10.86c-5.41,0-10,2.28-10,5s4.57,5,10,5,10-2.27,10-5S234.67,374,229.26,374Z"/></g><g id="_Group_87" data-name="&lt;Group&gt;"><path id="_Path_210" data-name="&lt;Path&gt;" class="cls-21" d="M229.26,377.83c4.31,0,8,1.39,9.6,3.36a3.43,3.43,0,0,0,.83-2.16c0-3.05-4.67-5.52-10.43-5.52S218.83,376,218.83,379a3.44,3.44,0,0,0,.83,2.16C221.25,379.22,225,377.83,229.26,377.83Z"/><path id="_Compound_Path_41" data-name="&lt;Compound Path&gt;" class="cls-19" d="M219.66,381.93l-.36-.45a3.86,3.86,0,0,1-.93-2.45c0-3.36,4.78-6,10.89-6s10.89,2.63,10.89,6a3.87,3.87,0,0,1-.93,2.45l-.36.45-.36-.45c-1.56-1.94-5.19-3.19-9.25-3.19s-7.69,1.25-9.25,3.19Zm9.6-4.56c4,0,7.68,1.2,9.56,3.09a2.77,2.77,0,0,0,.41-1.42c0-2.75-4.57-5.06-10-5.06s-10,2.32-10,5.06a2.76,2.76,0,0,0,.41,1.42C221.59,378.57,225.25,377.37,229.26,377.37Z"/></g><g id="_Group_88" data-name="&lt;Group&gt;"><path id="_Compound_Path_42" data-name="&lt;Compound Path&gt;" class="cls-3" d="M229.26,373.14c-5.76,0-10.43,2.59-10.43,5.79s4.67,5.79,10.43,5.79,10.43-2.59,10.43-5.79S235,373.14,229.26,373.14Zm0,10.32c-4.82,0-8.73-2.1-8.73-4.69s3.91-4.69,8.73-4.69,8.73,2.1,8.73,4.69S234.09,383.46,229.26,383.46Z"/><path id="_Compound_Path_43" data-name="&lt;Compound Path&gt;" class="cls-20" d="M229.27,374.27c-5.76,0-10.43,2.59-10.43,5.79s4.67,5.79,10.43,5.79,10.43-2.59,10.43-5.79S235,374.27,229.27,374.27Zm0,10.32c-4.82,0-8.73-2.1-8.73-4.69s3.91-4.69,8.73-4.69,8.73,2.1,8.73,4.69S234.09,384.59,229.27,384.59Z"/><path id="_Compound_Path_44" data-name="&lt;Compound Path&gt;" class="cls-19" d="M229.26,385.18c-6.11,0-10.89-2.75-10.89-6.25s4.78-6.25,10.89-6.25,10.89,2.75,10.89,6.25S235.37,385.18,229.26,385.18Zm0-11.58c-5.5,0-10,2.39-10,5.33s4.47,5.33,10,5.33,10-2.39,10-5.33S234.76,373.6,229.26,373.6Zm0,10.32c-5.15,0-9.19-2.26-9.19-5.15s4-5.15,9.19-5.15,9.19,2.26,9.19,5.15S234.42,383.92,229.26,383.92Zm0-9.38c-4.48,0-8.27,1.94-8.27,4.23s3.79,4.23,8.27,4.23,8.27-1.94,8.27-4.23S233.75,374.54,229.26,374.54Z"/></g><path id="_Path_211" data-name="&lt;Path&gt;" class="cls-19" d="M235.93,384.31l-.27.37c-.07.1-7.66,10.38-14.63,6.41a6.11,6.11,0,0,1-3.16-3.9,9.63,9.63,0,0,1,1.34-6.92l.07-.11.11-3.45-.9,1.33c-.85,1.24-3.53,5.61-2.58,9.61a8,8,0,0,0,4.12,5.18,8.84,8.84,0,0,0,4.42,1.2c6.8,0,12.58-7.84,12.82-8.17l.27-.37Z"/></g><polygon id="_Path_212" data-name="&lt;Path&gt;" class="cls-19" points="231.3 384.52 231.3 389.25 236.97 387.48 239.7 385.29 239.89 381.93 239.7 380.06 237.66 382.37 234.79 383.86 231.3 384.52"/><polygon id="_Path_213" data-name="&lt;Path&gt;" class="cls-19" points="231.3 389.61 230.68 399.85 234.13 399.03 237.01 397.14 237.62 394.73 238.23 386.46 235.59 388.06 231.89 389.07 231.3 389.61"/><path id="_Path_214" data-name="&lt;Path&gt;" class="cls-22" d="M236.36,385.3h0a1,1,0,0,0-1.36.16,27,27,0,0,1-3,3.06l-.11,2.67a27.47,27.47,0,0,0,4.63-4.44A1,1,0,0,0,236.36,385.3Z"/></g></g></g><g id="_Group_89" data-name="&lt;Group&gt;"><g id="_Group_90" data-name="&lt;Group&gt;"><path id="_Path_215" data-name="&lt;Path&gt;" class="cls-2" d="M262.81,415.5a.42.42,0,0,1,0,.8,1.52,1.52,0,0,1-1.38,0,.42.42,0,0,1,0-.8A1.52,1.52,0,0,1,262.81,415.5Z"/><path id="_Path_216" data-name="&lt;Path&gt;" class="cls-2" d="M266.41,413.42a.42.42,0,0,1,0,.8,1.52,1.52,0,0,1-1.38,0,.42.42,0,0,1,0-.8A1.52,1.52,0,0,1,266.41,413.42Z"/><path id="_Path_217" data-name="&lt;Path&gt;" class="cls-2" d="M255.57,415.47a.42.42,0,0,1,0,.8,1.52,1.52,0,0,1-1.38,0,.42.42,0,0,1,0-.8A1.52,1.52,0,0,1,255.57,415.47Z"/><path id="_Path_218" data-name="&lt;Path&gt;" class="cls-2" d="M259.18,413.4a.42.42,0,0,1,0,.8,1.52,1.52,0,0,1-1.38,0,.42.42,0,0,1,0-.8A1.52,1.52,0,0,1,259.18,413.4Z"/><path id="_Path_219" data-name="&lt;Path&gt;" class="cls-2" d="M262.78,411.32a.42.42,0,0,1,0,.8,1.52,1.52,0,0,1-1.38,0,.42.42,0,0,1,0-.8A1.52,1.52,0,0,1,262.78,411.32Z"/><path id="_Path_220" data-name="&lt;Path&gt;" class="cls-2" d="M266.38,409.24a.42.42,0,0,1,0,.8,1.52,1.52,0,0,1-1.38,0,.42.42,0,0,1,0-.8A1.52,1.52,0,0,1,266.38,409.24Z"/><path id="_Path_221" data-name="&lt;Path&gt;" class="cls-2" d="M252,413.4a.42.42,0,0,1,0,.8,1.52,1.52,0,0,1-1.38,0,.42.42,0,0,1,0-.8A1.52,1.52,0,0,1,252,413.4Z"/><path id="_Path_222" data-name="&lt;Path&gt;" class="cls-2" d="M255.57,411.32a.42.42,0,0,1,0,.8,1.52,1.52,0,0,1-1.38,0,.42.42,0,0,1,0-.8A1.52,1.52,0,0,1,255.57,411.32Z"/><path id="_Path_223" data-name="&lt;Path&gt;" class="cls-2" d="M248.37,411.32a.42.42,0,0,1,0,.8,1.52,1.52,0,0,1-1.38,0,.42.42,0,0,1,0-.8A1.52,1.52,0,0,1,248.37,411.32Z"/><path id="_Path_224" data-name="&lt;Path&gt;" class="cls-2" d="M252,409.24a.42.42,0,0,1,0,.8,1.52,1.52,0,0,1-1.38,0,.42.42,0,0,1,0-.8A1.52,1.52,0,0,1,252,409.24Z"/><path id="_Path_225" data-name="&lt;Path&gt;" class="cls-2" d="M244.77,409.24a.42.42,0,0,1,0,.8,1.52,1.52,0,0,1-1.38,0,.42.42,0,0,1,0-.8A1.52,1.52,0,0,1,244.77,409.24Z"/><path id="_Path_226" data-name="&lt;Path&gt;" class="cls-2" d="M248.37,407.16a.42.42,0,0,1,0,.8,1.52,1.52,0,0,1-1.38,0,.42.42,0,0,1,0-.8A1.52,1.52,0,0,1,248.37,407.16Z"/><path id="_Path_227" data-name="&lt;Path&gt;" class="cls-2" d="M244.77,405.08a.42.42,0,0,1,0,.8,1.52,1.52,0,0,1-1.38,0,.42.42,0,0,1,0-.8A1.52,1.52,0,0,1,244.77,405.08Z"/></g><g id="_Group_91" data-name="&lt;Group&gt;"><g id="_Group_92" data-name="&lt;Group&gt;"><g id="_Group_93" data-name="&lt;Group&gt;"><g id="_Group_94" data-name="&lt;Group&gt;"><path id="_Path_228" data-name="&lt;Path&gt;" class="cls-3" d="M263.21,407.89l-3.89,2.46a1.75,1.75,0,0,1-1.57,0l-13.66-8c-.47-.26-.69-2.32-.29-2.56l4-.7a1.75,1.75,0,0,1,1.57,0l14,6.29C263.84,405.61,263.61,407.65,263.21,407.89Z"/><path id="_Compound_Path_45" data-name="&lt;Compound Path&gt;" class="cls-19" d="M258.59,410.92a2.19,2.19,0,0,1-1-.26l-13.67-8c-.65-.36-.69-1.95-.69-2,0-.66.12-1.06.4-1.22l.14-.05,4-.69a2.15,2.15,0,0,1,1.9.07L263.53,405c.33.18.48.57.49,1.2,0,.46-.09,1.71-.61,2l-3.89,2.46A1.84,1.84,0,0,1,258.59,410.92ZM244,400.1a3.52,3.52,0,0,0,.3,1.85l13.66,8a1.38,1.38,0,0,0,1.17,0l3.87-2.45a3,3,0,0,0,.16-1.89l-13.9-6.25a1.39,1.39,0,0,0-1.21-.06l-.14.05Z"/></g><g id="_Group_95" data-name="&lt;Group&gt;"><path id="_Path_229" data-name="&lt;Path&gt;" class="cls-3" d="M263.21,406l-3.89,2.46a1.75,1.75,0,0,1-1.57,0l-13.68-7.92c-.47-.26-.53-.67-.13-.91l3.89-2.46a1.75,1.75,0,0,1,1.57,0l13.68,7.92C263.55,405.37,263.61,405.77,263.21,406Z"/><path id="_Path_230" data-name="&lt;Path&gt;" class="cls-6" d="M259.31,408.48l2.7-1.71-12.61-7.31a1.75,1.75,0,0,0-1.57,0l-2.7,1.71,12.61,7.31A1.75,1.75,0,0,0,259.31,408.48Z"/><path id="_Compound_Path_46" data-name="&lt;Compound Path&gt;" class="cls-19" d="M258.59,409a2.19,2.19,0,0,1-1-.26l-13.68-7.92a1,1,0,0,1-.59-.84.86.86,0,0,1,.46-.75l3.88-2.46a2.13,2.13,0,0,1,2,0l13.68,7.93a1,1,0,0,1,.59.84.86.86,0,0,1-.45.74l-3.89,2.46A1.84,1.84,0,0,1,258.59,409Zm-10-11.67a1.05,1.05,0,0,0-.52.11l-4,2.53a.58.58,0,0,0,.19.16l13.68,7.93a1.37,1.37,0,0,0,1.17,0l3.89-2.46a.2.2,0,0,0,.08-.06.57.57,0,0,0-.19-.15l-13.68-7.93A1.39,1.39,0,0,0,248.55,397.38Z"/></g></g><polygon id="_Path_231" data-name="&lt;Path&gt;" class="cls-19" points="258.42 408.58 258.42 410.51 259.31 410.35 263.21 407.89 263.42 406.35 263.08 405.61 259.31 408.48 258.42 408.58"/></g><path id="_Path_232" data-name="&lt;Path&gt;" class="cls-19" d="M253.38,403.45h0a1.53,1.53,0,0,1-.86-2l26.3-66.75a1.53,1.53,0,0,1,2-.86h0a1.53,1.53,0,0,1,.86,2l-26.3,66.75A1.53,1.53,0,0,1,253.38,403.45Z"/></g></g></g></g></g></g></g></svg>