<?xml version="1.0" encoding="utf-8"?>
<!-- Generator: Adobe Illustrator 20.1.0, SVG Export Plug-In . SVG Version: 6.00 Build 0)  -->
<svg version="1.1" id="Layer_1" xmlns="http://www.w3.org/2000/svg" xmlns:xlink="http://www.w3.org/1999/xlink" x="0px" y="0px"
	 viewBox="0 0 279.5 462.9" style="enable-background:new 0 0 279.5 462.9;" xml:space="preserve">
<style type="text/css">
	.st0{fill:#16110D;}
	.st1{fill:#FEBD33;}
	.st2{fill:#FCEBCC;}
	.st3{fill:#130E0C;}
	.st4{fill:#FBEACC;}
	.st5{fill:#F7E6CC;}
	.st6{fill:#15100C;}
	.st7{fill:url(#_Path_129_1_);}
	.st8{fill:url(#_Path_130_1_);}
	.st9{fill:url(#_Path_131_1_);}
	.st10{fill:#F9E8CC;}
	.st11{fill:#F8E7CC;}
	.st12{fill:none;stroke:#16110D;stroke-width:0.93;stroke-miterlimit:10;}
	.st13{fill:#F6E5CC;}
	.st14{enable-background:new    ;}
	.st15{fill:url(#_Path_164_1_);}
	.st16{fill:url(#_Path_165_1_);}
	.st17{fill:url(#_Path_166_1_);}
	.st18{fill:#140F0C;}
	.st19{fill:#FAE9CC;}
	.st20{fill:#120D0C;}
	.st21{fill:#FDBC38;}
</style>
<title>Billboard Small 1</title>
<g>
	<g id="Layer_2">
		<g id="Work">
			<g id="Work_Home">
				<g id="illustrator">
					<g id="_Group_">
						<g id="_Group_2">
							<path id="_Path_" class="st0" d="M153.6,461.5c0.3,0.1,0.5,0.5,0.4,0.8c-0.1,0.2-0.2,0.3-0.4,0.4c-0.6,0.3-1.4,0.3-2,0
								c-0.3-0.1-0.5-0.5-0.4-0.8c0.1-0.2,0.2-0.3,0.4-0.4C152.3,461.2,153,461.2,153.6,461.5z"/>
							<path id="_Path_2" class="st0" d="M159,458.4c0.3,0.1,0.5,0.5,0.4,0.8c-0.1,0.2-0.2,0.3-0.4,0.4c-0.6,0.3-1.4,0.3-2,0
								c-0.3-0.1-0.5-0.5-0.4-0.8c0.1-0.2,0.2-0.3,0.4-0.4C157.6,458.1,158.4,458.1,159,458.4z"/>
							<path id="_Path_3" class="st0" d="M164.3,455.3c0.3,0.1,0.5,0.5,0.4,0.8c-0.1,0.2-0.2,0.3-0.4,0.4c-0.6,0.3-1.4,0.3-2,0
								c-0.3-0.1-0.5-0.5-0.4-0.8c0.1-0.2,0.2-0.3,0.4-0.4C162.9,455,163.7,455,164.3,455.3z"/>
							<path id="_Path_4" class="st0" d="M169.6,452.2c0.3,0.1,0.5,0.5,0.4,0.8c-0.1,0.2-0.2,0.3-0.4,0.4c-0.6,0.3-1.4,0.3-2,0
								c-0.3-0.1-0.5-0.5-0.4-0.8c0.1-0.2,0.2-0.3,0.4-0.4C168.3,451.9,169,451.9,169.6,452.2z"/>
							<path id="_Path_5" class="st0" d="M175,449.2c0.3,0.1,0.5,0.5,0.4,0.8c-0.1,0.2-0.2,0.3-0.4,0.4c-0.6,0.3-1.4,0.3-2,0
								c-0.3-0.1-0.5-0.5-0.4-0.8c0.1-0.2,0.2-0.3,0.4-0.4C173.6,448.9,174.4,448.9,175,449.2z"/>
							<path id="_Path_6" class="st0" d="M143,461.5c0.3,0.1,0.5,0.5,0.4,0.8c-0.1,0.2-0.2,0.3-0.4,0.4c-0.6,0.3-1.4,0.3-2,0
								c-0.3-0.1-0.5-0.5-0.4-0.8c0.1-0.2,0.2-0.3,0.4-0.4C141.6,461.2,142.4,461.2,143,461.5z"/>
							<path id="_Path_7" class="st0" d="M148.3,458.4c0.3,0.1,0.5,0.5,0.4,0.8c-0.1,0.2-0.2,0.3-0.4,0.4c-0.6,0.3-1.4,0.3-2,0
								c-0.3-0.1-0.5-0.5-0.4-0.8c0.1-0.2,0.2-0.3,0.4-0.4C146.9,458.1,147.7,458.1,148.3,458.4z"/>
							<path id="_Path_8" class="st0" d="M153.6,455.3c0.3,0.1,0.5,0.5,0.4,0.8c-0.1,0.2-0.2,0.3-0.4,0.4c-0.6,0.3-1.4,0.3-2,0
								c-0.3-0.1-0.5-0.5-0.4-0.8c0.1-0.2,0.2-0.3,0.4-0.4C152.3,455,153,455,153.6,455.3z"/>
							<path id="_Path_9" class="st0" d="M159,452.2c0.3,0.1,0.5,0.5,0.4,0.8c-0.1,0.2-0.2,0.3-0.4,0.4c-0.6,0.3-1.4,0.3-2,0
								c-0.3-0.1-0.5-0.5-0.4-0.8c0.1-0.2,0.2-0.3,0.4-0.4C157.6,451.9,158.4,451.9,159,452.2z"/>
							<path id="_Path_10" class="st0" d="M164.3,449.2c0.3,0.1,0.5,0.5,0.4,0.8c-0.1,0.2-0.2,0.3-0.4,0.4c-0.6,0.3-1.4,0.3-2,0
								c-0.3-0.1-0.5-0.5-0.4-0.8c0.1-0.2,0.2-0.3,0.4-0.4C162.9,448.9,163.7,448.9,164.3,449.2z"/>
							<path id="_Path_11" class="st0" d="M169.6,446.1c0.3,0.1,0.5,0.5,0.4,0.8c-0.1,0.2-0.2,0.3-0.4,0.4c-0.6,0.3-1.4,0.3-2,0
								c-0.3-0.1-0.5-0.5-0.4-0.8c0.1-0.2,0.2-0.3,0.4-0.4C168.3,445.8,169,445.8,169.6,446.1z"/>
							<path id="_Path_12" class="st0" d="M132.3,461.5c0.3,0.1,0.5,0.5,0.4,0.8c-0.1,0.2-0.2,0.3-0.4,0.4c-0.6,0.3-1.4,0.3-2,0
								c-0.3-0.1-0.5-0.5-0.4-0.8c0.1-0.2,0.2-0.3,0.4-0.4C130.9,461.2,131.7,461.2,132.3,461.5z"/>
							<path id="_Path_13" class="st0" d="M137.6,458.4c0.3,0.1,0.5,0.5,0.4,0.8c-0.1,0.2-0.2,0.3-0.4,0.4c-0.6,0.3-1.4,0.3-2,0
								c-0.3-0.1-0.5-0.5-0.4-0.8c0.1-0.2,0.2-0.3,0.4-0.4C136.3,458.1,137,458.1,137.6,458.4z"/>
							<path id="_Path_14" class="st0" d="M143,455.3c0.3,0.1,0.5,0.5,0.4,0.8c-0.1,0.2-0.2,0.3-0.4,0.4c-0.6,0.3-1.4,0.3-2,0
								c-0.3-0.1-0.5-0.5-0.4-0.8c0.1-0.2,0.2-0.3,0.4-0.4C141.6,455,142.4,455,143,455.3z"/>
							<path id="_Path_15" class="st0" d="M148.3,452.2c0.3,0.1,0.5,0.5,0.4,0.8c-0.1,0.2-0.2,0.3-0.4,0.4c-0.6,0.3-1.4,0.3-2,0
								c-0.3-0.1-0.5-0.5-0.4-0.8c0.1-0.2,0.2-0.3,0.4-0.4C146.9,451.9,147.7,451.9,148.3,452.2z"/>
							<path id="_Path_16" class="st0" d="M153.6,449.2c0.3,0.1,0.5,0.5,0.4,0.8c-0.1,0.2-0.2,0.3-0.4,0.4c-0.6,0.3-1.4,0.3-2,0
								c-0.3-0.1-0.5-0.5-0.4-0.8c0.1-0.2,0.2-0.3,0.4-0.4C152.3,448.9,153,448.9,153.6,449.2z"/>
							<path id="_Path_17" class="st0" d="M159,446.1c0.3,0.1,0.5,0.5,0.4,0.8c-0.1,0.2-0.2,0.3-0.4,0.4c-0.6,0.3-1.4,0.3-2,0
								c-0.3-0.1-0.5-0.5-0.4-0.8c0.1-0.2,0.2-0.3,0.4-0.4C157.6,445.8,158.4,445.8,159,446.1z"/>
							<path id="_Path_18" class="st0" d="M164.3,443c0.3,0.1,0.5,0.5,0.4,0.8c-0.1,0.2-0.2,0.3-0.4,0.4c-0.6,0.3-1.4,0.3-2,0
								c-0.3-0.1-0.5-0.5-0.4-0.8c0.1-0.2,0.2-0.3,0.4-0.4C162.9,442.7,163.7,442.7,164.3,443z"/>
							<path id="_Path_19" class="st0" d="M127,458.4c0.3,0.1,0.5,0.5,0.4,0.8c-0.1,0.2-0.2,0.3-0.4,0.4c-0.6,0.3-1.4,0.3-2,0
								c-0.3-0.1-0.5-0.5-0.4-0.8c0.1-0.2,0.2-0.3,0.4-0.4C125.6,458.1,126.4,458.1,127,458.4z"/>
							<path id="_Path_20" class="st0" d="M132.3,455.3c0.3,0.1,0.5,0.5,0.4,0.8c-0.1,0.2-0.2,0.3-0.4,0.4c-0.6,0.3-1.4,0.3-2,0
								c-0.3-0.1-0.5-0.5-0.4-0.8c0.1-0.2,0.2-0.3,0.4-0.4C130.9,455,131.7,455,132.3,455.3z"/>
							<path id="_Path_21" class="st0" d="M137.6,452.2c0.3,0.1,0.5,0.5,0.4,0.8c-0.1,0.2-0.2,0.3-0.4,0.4c-0.6,0.3-1.4,0.3-2,0
								c-0.3-0.1-0.5-0.5-0.4-0.8c0.1-0.2,0.2-0.3,0.4-0.4C136.3,451.9,137,451.9,137.6,452.2z"/>
							<path id="_Path_22" class="st0" d="M143,449.2c0.3,0.1,0.5,0.5,0.4,0.8c-0.1,0.2-0.2,0.3-0.4,0.4c-0.6,0.3-1.4,0.3-2,0
								c-0.3-0.1-0.5-0.5-0.4-0.8c0.1-0.2,0.2-0.3,0.4-0.4C141.6,448.9,142.4,448.9,143,449.2z"/>
							<path id="_Path_23" class="st0" d="M148.3,446.1c0.3,0.1,0.5,0.5,0.4,0.8c-0.1,0.2-0.2,0.3-0.4,0.4c-0.6,0.3-1.4,0.3-2,0
								c-0.3-0.1-0.5-0.5-0.4-0.8c0.1-0.2,0.2-0.3,0.4-0.4C146.9,445.8,147.7,445.8,148.3,446.1z"/>
							<path id="_Path_24" class="st0" d="M153.6,443c0.3,0.1,0.5,0.5,0.4,0.8c-0.1,0.2-0.2,0.3-0.4,0.4c-0.6,0.3-1.4,0.3-2,0
								c-0.3-0.1-0.5-0.5-0.4-0.8c0.1-0.2,0.2-0.3,0.4-0.4C152.3,442.7,153,442.7,153.6,443z"/>
							<path id="_Path_25" class="st0" d="M159,439.9c0.3,0.1,0.5,0.5,0.4,0.8c-0.1,0.2-0.2,0.3-0.4,0.4c-0.6,0.3-1.4,0.3-2,0
								c-0.3-0.1-0.5-0.5-0.4-0.8c0.1-0.2,0.2-0.3,0.4-0.4C157.6,439.6,158.4,439.6,159,439.9z"/>
							<path id="_Path_26" class="st0" d="M121.6,455.3c0.3,0.1,0.5,0.5,0.4,0.8c-0.1,0.2-0.2,0.3-0.4,0.4c-0.6,0.3-1.4,0.3-2,0
								c-0.3-0.1-0.5-0.5-0.4-0.8c0.1-0.2,0.2-0.3,0.4-0.4C120.2,455,120.9,455,121.6,455.3z"/>
							<path id="_Path_27" class="st0" d="M126.9,452.2c0.3,0.1,0.5,0.5,0.4,0.8c-0.1,0.2-0.2,0.3-0.4,0.4c-0.6,0.3-1.4,0.3-2,0
								c-0.3-0.1-0.5-0.5-0.4-0.8c0.1-0.2,0.2-0.3,0.4-0.4C125.5,451.9,126.3,451.9,126.9,452.2z"/>
							<path id="_Path_28" class="st0" d="M132.2,449.1c0.3,0.1,0.5,0.5,0.4,0.8c-0.1,0.2-0.2,0.3-0.4,0.4c-0.6,0.3-1.4,0.3-2,0
								c-0.3-0.1-0.5-0.5-0.4-0.8c0.1-0.2,0.2-0.3,0.4-0.4C130.9,448.8,131.6,448.8,132.2,449.1z"/>
							<path id="_Path_29" class="st0" d="M137.6,446.1c0.3,0.1,0.5,0.5,0.4,0.8c-0.1,0.2-0.2,0.3-0.4,0.4c-0.6,0.3-1.4,0.3-2,0
								c-0.3-0.1-0.5-0.5-0.4-0.8c0.1-0.2,0.2-0.3,0.4-0.4C136.2,445.7,136.9,445.7,137.6,446.1z"/>
							<path id="_Path_30" class="st0" d="M142.9,443c0.3,0.1,0.5,0.5,0.4,0.8c-0.1,0.2-0.2,0.3-0.4,0.4c-0.6,0.3-1.4,0.3-2,0
								c-0.3-0.1-0.5-0.5-0.4-0.8c0.1-0.2,0.2-0.3,0.4-0.4C141.5,442.7,142.3,442.7,142.9,443z"/>
							<path id="_Path_31" class="st0" d="M148.2,439.9c0.3,0.1,0.5,0.5,0.4,0.8c-0.1,0.2-0.2,0.3-0.4,0.4c-0.6,0.3-1.4,0.3-2,0
								c-0.3-0.1-0.5-0.5-0.4-0.8c0.1-0.2,0.2-0.3,0.4-0.4C146.9,439.6,147.6,439.6,148.2,439.9z"/>
							<path id="_Path_32" class="st0" d="M153.6,436.8c0.3,0.1,0.5,0.5,0.4,0.8c-0.1,0.2-0.2,0.3-0.4,0.4c-0.6,0.3-1.4,0.3-2,0
								c-0.3-0.1-0.5-0.5-0.4-0.8c0.1-0.2,0.2-0.3,0.4-0.4C152.2,436.5,152.9,436.5,153.6,436.8z"/>
							<path id="_Path_33" class="st0" d="M116.2,452.2c0.3,0.1,0.5,0.5,0.4,0.8c-0.1,0.2-0.2,0.3-0.4,0.4c-0.6,0.3-1.4,0.3-2,0
								c-0.3-0.1-0.5-0.5-0.4-0.8c0.1-0.2,0.2-0.3,0.4-0.4C114.9,451.9,115.6,451.9,116.2,452.2z"/>
							<path id="_Path_34" class="st0" d="M121.6,449.1c0.3,0.1,0.5,0.5,0.4,0.8c-0.1,0.2-0.2,0.3-0.4,0.4c-0.6,0.3-1.4,0.3-2,0
								c-0.3-0.1-0.5-0.5-0.4-0.8c0.1-0.2,0.2-0.3,0.4-0.4C120.2,448.8,120.9,448.8,121.6,449.1z"/>
							<path id="_Path_35" class="st0" d="M126.9,446.1c0.3,0.1,0.5,0.5,0.4,0.8c-0.1,0.2-0.2,0.3-0.4,0.4c-0.6,0.3-1.4,0.3-2,0
								c-0.3-0.1-0.5-0.5-0.4-0.8c0.1-0.2,0.2-0.3,0.4-0.4C125.5,445.7,126.3,445.7,126.9,446.1z"/>
							<path id="_Path_36" class="st0" d="M132.2,443c0.3,0.1,0.5,0.5,0.4,0.8c-0.1,0.2-0.2,0.3-0.4,0.4c-0.6,0.3-1.4,0.3-2,0
								c-0.3-0.1-0.5-0.5-0.4-0.8c0.1-0.2,0.2-0.3,0.4-0.4C130.9,442.7,131.6,442.7,132.2,443z"/>
							<path id="_Path_37" class="st0" d="M137.6,439.9c0.3,0.1,0.5,0.5,0.4,0.8c-0.1,0.2-0.2,0.3-0.4,0.4c-0.6,0.3-1.4,0.3-2,0
								c-0.3-0.1-0.5-0.5-0.4-0.8c0.1-0.2,0.2-0.3,0.4-0.4C136.2,439.6,136.9,439.6,137.6,439.9z"/>
							<path id="_Path_38" class="st0" d="M140.9,436.8c0.6-0.3,1.4-0.3,2,0c0.3,0.1,0.5,0.5,0.4,0.8c-0.1,0.2-0.2,0.3-0.4,0.4
								c-0.6,0.3-1.4,0.3-2,0c-0.3-0.1-0.5-0.5-0.4-0.8C140.5,437,140.7,436.9,140.9,436.8z"/>
							<path id="_Path_39" class="st0" d="M148.2,433.7c0.3,0.1,0.5,0.5,0.4,0.8c-0.1,0.2-0.2,0.3-0.4,0.4c-0.6,0.3-1.4,0.3-2,0
								C145.6,434.6,147.7,433.4,148.2,433.7z"/>
							<path id="_Path_40" class="st0" d="M110.9,449.1c0.3,0.1,0.5,0.5,0.4,0.8c-0.1,0.2-0.2,0.3-0.4,0.4c-0.6,0.3-1.4,0.3-2,0
								c-0.3-0.1-0.5-0.5-0.4-0.8c0.1-0.2,0.2-0.3,0.4-0.4C109.5,448.8,110.3,448.8,110.9,449.1z"/>
							<path id="_Path_41" class="st0" d="M116.2,446.1c0.3,0.1,0.5,0.5,0.4,0.8c-0.1,0.2-0.2,0.3-0.4,0.4c-0.6,0.3-1.4,0.3-2,0
								c-0.3-0.1-0.5-0.5-0.4-0.8c0.1-0.2,0.2-0.3,0.4-0.4C114.9,445.7,115.6,445.7,116.2,446.1z"/>
							<path id="_Path_42" class="st0" d="M121.6,443c0.3,0.1,0.5,0.5,0.4,0.8c-0.1,0.2-0.2,0.3-0.4,0.4c-0.6,0.3-1.4,0.3-2,0
								c-0.3-0.1-0.5-0.5-0.4-0.8c0.1-0.2,0.2-0.3,0.4-0.4C120.2,442.7,120.9,442.7,121.6,443z"/>
							<path id="_Path_43" class="st0" d="M126.9,439.9c0.3,0.1,0.5,0.5,0.4,0.8c-0.1,0.2-0.2,0.3-0.4,0.4c-0.6,0.3-1.4,0.3-2,0
								c-0.3-0.1-0.5-0.5-0.4-0.8c0.1-0.2,0.2-0.3,0.4-0.4C125.5,439.6,126.3,439.6,126.9,439.9z"/>
							<path id="_Path_44" class="st0" d="M105.6,446.1c0.3,0.1,0.5,0.5,0.4,0.8c-0.1,0.2-0.2,0.3-0.4,0.4c-0.6,0.3-1.4,0.3-2,0
								c-0.3-0.1-0.5-0.5-0.4-0.8c0.1-0.2,0.2-0.3,0.4-0.4C104.2,445.7,104.9,445.7,105.6,446.1z"/>
							<path id="_Path_45" class="st0" d="M110.9,443c0.3,0.1,0.5,0.5,0.4,0.8c-0.1,0.2-0.2,0.3-0.4,0.4c-0.6,0.3-1.4,0.3-2,0
								c-0.3-0.1-0.5-0.5-0.4-0.8c0.1-0.2,0.2-0.3,0.4-0.4C109.5,442.7,110.3,442.7,110.9,443z"/>
							<path id="_Path_46" class="st0" d="M116.2,439.9c0.3,0.1,0.5,0.5,0.4,0.8c-0.1,0.2-0.2,0.3-0.4,0.4c-0.6,0.3-1.4,0.3-2,0
								c-0.3-0.1-0.5-0.5-0.4-0.8c0.1-0.2,0.2-0.3,0.4-0.4C114.9,439.6,115.6,439.6,116.2,439.9z"/>
							<path id="_Path_47" class="st0" d="M121.6,438c-0.6,0.3-1.4,0.3-2,0c-0.3-0.1-0.5-0.5-0.4-0.8c0.1-0.2,0.2-0.3,0.4-0.4
								C120.1,436.5,122.1,437.7,121.6,438z"/>
							<path id="_Path_48" class="st0" d="M100.2,443c0.3,0.1,0.5,0.5,0.4,0.8c-0.1,0.2-0.2,0.3-0.4,0.4c-0.6,0.3-1.4,0.3-2,0
								c-0.3-0.1-0.5-0.5-0.4-0.8c0.1-0.2,0.2-0.3,0.4-0.4C98.9,442.7,99.6,442.7,100.2,443z"/>
							<path id="_Path_49" class="st0" d="M105.6,439.9c0.3,0.1,0.5,0.5,0.4,0.8c-0.1,0.2-0.2,0.3-0.4,0.4c-0.6,0.3-1.4,0.3-2,0
								c-0.3-0.1-0.5-0.5-0.4-0.8c0.1-0.2,0.2-0.3,0.4-0.4C104.2,439.6,104.9,439.6,105.6,439.9z"/>
							<path id="_Path_50" class="st0" d="M110.9,436.8c0.3,0.1,0.5,0.5,0.4,0.8c-0.1,0.2-0.2,0.3-0.4,0.4c-0.6,0.3-1.4,0.3-2,0
								c-0.3-0.1-0.5-0.5-0.4-0.8c0.1-0.2,0.2-0.3,0.4-0.4C109.5,436.5,110.3,436.5,110.9,436.8z"/>
							<path id="_Path_51" class="st0" d="M94.9,439.9c0.3,0.1,0.5,0.5,0.4,0.8c-0.1,0.2-0.2,0.3-0.4,0.4c-0.6,0.3-1.4,0.3-2,0
								c-0.3-0.1-0.5-0.5-0.4-0.8c0.1-0.2,0.2-0.3,0.4-0.4C93.5,439.6,94.3,439.6,94.9,439.9z"/>
							<path id="_Path_52" class="st0" d="M100.2,436.8c0.3,0.1,0.5,0.5,0.4,0.8c-0.1,0.2-0.2,0.3-0.4,0.4c-0.6,0.3-1.4,0.3-2,0
								c-0.3-0.1-0.5-0.5-0.4-0.8c0.1-0.2,0.2-0.3,0.4-0.4C98.9,436.5,99.6,436.5,100.2,436.8z"/>
							<path id="_Path_53" class="st0" d="M105.6,433.7c0.3,0.1,0.5,0.5,0.4,0.8c-0.1,0.2-0.2,0.3-0.4,0.4c-0.6,0.3-1.4,0.3-2,0
								c-0.3-0.1-0.5-0.5-0.4-0.8c0.1-0.2,0.2-0.3,0.4-0.4C104.2,433.4,104.9,433.4,105.6,433.7z"/>
							<path id="_Path_54" class="st0" d="M89.6,436.8c0.3,0.1,0.5,0.5,0.4,0.8c-0.1,0.2-0.2,0.3-0.4,0.4c-0.6,0.3-1.4,0.3-2,0
								c-0.3-0.1-0.5-0.5-0.4-0.8c0.1-0.2,0.2-0.3,0.4-0.4C88.2,436.5,88.9,436.5,89.6,436.8z"/>
							<path id="_Path_55" class="st0" d="M94.9,433.7c0.3,0.1,0.5,0.5,0.4,0.8c-0.1,0.2-0.2,0.3-0.4,0.4c-0.6,0.3-1.4,0.3-2,0
								c-0.3-0.1-0.5-0.5-0.4-0.8c0.1-0.2,0.2-0.3,0.4-0.4C93.5,433.4,94.3,433.4,94.9,433.7z"/>
							<path id="_Path_56" class="st0" d="M100.2,430.7c0.3,0.1,0.5,0.5,0.4,0.8c-0.1,0.2-0.2,0.3-0.4,0.4c-0.6,0.3-1.4,0.3-2,0
								c-0.3-0.1-0.5-0.5-0.4-0.8c0.1-0.2,0.2-0.3,0.4-0.4C98.9,430.3,99.6,430.3,100.2,430.7z"/>
							<path id="_Path_57" class="st0" d="M84.2,433.7c0.3,0.1,0.5,0.5,0.4,0.8c-0.1,0.2-0.2,0.3-0.4,0.4c-0.6,0.3-1.4,0.3-2,0
								c-0.3-0.1-0.5-0.5-0.4-0.8c0.1-0.2,0.2-0.3,0.4-0.4C82.9,433.4,83.6,433.4,84.2,433.7z"/>
							<path id="_Path_58" class="st0" d="M89.6,430.7c0.3,0.1,0.5,0.5,0.4,0.8c-0.1,0.2-0.2,0.3-0.4,0.4c-0.6,0.3-1.4,0.3-2,0
								c-0.3-0.1-0.5-0.5-0.4-0.8c0.1-0.2,0.2-0.3,0.4-0.4C88.2,430.3,88.9,430.3,89.6,430.7z"/>
							<path id="_Path_59" class="st0" d="M94.9,427.6c0.3,0.1,0.5,0.5,0.4,0.8c-0.1,0.2-0.2,0.3-0.4,0.4c-0.6,0.3-1.4,0.3-2,0
								c-0.3-0.1-0.5-0.5-0.4-0.8c0.1-0.2,0.2-0.3,0.4-0.4C93.5,427.3,94.3,427.3,94.9,427.6z"/>
							<path id="_Path_60" class="st0" d="M78.9,430.6c0.3,0.1,0.5,0.5,0.4,0.8c-0.1,0.2-0.2,0.3-0.4,0.4c-0.6,0.3-1.4,0.3-2,0
								c-0.3-0.1-0.5-0.5-0.4-0.8c0.1-0.2,0.2-0.3,0.4-0.4C77.5,430.3,78.2,430.3,78.9,430.6z"/>
							<path id="_Path_61" class="st0" d="M84.2,427.5c0.3,0.1,0.5,0.5,0.4,0.8c-0.1,0.2-0.2,0.3-0.4,0.4c-0.6,0.3-1.4,0.3-2,0
								c-0.3-0.1-0.5-0.5-0.4-0.8c0.1-0.2,0.2-0.3,0.4-0.4C82.8,427.2,83.6,427.2,84.2,427.5z"/>
							<path id="_Path_62" class="st0" d="M89.5,424.5c0.3,0.1,0.5,0.5,0.4,0.8c-0.1,0.2-0.2,0.3-0.4,0.4c-0.6,0.3-1.4,0.3-2,0
								c-0.3-0.1-0.5-0.5-0.4-0.8c0.1-0.2,0.2-0.3,0.4-0.4C88.2,424.2,88.9,424.2,89.5,424.5z"/>
							<path id="_Path_63" class="st0" d="M73.5,427.5c0.3,0.1,0.5,0.5,0.4,0.8c-0.1,0.2-0.2,0.3-0.4,0.4c-0.6,0.3-1.4,0.3-2,0
								c-0.3-0.1-0.5-0.5-0.4-0.8c0.1-0.2,0.2-0.3,0.4-0.4C72.2,427.2,72.9,427.2,73.5,427.5z"/>
							<path id="_Path_64" class="st0" d="M78.9,424.5c0.3,0.1,0.5,0.5,0.4,0.8c-0.1,0.2-0.2,0.3-0.4,0.4c-0.6,0.3-1.4,0.3-2,0
								c-0.3-0.1-0.5-0.5-0.4-0.8c0.1-0.2,0.2-0.3,0.4-0.4C77.5,424.2,78.2,424.2,78.9,424.5z"/>
							<path id="_Path_65" class="st0" d="M84.2,421.4c0.3,0.1,0.5,0.5,0.4,0.8c-0.1,0.2-0.2,0.3-0.4,0.4c-0.6,0.3-1.4,0.3-2,0
								c-0.3-0.1-0.5-0.5-0.4-0.8c0.1-0.2,0.2-0.3,0.4-0.4C82.8,421.1,83.6,421.1,84.2,421.4z"/>
							<path id="_Path_66" class="st0" d="M68.2,424.5c0.3,0.1,0.5,0.5,0.4,0.8c-0.1,0.2-0.2,0.3-0.4,0.4c-0.6,0.3-1.4,0.3-2,0
								c-0.3-0.1-0.5-0.5-0.4-0.8c0.1-0.2,0.2-0.3,0.4-0.4C66.8,424.2,67.6,424.2,68.2,424.5z"/>
							<path id="_Path_67" class="st0" d="M73.5,421.4c0.3,0.1,0.5,0.5,0.4,0.8c-0.1,0.2-0.2,0.3-0.4,0.4c-0.6,0.3-1.4,0.3-2,0
								c-0.3-0.1-0.5-0.5-0.4-0.8c0.1-0.2,0.2-0.3,0.4-0.4C72.2,421.1,72.9,421.1,73.5,421.4z"/>
							<path id="_Path_68" class="st0" d="M78.9,418.3c0.3,0.1,0.5,0.5,0.4,0.8c-0.1,0.2-0.2,0.3-0.4,0.4c-0.6,0.3-1.4,0.3-2,0
								c-0.3-0.1-0.5-0.5-0.4-0.8c0.1-0.2,0.2-0.3,0.4-0.4C77.5,418,78.2,418,78.9,418.3z"/>
							<path id="_Path_69" class="st0" d="M68.2,418.3c0.3,0.1,0.5,0.5,0.4,0.8c-0.1,0.2-0.2,0.3-0.4,0.4c-0.6,0.3-1.4,0.3-2,0
								c-0.3-0.1-0.5-0.5-0.4-0.8c0.1-0.2,0.2-0.3,0.4-0.4C66.8,418,67.6,418,68.2,418.3z"/>
							<path id="_Path_70" class="st0" d="M73.5,415.2c0.3,0.1,0.5,0.5,0.4,0.8c-0.1,0.2-0.2,0.3-0.4,0.4c-0.6,0.3-1.4,0.3-2,0
								c-0.3-0.1-0.5-0.5-0.4-0.8c0.1-0.2,0.2-0.3,0.4-0.4C72.2,414.9,72.9,414.9,73.5,415.2z"/>
							<path id="_Path_71" class="st0" d="M178.3,446.1c0.6-0.3,1.4-0.3,2,0c0.3,0.1,0.5,0.5,0.4,0.8c-0.1,0.2-0.2,0.3-0.4,0.4
								c-0.6,0.3-1.4,0.3-2,0c-0.3-0.1-0.5-0.5-0.4-0.8C177.9,446.3,178.1,446.2,178.3,446.1z"/>
							<path id="_Path_72" class="st0" d="M185.6,443c0.3,0.1,0.5,0.5,0.4,0.8c-0.1,0.2-0.2,0.3-0.4,0.4c-0.6,0.3-1.4,0.3-2,0
								c-0.3-0.1-0.5-0.5-0.4-0.8c0.1-0.2,0.2-0.3,0.4-0.4C184.3,442.7,185,442.7,185.6,443z"/>
							<path id="_Path_73" class="st0" d="M191,440c0.3,0.1,0.5,0.5,0.4,0.8c-0.1,0.2-0.2,0.3-0.4,0.4c-0.6,0.3-1.4,0.3-2,0
								c-0.3-0.1-0.5-0.5-0.4-0.8c0.1-0.2,0.2-0.3,0.4-0.4C189.6,439.7,190.4,439.7,191,440z"/>
							<path id="_Path_74" class="st0" d="M196.3,436.9c0.3,0.1,0.5,0.5,0.4,0.8c-0.1,0.2-0.2,0.3-0.4,0.4c-0.6,0.3-1.4,0.3-2,0
								c-0.3-0.1-0.5-0.5-0.4-0.8c0.1-0.2,0.2-0.3,0.4-0.4C195,436.6,195.7,436.6,196.3,436.9z"/>
							<path id="_Path_75" class="st0" d="M201.7,433.8c0.3,0.1,0.5,0.5,0.4,0.8c-0.1,0.2-0.2,0.3-0.4,0.4c-0.6,0.3-1.4,0.3-2,0
								c-0.3-0.1-0.5-0.5-0.4-0.8c0.1-0.2,0.2-0.3,0.4-0.4C200.3,433.5,201,433.5,201.7,433.8z"/>
							<path id="_Path_76" class="st0" d="M207,430.7c0.3,0.1,0.5,0.5,0.4,0.8c-0.1,0.2-0.2,0.3-0.4,0.4c-0.6,0.3-1.4,0.3-2,0
								c-0.3-0.1-0.5-0.5-0.4-0.8c0.1-0.2,0.2-0.3,0.4-0.4C205.6,430.4,206.4,430.4,207,430.7z"/>
							<path id="_Path_77" class="st0" d="M212.3,427.6c0.3,0.1,0.5,0.5,0.4,0.8c-0.1,0.2-0.2,0.3-0.4,0.4c-0.6,0.3-1.4,0.3-2,0
								c-0.3-0.1-0.5-0.5-0.4-0.8c0.1-0.2,0.2-0.3,0.4-0.4C211,427.3,211.7,427.3,212.3,427.6z"/>
							<path id="_Path_78" class="st0" d="M172.9,443.1c0.6-0.3,1.4-0.3,2,0c0.3,0.1,0.5,0.5,0.4,0.8c-0.1,0.2-0.2,0.3-0.4,0.4
								c-0.6,0.3-1.4,0.3-2,0c-0.3-0.1-0.5-0.5-0.4-0.8C172.6,443.3,172.8,443.1,172.9,443.1z"/>
							<path id="_Path_79" class="st0" d="M180.3,440c0.3,0.1,0.5,0.5,0.4,0.8c-0.1,0.2-0.2,0.3-0.4,0.4c-0.6,0.3-1.4,0.3-2,0
								c-0.3-0.1-0.5-0.5-0.4-0.8c0.1-0.2,0.2-0.3,0.4-0.4C179,439.7,179.7,439.7,180.3,440z"/>
							<path id="_Path_80" class="st0" d="M185.6,436.9c0.3,0.1,0.5,0.5,0.4,0.8c-0.1,0.2-0.2,0.3-0.4,0.4c-0.6,0.3-1.4,0.3-2,0
								c-0.3-0.1-0.5-0.5-0.4-0.8c0.1-0.2,0.2-0.3,0.4-0.4C184.3,436.6,185,436.6,185.6,436.9z"/>
							<path id="_Path_81" class="st0" d="M191,433.8c0.3,0.1,0.5,0.5,0.4,0.8c-0.1,0.2-0.2,0.3-0.4,0.4c-0.6,0.3-1.4,0.3-2,0
								c-0.3-0.1-0.5-0.5-0.4-0.8c0.1-0.2,0.2-0.3,0.4-0.4C189.6,433.5,190.4,433.5,191,433.8z"/>
							<path id="_Path_82" class="st0" d="M196.3,430.7c0.3,0.1,0.5,0.5,0.4,0.8c-0.1,0.2-0.2,0.3-0.4,0.4c-0.6,0.3-1.4,0.3-2,0
								c-0.3-0.1-0.5-0.5-0.4-0.8c0.1-0.2,0.2-0.3,0.4-0.4C195,430.4,195.7,430.4,196.3,430.7z"/>
							<path id="_Path_83" class="st0" d="M201.7,427.6c0.3,0.1,0.5,0.5,0.4,0.8c-0.1,0.2-0.2,0.3-0.4,0.4c-0.6,0.3-1.4,0.3-2,0
								c-0.3-0.1-0.5-0.5-0.4-0.8c0.1-0.2,0.2-0.3,0.4-0.4C200.3,427.3,201,427.3,201.7,427.6z"/>
							<path id="_Path_84" class="st0" d="M207,424.6c0.3,0.1,0.5,0.5,0.4,0.8c-0.1,0.2-0.2,0.3-0.4,0.4c-0.6,0.3-1.4,0.3-2,0
								c-0.3-0.1-0.5-0.5-0.4-0.8c0.1-0.2,0.2-0.3,0.4-0.4C205.6,424.3,206.4,424.3,207,424.6z"/>
							<path id="_Path_85" class="st0" d="M212.3,421.5c0.3,0.1,0.5,0.5,0.4,0.8c-0.1,0.2-0.2,0.3-0.4,0.4c-0.6,0.3-1.4,0.3-2,0
								c-0.3-0.1-0.5-0.5-0.4-0.8c0.1-0.2,0.2-0.3,0.4-0.4C211,421.2,211.7,421.2,212.3,421.5z"/>
							<path id="_Path_86" class="st0" d="M167.6,440c0.6-0.3,1.4-0.3,2,0c0.3,0.1,0.5,0.5,0.4,0.8c-0.1,0.2-0.2,0.3-0.4,0.4
								c-0.6,0.3-1.4,0.3-2,0c-0.3-0.1-0.5-0.5-0.4-0.8C167.3,440.2,167.4,440.1,167.6,440z"/>
							<path id="_Path_87" class="st0" d="M175,436.9c0.3,0.1,0.5,0.5,0.4,0.8c-0.1,0.2-0.2,0.3-0.4,0.4c-0.6,0.3-1.4,0.3-2,0
								c-0.3-0.1-0.5-0.5-0.4-0.8c0.1-0.2,0.2-0.3,0.4-0.4C173.6,436.6,174.4,436.6,175,436.9z"/>
							<path id="_Path_88" class="st0" d="M180.3,433.8c0.3,0.1,0.5,0.5,0.4,0.8c-0.1,0.2-0.2,0.3-0.4,0.4c-0.6,0.3-1.4,0.3-2,0
								c-0.3-0.1-0.5-0.5-0.4-0.8c0.1-0.2,0.2-0.3,0.4-0.4C179,433.5,179.7,433.5,180.3,433.8z"/>
							<path id="_Path_89" class="st0" d="M185.6,430.7c0.3,0.1,0.5,0.5,0.4,0.8c-0.1,0.2-0.2,0.3-0.4,0.4c-0.6,0.3-1.4,0.3-2,0
								c-0.3-0.1-0.5-0.5-0.4-0.8c0.1-0.2,0.2-0.3,0.4-0.4C184.3,430.4,185,430.4,185.6,430.7z"/>
							<path id="_Path_90" class="st0" d="M191,427.6c0.3,0.1,0.5,0.5,0.4,0.8c-0.1,0.2-0.2,0.3-0.4,0.4c-0.6,0.3-1.4,0.3-2,0
								c-0.3-0.1-0.5-0.5-0.4-0.8c0.1-0.2,0.2-0.3,0.4-0.4C189.6,427.3,190.4,427.3,191,427.6z"/>
							<path id="_Path_91" class="st0" d="M196.3,424.6c0.3,0.1,0.5,0.5,0.4,0.8c-0.1,0.2-0.2,0.3-0.4,0.4c-0.6,0.3-1.4,0.3-2,0
								c-0.3-0.1-0.5-0.5-0.4-0.8c0.1-0.2,0.2-0.3,0.4-0.4C195,424.3,195.7,424.3,196.3,424.6z"/>
							<path id="_Path_92" class="st0" d="M201.7,421.5c0.3,0.1,0.5,0.5,0.4,0.8c-0.1,0.2-0.2,0.3-0.4,0.4c-0.6,0.3-1.4,0.3-2,0
								c-0.3-0.1-0.5-0.5-0.4-0.8c0.1-0.2,0.2-0.3,0.4-0.4C200.3,421.2,201,421.2,201.7,421.5z"/>
							<path id="_Path_93" class="st0" d="M207,418.4c0.3,0.1,0.5,0.5,0.4,0.8c-0.1,0.2-0.2,0.3-0.4,0.4c-0.6,0.3-1.4,0.3-2,0
								c-0.3-0.1-0.5-0.5-0.4-0.8c0.1-0.2,0.2-0.3,0.4-0.4C205.6,418.1,206.4,418.1,207,418.4z"/>
							<path id="_Path_94" class="st0" d="M162.3,436.9c0.6-0.3,1.4-0.3,2,0c0.3,0.1,0.5,0.5,0.4,0.8c-0.1,0.2-0.2,0.3-0.4,0.4
								c-0.6,0.3-1.4,0.3-2,0c-0.3-0.1-0.5-0.5-0.4-0.8C161.9,437.1,162.1,437,162.3,436.9z"/>
							<path id="_Path_95" class="st0" d="M169.6,433.8c0.3,0.1,0.5,0.5,0.4,0.8c-0.1,0.2-0.2,0.3-0.4,0.4c-0.6,0.3-1.4,0.3-2,0
								c-0.3-0.1-0.5-0.5-0.4-0.8c0.1-0.2,0.2-0.3,0.4-0.4C168.3,433.5,169,433.5,169.6,433.8z"/>
							<path id="_Path_96" class="st0" d="M175,430.7c0.3,0.1,0.5,0.5,0.4,0.8c-0.1,0.2-0.2,0.3-0.4,0.4c-0.6,0.3-1.4,0.3-2,0
								c-0.3-0.1-0.5-0.5-0.4-0.8c0.1-0.2,0.2-0.3,0.4-0.4C173.6,430.4,174.4,430.4,175,430.7z"/>
							<path id="_Path_97" class="st0" d="M180.3,427.6c0.3,0.1,0.5,0.5,0.4,0.8c-0.1,0.2-0.2,0.3-0.4,0.4c-0.6,0.3-1.4,0.3-2,0
								c-0.3-0.1-0.5-0.5-0.4-0.8c0.1-0.2,0.2-0.3,0.4-0.4C179,427.3,179.7,427.3,180.3,427.6z"/>
							<path id="_Path_98" class="st0" d="M185.6,424.6c0.3,0.1,0.5,0.5,0.4,0.8c-0.1,0.2-0.2,0.3-0.4,0.4c-0.6,0.3-1.4,0.3-2,0
								c-0.3-0.1-0.5-0.5-0.4-0.8c0.1-0.2,0.2-0.3,0.4-0.4C184.3,424.3,185,424.3,185.6,424.6z"/>
							<path id="_Path_99" class="st0" d="M191,421.5c0.3,0.1,0.5,0.5,0.4,0.8c-0.1,0.2-0.2,0.3-0.4,0.4c-0.6,0.3-1.4,0.3-2,0
								c-0.3-0.1-0.5-0.5-0.4-0.8c0.1-0.2,0.2-0.3,0.4-0.4C189.6,421.2,190.4,421.2,191,421.5z"/>
							<path id="_Path_100" class="st0" d="M196.3,418.4c0.3,0.1,0.5,0.5,0.4,0.8c-0.1,0.2-0.2,0.3-0.4,0.4c-0.6,0.3-1.4,0.3-2,0
								c-0.3-0.1-0.5-0.5-0.4-0.8c0.1-0.2,0.2-0.3,0.4-0.4C195,418.1,195.7,418.1,196.3,418.4z"/>
							<path id="_Path_101" class="st0" d="M201.7,415.3c0.3,0.1,0.5,0.5,0.4,0.8c-0.1,0.2-0.2,0.3-0.4,0.4c-0.6,0.3-1.4,0.3-2,0
								c-0.3-0.1-0.5-0.5-0.4-0.8c0.1-0.2,0.2-0.3,0.4-0.4C200.3,415,201,415,201.7,415.3z"/>
							<path id="_Path_102" class="st0" d="M156.9,433.8c0.6-0.3,1.4-0.3,2,0c0.3,0.1,0.5,0.5,0.4,0.8c-0.1,0.2-0.2,0.3-0.4,0.4
								c-0.6,0.3-1.4,0.3-2,0c-0.3-0.1-0.5-0.5-0.4-0.8C156.6,434,156.7,433.9,156.9,433.8z"/>
							<path id="_Path_103" class="st0" d="M164.3,430.7c0.3,0.1,0.5,0.5,0.4,0.8c-0.1,0.2-0.2,0.3-0.4,0.4c-0.6,0.3-1.4,0.3-2,0
								c-0.3-0.1-0.5-0.5-0.4-0.8c0.1-0.2,0.2-0.3,0.4-0.4C162.9,430.4,163.6,430.4,164.3,430.7z"/>
							<path id="_Path_104" class="st0" d="M169.6,427.6c0.3,0.1,0.5,0.5,0.4,0.8c-0.1,0.2-0.2,0.3-0.4,0.4c-0.6,0.3-1.4,0.3-2,0
								c-0.3-0.1-0.5-0.5-0.4-0.8c0.1-0.2,0.2-0.3,0.4-0.4C168.2,427.3,169,427.3,169.6,427.6z"/>
							<path id="_Path_105" class="st0" d="M174.9,424.5c0.3,0.1,0.5,0.5,0.4,0.8c-0.1,0.2-0.2,0.3-0.4,0.4c-0.6,0.3-1.4,0.3-2,0
								c-0.3-0.1-0.5-0.5-0.4-0.8c0.1-0.2,0.2-0.3,0.4-0.4C173.6,424.2,174.3,424.2,174.9,424.5z"/>
							<path id="_Path_106" class="st0" d="M180.3,421.5c0.3,0.1,0.5,0.5,0.4,0.8c-0.1,0.2-0.2,0.3-0.4,0.4c-0.6,0.3-1.4,0.3-2,0
								c-0.3-0.1-0.5-0.5-0.4-0.8c0.1-0.2,0.2-0.3,0.4-0.4C178.9,421.1,179.6,421.1,180.3,421.5z"/>
							<path id="_Path_107" class="st0" d="M185.6,418.4c0.3,0.1,0.5,0.5,0.4,0.8c-0.1,0.2-0.2,0.3-0.4,0.4c-0.6,0.3-1.4,0.3-2,0
								c-0.3-0.1-0.5-0.5-0.4-0.8c0.1-0.2,0.2-0.3,0.4-0.4C184.2,418.1,185,418.1,185.6,418.4z"/>
							<path id="_Path_108" class="st0" d="M153.6,430.7c0.3,0.1,0.5,0.5,0.4,0.8c-0.1,0.2-0.2,0.3-0.4,0.4c-0.6,0.3-1.4,0.3-2,0
								C151,431.6,153,430.4,153.6,430.7z"/>
						</g>
						<g id="_Group_3">
							<g id="_Group_4">
								<polygon id="_Path_109" class="st1" points="201.9,410.5 136.1,448.5 70.2,410.5 136.1,372.4 								"/>
								<polygon id="_Path_110" class="st2" points="201.9,417.1 136.1,455.1 70.2,417.1 136.1,379.1 								"/>
								<polygon id="_Path_111" class="st1" points="70.2,410.5 70.2,416.5 136.1,454.5 136.1,448.5 								"/>
								<g id="_Group_5">
									<polygon id="_Path_112" class="st3" points="201.9,410.5 201.9,416.5 136.1,454.5 136.1,448.5 									"/>
									<path id="_Compound_Path_" class="st0" d="M202.5,410.1l-66.1-38.2l-0.3-0.2l-66.4,38.4v6.7l66.4,38.4l66.4-38.4
										L202.5,410.1z M136.1,373.1l64.7,37.3l-21,12.1l-43.7,25.2l-64.6-37.3L136.1,373.1z M70.8,416.1v-4.6l64.7,37.3v4.6
										L70.8,416.1z M201.4,411.5v4.6l-64.7,37.3v-4.6l30.8-17.8L201.4,411.5z"/>
								</g>
							</g>
							<g id="_Group_6">
								<g id="_Group_7">
									<g id="_Group_8">
										<g id="_Group_9">
											<path id="_Path_113" class="st1" d="M160.9,410.8v-6.9c0-0.7-0.5-1.2-1.2-1.2c0,0,0,0,0,0H156c-0.8-0.6-1.6-1.2-2.4-1.7
												c-9.7-5.6-25.4-5.6-35.1,0c-0.8,0.5-1.7,1-2.4,1.7h-3.6c-0.7,0-1.2,0.5-1.2,1.2l0,0v6.8c0,0.3,0,0.6,0,0.8l0,0
												c0.3,3.4,2.7,7.1,7.2,9.7c9.7,5.6,25.4,5.6,35.1,0c4.5-2.6,6.9-6,7.2-9.4v-0.3l0,0C160.9,411.3,160.9,411,160.9,410.8z"
												/>
											<path id="_Compound_Path_2" class="st0" d="M136.1,426c-6.5,0-12.9-1.4-17.8-4.3c-4.3-2.5-7-6.1-7.5-9.9l0,0v-0.3
												c0-0.3,0-0.6,0-0.9v-6.8c0-1,0.8-1.8,1.8-1.8h3.4c0.7-0.6,1.5-1.1,2.3-1.6c9.8-5.7,25.8-5.7,35.7,0
												c0.8,0.5,1.6,1,2.3,1.6h3.4c1,0,1.8,0.8,1.8,1.8v6.9c0,0.3,0,0.5,0,0.8v0.4c-0.3,3.8-3,7.2-7.5,9.9
												C149,424.6,142.6,426,136.1,426z M111.9,411.5c0.3,3.5,2.9,6.9,6.9,9.2c9.5,5.5,25,5.5,34.5,0c4.2-2.4,6.6-5.6,6.9-8.9
												v-0.3c0-0.2,0-0.5,0-0.7v-6.9c0-0.2-0.1-0.3-0.2-0.5c-0.1-0.1-0.3-0.2-0.4-0.2h-3.8l-0.2-0.1c-0.7-0.6-1.5-1.1-2.4-1.6
												c-9.5-5.5-25-5.5-34.5,0c-0.8,0.5-1.6,1-2.4,1.6l-0.2,0.1h-3.8c-0.3,0-0.6,0.3-0.6,0.6v6.8
												C111.9,411,111.9,411.2,111.9,411.5z"/>
										</g>
										<g id="_Group_10">
											<path id="_Path_114" class="st1" d="M153.6,393.3c9.7,5.6,9.7,14.7,0,20.2s-25.4,5.6-35.1,0s-9.7-14.7,0-20.2
												S143.9,387.7,153.6,393.3z"/>
											<path id="_Path_115" class="st4" d="M118.6,398.4c-3.7,2.1-6,4.8-6.8,7.6c0.9,2.8,3.2,5.4,6.8,7.5
												c9.7,5.6,25.4,5.6,35.1,0c3.7-2.1,6-4.8,6.9-7.6c-0.9-2.8-3.1-5.4-6.8-7.5C144,392.9,128.3,392.9,118.6,398.4z"/>
											<path id="_Compound_Path_3" class="st0" d="M136.1,418.3c-6.5,0-12.9-1.4-17.8-4.3s-7.6-6.6-7.6-10.6s2.7-7.8,7.6-10.6
												c9.8-5.7,25.8-5.7,35.7,0l0,0c4.9,2.8,7.6,6.6,7.6,10.6s-2.7,7.8-7.6,10.6S142.6,418.3,136.1,418.3z M136.1,389.7
												c-6.2,0-12.5,1.4-17.2,4.1c-4.5,2.6-7,6-7,9.6s2.5,7,7,9.6c9.5,5.5,25,5.5,34.5,0c4.5-2.6,7-6,7-9.6s-2.5-7-7-9.6
												C148.6,391,142.3,389.7,136.1,389.7z"/>
										</g>
									</g>
									<g id="_Group_11">
										<path id="_Path_116" class="st1" d="M119,403.7c0.5,0.2,0.8,0.8,0.6,1.3c-0.1,0.3-0.3,0.5-0.6,0.6c-1,0.5-2.2,0.5-3.2,0
											c-0.5-0.2-0.8-0.8-0.6-1.3c0.1-0.3,0.3-0.5,0.6-0.6C116.8,403.2,118,403.2,119,403.7z"/>
										<path id="_Compound_Path_4" class="st0" d="M117.5,405.3c-0.7,0-1.3-0.1-1.9-0.5c-0.8-0.3-1.2-1.3-0.8-2
											c0.2-0.4,0.5-0.7,0.8-0.8c1.2-0.6,2.6-0.6,3.8,0l0,0c0.8,0.3,1.2,1.3,0.8,2c-0.2,0.4-0.5,0.7-0.8,0.8
											C118.8,405.2,118.1,405.3,117.5,405.3z M117.5,402.7c-0.5,0-0.9,0.1-1.3,0.3c-0.2,0.1-0.4,0.3-0.4,0.4s0.1,0.3,0.4,0.4
											c0.8,0.4,1.8,0.4,2.6,0c0.2-0.1,0.4-0.3,0.4-0.4s-0.1-0.3-0.4-0.4l0,0C118.4,402.8,117.9,402.7,117.5,402.7L117.5,402.7z"
											/>
									</g>
									<g id="_Group_12">
										<path id="_Path_117" class="st1" d="M137.6,414.1c0.5,0.2,0.8,0.8,0.6,1.3c-0.1,0.3-0.3,0.5-0.6,0.6c-1,0.5-2.2,0.5-3.2,0
											c-0.5-0.2-0.8-0.8-0.6-1.3c0.1-0.3,0.3-0.5,0.6-0.6C135.4,413.6,136.6,413.6,137.6,414.1z"/>
										<path id="_Compound_Path_5" class="st0" d="M136.1,415.7c-0.7,0-1.3-0.1-1.9-0.5c-0.8-0.3-1.2-1.2-0.8-2
											c0.2-0.4,0.5-0.7,0.8-0.8c1.2-0.6,2.6-0.6,3.8,0c0.8,0.3,1.2,1.3,0.8,2c-0.2,0.4-0.5,0.7-0.8,0.8
											C137.4,415.6,136.8,415.7,136.1,415.7z M136.1,413.1c-0.5,0-0.9,0.1-1.3,0.3c-0.2,0.1-0.4,0.3-0.4,0.4s0.1,0.3,0.4,0.4
											c0.8,0.4,1.8,0.4,2.6,0c0.2-0.1,0.4-0.3,0.4-0.4s-0.1-0.3-0.4-0.4l0,0C137,413.2,136.6,413.1,136.1,413.1z"/>
									</g>
									<g id="_Group_13">
										<path id="_Path_118" class="st1" d="M125.1,411.2c0.5,0.2,0.8,0.8,0.6,1.3c-0.1,0.3-0.3,0.5-0.6,0.6c-1,0.5-2.2,0.5-3.2,0
											c-0.5-0.2-0.8-0.8-0.6-1.3c0.1-0.3,0.3-0.5,0.6-0.6C122.8,410.7,124,410.7,125.1,411.2z"/>
										<path id="_Compound_Path_6" class="st0" d="M123.5,412.8c-0.7,0-1.3-0.1-1.9-0.5c-0.8-0.3-1.2-1.3-0.8-2
											c0.2-0.4,0.5-0.7,0.8-0.8c1.2-0.6,2.6-0.6,3.8,0c0.8,0.3,1.2,1.3,0.8,2c-0.2,0.4-0.5,0.7-0.8,0.8
											C124.8,412.7,124.2,412.8,123.5,412.8z M123.5,410.2c-0.5,0-0.9,0.1-1.3,0.3c-0.2,0.1-0.4,0.3-0.4,0.4s0.1,0.3,0.4,0.4
											c0.8,0.4,1.8,0.4,2.6,0c0.2-0.1,0.4-0.3,0.4-0.4s-0.1-0.3-0.4-0.4C124.4,410.3,124,410.2,123.5,410.2z"/>
									</g>
									<g id="_Group_14">
										<path id="_Path_119" class="st1" d="M125.1,396.2c0.5,0.2,0.8,0.8,0.6,1.3c-0.1,0.3-0.3,0.5-0.6,0.6c-1,0.5-2.2,0.5-3.2,0
											c-0.5-0.2-0.8-0.8-0.6-1.3c0.1-0.3,0.3-0.5,0.6-0.6C122.8,395.7,124,395.7,125.1,396.2z"/>
										<path id="_Compound_Path_7" class="st0" d="M123.5,397.8c-0.7,0-1.3-0.1-1.9-0.5c-0.8-0.3-1.2-1.2-0.8-2
											c0.2-0.4,0.5-0.7,0.8-0.8c1.2-0.6,2.6-0.6,3.8,0c0.8,0.3,1.2,1.3,0.8,2c-0.2,0.4-0.5,0.7-0.8,0.8
											C124.8,397.6,124.2,397.8,123.5,397.8z M123.5,395.1c-0.5,0-0.9,0.1-1.3,0.3c-0.2,0.1-0.4,0.3-0.4,0.4s0.1,0.3,0.4,0.4
											c0.8,0.4,1.8,0.4,2.6,0c0.2-0.1,0.4-0.3,0.4-0.4s-0.1-0.3-0.4-0.4C124.4,395.2,124,395.1,123.5,395.1L123.5,395.1z"/>
									</g>
									<g id="_Group_15">
										<path id="_Path_120" class="st1" d="M150.5,396.2c0.5,0.2,0.8,0.8,0.6,1.3c-0.1,0.3-0.3,0.5-0.6,0.6c-1,0.5-2.2,0.5-3.2,0
											c-0.5-0.2-0.8-0.8-0.6-1.3c0.1-0.3,0.3-0.5,0.6-0.6C148.3,395.7,149.5,395.7,150.5,396.2z"/>
										<path id="_Compound_Path_8" class="st0" d="M149,397.8c-0.7,0-1.3-0.1-1.9-0.5c-0.8-0.3-1.2-1.2-0.8-2
											c0.2-0.4,0.5-0.7,0.8-0.8c1.2-0.6,2.6-0.6,3.8,0c0.8,0.3,1.2,1.3,0.8,2c-0.2,0.4-0.5,0.7-0.8,0.8
											C150.3,397.6,149.7,397.8,149,397.8z M149,395.1c-0.5,0-0.9,0.1-1.3,0.3c-0.2,0.1-0.4,0.3-0.4,0.4s0.1,0.3,0.4,0.4
											c0.8,0.4,1.8,0.4,2.6,0c0.2-0.1,0.4-0.3,0.4-0.4s-0.1-0.3-0.4-0.4C149.9,395.2,149.5,395.1,149,395.1L149,395.1z"/>
									</g>
									<g id="_Group_16">
										<path id="_Path_121" class="st1" d="M150.8,410.8c0.5,0.2,0.8,0.8,0.6,1.3c-0.1,0.3-0.3,0.5-0.6,0.6c-1,0.5-2.2,0.5-3.2,0
											c-0.5-0.2-0.8-0.8-0.6-1.3c0.1-0.3,0.3-0.5,0.6-0.6C148.6,410.3,149.8,410.3,150.8,410.8z"/>
										<path id="_Compound_Path_9" class="st0" d="M149.3,412.4c-0.7,0-1.3-0.1-1.9-0.5c-0.8-0.3-1.2-1.3-0.8-2
											c0.2-0.4,0.5-0.7,0.8-0.8c1.2-0.6,2.6-0.6,3.8,0c0.8,0.3,1.2,1.3,0.8,2c-0.2,0.4-0.5,0.7-0.8,0.8
											C150.6,412.2,149.9,412.4,149.3,412.4z M149.3,409.7c-0.5,0-0.9,0.1-1.3,0.3c-0.2,0.1-0.4,0.3-0.4,0.4s0.1,0.3,0.4,0.4
											c0.8,0.4,1.8,0.4,2.6,0c0.2-0.1,0.4-0.3,0.4-0.4s-0.1-0.3-0.4-0.4C150.2,409.8,149.7,409.7,149.3,409.7z"/>
									</g>
									<g id="_Group_17">
										<path id="_Path_122" class="st1" d="M156.4,403.7c0.5,0.2,0.8,0.8,0.6,1.3c-0.1,0.3-0.3,0.5-0.6,0.6c-1,0.5-2.2,0.5-3.2,0
											c-0.5-0.2-0.8-0.8-0.6-1.3c0.1-0.3,0.3-0.5,0.6-0.6C154.2,403.2,155.4,403.2,156.4,403.7z"/>
										<path id="_Compound_Path_10" class="st0" d="M154.9,405.3c-0.7,0-1.3-0.1-1.9-0.5c-0.8-0.3-1.2-1.3-0.8-2
											c0.2-0.4,0.5-0.7,0.8-0.8c1.2-0.6,2.6-0.6,3.8,0l0,0c0.8,0.3,1.2,1.3,0.8,2c-0.2,0.4-0.5,0.7-0.8,0.8
											C156.2,405.2,155.5,405.3,154.9,405.3z M154.9,402.7c-0.5,0-0.9,0.1-1.3,0.3c-0.2,0.1-0.4,0.3-0.4,0.4s0.1,0.3,0.4,0.4
											c0.8,0.4,1.8,0.4,2.6,0c0.2-0.1,0.4-0.3,0.4-0.4s-0.1-0.3-0.4-0.4l0,0C155.8,402.8,155.3,402.7,154.9,402.7L154.9,402.7z"
											/>
									</g>
								</g>
								<polygon id="_Path_123" class="st3" points="136.1,417.7 136.1,425.5 143.1,424.9 151.6,422.3 156.6,419.2 160.3,415.1 
									160.9,409 160.3,406.9 157.6,410.5 151.8,414.5 142.2,417.5 								"/>
							</g>
							<g id="_Group_18">
								<g id="_Group_19">
									<path id="_Path_124" class="st1" d="M123.2,226.6v175.9l0,0c0,1.9,1.3,3.8,3.8,5.2c5,2.9,13.1,2.9,18.1,0
										c2.5-1.4,3.8-3.3,3.8-5.2l0,0V226.6H123.2z"/>
									<path id="_Compound_Path_11" class="st0" d="M136.1,410.5c-3.3,0.1-6.5-0.7-9.3-2.2c-2.7-1.5-4.1-3.6-4.1-5.7V226.1h26.9
										v176.5c0,2.2-1.5,4.2-4.1,5.7C142.6,409.8,139.3,410.6,136.1,410.5z M123.8,227.2v175.3c0,1.7,1.3,3.4,3.5,4.7
										c4.8,2.8,12.7,2.8,17.5,0c2.2-1.3,3.5-3,3.5-4.7V227.2H123.8z"/>
								</g>
								<polygon id="_Path_125" class="st3" points="139.2,285.1 139.2,409.7 141.7,409.2 146.1,406.9 148.9,404.1 148.9,291.4 
																	"/>
							</g>
							<g id="_Group_20">
								<g id="_Group_21">
									<polygon id="_Path_126" class="st1" points="255.2,267.5 278.9,253.1 93.5,146.1 69.8,160.4 									"/>
									<polygon id="_Path_127" class="st5" points="254.1,272.7 277.9,258.4 92.5,151.3 68.8,165.7 									"/>
									<path id="_Compound_Path_12" class="st0" d="M255.2,268.1l-0.3-0.2L68.7,160.4l24.9-15l0.3,0.2l185.7,107.2v0.7
										L255.2,268.1z M71,160.4l184.2,106.4l22.6-13.6L93.5,146.8L71,160.4z"/>
								</g>
								<g id="_Group_22">
									<polygon id="_Path_128" class="st6" points="278.9,253.1 278.9,257.7 255.2,272 255.2,267.5 									"/>
									<path id="_Compound_Path_13" class="st0" d="M254.6,273v-5.9l24.3-14.7l0.6,0.4v5.2L254.6,273z M255.8,267.8v3.2l22.6-13.6
										v-3.2L255.8,267.8z"/>
								</g>
							</g>
							<g id="_Group_23">
								
									<linearGradient id="_Path_129_1_" gradientUnits="userSpaceOnUse" x1="273.4305" y1="367.7397" x2="217.1705" y2="268.2097" gradientTransform="matrix(1 0 0 -1 0 464)">
									<stop  offset="0" style="stop-color:#FFEAA8"/>
									<stop  offset="0.27" style="stop-color:#FEE9A8;stop-opacity:0.99"/>
									<stop  offset="0.37" style="stop-color:#FBE7A6;stop-opacity:0.97"/>
									<stop  offset="0.44" style="stop-color:#F5E2A4;stop-opacity:0.93"/>
									<stop  offset="0.49" style="stop-color:#EDDBA1;stop-opacity:0.87"/>
									<stop  offset="0.54" style="stop-color:#E3D39D;stop-opacity:0.79"/>
									<stop  offset="0.58" style="stop-color:#D6C898;stop-opacity:0.69"/>
									<stop  offset="0.62" style="stop-color:#C6BC92;stop-opacity:0.58"/>
									<stop  offset="0.66" style="stop-color:#B5AD8B;stop-opacity:0.44"/>
									<stop  offset="0.69" style="stop-color:#A19D83;stop-opacity:0.3"/>
									<stop  offset="0.71" style="stop-color:#94927E;stop-opacity:0.2"/>
									<stop  offset="1" style="stop-color:#314056;stop-opacity:0"/>
								</linearGradient>
								<polygon id="_Path_129" class="st7" points="240.5,75.6 261,221.2 190.8,180.6 228.8,72.3 237.6,77.3 								"/>
								
									<linearGradient id="_Path_130_1_" gradientUnits="userSpaceOnUse" x1="224.6705" y1="394.0397" x2="168.4106" y2="294.5197" gradientTransform="matrix(1 0 0 -1 0 464)">
									<stop  offset="0" style="stop-color:#FFEAA8"/>
									<stop  offset="0.27" style="stop-color:#FEE9A8;stop-opacity:0.99"/>
									<stop  offset="0.37" style="stop-color:#FBE7A6;stop-opacity:0.97"/>
									<stop  offset="0.44" style="stop-color:#F5E2A4;stop-opacity:0.93"/>
									<stop  offset="0.49" style="stop-color:#EDDBA1;stop-opacity:0.87"/>
									<stop  offset="0.54" style="stop-color:#E3D39D;stop-opacity:0.79"/>
									<stop  offset="0.58" style="stop-color:#D6C898;stop-opacity:0.69"/>
									<stop  offset="0.62" style="stop-color:#C6BC92;stop-opacity:0.58"/>
									<stop  offset="0.66" style="stop-color:#B5AD8B;stop-opacity:0.44"/>
									<stop  offset="0.69" style="stop-color:#A19D83;stop-opacity:0.3"/>
									<stop  offset="0.71" style="stop-color:#94927E;stop-opacity:0.2"/>
									<stop  offset="1" style="stop-color:#314056;stop-opacity:0"/>
								</linearGradient>
								<polygon id="_Path_130" class="st8" points="191.8,49.3 212.2,194.9 142,154.3 180.1,46 188.8,51 								"/>
								
									<linearGradient id="_Path_131_1_" gradientUnits="userSpaceOnUse" x1="173.5567" y1="424.9319" x2="117.2967" y2="325.4019" gradientTransform="matrix(1 0 0 -1 0 464)">
									<stop  offset="0" style="stop-color:#FFEAA8"/>
									<stop  offset="0.27" style="stop-color:#FEE9A8;stop-opacity:0.99"/>
									<stop  offset="0.37" style="stop-color:#FBE7A6;stop-opacity:0.97"/>
									<stop  offset="0.44" style="stop-color:#F5E2A4;stop-opacity:0.93"/>
									<stop  offset="0.49" style="stop-color:#EDDBA1;stop-opacity:0.87"/>
									<stop  offset="0.54" style="stop-color:#E3D39D;stop-opacity:0.79"/>
									<stop  offset="0.58" style="stop-color:#D6C898;stop-opacity:0.69"/>
									<stop  offset="0.62" style="stop-color:#C6BC92;stop-opacity:0.58"/>
									<stop  offset="0.66" style="stop-color:#B5AD8B;stop-opacity:0.44"/>
									<stop  offset="0.69" style="stop-color:#A19D83;stop-opacity:0.3"/>
									<stop  offset="0.71" style="stop-color:#94927E;stop-opacity:0.2"/>
									<stop  offset="1" style="stop-color:#314056;stop-opacity:0"/>
								</linearGradient>
								<polygon id="_Path_131" class="st9" points="140.6,18.5 161.1,164 90.9,123.4 128.9,15.1 137.7,20.1 								"/>
								<polygon id="_Path_132" class="st1" points="248.5,282.2 63.1,175.2 63.1,27.8 248.5,134.9 								"/>
								<polygon id="_Path_133" class="st1" points="248.5,134.9 255.1,130.8 69.7,23.8 63.1,27.8 								"/>
								<polygon id="_Path_134" class="st10" points="251.4,136.6 252.1,135.5 66.7,28.5 66,29.6 								"/>
								<g id="_Group_24">
									<polygon id="_Path_135" class="st6" points="248.5,282.2 248.5,134.9 255.1,130.8 255.1,278.2 									"/>
									<path id="_Compound_Path_14" class="st0" d="M255.6,130.4L70,23.2l-0.3-0.2l-7.1,4.4v148.1l186,107.4l7.1-4.4L255.6,130.4z
										 M69.7,24.5l184.2,106.4l-2.1,1.3l-3.3,2.1L135,68.7L64.3,27.8L69.7,24.5z M63.7,174.9v-146l124.2,71.7l60.1,34.7v146
										L63.7,174.9z M254.5,277.9l-5.4,3.3v-146l2.9-1.8l2.5-1.5V277.9z"/>
								</g>
							</g>
							<g id="_Group_25">
								<g id="_Group_26">
									<polygon id="_Path_136" class="st6" points="203.1,156.9 203.1,162.2 227.2,148.3 227.2,201 203.1,214.9 203.1,220.2 
										227.2,206.3 227.2,259.1 203.1,273 203.1,278.4 231.9,261.8 231.9,140.3 									"/>
									<polygon id="_Path_137" class="st1" points="47.6,67 52.3,69.7 76.3,55.8 121.9,82.1 97.9,96 102.5,98.7 126.6,84.8 
										172.3,111.2 148.2,125.1 152.8,127.8 176.9,113.9 222.6,140.2 198.5,154.1 203.1,156.8 231.9,140.2 76.3,50.5 									"/>
									<polygon id="_Path_138" class="st10" points="47.6,68.9 52.3,71.6 76.3,57.7 121.9,84 97.9,97.9 102.5,100.6 126.6,86.7 
										172.3,113.1 148.2,126.9 152.8,129.6 176.9,115.7 222.6,142.1 198.5,156 201.3,157.6 230,141 76.3,52.3 									"/>
								</g>
								<g id="_Group_27">
									<polygon id="_Path_139" class="st1" points="223.9,150.2 223.9,198.7 227.2,201 227.2,148.3 									"/>
									<polygon id="_Path_140" class="st1" points="223.9,198.7 216.2,203.1 216.2,207.3 227.2,201 									"/>
									<polygon id="_Path_141" class="st10" points="223.9,200.4 216.2,204.8 216.2,207.1 225.9,201.8 									"/>
								</g>
								<g id="_Group_28">
									<polygon id="_Path_142" class="st1" points="223.9,208.3 223.9,256.7 227.2,259 227.2,206.4 									"/>
									<g id="_Group_29">
										<polygon id="_Path_143" class="st1" points="223.9,256.7 216.2,261.2 216.2,265.4 227.2,259 										"/>
										<polygon id="_Path_144" class="st11" points="223.9,258.5 216.2,262.9 216.2,265.4 225.9,259.9 										"/>
										<path id="_Compound_Path_15" class="st0" d="M202.6,156.5v6.7l20.8-12v47.1l-7.7,4.4v4.3l-13.1,7.6v6.7l20.8-12v47.1
											l-7.7,4.4v4.3l-13.1,7.6v6.7l29.9-17.3V139.9l-0.5-0.3L202.6,156.5z M226.6,149.4v50.5l-1.5-1l-0.6-0.4v-47.8L226.6,149.4
											z M216.8,206.3v-2.9l7.1-4.1l0.7,0.5l1.6,1.1l-1,0.6L216.8,206.3z M224.5,256.4v-47.8l2.1-1.2v50.5l-0.2-0.1L224.5,256.4z
											 M216.8,261.5l7.1-4.1l2.2,1.6l0,0l-9.3,5.4L216.8,261.5z M231.3,261.5l-27.5,15.9v-4l24.1-13.9v-54.1l-24.1,13.9v-4
											l11.9-6.9l0,0l12.1-7v-54l0,0l-24.1,13.9v-4l27.5-15.9L231.3,261.5z"/>
									</g>
								</g>
								<polygon id="_Path_145" class="st1" points="176.9,113.9 176.9,118.3 219,142.3 222.6,140.2 								"/>
								<polygon id="_Path_146" class="st6" points="162.3,122.3 176.9,113.9 176.9,118.3 166.3,124.6 								"/>
								<polygon id="_Path_147" class="st1" points="126.6,84.8 126.6,89.2 168.6,113.2 172.2,111.1 								"/>
								<polygon id="_Path_148" class="st6" points="112,93.2 126.6,84.8 126.6,89.2 115.9,95.5 								"/>
								<polygon id="_Path_149" class="st1" points="76.4,55.8 76.4,60.2 118.4,84.2 122,82.1 								"/>
								<g id="_Group_30">
									<polygon id="_Path_150" class="st6" points="61.8,64.2 76.4,55.8 76.4,60.2 65.8,66.5 									"/>
									<path id="_Compound_Path_16" class="st0" d="M76.6,50l-0.3-0.2L46.5,67l5.8,3.4l9.5-5.5l3.9,2.3l10.6-6.3l40.8,23.3
										L96.7,96l5.8,3.4l9.5-5.5l4,2.3l10.6-6.3l41,23.4L147,125.1l5.8,3.4l9.5-5.5l4,2.3l10.6-6.3l40.9,23.4l-20.5,11.8l5.8,3.4
										l29.3-16.9V140l-0.5-0.3L76.6,50z M65.8,65.8L63,64.2l12.8-7.4v3L65.8,65.8z M76.9,59.8v-3l43.8,25.3l-2.4,1.4L76.9,59.8z
										 M115.9,94.8l-2.8-1.6l12.8-7.4v3L115.9,94.8z M127.1,85.8l43.9,25.4l-2.4,1.4l-41.5-23.7L127.1,85.8z M166.3,123.9
										l-2.8-1.6l12.8-7.4v3L166.3,123.9z M219,141.6l-41.5-23.7v-3l43.9,25.3L219,141.6z M199.7,154.1l24.1-13.9l-46.8-27
										l-7.1,4.1l-17,9.8l-3.5-2l24.1-13.9h-0.1l0,0l-46.8-27l-15.8,9.1h0.1l-8.4,4.7L99,96l19.3-11.2l0,0l4.8-2.8l-46.8-27
										l-15.8,9.1l0,0L52.3,69l-3.5-2l27.5-15.9l154.3,89.1l-27.5,15.9L199.7,154.1z"/>
								</g>
							</g>
							<g id="_Group_31">
								<polygon id="_Path_151" class="st1" points="209.7,304.9 24.3,197.9 24.3,50.5 209.7,157.5 								"/>
								<polygon id="_Path_152" class="st1" points="209.7,157.5 216.2,153.4 30.9,46.4 24.3,50.5 								"/>
								<polygon id="_Path_153" class="st10" points="213.2,159.4 216.7,157.2 31.4,50.2 27.9,52.3 								"/>
								<g id="_Group_32">
									<polygon id="_Path_154" class="st6" points="209.7,304.9 209.7,157.5 216.2,153.4 216.2,300.8 									"/>
									<path id="_Compound_Path_17" class="st0" d="M216.8,153.1L31.2,45.9l-0.3-0.2l-7.1,4.4v148.1l186,107.4l7.1-4.4
										L216.8,153.1z M30.9,47.1l184.2,106.4l-1.4,0.9l-4.1,2.5L105.4,96.6L25.5,50.5L30.9,47.1z M24.9,197.5v-146L149,123.2
										l60.1,34.7v146L24.9,197.5z M215.6,154.5v146l-5.4,3.3v-146l3.3-2.1L215.6,154.5z"/>
								</g>
							</g>
							<g id="_Group_33">
								<polygon id="_Path_155" class="st1" points="186,307.6 209.7,293.3 24.3,186.3 0.6,200.6 								"/>
								<polygon id="_Path_156" class="st11" points="186.6,309.6 206.6,296.9 24.5,191.8 3.5,204.5 								"/>
								<polygon id="_Path_157" class="st1" points="0.6,200.6 0.6,205.1 186,312.1 186,307.6 								"/>
								<ellipse id="_Path_158" class="st1" cx="167" cy="286.4" rx="7.5" ry="3.9"/>
								<g id="_Group_34">
									<polygon id="_Path_159" class="st6" points="209.7,293.3 209.7,297.8 186,312.1 186,307.6 									"/>
									<path id="_Compound_Path_18" class="st0" d="M210.3,293L24.6,185.8l-0.3-0.2L0,200.3v5.2l186,107.4l24.3-14.7L210.3,293z
										 M24.3,187l184.3,106.3l-10.9,6.6l-11.7,7l-1.3-0.7L1.7,200.6L24.3,187z M1.2,204.8v-3.2L185.4,308v3.2L1.2,204.8z
										 M209.1,297.5l-22.6,13.6v-3.2l10.9-6.5l11.7-7.1L209.1,297.5z"/>
								</g>
							</g>
							<g id="_Group_35">
								<polygon id="_Path_160" class="st1" points="24.3,50.5 24.3,186.3 70.7,213 70.7,77.2 								"/>
								<polygon id="_Path_161" class="st5" points="209,292.4 209,164.5 31.6,63 31.6,190.9 								"/>
								<path id="_Compound_Path_19" class="st12" d="M209,292.4L23.7,186.6V50.2l0.6-0.4l185,107.2L209,292.4z"/>
							</g>
							<g id="_Group_36">
								<path id="_Path_162" class="st1" d="M162.1,130.3v111.4l0,0c0,0-0.4,10.1-7.9,8.8c-0.1,0-0.1,0-0.1,0.1c0,0,0,0.1,0,0.1
									l45.8,26.5c8,1.9,8.4-8.7,8.4-8.7V157L162.1,130.3z"/>
								<path id="_Path_163" class="st13" d="M170,140.8v106.1c-1.3,8.1-8,7.5-8,7.5l6.7,4.4l-0.1,0.2l31.4,18.2
									c8,1.9,8.4-8.7,8.4-8.7V163L170,140.8z"/>
								<path id="_Compound_Path_20" class="st0" d="M202.1,268.2c-0.7,0-1.3-0.1-1.9-0.2l-0.2-0.1l-46.3-26.8l0.1-0.6
									c0.1-0.3,0.4-0.5,0.8-0.4c1.5,0.3,3,0,4.2-0.9c2.8-2.2,3-7.3,3-7.3V129.6l47.5,27.4v101.6c0,0.3-0.3,5.8-3.6,8.3
									C204.7,267.8,203.4,268.2,202.1,268.2z M200.5,266.8c1.5,0.5,3.2,0.2,4.5-0.7c2.9-2.2,3.1-7.4,3.1-7.4v-101L163,131.6v100.2
									c0,0.3-0.3,5.7-3.5,8.2c-0.9,0.7-1.9,1.1-3.1,1.2l22.6,13.1L200.5,266.8z"/>
							</g>
							<g class="st14">
								<path d="M51,132.1c-3.2-1.9-5.8-4.3-7.6-7.2c-1.9-2.9-2.8-5.6-2.8-8c0-1.2,0.2-2.3,0.6-3.1c0.4-0.9,0.8-1.5,1.4-2
									c0.5-0.5,1.3-0.8,2.2-1c1-0.2,1.8-0.3,2.6-0.3c0.8,0,1.8,0.1,3.1,0.3c1.3,0.2,2.3,0.4,3.1,0.6c0.8,0.2,1.8,0.4,3.1,0.8
									c1.3,0.3,2.2,0.6,2.8,0.7l0-3.7c0-1.1-0.2-2-0.5-2.8c-0.4-0.8-1.1-1.5-2.1-2.1c-1.7-1-2.7-0.5-2.8,1.4l-0.3,2.6l-11.9-7.1
									c0-0.1,0-0.3,0-0.6c0-0.3,0-0.5,0-0.6c0.4-3.9,2-6.1,4.7-6.5C49.2,92.8,53,94,58,96.8c4.5,2.5,7.9,5.5,10.2,8.9
									c2.3,3.4,3.5,6.8,3.4,10.2l-0.2,17.6c0,2.4,0.2,5.7,0.7,9.9L60.8,137c-0.6-3.4-1-5.4-1-6c-0.6,1.4-1.7,2.2-3.2,2.5
									C55.1,133.9,53.2,133.4,51,132.1z M55.7,127.4c0.6,0.3,1.2,0.5,1.9,0.5c0.7,0,1.2-0.1,1.6-0.4l0.1-10.3
									c-2.1-0.3-3.7-0.1-5.1,0.7c-1.3,0.8-2,1.9-2,3.4c0,1.2,0.3,2.4,1,3.5C53.8,126,54.7,126.8,55.7,127.4z"/>
								<path d="M73.7,144.3l0.4-37.8l12.8,7.2l-0.1,6.3c2.8-2.9,5.9-3.5,9.1-1.6c0.5,0.3,1.1,0.7,1.8,1.3l-0.1,9.4
									c-0.7-0.6-1.4-1-2.1-1.4c-3.5-1.8-6.4-2-8.8-0.4l-0.2,24.2L73.7,144.3z"/>
								<path d="M110,165.3c-1.4-0.8-2.7-1.7-3.8-2.7c-1.1-0.9-2.1-1.8-2.9-2.7c-0.8-0.9-1.5-1.8-2.1-2.9c-0.6-1-1-2-1.4-2.9
									c-0.3-0.9-0.6-1.9-0.8-3c-0.2-1.1-0.3-2.1-0.4-3c-0.1-0.9-0.1-1.9-0.1-3l0.2-17.6l-4.3-2.5l0.1-7l4.3,2.5l0.1-11.4l12.9,7.3
									l-0.1,11.4l6.5,3.7l-0.1,7l-6.5-3.7l-0.2,19.5c0,2,1.3,3.8,4.1,5.4c0.3,0.2,0.7,0.4,1.1,0.6c0.4,0.2,0.8,0.4,1,0.5
									c0.3,0.1,0.5,0.2,0.8,0.3s0.4,0.2,0.4,0.2l-0.1,8.4c-2.7-1.2-5.3-2.4-7.6-3.7C110.8,165.9,110.4,165.6,110,165.3z"/>
							</g>
							<g class="st14">
								<path d="M45.6,171.6l-6.3-41.6l10.7,6l3,23.3l3.8-19.4l9.2,5.2l2.9,23.7l4-19.8l9.9,5.6l-7.2,33.9l-10.9-6.2L61,159.1
									l-4.5,18.7L45.6,171.6z"/>
								<path d="M109.2,205.1c-2.8,0.5-6.7-0.6-11.7-3.4c-5-2.8-8.8-6.1-11.6-9.8c-2.8-3.7-4.1-7.6-4.1-11.6l0.1-14.3
									c0-4,1.5-6.3,4.3-6.9c2.8-0.5,6.7,0.6,11.6,3.4c4.9,2.8,8.8,6.1,11.6,9.8c2.8,3.7,4.2,7.6,4.1,11.6l-0.1,14.3
									C113.5,202.3,112,204.6,109.2,205.1z M97.6,194.6c1.2,0.7,2.1,0.8,2.6,0.3c0.5-0.5,0.7-1.5,0.7-3l0.2-15.7
									c0-1.5-0.2-2.8-0.7-3.8c-0.5-1-1.3-1.9-2.5-2.6c-1.2-0.7-2-0.7-2.5-0.2c-0.5,0.5-0.7,1.5-0.7,3l-0.2,15.7
									c0,1.5,0.2,2.7,0.7,3.8C95.6,193.1,96.4,193.9,97.6,194.6z"/>
								<path d="M115.1,211.1l0.4-37.8l12.8,7.2l-0.1,6.3c2.8-2.9,5.9-3.5,9.1-1.6c0.5,0.3,1.1,0.7,1.8,1.3l-0.1,9.4
									c-0.7-0.6-1.4-1-2.1-1.4c-3.5-1.8-6.4-2-8.8-0.4l-0.2,24.2L115.1,211.1z"/>
								<path d="M138.6,224.3l0.5-52.9l12.7,7.2l-0.3,29.3l11.1-7.9l14.3,8.1l-12.1,8.7l11.6,29l-14-7.9l-7.7-22.4l-3.4,1.6
									l-0.1,14.4L138.6,224.3z"/>
							</g>
							
								<linearGradient id="_Path_164_1_" gradientUnits="userSpaceOnUse" x1="182.3867" y1="314.2618" x2="126.1268" y2="214.7418" gradientTransform="matrix(1 0 0 -1 0 464)">
								<stop  offset="0" style="stop-color:#FFEAA8"/>
								<stop  offset="0.27" style="stop-color:#FEE9A8;stop-opacity:0.99"/>
								<stop  offset="0.37" style="stop-color:#FBE7A6;stop-opacity:0.97"/>
								<stop  offset="0.44" style="stop-color:#F5E2A4;stop-opacity:0.93"/>
								<stop  offset="0.49" style="stop-color:#EDDBA1;stop-opacity:0.87"/>
								<stop  offset="0.54" style="stop-color:#E3D39D;stop-opacity:0.79"/>
								<stop  offset="0.58" style="stop-color:#D6C898;stop-opacity:0.69"/>
								<stop  offset="0.62" style="stop-color:#C6BC92;stop-opacity:0.58"/>
								<stop  offset="0.66" style="stop-color:#B5AD8B;stop-opacity:0.44"/>
								<stop  offset="0.69" style="stop-color:#A19D83;stop-opacity:0.3"/>
								<stop  offset="0.71" style="stop-color:#94927E;stop-opacity:0.2"/>
								<stop  offset="1" style="stop-color:#314056;stop-opacity:0"/>
							</linearGradient>
							<polygon id="_Path_164" class="st15" points="149.5,129.1 170,274.7 99.7,234.1 137.8,125.7 146.6,130.8 							"/>
							
								<linearGradient id="_Path_165_1_" gradientUnits="userSpaceOnUse" x1="136.0467" y1="343.1919" x2="79.7867" y2="243.6618" gradientTransform="matrix(1 0 0 -1 0 464)">
								<stop  offset="0" style="stop-color:#FFEAA8"/>
								<stop  offset="0.27" style="stop-color:#FEE9A8;stop-opacity:0.99"/>
								<stop  offset="0.37" style="stop-color:#FBE7A6;stop-opacity:0.97"/>
								<stop  offset="0.44" style="stop-color:#F5E2A4;stop-opacity:0.93"/>
								<stop  offset="0.49" style="stop-color:#EDDBA1;stop-opacity:0.87"/>
								<stop  offset="0.54" style="stop-color:#E3D39D;stop-opacity:0.79"/>
								<stop  offset="0.58" style="stop-color:#D6C898;stop-opacity:0.69"/>
								<stop  offset="0.62" style="stop-color:#C6BC92;stop-opacity:0.58"/>
								<stop  offset="0.66" style="stop-color:#B5AD8B;stop-opacity:0.44"/>
								<stop  offset="0.69" style="stop-color:#A19D83;stop-opacity:0.3"/>
								<stop  offset="0.71" style="stop-color:#94927E;stop-opacity:0.2"/>
								<stop  offset="1" style="stop-color:#314056;stop-opacity:0"/>
							</linearGradient>
							<polygon id="_Path_165" class="st16" points="103.1,100.2 123.6,245.7 53.4,205.2 91.4,96.8 100.2,101.9 							"/>
							
								<linearGradient id="_Path_166_1_" gradientUnits="userSpaceOnUse" x1="86.1306" y1="372.6997" x2="29.8606" y2="273.1697" gradientTransform="matrix(1 0 0 -1 0 464)">
								<stop  offset="0" style="stop-color:#FFEAA8"/>
								<stop  offset="0.27" style="stop-color:#FEE9A8;stop-opacity:0.99"/>
								<stop  offset="0.37" style="stop-color:#FBE7A6;stop-opacity:0.97"/>
								<stop  offset="0.44" style="stop-color:#F5E2A4;stop-opacity:0.93"/>
								<stop  offset="0.49" style="stop-color:#EDDBA1;stop-opacity:0.87"/>
								<stop  offset="0.54" style="stop-color:#E3D39D;stop-opacity:0.79"/>
								<stop  offset="0.58" style="stop-color:#D6C898;stop-opacity:0.69"/>
								<stop  offset="0.62" style="stop-color:#C6BC92;stop-opacity:0.58"/>
								<stop  offset="0.66" style="stop-color:#B5AD8B;stop-opacity:0.44"/>
								<stop  offset="0.69" style="stop-color:#A19D83;stop-opacity:0.3"/>
								<stop  offset="0.71" style="stop-color:#94927E;stop-opacity:0.2"/>
								<stop  offset="1" style="stop-color:#314056;stop-opacity:0"/>
							</linearGradient>
							<polygon id="_Path_166" class="st17" points="53.2,70.7 73.7,216.2 25.2,185.8 41.5,67.3 50.3,72.4 							"/>
							<g id="_Group_37">
								<g id="_Group_38">
									<g id="_Group_39">
										<g id="_Group_40">
											<g id="_Group_41">
												<path id="_Path_167" class="st1" d="M146,1.1L145.8,1h-0.1l0,0c-1.5-0.6-3.2-0.3-4.5,0.6L126.5,10
													c-0.7,0.5-1.2,1.3-1.2,2.2v6.2c0,0.3,0.1,0.6,0.3,0.8l0,0h0.1l10.2,5.6l11.7-11.2l6.8-5.1l1.4-2L146,1.1z"/>
												<path id="_Path_168" class="st10" d="M147.4,13.6l5.7-4.3l-7.4-4l-0.2-0.1h-0.1l0,0c-1.5-0.6-3.2-0.3-4.5,0.6L126.2,14
													c-0.5,0.3-0.9,0.9-1.1,1.5v2.9c0,0.3,0.1,0.6,0.3,0.8l0,0h0.1l10.2,5.6L147.4,13.6z"/>
												<path id="_Compound_Path_21" class="st0" d="M135.9,25.5l-10.8-5.9c-0.3-0.3-0.5-0.7-0.5-1.2v-6.3
													c0.1-1.1,0.6-2.1,1.6-2.7L140.9,1c1.4-0.9,3.1-1.2,4.7-0.7l0,0l0.4,0.1l0.3,0.2l10.3,5.6l-1.9,2.7l-6.8,5.1L135.9,25.5z
													 M125.9,18.7l9.8,5.3l11.4-10.9l6.8-5.1l1-1.4l-9.3-5.1l0,0h-0.1c-1.3-0.5-2.8-0.3-4,0.6l-14.7,8.4
													c-0.6,0.4-0.9,1-1,1.7v6.3c0,0.2,0,0.3,0.1,0.3L125.9,18.7z"/>
											</g>
											<g id="_Group_42">
												<path id="_Path_169" class="st18" d="M158.1,11L158.1,11c0-4.3-3-6.1-6.7-3.9l-14.7,8.4c-0.7,0.5-1.2,1.3-1.2,2.2V24
													c0,0.8,0.6,1.1,1.2,0.7l20.2-11.5C157.6,12.7,158,11.9,158.1,11z"/>
												<path id="_Compound_Path_22" class="st0" d="M136.1,25.4c-0.2,0-0.4-0.1-0.6-0.2c-0.4-0.3-0.7-0.8-0.7-1.3v-6.3
													c0.1-1.1,0.6-2.1,1.6-2.7l14.7-8.4c2-1.1,3.9-1.3,5.3-0.5s2.3,2.6,2.3,4.9c-0.1,1.1-0.6,2.1-1.6,2.7L137,25.2
													C136.7,25.4,136.4,25.4,136.1,25.4z M154.4,6.7c-1,0-1.9,0.3-2.7,0.8L137,15.9c-0.6,0.4-0.9,1-1,1.7V24
													c0,0.2,0.1,0.3,0.1,0.3c0.1,0,0.2,0,0.3-0.1l20.2-11.5c0.6-0.4,0.9-1,1-1.7c0-1.9-0.6-3.2-1.7-3.9
													C155.4,6.9,154.9,6.7,154.4,6.7z"/>
											</g>
										</g>
										<g id="_Group_43">
											<g id="_Group_44">
												<path id="_Path_170" class="st1" d="M110.6,53.4L110.6,53.4c-1.8,0-3.2-1.4-3.2-3.2V37.1c0.3-6,3.5-11.5,8.6-14.8
													l11.5-6.6c1.5-0.9,3.5-0.3,4.3,1.2l0,0c0.9,1.5,0.3,3.5-1.2,4.3l-11.5,6.6c-3.1,2.1-5.1,5.5-5.4,9.3v13.2
													C113.8,52,112.4,53.4,110.6,53.4C110.6,53.4,110.6,53.4,110.6,53.4z"/>
												<path id="_Path_171" class="st10" d="M119,27.6l11.6-6.6c0.5-0.3,0.9-0.7,1.2-1.2v0c-0.9-1.5-2.8-2.1-4.3-1.2l-11.5,6.6
													c-5.1,3.2-8.3,8.7-8.6,14.8V50c0,1.8,1.4,3.2,3.2,3.2l0,0c1.7,0,3.1-1.4,3.1-3.2V36.8C113.9,33.1,115.9,29.7,119,27.6z"
													/>
												<path id="_Compound_Path_23" class="st0" d="M110.6,54c-2.1,0-3.8-1.7-3.8-3.8l0,0V37.1c0-5.7,3.9-12.4,8.8-15.3
													l11.5-6.6c1.8-1.1,4.1-0.6,5.2,1.2c1.1,1.8,0.6,4.1-1.2,5.2c-0.1,0.1-0.2,0.1-0.3,0.2l-11.5,6.6c-2.9,2-4.8,5.2-5.1,8.7
													v13.2C114.3,52.3,112.7,54,110.6,54z M129.1,15.9c-0.4,0-0.9,0.1-1.3,0.3l-11.5,6.6c-4.9,3.1-8,8.4-8.3,14.3v13.1
													c0,1.4,1.2,2.6,2.6,2.6l0,0c1.4,0,2.6-1.2,2.6-2.6V37.1c0.3-4,2.4-7.6,5.7-9.8l11.5-6.6c1.2-0.7,1.7-2.3,0.9-3.5
													C130.8,16.4,130,15.9,129.1,15.9L129.1,15.9z"/>
											</g>
										</g>
									</g>
									<g id="_Group_45">
										<g id="_Group_46">
											<g id="_Group_47">
												<path id="_Path_172" class="st1" d="M73.6,76.7L73.6,76.7c-1.8,0-3.2-1.4-3.2-3.2V58.7c0-1.2-0.3-1.7-0.4-1.7
													s-0.7-0.1-1.7,0.5l-16.5,9.7c-1.5,0.9-3.5,0.4-4.3-1.1c0,0,0,0,0,0l0,0c-0.9-1.5-0.4-3.5,1.1-4.3c0,0,0,0,0,0L65,52
													c2.8-1.6,5.8-1.8,8.1-0.5s3.6,4,3.6,7.2v14.8C76.7,75.3,75.3,76.7,73.6,76.7z"/>
												<path id="_Path_173" class="st10" d="M73.1,54.3c-2.3-1.3-5.2-1.2-8.1,0.5l-16.4,9.7c-0.5,0.3-0.9,0.8-1.2,1.3
													c0,0.1,0.1,0.2,0.2,0.3c0.9,1.5,2.8,2,4.3,1.1c0,0,0,0,0,0l16.4-9.7c1.1-0.6,1.6-0.6,1.8-0.5s0.4,0.5,0.4,1.7v14.9
													c0,1.8,1.4,3.2,3.2,3.2c1.5,0,2.8-1.1,3.1-2.6V61.5C76.7,58.3,75.4,55.6,73.1,54.3z"/>
												<path id="_Compound_Path_24" class="st0" d="M73.6,77.3c-2.1,0-3.8-1.7-3.8-3.8c0,0,0,0,0,0V58.7c0-0.4,0-0.8-0.2-1.2
													c-0.4,0.1-0.8,0.2-1.1,0.4l-16.4,9.7c-1.8,1.1-4.1,0.6-5.2-1.2c-1.1-1.8-0.6-4.1,1.2-5.2c0.1,0,0.1-0.1,0.2-0.1
													l16.5-9.7c3-1.8,6.2-1.9,8.7-0.5s3.9,4.2,3.9,7.7v14.8C77.3,75.6,75.6,77.3,73.6,77.3z M69.7,56.3c0.2,0,0.4,0,0.5,0.1
													c0.3,0.2,0.7,0.9,0.7,2.2v14.9c0.1,1.4,1.3,2.5,2.7,2.4c1.3-0.1,2.3-1.1,2.4-2.4V58.7c0-3-1.2-5.5-3.3-6.7
													s-4.8-1-7.5,0.5l-16.5,9.7c-1.2,0.7-1.6,2.3-0.9,3.5c0.7,1.2,2.3,1.6,3.5,0.9l16.4-9.7C68.4,56.6,69.1,56.4,69.7,56.3
													L69.7,56.3z"/>
											</g>
										</g>
										<g id="_Group_48">
											<g id="_Group_49">
												<path id="_Path_174" class="st1" d="M43.3,57.5c-0.1-0.1-0.2-0.2-0.3-0.2l0,0c-0.2,0-0.3,0.1-0.5,0.1l-14.1,8.1
													c-3.3,2.2-5.4,5.8-5.6,9.7c0,0.2,0.1,0.4,0.2,0.5l0,0l11.4,6.5l10.9-10.3l6.5-4.9l2.5-3.2c0.1-0.1,0.1-0.3,0-0.4
													c0,0,0,0,0,0L43.3,57.5z"/>
												<path id="_Path_175" class="st19" d="M42.8,61.1L42.8,61.1c-0.2,0-0.3,0.1-0.5,0.1l-14.2,8.1c-2.4,1.5-4.1,3.8-5,6.5
													l11.1,6.3l10.9-10.3l6.5-4.9l0.5-0.6l-9-5.1C43.1,61.2,43,61.1,42.8,61.1z"/>
												<path id="_Compound_Path_25" class="st0" d="M34.4,83.1l-12-6.9c-0.2-0.3-0.3-0.6-0.3-0.9c0.2-4.2,2.4-8,5.9-10.2
													l14.1-8.2c0.2-0.1,0.5-0.2,0.7-0.2h0.2l0.1,0.1c0.2,0,0.3,0.1,0.5,0.3l10.9,6.1c0.2,0.1,0.4,0.3,0.4,0.6
													c0,0.3,0,0.5-0.2,0.7l-2.6,3.3l-6.5,4.9L34.4,83.1z M23.3,75.4l10.9,6.3l10.6-10l6.5-4.9l2.3-2.8l-10.7-6.1h-0.1
													l-14.1,8.2c-3.1,2.1-5.1,5.5-5.3,9.2C23.3,75.3,23.3,75.4,23.3,75.4L23.3,75.4z"/>
											</g>
											<g id="_Group_50">
												<path id="_Path_176" class="st18" d="M34.1,81.8L34.1,81.8c0.2-4,2.3-7.6,5.6-9.8l14.1-8.2c0.6-0.3,1-0.1,1,0.6v5.3
													c0,0.7-0.4,1.4-1,1.8L35.2,82.4C34.6,82.7,34.1,82.4,34.1,81.8z"/>
												<path id="_Compound_Path_26" class="st0" d="M34.7,83.1c-0.2,0-0.4-0.1-0.6-0.2c-0.4-0.3-0.6-0.7-0.6-1.2
													c0.2-4.2,2.4-8,5.9-10.2l14.1-8.2c0.5-0.4,1.3-0.3,1.7,0.3c0.2,0.2,0.3,0.5,0.2,0.8v5.3c0,0.9-0.5,1.8-1.3,2.3
													L35.4,82.9C35.2,83,34.9,83.1,34.7,83.1z M54.3,64.3l-0.2,0.1L40,72.5c-3.1,2.1-5.1,5.5-5.3,9.2c0,0.1,0,0.1,0,0.2
													l0.2-0.1l18.7-10.8c0.4-0.3,0.7-0.8,0.8-1.3v-5.3C54.3,64.4,54.3,64.4,54.3,64.3L54.3,64.3z"/>
											</g>
										</g>
									</g>
								</g>
								<path id="_Path_177" class="st18" d="M70.2,56.5c0,0,5.9,0,5.9,6.8c-0.1,3.2,0.1,6.4,0.5,9.6c-0.1,0.8-0.3,1.7-0.5,2.5
									c-0.2,0.4-2.6,1.3-2.6,1.3l-2.3-1l-0.9-2.2L70.2,56.5z"/>
								<path id="_Path_178" class="st18" d="M108,38.9c0,0-0.3-4.8,9.6-10.7s-0.6,1.4-0.6,1.4l-2.3,3.6l-0.9,3.9v8.6l-0.1,5.4
									l-1.6,2.3l-2.2-0.2l-2.3-1V39.7L108,38.9z"/>
							</g>
							<g id="_Group_51">
								<g id="_Group_52">
									<g id="_Group_53">
										<g id="_Group_54">
											<g id="_Group_55">
												<path id="_Path_179" class="st1" d="M195.9,30.1l-0.2-0.1h-0.1l0,0c-1.5-0.6-3.2-0.3-4.5,0.6l-14.7,8.4
													c-0.7,0.5-1.2,1.2-1.3,2.1v6.3c0,0.3,0.1,0.6,0.3,0.8l0,0h0.1l10.2,5.6l11.7-11.1l6.8-5.2l1.4-2L195.9,30.1z"/>
												<path id="_Path_180" class="st10" d="M197.3,42.5l5.7-4.3l-7.4-4l-0.2-0.1h-0.1l0,0c-1.5-0.6-3.2-0.3-4.5,0.6L176.1,43
													c-0.5,0.3-0.9,0.8-1.1,1.4v3c0,0.3,0.1,0.6,0.3,0.8l0,0h0.1l10.2,5.6L197.3,42.5z"/>
												<path id="_Compound_Path_27" class="st0" d="M185.8,54.5L175,48.6c-0.3-0.3-0.5-0.7-0.5-1.2V41c0-1.1,0.6-2.1,1.6-2.7
													l14.7-8.3c1.4-0.9,3.1-1.2,4.7-0.7l0,0l0.3,0.2l0.3,0.2l10.3,5.6l-1.9,2.7l-6.8,5.1L185.8,54.5z M175.8,47.7l9.8,5.3
													L197,42.1l6.8-5.1l1-1.4l-9.3-5.1l0,0h-0.1c-1.3-0.5-2.8-0.3-4,0.6l-14.7,8.4c-0.6,0.4-0.9,1-1,1.7v6.3
													c0,0.2,0,0.3,0.1,0.3L175.8,47.7z"/>
											</g>
											<g id="_Group_56">
												<path id="_Path_181" class="st18" d="M208,40L208,40c0-4.3-3-6.1-6.7-3.9l-14.7,8.4c-0.7,0.5-1.2,1.3-1.2,2.2V53
													c0,0.8,0.6,1.1,1.2,0.7l20.2-11.5C207.5,41.7,208,40.9,208,40z"/>
												<path id="_Compound_Path_28" class="st0" d="M186,54.4c-0.2,0-0.4-0.1-0.6-0.2c-0.4-0.3-0.7-0.8-0.7-1.3v-6.4
													c0.1-1.1,0.6-2.1,1.6-2.7l14.7-8.4c2-1.1,3.9-1.3,5.3-0.5s2.3,2.6,2.3,4.9c-0.1,1.1-0.7,2.1-1.6,2.7l-20.1,11.5
													C186.6,54.3,186.3,54.4,186,54.4z M204.2,35.7c-1,0-1.9,0.3-2.7,0.8l-14.7,8.4c-0.6,0.4-0.9,1-1,1.7v6.3
													c0,0.2,0.1,0.3,0.1,0.3c0.1,0,0.2,0,0.3-0.1l20.2-11.5c0.6-0.4,0.9-1,1-1.7c0-1.9-0.6-3.2-1.7-3.9
													C205.3,35.8,204.8,35.7,204.2,35.7L204.2,35.7z"/>
											</g>
										</g>
										<g id="_Group_57">
											<g id="_Group_58">
												<path id="_Path_182" class="st1" d="M160.5,82.4L160.5,82.4c-1.8,0-3.2-1.4-3.2-3.2V66.1c0.3-6,3.5-11.5,8.6-14.8
													l11.5-6.6c1.5-0.9,3.5-0.3,4.3,1.2l0,0c0.9,1.5,0.3,3.5-1.2,4.3L169,56.8c-3.1,2.1-5.1,5.5-5.4,9.3v13.1
													C163.6,81,162.2,82.4,160.5,82.4z"/>
												<path id="_Path_183" class="st10" d="M169,56.6l11.5-6.6c0.5-0.3,0.9-0.7,1.2-1.2v0c-0.9-1.5-2.8-2.1-4.3-1.2l-11.5,6.6
													c-5.1,3.2-8.3,8.7-8.6,14.8V79c0,1.8,1.4,3.2,3.2,3.2l0,0c1.7,0,3.1-1.4,3.1-3.2V65.8C163.9,62.1,165.9,58.6,169,56.6z"
													/>
												<path id="_Compound_Path_29" class="st0" d="M160.5,83c-2.1,0-3.8-1.7-3.8-3.8V66.1c0-5.7,3.9-12.4,8.9-15.3l11.5-6.6
													c1.8-1.1,4.1-0.6,5.2,1.2c1.1,1.8,0.6,4.1-1.2,5.2c-0.1,0.1-0.2,0.1-0.3,0.2l-11.5,6.6c-2.9,2-4.8,5.2-5.1,8.8v13.2
													C164.3,81.3,162.6,83,160.5,83z M179,44.9c-0.4,0-0.9,0.1-1.3,0.3l-11.5,6.6c-4.9,3.1-8,8.5-8.3,14.3v13.1
													c0,1.4,1.2,2.6,2.6,2.6l0,0c1.4,0,2.6-1.2,2.6-2.6V66.1c0.3-4,2.4-7.6,5.7-9.8l11.5-6.6c1.2-0.7,1.7-2.3,0.9-3.5
													C180.8,45.4,179.9,44.9,179,44.9z"/>
											</g>
										</g>
									</g>
									<g id="_Group_59">
										<g id="_Group_60">
											<g id="_Group_61">
												<path id="_Path_184" class="st1" d="M123.5,105.7L123.5,105.7c-1.8,0-3.2-1.4-3.2-3.2V87.7c0-1.2-0.3-1.7-0.4-1.7
													s-0.7-0.1-1.7,0.5l-16.4,9.7c-1.5,0.9-3.5,0.4-4.3-1.1c0,0,0,0,0,0l0,0c-0.9-1.5-0.4-3.5,1.1-4.3c0,0,0,0,0,0l16.5-9.7
													c2.8-1.6,5.8-1.8,8.1-0.5s3.6,4,3.6,7.2v14.9C126.6,104.3,125.2,105.7,123.5,105.7C123.5,105.7,123.5,105.7,123.5,105.7
													z"/>
												<path id="_Path_185" class="st10" d="M123,83.3c-2.3-1.3-5.2-1.2-8.1,0.5l-16.5,9.7c-0.5,0.3-0.9,0.8-1.2,1.3
													c0,0.1,0.1,0.2,0.2,0.3c0.9,1.5,2.8,2,4.3,1.1c0,0,0,0,0,0l16.4-9.7c1.1-0.6,1.6-0.5,1.7-0.5s0.4,0.5,0.4,1.7v14.9
													c0,1.8,1.4,3.2,3.2,3.2c1.5,0,2.8-1.1,3.1-2.6V90.5C126.6,87.2,125.3,84.6,123,83.3z"/>
												<path id="_Compound_Path_30" class="st0" d="M123.5,106.3c-2.1,0-3.8-1.7-3.8-3.8c0,0,0,0,0,0V87.7c0-0.4,0-0.8-0.2-1.2
													c-0.4,0.1-0.8,0.2-1.1,0.4L102,96.6c-1.8,1.1-4.1,0.6-5.2-1.2c-1.1-1.8-0.6-4.1,1.2-5.2c0.1,0,0.1-0.1,0.2-0.1l16.5-9.7
													c3-1.8,6.2-1.9,8.7-0.5s3.9,4.2,3.9,7.7v14.9C127.2,104.6,125.5,106.3,123.5,106.3C123.5,106.3,123.5,106.3,123.5,106.3
													z M119.6,85.3c0.2,0,0.4,0,0.5,0.1c0.3,0.2,0.7,0.9,0.7,2.2v14.9c0.1,1.4,1.3,2.5,2.7,2.4c1.3-0.1,2.3-1.1,2.4-2.4V87.7
													c0-3.1-1.2-5.5-3.3-6.7s-4.8-1-7.5,0.5l-16.5,9.7c-1.2,0.7-1.6,2.3-0.9,3.5s2.3,1.6,3.5,0.9l0,0l16.4-9.7
													C118.4,85.6,119,85.4,119.6,85.3L119.6,85.3z"/>
											</g>
										</g>
										<g id="_Group_62">
											<g id="_Group_63">
												<path id="_Path_186" class="st1" d="M93.2,86.5c-0.1-0.1-0.2-0.2-0.3-0.2l0,0c-0.2,0-0.3,0.1-0.5,0.1l-14.2,8.1
													c-3.3,2.2-5.4,5.8-5.6,9.7c0,0.2,0.1,0.4,0.2,0.5l0,0l11.4,6.5L95.2,101l6.5-4.9l2.5-3.1c0.1-0.1,0.1-0.3,0-0.4
													c0,0,0,0,0,0L93.2,86.5z"/>
												<path id="_Path_187" class="st19" d="M92.8,90.1L92.8,90.1c-0.2,0-0.3,0.1-0.5,0.1l-14.2,8.1c-2.4,1.5-4.1,3.8-5,6.5
													l11.1,6.3l10.9-10.3l6.5-4.9l0.5-0.6l-9-5.1C93,90.2,92.9,90.1,92.8,90.1z"/>
												<path id="_Compound_Path_31" class="st0" d="M84.3,112.1l-12-6.9c-0.2-0.3-0.3-0.6-0.3-0.9c0.2-4.2,2.5-8,6-10.3
													l14.1-8.2c0.2-0.1,0.5-0.2,0.7-0.2H93l0.1,0.1c0.2,0,0.3,0.1,0.5,0.3l10.8,6.1c0.2,0.1,0.4,0.3,0.4,0.6
													c0,0.3,0,0.5-0.2,0.7l-2.6,3.3l-6.5,4.9L84.3,112.1z M73.2,104.4l10.9,6.3l10.6-10l6.5-4.9l2.3-2.8l-10.7-6.1h-0.1
													l-14.1,8.2c-3.1,2.1-5.1,5.5-5.3,9.2C73.2,104.3,73.2,104.4,73.2,104.4L73.2,104.4z"/>
											</g>
											<g id="_Group_64">
												<path id="_Path_188" class="st18" d="M84,110.8L84,110.8c0.2-4,2.3-7.6,5.6-9.8l14.1-8.2c0.6-0.3,1-0.1,1,0.6v5.3
													c0,0.7-0.4,1.4-1,1.8l-18.7,10.8C84.5,111.7,84,111.4,84,110.8z"/>
												<path id="_Compound_Path_32" class="st0" d="M84.6,112.1c-0.2,0-0.4-0.1-0.6-0.2c-0.4-0.3-0.6-0.7-0.6-1.2
													c0.2-4.2,2.4-8,5.9-10.2l14.1-8.2c0.5-0.4,1.3-0.3,1.7,0.3c0.2,0.2,0.3,0.5,0.2,0.8v5.3c0,0.9-0.5,1.8-1.3,2.3
													l-18.7,10.8C85.1,112,84.9,112.1,84.6,112.1z M104.2,93.3l-0.2,0.1l-14.1,8.2c-3.1,2.1-5.1,5.5-5.3,9.2
													c0,0.1,0,0.1,0,0.2l0.2-0.1l18.7-10.8c0.4-0.3,0.7-0.8,0.8-1.3v-5.3C104.2,93.4,104.2,93.4,104.2,93.3L104.2,93.3z"/>
											</g>
										</g>
									</g>
								</g>
								<path id="_Path_189" class="st18" d="M120.1,85.4c0,0,5.9,0,5.9,6.8c-0.1,3.2,0.1,6.4,0.5,9.6c-0.1,0.8-0.3,1.7-0.5,2.5
									c-0.2,0.4-2.6,1.3-2.6,1.3l-2.3-1l-0.9-2.2L120.1,85.4z"/>
								<path id="_Path_190" class="st18" d="M157.9,67.9c0,0-0.3-4.8,9.6-10.7s-0.6,1.4-0.6,1.4l-2.3,3.5l-0.9,3.9v8.6l-0.1,5.4
									l-1.6,2.3l-2.2-0.2l-2.4-1V68.7L157.9,67.9z"/>
							</g>
							<g id="_Group_65">
								<g id="_Group_66">
									<g id="_Group_67">
										<g id="_Group_68">
											<g id="_Group_69">
												<path id="_Path_191" class="st1" d="M245.8,58.7l-0.2-0.1h-0.1l0,0c-1.5-0.6-3.2-0.3-4.5,0.6l-14.7,8.4
													c-0.7,0.5-1.2,1.3-1.3,2.1V76c0,0.3,0.1,0.6,0.3,0.8l0,0h0.1l10.2,5.6l11.7-11.2l6.8-5.1l1.4-2L245.8,58.7z"/>
												<path id="_Path_192" class="st10" d="M247.2,71.2l5.7-4.3l-7.4-4l-0.2-0.1h-0.1l0,0c-1.5-0.6-3.2-0.3-4.5,0.6L226,71.6
													c-0.5,0.3-0.9,0.8-1.1,1.4v3c0,0.3,0.1,0.6,0.3,0.8l0,0h0.1l10.2,5.6L247.2,71.2z"/>
												<path id="_Compound_Path_33" class="st0" d="M235.7,83.1l-10.8-5.9c-0.3-0.3-0.5-0.7-0.5-1.2v-6.3
													c0.1-1.1,0.6-2.1,1.6-2.7l14.7-8.4c1.4-0.9,3.1-1.2,4.7-0.7l0,0l0.3,0.2l0.3,0.2l10.3,5.6l-1.9,2.7l-6.8,5.2L235.7,83.1
													z M225.7,76.3l9.8,5.3l11.4-10.9l6.8-5.1l1-1.4l-9.3-5.1l0,0h-0.1c-1.3-0.5-2.8-0.3-4,0.6L226.6,68
													c-0.6,0.4-0.9,1-1,1.7V76C225.6,76.2,225.6,76.3,225.7,76.3L225.7,76.3z"/>
											</g>
											<g id="_Group_70">
												<path id="_Path_193" class="st18" d="M257.9,68.6L257.9,68.6c0-4.3-3-6.1-6.7-3.9L236.5,73c-0.7,0.5-1.2,1.3-1.2,2.2
													v6.3c0,0.8,0.6,1.1,1.2,0.7l20.2-11.5C257.4,70.2,257.9,69.4,257.9,68.6z"/>
												<path id="_Compound_Path_34" class="st0" d="M235.9,83c-0.2,0-0.4-0.1-0.6-0.2c-0.4-0.3-0.7-0.8-0.7-1.3v-6.3
													c0-1.1,0.6-2.1,1.6-2.7l14.7-8.4c2-1.1,3.9-1.3,5.3-0.5c1.5,0.9,2.3,2.6,2.3,4.9c0,1.1-0.6,2.1-1.5,2.7l-20.2,11.5
													C236.5,82.9,236.2,83,235.9,83z M254.2,64.3c-1,0-1.9,0.3-2.7,0.8l-14.7,8.4c-0.6,0.4-0.9,1-1,1.7v6.3
													c0,0.2,0.1,0.3,0.1,0.3c0.1,0,0.2,0,0.3-0.1l20.2-11.5c0.6-0.4,0.9-1,1-1.7c0-1.9-0.6-3.2-1.7-3.9
													C255.2,64.4,254.7,64.3,254.2,64.3L254.2,64.3z"/>
											</g>
										</g>
										<g id="_Group_71">
											<g id="_Group_72">
												<path id="_Path_194" class="st1" d="M210.4,111L210.4,111c-1.8,0-3.2-1.4-3.2-3.2V94.7c0.3-6,3.5-11.5,8.6-14.8
													l11.5-6.6c1.5-0.9,3.5-0.3,4.3,1.2l0,0c0.9,1.5,0.3,3.5-1.2,4.3l-11.5,6.6c-3.1,2.1-5.1,5.5-5.4,9.3v13.2
													C213.6,109.6,212.2,111,210.4,111z"/>
												<path id="_Path_195" class="st10" d="M218.9,85.2l11.5-6.6c0.5-0.3,0.9-0.7,1.2-1.2v-0.1c-0.9-1.5-2.8-2.1-4.3-1.2
													l-11.5,6.6c-5.1,3.2-8.3,8.7-8.6,14.8v10.1c0,1.8,1.4,3.2,3.2,3.2l0,0c1.8,0,3.2-1.4,3.2-3.2V94.4
													C213.8,90.7,215.8,87.3,218.9,85.2z"/>
												<path id="_Compound_Path_35" class="st0" d="M210.4,111.6c-2.1,0-3.8-1.7-3.8-3.8V94.7c0-5.7,3.9-12.4,8.9-15.3
													l11.5-6.6c1.8-1.1,4.1-0.6,5.2,1.2c1.1,1.8,0.6,4.1-1.2,5.2c-0.1,0.1-0.2,0.1-0.3,0.2l-11.5,6.6c-2.9,2-4.8,5.2-5.1,8.8
													v13.2C214.1,109.9,212.5,111.6,210.4,111.6z M228.9,73.5c-0.4,0-0.9,0.1-1.3,0.3l-11.5,6.6c-4.9,3.1-8,8.5-8.3,14.3
													v13.2c0,1.4,1.2,2.6,2.6,2.6l0,0c1.4,0,2.6-1.2,2.6-2.6V94.7c0.3-4,2.4-7.6,5.7-9.8l11.5-6.6c1.2-0.7,1.7-2.3,0.9-3.5
													C230.7,74,229.8,73.5,228.9,73.5L228.9,73.5z"/>
											</g>
										</g>
									</g>
									<g id="_Group_73">
										<g id="_Group_74">
											<g id="_Group_75">
												<path id="_Path_196" class="st1" d="M173.4,134.3L173.4,134.3c-1.8,0-3.2-1.4-3.2-3.2v-14.9c0-1.2-0.4-1.7-0.4-1.7
													s-0.7-0.1-1.7,0.5l-16.4,9.7c-1.5,0.9-3.5,0.4-4.3-1.1c0,0,0,0,0,0l0,0c-0.9-1.5-0.4-3.5,1.1-4.3c0,0,0,0,0,0l16.5-9.7
													c2.9-1.6,5.8-1.8,8.1-0.5s3.6,4,3.6,7.2v14.9C176.6,132.9,175.2,134.3,173.4,134.3C173.4,134.3,173.4,134.3,173.4,134.3
													z"/>
												<path id="_Path_197" class="st10" d="M172.9,111.9c-2.3-1.3-5.2-1.2-8.1,0.5l-16.5,9.7c-0.5,0.3-0.9,0.8-1.2,1.3
													c0,0.1,0.1,0.2,0.1,0.3c0.9,1.5,2.8,2,4.3,1.1c0,0,0,0,0,0l16.4-9.7c1.1-0.6,1.6-0.5,1.7-0.5s0.4,0.5,0.4,1.7v14.9
													c0,1.8,1.4,3.2,3.2,3.2c1.5,0,2.8-1.1,3.1-2.6v-12.8C176.5,115.9,175.2,113.2,172.9,111.9z"/>
												<path id="_Compound_Path_36" class="st0" d="M173.4,134.9c-2.1,0-3.8-1.7-3.8-3.8v-14.9c0-0.4,0-0.8-0.2-1.2
													c-0.4,0.1-0.8,0.2-1.1,0.4l-16.4,9.7c-1.8,1.1-4.1,0.6-5.2-1.2c-1.1-1.8-0.6-4.1,1.2-5.2c0.1,0,0.1-0.1,0.2-0.1
													l16.5-9.8c3-1.8,6.2-1.9,8.7-0.5s3.9,4.2,3.9,7.7v14.9C177.1,133.2,175.5,134.9,173.4,134.9
													C173.4,134.9,173.4,134.9,173.4,134.9z M169.5,113.9c0.2,0,0.4,0,0.5,0.1c0.4,0.2,0.7,0.9,0.7,2.2v14.9
													c0.1,1.4,1.3,2.5,2.7,2.4c1.3-0.1,2.3-1.1,2.4-2.4v-14.8c0-3.1-1.2-5.5-3.3-6.7s-4.8-1-7.5,0.5l-16.5,9.7
													c-1.2,0.7-1.6,2.3-0.9,3.5c0.7,1.2,2.3,1.6,3.5,0.9l0,0l16.4-9.7C168.3,114.2,168.9,114,169.5,113.9L169.5,113.9z"/>
											</g>
										</g>
										<g id="_Group_76">
											<g id="_Group_77">
												<path id="_Path_198" class="st1" d="M143.2,115.1c-0.1-0.1-0.2-0.2-0.3-0.2l0,0c-0.2,0-0.3,0.1-0.5,0.1l-14.1,8.2
													c-3.3,2.2-5.4,5.8-5.6,9.7c0,0.2,0.1,0.4,0.2,0.5l0,0l11.4,6.5l10.9-10.3l6.5-4.9l2.5-3.2c0.1-0.1,0.1-0.3,0-0.4
													c0,0,0,0,0,0L143.2,115.1z"/>
												<path id="_Path_199" class="st19" d="M142.7,118.7L142.7,118.7c-0.2,0-0.3,0.1-0.5,0.1L128,127c-2.4,1.5-4.1,3.8-5,6.5
													l11.1,6.3l10.9-10.4l6.5-4.9l0.5-0.6l-9-5.1C142.9,118.8,142.8,118.7,142.7,118.7z"/>
												<path id="_Compound_Path_37" class="st0" d="M134.2,140.7l-12-6.9c-0.2-0.3-0.3-0.6-0.3-0.9c0.2-4.2,2.4-8,5.9-10.2
													l14.2-8.1c0.2-0.1,0.5-0.2,0.7-0.2h0.2l0.1,0.1c0.2,0,0.3,0.1,0.5,0.3l10.8,6.1c0.4,0.2,0.6,0.8,0.3,1.2
													c0,0,0,0.1-0.1,0.1l-2.6,3.2l-6.5,4.9L134.2,140.7z M123.2,133l10.9,6.3l10.6-10l6.5-4.9l2.3-2.8l-10.7-6.1h-0.1
													l-14.1,8.2c-3.1,2.1-5.1,5.5-5.3,9.2C123.1,132.9,123.1,133,123.2,133z"/>
											</g>
											<g id="_Group_78">
												<path id="_Path_200" class="st18" d="M133.9,139.4L133.9,139.4c0.2-4,2.3-7.6,5.6-9.7l14.1-8.2c0.6-0.3,1-0.1,1,0.6v5.3
													c0,0.7-0.4,1.4-1,1.8L135,140C134.4,140.3,133.9,140,133.9,139.4z"/>
												<path id="_Compound_Path_38" class="st0" d="M134.5,140.7c-0.2,0-0.4-0.1-0.6-0.1c-0.4-0.3-0.6-0.7-0.6-1.2
													c0.2-4.2,2.4-8,5.9-10.2l14.1-8.1c0.5-0.4,1.3-0.3,1.7,0.3c0.2,0.2,0.3,0.5,0.2,0.8v5.3c0,0.9-0.5,1.8-1.3,2.3
													l-18.7,10.8C135,140.6,134.8,140.7,134.5,140.7z M154.1,121.9L154,122l-14.1,8.1c-3.1,2.1-5.1,5.5-5.3,9.2
													c0,0.1,0,0.1,0,0.2l0.1-0.1l18.7-10.8c0.4-0.3,0.7-0.8,0.8-1.3v-5.3C154.1,122,154.1,122,154.1,121.9L154.1,121.9z"/>
											</g>
										</g>
									</g>
								</g>
								<path id="_Path_201" class="st18" d="M170,114c0,0,5.9,0,5.9,6.8c-0.1,3.2,0.1,6.4,0.5,9.6c-0.1,0.9-0.2,1.7-0.4,2.6
									c-0.2,0.4-2.6,1.3-2.6,1.3l-2.3-1l-0.9-2.2L170,114z"/>
								<path id="_Path_202" class="st18" d="M207.8,96.5c0,0-0.3-4.8,9.6-10.7s-0.6,1.4-0.6,1.4l-2.3,3.6l-0.9,3.9v8.6l-0.1,5.4
									l-1.7,2.3l-2.2-0.2l-2.4-1V97.3L207.8,96.5z"/>
							</g>
							<g id="_Group_79">
								<polygon id="_Path_203" class="st1" points="70.5,63.9 69.7,64.3 69.7,59.8 70.5,59.4 								"/>
							</g>
							<g id="_Group_80">
								<polygon id="_Path_204" class="st1" points="120.6,92.9 119.7,93.3 119.7,88.8 120.6,88.4 								"/>
							</g>
							<g id="_Group_81">
								<polygon id="_Path_205" class="st1" points="170.3,122.3 169.5,122.7 169.5,118.3 170.3,117.9 								"/>
							</g>
							<g id="_Group_82">
								<polygon id="_Path_206" class="st1" points="216.8,212.2 216,212.6 216,207.7 216.8,207.3 								"/>
							</g>
							<g id="_Group_83">
								<polygon id="_Path_207" class="st1" points="216.8,270.1 216,270.5 216,265.6 216.8,265.2 								"/>
							</g>
							<g id="_Group_84">
								<g id="_4">
									<g id="_Group_85">
										<path id="_Path_208" class="st1" d="M158.5,278.2l0.8,6.8c0,1.6,2.9,3.1,5.9,3.1s6-1.5,6-3.1l0.7-6.8H158.5z"/>
										<path id="_Compound_Path_39" class="st18" d="M165.1,288.4c-2.9,0-6.2-1.5-6.2-3.5l-0.8-7.1h14l-0.7,7.1
											C171.4,286.9,168,288.4,165.1,288.4z M158.9,278.5l0.7,6.4c0,1.4,2.8,2.8,5.5,2.8s5.6-1.4,5.6-2.8l0.6-6.4H158.9z"/>
									</g>
									<g id="_Group_86">
										<path id="_Path_209" class="st1" d="M172.6,272.6l-3.5,0.1c-1.3-0.4-2.6-0.7-4-0.6c-1.5,0-3.1,0.3-4.5,0.8l-3,0.1v3.3
											c0,2.3,3.4,4.2,7.5,4.2s7.5-1.9,7.5-4.2L172.6,272.6z"/>
										<path id="_Compound_Path_40" class="st18" d="M165.1,280.7c-4.4,0-7.9-2-7.9-4.5v-3.6l3.3-0.1c1.5-0.6,3-0.9,4.6-0.8
											c1.4,0,2.8,0.2,4.1,0.6l3.1-0.1c0.4,0,0.7,0.3,0.7,0.6c0,0,0,0,0,0v3.3C173,278.7,169.5,280.7,165.1,280.7z M158,273.3
											v2.9c0,2.1,3.2,3.8,7.2,3.8s7.2-1.7,7.2-3.8v-3.3l-3.2,0.1h-0.1c-1.3-0.4-2.6-0.6-3.9-0.6c-1.5,0-3,0.3-4.4,0.8h-0.1
											L158,273.3z"/>
									</g>
									<g id="_Group_87">
										<ellipse id="_Path_210" class="st1" cx="165.1" cy="273" rx="7.5" ry="3.9"/>
										<path id="_Path_211" class="st10" d="M165.1,273.7c-2.1-0.1-4.2,0.5-6,1.6c3.7,2.1,8.3,2.1,12.1,0
											C169.4,274.1,167.3,273.6,165.1,273.7z"/>
										<path id="_Compound_Path_41" class="st18" d="M165.1,277.2c-4.4,0-7.9-1.9-7.9-4.2s3.4-4.2,7.9-4.2s7.9,1.9,7.9,4.2
											S169.5,277.2,165.1,277.2z M165.1,269.4c-3.9,0-7.2,1.6-7.2,3.6s3.3,3.6,7.2,3.6s7.2-1.6,7.2-3.6S169,269.4,165.1,269.4z"
											/>
									</g>
									<g id="_Group_88">
										<path id="_Path_212" class="st20" d="M165.1,272.1c3.1,0,5.8,1,6.9,2.4c0.4-0.4,0.6-1,0.6-1.6c0-2.2-3.4-4-7.5-4
											s-7.5,1.8-7.5,4c0,0.6,0.2,1.1,0.6,1.6C159.4,273.1,162,272.1,165.1,272.1z"/>
										<path id="_Compound_Path_42" class="st18" d="M158.2,275.1l-0.3-0.3c-0.4-0.5-0.7-1.1-0.7-1.8c0-2.4,3.4-4.3,7.9-4.3
											s7.9,1.9,7.9,4.3c0,0.6-0.2,1.3-0.7,1.8l-0.3,0.3l-0.3-0.3c-1.1-1.4-3.7-2.3-6.7-2.3s-5.5,0.9-6.7,2.3L158.2,275.1z
											 M165.1,271.8c2.9,0,5.5,0.9,6.9,2.2c0.2-0.3,0.3-0.6,0.3-1c0-2-3.3-3.6-7.2-3.6S158,271,158,273c0,0.4,0.1,0.7,0.3,1
											C159.6,272.7,162.2,271.8,165.1,271.8z"/>
									</g>
									<g id="_Group_89">
										<path id="_Compound_Path_43" class="st1" d="M165.1,268.8c-4.1,0-7.5,1.9-7.5,4.2s3.4,4.2,7.5,4.2s7.5-1.9,7.5-4.2
											S169.3,268.8,165.1,268.8z M165.1,276.2c-3.5,0-6.3-1.5-6.3-3.4s2.8-3.4,6.3-3.4s6.3,1.5,6.3,3.4S168.6,276.2,165.1,276.2
											L165.1,276.2z"/>
										<path id="_Compound_Path_44" class="st19" d="M165.1,269.6c-4.1,0-7.5,1.9-7.5,4.2s3.4,4.2,7.5,4.2s7.5-1.9,7.5-4.2
											S169.3,269.6,165.1,269.6z M165.1,277c-3.5,0-6.3-1.5-6.3-3.4s2.8-3.4,6.3-3.4s6.3,1.5,6.3,3.4S168.6,277,165.1,277
											L165.1,277z"/>
										<path id="_Compound_Path_45" class="st18" d="M165.1,277.4c-4.4,0-7.9-2-7.9-4.5s3.4-4.5,7.9-4.5s7.9,2,7.9,4.5
											S169.5,277.4,165.1,277.4z M165.1,269.1c-4,0-7.2,1.7-7.2,3.8s3.2,3.8,7.2,3.8s7.2-1.7,7.2-3.8S169.1,269.1,165.1,269.1z
											 M165.1,276.5c-3.7,0-6.6-1.6-6.6-3.7s2.9-3.7,6.6-3.7s6.6,1.6,6.6,3.7S168.9,276.5,165.1,276.5L165.1,276.5z
											 M165.1,269.8c-3.2,0-6,1.4-6,3s2.7,3,6,3s6-1.4,6-3S168.4,269.8,165.1,269.8L165.1,269.8z"/>
									</g>
									<path id="_Path_213" class="st18" d="M169.9,276.8l-0.2,0.3c-0.1,0.1-5.5,7.5-10.5,4.6c-1.1-0.6-2-1.6-2.3-2.8
										c-0.3-1.7,0-3.5,1-5l0.1-0.1l0.1-2.5l-0.6,1c-0.6,0.9-2.5,4-1.9,6.9c0.4,1.6,1.5,3,3,3.7c1,0.6,2.1,0.9,3.2,0.9
										c4.9,0,9.1-5.6,9.2-5.9l0.2-0.3L169.9,276.8z"/>
								</g>
								<polygon id="_Path_214" class="st18" points="166.6,277 166.6,280.4 170.7,279.1 172.6,277.5 172.8,275.1 172.7,273.8 
									171.2,275.4 169.1,276.5 								"/>
								<polygon id="_Path_215" class="st18" points="166.6,280.6 166.2,288 168.6,287.4 170.7,286 171.1,284.3 171.6,278.4 
									169.7,279.5 167,280.2 								"/>
								<path id="_Path_216" class="st21" d="M170.2,277.5L170.2,277.5c-0.3-0.2-0.8-0.2-1,0.1c-0.7,0.8-1.4,1.5-2.1,2.2l-0.1,1.9
									c1.2-0.9,2.4-2,3.3-3.2C170.6,278.3,170.6,277.8,170.2,277.5C170.3,277.5,170.3,277.5,170.2,277.5z"/>
							</g>
						</g>
					</g>
				</g>
			</g>
		</g>
	</g>
</g>
</svg>
