<svg xmlns="http://www.w3.org/2000/svg" xmlns:xlink="http://www.w3.org/1999/xlink" viewBox="0 0 279.5 462.91"><defs><style>.cls-1{isolation:isolate;}.cls-2{fill:#16110d;}.cls-3{fill:#febd33;}.cls-4{fill:#fcebcc;}.cls-5{fill:#130e0c;}.cls-6{fill:#fbeacc;}.cls-7{fill:#f7e6cc;}.cls-8{fill:#15100c;}.cls-10,.cls-11,.cls-17,.cls-18,.cls-19,.cls-9{mix-blend-mode:screen;}.cls-9{fill:url(#linear-gradient);}.cls-10{fill:url(#linear-gradient-2);}.cls-11{fill:url(#linear-gradient-3);}.cls-12{fill:#f9e8cc;}.cls-13{fill:#f8e7cc;}.cls-14{fill:none;stroke:#16110d;stroke-miterlimit:10;stroke-width:0.93px;}.cls-15{fill:#f6e5cc;}.cls-16{font-size:65.31px;font-family:Oswald-Bold, Oswald;font-weight:700;letter-spacing:-0.07em;}.cls-17{fill:url(#linear-gradient-4);}.cls-18{fill:url(#linear-gradient-5);}.cls-19{fill:url(#linear-gradient-6);}.cls-20{fill:#140f0c;}.cls-21{fill:#fae9cc;}.cls-22{fill:#120d0c;}.cls-23{fill:#fdbc38;}</style><linearGradient id="linear-gradient" x1="273.43" y1="96.26" x2="217.17" y2="195.79" gradientUnits="userSpaceOnUse"><stop offset="0" stop-color="#ffeaa8"/><stop offset="0.27" stop-color="#fee9a8" stop-opacity="0.99"/><stop offset="0.37" stop-color="#fbe7a6" stop-opacity="0.97"/><stop offset="0.44" stop-color="#f5e2a4" stop-opacity="0.93"/><stop offset="0.49" stop-color="#eddba1" stop-opacity="0.87"/><stop offset="0.54" stop-color="#e3d39d" stop-opacity="0.79"/><stop offset="0.58" stop-color="#d6c898" stop-opacity="0.69"/><stop offset="0.62" stop-color="#c6bc92" stop-opacity="0.58"/><stop offset="0.66" stop-color="#b5ad8b" stop-opacity="0.44"/><stop offset="0.69" stop-color="#a19d83" stop-opacity="0.3"/><stop offset="0.71" stop-color="#94927e" stop-opacity="0.2"/><stop offset="1" stop-color="#314056" stop-opacity="0"/></linearGradient><linearGradient id="linear-gradient-2" x1="224.67" y1="69.96" x2="168.41" y2="169.48" xlink:href="#linear-gradient"/><linearGradient id="linear-gradient-3" x1="173.56" y1="39.07" x2="117.3" y2="138.6" xlink:href="#linear-gradient"/><linearGradient id="linear-gradient-4" x1="182.39" y1="149.74" x2="126.13" y2="249.26" xlink:href="#linear-gradient"/><linearGradient id="linear-gradient-5" x1="136.05" y1="120.81" x2="79.79" y2="220.34" xlink:href="#linear-gradient"/><linearGradient id="linear-gradient-6" x1="86.13" y1="91.3" x2="29.86" y2="190.83" xlink:href="#linear-gradient"/></defs><title>Billboard Small 1</title><g class="cls-1"><g id="Layer_2" data-name="Layer 2"><g id="Work"><g id="Work_Home" data-name="Work Home"><g id="illustrator"><g id="_Group_" data-name="&lt;Group&gt;"><g id="_Group_2" data-name="&lt;Group&gt;"><path id="_Path_" data-name="&lt;Path&gt;" class="cls-2" d="M153.63,461.49a.62.62,0,0,1,0,1.18,2.25,2.25,0,0,1-2,0,.62.62,0,0,1,0-1.18A2.26,2.26,0,0,1,153.63,461.49Z"/><path id="_Path_2" data-name="&lt;Path&gt;" class="cls-2" d="M159,458.41a.62.62,0,0,1,0,1.18,2.25,2.25,0,0,1-2,0,.62.62,0,0,1,0-1.18A2.26,2.26,0,0,1,159,458.41Z"/><path id="_Path_3" data-name="&lt;Path&gt;" class="cls-2" d="M164.3,455.33a.62.62,0,0,1,0,1.18,2.25,2.25,0,0,1-2,0,.62.62,0,0,1,0-1.18A2.25,2.25,0,0,1,164.3,455.33Z"/><path id="_Path_4" data-name="&lt;Path&gt;" class="cls-2" d="M169.63,452.25a.62.62,0,0,1,0,1.18,2.25,2.25,0,0,1-2,0,.62.62,0,0,1,0-1.18A2.26,2.26,0,0,1,169.63,452.25Z"/><path id="_Path_5" data-name="&lt;Path&gt;" class="cls-2" d="M175,449.17a.62.62,0,0,1,0,1.18,2.26,2.26,0,0,1-2,0,.62.62,0,0,1,0-1.18A2.26,2.26,0,0,1,175,449.17Z"/><path id="_Path_6" data-name="&lt;Path&gt;" class="cls-2" d="M143,461.49a.62.62,0,0,1,0,1.18,2.25,2.25,0,0,1-2,0,.62.62,0,0,1,0-1.18A2.26,2.26,0,0,1,143,461.49Z"/><path id="_Path_7" data-name="&lt;Path&gt;" class="cls-2" d="M148.3,458.41a.62.62,0,0,1,0,1.18,2.25,2.25,0,0,1-2,0,.62.62,0,0,1,0-1.18A2.25,2.25,0,0,1,148.3,458.41Z"/><path id="_Path_8" data-name="&lt;Path&gt;" class="cls-2" d="M153.63,455.33a.62.62,0,0,1,0,1.18,2.25,2.25,0,0,1-2,0,.62.62,0,0,1,0-1.18A2.25,2.25,0,0,1,153.63,455.33Z"/><path id="_Path_9" data-name="&lt;Path&gt;" class="cls-2" d="M159,452.25a.62.62,0,0,1,0,1.18,2.25,2.25,0,0,1-2,0,.62.62,0,0,1,0-1.18A2.26,2.26,0,0,1,159,452.25Z"/><path id="_Path_10" data-name="&lt;Path&gt;" class="cls-2" d="M164.3,449.17a.62.62,0,0,1,0,1.18,2.26,2.26,0,0,1-2,0,.62.62,0,0,1,0-1.18A2.26,2.26,0,0,1,164.3,449.17Z"/><path id="_Path_11" data-name="&lt;Path&gt;" class="cls-2" d="M169.63,446.09a.62.62,0,0,1,0,1.18,2.26,2.26,0,0,1-2,0,.62.62,0,0,1,0-1.18A2.25,2.25,0,0,1,169.63,446.09Z"/><path id="_Path_12" data-name="&lt;Path&gt;" class="cls-2" d="M132.29,461.49a.62.62,0,0,1,0,1.18,2.25,2.25,0,0,1-2,0,.62.62,0,0,1,0-1.18A2.26,2.26,0,0,1,132.29,461.49Z"/><path id="_Path_13" data-name="&lt;Path&gt;" class="cls-2" d="M137.63,458.41a.62.62,0,0,1,0,1.18,2.25,2.25,0,0,1-2,0,.62.62,0,0,1,0-1.18A2.25,2.25,0,0,1,137.63,458.41Z"/><path id="_Path_14" data-name="&lt;Path&gt;" class="cls-2" d="M143,455.33a.62.62,0,0,1,0,1.18,2.25,2.25,0,0,1-2,0,.62.62,0,0,1,0-1.18A2.26,2.26,0,0,1,143,455.33Z"/><path id="_Path_15" data-name="&lt;Path&gt;" class="cls-2" d="M148.3,452.25a.62.62,0,0,1,0,1.18,2.26,2.26,0,0,1-2,0,.62.62,0,0,1,0-1.18A2.26,2.26,0,0,1,148.3,452.25Z"/><path id="_Path_16" data-name="&lt;Path&gt;" class="cls-2" d="M153.63,449.17a.62.62,0,0,1,0,1.18,2.26,2.26,0,0,1-2,0,.62.62,0,0,1,0-1.18A2.25,2.25,0,0,1,153.63,449.17Z"/><path id="_Path_17" data-name="&lt;Path&gt;" class="cls-2" d="M159,446.09a.62.62,0,0,1,0,1.18,2.25,2.25,0,0,1-2,0,.62.62,0,0,1,0-1.18A2.25,2.25,0,0,1,159,446.09Z"/><path id="_Path_18" data-name="&lt;Path&gt;" class="cls-2" d="M164.3,443a.62.62,0,0,1,0,1.18,2.25,2.25,0,0,1-2,0,.62.62,0,0,1,0-1.18A2.25,2.25,0,0,1,164.3,443Z"/><path id="_Path_19" data-name="&lt;Path&gt;" class="cls-2" d="M127,458.41a.62.62,0,0,1,0,1.18,2.25,2.25,0,0,1-2,0,.62.62,0,0,1,0-1.18A2.25,2.25,0,0,1,127,458.41Z"/><path id="_Path_20" data-name="&lt;Path&gt;" class="cls-2" d="M132.29,455.33a.62.62,0,0,1,0,1.18,2.25,2.25,0,0,1-2,0,.62.62,0,0,1,0-1.18A2.26,2.26,0,0,1,132.29,455.33Z"/><path id="_Path_21" data-name="&lt;Path&gt;" class="cls-2" d="M137.63,452.25a.62.62,0,0,1,0,1.18,2.26,2.26,0,0,1-2,0,.62.62,0,0,1,0-1.18A2.26,2.26,0,0,1,137.63,452.25Z"/><path id="_Path_22" data-name="&lt;Path&gt;" class="cls-2" d="M143,449.17a.62.62,0,0,1,0,1.18,2.26,2.26,0,0,1-2,0,.62.62,0,0,1,0-1.18A2.25,2.25,0,0,1,143,449.17Z"/><path id="_Path_23" data-name="&lt;Path&gt;" class="cls-2" d="M148.3,446.09a.62.62,0,0,1,0,1.18,2.25,2.25,0,0,1-2,0,.62.62,0,0,1,0-1.18A2.25,2.25,0,0,1,148.3,446.09Z"/><path id="_Path_24" data-name="&lt;Path&gt;" class="cls-2" d="M153.63,443a.62.62,0,0,1,0,1.18,2.26,2.26,0,0,1-2,0,.62.62,0,0,1,0-1.18A2.25,2.25,0,0,1,153.63,443Z"/><path id="_Path_25" data-name="&lt;Path&gt;" class="cls-2" d="M159,439.93a.62.62,0,0,1,0,1.18,2.26,2.26,0,0,1-2,0,.62.62,0,0,1,0-1.18A2.25,2.25,0,0,1,159,439.93Z"/><path id="_Path_26" data-name="&lt;Path&gt;" class="cls-2" d="M121.58,455.3a.62.62,0,0,1,0,1.18,2.26,2.26,0,0,1-2,0,.62.62,0,0,1,0-1.18A2.25,2.25,0,0,1,121.58,455.3Z"/><path id="_Path_27" data-name="&lt;Path&gt;" class="cls-2" d="M126.91,452.22a.62.62,0,0,1,0,1.18,2.25,2.25,0,0,1-2,0,.62.62,0,0,1,0-1.18A2.25,2.25,0,0,1,126.91,452.22Z"/><path id="_Path_28" data-name="&lt;Path&gt;" class="cls-2" d="M132.25,449.14a.62.62,0,0,1,0,1.18,2.25,2.25,0,0,1-2,0,.62.62,0,0,1,0-1.18A2.26,2.26,0,0,1,132.25,449.14Z"/><path id="_Path_29" data-name="&lt;Path&gt;" class="cls-2" d="M137.58,446.06a.62.62,0,0,1,0,1.18,2.25,2.25,0,0,1-2,0,.62.62,0,0,1,0-1.18A2.26,2.26,0,0,1,137.58,446.06Z"/><path id="_Path_30" data-name="&lt;Path&gt;" class="cls-2" d="M142.91,443a.62.62,0,0,1,0,1.18,2.25,2.25,0,0,1-2,0,.62.62,0,0,1,0-1.18A2.25,2.25,0,0,1,142.91,443Z"/><path id="_Path_31" data-name="&lt;Path&gt;" class="cls-2" d="M148.25,439.9a.62.62,0,0,1,0,1.18,2.25,2.25,0,0,1-2,0,.62.62,0,0,1,0-1.18A2.25,2.25,0,0,1,148.25,439.9Z"/><path id="_Path_32" data-name="&lt;Path&gt;" class="cls-2" d="M153.58,436.82a.62.62,0,0,1,0,1.18,2.25,2.25,0,0,1-2,0,.62.62,0,0,1,0-1.18A2.26,2.26,0,0,1,153.58,436.82Z"/><path id="_Path_33" data-name="&lt;Path&gt;" class="cls-2" d="M116.24,452.22a.62.62,0,0,1,0,1.18,2.25,2.25,0,0,1-2,0,.62.62,0,0,1,0-1.18A2.25,2.25,0,0,1,116.24,452.22Z"/><path id="_Path_34" data-name="&lt;Path&gt;" class="cls-2" d="M121.58,449.14a.62.62,0,0,1,0,1.18,2.25,2.25,0,0,1-2,0,.62.62,0,0,1,0-1.18A2.26,2.26,0,0,1,121.58,449.14Z"/><path id="_Path_35" data-name="&lt;Path&gt;" class="cls-2" d="M126.91,446.06a.62.62,0,0,1,0,1.18,2.25,2.25,0,0,1-2,0,.62.62,0,0,1,0-1.18A2.26,2.26,0,0,1,126.91,446.06Z"/><path id="_Path_36" data-name="&lt;Path&gt;" class="cls-2" d="M132.25,443a.62.62,0,0,1,0,1.18,2.25,2.25,0,0,1-2,0,.62.62,0,0,1,0-1.18A2.25,2.25,0,0,1,132.25,443Z"/><path id="_Path_37" data-name="&lt;Path&gt;" class="cls-2" d="M137.58,439.9a.62.62,0,0,1,0,1.18,2.25,2.25,0,0,1-2,0,.62.62,0,0,1,0-1.18A2.26,2.26,0,0,1,137.58,439.9Z"/><path id="_Path_38" data-name="&lt;Path&gt;" class="cls-2" d="M140.87,436.82a2.26,2.26,0,0,1,2,0,.62.62,0,0,1,0,1.18,2.26,2.26,0,0,1-2,0,.62.62,0,0,1,0-1.18Z"/><path id="_Path_39" data-name="&lt;Path&gt;" class="cls-2" d="M148.25,433.74a.62.62,0,0,1,0,1.18,2.26,2.26,0,0,1-2,0C145.65,434.59,147.69,433.42,148.25,433.74Z"/><path id="_Path_40" data-name="&lt;Path&gt;" class="cls-2" d="M110.91,449.14a.62.62,0,0,1,0,1.18,2.25,2.25,0,0,1-2,0,.62.62,0,0,1,0-1.18A2.26,2.26,0,0,1,110.91,449.14Z"/><path id="_Path_41" data-name="&lt;Path&gt;" class="cls-2" d="M116.24,446.06a.62.62,0,0,1,0,1.18,2.25,2.25,0,0,1-2,0,.62.62,0,0,1,0-1.18A2.25,2.25,0,0,1,116.24,446.06Z"/><path id="_Path_42" data-name="&lt;Path&gt;" class="cls-2" d="M121.58,443a.62.62,0,0,1,0,1.18,2.25,2.25,0,0,1-2,0,.62.62,0,0,1,0-1.18A2.25,2.25,0,0,1,121.58,443Z"/><path id="_Path_43" data-name="&lt;Path&gt;" class="cls-2" d="M126.91,439.9a.62.62,0,0,1,0,1.18,2.25,2.25,0,0,1-2,0,.62.62,0,0,1,0-1.18,2.26,2.26,0,0,1,2,0Z"/><path id="_Path_44" data-name="&lt;Path&gt;" class="cls-2" d="M105.57,446.06a.62.62,0,0,1,0,1.18,2.25,2.25,0,0,1-2,0,.62.62,0,0,1,0-1.18A2.25,2.25,0,0,1,105.57,446.06Z"/><path id="_Path_45" data-name="&lt;Path&gt;" class="cls-2" d="M110.91,443a.62.62,0,0,1,0,1.18,2.25,2.25,0,0,1-2,0,.62.62,0,0,1,0-1.18A2.26,2.26,0,0,1,110.91,443Z"/><path id="_Path_46" data-name="&lt;Path&gt;" class="cls-2" d="M116.24,439.9a.62.62,0,0,1,0,1.18,2.26,2.26,0,0,1-2,0,.62.62,0,0,1,0-1.18A2.26,2.26,0,0,1,116.24,439.9Z"/><path id="_Path_47" data-name="&lt;Path&gt;" class="cls-2" d="M121.58,438a2.26,2.26,0,0,1-2,0,.62.62,0,0,1,0-1.18C120.1,436.5,122.14,437.67,121.58,438Z"/><path id="_Path_48" data-name="&lt;Path&gt;" class="cls-2" d="M100.24,443a.62.62,0,0,1,0,1.18,2.25,2.25,0,0,1-2,0,.62.62,0,0,1,0-1.18A2.26,2.26,0,0,1,100.24,443Z"/><path id="_Path_49" data-name="&lt;Path&gt;" class="cls-2" d="M105.57,439.9a.62.62,0,0,1,0,1.18,2.26,2.26,0,0,1-2,0,.62.62,0,0,1,0-1.18A2.26,2.26,0,0,1,105.57,439.9Z"/><path id="_Path_50" data-name="&lt;Path&gt;" class="cls-2" d="M110.91,436.82a.62.62,0,0,1,0,1.18,2.26,2.26,0,0,1-2,0,.62.62,0,0,1,0-1.18A2.25,2.25,0,0,1,110.91,436.82Z"/><path id="_Path_51" data-name="&lt;Path&gt;" class="cls-2" d="M94.91,439.9a.62.62,0,0,1,0,1.18,2.26,2.26,0,0,1-2,0,.62.62,0,0,1,0-1.18A2.26,2.26,0,0,1,94.91,439.9Z"/><path id="_Path_52" data-name="&lt;Path&gt;" class="cls-2" d="M100.24,436.82a.62.62,0,0,1,0,1.18,2.26,2.26,0,0,1-2,0,.62.62,0,0,1,0-1.18A2.25,2.25,0,0,1,100.24,436.82Z"/><path id="_Path_53" data-name="&lt;Path&gt;" class="cls-2" d="M105.57,433.74a.62.62,0,0,1,0,1.18,2.25,2.25,0,0,1-2,0,.62.62,0,0,1,0-1.18A2.25,2.25,0,0,1,105.57,433.74Z"/><path id="_Path_54" data-name="&lt;Path&gt;" class="cls-2" d="M89.57,436.82a.62.62,0,0,1,0,1.18,2.25,2.25,0,0,1-2,0,.62.62,0,0,1,0-1.18A2.25,2.25,0,0,1,89.57,436.82Z"/><path id="_Path_55" data-name="&lt;Path&gt;" class="cls-2" d="M94.91,433.74a.62.62,0,0,1,0,1.18,2.25,2.25,0,0,1-2,0,.62.62,0,0,1,0-1.18A2.25,2.25,0,0,1,94.91,433.74Z"/><path id="_Path_56" data-name="&lt;Path&gt;" class="cls-2" d="M100.24,430.66a.62.62,0,0,1,0,1.18,2.26,2.26,0,0,1-2,0,.62.62,0,0,1,0-1.18A2.25,2.25,0,0,1,100.24,430.66Z"/><path id="_Path_57" data-name="&lt;Path&gt;" class="cls-2" d="M84.24,433.74a.62.62,0,0,1,0,1.18,2.26,2.26,0,0,1-2,0,.62.62,0,0,1,0-1.18A2.25,2.25,0,0,1,84.24,433.74Z"/><path id="_Path_58" data-name="&lt;Path&gt;" class="cls-2" d="M89.57,430.66a.62.62,0,0,1,0,1.18,2.26,2.26,0,0,1-2,0,.62.62,0,0,1,0-1.18A2.25,2.25,0,0,1,89.57,430.66Z"/><path id="_Path_59" data-name="&lt;Path&gt;" class="cls-2" d="M94.91,427.58a.62.62,0,0,1,0,1.18,2.25,2.25,0,0,1-2,0,.62.62,0,0,1,0-1.18A2.25,2.25,0,0,1,94.91,427.58Z"/><path id="_Path_60" data-name="&lt;Path&gt;" class="cls-2" d="M78.86,430.63a.62.62,0,0,1,0,1.18,2.25,2.25,0,0,1-2,0,.62.62,0,0,1,0-1.18A2.26,2.26,0,0,1,78.86,430.63Z"/><path id="_Path_61" data-name="&lt;Path&gt;" class="cls-2" d="M84.19,427.55a.62.62,0,0,1,0,1.18,2.26,2.26,0,0,1-2,0,.62.62,0,0,1,0-1.18A2.26,2.26,0,0,1,84.19,427.55Z"/><path id="_Path_62" data-name="&lt;Path&gt;" class="cls-2" d="M89.53,424.47a.62.62,0,0,1,0,1.18,2.26,2.26,0,0,1-2,0,.62.62,0,0,1,0-1.18A2.25,2.25,0,0,1,89.53,424.47Z"/><path id="_Path_63" data-name="&lt;Path&gt;" class="cls-2" d="M73.52,427.55a.62.62,0,0,1,0,1.18,2.26,2.26,0,0,1-2,0,.62.62,0,0,1,0-1.18A2.26,2.26,0,0,1,73.52,427.55Z"/><path id="_Path_64" data-name="&lt;Path&gt;" class="cls-2" d="M78.86,424.47a.62.62,0,0,1,0,1.18,2.26,2.26,0,0,1-2,0,.62.62,0,0,1,0-1.18A2.25,2.25,0,0,1,78.86,424.47Z"/><path id="_Path_65" data-name="&lt;Path&gt;" class="cls-2" d="M84.19,421.39a.62.62,0,0,1,0,1.18,2.25,2.25,0,0,1-2,0,.62.62,0,0,1,0-1.18A2.25,2.25,0,0,1,84.19,421.39Z"/><path id="_Path_66" data-name="&lt;Path&gt;" class="cls-2" d="M68.19,424.47a.62.62,0,0,1,0,1.18,2.26,2.26,0,0,1-2,0,.62.62,0,0,1,0-1.18A2.25,2.25,0,0,1,68.19,424.47Z"/><path id="_Path_67" data-name="&lt;Path&gt;" class="cls-2" d="M73.52,421.39a.62.62,0,0,1,0,1.18,2.25,2.25,0,0,1-2,0,.62.62,0,0,1,0-1.18A2.25,2.25,0,0,1,73.52,421.39Z"/><path id="_Path_68" data-name="&lt;Path&gt;" class="cls-2" d="M78.86,418.31a.62.62,0,0,1,0,1.18,2.26,2.26,0,0,1-2,0,.62.62,0,0,1,0-1.18,2.25,2.25,0,0,1,2,0Z"/><path id="_Path_69" data-name="&lt;Path&gt;" class="cls-2" d="M68.19,418.31a.62.62,0,0,1,0,1.18,2.26,2.26,0,0,1-2,0,.62.62,0,0,1,0-1.18A2.25,2.25,0,0,1,68.19,418.31Z"/><path id="_Path_70" data-name="&lt;Path&gt;" class="cls-2" d="M73.52,415.23a.62.62,0,0,1,0,1.18,2.26,2.26,0,0,1-2,0,.62.62,0,0,1,0-1.18A2.25,2.25,0,0,1,73.52,415.23Z"/><path id="_Path_71" data-name="&lt;Path&gt;" class="cls-2" d="M178.27,446.14a2.26,2.26,0,0,1,2,0,.62.62,0,0,1,0,1.18,2.25,2.25,0,0,1-2,0A.62.62,0,0,1,178.27,446.14Z"/><path id="_Path_72" data-name="&lt;Path&gt;" class="cls-2" d="M185.65,443.05a.62.62,0,0,1,0,1.18,2.25,2.25,0,0,1-2,0,.62.62,0,0,1,0-1.18A2.26,2.26,0,0,1,185.65,443.05Z"/><path id="_Path_73" data-name="&lt;Path&gt;" class="cls-2" d="M191,440a.62.62,0,0,1,0,1.18,2.26,2.26,0,0,1-2,0,.62.62,0,0,1,0-1.18A2.26,2.26,0,0,1,191,440Z"/><path id="_Path_74" data-name="&lt;Path&gt;" class="cls-2" d="M196.32,436.89a.62.62,0,0,1,0,1.18,2.26,2.26,0,0,1-2,0,.62.62,0,0,1,0-1.18A2.25,2.25,0,0,1,196.32,436.89Z"/><path id="_Path_75" data-name="&lt;Path&gt;" class="cls-2" d="M201.66,433.81a.62.62,0,0,1,0,1.18,2.25,2.25,0,0,1-2,0,.62.62,0,0,1,0-1.18A2.25,2.25,0,0,1,201.66,433.81Z"/><path id="_Path_76" data-name="&lt;Path&gt;" class="cls-2" d="M207,430.73a.62.62,0,0,1,0,1.18,2.26,2.26,0,0,1-2,0,.62.62,0,0,1,0-1.18A2.25,2.25,0,0,1,207,430.73Z"/><path id="_Path_77" data-name="&lt;Path&gt;" class="cls-2" d="M212.32,427.65a.62.62,0,0,1,0,1.18,2.26,2.26,0,0,1-2,0,.62.62,0,0,1,0-1.18A2.25,2.25,0,0,1,212.32,427.65Z"/><path id="_Path_78" data-name="&lt;Path&gt;" class="cls-2" d="M172.94,443.06a2.25,2.25,0,0,1,2,0,.62.62,0,0,1,0,1.18,2.25,2.25,0,0,1-2,0A.62.62,0,0,1,172.94,443.06Z"/><path id="_Path_79" data-name="&lt;Path&gt;" class="cls-2" d="M180.32,440a.62.62,0,0,1,0,1.18,2.26,2.26,0,0,1-2,0,.62.62,0,0,1,0-1.18A2.25,2.25,0,0,1,180.32,440Z"/><path id="_Path_80" data-name="&lt;Path&gt;" class="cls-2" d="M185.65,436.89a.62.62,0,0,1,0,1.18,2.25,2.25,0,0,1-2,0,.62.62,0,0,1,0-1.18A2.25,2.25,0,0,1,185.65,436.89Z"/><path id="_Path_81" data-name="&lt;Path&gt;" class="cls-2" d="M191,433.81a.62.62,0,0,1,0,1.18,2.25,2.25,0,0,1-2,0,.62.62,0,0,1,0-1.18A2.25,2.25,0,0,1,191,433.81Z"/><path id="_Path_82" data-name="&lt;Path&gt;" class="cls-2" d="M196.32,430.73a.62.62,0,0,1,0,1.18,2.26,2.26,0,0,1-2,0,.62.62,0,0,1,0-1.18A2.25,2.25,0,0,1,196.32,430.73Z"/><path id="_Path_83" data-name="&lt;Path&gt;" class="cls-2" d="M201.66,427.65a.62.62,0,0,1,0,1.18,2.26,2.26,0,0,1-2,0,.62.62,0,0,1,0-1.18A2.25,2.25,0,0,1,201.66,427.65Z"/><path id="_Path_84" data-name="&lt;Path&gt;" class="cls-2" d="M207,424.57a.62.62,0,0,1,0,1.18,2.25,2.25,0,0,1-2,0,.62.62,0,0,1,0-1.18A2.25,2.25,0,0,1,207,424.57Z"/><path id="_Path_85" data-name="&lt;Path&gt;" class="cls-2" d="M212.32,421.49a.62.62,0,0,1,0,1.18,2.25,2.25,0,0,1-2,0,.62.62,0,0,1,0-1.18A2.26,2.26,0,0,1,212.32,421.49Z"/><path id="_Path_86" data-name="&lt;Path&gt;" class="cls-2" d="M167.6,440a2.25,2.25,0,0,1,2,0,.62.62,0,0,1,0,1.18,2.25,2.25,0,0,1-2,0A.62.62,0,0,1,167.6,440Z"/><path id="_Path_87" data-name="&lt;Path&gt;" class="cls-2" d="M175,436.89a.62.62,0,0,1,0,1.18,2.25,2.25,0,0,1-2,0,.62.62,0,0,1,0-1.18A2.25,2.25,0,0,1,175,436.89Z"/><path id="_Path_88" data-name="&lt;Path&gt;" class="cls-2" d="M180.32,433.81a.62.62,0,0,1,0,1.18,2.25,2.25,0,0,1-2,0,.62.62,0,0,1,0-1.18A2.25,2.25,0,0,1,180.32,433.81Z"/><path id="_Path_89" data-name="&lt;Path&gt;" class="cls-2" d="M185.65,430.73a.62.62,0,0,1,0,1.18,2.26,2.26,0,0,1-2,0,.62.62,0,0,1,0-1.18A2.25,2.25,0,0,1,185.65,430.73Z"/><path id="_Path_90" data-name="&lt;Path&gt;" class="cls-2" d="M191,427.65a.62.62,0,0,1,0,1.18,2.26,2.26,0,0,1-2,0,.62.62,0,0,1,0-1.18A2.25,2.25,0,0,1,191,427.65Z"/><path id="_Path_91" data-name="&lt;Path&gt;" class="cls-2" d="M196.32,424.57a.62.62,0,0,1,0,1.18,2.25,2.25,0,0,1-2,0,.62.62,0,0,1,0-1.18A2.26,2.26,0,0,1,196.32,424.57Z"/><path id="_Path_92" data-name="&lt;Path&gt;" class="cls-2" d="M201.66,421.49a.62.62,0,0,1,0,1.18,2.25,2.25,0,0,1-2,0,.62.62,0,0,1,0-1.18A2.26,2.26,0,0,1,201.66,421.49Z"/><path id="_Path_93" data-name="&lt;Path&gt;" class="cls-2" d="M207,418.41a.62.62,0,0,1,0,1.18,2.25,2.25,0,0,1-2,0,.62.62,0,0,1,0-1.18A2.25,2.25,0,0,1,207,418.41Z"/><path id="_Path_94" data-name="&lt;Path&gt;" class="cls-2" d="M162.27,436.9a2.25,2.25,0,0,1,2,0,.62.62,0,0,1,0,1.18,2.26,2.26,0,0,1-2,0A.62.62,0,0,1,162.27,436.9Z"/><path id="_Path_95" data-name="&lt;Path&gt;" class="cls-2" d="M169.65,433.81a.62.62,0,0,1,0,1.18,2.26,2.26,0,0,1-2,0,.62.62,0,0,1,0-1.18A2.25,2.25,0,0,1,169.65,433.81Z"/><path id="_Path_96" data-name="&lt;Path&gt;" class="cls-2" d="M175,430.73a.62.62,0,0,1,0,1.18,2.26,2.26,0,0,1-2,0,.62.62,0,0,1,0-1.18A2.25,2.25,0,0,1,175,430.73Z"/><path id="_Path_97" data-name="&lt;Path&gt;" class="cls-2" d="M180.32,427.65a.62.62,0,0,1,0,1.18,2.25,2.25,0,0,1-2,0,.62.62,0,0,1,0-1.18A2.25,2.25,0,0,1,180.32,427.65Z"/><path id="_Path_98" data-name="&lt;Path&gt;" class="cls-2" d="M185.65,424.57a.62.62,0,0,1,0,1.18,2.25,2.25,0,0,1-2,0,.62.62,0,0,1,0-1.18A2.26,2.26,0,0,1,185.65,424.57Z"/><path id="_Path_99" data-name="&lt;Path&gt;" class="cls-2" d="M191,421.49a.62.62,0,0,1,0,1.18,2.25,2.25,0,0,1-2,0,.62.62,0,0,1,0-1.18A2.26,2.26,0,0,1,191,421.49Z"/><path id="_Path_100" data-name="&lt;Path&gt;" class="cls-2" d="M196.32,418.41a.62.62,0,0,1,0,1.18,2.25,2.25,0,0,1-2,0,.62.62,0,0,1,0-1.18A2.25,2.25,0,0,1,196.32,418.41Z"/><path id="_Path_101" data-name="&lt;Path&gt;" class="cls-2" d="M201.66,415.33a.62.62,0,0,1,0,1.18,2.25,2.25,0,0,1-2,0,.62.62,0,0,1,0-1.18A2.26,2.26,0,0,1,201.66,415.33Z"/><path id="_Path_102" data-name="&lt;Path&gt;" class="cls-2" d="M156.89,433.79a2.26,2.26,0,0,1,2,0,.62.62,0,0,1,0,1.18,2.25,2.25,0,0,1-2,0A.62.62,0,0,1,156.89,433.79Z"/><path id="_Path_103" data-name="&lt;Path&gt;" class="cls-2" d="M164.27,430.7a.62.62,0,0,1,0,1.18,2.25,2.25,0,0,1-2,0,.62.62,0,0,1,0-1.18A2.26,2.26,0,0,1,164.27,430.7Z"/><path id="_Path_104" data-name="&lt;Path&gt;" class="cls-2" d="M169.6,427.62a.62.62,0,0,1,0,1.18,2.26,2.26,0,0,1-2,0,.62.62,0,0,1,0-1.18A2.26,2.26,0,0,1,169.6,427.62Z"/><path id="_Path_105" data-name="&lt;Path&gt;" class="cls-2" d="M174.94,424.54a.62.62,0,0,1,0,1.18,2.26,2.26,0,0,1-2,0,.62.62,0,0,1,0-1.18A2.25,2.25,0,0,1,174.94,424.54Z"/><path id="_Path_106" data-name="&lt;Path&gt;" class="cls-2" d="M180.27,421.46a.62.62,0,0,1,0,1.18,2.25,2.25,0,0,1-2,0,.62.62,0,0,1,0-1.18A2.25,2.25,0,0,1,180.27,421.46Z"/><path id="_Path_107" data-name="&lt;Path&gt;" class="cls-2" d="M185.61,418.38a.62.62,0,0,1,0,1.18,2.25,2.25,0,0,1-2,0,.62.62,0,0,1,0-1.18A2.25,2.25,0,0,1,185.61,418.38Z"/><path id="_Path_108" data-name="&lt;Path&gt;" class="cls-2" d="M153.59,430.7a.62.62,0,0,1,0,1.18,2.25,2.25,0,0,1-2,0C151,431.56,153,430.38,153.59,430.7Z"/></g><g id="_Group_3" data-name="&lt;Group&gt;"><g id="_Group_4" data-name="&lt;Group&gt;"><polygon id="_Path_109" data-name="&lt;Path&gt;" class="cls-3" points="201.94 410.45 136.09 448.47 70.25 410.45 136.09 372.44 201.94 410.45"/><polygon id="_Path_110" data-name="&lt;Path&gt;" class="cls-4" points="201.94 417.14 136.09 455.15 70.25 417.14 136.09 379.12 201.94 417.14"/><polygon id="_Path_111" data-name="&lt;Path&gt;" class="cls-3" points="70.25 410.45 70.25 416.45 136.09 454.47 136.09 448.47 70.25 410.45"/><g id="_Group_5" data-name="&lt;Group&gt;"><polygon id="_Path_112" data-name="&lt;Path&gt;" class="cls-5" points="201.94 410.45 201.94 416.45 136.09 454.47 136.09 448.47 201.94 410.45"/><path id="_Compound_Path_" data-name="&lt;Compound Path&gt;" class="cls-2" d="M202.53,410.11l-66.14-38.18-.29-.17L69.66,410.11v6.68l66.43,38.36,66.43-38.36Zm-66.43-37,64.67,37.34-21,12.1-43.71,25.24L71.42,410.45Zm-65.26,43v-4.65l64.68,37.34v4.65Zm130.52-4.65v4.65l-64.68,37.34v-4.65L167.45,431Z"/></g></g><g id="_Group_6" data-name="&lt;Group&gt;"><g id="_Group_7" data-name="&lt;Group&gt;"><g id="_Group_8" data-name="&lt;Group&gt;"><g id="_Group_9" data-name="&lt;Group&gt;"><path id="_Path_113" data-name="&lt;Path&gt;" class="cls-3" d="M160.87,410.77l0-6.87a1.22,1.22,0,0,0-1.22-1.23h-3.61a20.56,20.56,0,0,0-2.43-1.66c-9.69-5.59-25.39-5.59-35.08,0a20.54,20.54,0,0,0-2.43,1.66h-3.58a1.22,1.22,0,0,0-1.22,1.22v6.83q0,.41,0,.83v0c.3,3.42,2.71,7.1,7.23,9.71,9.69,5.59,25.39,5.59,35.08,0,4.52-2.61,6.9-6,7.2-9.39l0-.34h0C160.88,411.27,160.88,411,160.87,410.77Z"/><path id="_Compound_Path_2" data-name="&lt;Compound Path&gt;" class="cls-2" d="M136.09,426c-6.46,0-12.92-1.42-17.83-4.26-4.27-2.46-7-6.15-7.49-9.9h0v-.32a8.26,8.26,0,0,1,0-.85v-6.8a1.81,1.81,0,0,1,1.81-1.81h3.37a20.51,20.51,0,0,1,2.34-1.58c9.83-5.68,25.83-5.68,35.67,0a20.27,20.27,0,0,1,2.34,1.58h3.4a1.81,1.81,0,0,1,1.81,1.81l0,6.86c0,.27,0,.54,0,.8l0,.36c-.33,3.75-3,7.25-7.5,9.85C149,424.6,142.55,426,136.09,426ZM111.91,411.5c.31,3.46,2.91,6.92,6.94,9.25,9.51,5.49,25,5.49,34.5,0,4.16-2.4,6.62-5.58,6.91-8.94l0-.33c0-.22,0-.45,0-.69l0-6.9a.64.64,0,0,0-.19-.45.63.63,0,0,0-.45-.19h-3.81l-.16-.12a19.69,19.69,0,0,0-2.37-1.61c-9.51-5.49-25-5.49-34.49,0a19.93,19.93,0,0,0-2.37,1.62l-.16.12h-3.78a.64.64,0,0,0-.63.64v6.83C111.9,411,111.9,411.25,111.91,411.5Z"/></g><g id="_Group_10" data-name="&lt;Group&gt;"><path id="_Path_114" data-name="&lt;Path&gt;" class="cls-3" d="M153.63,393.27c9.69,5.59,9.69,14.66,0,20.25s-25.39,5.59-35.08,0-9.69-14.66,0-20.25S143.95,387.68,153.63,393.27Z"/><path id="_Path_115" data-name="&lt;Path&gt;" class="cls-6" d="M118.57,398.44c-3.71,2.14-6,4.79-6.85,7.57.88,2.76,3.15,5.39,6.84,7.52,9.69,5.59,25.39,5.59,35.08,0,3.71-2.14,6-4.79,6.85-7.57-.88-2.76-3.15-5.39-6.84-7.52C144,392.85,128.26,392.85,118.57,398.44Z"/><path id="_Compound_Path_3" data-name="&lt;Compound Path&gt;" class="cls-2" d="M136.09,418.29c-6.46,0-12.92-1.42-17.83-4.26s-7.56-6.59-7.56-10.63,2.69-7.82,7.56-10.63c9.83-5.68,25.83-5.68,35.67,0h0c4.87,2.81,7.56,6.59,7.56,10.63s-2.69,7.82-7.56,10.63S142.55,418.29,136.09,418.29Zm0-28.63c-6.25,0-12.49,1.37-17.25,4.12-4.5,2.6-7,6-7,9.62s2.48,7,7,9.62c9.51,5.49,25,5.49,34.5,0,4.5-2.6,7-6,7-9.62s-2.48-7-7-9.62C148.59,391,142.34,389.66,136.09,389.66Z"/></g></g><g id="_Group_11" data-name="&lt;Group&gt;"><path id="_Path_116" data-name="&lt;Path&gt;" class="cls-3" d="M119,403.73a1,1,0,0,1,0,1.86,3.56,3.56,0,0,1-3.22,0,1,1,0,0,1,0-1.86A3.56,3.56,0,0,1,119,403.73Z"/><path id="_Compound_Path_4" data-name="&lt;Compound Path&gt;" class="cls-2" d="M117.46,405.3a3.86,3.86,0,0,1-1.9-.46,1.56,1.56,0,0,1,0-2.87,4.13,4.13,0,0,1,3.81,0h0a1.56,1.56,0,0,1,0,2.87A3.86,3.86,0,0,1,117.46,405.3Zm0-2.63a2.72,2.72,0,0,0-1.32.3c-.23.13-.37.29-.37.42s.14.29.37.42a3,3,0,0,0,2.63,0c.23-.13.37-.3.37-.42s-.14-.29-.37-.42h0A2.72,2.72,0,0,0,117.46,402.67Z"/></g><g id="_Group_12" data-name="&lt;Group&gt;"><path id="_Path_117" data-name="&lt;Path&gt;" class="cls-3" d="M137.65,414.14a1,1,0,0,1,0,1.86,3.56,3.56,0,0,1-3.22,0,1,1,0,0,1,0-1.86A3.56,3.56,0,0,1,137.65,414.14Z"/><path id="_Compound_Path_5" data-name="&lt;Compound Path&gt;" class="cls-2" d="M136.1,415.71a3.89,3.89,0,0,1-1.9-.46,1.56,1.56,0,0,1,0-2.88,4.14,4.14,0,0,1,3.81,0,1.56,1.56,0,0,1,0,2.87A3.88,3.88,0,0,1,136.1,415.71Zm0-2.63a2.72,2.72,0,0,0-1.32.3c-.23.13-.37.29-.37.42s.14.29.37.42a3,3,0,0,0,2.63,0c.23-.13.37-.29.37-.42s-.14-.29-.37-.42h0A2.72,2.72,0,0,0,136.1,413.08Z"/></g><g id="_Group_13" data-name="&lt;Group&gt;"><path id="_Path_118" data-name="&lt;Path&gt;" class="cls-3" d="M125.05,411.24a1,1,0,0,1,0,1.86,3.56,3.56,0,0,1-3.22,0,1,1,0,0,1,0-1.86A3.56,3.56,0,0,1,125.05,411.24Z"/><path id="_Compound_Path_6" data-name="&lt;Compound Path&gt;" class="cls-2" d="M123.51,412.81a3.86,3.86,0,0,1-1.9-.46,1.56,1.56,0,0,1,0-2.87,4.13,4.13,0,0,1,3.81,0,1.56,1.56,0,0,1,0,2.87A3.86,3.86,0,0,1,123.51,412.81Zm0-2.63a2.72,2.72,0,0,0-1.32.3c-.23.13-.37.3-.37.42s.14.29.37.42a3,3,0,0,0,2.63,0c.23-.13.37-.29.37-.42s-.14-.29-.37-.42A2.72,2.72,0,0,0,123.51,410.18Z"/></g><g id="_Group_14" data-name="&lt;Group&gt;"><path id="_Path_119" data-name="&lt;Path&gt;" class="cls-3" d="M125.05,396.2a1,1,0,0,1,0,1.86,3.56,3.56,0,0,1-3.22,0,1,1,0,0,1,0-1.86A3.56,3.56,0,0,1,125.05,396.2Z"/><path id="_Compound_Path_7" data-name="&lt;Compound Path&gt;" class="cls-2" d="M123.51,397.77a3.89,3.89,0,0,1-1.9-.46,1.56,1.56,0,0,1,0-2.88,4.13,4.13,0,0,1,3.81,0,1.56,1.56,0,0,1,0,2.87A3.88,3.88,0,0,1,123.51,397.77Zm0-2.63a2.72,2.72,0,0,0-1.32.3c-.23.13-.37.3-.37.42s.14.29.37.42a3,3,0,0,0,2.63,0c.23-.13.37-.29.37-.42s-.14-.29-.37-.42A2.72,2.72,0,0,0,123.51,395.14Z"/></g><g id="_Group_15" data-name="&lt;Group&gt;"><path id="_Path_120" data-name="&lt;Path&gt;" class="cls-3" d="M150.51,396.2a1,1,0,0,1,0,1.86,3.56,3.56,0,0,1-3.22,0,1,1,0,0,1,0-1.86A3.56,3.56,0,0,1,150.51,396.2Z"/><path id="_Compound_Path_8" data-name="&lt;Compound Path&gt;" class="cls-2" d="M149,397.77a3.89,3.89,0,0,1-1.9-.46,1.56,1.56,0,0,1,0-2.88,4.13,4.13,0,0,1,3.81,0,1.56,1.56,0,0,1,0,2.87A3.88,3.88,0,0,1,149,397.77Zm0-2.63a2.72,2.72,0,0,0-1.32.3c-.23.13-.37.3-.37.42s.14.29.37.42a3,3,0,0,0,2.63,0c.23-.13.37-.29.37-.42s-.14-.29-.37-.42A2.72,2.72,0,0,0,149,395.14Z"/></g><g id="_Group_16" data-name="&lt;Group&gt;"><path id="_Path_121" data-name="&lt;Path&gt;" class="cls-3" d="M150.82,410.8a1,1,0,0,1,0,1.86,3.56,3.56,0,0,1-3.22,0,1,1,0,0,1,0-1.86A3.56,3.56,0,0,1,150.82,410.8Z"/><path id="_Compound_Path_9" data-name="&lt;Compound Path&gt;" class="cls-2" d="M149.27,412.37a3.86,3.86,0,0,1-1.9-.46,1.56,1.56,0,0,1,0-2.87,4.13,4.13,0,0,1,3.81,0,1.56,1.56,0,0,1,0,2.87A3.86,3.86,0,0,1,149.27,412.37Zm0-2.63a2.72,2.72,0,0,0-1.32.3c-.23.13-.37.3-.37.42s.14.29.37.42a3,3,0,0,0,2.63,0c.23-.13.37-.29.37-.42s-.14-.29-.37-.42A2.72,2.72,0,0,0,149.27,409.74Z"/></g><g id="_Group_17" data-name="&lt;Group&gt;"><path id="_Path_122" data-name="&lt;Path&gt;" class="cls-3" d="M156.42,403.73a1,1,0,0,1,0,1.86,3.56,3.56,0,0,1-3.22,0,1,1,0,0,1,0-1.86A3.56,3.56,0,0,1,156.42,403.73Z"/><path id="_Compound_Path_10" data-name="&lt;Compound Path&gt;" class="cls-2" d="M154.88,405.3a3.86,3.86,0,0,1-1.9-.46,1.56,1.56,0,0,1,0-2.87,4.13,4.13,0,0,1,3.81,0h0a1.56,1.56,0,0,1,0,2.87A3.86,3.86,0,0,1,154.88,405.3Zm0-2.63a2.72,2.72,0,0,0-1.32.3c-.23.13-.37.29-.37.42s.14.29.37.42a3,3,0,0,0,2.63,0c.23-.13.37-.3.37-.42s-.14-.29-.37-.42h0A2.72,2.72,0,0,0,154.88,402.67Z"/></g></g><polygon id="_Path_123" data-name="&lt;Path&gt;" class="cls-5" points="136.1 417.72 136.09 425.45 143.12 424.87 151.55 422.33 156.57 419.21 160.31 415.12 160.88 409 160.31 406.9 157.64 410.5 151.83 414.47 142.24 417.48 136.1 417.72"/></g><g id="_Group_18" data-name="&lt;Group&gt;"><g id="_Group_19" data-name="&lt;Group&gt;"><path id="_Path_124" data-name="&lt;Path&gt;" class="cls-3" d="M123.23,226.64V402.54h0c0,1.89,1.32,3.78,3.82,5.22,5,2.88,13.1,2.88,18.09,0,2.5-1.44,3.82-3.33,3.82-5.22h0V226.64Z"/><path id="_Compound_Path_11" data-name="&lt;Compound Path&gt;" class="cls-2" d="M136.09,410.5a19.08,19.08,0,0,1-9.34-2.23c-2.65-1.53-4.12-3.57-4.12-5.73V226.06h26.91V402.54c0,2.16-1.46,4.2-4.11,5.73A19.1,19.1,0,0,1,136.09,410.5ZM123.81,227.23V402.54c0,1.7,1.29,3.42,3.53,4.72,4.82,2.78,12.68,2.79,17.51,0,2.24-1.29,3.53-3,3.53-4.72V227.23Z"/></g><polygon id="_Path_125" data-name="&lt;Path&gt;" class="cls-5" points="139.2 285.15 139.2 409.68 141.73 409.16 146.1 406.9 148.9 404.13 148.9 291.42 139.2 285.15"/></g><g id="_Group_20" data-name="&lt;Group&gt;"><g id="_Group_21" data-name="&lt;Group&gt;"><polygon id="_Path_126" data-name="&lt;Path&gt;" class="cls-3" points="255.19 267.46 278.91 253.14 93.54 146.12 69.81 160.44 255.19 267.46"/><polygon id="_Path_127" data-name="&lt;Path&gt;" class="cls-7" points="254.12 272.68 277.85 258.36 92.47 151.34 68.75 165.66 254.12 272.68"/><path id="_Compound_Path_12" data-name="&lt;Compound Path&gt;" class="cls-2" d="M255.19,268.14l-.3-.17L68.66,160.45l24.87-15,.3.17L279.5,252.8v.67ZM71,160.43,255.18,266.78l22.58-13.63L93.54,146.8Z"/></g><g id="_Group_22" data-name="&lt;Group&gt;"><polygon id="_Path_128" data-name="&lt;Path&gt;" class="cls-8" points="278.91 253.14 278.91 257.67 255.19 271.99 255.19 267.46 278.91 253.14"/><path id="_Compound_Path_13" data-name="&lt;Compound Path&gt;" class="cls-2" d="M254.6,273v-5.9l24.31-14.68.59.35V258Zm1.17-5.24V271l22.55-13.61v-3.16Z"/></g></g><g id="_Group_23" data-name="&lt;Group&gt;"><polygon id="_Path_129" data-name="&lt;Path&gt;" class="cls-9" points="240.51 75.64 261 221.19 190.76 180.64 228.81 72.26 237.59 77.33 240.51 75.64"/><polygon id="_Path_130" data-name="&lt;Path&gt;" class="cls-10" points="191.75 49.34 212.24 194.88 142 154.33 180.05 45.96 188.83 51.02 191.75 49.34"/><polygon id="_Path_131" data-name="&lt;Path&gt;" class="cls-11" points="140.64 18.45 161.13 164 90.89 123.45 128.93 15.07 137.72 20.14 140.64 18.45"/><polygon id="_Path_132" data-name="&lt;Path&gt;" class="cls-3" points="248.51 282.24 63.14 175.22 63.14 27.83 248.51 134.85 248.51 282.24"/><polygon id="_Path_133" data-name="&lt;Path&gt;" class="cls-3" points="248.51 134.85 255.07 130.79 69.69 23.76 63.14 27.83 248.51 134.85"/><polygon id="_Path_134" data-name="&lt;Path&gt;" class="cls-12" points="251.36 136.6 252.07 135.48 66.69 28.45 65.99 29.57 251.36 136.6"/><g id="_Group_24" data-name="&lt;Group&gt;"><polygon id="_Path_135" data-name="&lt;Path&gt;" class="cls-8" points="248.51 282.24 248.51 134.85 255.07 130.79 255.07 278.18 248.51 282.24"/><path id="_Compound_Path_14" data-name="&lt;Compound Path&gt;" class="cls-2" d="M255.65,130.45,70,23.25l-.3-.18L62.55,27.5V175.55l186,107.37,7.13-4.42ZM69.71,24.45,253.93,130.81l-2.09,1.29-3.34,2.07L135,68.66,64.28,27.81Zm-6,150.43v-146l124.15,71.68,60.05,34.67v146Zm190.76,103-5.39,3.34v-146l2.92-1.81,2.47-1.53Z"/></g></g><g id="_Group_25" data-name="&lt;Group&gt;"><g id="_Group_26" data-name="&lt;Group&gt;"><polygon id="_Path_136" data-name="&lt;Path&gt;" class="cls-8" points="203.15 156.88 203.15 162.24 227.22 148.34 227.22 200.97 203.15 214.87 203.15 220.23 227.22 206.33 227.22 259.1 203.15 273 203.15 278.36 231.86 261.78 231.86 140.3 203.15 156.88"/><polygon id="_Path_137" data-name="&lt;Path&gt;" class="cls-3" points="47.63 67.03 52.27 69.71 76.35 55.81 121.93 82.13 97.86 96.03 102.5 98.71 126.57 84.81 172.27 111.2 148.2 125.09 152.84 127.77 176.91 113.88 222.58 140.24 198.51 154.14 203.15 156.82 231.86 140.24 76.35 50.46 47.63 67.03"/><polygon id="_Path_138" data-name="&lt;Path&gt;" class="cls-12" points="47.63 68.89 52.27 71.57 76.35 57.67 121.93 83.99 97.86 97.89 102.5 100.57 126.57 86.67 172.27 113.05 148.2 126.95 152.84 129.63 176.91 115.73 222.58 142.1 198.51 156 201.3 157.55 230.01 140.97 76.35 52.31 47.63 68.89"/></g><g id="_Group_27" data-name="&lt;Group&gt;"><polygon id="_Path_139" data-name="&lt;Path&gt;" class="cls-3" points="223.92 150.25 223.92 198.68 227.22 200.97 227.22 148.34 223.92 150.25"/><polygon id="_Path_140" data-name="&lt;Path&gt;" class="cls-3" points="223.92 198.68 216.24 203.09 216.24 207.31 227.22 200.97 223.92 198.68"/><polygon id="_Path_141" data-name="&lt;Path&gt;" class="cls-12" points="223.92 200.38 216.24 204.8 216.24 207.05 225.88 201.75 223.92 200.38"/></g><g id="_Group_28" data-name="&lt;Group&gt;"><polygon id="_Path_142" data-name="&lt;Path&gt;" class="cls-3" points="223.92 208.31 223.92 256.74 227.22 259.04 227.22 206.41 223.92 208.31"/><g id="_Group_29" data-name="&lt;Group&gt;"><polygon id="_Path_143" data-name="&lt;Path&gt;" class="cls-3" points="223.92 256.74 216.24 261.16 216.24 265.38 227.22 259.04 223.92 256.74"/><polygon id="_Path_144" data-name="&lt;Path&gt;" class="cls-13" points="223.92 258.47 216.24 262.89 216.24 265.38 225.91 259.86 223.92 258.47"/><path id="_Compound_Path_15" data-name="&lt;Compound Path&gt;" class="cls-2" d="M202.57,156.54v6.71l20.76-12v47.07l-7.67,4.42V207l-13.09,7.56v6.71l20.76-12V256.4l-7.67,4.42v4.28l-13.09,7.56v6.71l29.89-17.26V139.91l-.54-.31Zm24.07-7.18v50.5l-1.49-1-.65-.45V150.59Zm-9.81,56.94v-2.87l7.06-4.06.69.48,1.55,1.08-1,.58Zm7.67,50.14V208.65l2.14-1.23v50.5l-.17-.11Zm-7.67,5.06,7.06-4.06L226.1,259l0,0-9.3,5.37Zm14.45-.05-27.54,15.9v-4l24.07-13.9V205.32l-24.07,13.9v-4l11.92-6.88h0l12.15-7v-54h0l-24.07,13.9v-4l27.54-15.9Z"/></g></g><polygon id="_Path_145" data-name="&lt;Path&gt;" class="cls-3" points="176.91 113.88 176.91 118.27 218.97 142.33 222.58 140.24 176.91 113.88"/><polygon id="_Path_146" data-name="&lt;Path&gt;" class="cls-8" points="162.32 122.3 176.91 113.88 176.91 118.27 166.3 124.6 162.32 122.3"/><polygon id="_Path_147" data-name="&lt;Path&gt;" class="cls-3" points="126.56 84.75 126.56 89.15 168.62 113.2 172.24 111.12 126.56 84.75"/><polygon id="_Path_148" data-name="&lt;Path&gt;" class="cls-8" points="111.97 93.18 126.56 84.75 126.56 89.15 115.95 95.47 111.97 93.18"/><polygon id="_Path_149" data-name="&lt;Path&gt;" class="cls-3" points="76.37 55.75 76.37 60.15 118.43 84.2 122.04 82.12 76.37 55.75"/><g id="_Group_30" data-name="&lt;Group&gt;"><polygon id="_Path_150" data-name="&lt;Path&gt;" class="cls-8" points="61.78 64.18 76.37 55.75 76.37 60.15 65.76 66.47 61.78 64.18"/><path id="_Compound_Path_16" data-name="&lt;Compound Path&gt;" class="cls-2" d="M76.64,49.95l-.29-.17L46.46,67l5.81,3.36,9.55-5.51,3.94,2.28,10.61-6.33,40.83,23.35L96.69,96l5.81,3.36,9.53-5.5L116,96.15l10.61-6.33,41,23.43L147,125.09l5.81,3.36,9.48-5.47,4,2.3L176.92,119l40.87,23.38-20.46,11.81,5.81,3.36,29.3-16.92v-.68l-.54-.31ZM65.75,65.79,63,64.2l12.79-7.38v3Zm11.2-6v-3l43.8,25.29-2.38,1.37Zm39,35-2.75-1.59L126,85.83v3Zm11.2-9L171,111.15l-2.39,1.38L127.15,88.81Zm39.14,38.09-2.8-1.62,12.83-7.41v3ZM219,141.65,177.5,117.93v-3l43.91,25.35Zm-19.28,12.49,24.07-13.9-46.84-27-7.05,4.07-17,9.83-3.47-2,24.07-13.9-.09,0,0,0-46.84-27-15.77,9.1.05,0L102.5,98,99,96l19.35-11.17,0,0,4.79-2.76-46.84-27-15.77,9.1,0,0L52.27,69l-3.47-2,27.54-15.9,154.34,89.11-27.54,15.9Z"/></g></g><g id="_Group_31" data-name="&lt;Group&gt;"><polygon id="_Path_151" data-name="&lt;Path&gt;" class="cls-3" points="209.69 304.88 24.31 197.86 24.31 50.47 209.69 157.5 209.69 304.88"/><polygon id="_Path_152" data-name="&lt;Path&gt;" class="cls-3" points="209.69 157.5 216.24 153.43 30.87 46.41 24.31 50.47 209.69 157.5"/><polygon id="_Path_153" data-name="&lt;Path&gt;" class="cls-12" points="213.25 159.35 216.72 157.18 31.35 50.16 27.87 52.33 213.25 159.35"/><g id="_Group_32" data-name="&lt;Group&gt;"><polygon id="_Path_154" data-name="&lt;Path&gt;" class="cls-8" points="209.69 304.88 209.69 157.5 216.24 153.43 216.24 300.82 209.69 304.88"/><path id="_Compound_Path_17" data-name="&lt;Compound Path&gt;" class="cls-2" d="M216.83,153.09,31.16,45.9l-.3-.18-7.13,4.42V198.2l186,107.37,7.13-4.42ZM30.88,47.09,215.1,153.45l-1.37.85-4.06,2.52L105.38,96.6,25.45,50.45Zm-6,150.43v-146L149,123.17l60.05,34.67v146Zm190.76-43v146l-5.39,3.34v-146l3.32-2.06Z"/></g></g><g id="_Group_33" data-name="&lt;Group&gt;"><polygon id="_Path_155" data-name="&lt;Path&gt;" class="cls-3" points="185.96 307.62 209.69 293.3 24.31 186.27 0.59 200.59 185.96 307.62"/><polygon id="_Path_156" data-name="&lt;Path&gt;" class="cls-13" points="186.55 309.59 206.59 296.88 24.55 191.78 3.48 204.5 186.55 309.59"/><polygon id="_Path_157" data-name="&lt;Path&gt;" class="cls-3" points="0.59 200.59 0.59 205.12 185.96 312.14 185.96 307.62 0.59 200.59"/><ellipse id="_Path_158" data-name="&lt;Path&gt;" class="cls-3" cx="167.04" cy="286.4" rx="7.52" ry="3.91"/><g id="_Group_34" data-name="&lt;Group&gt;"><polygon id="_Path_159" data-name="&lt;Path&gt;" class="cls-8" points="209.69 293.3 209.69 297.82 185.96 312.14 185.96 307.62 209.69 293.3"/><path id="_Compound_Path_18" data-name="&lt;Compound Path&gt;" class="cls-2" d="M210.27,293,24.61,185.76l-.3-.17L0,200.26v5.2L186,312.83l24.31-14.67Zm-186-106L208.53,293.31l-10.91,6.58-11.67,7-1.26-.73L1.74,200.58ZM1.17,204.78v-3.17L185.37,308v3.17ZM209.1,297.49l-22.55,13.61v-3.16l10.85-6.55,11.71-7.07Z"/></g></g><g id="_Group_35" data-name="&lt;Group&gt;"><polygon id="_Path_160" data-name="&lt;Path&gt;" class="cls-3" points="24.31 50.47 24.31 186.27 70.66 213.03 70.66 77.23 24.31 50.47"/><polygon id="_Path_161" data-name="&lt;Path&gt;" class="cls-7" points="209.04 292.4 209.04 164.48 31.56 62.99 31.56 190.91 209.04 292.4"/><path id="_Compound_Path_19" data-name="&lt;Compound Path&gt;" class="cls-14" d="M209,292.4,23.73,186.61V50.15l.56-.37L209.33,157Z"/></g><g id="_Group_36" data-name="&lt;Group&gt;"><path id="_Path_162" data-name="&lt;Path&gt;" class="cls-3" d="M162.11,130.28V241.63h0s-.45,10.07-7.86,8.82a.1.1,0,0,0-.07.17L200,277.16c8,1.89,8.44-8.7,8.44-8.7V157Z"/><path id="_Path_163" data-name="&lt;Path&gt;" class="cls-15" d="M170,140.78V246.9c-1.27,8.12-8,7.49-8,7.49l6.69,4.39-.08.19L200,277.16c8,1.89,8.44-8.7,8.44-8.7V163Z"/><path id="_Compound_Path_20" data-name="&lt;Compound Path&gt;" class="cls-2" d="M202.12,268.16a8.49,8.49,0,0,1-1.95-.24l-.16-.06-46.26-26.79.12-.57a.69.69,0,0,1,.76-.45,5,5,0,0,0,4.16-.93c2.76-2.23,3-7.28,3-7.33V129.57L209.33,157V258.65c0,.26-.3,5.84-3.61,8.34A5.83,5.83,0,0,1,202.12,268.16Zm-1.59-1.36a5.22,5.22,0,0,0,4.49-.74c2.87-2.17,3.14-7.38,3.14-7.43V157.68L163,131.6V231.82c0,.26-.3,5.68-3.46,8.22a5.72,5.72,0,0,1-3.06,1.25l22.63,13.1Z"/></g><text class="cls-16" transform="matrix(1.2, 0.68, -0.01, 1, 37.68, 123.92)">art<tspan x="0" y="43">work</tspan></text><polygon id="_Path_164" data-name="&lt;Path&gt;" class="cls-17" points="149.47 129.12 169.96 274.66 99.72 234.11 137.76 125.74 146.55 130.8 149.47 129.12"/><polygon id="_Path_165" data-name="&lt;Path&gt;" class="cls-18" points="103.13 100.19 123.62 245.74 53.38 205.19 91.42 96.81 100.21 101.88 103.13 100.19"/><polygon id="_Path_166" data-name="&lt;Path&gt;" class="cls-19" points="53.21 70.68 73.7 216.23 25.2 185.78 41.5 67.3 50.28 72.37 53.21 70.68"/><g id="_Group_37" data-name="&lt;Group&gt;"><g id="_Group_38" data-name="&lt;Group&gt;"><g id="_Group_39" data-name="&lt;Group&gt;"><g id="_Group_40" data-name="&lt;Group&gt;"><g id="_Group_41" data-name="&lt;Group&gt;"><path id="_Path_167" data-name="&lt;Path&gt;" class="cls-3" d="M146,1.08,145.77,1l-.09,0h0a4.85,4.85,0,0,0-4.5.58l-14.7,8.39a2.78,2.78,0,0,0-1.25,2.18V18.4a.9.9,0,0,0,.33.77l0,0,.06,0,10.21,5.57,11.66-11.23,6.79-5.15,1.42-2Z"/><path id="_Path_168" data-name="&lt;Path&gt;" class="cls-12" d="M147.35,13.56l5.72-4.35-7.36-4-.22-.12-.09,0h0a4.85,4.85,0,0,0-4.5.58L126.2,14a2.76,2.76,0,0,0-1.12,1.47V18.4a.9.9,0,0,0,.33.77l0,0,.06,0,10.21,5.57Z"/><path id="_Compound_Path_21" data-name="&lt;Compound Path&gt;" class="cls-2" d="M135.92,25.51l-10.8-5.93a1.42,1.42,0,0,1-.49-1.18V12.06a3.38,3.38,0,0,1,1.55-2.68L140.87,1a5.61,5.61,0,0,1,4.74-.73l0,0L146,.4l.33.18,10.28,5.62-1.92,2.68L147.85,14Zm-10-6.78,9.79,5.34,11.35-10.94L153.85,8l1-1.4-9.32-5.1h0l-.1,0a4.32,4.32,0,0,0-4,.56l-14.7,8.39a2.2,2.2,0,0,0-1,1.67V18.4c0,.17,0,.27.08.29Z"/></g><g id="_Group_42" data-name="&lt;Group&gt;"><path id="_Path_169" data-name="&lt;Path&gt;" class="cls-20" d="M158.09,11h0c0-4.31-3-6.06-6.72-3.92l-14.7,8.39a2.78,2.78,0,0,0-1.25,2.18V24c0,.8.56,1.13,1.25.73l20.16-11.54A2.78,2.78,0,0,0,158.09,11Z"/><path id="_Compound_Path_22" data-name="&lt;Compound Path&gt;" class="cls-2" d="M136.11,25.44a1.23,1.23,0,0,1-.62-.16,1.46,1.46,0,0,1-.66-1.32V17.62a3.38,3.38,0,0,1,1.55-2.68l14.7-8.39c2-1.14,3.86-1.31,5.33-.46s2.27,2.58,2.27,4.89a3.38,3.38,0,0,1-1.55,2.68L137,25.2A1.71,1.71,0,0,1,136.11,25.44ZM154.36,6.72a5.51,5.51,0,0,0-2.7.84L137,15.95a2.2,2.2,0,0,0-1,1.67V24c0,.22.06.3.08.31a.44.44,0,0,0,.3-.09l20.17-11.54a2.2,2.2,0,0,0,1-1.67c0-1.87-.6-3.25-1.69-3.88A2.88,2.88,0,0,0,154.36,6.72Z"/></g></g><g id="_Group_43" data-name="&lt;Group&gt;"><g id="_Group_44" data-name="&lt;Group&gt;"><path id="_Path_170" data-name="&lt;Path&gt;" class="cls-3" d="M110.59,53.43h0a3.17,3.17,0,0,1-3.17-3.17V37.11A18.6,18.6,0,0,1,116,22.34l11.54-6.6a3.17,3.17,0,0,1,4.32,1.19h0a3.17,3.17,0,0,1-1.19,4.32l-11.52,6.59a12.23,12.23,0,0,0-5.36,9.26V50.26A3.17,3.17,0,0,1,110.59,53.43Z"/><path id="_Path_171" data-name="&lt;Path&gt;" class="cls-12" d="M119,27.58,130.57,21a3.14,3.14,0,0,0,1.22-1.25l0-.05a3.17,3.17,0,0,0-4.32-1.19l-11.54,6.6a18.6,18.6,0,0,0-8.56,14.76V50a3.17,3.17,0,0,0,3.17,3.17h0A3.17,3.17,0,0,0,113.68,50V36.84A12.23,12.23,0,0,1,119,27.58Z"/><path id="_Compound_Path_23" data-name="&lt;Compound Path&gt;" class="cls-2" d="M110.59,54a3.76,3.76,0,0,1-3.76-3.76V37.11c0-5.7,3.89-12.41,8.85-15.27l11.54-6.6a3.76,3.76,0,1,1,3.71,6.53l-11.52,6.58a11.73,11.73,0,0,0-5.07,8.75V50.26A3.76,3.76,0,0,1,110.59,54Zm18.49-38.09a2.56,2.56,0,0,0-1.27.34l-11.54,6.6A18,18,0,0,0,108,37.11V50.26a2.59,2.59,0,0,0,2.58,2.58h0a2.59,2.59,0,0,0,2.58-2.58V37.11a12.89,12.89,0,0,1,5.66-9.77l11.52-6.59a2.59,2.59,0,0,0-1.28-4.83Z"/></g></g></g><g id="_Group_45" data-name="&lt;Group&gt;"><g id="_Group_46" data-name="&lt;Group&gt;"><g id="_Group_47" data-name="&lt;Group&gt;"><path id="_Path_172" data-name="&lt;Path&gt;" class="cls-3" d="M73.55,76.72h0a3.17,3.17,0,0,1-3.17-3.17V58.69c0-1.23-.35-1.68-.44-1.73s-.66-.13-1.72.48L51.77,67.15A3.17,3.17,0,0,1,47.43,66h0a3.17,3.17,0,0,1,1.13-4.34L65,52c2.85-1.64,5.79-1.82,8.09-.5s3.61,4,3.61,7.23V73.55A3.17,3.17,0,0,1,73.55,76.72Z"/><path id="_Path_173" data-name="&lt;Path&gt;" class="cls-12" d="M73.07,54.31c-2.3-1.33-5.24-1.15-8.09.5L48.53,64.53a3.15,3.15,0,0,0-1.22,1.3,3.12,3.12,0,0,0,.15.33,3.17,3.17,0,0,0,4.34,1.13l16.44-9.71C69.31,57,69.87,57,70,57.09s.44.51.44,1.74V73.69a3.17,3.17,0,0,0,6.28.63V61.54C76.69,58.27,75.37,55.63,73.07,54.31Z"/><path id="_Compound_Path_24" data-name="&lt;Compound Path&gt;" class="cls-2" d="M73.55,77.3a3.76,3.76,0,0,1-3.76-3.76V58.69a3.14,3.14,0,0,0-.18-1.18,3.14,3.14,0,0,0-1.11.44L52.07,67.66a3.76,3.76,0,1,1-3.81-6.48l16.46-9.72c3-1.75,6.2-1.93,8.68-.5s3.91,4.25,3.91,7.74V73.55A3.76,3.76,0,0,1,73.55,77.3Zm-3.84-21a1,1,0,0,1,.53.12c.35.2.73.9.73,2.24V73.55a2.59,2.59,0,0,0,5.17,0V58.69c0-3.05-1.21-5.5-3.32-6.72s-4.84-1-7.5.5L48.85,62.19a2.58,2.58,0,1,0,2.62,4.46l16.44-9.71A3.77,3.77,0,0,1,69.71,56.33Z"/></g></g><g id="_Group_48" data-name="&lt;Group&gt;"><g id="_Group_49" data-name="&lt;Group&gt;"><path id="_Path_174" data-name="&lt;Path&gt;" class="cls-3" d="M43.34,57.48A.49.49,0,0,0,43,57.3l0,0a1.56,1.56,0,0,0-.51.14L28.36,65.56a12.43,12.43,0,0,0-5.63,9.74.8.8,0,0,0,.19.54h0l11.42,6.54L45.25,72.06l6.54-4.86L54.32,64a.29.29,0,0,0-.08-.43Z"/><path id="_Path_175" data-name="&lt;Path&gt;" class="cls-21" d="M42.84,61.14l0,0a1.56,1.56,0,0,0-.51.14L28.18,69.39a12.4,12.4,0,0,0-5,6.49l11.07,6.34L45.15,71.89,51.69,67l.5-.63-9-5.09A.49.49,0,0,0,42.84,61.14Z"/><path id="_Compound_Path_25" data-name="&lt;Compound Path&gt;" class="cls-2" d="M34.43,83.12l-12-6.89a1.38,1.38,0,0,1-.33-.93,13.1,13.1,0,0,1,5.92-10.25l14.11-8.15a2,2,0,0,1,.74-.21l.18,0,.13.07a1.07,1.07,0,0,1,.48.27L54.52,63.1a.88.88,0,0,1,.43.59.87.87,0,0,1-.18.71l-2.63,3.26L45.6,72.53Zm-11.1-7.71,10.92,6.26,10.59-10,6.53-4.86L53.64,64,42.91,57.89l-.14,0L28.65,66.07a11.8,11.8,0,0,0-5.33,9.23A.38.38,0,0,0,23.34,75.41Z"/></g><g id="_Group_50" data-name="&lt;Group&gt;"><path id="_Path_176" data-name="&lt;Path&gt;" class="cls-20" d="M34.1,81.76h0A12.43,12.43,0,0,1,39.72,72l14.11-8.15c.58-.33,1-.06,1,.61v5.28a2.32,2.32,0,0,1-1,1.82L35.15,82.37C34.57,82.7,34.1,82.43,34.1,81.76Z"/><path id="_Compound_Path_26" data-name="&lt;Compound Path&gt;" class="cls-2" d="M34.68,83.1a1.12,1.12,0,0,1-.56-.15,1.31,1.31,0,0,1-.6-1.19,13.1,13.1,0,0,1,5.92-10.25l14.11-8.15a1.22,1.22,0,0,1,1.93,1.11v5.28a2.88,2.88,0,0,1-1.34,2.32L35.44,82.88A1.53,1.53,0,0,1,34.68,83.1Zm19.6-18.79-.15.07L40,72.53a11.8,11.8,0,0,0-5.33,9.23.47.47,0,0,0,0,.17l.15-.07L53.54,71.07a1.76,1.76,0,0,0,.76-1.31V64.48A.47.47,0,0,0,54.27,64.31Z"/></g></g></g></g><path id="_Path_177" data-name="&lt;Path&gt;" class="cls-20" d="M70.23,56.45s5.9,0,5.9,6.83a57.31,57.31,0,0,0,.54,9.59,21,21,0,0,1-.54,2.5c-.2.43-2.59,1.34-2.59,1.34l-2.3-1-.87-2.17Z"/><path id="_Path_178" data-name="&lt;Path&gt;" class="cls-20" d="M108,38.93s-.31-4.85,9.58-10.69-.59,1.38-.59,1.38l-2.31,3.55-.93,3.94v8.61l-.13,5.41L112,53.43l-2.2-.15-2.35-1V39.69Z"/></g><g id="_Group_51" data-name="&lt;Group&gt;"><g id="_Group_52" data-name="&lt;Group&gt;"><g id="_Group_53" data-name="&lt;Group&gt;"><g id="_Group_54" data-name="&lt;Group&gt;"><g id="_Group_55" data-name="&lt;Group&gt;"><path id="_Path_179" data-name="&lt;Path&gt;" class="cls-3" d="M195.9,30.07l-.22-.12-.09,0h0a4.85,4.85,0,0,0-4.5.58l-14.7,8.39A2.78,2.78,0,0,0,175.13,41v6.34a.9.9,0,0,0,.33.77l0,0,.06,0,10.21,5.57L197.4,42.54l6.79-5.15,1.42-2Z"/><path id="_Path_180" data-name="&lt;Path&gt;" class="cls-12" d="M197.26,42.55,203,38.2l-7.36-4-.22-.12-.09,0h0a4.85,4.85,0,0,0-4.5.58L176.11,43A2.76,2.76,0,0,0,175,44.44v2.95a.9.9,0,0,0,.33.77l0,0,.06,0,10.21,5.57Z"/><path id="_Compound_Path_27" data-name="&lt;Compound Path&gt;" class="cls-2" d="M185.83,54.5,175,48.56a1.42,1.42,0,0,1-.49-1.18V41a3.38,3.38,0,0,1,1.55-2.69L190.78,30a5.61,5.61,0,0,1,4.74-.73l0,0,.31.16.33.18,10.28,5.62-1.92,2.68L197.76,43Zm-10-6.78,9.79,5.34L197,42.12,203.76,37l1-1.4-9.32-5.1h0l-.1,0a4.32,4.32,0,0,0-4,.56l-14.7,8.39a2.2,2.2,0,0,0-1,1.67v6.34c0,.17,0,.27.08.29Z"/></g><g id="_Group_56" data-name="&lt;Group&gt;"><path id="_Path_181" data-name="&lt;Path&gt;" class="cls-20" d="M208,40h0c0-4.31-3-6.06-6.72-3.92l-14.7,8.39a2.78,2.78,0,0,0-1.25,2.18v6.34c0,.8.56,1.13,1.25.73l20.16-11.54A2.78,2.78,0,0,0,208,40Z"/><path id="_Compound_Path_28" data-name="&lt;Compound Path&gt;" class="cls-2" d="M186,54.43a1.23,1.23,0,0,1-.62-.16,1.46,1.46,0,0,1-.66-1.32V46.6a3.38,3.38,0,0,1,1.55-2.68L201,35.53c2-1.14,3.86-1.31,5.33-.46s2.27,2.58,2.27,4.89A3.38,3.38,0,0,1,207,42.64L186.87,54.18A1.71,1.71,0,0,1,186,54.43Zm18.24-18.72a5.51,5.51,0,0,0-2.7.84l-14.7,8.39a2.2,2.2,0,0,0-1,1.67v6.34c0,.22.06.3.08.31a.44.44,0,0,0,.3-.09l20.17-11.54a2.2,2.2,0,0,0,1-1.67c0-1.87-.6-3.25-1.69-3.88A2.88,2.88,0,0,0,204.27,35.71Z"/></g></g><g id="_Group_57" data-name="&lt;Group&gt;"><g id="_Group_58" data-name="&lt;Group&gt;"><path id="_Path_182" data-name="&lt;Path&gt;" class="cls-3" d="M160.5,82.41h0a3.17,3.17,0,0,1-3.17-3.17V66.09a18.6,18.6,0,0,1,8.56-14.76l11.54-6.6a3.17,3.17,0,0,1,4.32,1.19h0a3.17,3.17,0,0,1-1.19,4.32L169,56.83a12.23,12.23,0,0,0-5.36,9.26V79.24A3.17,3.17,0,0,1,160.5,82.41Z"/><path id="_Path_183" data-name="&lt;Path&gt;" class="cls-12" d="M169,56.56,180.48,50a3.14,3.14,0,0,0,1.22-1.25l0-.05a3.17,3.17,0,0,0-4.32-1.19l-11.54,6.6a18.6,18.6,0,0,0-8.56,14.76V79a3.17,3.17,0,0,0,3.17,3.17h0A3.17,3.17,0,0,0,163.59,79V65.82A12.23,12.23,0,0,1,169,56.56Z"/><path id="_Compound_Path_29" data-name="&lt;Compound Path&gt;" class="cls-2" d="M160.5,83a3.76,3.76,0,0,1-3.76-3.76V66.09c0-5.7,3.89-12.41,8.85-15.27l11.54-6.6a3.76,3.76,0,1,1,3.71,6.53l-11.52,6.58a11.73,11.73,0,0,0-5.07,8.75V79.24A3.76,3.76,0,0,1,160.5,83ZM179,44.9a2.56,2.56,0,0,0-1.27.34l-11.54,6.6a18,18,0,0,0-8.26,14.26V79.24a2.59,2.59,0,0,0,2.58,2.58h0a2.59,2.59,0,0,0,2.58-2.58V66.09a12.89,12.89,0,0,1,5.66-9.77l11.52-6.59A2.59,2.59,0,0,0,179,44.9Z"/></g></g></g><g id="_Group_59" data-name="&lt;Group&gt;"><g id="_Group_60" data-name="&lt;Group&gt;"><g id="_Group_61" data-name="&lt;Group&gt;"><path id="_Path_184" data-name="&lt;Path&gt;" class="cls-3" d="M123.46,105.7h0a3.17,3.17,0,0,1-3.17-3.17V87.67c0-1.23-.35-1.68-.44-1.74s-.66-.13-1.72.48l-16.44,9.71A3.17,3.17,0,0,1,97.34,95h0a3.17,3.17,0,0,1,1.13-4.34l16.46-9.73c2.85-1.64,5.79-1.82,8.09-.5s3.61,4,3.61,7.23v14.86A3.17,3.17,0,0,1,123.46,105.7Z"/><path id="_Path_185" data-name="&lt;Path&gt;" class="cls-12" d="M123,83.29c-2.3-1.33-5.24-1.15-8.09.5L98.44,93.51a3.15,3.15,0,0,0-1.22,1.3,3.09,3.09,0,0,0,.15.33,3.17,3.17,0,0,0,4.34,1.13l16.44-9.71c1.07-.62,1.63-.54,1.72-.48s.44.51.44,1.74v14.86a3.17,3.17,0,0,0,6.28.63V90.52C126.6,87.25,125.28,84.62,123,83.29Z"/><path id="_Compound_Path_30" data-name="&lt;Compound Path&gt;" class="cls-2" d="M123.46,106.29a3.76,3.76,0,0,1-3.76-3.76V87.67a3.15,3.15,0,0,0-.18-1.18,3.14,3.14,0,0,0-1.11.44L102,96.64a3.76,3.76,0,1,1-3.81-6.48l16.46-9.72c3-1.75,6.2-1.93,8.68-.5s3.91,4.25,3.91,7.74v14.86A3.76,3.76,0,0,1,123.46,106.29Zm-3.84-21a1,1,0,0,1,.53.12c.35.2.73.9.73,2.24v14.86a2.59,2.59,0,0,0,5.17,0V87.67c0-3.05-1.21-5.5-3.32-6.72s-4.84-1-7.5.5L98.76,91.17a2.58,2.58,0,1,0,2.62,4.46l16.44-9.71A3.77,3.77,0,0,1,119.61,85.31Z"/></g></g><g id="_Group_62" data-name="&lt;Group&gt;"><g id="_Group_63" data-name="&lt;Group&gt;"><path id="_Path_186" data-name="&lt;Path&gt;" class="cls-3" d="M93.25,86.47a.5.5,0,0,0-.32-.18l0,0a1.56,1.56,0,0,0-.51.14L78.27,94.55a12.43,12.43,0,0,0-5.63,9.74.8.8,0,0,0,.19.54h0l11.42,6.54L95.16,101l6.54-4.86L104.23,93a.29.29,0,0,0-.08-.43Z"/><path id="_Path_187" data-name="&lt;Path&gt;" class="cls-21" d="M92.75,90.12l0,0a1.56,1.56,0,0,0-.51.14L78.09,98.38a12.39,12.39,0,0,0-5,6.49l11.07,6.34,10.91-10.33L101.6,96l.51-.63-9-5.09A.5.5,0,0,0,92.75,90.12Z"/><path id="_Compound_Path_31" data-name="&lt;Compound Path&gt;" class="cls-2" d="M84.34,112.1l-12-6.89a1.38,1.38,0,0,1-.33-.93A13.1,13.1,0,0,1,78,94l14.11-8.15a2,2,0,0,1,.74-.21l.18,0,.13.07a1.07,1.07,0,0,1,.48.27l10.82,6.09a.88.88,0,0,1,.43.59.87.87,0,0,1-.18.71l-2.63,3.26-6.54,4.86Zm-11.1-7.71,10.92,6.26,10.59-10,6.53-4.86,2.26-2.82L92.82,86.87l-.14,0L78.56,95.06a11.8,11.8,0,0,0-5.33,9.23A.38.38,0,0,0,73.25,104.39Z"/></g><g id="_Group_64" data-name="&lt;Group&gt;"><path id="_Path_188" data-name="&lt;Path&gt;" class="cls-20" d="M84,110.75h0A12.43,12.43,0,0,1,89.63,101l14.11-8.15c.58-.33,1-.06,1,.61v5.28a2.32,2.32,0,0,1-1,1.82L85.06,111.35C84.48,111.69,84,111.42,84,110.75Z"/><path id="_Compound_Path_32" data-name="&lt;Compound Path&gt;" class="cls-2" d="M84.59,112.08a1.12,1.12,0,0,1-.56-.15,1.31,1.31,0,0,1-.6-1.19,13.1,13.1,0,0,1,5.92-10.25l14.11-8.15a1.22,1.22,0,0,1,1.93,1.11v5.28a2.88,2.88,0,0,1-1.34,2.32L85.35,111.86A1.53,1.53,0,0,1,84.59,112.08Zm19.6-18.79-.15.07-14.11,8.15a11.8,11.8,0,0,0-5.33,9.23.47.47,0,0,0,0,.17l.15-.07,18.69-10.79a1.76,1.76,0,0,0,.76-1.31V93.46A.47.47,0,0,0,104.18,93.3Z"/></g></g></g></g><path id="_Path_189" data-name="&lt;Path&gt;" class="cls-20" d="M120.14,85.43s5.9,0,5.9,6.83a57.33,57.33,0,0,0,.54,9.59,21,21,0,0,1-.54,2.5c-.2.43-2.59,1.34-2.59,1.34l-2.3-1-.87-2.17Z"/><path id="_Path_190" data-name="&lt;Path&gt;" class="cls-20" d="M157.91,67.92s-.31-4.85,9.58-10.69-.59,1.38-.59,1.38l-2.31,3.55-.93,3.94v8.61l-.13,5.41-1.65,2.29-2.2-.15-2.35-1V68.68Z"/></g><g id="_Group_65" data-name="&lt;Group&gt;"><g id="_Group_66" data-name="&lt;Group&gt;"><g id="_Group_67" data-name="&lt;Group&gt;"><g id="_Group_68" data-name="&lt;Group&gt;"><g id="_Group_69" data-name="&lt;Group&gt;"><path id="_Path_191" data-name="&lt;Path&gt;" class="cls-3" d="M245.81,58.67l-.22-.12-.09,0h0a4.85,4.85,0,0,0-4.5.58l-14.7,8.39A2.78,2.78,0,0,0,225,69.65V76a.9.9,0,0,0,.33.77l0,0,.06,0,10.21,5.57,11.66-11.23L254.1,66l1.42-2Z"/><path id="_Path_192" data-name="&lt;Path&gt;" class="cls-12" d="M247.17,71.15l5.72-4.35-7.36-4-.22-.12-.09,0h0a4.85,4.85,0,0,0-4.5.58L226,71.58A2.76,2.76,0,0,0,224.9,73V76a.9.9,0,0,0,.33.77l0,0,.06,0,10.21,5.57Z"/><path id="_Compound_Path_33" data-name="&lt;Compound Path&gt;" class="cls-2" d="M235.74,83.1l-10.8-5.93a1.42,1.42,0,0,1-.49-1.18V69.65A3.38,3.38,0,0,1,226,67l14.7-8.39a5.61,5.61,0,0,1,4.74-.73l0,0,.31.16.33.18,10.28,5.62-1.92,2.68-6.79,5.15Zm-10-6.78,9.79,5.34L246.9,70.72l6.77-5.14,1-1.4-9.32-5.1h0l-.1,0a4.32,4.32,0,0,0-4,.56L226.58,68a2.2,2.2,0,0,0-1,1.67V76c0,.17,0,.27.08.29Z"/></g><g id="_Group_70" data-name="&lt;Group&gt;"><path id="_Path_193" data-name="&lt;Path&gt;" class="cls-20" d="M257.91,68.56h0c0-4.31-3-6.06-6.72-3.92L236.49,73a2.78,2.78,0,0,0-1.25,2.18v6.34c0,.8.56,1.13,1.25.73l20.16-11.54A2.78,2.78,0,0,0,257.91,68.56Z"/><path id="_Compound_Path_34" data-name="&lt;Compound Path&gt;" class="cls-2" d="M235.93,83a1.23,1.23,0,0,1-.62-.16,1.46,1.46,0,0,1-.66-1.32V75.21a3.38,3.38,0,0,1,1.55-2.69l14.7-8.39c2-1.14,3.86-1.31,5.33-.46s2.27,2.58,2.27,4.89a3.38,3.38,0,0,1-1.55,2.69L236.78,82.79A1.71,1.71,0,0,1,235.93,83Zm18.24-18.72a5.51,5.51,0,0,0-2.7.84l-14.7,8.39a2.2,2.2,0,0,0-1,1.67v6.34c0,.22.06.3.08.31a.44.44,0,0,0,.3-.09l20.17-11.54a2.2,2.2,0,0,0,1-1.67c0-1.87-.6-3.25-1.69-3.88A2.88,2.88,0,0,0,254.18,64.31Z"/></g></g><g id="_Group_71" data-name="&lt;Group&gt;"><g id="_Group_72" data-name="&lt;Group&gt;"><path id="_Path_194" data-name="&lt;Path&gt;" class="cls-3" d="M210.41,111h0a3.17,3.17,0,0,1-3.17-3.17V94.7a18.6,18.6,0,0,1,8.56-14.76l11.54-6.6a3.17,3.17,0,0,1,4.32,1.19h0a3.17,3.17,0,0,1-1.19,4.32l-11.52,6.59a12.23,12.23,0,0,0-5.36,9.26v13.15A3.17,3.17,0,0,1,210.41,111Z"/><path id="_Path_195" data-name="&lt;Path&gt;" class="cls-12" d="M218.87,85.17l11.52-6.59a3.15,3.15,0,0,0,1.22-1.25l0-.05a3.17,3.17,0,0,0-4.32-1.19l-11.54,6.6a18.6,18.6,0,0,0-8.56,14.76v10.13a3.17,3.17,0,0,0,3.17,3.17h0a3.17,3.17,0,0,0,3.17-3.17V94.43A12.23,12.23,0,0,1,218.87,85.17Z"/><path id="_Compound_Path_35" data-name="&lt;Compound Path&gt;" class="cls-2" d="M210.41,111.6a3.76,3.76,0,0,1-3.76-3.76V94.7c0-5.7,3.89-12.41,8.85-15.27L227,72.83a3.76,3.76,0,1,1,3.71,6.53l-11.52,6.58a11.73,11.73,0,0,0-5.07,8.75v13.15A3.76,3.76,0,0,1,210.41,111.6Zm18.49-38.09a2.56,2.56,0,0,0-1.27.34l-11.54,6.6a18,18,0,0,0-8.26,14.26v13.15a2.59,2.59,0,0,0,2.58,2.58h0a2.59,2.59,0,0,0,2.58-2.58V94.7a12.89,12.89,0,0,1,5.66-9.77l11.52-6.59a2.59,2.59,0,0,0-1.28-4.83Z"/></g></g></g><g id="_Group_73" data-name="&lt;Group&gt;"><g id="_Group_74" data-name="&lt;Group&gt;"><g id="_Group_75" data-name="&lt;Group&gt;"><path id="_Path_196" data-name="&lt;Path&gt;" class="cls-3" d="M173.37,134.31h0a3.17,3.17,0,0,1-3.17-3.17V116.28c0-1.23-.35-1.68-.44-1.74s-.66-.13-1.72.48l-16.44,9.71a3.17,3.17,0,0,1-4.34-1.13h0a3.17,3.17,0,0,1,1.13-4.34l16.46-9.73c2.85-1.64,5.79-1.82,8.09-.5s3.61,4,3.61,7.23v14.86A3.17,3.17,0,0,1,173.37,134.31Z"/><path id="_Path_197" data-name="&lt;Path&gt;" class="cls-12" d="M172.89,111.9c-2.3-1.33-5.24-1.15-8.09.5l-16.46,9.73a3.15,3.15,0,0,0-1.22,1.3,3.11,3.11,0,0,0,.15.33,3.17,3.17,0,0,0,4.34,1.13l16.44-9.71c1.07-.62,1.63-.54,1.72-.48s.44.51.44,1.74v14.86a3.17,3.17,0,0,0,6.28.63V119.13C176.51,115.86,175.19,113.22,172.89,111.9Z"/><path id="_Compound_Path_36" data-name="&lt;Compound Path&gt;" class="cls-2" d="M173.37,134.89a3.76,3.76,0,0,1-3.76-3.76V116.28a3.14,3.14,0,0,0-.18-1.18,3.14,3.14,0,0,0-1.11.44l-16.44,9.71a3.76,3.76,0,1,1-3.81-6.48L164.54,109c3-1.75,6.2-1.93,8.68-.5s3.91,4.25,3.91,7.74v14.86A3.76,3.76,0,0,1,173.37,134.89Zm-3.84-21a1,1,0,0,1,.53.12c.35.2.73.9.73,2.24v14.86a2.59,2.59,0,0,0,5.17,0V116.28c0-3.05-1.21-5.5-3.32-6.72s-4.84-1-7.5.5l-16.46,9.72a2.58,2.58,0,1,0,2.62,4.46l16.44-9.71A3.77,3.77,0,0,1,169.52,113.92Z"/></g></g><g id="_Group_76" data-name="&lt;Group&gt;"><g id="_Group_77" data-name="&lt;Group&gt;"><path id="_Path_198" data-name="&lt;Path&gt;" class="cls-3" d="M143.16,115.07a.5.5,0,0,0-.32-.18l0,0a1.56,1.56,0,0,0-.51.14l-14.11,8.15a12.43,12.43,0,0,0-5.63,9.74.8.8,0,0,0,.19.54h0L134.16,140l10.91-10.33,6.54-4.86,2.52-3.16a.29.29,0,0,0-.08-.43Z"/><path id="_Path_199" data-name="&lt;Path&gt;" class="cls-21" d="M142.66,118.72l0,0a1.56,1.56,0,0,0-.51.14L128,127a12.4,12.4,0,0,0-5,6.49l11.07,6.34L145,129.48l6.54-4.86L152,124l-9-5.09A.5.5,0,0,0,142.66,118.72Z"/><path id="_Compound_Path_37" data-name="&lt;Compound Path&gt;" class="cls-2" d="M134.25,140.71l-12-6.89a1.38,1.38,0,0,1-.33-.93,13.1,13.1,0,0,1,5.92-10.25L142,114.5a2,2,0,0,1,.74-.21l.18,0,.13.07a1.07,1.07,0,0,1,.48.27l10.82,6.09a.87.87,0,0,1,.25,1.3L152,125.26l-6.54,4.86ZM123.15,133l10.92,6.26,10.59-10,6.53-4.86,2.26-2.82-10.73-6.07-.14,0-14.11,8.15a11.8,11.8,0,0,0-5.33,9.23A.37.37,0,0,0,123.15,133Z"/></g><g id="_Group_78" data-name="&lt;Group&gt;"><path id="_Path_200" data-name="&lt;Path&gt;" class="cls-20" d="M133.92,139.35h0a12.43,12.43,0,0,1,5.63-9.74l14.11-8.15c.58-.33,1-.06,1,.61v5.28a2.32,2.32,0,0,1-1,1.82L135,140C134.39,140.29,133.92,140,133.92,139.35Z"/><path id="_Compound_Path_38" data-name="&lt;Compound Path&gt;" class="cls-2" d="M134.5,140.69a1.12,1.12,0,0,1-.56-.15,1.31,1.31,0,0,1-.6-1.19,13.1,13.1,0,0,1,5.92-10.25L153.36,121a1.22,1.22,0,0,1,1.93,1.11v5.28a2.88,2.88,0,0,1-1.34,2.32l-18.69,10.79A1.53,1.53,0,0,1,134.5,140.69Zm19.6-18.79-.15.07-14.11,8.15a11.8,11.8,0,0,0-5.33,9.23.46.46,0,0,0,0,.17l.15-.07,18.69-10.79a1.76,1.76,0,0,0,.76-1.31v-5.28A.46.46,0,0,0,154.09,121.9Z"/></g></g></g></g><path id="_Path_201" data-name="&lt;Path&gt;" class="cls-20" d="M170,114s5.9,0,5.9,6.83a57.33,57.33,0,0,0,.54,9.59A21,21,0,0,1,176,133c-.2.43-2.59,1.34-2.59,1.34l-2.3-1-.87-2.17Z"/><path id="_Path_202" data-name="&lt;Path&gt;" class="cls-20" d="M207.82,96.52s-.31-4.85,9.58-10.69-.59,1.38-.59,1.38l-2.31,3.55-.93,3.94v8.61l-.13,5.41L211.79,111l-2.2-.15-2.35-1V97.28Z"/></g><g id="_Group_79" data-name="&lt;Group&gt;"><polygon id="_Path_203" data-name="&lt;Path&gt;" class="cls-3" points="70.49 63.91 69.65 64.31 69.65 59.85 70.49 59.44 70.49 63.91"/></g><g id="_Group_80" data-name="&lt;Group&gt;"><polygon id="_Path_204" data-name="&lt;Path&gt;" class="cls-3" points="120.56 92.89 119.72 93.3 119.72 88.83 120.56 88.42 120.56 92.89"/></g><g id="_Group_81" data-name="&lt;Group&gt;"><polygon id="_Path_205" data-name="&lt;Path&gt;" class="cls-3" points="170.33 122.32 169.49 122.73 169.49 118.27 170.33 117.86 170.33 122.32"/></g><g id="_Group_82" data-name="&lt;Group&gt;"><polygon id="_Path_206" data-name="&lt;Path&gt;" class="cls-3" points="216.83 212.19 215.99 212.6 215.99 207.72 216.83 207.31 216.83 212.19"/></g><g id="_Group_83" data-name="&lt;Group&gt;"><polygon id="_Path_207" data-name="&lt;Path&gt;" class="cls-3" points="216.83 270.1 215.99 270.51 215.99 265.63 216.83 265.23 216.83 270.1"/></g><g id="_Group_84" data-name="&lt;Group&gt;"><g id="_4" data-name="4"><g id="_Group_85" data-name="&lt;Group&gt;"><path id="_Path_208" data-name="&lt;Path&gt;" class="cls-3" d="M158.52,278.18l.76,6.75c0,1.63,2.92,3.13,5.86,3.13s6-1.49,6-3.12l.66-6.76Z"/><path id="_Compound_Path_39" data-name="&lt;Compound Path&gt;" class="cls-20" d="M165.14,288.39c-2.92,0-6.19-1.48-6.19-3.46l-.8-7.09h14l-.7,7.13C171.42,286.89,168,288.39,165.14,288.39Zm-6.25-9.88.72,6.39c0,1.42,2.79,2.83,5.53,2.83s5.62-1.41,5.62-2.79l.63-6.43Z"/></g><g id="_Group_86" data-name="&lt;Group&gt;"><path id="_Path_209" data-name="&lt;Path&gt;" class="cls-3" d="M172.62,272.61l-3.46.08a12.19,12.19,0,0,0-4-.65,11.84,11.84,0,0,0-4.51.84l-3,.07v3.26c0,2.3,3.36,4.17,7.52,4.17s7.52-1.87,7.52-4.17Z"/><path id="_Compound_Path_40" data-name="&lt;Compound Path&gt;" class="cls-20" d="M165.14,280.71c-4.4,0-7.85-2-7.85-4.5v-3.59l3.26-.07a12.19,12.19,0,0,1,4.58-.84,12.58,12.58,0,0,1,4.08.65l3.06-.07a.66.66,0,0,1,.67.66l0,3.26C173,278.73,169.54,280.71,165.14,280.71ZM158,273.26v2.94c0,2.12,3.22,3.84,7.18,3.84s7.18-1.72,7.18-3.84l0-3.26-3.18.07-.06,0a11.88,11.88,0,0,0-3.92-.64,11.46,11.46,0,0,0-4.39.82l-.12,0Z"/></g><g id="_Group_87" data-name="&lt;Group&gt;"><ellipse id="_Path_210" data-name="&lt;Path&gt;" class="cls-3" cx="165.14" cy="272.95" rx="7.52" ry="3.91"/><path id="_Path_211" data-name="&lt;Path&gt;" class="cls-12" d="M165.14,273.67a10.83,10.83,0,0,0-6,1.59,12.26,12.26,0,0,0,12.08,0A10.84,10.84,0,0,0,165.14,273.67Z"/><path id="_Compound_Path_41" data-name="&lt;Compound Path&gt;" class="cls-20" d="M165.14,277.19c-4.4,0-7.85-1.86-7.85-4.24s3.45-4.24,7.85-4.24,7.85,1.86,7.85,4.24S169.54,277.19,165.14,277.19Zm0-7.82c-3.89,0-7.18,1.64-7.18,3.58s3.29,3.58,7.18,3.58,7.18-1.64,7.18-3.58S169,269.37,165.14,269.37Z"/></g><g id="_Group_88" data-name="&lt;Group&gt;"><path id="_Path_212" data-name="&lt;Path&gt;" class="cls-22" d="M165.14,272.15c3.11,0,5.77,1,6.92,2.42a2.47,2.47,0,0,0,.6-1.56c0-2.2-3.36-4-7.52-4s-7.52,1.78-7.52,4a2.47,2.47,0,0,0,.6,1.56C159.36,273.15,162,272.15,165.14,272.15Z"/><path id="_Compound_Path_42" data-name="&lt;Compound Path&gt;" class="cls-20" d="M158.22,275.1l-.26-.32a2.78,2.78,0,0,1-.67-1.76c0-2.42,3.45-4.31,7.85-4.31S173,270.6,173,273a2.79,2.79,0,0,1-.67,1.76l-.26.32-.26-.32c-1.12-1.4-3.74-2.3-6.66-2.3s-5.54.9-6.66,2.3Zm6.92-3.28c2.89,0,5.53.86,6.89,2.22a2,2,0,0,0,.3-1c0-2-3.29-3.65-7.18-3.65S158,271,158,273a2,2,0,0,0,.3,1C159.61,272.68,162.24,271.82,165.14,271.82Z"/></g><g id="_Group_89" data-name="&lt;Group&gt;"><path id="_Compound_Path_43" data-name="&lt;Compound Path&gt;" class="cls-3" d="M165.14,268.77c-4.15,0-7.52,1.87-7.52,4.17s3.36,4.17,7.52,4.17,7.52-1.87,7.52-4.17S169.29,268.77,165.14,268.77Zm0,7.43c-3.47,0-6.29-1.51-6.29-3.38s2.82-3.38,6.29-3.38,6.29,1.51,6.29,3.38S168.61,276.2,165.14,276.2Z"/><path id="_Compound_Path_44" data-name="&lt;Compound Path&gt;" class="cls-21" d="M165.14,269.58c-4.15,0-7.52,1.87-7.52,4.17s3.36,4.17,7.52,4.17,7.52-1.87,7.52-4.17S169.29,269.58,165.14,269.58Zm0,7.43c-3.47,0-6.29-1.51-6.29-3.38s2.82-3.38,6.29-3.38,6.29,1.51,6.29,3.38S168.61,277,165.14,277Z"/><path id="_Compound_Path_45" data-name="&lt;Compound Path&gt;" class="cls-20" d="M165.14,277.44c-4.4,0-7.85-2-7.85-4.5s3.45-4.5,7.85-4.5,7.85,2,7.85,4.5S169.54,277.44,165.14,277.44Zm0-8.34c-4,0-7.18,1.72-7.18,3.84s3.22,3.84,7.18,3.84,7.18-1.72,7.18-3.84S169.1,269.1,165.14,269.1Zm0,7.44c-3.71,0-6.62-1.63-6.62-3.71s2.91-3.71,6.62-3.71,6.62,1.63,6.62,3.71S168.85,276.53,165.14,276.53Zm0-6.75c-3.23,0-6,1.39-6,3s2.73,3,6,3,6-1.4,6-3S168.37,269.78,165.14,269.78Z"/></g><path id="_Path_213" data-name="&lt;Path&gt;" class="cls-20" d="M169.94,276.81l-.2.27c-.05.07-5.51,7.48-10.54,4.62a4.4,4.4,0,0,1-2.27-2.81,6.94,6.94,0,0,1,1-5l.05-.08.08-2.48-.65,1c-.61.9-2.54,4-1.86,6.92a5.8,5.8,0,0,0,3,3.73,6.37,6.37,0,0,0,3.18.86c4.9,0,9.06-5.65,9.24-5.89l.19-.27Z"/></g><polygon id="_Path_214" data-name="&lt;Path&gt;" class="cls-20" points="166.6 276.96 166.6 280.37 170.69 279.1 172.65 277.52 172.79 275.1 172.66 273.75 171.18 275.42 169.12 276.49 166.6 276.96"/><polygon id="_Path_215" data-name="&lt;Path&gt;" class="cls-20" points="166.6 280.63 166.16 288.01 168.64 287.42 170.72 286.05 171.15 284.32 171.6 278.37 169.69 279.52 167.03 280.24 166.6 280.63"/><path id="_Path_216" data-name="&lt;Path&gt;" class="cls-23" d="M170.25,277.53h0a.72.72,0,0,0-1,.12,19.41,19.41,0,0,1-2.15,2.2l-.08,1.92a19.78,19.78,0,0,0,3.34-3.2A.72.72,0,0,0,170.25,277.53Z"/></g></g></g></g></g></g></g></g></svg>