<?xml version="1.0" encoding="utf-8"?>
<!-- Generator: Adobe Illustrator 20.1.0, SVG Export Plug-In . SVG Version: 6.00 Build 0)  -->
<svg version="1.1" id="Layer_1" xmlns="http://www.w3.org/2000/svg" xmlns:xlink="http://www.w3.org/1999/xlink" x="0px" y="0px"
	 viewBox="0 0 388 642.7" style="enable-background:new 0 0 388 642.7;" xml:space="preserve">
<style type="text/css">
	.st0{fill:#16110D;}
	.st1{fill:#FEBD33;}
	.st2{fill:#FCEBCC;}
	.st3{fill:#130E0C;}
	.st4{fill:#FBEACC;}
	.st5{fill:#F7E6CC;}
	.st6{fill:#15100C;}
	.st7{fill:url(#_Path_129_1_);}
	.st8{fill:url(#_Path_130_1_);}
	.st9{fill:url(#_Path_131_1_);}
	.st10{fill:#F9E8CC;}
	.st11{fill:#F8E7CC;}
	.st12{fill:none;stroke:#16110D;stroke-width:1.3;stroke-miterlimit:10;}
	.st13{enable-background:new    ;}
	.st14{fill:url(#_Path_162_1_);}
	.st15{fill:url(#_Path_163_1_);}
	.st16{fill:url(#_Path_164_1_);}
	.st17{fill:#140F0C;}
	.st18{fill:#FAE9CC;}
	.st19{fill:#120D0C;}
	.st20{fill:#FDBC38;}
</style>
<title>Billboard 1</title>
<g>
	<g id="Layer_2">
		<g id="Work">
			<g id="Work_Home">
				<g id="illustrator">
					<g id="_Group_">
						<g id="_Group_2">
							<path id="_Path_" class="st0" d="M213.3,640.7c0.5,0.1,0.7,0.6,0.6,1.1c-0.1,0.3-0.3,0.5-0.6,0.6c-0.9,0.5-1.9,0.5-2.8,0
								c-0.5-0.1-0.7-0.6-0.6-1.1c0.1-0.3,0.3-0.5,0.6-0.6C211.3,640.2,212.4,640.2,213.3,640.7z"/>
							<path id="_Path_2" class="st0" d="M220.7,636.4c0.5,0.1,0.7,0.6,0.6,1.1c-0.1,0.3-0.3,0.5-0.6,0.6c-0.9,0.5-1.9,0.5-2.8,0
								c-0.5-0.1-0.7-0.6-0.6-1.1c0.1-0.3,0.3-0.5,0.6-0.6C218.7,636,219.8,636,220.7,636.4z"/>
							<path id="_Path_3" class="st0" d="M228.1,632.2c0.5,0.1,0.7,0.6,0.6,1.1c-0.1,0.3-0.3,0.5-0.6,0.6c-0.9,0.5-1.9,0.5-2.8,0
								c-0.5-0.1-0.7-0.6-0.6-1.1c0.1-0.3,0.3-0.5,0.6-0.6C226.2,631.7,227.2,631.7,228.1,632.2z"/>
							<path id="_Path_4" class="st0" d="M235.5,627.9c0.5,0.1,0.7,0.6,0.6,1.1c-0.1,0.3-0.3,0.5-0.6,0.6c-0.9,0.5-1.9,0.5-2.8,0
								c-0.5-0.1-0.7-0.6-0.6-1.1c0.1-0.3,0.3-0.5,0.6-0.6C233.6,627.4,234.6,627.4,235.5,627.9z"/>
							<path id="_Path_5" class="st0" d="M242.9,623.6c0.5,0.1,0.7,0.6,0.6,1.1c-0.1,0.3-0.3,0.5-0.6,0.6c-0.9,0.5-1.9,0.5-2.8,0
								c-0.5-0.1-0.7-0.6-0.6-1.1c0.1-0.3,0.3-0.5,0.6-0.6C241,623.1,242,623.1,242.9,623.6z"/>
							<path id="_Path_6" class="st0" d="M198.5,640.7c0.5,0.1,0.7,0.6,0.6,1.1c-0.1,0.3-0.3,0.5-0.6,0.6c-0.9,0.5-1.9,0.5-2.8,0
								c-0.5-0.1-0.7-0.6-0.6-1.1c0.1-0.3,0.3-0.5,0.6-0.6C196.5,640.2,197.6,640.2,198.5,640.7z"/>
							<path id="_Path_7" class="st0" d="M205.9,636.4c0.5,0.1,0.7,0.6,0.6,1.1c-0.1,0.3-0.3,0.5-0.6,0.6c-0.9,0.5-1.9,0.5-2.8,0
								c-0.5-0.1-0.7-0.6-0.6-1.1c0.1-0.3,0.3-0.5,0.6-0.6C203.9,636,205,636,205.9,636.4z"/>
							<path id="_Path_8" class="st0" d="M213.3,632.2c0.5,0.1,0.7,0.6,0.6,1.1c-0.1,0.3-0.3,0.5-0.6,0.6c-0.9,0.5-1.9,0.5-2.8,0
								c-0.5-0.1-0.7-0.6-0.6-1.1c0.1-0.3,0.3-0.5,0.6-0.6C211.3,631.7,212.4,631.7,213.3,632.2z"/>
							<path id="_Path_9" class="st0" d="M220.7,627.9c0.5,0.1,0.7,0.6,0.6,1.1c-0.1,0.3-0.3,0.5-0.6,0.6c-0.9,0.5-1.9,0.5-2.8,0
								c-0.5-0.1-0.7-0.6-0.6-1.1c0.1-0.3,0.3-0.5,0.6-0.6C218.7,627.4,219.8,627.4,220.7,627.9z"/>
							<path id="_Path_10" class="st0" d="M228.1,623.6c0.5,0.1,0.7,0.6,0.6,1.1c-0.1,0.3-0.3,0.5-0.6,0.6c-0.9,0.5-1.9,0.5-2.8,0
								c-0.5-0.1-0.7-0.6-0.6-1.1c0.1-0.3,0.3-0.5,0.6-0.6C226.2,623.1,227.2,623.1,228.1,623.6z"/>
							<path id="_Path_11" class="st0" d="M235.5,619.3c0.5,0.1,0.7,0.6,0.6,1.1c-0.1,0.3-0.3,0.5-0.6,0.6c-0.9,0.5-1.9,0.5-2.8,0
								c-0.5-0.1-0.7-0.6-0.6-1.1c0.1-0.3,0.3-0.5,0.6-0.6C233.6,618.9,234.6,618.9,235.5,619.3z"/>
							<path id="_Path_12" class="st0" d="M183.7,640.7c0.5,0.1,0.7,0.6,0.6,1.1c-0.1,0.3-0.3,0.5-0.6,0.6c-0.9,0.5-1.9,0.5-2.8,0
								c-0.5-0.1-0.7-0.6-0.6-1.1c0.1-0.3,0.3-0.5,0.6-0.6C181.7,640.2,182.8,640.2,183.7,640.7z"/>
							<path id="_Path_13" class="st0" d="M191.1,636.4c0.5,0.1,0.7,0.6,0.6,1.1c-0.1,0.3-0.3,0.5-0.6,0.6c-0.9,0.5-1.9,0.5-2.8,0
								c-0.5-0.1-0.7-0.6-0.6-1.1c0.1-0.3,0.3-0.5,0.6-0.6C189.1,636,190.2,636,191.1,636.4z"/>
							<path id="_Path_14" class="st0" d="M198.5,632.2c0.5,0.1,0.7,0.6,0.6,1.1c-0.1,0.3-0.3,0.5-0.6,0.6c-0.9,0.5-1.9,0.5-2.8,0
								c-0.5-0.1-0.7-0.6-0.6-1.1c0.1-0.3,0.3-0.5,0.6-0.6C196.5,631.7,197.6,631.7,198.5,632.2z"/>
							<path id="_Path_15" class="st0" d="M205.9,627.9c0.5,0.1,0.7,0.6,0.6,1.1c-0.1,0.3-0.3,0.5-0.6,0.6c-0.9,0.5-1.9,0.5-2.8,0
								c-0.5-0.1-0.7-0.6-0.6-1.1c0.1-0.3,0.3-0.5,0.6-0.6C203.9,627.4,205,627.4,205.9,627.9z"/>
							<path id="_Path_16" class="st0" d="M213.3,623.6c0.5,0.1,0.7,0.6,0.6,1.1c-0.1,0.3-0.3,0.5-0.6,0.6c-0.9,0.5-1.9,0.5-2.8,0
								c-0.5-0.1-0.7-0.6-0.6-1.1c0.1-0.3,0.3-0.5,0.6-0.6C211.3,623.1,212.4,623.1,213.3,623.6z"/>
							<path id="_Path_17" class="st0" d="M220.7,619.3c0.5,0.1,0.7,0.6,0.6,1.1c-0.1,0.3-0.3,0.5-0.6,0.6c-0.9,0.5-1.9,0.5-2.8,0
								c-0.5-0.1-0.7-0.6-0.6-1.1c0.1-0.3,0.3-0.5,0.6-0.6C218.8,618.9,219.8,618.9,220.7,619.3z"/>
							<path id="_Path_18" class="st0" d="M228.1,615c0.5,0.1,0.7,0.6,0.6,1.1c-0.1,0.3-0.3,0.5-0.6,0.6c-0.9,0.5-1.9,0.5-2.8,0
								c-0.5-0.1-0.7-0.6-0.6-1.1c0.1-0.3,0.3-0.5,0.6-0.6C226.2,614.5,227.2,614.5,228.1,615z"/>
							<path id="_Path_19" class="st0" d="M176.3,636.4c0.5,0.1,0.7,0.6,0.6,1.1c-0.1,0.3-0.3,0.5-0.6,0.6c-0.9,0.5-1.9,0.5-2.8,0
								c-0.5-0.1-0.7-0.6-0.6-1.1c0.1-0.3,0.3-0.5,0.6-0.6C174.3,636,175.4,636,176.3,636.4z"/>
							<path id="_Path_20" class="st0" d="M183.7,632.2c0.5,0.1,0.7,0.6,0.6,1.1c-0.1,0.3-0.3,0.5-0.6,0.6c-0.9,0.5-1.9,0.5-2.8,0
								c-0.5-0.1-0.7-0.6-0.6-1.1c0.1-0.3,0.3-0.5,0.6-0.6C181.7,631.7,182.8,631.7,183.7,632.2z"/>
							<path id="_Path_21" class="st0" d="M191.1,627.9c0.5,0.1,0.7,0.6,0.6,1.1c-0.1,0.3-0.3,0.5-0.6,0.6c-0.9,0.5-1.9,0.5-2.8,0
								c-0.5-0.1-0.7-0.6-0.6-1.1c0.1-0.3,0.3-0.5,0.6-0.6C189.1,627.4,190.2,627.4,191.1,627.9z"/>
							<path id="_Path_22" class="st0" d="M198.5,623.6c0.5,0.1,0.7,0.6,0.6,1.1c-0.1,0.3-0.3,0.5-0.6,0.6c-0.9,0.5-1.9,0.5-2.8,0
								c-0.5-0.1-0.7-0.6-0.6-1.1c0.1-0.3,0.3-0.5,0.6-0.6C196.5,623.1,197.6,623.1,198.5,623.6z"/>
							<path id="_Path_23" class="st0" d="M205.9,619.3c0.5,0.1,0.7,0.6,0.6,1.1c-0.1,0.3-0.3,0.5-0.6,0.6c-0.9,0.5-1.9,0.5-2.8,0
								c-0.5-0.1-0.7-0.6-0.6-1.1c0.1-0.3,0.3-0.5,0.6-0.6C203.9,618.9,205,618.9,205.9,619.3z"/>
							<path id="_Path_24" class="st0" d="M213.3,615c0.5,0.1,0.7,0.6,0.6,1.1c-0.1,0.3-0.3,0.5-0.6,0.6c-0.9,0.5-1.9,0.5-2.8,0
								c-0.5-0.1-0.7-0.6-0.6-1.1c0.1-0.3,0.3-0.5,0.6-0.6C211.3,614.5,212.4,614.5,213.3,615z"/>
							<path id="_Path_25" class="st0" d="M220.7,610.8c0.5,0.1,0.7,0.6,0.6,1.1c-0.1,0.3-0.3,0.5-0.6,0.6c-0.9,0.5-1.9,0.5-2.8,0
								c-0.5-0.1-0.7-0.6-0.6-1.1c0.1-0.3,0.3-0.5,0.6-0.6C218.8,610.3,219.8,610.3,220.7,610.8z"/>
							<path id="_Path_26" class="st0" d="M168.8,632.1c0.5,0.1,0.7,0.6,0.6,1.1c-0.1,0.3-0.3,0.5-0.6,0.6c-0.9,0.5-1.9,0.5-2.8,0
								c-0.5-0.1-0.7-0.6-0.6-1.1c0.1-0.3,0.3-0.5,0.6-0.6C166.8,631.7,167.9,631.7,168.8,632.1z"/>
							<path id="_Path_27" class="st0" d="M176.2,627.8c0.5,0.1,0.7,0.6,0.6,1.1c-0.1,0.3-0.3,0.5-0.6,0.6c-0.9,0.5-1.9,0.5-2.8,0
								c-0.5-0.1-0.7-0.6-0.6-1.1c0.1-0.3,0.3-0.5,0.6-0.6C174.3,627.4,175.3,627.4,176.2,627.8z"/>
							<path id="_Path_28" class="st0" d="M183.6,623.6c0.5,0.1,0.7,0.6,0.6,1.1c-0.1,0.3-0.3,0.5-0.6,0.6c-0.9,0.5-1.9,0.5-2.8,0
								c-0.5-0.1-0.7-0.6-0.6-1.1c0.1-0.3,0.3-0.5,0.6-0.6C181.7,623.1,182.7,623.1,183.6,623.6z"/>
							<path id="_Path_29" class="st0" d="M191,619.3c0.5,0.1,0.7,0.6,0.6,1.1c-0.1,0.3-0.3,0.5-0.6,0.6c-0.9,0.5-1.9,0.5-2.8,0
								c-0.5-0.1-0.7-0.6-0.6-1.1c0.1-0.3,0.3-0.5,0.6-0.6C189.1,618.8,190.1,618.8,191,619.3z"/>
							<path id="_Path_30" class="st0" d="M198.4,615c0.5,0.1,0.7,0.6,0.6,1.1c-0.1,0.3-0.3,0.5-0.6,0.6c-0.9,0.5-1.9,0.5-2.8,0
								c-0.5-0.1-0.7-0.6-0.6-1.1c0.1-0.3,0.3-0.5,0.6-0.6C196.5,614.5,197.5,614.5,198.4,615z"/>
							<path id="_Path_31" class="st0" d="M205.8,610.7c0.5,0.1,0.7,0.6,0.6,1.1c-0.1,0.3-0.3,0.5-0.6,0.6c-0.9,0.5-1.9,0.5-2.8,0
								c-0.5-0.1-0.7-0.6-0.6-1.1c0.1-0.3,0.3-0.5,0.6-0.6C203.9,610.3,204.9,610.3,205.8,610.7z"/>
							<path id="_Path_32" class="st0" d="M213.2,606.5c0.5,0.1,0.7,0.6,0.6,1.1c-0.1,0.3-0.3,0.5-0.6,0.6c-0.9,0.5-1.9,0.5-2.8,0
								c-0.5-0.1-0.7-0.6-0.6-1.1c0.1-0.3,0.3-0.5,0.6-0.6C211.3,606,212.3,606,213.2,606.5z"/>
							<path id="_Path_33" class="st0" d="M161.4,627.8c0.5,0.1,0.7,0.6,0.6,1.1c-0.1,0.3-0.3,0.5-0.6,0.6c-0.9,0.5-1.9,0.5-2.8,0
								c-0.5-0.1-0.7-0.6-0.6-1.1c0.1-0.3,0.3-0.5,0.6-0.6C159.4,627.4,160.5,627.4,161.4,627.8z"/>
							<path id="_Path_34" class="st0" d="M168.8,623.6c0.5,0.1,0.7,0.6,0.6,1.1c-0.1,0.3-0.3,0.5-0.6,0.6c-0.9,0.5-1.9,0.5-2.8,0
								c-0.5-0.1-0.7-0.6-0.6-1.1c0.1-0.3,0.3-0.5,0.6-0.6C166.8,623.1,167.9,623.1,168.8,623.6z"/>
							<path id="_Path_35" class="st0" d="M176.2,619.3c0.5,0.1,0.7,0.6,0.6,1.1c-0.1,0.3-0.3,0.5-0.6,0.6c-0.9,0.5-1.9,0.5-2.8,0
								c-0.5-0.1-0.7-0.6-0.6-1.1c0.1-0.3,0.3-0.5,0.6-0.6C174.3,618.8,175.3,618.8,176.2,619.3z"/>
							<path id="_Path_36" class="st0" d="M183.6,615c0.5,0.1,0.7,0.6,0.6,1.1c-0.1,0.3-0.3,0.5-0.6,0.6c-0.9,0.5-1.9,0.5-2.8,0
								c-0.5-0.1-0.7-0.6-0.6-1.1c0.1-0.3,0.3-0.5,0.6-0.6C181.7,614.5,182.7,614.5,183.6,615z"/>
							<path id="_Path_37" class="st0" d="M191,610.7c0.5,0.1,0.7,0.6,0.6,1.1c-0.1,0.3-0.3,0.5-0.6,0.6c-0.9,0.5-1.9,0.5-2.8,0
								c-0.5-0.1-0.7-0.6-0.6-1.1c0.1-0.3,0.3-0.5,0.6-0.6C189.1,610.3,190.1,610.3,191,610.7z"/>
							<path id="_Path_38" class="st0" d="M195.6,606.5c0.9-0.5,1.9-0.5,2.8,0c0.5,0.1,0.7,0.6,0.6,1.1c-0.1,0.3-0.3,0.5-0.6,0.6
								c-0.9,0.5-1.9,0.5-2.8,0c-0.5-0.1-0.7-0.6-0.6-1.1C195.1,606.7,195.3,606.5,195.6,606.5z"/>
							<path id="_Path_39" class="st0" d="M205.8,602.2c0.5,0.1,0.7,0.6,0.6,1.1c-0.1,0.3-0.3,0.5-0.6,0.6c-0.9,0.5-1.9,0.5-2.8,0
								C202.2,603.4,205,601.7,205.8,602.2z"/>
							<path id="_Path_40" class="st0" d="M154,623.6c0.5,0.1,0.7,0.6,0.6,1.1c-0.1,0.3-0.3,0.5-0.6,0.6c-0.9,0.5-1.9,0.5-2.8,0
								c-0.5-0.1-0.7-0.6-0.6-1.1c0.1-0.3,0.3-0.5,0.6-0.6C152.1,623.1,153.1,623.1,154,623.6z"/>
							<path id="_Path_41" class="st0" d="M161.4,619.3c0.5,0.1,0.7,0.6,0.6,1.1c-0.1,0.3-0.3,0.5-0.6,0.6c-0.9,0.5-1.9,0.5-2.8,0
								c-0.5-0.1-0.7-0.6-0.6-1.1c0.1-0.3,0.3-0.5,0.6-0.6C159.4,618.8,160.5,618.8,161.4,619.3z"/>
							<path id="_Path_42" class="st0" d="M168.8,615c0.5,0.1,0.7,0.6,0.6,1.1c-0.1,0.3-0.3,0.5-0.6,0.6c-0.9,0.5-1.9,0.5-2.8,0
								c-0.5-0.1-0.7-0.6-0.6-1.1c0.1-0.3,0.3-0.5,0.6-0.6C166.8,614.5,167.9,614.5,168.8,615z"/>
							<path id="_Path_43" class="st0" d="M176.2,610.7c0.5,0.1,0.7,0.6,0.6,1.1c-0.1,0.3-0.3,0.5-0.6,0.6c-0.9,0.5-1.9,0.5-2.8,0
								c-0.5-0.1-0.7-0.6-0.6-1.1c0.1-0.3,0.3-0.5,0.6-0.6C174.3,610.3,175.3,610.3,176.2,610.7z"/>
							<path id="_Path_44" class="st0" d="M146.6,619.3c0.5,0.1,0.7,0.6,0.6,1.1c-0.1,0.3-0.3,0.5-0.6,0.6c-0.9,0.5-1.9,0.5-2.8,0
								c-0.5-0.1-0.7-0.6-0.6-1.1c0.1-0.3,0.3-0.5,0.6-0.6C144.6,618.8,145.7,618.8,146.6,619.3z"/>
							<path id="_Path_45" class="st0" d="M154,615c0.5,0.1,0.7,0.6,0.6,1.1c-0.1,0.3-0.3,0.5-0.6,0.6c-0.9,0.5-1.9,0.5-2.8,0
								c-0.5-0.1-0.7-0.6-0.6-1.1c0.1-0.3,0.3-0.5,0.6-0.6C152.1,614.5,153.1,614.5,154,615z"/>
							<path id="_Path_46" class="st0" d="M161.4,610.7c0.5,0.1,0.7,0.6,0.6,1.1c-0.1,0.3-0.3,0.5-0.6,0.6c-0.9,0.5-1.9,0.5-2.8,0
								c-0.5-0.1-0.7-0.6-0.6-1.1c0.1-0.3,0.3-0.5,0.6-0.6C159.4,610.3,160.5,610.3,161.4,610.7z"/>
							<path id="_Path_47" class="st0" d="M168.8,608.1c-0.9,0.5-1.9,0.5-2.8,0c-0.5-0.1-0.7-0.6-0.6-1.1c0.1-0.3,0.3-0.5,0.6-0.6
								C166.7,606,169.6,607.6,168.8,608.1z"/>
							<path id="_Path_48" class="st0" d="M139.2,615c0.5,0.1,0.7,0.6,0.6,1.1c-0.1,0.3-0.3,0.5-0.6,0.6c-0.9,0.5-1.9,0.5-2.8,0
								c-0.5-0.1-0.7-0.6-0.6-1.1c0.1-0.3,0.3-0.5,0.6-0.6C137.2,614.5,138.3,614.5,139.2,615z"/>
							<path id="_Path_49" class="st0" d="M146.6,610.7c0.5,0.1,0.7,0.6,0.6,1.1c-0.1,0.3-0.3,0.5-0.6,0.6c-0.9,0.5-1.9,0.5-2.8,0
								c-0.5-0.1-0.7-0.6-0.6-1.1c0.1-0.3,0.3-0.5,0.6-0.6C144.6,610.3,145.7,610.3,146.6,610.7z"/>
							<path id="_Path_50" class="st0" d="M154,606.5c0.5,0.1,0.7,0.6,0.6,1.1c-0.1,0.3-0.3,0.5-0.6,0.6c-0.9,0.5-1.9,0.5-2.8,0
								c-0.5-0.1-0.7-0.6-0.6-1.1c0.1-0.3,0.3-0.5,0.6-0.6C152.1,606,153.1,606,154,606.5z"/>
							<path id="_Path_51" class="st0" d="M131.8,610.7c0.5,0.1,0.7,0.6,0.6,1.1c-0.1,0.3-0.3,0.5-0.6,0.6c-0.9,0.5-1.9,0.5-2.8,0
								c-0.5-0.1-0.7-0.6-0.6-1.1c0.1-0.3,0.3-0.5,0.6-0.6C129.8,610.3,130.9,610.3,131.8,610.7z"/>
							<path id="_Path_52" class="st0" d="M139.2,606.5c0.5,0.1,0.7,0.6,0.6,1.1c-0.1,0.3-0.3,0.5-0.6,0.6c-0.9,0.5-1.9,0.5-2.8,0
								c-0.5-0.1-0.7-0.6-0.6-1.1c0.1-0.3,0.3-0.5,0.6-0.6C137.2,606,138.3,606,139.2,606.5z"/>
							<path id="_Path_53" class="st0" d="M146.6,602.2c0.5,0.1,0.7,0.6,0.6,1.1c-0.1,0.3-0.3,0.5-0.6,0.6c-0.9,0.5-1.9,0.5-2.8,0
								c-0.5-0.1-0.7-0.6-0.6-1.1c0.1-0.3,0.3-0.5,0.6-0.6C144.6,601.7,145.7,601.7,146.6,602.2z"/>
							<path id="_Path_54" class="st0" d="M124.4,606.5c0.5,0.1,0.7,0.6,0.6,1.1c-0.1,0.3-0.3,0.5-0.6,0.6c-0.9,0.5-1.9,0.5-2.8,0
								c-0.5-0.1-0.7-0.6-0.6-1.1c0.1-0.3,0.3-0.5,0.6-0.6C122.4,606,123.5,606,124.4,606.5z"/>
							<path id="_Path_55" class="st0" d="M131.8,602.2c0.5,0.1,0.7,0.6,0.6,1.1c-0.1,0.3-0.3,0.5-0.6,0.6c-0.9,0.5-1.9,0.5-2.8,0
								c-0.5-0.1-0.7-0.6-0.6-1.1c0.1-0.3,0.3-0.5,0.6-0.6C129.8,601.7,130.9,601.7,131.8,602.2z"/>
							<path id="_Path_56" class="st0" d="M139.2,597.9c0.5,0.1,0.7,0.6,0.6,1.1c-0.1,0.3-0.3,0.5-0.6,0.6c-0.9,0.5-1.9,0.5-2.8,0
								c-0.5-0.1-0.7-0.6-0.6-1.1c0.1-0.3,0.3-0.5,0.6-0.6C137.2,597.4,138.3,597.4,139.2,597.9z"/>
							<path id="_Path_57" class="st0" d="M116.9,602.2c0.5,0.1,0.7,0.6,0.6,1.1c-0.1,0.3-0.3,0.5-0.6,0.6c-0.9,0.5-1.9,0.5-2.8,0
								c-0.5-0.1-0.7-0.6-0.6-1.1c0.1-0.3,0.3-0.5,0.6-0.6C115,601.7,116.1,601.7,116.9,602.2z"/>
							<path id="_Path_58" class="st0" d="M124.4,597.9c0.5,0.1,0.7,0.6,0.6,1.1c-0.1,0.3-0.3,0.5-0.6,0.6c-0.9,0.5-1.9,0.5-2.8,0
								c-0.5-0.1-0.7-0.6-0.6-1.1c0.1-0.3,0.3-0.5,0.6-0.6C122.4,597.4,123.5,597.4,124.4,597.9z"/>
							<path id="_Path_59" class="st0" d="M131.8,593.6c0.5,0.1,0.7,0.6,0.6,1.1c-0.1,0.3-0.3,0.5-0.6,0.6c-0.9,0.5-1.9,0.5-2.8,0
								c-0.5-0.1-0.7-0.6-0.6-1.1c0.1-0.3,0.3-0.5,0.6-0.6C129.8,593.2,130.9,593.2,131.8,593.6z"/>
							<path id="_Path_60" class="st0" d="M109.5,597.9c0.5,0.1,0.7,0.6,0.6,1.1c-0.1,0.3-0.3,0.5-0.6,0.6c-0.9,0.5-1.9,0.5-2.8,0
								c-0.5-0.1-0.7-0.6-0.6-1.1c0.1-0.3,0.3-0.5,0.6-0.6C107.5,597.4,108.6,597.4,109.5,597.9z"/>
							<path id="_Path_61" class="st0" d="M116.9,593.6c0.5,0.1,0.7,0.6,0.6,1.1c-0.1,0.3-0.3,0.5-0.6,0.6c-0.9,0.5-1.9,0.5-2.8,0
								c-0.5-0.1-0.7-0.6-0.6-1.1c0.1-0.3,0.3-0.5,0.6-0.6C114.9,593.1,116,593.1,116.9,593.6z"/>
							<path id="_Path_62" class="st0" d="M124.3,589.3c0.5,0.1,0.7,0.6,0.6,1.1c-0.1,0.3-0.3,0.5-0.6,0.6c-0.9,0.5-1.9,0.5-2.8,0
								c-0.5-0.1-0.7-0.6-0.6-1.1c0.1-0.3,0.3-0.5,0.6-0.6C122.3,588.8,123.4,588.8,124.3,589.3z"/>
							<path id="_Path_63" class="st0" d="M102.1,593.6c0.5,0.1,0.7,0.6,0.6,1.1c-0.1,0.3-0.3,0.5-0.6,0.6c-0.9,0.5-1.9,0.5-2.8,0
								c-0.5-0.1-0.7-0.6-0.6-1.1c0.1-0.3,0.3-0.5,0.6-0.6C100.1,593.1,101.2,593.1,102.1,593.6z"/>
							<path id="_Path_64" class="st0" d="M109.5,589.3c0.5,0.1,0.7,0.6,0.6,1.1c-0.1,0.3-0.3,0.5-0.6,0.6c-0.9,0.5-1.9,0.5-2.8,0
								c-0.5-0.1-0.7-0.6-0.6-1.1c0.1-0.3,0.3-0.5,0.6-0.6C107.5,588.8,108.6,588.8,109.5,589.3z"/>
							<path id="_Path_65" class="st0" d="M116.9,585c0.5,0.1,0.7,0.6,0.6,1.1c-0.1,0.3-0.3,0.5-0.6,0.6c-0.9,0.5-1.9,0.5-2.8,0
								c-0.5-0.1-0.7-0.6-0.6-1.1c0.1-0.3,0.3-0.5,0.6-0.6C114.9,584.5,116,584.5,116.9,585z"/>
							<path id="_Path_66" class="st0" d="M94.7,589.3c0.5,0.1,0.7,0.6,0.6,1.1c-0.1,0.3-0.3,0.5-0.6,0.6c-0.9,0.5-1.9,0.5-2.8,0
								c-0.5-0.1-0.7-0.6-0.6-1.1c0.1-0.3,0.3-0.5,0.6-0.6C92.7,588.8,93.8,588.8,94.7,589.3z"/>
							<path id="_Path_67" class="st0" d="M102.1,585c0.5,0.1,0.7,0.6,0.6,1.1c-0.1,0.3-0.3,0.5-0.6,0.6c-0.9,0.5-1.9,0.5-2.8,0
								c-0.5-0.1-0.7-0.6-0.6-1.1c0.1-0.3,0.3-0.5,0.6-0.6C100.1,584.5,101.2,584.5,102.1,585z"/>
							<path id="_Path_68" class="st0" d="M109.5,580.8c0.5,0.1,0.7,0.6,0.6,1.1c-0.1,0.3-0.3,0.5-0.6,0.6c-0.9,0.5-1.9,0.5-2.8,0
								c-0.5-0.1-0.7-0.6-0.6-1.1c0.1-0.3,0.3-0.5,0.6-0.6C107.5,580.3,108.6,580.3,109.5,580.8z"/>
							<path id="_Path_69" class="st0" d="M94.7,580.8c0.5,0.1,0.7,0.6,0.6,1.1c-0.1,0.3-0.3,0.5-0.6,0.6c-0.9,0.5-1.9,0.5-2.8,0
								c-0.5-0.1-0.7-0.6-0.6-1.1c0.1-0.3,0.3-0.5,0.6-0.6C92.7,580.3,93.8,580.3,94.7,580.8z"/>
							<path id="_Path_70" class="st0" d="M102.1,576.5c0.5,0.1,0.7,0.6,0.6,1.1c-0.1,0.3-0.3,0.5-0.6,0.6c-0.9,0.5-1.9,0.5-2.8,0
								c-0.5-0.1-0.7-0.6-0.6-1.1c0.1-0.3,0.3-0.5,0.6-0.6C100.1,576,101.2,576,102.1,576.5z"/>
							<path id="_Path_71" class="st0" d="M247.5,619.4c0.9-0.5,1.9-0.5,2.8,0c0.5,0.1,0.7,0.6,0.6,1.1c-0.1,0.3-0.3,0.5-0.6,0.6
								c-0.9,0.5-1.9,0.5-2.8,0c-0.5-0.1-0.7-0.6-0.6-1.1C247,619.7,247.2,619.5,247.5,619.4z"/>
							<path id="_Path_72" class="st0" d="M257.8,615.1c0.5,0.1,0.7,0.6,0.6,1.1c-0.1,0.3-0.3,0.5-0.6,0.6c-0.9,0.5-1.9,0.5-2.8,0
								c-0.5-0.1-0.7-0.6-0.6-1.1c0.1-0.3,0.3-0.5,0.6-0.6C255.8,614.6,256.9,614.6,257.8,615.1z"/>
							<path id="_Path_73" class="st0" d="M265.1,610.8c0.5,0.1,0.7,0.6,0.6,1.1c-0.1,0.3-0.3,0.5-0.6,0.6c-0.9,0.5-1.9,0.5-2.8,0
								c-0.5-0.1-0.7-0.6-0.6-1.1c0.1-0.3,0.3-0.5,0.6-0.6C263.2,610.4,264.3,610.4,265.1,610.8z"/>
							<path id="_Path_74" class="st0" d="M272.6,606.5c0.5,0.1,0.7,0.6,0.6,1.1c-0.1,0.3-0.3,0.5-0.6,0.6c-0.9,0.5-1.9,0.5-2.8,0
								c-0.5-0.1-0.7-0.6-0.6-1.1c0.1-0.3,0.3-0.5,0.6-0.6C270.6,606.1,271.7,606.1,272.6,606.5z"/>
							<path id="_Path_75" class="st0" d="M280,602.3c0.5,0.1,0.7,0.6,0.6,1.1c-0.1,0.3-0.3,0.5-0.6,0.6c-0.9,0.5-1.9,0.5-2.8,0
								c-0.5-0.1-0.7-0.6-0.6-1.1c0.1-0.3,0.3-0.5,0.6-0.6C278.1,601.8,279.1,601.8,280,602.3z"/>
							<path id="_Path_76" class="st0" d="M287.4,598c0.5,0.1,0.7,0.6,0.6,1.1c-0.1,0.3-0.3,0.5-0.6,0.6c-0.9,0.5-1.9,0.5-2.8,0
								c-0.5-0.1-0.7-0.6-0.6-1.1c0.1-0.3,0.3-0.5,0.6-0.6C285.4,597.5,286.5,597.5,287.4,598z"/>
							<path id="_Path_77" class="st0" d="M294.8,593.7c0.5,0.1,0.7,0.6,0.6,1.1c-0.1,0.3-0.3,0.5-0.6,0.6c-0.9,0.5-1.9,0.5-2.8,0
								c-0.5-0.1-0.7-0.6-0.6-1.1c0.1-0.3,0.3-0.5,0.6-0.6C292.8,593.3,293.9,593.3,294.8,593.7z"/>
							<path id="_Path_78" class="st0" d="M240.1,615.1c0.9-0.5,1.9-0.5,2.8,0c0.5,0.1,0.7,0.6,0.6,1.1c-0.1,0.3-0.3,0.5-0.6,0.6
								c-0.9,0.5-1.9,0.5-2.8,0c-0.5-0.1-0.7-0.6-0.6-1.1C239.6,615.4,239.8,615.2,240.1,615.1z"/>
							<path id="_Path_79" class="st0" d="M250.3,610.8c0.5,0.1,0.7,0.6,0.6,1.1c-0.1,0.3-0.3,0.5-0.6,0.6c-0.9,0.5-1.9,0.5-2.8,0
								c-0.5-0.1-0.7-0.6-0.6-1.1c0.1-0.3,0.3-0.5,0.6-0.6C248.4,610.4,249.5,610.4,250.3,610.8z"/>
							<path id="_Path_80" class="st0" d="M257.8,606.5c0.5,0.1,0.7,0.6,0.6,1.1c-0.1,0.3-0.3,0.5-0.6,0.6c-0.9,0.5-1.9,0.5-2.8,0
								c-0.5-0.1-0.7-0.6-0.6-1.1c0.1-0.3,0.3-0.5,0.6-0.6C255.8,606.1,256.9,606.1,257.8,606.5z"/>
							<path id="_Path_81" class="st0" d="M265.1,602.3c0.5,0.1,0.7,0.6,0.6,1.1c-0.1,0.3-0.3,0.5-0.6,0.6c-0.9,0.5-1.9,0.5-2.8,0
								c-0.5-0.1-0.7-0.6-0.6-1.1c0.1-0.3,0.3-0.5,0.6-0.6C263.2,601.8,264.3,601.8,265.1,602.3z"/>
							<path id="_Path_82" class="st0" d="M272.6,598c0.5,0.1,0.7,0.6,0.6,1.1c-0.1,0.3-0.3,0.5-0.6,0.6c-0.9,0.5-1.9,0.5-2.8,0
								c-0.5-0.1-0.7-0.6-0.6-1.1c0.1-0.3,0.3-0.5,0.6-0.6C270.6,597.5,271.7,597.5,272.6,598z"/>
							<path id="_Path_83" class="st0" d="M280,593.7c0.5,0.1,0.7,0.6,0.6,1.1c-0.1,0.3-0.3,0.5-0.6,0.6c-0.9,0.5-1.9,0.5-2.8,0
								c-0.5-0.1-0.7-0.6-0.6-1.1c0.1-0.3,0.3-0.5,0.6-0.6C278.1,593.3,279.1,593.3,280,593.7z"/>
							<path id="_Path_84" class="st0" d="M287.4,589.5c0.5,0.1,0.7,0.6,0.6,1.1c-0.1,0.3-0.3,0.5-0.6,0.6c-0.9,0.5-1.9,0.5-2.8,0
								c-0.5-0.1-0.7-0.6-0.6-1.1c0.1-0.3,0.3-0.5,0.6-0.6C285.4,589,286.5,589,287.4,589.5z"/>
							<path id="_Path_85" class="st0" d="M294.8,585.2c0.5,0.1,0.7,0.6,0.6,1.1c-0.1,0.3-0.3,0.5-0.6,0.6c-0.9,0.5-1.9,0.5-2.8,0
								c-0.5-0.1-0.7-0.6-0.6-1.1c0.1-0.3,0.3-0.5,0.6-0.6C292.8,584.7,293.9,584.7,294.8,585.2z"/>
							<path id="_Path_86" class="st0" d="M232.7,610.8c0.9-0.5,1.9-0.5,2.8,0c0.5,0.1,0.7,0.6,0.6,1.1c-0.1,0.3-0.3,0.5-0.6,0.6
								c-0.9,0.5-1.9,0.5-2.8,0c-0.5-0.1-0.7-0.6-0.6-1.1C232.2,611.1,232.4,610.9,232.7,610.8z"/>
							<path id="_Path_87" class="st0" d="M242.9,606.5c0.5,0.1,0.7,0.6,0.6,1.1c-0.1,0.3-0.3,0.5-0.6,0.6c-0.9,0.5-1.9,0.5-2.8,0
								c-0.5-0.1-0.7-0.6-0.6-1.1c0.1-0.3,0.3-0.5,0.6-0.6C241,606.1,242.1,606.1,242.9,606.5z"/>
							<path id="_Path_88" class="st0" d="M250.3,602.3c0.5,0.1,0.7,0.6,0.6,1.1c-0.1,0.3-0.3,0.5-0.6,0.6c-0.9,0.5-1.9,0.5-2.8,0
								c-0.5-0.1-0.7-0.6-0.6-1.1c0.1-0.3,0.3-0.5,0.6-0.6C248.4,601.8,249.5,601.8,250.3,602.3z"/>
							<path id="_Path_89" class="st0" d="M257.8,598c0.5,0.1,0.7,0.6,0.6,1.1c-0.1,0.3-0.3,0.5-0.6,0.6c-0.9,0.5-1.9,0.5-2.8,0
								c-0.5-0.1-0.7-0.6-0.6-1.1c0.1-0.3,0.3-0.5,0.6-0.6C255.8,597.5,256.9,597.5,257.8,598z"/>
							<path id="_Path_90" class="st0" d="M265.1,593.7c0.5,0.1,0.7,0.6,0.6,1.1c-0.1,0.3-0.3,0.5-0.6,0.6c-0.9,0.5-1.9,0.5-2.8,0
								c-0.5-0.1-0.7-0.6-0.6-1.1c0.1-0.3,0.3-0.5,0.6-0.6C263.2,593.3,264.3,593.3,265.1,593.7z"/>
							<path id="_Path_91" class="st0" d="M272.6,589.5c0.5,0.1,0.7,0.6,0.6,1.1c-0.1,0.3-0.3,0.5-0.6,0.6c-0.9,0.5-1.9,0.5-2.8,0
								c-0.5-0.1-0.7-0.6-0.6-1.1c0.1-0.3,0.3-0.5,0.6-0.6C270.6,589,271.7,589,272.6,589.5z"/>
							<path id="_Path_92" class="st0" d="M280,585.2c0.5,0.1,0.7,0.6,0.6,1.1c-0.1,0.3-0.3,0.5-0.6,0.6c-0.9,0.5-1.9,0.5-2.8,0
								c-0.5-0.1-0.7-0.6-0.6-1.1c0.1-0.3,0.3-0.5,0.6-0.6C278.1,584.7,279.1,584.7,280,585.2z"/>
							<path id="_Path_93" class="st0" d="M287.4,580.9c0.5,0.1,0.7,0.6,0.6,1.1c-0.1,0.3-0.3,0.5-0.6,0.6c-0.9,0.5-1.9,0.5-2.8,0
								c-0.5-0.1-0.7-0.6-0.6-1.1c0.1-0.3,0.3-0.5,0.6-0.6C285.4,580.4,286.5,580.4,287.4,580.9z"/>
							<path id="_Path_94" class="st0" d="M225.3,606.6c0.9-0.5,1.9-0.5,2.8,0c0.5,0.1,0.7,0.6,0.6,1.1c-0.1,0.3-0.3,0.5-0.6,0.6
								c-0.9,0.5-1.9,0.5-2.8,0c-0.5-0.1-0.7-0.6-0.6-1.1C224.8,606.9,225,606.6,225.3,606.6z"/>
							<path id="_Path_95" class="st0" d="M235.5,602.3c0.5,0.1,0.7,0.6,0.6,1.1c-0.1,0.3-0.3,0.5-0.6,0.6c-0.9,0.5-1.9,0.5-2.8,0
								c-0.5-0.1-0.7-0.6-0.6-1.1c0.1-0.3,0.3-0.5,0.6-0.6C233.6,601.8,234.6,601.8,235.5,602.3z"/>
							<path id="_Path_96" class="st0" d="M242.9,598c0.5,0.1,0.7,0.6,0.6,1.1c-0.1,0.3-0.3,0.5-0.6,0.6c-0.9,0.5-1.9,0.5-2.8,0
								c-0.5-0.1-0.7-0.6-0.6-1.1c0.1-0.3,0.3-0.5,0.6-0.6C241,597.5,242.1,597.5,242.9,598z"/>
							<path id="_Path_97" class="st0" d="M250.3,593.7c0.5,0.1,0.7,0.6,0.6,1.1c-0.1,0.3-0.3,0.5-0.6,0.6c-0.9,0.5-1.9,0.5-2.8,0
								c-0.5-0.1-0.7-0.6-0.6-1.1c0.1-0.3,0.3-0.5,0.6-0.6C248.4,593.3,249.5,593.3,250.3,593.7z"/>
							<path id="_Path_98" class="st0" d="M257.8,589.5c0.5,0.1,0.7,0.6,0.6,1.1c-0.1,0.3-0.3,0.5-0.6,0.6c-0.9,0.5-1.9,0.5-2.8,0
								c-0.5-0.1-0.7-0.6-0.6-1.1c0.1-0.3,0.3-0.5,0.6-0.6C255.8,589,256.9,589,257.8,589.5z"/>
							<path id="_Path_99" class="st0" d="M265.1,585.2c0.5,0.1,0.7,0.6,0.6,1.1c-0.1,0.3-0.3,0.5-0.6,0.6c-0.9,0.5-1.9,0.5-2.8,0
								c-0.5-0.1-0.7-0.6-0.6-1.1c0.1-0.3,0.3-0.5,0.6-0.6C263.2,584.7,264.3,584.7,265.1,585.2z"/>
							<path id="_Path_100" class="st0" d="M272.6,580.9c0.5,0.1,0.7,0.6,0.6,1.1c-0.1,0.3-0.3,0.5-0.6,0.6c-0.9,0.5-1.9,0.5-2.8,0
								c-0.5-0.1-0.7-0.6-0.6-1.1c0.1-0.3,0.3-0.5,0.6-0.6C270.6,580.4,271.7,580.4,272.6,580.9z"/>
							<path id="_Path_101" class="st0" d="M280,576.6c0.5,0.1,0.7,0.6,0.6,1.1c-0.1,0.3-0.3,0.5-0.6,0.6c-0.9,0.5-1.9,0.5-2.8,0
								c-0.5-0.1-0.7-0.6-0.6-1.1c0.1-0.3,0.3-0.5,0.6-0.6C278.1,576.2,279.1,576.2,280,576.6z"/>
							<path id="_Path_102" class="st0" d="M217.8,602.2c0.9-0.5,1.9-0.5,2.8,0c0.5,0.1,0.7,0.6,0.6,1.1c-0.1,0.3-0.3,0.5-0.6,0.6
								c-0.9,0.5-1.9,0.5-2.8,0c-0.5-0.1-0.7-0.6-0.6-1.1C217.3,602.5,217.5,602.3,217.8,602.2z"/>
							<path id="_Path_103" class="st0" d="M228.1,598c0.5,0.1,0.7,0.6,0.6,1.1c-0.1,0.3-0.3,0.5-0.6,0.6c-0.9,0.5-1.9,0.5-2.8,0
								c-0.5-0.1-0.7-0.6-0.6-1.1c0.1-0.3,0.3-0.5,0.6-0.6C226.1,597.5,227.2,597.5,228.1,598z"/>
							<path id="_Path_104" class="st0" d="M235.5,593.7c0.5,0.1,0.7,0.6,0.6,1.1c-0.1,0.3-0.3,0.5-0.6,0.6c-0.9,0.5-1.9,0.5-2.8,0
								c-0.5-0.1-0.7-0.6-0.6-1.1c0.1-0.3,0.3-0.5,0.6-0.6C233.5,593.2,234.6,593.2,235.5,593.7z"/>
							<path id="_Path_105" class="st0" d="M242.9,589.4c0.5,0.1,0.7,0.6,0.6,1.1c-0.1,0.3-0.3,0.5-0.6,0.6c-0.9,0.5-1.9,0.5-2.8,0
								c-0.5-0.1-0.7-0.6-0.6-1.1c0.1-0.3,0.3-0.5,0.6-0.6C240.9,588.9,242,588.9,242.9,589.4z"/>
							<path id="_Path_106" class="st0" d="M250.3,585.1c0.5,0.1,0.7,0.6,0.6,1.1c-0.1,0.3-0.3,0.5-0.6,0.6c-0.9,0.5-1.9,0.5-2.8,0
								c-0.5-0.1-0.7-0.6-0.6-1.1c0.1-0.3,0.3-0.5,0.6-0.6C248.3,584.7,249.4,584.7,250.3,585.1z"/>
							<path id="_Path_107" class="st0" d="M257.7,580.8c0.5,0.1,0.7,0.6,0.6,1.1c-0.1,0.3-0.3,0.5-0.6,0.6c-0.9,0.5-1.9,0.5-2.8,0
								c-0.5-0.1-0.7-0.6-0.6-1.1c0.1-0.3,0.3-0.5,0.6-0.6C255.7,580.4,256.8,580.4,257.7,580.8z"/>
							<path id="_Path_108" class="st0" d="M213.2,598c0.5,0.1,0.7,0.6,0.6,1.1c-0.1,0.3-0.3,0.5-0.6,0.6c-0.9,0.5-1.9,0.5-2.8,0
								C209.6,599.2,212.4,597.5,213.2,598z"/>
						</g>
						<g id="_Group_3">
							<g id="_Group_4">
								<polygon id="_Path_109" class="st1" points="280.4,569.8 188.9,622.6 97.5,569.8 188.9,517.1 								"/>
								<polygon id="_Path_110" class="st2" points="280.4,579.1 188.9,631.9 97.5,579.1 188.9,526.3 								"/>
								<polygon id="_Path_111" class="st1" points="97.5,569.8 97.5,578.2 188.9,631 188.9,622.6 								"/>
								<g id="_Group_5">
									<polygon id="_Path_112" class="st3" points="280.4,569.8 280.4,578.2 188.9,631 188.9,622.6 									"/>
									<path id="_Compound_Path_" class="st0" d="M281.2,569.4l-91.8-53l-0.4-0.2l-92.2,53.2v9.3l92.2,53.2l92.2-53.2L281.2,569.4
										z M188.9,518l89.8,51.8l-29.1,16.8l-60.7,35l-89.8-51.8L188.9,518z M98.3,577.7v-6.5l89.8,51.8v6.5L98.3,577.7z
										 M279.6,571.2v6.5l-89.8,51.8v-6.5l42.7-24.7L279.6,571.2z"/>
								</g>
							</g>
							<g id="_Group_6">
								<g id="_Group_7">
									<g id="_Group_8">
										<g id="_Group_9">
											<path id="_Path_113" class="st1" d="M223.3,570.3v-9.5c0-0.9-0.8-1.7-1.7-1.7c0,0,0,0,0,0h-5c-1.1-0.8-2.2-1.6-3.4-2.3
												c-13.4-7.8-35.2-7.8-48.7,0c-1.2,0.7-2.3,1.5-3.4,2.3h-5c-0.9,0-1.7,0.8-1.7,1.7l0,0v9.5c0,0.4,0,0.8,0,1.2l0,0
												c0.4,4.7,3.8,9.9,10,13.5c13.4,7.8,35.2,7.8,48.7,0c6.3-3.6,9.6-8.3,10-13v-0.5l0,0C223.4,571,223.4,570.6,223.3,570.3z"
												/>
											<path id="_Compound_Path_2" class="st0" d="M188.9,591.5c-9,0-17.9-2-24.8-5.9c-5.9-3.4-9.8-8.5-10.4-13.7l0,0v-0.5
												c0-0.4,0-0.8,0-1.2v-9.4c0-1.4,1.1-2.5,2.5-2.5l0,0h4.7c1-0.8,2.1-1.5,3.2-2.2c13.6-7.9,35.9-7.9,49.5,0
												c1.1,0.7,2.2,1.4,3.2,2.2h4.7c1.4,0,2.5,1.1,2.5,2.5c0,0,0,0,0,0v9.5c0,0.4,0,0.7,0,1.1v0.5c-0.5,5.2-4.2,10.1-10.4,13.7
												C206.9,589.5,197.9,591.5,188.9,591.5z M155.4,571.3c0.4,4.8,4,9.6,9.6,12.8c13.2,7.6,34.7,7.6,47.9,0
												c5.8-3.3,9.2-7.7,9.6-12.4v-0.5c0-0.3,0-0.6,0-1v-9.6c0-0.2-0.1-0.5-0.3-0.6c-0.2-0.2-0.4-0.3-0.6-0.3h-5.3l-0.2-0.2
												c-1-0.8-2.1-1.6-3.3-2.2c-13.2-7.6-34.7-7.6-47.9,0c-1.1,0.7-2.2,1.4-3.3,2.2l-0.2,0.2h-5.2c-0.5,0-0.9,0.4-0.9,0.9l0,0
												v9.5C155.4,570.6,155.4,571,155.4,571.3z"/>
										</g>
										<g id="_Group_10">
											<path id="_Path_114" class="st1" d="M213.3,546c13.4,7.8,13.4,20.3,0,28.1s-35.2,7.8-48.7,0s-13.4-20.3,0-28.1
												S199.9,538.2,213.3,546z"/>
											<path id="_Path_115" class="st4" d="M164.6,553.2c-5.1,3-8.3,6.7-9.5,10.5c1.2,3.8,4.4,7.5,9.5,10.4
												c13.4,7.8,35.2,7.8,48.7,0c5.1-3,8.3-6.7,9.5-10.5c-1.2-3.8-4.4-7.5-9.5-10.4C199.9,545.4,178.1,545.4,164.6,553.2z"/>
											<path id="_Compound_Path_3" class="st0" d="M188.9,580.7c-9,0-17.9-2-24.8-5.9s-10.5-9.2-10.5-14.8s3.7-10.9,10.5-14.8
												c13.6-7.9,35.9-7.9,49.5,0l0,0c6.8,3.9,10.5,9.2,10.5,14.8s-3.7,10.9-10.5,14.8S197.9,580.7,188.9,580.7z M188.9,541
												c-8.7,0-17.3,1.9-23.9,5.7c-6.2,3.6-9.7,8.3-9.7,13.4s3.4,9.8,9.7,13.4c13.2,7.6,34.7,7.6,47.9,0
												c6.2-3.6,9.7-8.3,9.7-13.4s-3.4-9.8-9.7-13.4C206.3,542.9,197.6,541,188.9,541L188.9,541z"/>
										</g>
									</g>
									<g id="_Group_11">
										<path id="_Path_116" class="st1" d="M165.2,560.5c0.7,0.2,1.1,1,0.9,1.7c-0.1,0.4-0.5,0.7-0.9,0.9c-1.4,0.7-3.1,0.7-4.5,0
											c-0.7-0.2-1.1-1-0.9-1.7c0.1-0.4,0.5-0.7,0.9-0.9C162.2,559.8,163.8,559.8,165.2,560.5z"/>
										<path id="_Compound_Path_4" class="st0" d="M163.1,562.7c-0.9,0-1.8-0.2-2.6-0.6c-1.1-0.5-1.6-1.7-1.2-2.8
											c0.2-0.5,0.6-1,1.2-1.2c1.7-0.9,3.6-0.9,5.3,0l0,0c1.1,0.5,1.6,1.7,1.2,2.8c-0.2,0.5-0.6,1-1.2,1.2
											C164.9,562.5,164,562.7,163.1,562.7z M163.1,559c-0.6,0-1.3,0.1-1.8,0.4c-0.3,0.2-0.5,0.4-0.5,0.6s0.2,0.4,0.5,0.6
											c1.2,0.6,2.5,0.6,3.7,0c0.3-0.2,0.5-0.4,0.5-0.6s-0.2-0.4-0.5-0.6l0,0C164.3,559.2,163.7,559,163.1,559L163.1,559z"/>
									</g>
									<g id="_Group_12">
										<path id="_Path_117" class="st1" d="M191.1,575c0.7,0.2,1.1,1,0.9,1.7c-0.1,0.4-0.5,0.7-0.9,0.9c-1.4,0.7-3.1,0.7-4.5,0
											c-0.7-0.2-1.1-1-0.9-1.7c0.1-0.4,0.5-0.7,0.9-0.9C188,574.3,189.7,574.3,191.1,575z"/>
										<path id="_Compound_Path_5" class="st0" d="M189,577.1c-0.9,0-1.8-0.2-2.6-0.6c-1.1-0.5-1.6-1.7-1.2-2.8
											c0.2-0.5,0.6-1,1.2-1.2c1.7-0.9,3.6-0.9,5.3,0c1.1,0.5,1.6,1.7,1.2,2.8c-0.2,0.5-0.6,1-1.2,1.2
											C190.8,576.9,189.9,577.2,189,577.1z M189,573.5c-0.6,0-1.3,0.1-1.8,0.4c-0.3,0.2-0.5,0.4-0.5,0.6s0.2,0.4,0.5,0.6
											c1.2,0.6,2.5,0.6,3.7,0c0.3-0.2,0.5-0.4,0.5-0.6s-0.2-0.4-0.5-0.6l0,0C190.3,573.6,189.6,573.5,189,573.5z"/>
									</g>
									<g id="_Group_13">
										<path id="_Path_118" class="st1" d="M173.6,570.9c0.7,0.2,1.1,1,0.9,1.7c-0.1,0.4-0.5,0.7-0.9,0.9c-1.4,0.7-3.1,0.7-4.5,0
											c-0.7-0.2-1.1-1-0.9-1.7c0.1-0.4,0.5-0.7,0.9-0.9C170.6,570.2,172.2,570.2,173.6,570.9z"/>
										<path id="_Compound_Path_6" class="st0" d="M171.5,573.1c-0.9,0-1.8-0.2-2.6-0.6c-1.1-0.5-1.6-1.7-1.2-2.8
											c0.2-0.5,0.6-1,1.2-1.2c1.7-0.9,3.6-0.9,5.3,0c1.1,0.5,1.6,1.7,1.2,2.8c-0.2,0.5-0.6,1-1.2,1.2
											C173.3,572.9,172.4,573.1,171.5,573.1z M171.5,569.5c-0.6,0-1.3,0.1-1.8,0.4c-0.3,0.2-0.5,0.4-0.5,0.6s0.2,0.4,0.5,0.6
											c1.2,0.6,2.5,0.6,3.7,0c0.3-0.2,0.5-0.4,0.5-0.6s-0.2-0.4-0.5-0.6C172.7,569.6,172.1,569.4,171.5,569.5L171.5,569.5z"/>
									</g>
									<g id="_Group_14">
										<path id="_Path_119" class="st1" d="M173.6,550.1c0.7,0.2,1.1,1,0.9,1.7c-0.1,0.4-0.5,0.7-0.9,0.9c-1.4,0.7-3.1,0.7-4.5,0
											c-0.7-0.2-1.1-1-0.9-1.7c0.1-0.4,0.5-0.7,0.9-0.9C170.6,549.3,172.2,549.3,173.6,550.1z"/>
										<path id="_Compound_Path_7" class="st0" d="M171.5,552.2c-0.9,0-1.8-0.2-2.6-0.6c-1.1-0.5-1.6-1.7-1.2-2.8
											c0.2-0.5,0.6-1,1.2-1.2c1.7-0.9,3.6-0.9,5.3,0c1.1,0.5,1.6,1.7,1.2,2.8c-0.2,0.5-0.6,1-1.2,1.2
											C173.3,552,172.4,552.3,171.5,552.2z M171.5,548.6c-0.6,0-1.3,0.1-1.8,0.4c-0.3,0.2-0.5,0.4-0.5,0.6s0.2,0.4,0.5,0.6
											c1.2,0.6,2.5,0.6,3.7,0c0.3-0.2,0.5-0.4,0.5-0.6s-0.2-0.4-0.5-0.6C172.7,548.7,172.1,548.6,171.5,548.6L171.5,548.6z"/>
									</g>
									<g id="_Group_15">
										<path id="_Path_120" class="st1" d="M209,550.1c0.7,0.2,1.1,1,0.9,1.7c-0.1,0.4-0.5,0.7-0.9,0.9c-1.4,0.7-3.1,0.7-4.5,0
											c-0.7-0.2-1.1-1-0.9-1.7c0.1-0.4,0.5-0.7,0.9-0.9C205.9,549.3,207.6,549.3,209,550.1z"/>
										<path id="_Compound_Path_8" class="st0" d="M206.8,552.2c-0.9,0-1.8-0.2-2.6-0.6c-1.1-0.5-1.6-1.7-1.2-2.8
											c0.2-0.5,0.6-1,1.2-1.2c1.7-0.9,3.6-0.9,5.3,0c1.1,0.5,1.6,1.7,1.2,2.8c-0.2,0.5-0.6,1-1.2,1.2
											C208.6,552,207.7,552.3,206.8,552.2z M206.8,548.6c-0.6,0-1.2,0.1-1.8,0.4c-0.3,0.2-0.5,0.4-0.5,0.6s0.2,0.4,0.5,0.6
											c1.2,0.6,2.5,0.6,3.7,0c0.3-0.2,0.5-0.4,0.5-0.6s-0.2-0.4-0.5-0.6C208.1,548.7,207.5,548.6,206.8,548.6L206.8,548.6z"/>
									</g>
									<g id="_Group_16">
										<path id="_Path_121" class="st1" d="M209.4,570.3c0.7,0.2,1.1,1,0.9,1.7c-0.1,0.4-0.5,0.7-0.9,0.9c-1.4,0.7-3.1,0.7-4.5,0
											c-0.7-0.2-1.1-1-0.9-1.7c0.1-0.4,0.5-0.7,0.9-0.9C206.3,569.6,208,569.6,209.4,570.3z"/>
										<path id="_Compound_Path_9" class="st0" d="M207.2,572.5c-0.9,0-1.8-0.2-2.6-0.6c-1.1-0.5-1.6-1.7-1.2-2.8
											c0.2-0.5,0.6-1,1.2-1.2c1.7-0.9,3.6-0.9,5.3,0c1.1,0.5,1.6,1.7,1.2,2.8c-0.2,0.5-0.6,1-1.2,1.2
											C209.1,572.3,208.2,572.5,207.2,572.5z M207.2,568.8c-0.6,0-1.3,0.1-1.8,0.4c-0.3,0.2-0.5,0.4-0.5,0.6s0.2,0.4,0.5,0.6
											c1.2,0.6,2.5,0.6,3.7,0c0.3-0.2,0.5-0.4,0.5-0.6s-0.2-0.4-0.5-0.6C208.5,569,207.9,568.8,207.2,568.8z"/>
									</g>
									<g id="_Group_17">
										<path id="_Path_122" class="st1" d="M217.2,560.5c0.7,0.2,1.1,1,0.9,1.7c-0.1,0.4-0.5,0.7-0.9,0.9c-1.4,0.7-3.1,0.7-4.5,0
											c-0.7-0.2-1.1-1-0.9-1.7c0.1-0.4,0.5-0.7,0.9-0.9C214.1,559.8,215.8,559.8,217.2,560.5z"/>
										<path id="_Compound_Path_10" class="st0" d="M215,562.7c-0.9,0-1.8-0.2-2.6-0.6c-1.1-0.5-1.6-1.7-1.2-2.8
											c0.2-0.5,0.6-1,1.2-1.2c1.7-0.9,3.6-0.9,5.3,0l0,0c1.1,0.5,1.6,1.7,1.2,2.8c-0.2,0.5-0.6,1-1.2,1.2
											C216.8,562.5,215.9,562.7,215,562.7z M215,559c-0.6,0-1.3,0.1-1.8,0.4c-0.3,0.2-0.5,0.4-0.5,0.6s0.2,0.4,0.5,0.6
											c1.2,0.6,2.5,0.6,3.7,0c0.3-0.2,0.5-0.4,0.5-0.6s-0.2-0.4-0.5-0.6l0,0C216.3,559.2,215.6,559,215,559L215,559z"/>
									</g>
								</g>
								<polygon id="_Path_123" class="st3" points="189,579.9 188.9,590.7 198.7,589.9 210.4,586.3 217.4,582 222.6,576.3 
									223.4,567.8 222.6,564.9 218.9,569.9 210.8,575.4 197.5,579.6 								"/>
							</g>
							<g id="_Group_18">
								<g id="_Group_19">
									<path id="_Path_124" class="st1" d="M171.1,314.7v244.2l0,0c0,2.6,1.8,5.2,5.3,7.2c6.9,4,18.2,4,25.1,0
										c3.5-2,5.3-4.6,5.3-7.2l0,0V314.7H171.1z"/>
									<path id="_Compound_Path_11" class="st0" d="M188.9,569.9c-4.5,0.1-9-1-13-3.1c-3.7-2.1-5.7-5-5.7-8v-245h37.4v245
										c0,3-2,5.8-5.7,8C197.9,568.9,193.4,570,188.9,569.9z M171.9,315.5v243.4c0,2.4,1.8,4.8,4.9,6.5c6.7,3.9,17.6,3.9,24.3,0
										c3.1-1.8,4.9-4.2,4.9-6.5V315.5H171.9z"/>
								</g>
								<polygon id="_Path_125" class="st3" points="193.3,395.9 193.3,568.8 196.8,568 202.8,564.9 206.7,561.1 206.7,404.6 
																	"/>
							</g>
							<g id="_Group_20">
								<g id="_Group_21">
									<polygon id="_Path_126" class="st1" points="354.3,371.3 387.2,351.4 129.9,202.9 96.9,222.7 									"/>
									<polygon id="_Path_127" class="st5" points="352.8,378.6 385.7,358.7 128.4,210.1 95.4,230 									"/>
									<path id="_Compound_Path_12" class="st0" d="M354.3,372.3l-0.4-0.2L95.3,222.8l34.5-20.9l0.4,0.2L388,351v0.9L354.3,372.3z
										 M98.5,222.7l255.7,147.7l31.4-18.9L129.9,203.8L98.5,222.7z"/>
								</g>
								<g id="_Group_22">
									<polygon id="_Path_128" class="st6" points="387.2,351.4 387.2,357.7 354.3,377.6 354.3,371.3 									"/>
									<path id="_Compound_Path_13" class="st0" d="M353.5,379.1v-8.2l33.8-20.4l0.8,0.5v7.2L353.5,379.1z M355.1,371.8v4.4
										l31.3-18.9v-4.4L355.1,371.8z"/>
								</g>
							</g>
							
								<linearGradient id="_Path_129_1_" gradientUnits="userSpaceOnUse" x1="381.5609" y1="512.0795" x2="303.4709" y2="373.9395" gradientTransform="matrix(1 0 0 -1 0 644)">
								<stop  offset="0" style="stop-color:#FFEAA8"/>
								<stop  offset="0.27" style="stop-color:#FEE9A8;stop-opacity:0.99"/>
								<stop  offset="0.37" style="stop-color:#FBE7A6;stop-opacity:0.97"/>
								<stop  offset="0.44" style="stop-color:#F5E2A4;stop-opacity:0.93"/>
								<stop  offset="0.49" style="stop-color:#EDDBA1;stop-opacity:0.87"/>
								<stop  offset="0.54" style="stop-color:#E3D39D;stop-opacity:0.79"/>
								<stop  offset="0.58" style="stop-color:#D6C898;stop-opacity:0.69"/>
								<stop  offset="0.62" style="stop-color:#C6BC92;stop-opacity:0.58"/>
								<stop  offset="0.66" style="stop-color:#B5AD8B;stop-opacity:0.44"/>
								<stop  offset="0.69" style="stop-color:#A19D83;stop-opacity:0.3"/>
								<stop  offset="0.71" style="stop-color:#94927E;stop-opacity:0.2"/>
								<stop  offset="1" style="stop-color:#314056;stop-opacity:0"/>
							</linearGradient>
							<polygon id="_Path_129" class="st7" points="335.9,103.3 364.3,305.3 266.8,249 319.6,98.6 331.8,105.6 							"/>
							
								<linearGradient id="_Path_130_1_" gradientUnits="userSpaceOnUse" x1="315.0171" y1="555.7916" x2="236.9271" y2="417.6516" gradientTransform="matrix(1 0 0 -1 0 644)">
								<stop  offset="0" style="stop-color:#FFEAA8"/>
								<stop  offset="0.27" style="stop-color:#FEE9A8;stop-opacity:0.99"/>
								<stop  offset="0.37" style="stop-color:#FBE7A6;stop-opacity:0.97"/>
								<stop  offset="0.44" style="stop-color:#F5E2A4;stop-opacity:0.93"/>
								<stop  offset="0.49" style="stop-color:#EDDBA1;stop-opacity:0.87"/>
								<stop  offset="0.54" style="stop-color:#E3D39D;stop-opacity:0.79"/>
								<stop  offset="0.58" style="stop-color:#D6C898;stop-opacity:0.69"/>
								<stop  offset="0.62" style="stop-color:#C6BC92;stop-opacity:0.58"/>
								<stop  offset="0.66" style="stop-color:#B5AD8B;stop-opacity:0.44"/>
								<stop  offset="0.69" style="stop-color:#A19D83;stop-opacity:0.3"/>
								<stop  offset="0.71" style="stop-color:#94927E;stop-opacity:0.2"/>
								<stop  offset="1" style="stop-color:#314056;stop-opacity:0"/>
							</linearGradient>
							<polygon id="_Path_130" class="st8" points="269.3,59.6 297.8,261.6 200.3,205.3 253.1,54.9 265.3,61.9 							"/>
							
								<linearGradient id="_Path_131_1_" gradientUnits="userSpaceOnUse" x1="243.7209" y1="596.3395" x2="165.6309" y2="458.1995" gradientTransform="matrix(1 0 0 -1 0 644)">
								<stop  offset="0" style="stop-color:#FFEAA8"/>
								<stop  offset="0.27" style="stop-color:#FEE9A8;stop-opacity:0.99"/>
								<stop  offset="0.37" style="stop-color:#FBE7A6;stop-opacity:0.97"/>
								<stop  offset="0.44" style="stop-color:#F5E2A4;stop-opacity:0.93"/>
								<stop  offset="0.49" style="stop-color:#EDDBA1;stop-opacity:0.87"/>
								<stop  offset="0.54" style="stop-color:#E3D39D;stop-opacity:0.79"/>
								<stop  offset="0.58" style="stop-color:#D6C898;stop-opacity:0.69"/>
								<stop  offset="0.62" style="stop-color:#C6BC92;stop-opacity:0.58"/>
								<stop  offset="0.66" style="stop-color:#B5AD8B;stop-opacity:0.44"/>
								<stop  offset="0.69" style="stop-color:#A19D83;stop-opacity:0.3"/>
								<stop  offset="0.71" style="stop-color:#94927E;stop-opacity:0.2"/>
								<stop  offset="1" style="stop-color:#314056;stop-opacity:0"/>
							</linearGradient>
							<polygon id="_Path_131" class="st9" points="198,19 226.5,221.1 129,164.8 181.8,14.4 194,21.4 							"/>
							<g id="_Group_23">
								<polygon id="_Path_132" class="st1" points="345,391.8 87.7,243.3 87.7,38.6 345,187.2 								"/>
								<polygon id="_Path_133" class="st1" points="345,187.2 354.1,181.6 96.8,33 87.7,38.6 								"/>
								<polygon id="_Path_134" class="st10" points="349,189.6 354.1,186.7 96.8,38.1 91.6,41 								"/>
								<g id="_Group_24">
									<polygon id="_Path_135" class="st6" points="345,391.8 345,187.2 354.1,181.6 354.1,386.2 									"/>
									<path id="_Compound_Path_14" class="st0" d="M354.9,181.1L97.2,32.3L96.7,32l-9.9,6.1v205.6L345,392.8l9.9-6.1L354.9,181.1
										z M96.8,33.9l255.8,147.7l-2.9,1.8l-4.6,2.9l-157.5-91L89.2,38.6L96.8,33.9z M88.5,242.8V40l172.4,99.5l83.4,48.1v202.8
										L88.5,242.8z M353.3,385.8l-7.5,4.6V187.7l4-2.5l3.4-2.1L353.3,385.8z"/>
								</g>
							</g>
							<g id="_Group_25">
								<g id="_Group_26">
									<polygon id="_Path_136" class="st6" points="282,217.8 282,225.2 315.5,205.9 315.5,279 282,298.3 282,305.8 315.5,286.5 
										315.5,359.7 282,379 282,386.5 321.9,363.4 321.9,194.8 									"/>
									<polygon id="_Path_137" class="st1" points="66.1,93.1 72.6,96.8 106,77.5 169.3,114 135.9,133.3 142.3,137 175.7,117.8 
										239.2,154.4 205.8,173.7 212.2,177.4 245.6,158.1 309,194.7 275.6,214 282,217.7 321.9,194.7 106,70.1 									"/>
									<polygon id="_Path_138" class="st10" points="66.1,95.6 72.6,99.4 106,80.1 169.3,116.6 135.9,135.9 142.3,139.6 
										175.7,120.3 239.2,157 205.8,176.2 212.2,180 245.6,160.7 309,197.3 275.6,216.6 279.5,218.7 319.3,195.7 106,72.6 
																			"/>
								</g>
								<g id="_Group_27">
									<polygon id="_Path_139" class="st1" points="310.9,208.6 310.9,275.8 315.5,279 315.5,205.9 									"/>
									<polygon id="_Path_140" class="st1" points="310.9,275.8 300.2,282 300.2,287.8 315.5,279 									"/>
									<polygon id="_Path_141" class="st10" points="310.9,278.2 300.2,284.3 300.2,287.5 313.6,280.1 									"/>
								</g>
								<g id="_Group_28">
									<polygon id="_Path_142" class="st1" points="310.9,289.2 310.9,356.4 315.5,359.6 315.5,286.6 									"/>
									<g id="_Group_29">
										<polygon id="_Path_143" class="st1" points="310.9,356.4 300.2,362.6 300.2,368.4 315.5,359.6 										"/>
										<polygon id="_Path_144" class="st11" points="310.9,358.8 300.2,365 300.2,368.4 313.6,360.8 										"/>
										<path id="_Compound_Path_15" class="st0" d="M281.2,217.3v9.3l28.8-16.6v65.4l-10.6,6.1v5.9l-18.2,10.5v9.3l28.8-16.6V356
											l-10.6,6.1v6l-18.2,10.5v9.3l41.5-24V194.2l-0.7-0.4L281.2,217.3z M314.7,207.3v70.1l-2.1-1.4l-0.9-0.6v-66.3L314.7,207.3
											z M301,286.4v-4l9.8-5.6l1,0.7l2.2,1.5l-1.4,0.8L301,286.4z M311.7,356v-66.3l3-1.7v70.1l-0.2-0.2L311.7,356z M301,363
											l9.8-5.6l3.1,2.1l0,0L301,367V363z M321.1,362.9L282.9,385v-5.6l33.4-19.3V285l-33.4,19.3v-5.6l16.5-9.6l0,0l16.9-9.7v-75
											l0,0l-33.4,19.3v-5.6l38.2-22.1L321.1,362.9z"/>
									</g>
								</g>
								<polygon id="_Path_145" class="st1" points="245.6,158.1 245.6,164.2 304,197.6 309,194.7 								"/>
								<polygon id="_Path_146" class="st6" points="225.4,169.8 245.6,158.1 245.6,164.2 230.9,173 								"/>
								<polygon id="_Path_147" class="st1" points="175.7,117.7 175.7,123.8 234.1,157.2 239.1,154.3 								"/>
								<polygon id="_Path_148" class="st6" points="155.5,129.4 175.7,117.7 175.7,123.8 161,132.6 								"/>
								<polygon id="_Path_149" class="st1" points="106,77.4 106,83.5 164.4,116.9 169.4,114 								"/>
								<g id="_Group_30">
									<polygon id="_Path_150" class="st6" points="85.8,89.1 106,77.4 106,83.5 91.3,92.3 									"/>
									<path id="_Compound_Path_16" class="st0" d="M106.4,69.3l-0.4-0.2l-41.5,24l8.1,4.7l13.3-7.7l5.5,3.2l14.7-8.8l56.7,32.4
										l-28.5,16.4l8.1,4.7l13.2-7.6l5.4,3.1l14.7-8.8l56.9,32.5l-28.5,16.4l8.1,4.7l13.2-7.6l5.5,3.2l14.7-8.8l56.7,32.5L274,214
										l8.1,4.7l40.7-23.5v-0.9l-0.8-0.4L106.4,69.3z M91.3,91.3l-3.8-2.2l17.8-10.2V83L91.3,91.3z M106.8,83v-4.1l60.8,35.1
										l-3.3,1.9L106.8,83z M161,131.6l-3.8-2.2l17.7-10.2v4.2L161,131.6z M176.6,119.2l60.9,35.2l-3.3,1.9l-57.6-32.9
										L176.6,119.2z M230.9,172l-3.9-2.2l17.8-10.3v4.2L230.9,172z M304,196.7l-57.6-32.9v-4.2l61,35.2L304,196.7z M277.2,214
										l33.4-19.3l-65-37.6l-9.8,5.6l-23.6,13.6l-4.8-2.8l33.4-19.3l-0.1-0.1h0.1l-65-37.6l-21.9,12.6h0.1l-11.6,6.7l-4.8-2.8
										l26.9-15.5h0.1l6.6-3.8L106,76.5L84.1,89.1h0.1l-11.6,6.7l-4.8-2.8L106,71l214.3,123.7L282,216.8L277.2,214z"/>
								</g>
							</g>
							<g id="_Group_31">
								<polygon id="_Path_151" class="st1" points="291.1,423.3 33.8,274.7 33.8,70.1 291.1,218.7 								"/>
								<polygon id="_Path_152" class="st1" points="291.1,218.7 300.2,213 42.9,64.4 33.8,70.1 								"/>
								<polygon id="_Path_153" class="st10" points="296.1,221.2 300.9,218.2 43.5,69.6 38.7,72.7 								"/>
								<g id="_Group_32">
									<polygon id="_Path_154" class="st6" points="291.1,423.3 291.1,218.7 300.2,213 300.2,417.6 									"/>
									<path id="_Compound_Path_17" class="st0" d="M301,212.5L43.3,63.7l-0.4-0.2l-9.9,6.1v205.5l258.2,149.1l9.9-6.1L301,212.5z
										 M42.9,65.4L298.6,213l-1.9,1.2l-5.6,3.5l-144.8-83.6L35.3,70L42.9,65.4z M34.6,274.2V71.5L206.9,171l83.4,48.1v202.7
										L34.6,274.2z M299.4,214.5v202.7l-7.5,4.6V219.1l4.6-2.9L299.4,214.5z"/>
								</g>
							</g>
							<g id="_Group_33">
								<polygon id="_Path_155" class="st1" points="258.2,427.1 291.1,407.2 33.8,258.6 0.8,278.5 								"/>
								<polygon id="_Path_156" class="st11" points="259,429.8 286.8,412.2 34.1,266.3 4.8,283.9 								"/>
								<polygon id="_Path_157" class="st1" points="0.8,278.5 0.8,284.8 258.2,433.4 258.2,427.1 								"/>
								<ellipse id="_Path_158" class="st1" cx="231.9" cy="397.6" rx="10.4" ry="5.4"/>
								<g id="_Group_34">
									<polygon id="_Path_159" class="st6" points="291.1,407.2 291.1,413.5 258.2,433.4 258.2,427.1 									"/>
									<path id="_Compound_Path_18" class="st0" d="M291.9,406.7L34.2,257.9l-0.4-0.2L0,278v7.2l258.2,149.1l33.7-20.4
										L291.9,406.7z M33.8,259.5l255.8,147.7l-15.1,9.1l-16.2,9.8l-1.8-1L2.4,278.5L33.8,259.5z M1.6,284.3v-4.4l255.7,147.6v4.5
										L1.6,284.3z M290.3,413L259,431.9v-4.4l15-9.1l16.2-9.8L290.3,413z"/>
								</g>
							</g>
							<g id="_Group_35">
								<polygon id="_Path_160" class="st1" points="33.8,70.1 33.8,258.6 98.1,295.8 98.1,107.2 								"/>
								<polygon id="_Path_161" class="st5" points="290.2,406 290.2,228.4 43.8,87.4 43.8,265 								"/>
								<path id="_Compound_Path_19" class="st12" d="M290.2,406L32.9,259.1V69.6l0.8-0.5L290.6,218L290.2,406z"/>
							</g>
							<g class="st13">
								<path d="M87.8,201.1c-1.9-1.2-3.7-2.4-5.3-3.7c-1.6-1.3-2.9-2.6-4-3.8c-1.1-1.2-2-2.6-2.8-4c-0.8-1.4-1.4-2.7-1.9-4
									c-0.5-1.3-0.8-2.7-1.1-4.1s-0.5-2.9-0.5-4.2c-0.1-1.3-0.1-2.7-0.1-4.2l0.2-24.4l-6-3.4l0.1-9.7l6,3.4l0.2-15.9l17.9,10.1
									l-0.2,15.9l9,5.1l-0.1,9.7l-9-5.1l-0.3,27.1c0,2.7,1.9,5.2,5.6,7.5c0.5,0.3,1,0.6,1.6,0.9c0.6,0.3,1.1,0.5,1.4,0.7
									c0.4,0.2,0.7,0.3,1.1,0.5c0.4,0.2,0.6,0.2,0.6,0.3l-0.1,11.6c-3.8-1.6-7.3-3.3-10.5-5.2C89,201.9,88.4,201.5,87.8,201.1z"/>
								<path d="M111.8,215c-3.7-2.1-6.6-4.9-8.5-8.3c-2-3.4-2.9-6.9-2.9-10.5l0.4-41.1l17.7,10.1l-0.4,39.4c0,1.3,0.3,2.4,0.8,3.4
									c0.5,1,1.5,1.8,2.8,2.5c1.4,0.8,3.1,1.2,5.1,1.3l0.4-41.7l17.7,10.1l-0.5,52.4l-17.7-10.1l0-4.8
									C121.8,218.8,116.9,217.9,111.8,215z"/>
								<path d="M147.9,234.6l0.5-52.4l17.4,9.8l0,4.2c4.2-1.1,9.3,0,15,3.3c2.5,1.4,4.6,3.2,6.5,5.3c1.8,2.1,3.2,4.4,4.2,7
									c4.5-1.6,9.9-0.6,16.2,2.9c3.7,2.1,6.6,4.9,8.8,8.4c2.2,3.5,3.2,7.2,3.2,11.2l-0.4,40.7l-17.4-9.9l0.4-39.2
									c0-1.4-0.3-2.7-0.9-3.7c-0.6-1-1.5-1.8-2.8-2.5c-1.9-1-3.9-1.5-5.8-1.4l0,0.6l-0.4,40.7l-17.3-9.8l0.4-39.2
									c0-1.4-0.3-2.6-0.9-3.6c-0.6-1-1.6-1.9-2.8-2.5c-1.8-0.9-3.8-1.4-6-1.4l-0.4,41.3L147.9,234.6z"/>
							</g>
							<g class="st13">
								<path d="M69.2,267.7l0.7-69.7L87.6,208l0,3.9c4.4-0.7,8.7,0.2,13.1,2.7c0.2,0.1,0.4,0.2,0.6,0.3c4.5,2.7,7.9,6.1,10.1,10.3
									c2.2,4.1,3.3,8.4,3.2,12.9l-0.2,22.4c0,5-1.3,8.3-3.7,9.9c-2.4,1.6-5.8,1.2-10.3-1.3c-4.4-2.5-8.8-6.6-13.2-12.4l-0.2,21.2
									L69.2,267.7z M92,254.5c0,0,0.1,0,0.1,0.1c1.5,0.8,2.6,0.9,3.3,0.2c0.7-0.7,1.1-1.9,1.2-3.7l0.2-24.3c0-1.6-0.4-3.1-1.1-4.6
									c-0.7-1.3-1.7-2.4-3-3.1c-0.1-0.1-0.3-0.2-0.5-0.3c-1.3-0.7-2.9-1-4.6-0.9l-0.3,32.6C88.9,252.3,90.5,253.6,92,254.5z"/>
								<path d="M137.2,289.8c-6.9-3.9-12.3-8.5-16.1-13.8c-3.8-5.2-5.6-10.7-5.6-16.3l0.2-18.8c0.1-5.6,2-8.9,5.8-9.8
									c3.8-0.9,9.2,0.6,16.1,4.5c7,4,12.2,8.4,15.7,13.4c3.5,5,5.2,10.4,5.1,16.2l-0.1,10.3l-25.1-14.2l-0.1,9.2
									c0,2.1,0.3,3.9,0.9,5.3c0.6,1.4,1.7,2.6,3.2,3.5c3,1.7,4.5,0.8,4.5-2.6l0-3.5l16.5,9.3l0,3.1c-0.1,5.2-1.9,8.2-5.6,8.9
									C149,295.1,143.8,293.6,137.2,289.8z M133.4,254.3l8.7,4.9l0.1-5.2c0-1.9-0.4-3.5-1.1-4.8c-0.8-1.3-1.9-2.3-3.3-3.1
									c-1.4-0.8-2.4-0.9-3.1-0.3c-0.7,0.6-1.1,2-1.1,4.2L133.4,254.3z"/>
								<path d="M160.4,302l0.5-52.4l17.7,10.1l-0.1,8.7c3.9-4.1,8.2-4.8,12.7-2.3c0.6,0.4,1.5,1,2.5,1.8l-0.1,13.1
									c-1-0.8-2-1.4-2.9-2c-4.9-2.5-8.9-2.7-12.2-0.6l-0.3,33.6L160.4,302z"/>
								<path d="M229.8,337.8c-3.9,0.7-9.4-0.8-16.2-4.7c-6.9-3.9-12.2-8.4-16.1-13.5c-3.8-5.1-5.7-10.5-5.7-16.1l0.2-19.8
									c0.1-5.6,2-8.8,5.9-9.5c3.9-0.7,9.3,0.8,16.1,4.7c6.9,3.9,12.2,8.4,16.1,13.6c3.9,5.2,5.8,10.5,5.7,16.1l-0.2,19.8
									C235.7,333.9,233.7,337.1,229.8,337.8z M213.7,323.2c1.7,1,2.9,1.1,3.5,0.4s1-2.1,1-4.2l0.2-21.8c0-2.1-0.3-3.9-0.9-5.3
									c-0.6-1.4-1.8-2.6-3.5-3.6c-1.6-0.9-2.8-1-3.4-0.3c-0.7,0.7-1,2.1-1,4.2l-0.2,21.8c0,2,0.3,3.8,0.9,5.2
									S212.1,322.2,213.7,323.2z"/>
							</g>
							<path d="M225.1,300.6c-0.1,0-0.6,0.1-0.6,0.2v18.4c0,0.1,0.4,0.3,0.4,0.4c0.4,0.6,0.6,1.2,1.6,1.7v-20.9
								C226.1,300.4,225.6,300.5,225.1,300.6z"/>
							<path d="M226.6,280.8c-1-0.6-1-1.3-2-2V289c1,0.1,1,0.2,2,0.3V280.8z"/>
							<path d="M224.6,179.9v163.6c1,0.6,1,1.3,2,1.9V182.7l62,36.2V377c0,0.1-0.2,7.3-4.1,10.3c-1.8,1.3-4,1.6-6.1,1L217.2,353
								c1.6-0.1,3-0.8,4.3-1.7c1-0.9,1.9-1.9,2.6-3.1c-0.4-0.4-0.8-0.8-1.2-1.2c-0.6,1.2-1.4,2.2-2.4,3.1c-1.6,1.3-3.8,1.7-5.8,1.3
								c-0.5-0.1-0.9,0.2-1.1,0.6l-0.2,0.8l64.2,37.2l0.2,0.1c0.9,0.2,1.8,0.3,2.7,0.3c1.8,0,3.6-0.5,5-1.6c4.6-3.5,5-11.2,5-11.6
								V218L224.6,179.9z"/>
							
								<linearGradient id="_Path_162_1_" gradientUnits="userSpaceOnUse" x1="253.8509" y1="438.4295" x2="175.7509" y2="300.2895" gradientTransform="matrix(1 0 0 -1 0 644)">
								<stop  offset="0" style="stop-color:#FFEAA8"/>
								<stop  offset="0.27" style="stop-color:#FEE9A8;stop-opacity:0.99"/>
								<stop  offset="0.37" style="stop-color:#FBE7A6;stop-opacity:0.97"/>
								<stop  offset="0.44" style="stop-color:#F5E2A4;stop-opacity:0.93"/>
								<stop  offset="0.49" style="stop-color:#EDDBA1;stop-opacity:0.87"/>
								<stop  offset="0.54" style="stop-color:#E3D39D;stop-opacity:0.79"/>
								<stop  offset="0.58" style="stop-color:#D6C898;stop-opacity:0.69"/>
								<stop  offset="0.62" style="stop-color:#C6BC92;stop-opacity:0.58"/>
								<stop  offset="0.66" style="stop-color:#B5AD8B;stop-opacity:0.44"/>
								<stop  offset="0.69" style="stop-color:#A19D83;stop-opacity:0.3"/>
								<stop  offset="0.71" style="stop-color:#94927E;stop-opacity:0.2"/>
								<stop  offset="1" style="stop-color:#314056;stop-opacity:0"/>
							</linearGradient>
							<polygon id="_Path_162" class="st14" points="208.2,176.9 236.6,379 139.1,322.7 191.9,172.3 204.1,179.3 							"/>
							
								<linearGradient id="_Path_163_1_" gradientUnits="userSpaceOnUse" x1="189.5288" y1="478.5707" x2="111.4288" y2="340.4307" gradientTransform="matrix(1 0 0 -1 0 644)">
								<stop  offset="0" style="stop-color:#FFEAA8"/>
								<stop  offset="0.27" style="stop-color:#FEE9A8;stop-opacity:0.99"/>
								<stop  offset="0.37" style="stop-color:#FBE7A6;stop-opacity:0.97"/>
								<stop  offset="0.44" style="stop-color:#F5E2A4;stop-opacity:0.93"/>
								<stop  offset="0.49" style="stop-color:#EDDBA1;stop-opacity:0.87"/>
								<stop  offset="0.54" style="stop-color:#E3D39D;stop-opacity:0.79"/>
								<stop  offset="0.58" style="stop-color:#D6C898;stop-opacity:0.69"/>
								<stop  offset="0.62" style="stop-color:#C6BC92;stop-opacity:0.58"/>
								<stop  offset="0.66" style="stop-color:#B5AD8B;stop-opacity:0.44"/>
								<stop  offset="0.69" style="stop-color:#A19D83;stop-opacity:0.3"/>
								<stop  offset="0.71" style="stop-color:#94927E;stop-opacity:0.2"/>
								<stop  offset="1" style="stop-color:#314056;stop-opacity:0"/>
							</linearGradient>
							<polygon id="_Path_163" class="st15" points="143.8,136.8 172.3,338.8 74.8,282.5 127.6,132.1 139.8,139.1 							"/>
							
								<linearGradient id="_Path_164_1_" gradientUnits="userSpaceOnUse" x1="120.2409" y1="519.5295" x2="42.1409" y2="381.3895" gradientTransform="matrix(1 0 0 -1 0 644)">
								<stop  offset="0" style="stop-color:#FFEAA8"/>
								<stop  offset="0.27" style="stop-color:#FEE9A8;stop-opacity:0.99"/>
								<stop  offset="0.37" style="stop-color:#FBE7A6;stop-opacity:0.97"/>
								<stop  offset="0.44" style="stop-color:#F5E2A4;stop-opacity:0.93"/>
								<stop  offset="0.49" style="stop-color:#EDDBA1;stop-opacity:0.87"/>
								<stop  offset="0.54" style="stop-color:#E3D39D;stop-opacity:0.79"/>
								<stop  offset="0.58" style="stop-color:#D6C898;stop-opacity:0.69"/>
								<stop  offset="0.62" style="stop-color:#C6BC92;stop-opacity:0.58"/>
								<stop  offset="0.66" style="stop-color:#B5AD8B;stop-opacity:0.44"/>
								<stop  offset="0.69" style="stop-color:#A19D83;stop-opacity:0.3"/>
								<stop  offset="0.71" style="stop-color:#94927E;stop-opacity:0.2"/>
								<stop  offset="1" style="stop-color:#314056;stop-opacity:0"/>
							</linearGradient>
							<polygon id="_Path_164" class="st16" points="74.6,95.8 103,297.9 35.7,255.6 58.3,91.2 70.5,98.2 							"/>
							<g id="_Group_36">
								<g id="_Group_37">
									<g id="_Group_38">
										<g id="_Group_39">
											<g id="_Group_40">
												<path id="_Path_165" class="st1" d="M202.7,1.5l-0.3-0.2l-0.1-0.1l0,0c-1.6-0.8-3.8-0.6-6.2,0.8l-20.4,11.6
													c-1,0.7-1.7,1.8-1.7,3v8.8c0,0.4,0.1,0.8,0.5,1.1l0,0h0.1l14.2,7.7l16.2-15.6l9.4-7.1l2-2.8L202.7,1.5z"/>
												<path id="_Path_166" class="st10" d="M204.6,18.8l7.9-6l-10.2-5.6L202,7h-0.1l0,0c-1.6-0.8-3.8-0.6-6.2,0.8l-20.4,11.6
													c-0.7,0.5-1.3,1.2-1.6,2v4.1c0,0.4,0.1,0.8,0.5,1.1l0,0h0.1l14.2,7.7L204.6,18.8z"/>
												<path id="_Compound_Path_20" class="st0" d="M188.7,35.4l-15-8.2c-0.5-0.4-0.7-1-0.7-1.6v-8.8c0.1-1.5,0.9-2.9,2.1-3.7
													l20.4-11.6c2.4-1.4,4.7-1.7,6.6-1l0,0l0.4,0.2l0.4,0.2l14.3,7.8l-2.7,3.7l-9.4,7.1L188.7,35.4z M174.9,26l13.6,7.4
													l15.8-15.2l9.4-7.1l1.4-1.9l-13-7.1l0,0L201.9,2c-1.5-0.7-3.4-0.4-5.5,0.8L176,14.4c-0.8,0.5-1.3,1.4-1.3,2.3v8.8
													C174.7,25.8,174.7,25.9,174.9,26L174.9,26z"/>
											</g>
											<g id="_Group_41">
												<path id="_Path_167" class="st17" d="M219.5,15.2L219.5,15.2c0-6-4.2-8.4-9.3-5.4l-20.4,11.6c-1,0.7-1.7,1.8-1.7,3v8.8
													c0,1.1,0.8,1.6,1.7,1l28-16C218.8,17.6,219.4,16.5,219.5,15.2z"/>
												<path id="_Compound_Path_21" class="st0" d="M189,35.3c-0.3,0-0.6-0.1-0.9-0.2c-0.6-0.4-1-1.1-0.9-1.8v-8.8
													c0.1-1.5,0.9-2.9,2.1-3.7l20.4-11.6c2.7-1.6,5.4-1.8,7.4-0.6s3.1,3.6,3.1,6.8c-0.1,1.5-0.9,2.9-2.1,3.8l-28,16
													C189.8,35.2,189.4,35.3,189,35.3z M214.3,9.3c-1.3,0.1-2.6,0.5-3.7,1.2l-20.4,11.6c-0.8,0.5-1.3,1.4-1.3,2.3v8.8
													c0,0.3,0.1,0.4,0.1,0.4c0.1,0,0.3,0,0.4-0.1l28-16c0.8-0.5,1.3-1.4,1.3-2.3c0-2.6-0.8-4.5-2.3-5.4
													C215.7,9.5,215,9.3,214.3,9.3L214.3,9.3z"/>
											</g>
										</g>
										<g id="_Group_42">
											<g id="_Group_43">
												<path id="_Path_168" class="st1" d="M153.5,74.2L153.5,74.2c-2.4,0-4.4-2-4.4-4.4V51.5c0-7.7,5.2-16.6,11.9-20.5l16-9.2
													c2.1-1.2,4.8-0.5,6,1.7c0,0,0,0,0,0l0,0c1.2,2.1,0.5,4.8-1.6,6c0,0,0,0,0,0l-16,9.1c-4,2.3-7.4,8.3-7.4,12.9v18.2
													C157.9,72.2,156,74.2,153.5,74.2z"/>
												<path id="_Path_169" class="st10" d="M165.3,38.3l16-9.1c0.7-0.4,1.3-1,1.7-1.8v-0.1c-1.2-2.1-3.9-2.9-6-1.7
													c0,0,0,0,0,0l-16,9.2c-6.8,3.8-12,12.8-12,20.5v14.1c0,2.4,2,4.4,4.4,4.4l0,0c2.4,0,4.4-2,4.4-4.4V51.1
													C157.8,46.6,161.3,40.6,165.3,38.3z"/>
												<path id="_Compound_Path_22" class="st0" d="M153.5,75c-2.9,0-5.2-2.3-5.2-5.2l0,0V51.5c0-7.9,5.4-17.2,12.3-21.2
													l16-9.2c2.4-1.5,5.7-0.8,7.2,1.7s0.8,5.7-1.7,7.2c-0.1,0.1-0.3,0.2-0.4,0.2l-16,9.1c-3.7,2.1-7,7.9-7,12.1v18.2
													C158.7,72.7,156.4,75,153.5,75L153.5,75z M179.2,22.1c-0.6,0-1.2,0.2-1.8,0.5l-16,9.2C155,35.4,150,44.1,150,51.5v18.2
													c0,2,1.6,3.6,3.6,3.6l0,0c2,0,3.6-1.6,3.6-3.6V51.5c0-4.8,3.7-11.1,7.9-13.6l16-9.1c1.7-1,2.3-3.2,1.3-4.9
													C181.7,22.8,180.5,22.1,179.2,22.1L179.2,22.1z"/>
											</g>
										</g>
									</g>
									<g id="_Group_44">
										<g id="_Group_45">
											<g id="_Group_46">
												<path id="_Path_170" class="st1" d="M102.1,106.5L102.1,106.5c-2.4,0-4.4-2-4.4-4.4l0,0V81.5c0-1.7-0.5-2.3-0.6-2.4
													s-0.9-0.2-2.4,0.7L71.9,93.2c-2.1,1.2-4.8,0.5-6-1.6l0,0c-1.2-2.1-0.5-4.8,1.6-6l22.8-13.5c4-2.3,8-2.5,11.2-0.7
													s5,5.5,5,10v20.6C106.5,104.5,104.6,106.5,102.1,106.5C102.1,106.5,102.1,106.5,102.1,106.5z"/>
												<path id="_Path_171" class="st10" d="M101.4,75.4c-3.2-1.8-7.3-1.6-11.2,0.7L67.4,89.6c-0.7,0.4-1.3,1.1-1.7,1.8
													c0.1,0.2,0.1,0.3,0.2,0.5c1.2,2.1,3.9,2.8,6,1.6l22.9-13.5c1.5-0.9,2.3-0.8,2.4-0.7s0.6,0.7,0.6,2.4v20.6
													c0,2.4,1.9,4.4,4.4,4.4c2.1,0,4-1.5,4.4-3.6V85.4C106.5,80.9,104.6,77.2,101.4,75.4z"/>
												<path id="_Compound_Path_23" class="st0" d="M102.1,107.3c-2.9,0-5.2-2.3-5.2-5.2l0,0V81.5c0-0.6-0.1-1.1-0.2-1.6
													c-0.5,0.1-1.1,0.3-1.5,0.6L72.3,93.9c-2.4,1.5-5.7,0.8-7.2-1.6c-1.5-2.4-0.8-5.7,1.6-7.2c0.1-0.1,0.2-0.1,0.3-0.2
													l22.8-13.5c4.2-2.4,8.6-2.7,12-0.7s5.4,5.9,5.4,10.7v20.6C107.3,105,105,107.3,102.1,107.3z M96.8,78.2
													c0.3,0,0.5,0,0.7,0.2c0.5,0.3,1,1.2,1,3.1v20.6c0,2,1.6,3.6,3.6,3.6c2,0,3.6-1.6,3.6-3.6V81.5c0-4.2-1.7-7.6-4.6-9.3
													s-6.7-1.4-10.4,0.7L67.8,86.3c-1.7,0.9-2.4,3.1-1.4,4.9c0.9,1.7,3.1,2.4,4.9,1.4c0.1,0,0.1-0.1,0.2-0.1L94.3,79
													C95,78.5,95.9,78.3,96.8,78.2z"/>
											</g>
										</g>
										<g id="_Group_47">
											<g id="_Group_48">
												<path id="_Path_172" class="st1" d="M60.2,79.8c-0.1-0.1-0.3-0.2-0.4-0.2h-0.1c-0.2,0-0.5,0.1-0.7,0.2L39.4,91
													c-4.6,3-7.5,8-7.8,13.5c0,0.3,0.1,0.5,0.3,0.8l0,0l15.9,9.1L62.8,100l9.1-6.7l3.5-4.4c0.1-0.2,0.1-0.4-0.1-0.6
													c0,0,0,0,0,0L60.2,79.8z"/>
												<path id="_Path_173" class="st18" d="M59.5,84.9L59.5,84.9c-0.3,0-0.5,0.1-0.8,0.2L39.1,96.3c-3.3,2.1-5.8,5.3-7,9
													l15.4,8.8l15.2-14.3l9.1-6.7l0.7-0.9l-12.5-7.1C59.8,85,59.6,84.9,59.5,84.9z"/>
												<path id="_Compound_Path_24" class="st0" d="M47.8,115.4l-16.6-9.6c-0.3-0.4-0.5-0.8-0.5-1.3c0-5.2,3.7-11.6,8.2-14.2
													L58.6,79c0.3-0.2,0.7-0.3,1-0.3h0.2l0.2,0.1c0.2,0.1,0.5,0.2,0.7,0.4l15,8.4c0.3,0.2,0.5,0.5,0.6,0.8
													c0.1,0.4,0,0.7-0.2,1L72.4,94l-9.1,6.7L47.8,115.4z M32.4,104.7l15.2,8.7l14.7-13.9l9.1-6.7l3.1-3.9l-14.9-8.4l-0.2,0.1
													L39.8,91.7c-4.4,2.9-7.1,7.6-7.4,12.8C32.4,104.6,32.4,104.6,32.4,104.7z"/>
											</g>
											<g id="_Group_49">
												<path id="_Path_174" class="st17" d="M47.3,113.5L47.3,113.5c0.3-5.5,3.2-10.5,7.8-13.5l19.6-11.3
													c0.8-0.5,1.5-0.1,1.5,0.8v7.3c-0.1,1-0.6,2-1.5,2.5l-25.9,15C48,114.8,47.3,114.4,47.3,113.5z"/>
												<path id="_Compound_Path_25" class="st0" d="M48.1,115.4c-0.3,0-0.5-0.1-0.8-0.2c-0.6-0.4-0.9-1-0.8-1.7
													c0-5.2,3.7-11.6,8.2-14.2L74.3,88c0.8-0.5,1.8-0.4,2.4,0.4c0.2,0.3,0.3,0.7,0.3,1.1v7.3c0,1.3-0.7,2.5-1.9,3.2l-25.9,15
													C48.9,115.3,48.5,115.4,48.1,115.4z M75.3,89.3c0,0-0.1,0-0.2,0.1l-19.6,11.3c-4.4,2.9-7.1,7.6-7.4,12.8
													c0,0.1,0,0.2,0,0.2c0,0,0.1,0,0.2-0.1l25.9-15c0.6-0.4,1-1.1,1-1.8v-7.3C75.3,89.4,75.3,89.4,75.3,89.3z"/>
											</g>
										</g>
									</g>
								</g>
								<path id="_Path_175" class="st17" d="M97.5,78.4c0,0,8.2-0.1,8.2,9.5s0.8,13.3,0.8,13.3c-0.2,1.2-0.4,2.3-0.8,3.5
									c-0.3,0.6-3.6,1.9-3.6,1.9l-3.2-1.4l-1.2-3L97.5,78.4z"/>
								<path id="_Path_176" class="st17" d="M149.9,54c0,0-0.4-6.7,13.3-14.8s-0.8,1.9-0.8,1.9l-3.2,4.9l-1.3,5.5v12l-0.2,7.5
									l-2.3,3.2l-3.1-0.2l-3.3-1.4V55.1L149.9,54z"/>
							</g>
							<g id="_Group_50">
								<g id="_Group_51">
									<g id="_Group_52">
										<g id="_Group_53">
											<g id="_Group_54">
												<path id="_Path_177" class="st1" d="M272,41.7l-0.3-0.2l-0.1-0.1l0,0c-1.6-0.8-3.8-0.6-6.2,0.8L244.9,54
													c-1,0.7-1.7,1.8-1.7,3v8.8c0,0.4,0.1,0.8,0.5,1.1l0,0h0.1l14.2,7.7L274,59l9.4-7.2l2-2.8L272,41.7z"/>
												<path id="_Path_178" class="st10" d="M273.9,59.1l8-6l-10.2-5.6l-0.3-0.2l-0.1-0.1l0,0c-1.6-0.8-3.8-0.6-6.2,0.8
													l-20.4,11.6c-0.7,0.5-1.3,1.2-1.6,2v4.1c0,0.4,0.1,0.8,0.5,1.1l0,0h0.1l14.2,7.7L273.9,59.1z"/>
												<path id="_Compound_Path_26" class="st0" d="M258,75.7l-15-8.2c-0.5-0.4-0.7-1-0.7-1.6V57c0.1-1.5,0.9-2.9,2.1-3.7
													l20.4-11.6c2.4-1.4,4.7-1.7,6.6-1l0,0l0.4,0.2l0.5,0.2l14.3,7.8l-2.6,3.6l-9.4,7.2L258,75.7z M244.1,66.2l13.6,7.4
													l15.8-15.2l9.4-7.1l1.4-2l-12.9-7.1l0,0l-0.1-0.1c-1.5-0.7-3.4-0.4-5.5,0.8l-20.4,11.6c-0.8,0.5-1.3,1.4-1.3,2.3v8.8
													C243.9,66,244,66.2,244.1,66.2L244.1,66.2z"/>
											</g>
											<g id="_Group_55">
												<path id="_Path_179" class="st17" d="M288.8,55.5L288.8,55.5c0-6-4.2-8.4-9.3-5.4L259,61.7c-1,0.7-1.7,1.8-1.7,3v8.8
													c0,1.1,0.8,1.6,1.7,1l28-16C288,57.8,288.7,56.7,288.8,55.5z"/>
												<path id="_Compound_Path_27" class="st0" d="M258.3,75.6c-0.3,0-0.6-0.1-0.9-0.2c-0.6-0.4-1-1.1-0.9-1.8v-8.8
													c0.1-1.5,0.9-2.9,2.1-3.7L279,49.3c2.7-1.6,5.4-1.8,7.4-0.7s3.1,3.6,3.1,6.8c-0.1,1.5-0.9,2.9-2.1,3.7l-28,16
													C259.1,75.4,258.7,75.5,258.3,75.6z M283.6,49.6c-1.3,0.1-2.6,0.5-3.7,1.2l-20.4,11.7c-0.8,0.5-1.3,1.4-1.3,2.3v8.8
													c0,0.3,0.1,0.4,0.1,0.4c0.1,0,0.3,0,0.4-0.1l28-16c0.8-0.5,1.3-1.4,1.4-2.3c0-2.6-0.8-4.5-2.3-5.4
													C285,49.7,284.3,49.6,283.6,49.6z"/>
											</g>
										</g>
										<g id="_Group_56">
											<g id="_Group_57">
												<path id="_Path_180" class="st1" d="M222.8,114.4L222.8,114.4c-2.4,0-4.4-2-4.4-4.4V91.8c0-7.7,5.2-16.7,11.9-20.5
													l16-9.2c2.1-1.2,4.8-0.5,6,1.7c0,0,0,0,0,0l0,0c1.2,2.1,0.5,4.8-1.6,6c0,0,0,0,0,0l-16,9.1c-4,2.3-7.4,8.3-7.4,12.9V110
													C227.2,112.4,225.3,114.4,222.8,114.4C222.8,114.4,222.8,114.4,222.8,114.4z"/>
												<path id="_Path_181" class="st10" d="M234.6,78.5l16-9.1c0.7-0.4,1.3-1,1.7-1.7v-0.1c-1.2-2.1-3.9-2.9-6-1.7
													c0,0,0,0,0,0l-16,9.2c-6.7,3.8-11.9,12.8-11.9,20.5v14.1c0,2.4,2,4.4,4.4,4.4l0,0c2.4,0,4.4-2,4.4-4.4V91.4
													C227.1,86.8,230.6,80.8,234.6,78.5z"/>
												<path id="_Compound_Path_28" class="st0" d="M222.8,115.2c-2.9,0-5.2-2.3-5.2-5.2l0,0V91.8c0-7.9,5.4-17.2,12.3-21.2
													l16-9.2c2.4-1.5,5.7-0.8,7.2,1.7s0.8,5.7-1.7,7.2c-0.1,0.1-0.3,0.2-0.4,0.2l-16,9.1c-3.7,2.1-7,7.9-7,12.2V110
													C228,112.9,225.7,115.2,222.8,115.2L222.8,115.2z M248.5,62.3c-0.6,0-1.2,0.2-1.8,0.5l-16,9.2
													c-6.4,3.7-11.5,12.4-11.5,19.8V110c0,2,1.6,3.6,3.6,3.6l0,0c2,0,3.6-1.6,3.6-3.6V91.8c0-4.8,3.7-11.1,7.9-13.6l16-9.1
													c1.7-1,2.3-3.2,1.3-4.9C251,63,249.8,62.4,248.5,62.3L248.5,62.3z"/>
											</g>
										</g>
									</g>
									<g id="_Group_58">
										<g id="_Group_59">
											<g id="_Group_60">
												<path id="_Path_182" class="st1" d="M171.4,146.8L171.4,146.8c-2.4,0-4.4-2-4.4-4.4v-20.6c0-1.7-0.5-2.3-0.6-2.4
													s-0.9-0.2-2.4,0.7l-22.8,13.5c-2.1,1.2-4.8,0.5-6-1.6l0,0c-1.2-2.1-0.5-4.8,1.6-6l22.9-13.5c4-2.3,8-2.5,11.2-0.7
													s5,5.5,5,10v20.6C175.8,144.8,173.9,146.7,171.4,146.8C171.4,146.8,171.4,146.8,171.4,146.8z"/>
												<path id="_Path_183" class="st10" d="M170.7,115.6c-3.2-1.8-7.3-1.6-11.2,0.7l-22.9,13.5c-0.7,0.4-1.3,1.1-1.7,1.8
													c0.1,0.2,0.1,0.3,0.2,0.5c1.2,2.1,3.9,2.8,6,1.6l22.8-13.5c1.5-0.9,2.3-0.8,2.4-0.7s0.6,0.7,0.6,2.4v20.6
													c0,2.4,1.9,4.4,4.4,4.4c2.1,0,4-1.5,4.4-3.6v-17.8C175.8,121.1,173.9,117.5,170.7,115.6z"/>
												<path id="_Compound_Path_29" class="st0" d="M171.4,147.6c-2.9,0-5.2-2.3-5.2-5.2l0,0v-20.6c0-0.6-0.1-1.1-0.2-1.6
													c-0.5,0.1-1.1,0.3-1.5,0.6l-22.8,13.5c-2.4,1.5-5.7,0.8-7.2-1.6s-0.8-5.7,1.6-7.2c0.1-0.1,0.2-0.1,0.3-0.2l22.9-13.5
													c4.2-2.4,8.6-2.7,12-0.7s5.4,5.9,5.4,10.7v20.6C176.6,145.2,174.3,147.5,171.4,147.6z M166.1,118.4c0.3,0,0.5,0,0.7,0.2
													c0.5,0.3,1,1.2,1,3.1v20.6c0,2,1.6,3.6,3.6,3.6c2,0,3.6-1.6,3.6-3.6v-20.6c0-4.2-1.7-7.6-4.6-9.3s-6.7-1.4-10.4,0.7
													l-22.9,13.5c-1.7,0.9-2.4,3.1-1.4,4.9c0.9,1.7,3.1,2.4,4.9,1.4c0.1,0,0.1-0.1,0.2-0.1l22.8-13.5
													C164.3,118.8,165.2,118.5,166.1,118.4L166.1,118.4z"/>
											</g>
										</g>
										<g id="_Group_61">
											<g id="_Group_62">
												<path id="_Path_184" class="st1" d="M129.5,120c-0.1-0.1-0.3-0.2-0.4-0.2H129c-0.2,0-0.5,0.1-0.7,0.2l-19.6,11.3
													c-4.6,3-7.5,8-7.8,13.5c0,0.3,0.1,0.5,0.3,0.8l0,0l15.9,9.1l15.1-14.4l9.1-6.7l3.5-4.4c0.1-0.2,0.1-0.4-0.1-0.6
													c0,0,0,0,0,0L129.5,120z"/>
												<path id="_Path_185" class="st18" d="M128.8,125.1L128.8,125.1c-0.3,0-0.5,0.1-0.8,0.2l-19.6,11.3c-3.3,2.1-5.8,5.3-7,9
													l15.4,8.8L132,140l9.1-6.7l0.7-0.9l-12.6-7.1C129.1,125.2,128.9,125.1,128.8,125.1z"/>
												<path id="_Compound_Path_30" class="st0" d="M117.1,155.6l-16.6-9.6c-0.3-0.4-0.5-0.8-0.5-1.3c0-5.2,3.7-11.6,8.2-14.2
													l19.6-11.3c0.3-0.2,0.7-0.3,1-0.3h0.2l0.2,0.1c0.2,0.1,0.5,0.2,0.7,0.4l15,8.4c0.3,0.2,0.5,0.5,0.6,0.8
													c0.1,0.4,0,0.7-0.2,1l-3.6,4.5l-9.1,6.7L117.1,155.6z M101.7,144.9l15.2,8.7l14.7-13.9l9.1-6.7l3.1-3.9l-14.9-8.4
													l-0.2,0.1L109.1,132c-4.4,2.9-7.1,7.6-7.4,12.8C101.7,144.9,101.7,144.9,101.7,144.9L101.7,144.9z"/>
											</g>
											<g id="_Group_63">
												<path id="_Path_186" class="st17" d="M116.6,153.8L116.6,153.8c0.3-5.5,3.2-10.5,7.8-13.5l19.6-11.3
													c0.8-0.5,1.5-0.1,1.5,0.8v7.3c-0.1,1-0.6,2-1.5,2.5l-25.9,15C117.3,155.1,116.6,154.7,116.6,153.8z"/>
												<path id="_Compound_Path_31" class="st0" d="M117.4,155.6c-0.3,0-0.5-0.1-0.8-0.2c-0.6-0.4-0.9-1-0.8-1.6
													c0-5.2,3.7-11.6,8.2-14.2l19.6-11.3c0.8-0.6,1.8-0.4,2.4,0.4c0.3,0.3,0.4,0.8,0.3,1.2v7.3c0,1.3-0.7,2.5-1.9,3.2
													l-25.9,15C118.2,155.5,117.8,155.6,117.4,155.6z M144.6,129.5c0,0-0.1,0-0.2,0.1l-19.6,11.3c-4.4,2.9-7.1,7.6-7.4,12.8
													c0,0.1,0,0.2,0,0.2c0,0,0.1,0,0.2-0.1l25.9-15c0.6-0.4,1-1.1,1-1.8v-7.3C144.6,129.7,144.6,129.6,144.6,129.5z"/>
											</g>
										</g>
									</g>
								</g>
								<path id="_Path_187" class="st17" d="M166.8,118.6c0,0,8.2-0.1,8.2,9.5s0.8,13.3,0.8,13.3c-0.2,1.2-0.4,2.3-0.8,3.5
									c-0.3,0.6-3.6,1.9-3.6,1.9l-3.2-1.4l-1.2-3L166.8,118.6z"/>
								<path id="_Path_188" class="st17" d="M219.2,94.3c0,0-0.4-6.7,13.3-14.8s-0.8,1.9-0.8,1.9l-3.2,4.9l-1.3,5.5v12l-0.2,7.5
									l-2.3,3.2l-3.1-0.2l-3.3-1.4V95.3L219.2,94.3z"/>
							</g>
							<g id="_Group_64">
								<g id="_Group_65">
									<g id="_Group_66">
										<g id="_Group_67">
											<g id="_Group_68">
												<path id="_Path_189" class="st1" d="M341.3,81.5l-0.3-0.2l-0.1-0.1l0,0c-1.6-0.8-3.8-0.6-6.2,0.8l-20.4,11.6
													c-1,0.7-1.7,1.8-1.7,3v8.8c0,0.4,0.1,0.8,0.5,1.1l0,0h0.1l14.2,7.7l16.2-15.6l9.4-7.2l2-2.8L341.3,81.5z"/>
												<path id="_Path_190" class="st10" d="M343.2,98.8l8-6l-10.2-5.6l-0.3-0.2l-0.1-0.1l0,0c-1.6-0.8-3.8-0.6-6.2,0.8
													l-20.4,11.6c-0.7,0.5-1.3,1.2-1.5,2v4.1c0,0.4,0.1,0.8,0.5,1.1l0,0h0.1l14.2,7.8L343.2,98.8z"/>
												<path id="_Compound_Path_32" class="st0" d="M327.3,115.4l-15-8.2c-0.5-0.4-0.7-1-0.7-1.6v-8.8c0.1-1.5,0.9-2.9,2.1-3.7
													l20.4-11.6c2.4-1.4,4.7-1.7,6.6-1l0,0l0.4,0.2l0.5,0.2l14.3,7.8l-2.7,3.7l-9.4,7.2L327.3,115.4z M313.4,106l13.6,7.4
													l15.8-15.2l9.4-7.1l1.4-1.9L340.6,82l0,0l-0.1-0.1c-1.5-0.7-3.4-0.4-5.5,0.8l-20.4,11.6c-0.8,0.5-1.3,1.4-1.3,2.3v8.8
													c0,0.2,0.1,0.4,0.1,0.4L313.4,106z"/>
											</g>
											<g id="_Group_69">
												<path id="_Path_191" class="st17" d="M358.1,95.2L358.1,95.2c0-6-4.2-8.4-9.3-5.4l-20.4,11.6c-1,0.7-1.7,1.8-1.7,3v8.8
													c0,1.1,0.8,1.6,1.7,1l28-16C357.4,97.5,358,96.4,358.1,95.2z"/>
												<path id="_Compound_Path_33" class="st0" d="M327.5,115.3c-0.3,0-0.6-0.1-0.9-0.2c-0.6-0.4-1-1.1-0.9-1.8v-8.8
													c0.1-1.5,0.9-2.9,2.1-3.7L348.3,89c2.7-1.6,5.4-1.8,7.4-0.7s3.1,3.6,3.1,6.8c-0.1,1.5-0.9,2.9-2.1,3.7l-28,16
													C328.4,115.1,328,115.2,327.5,115.3z M352.9,89.3c-1.3,0.1-2.6,0.5-3.7,1.2l-20.4,11.7c-0.8,0.5-1.3,1.4-1.3,2.3v8.8
													c0,0.3,0.1,0.4,0.1,0.4c0.1,0,0.3,0,0.4-0.1l28-16c0.8-0.5,1.3-1.4,1.3-2.3c0-2.6-0.8-4.5-2.3-5.4
													C354.3,89.5,353.6,89.3,352.9,89.3L352.9,89.3z"/>
											</g>
										</g>
										<g id="_Group_70">
											<g id="_Group_71">
												<path id="_Path_192" class="st1" d="M292.1,154.1L292.1,154.1c-2.4,0-4.4-2-4.4-4.4v-18.3c0-7.7,5.2-16.7,11.9-20.5
													l16-9.2c2.1-1.2,4.8-0.5,6,1.7c0,0,0,0,0,0l0,0c1.2,2.1,0.5,4.8-1.6,6c0,0,0,0,0,0l-16,9.1c-4,2.3-7.5,8.3-7.5,12.9
													v18.2C296.5,152.1,294.5,154.1,292.1,154.1z"/>
												<path id="_Path_193" class="st10" d="M303.9,118.2l16-9.1c0.7-0.4,1.3-1,1.7-1.7v-0.1c-1.2-2.1-3.9-2.9-6-1.7
													c0,0,0,0,0,0l-16,9.2c-6.7,3.8-11.9,12.8-11.9,20.5v14.1c0,2.4,2,4.4,4.4,4.4l0,0c2.4,0,4.4-2,4.4-4.4v-18.3
													C296.4,126.5,299.9,120.5,303.9,118.2z"/>
												<path id="_Compound_Path_34" class="st0" d="M292.1,154.9c-2.9,0-5.2-2.3-5.2-5.2l0,0v-18.2c0-7.9,5.4-17.2,12.3-21.2
													l16-9.2c2.4-1.5,5.7-0.8,7.2,1.7s0.8,5.7-1.7,7.2c-0.1,0.1-0.3,0.2-0.4,0.2l-16,9.1c-3.7,2.1-7,7.9-7,12.2v18.2
													C297.3,152.6,295,154.9,292.1,154.9z M317.8,102.1c-0.6,0-1.2,0.2-1.8,0.5l-16,9.2c-6.4,3.7-11.5,12.4-11.5,19.8v18.2
													c0,2,1.6,3.6,3.6,3.6l0,0c2,0,3.6-1.6,3.6-3.6v-18.2c0-4.8,3.7-11.1,7.9-13.6l16-9.1c1.7-1,2.3-3.2,1.3-4.9
													C320.3,102.8,319.1,102.1,317.8,102.1L317.8,102.1z"/>
											</g>
										</g>
									</g>
									<g id="_Group_72">
										<g id="_Group_73">
											<g id="_Group_74">
												<path id="_Path_194" class="st1" d="M240.7,186.5L240.7,186.5c-2.4,0-4.4-2-4.4-4.4v-20.6c0-1.7-0.5-2.3-0.6-2.4
													s-0.9-0.2-2.4,0.7l-22.8,13.5c-2.1,1.2-4.8,0.5-6-1.6l0,0c-1.2-2.1-0.5-4.8,1.6-6l22.9-13.5c4-2.3,8-2.5,11.2-0.7
													s5,5.5,5,10V182C245.1,184.5,243.2,186.5,240.7,186.5C240.7,186.5,240.7,186.5,240.7,186.5z"/>
												<path id="_Path_195" class="st10" d="M240,155.4c-3.2-1.8-7.3-1.6-11.2,0.7L206,169.5c-0.7,0.4-1.3,1.1-1.7,1.8
													c0.1,0.2,0.1,0.3,0.2,0.5c1.2,2.1,3.9,2.8,6,1.6l22.8-13.5c1.5-0.9,2.3-0.8,2.4-0.7s0.6,0.7,0.6,2.4v20.6
													c0,2.4,1.9,4.4,4.4,4.4c2.1,0,4-1.5,4.4-3.6v-17.8C245.1,160.9,243.2,157.2,240,155.4z"/>
												<path id="_Compound_Path_35" class="st0" d="M240.7,187.3c-2.9,0-5.2-2.3-5.2-5.2l0,0v-20.6c0-0.6-0.1-1.1-0.2-1.6
													c-0.5,0.1-1.1,0.3-1.5,0.6l-22.8,13.5c-2.4,1.5-5.7,0.8-7.2-1.6s-0.8-5.7,1.6-7.2c0.1-0.1,0.2-0.1,0.3-0.2l22.9-13.5
													c4.2-2.4,8.6-2.7,12-0.7s5.4,5.9,5.4,10.7v20.6C245.9,184.9,243.5,187.2,240.7,187.3z M235.4,158.2c0.3,0,0.5,0,0.7,0.2
													c0.5,0.3,1,1.2,1,3.1v20.6c0,2,1.6,3.6,3.6,3.6c2,0,3.6-1.6,3.6-3.6v-20.6c0-4.2-1.7-7.6-4.6-9.3s-6.7-1.4-10.4,0.7
													l-22.9,13.5c-1.7,0.9-2.4,3.1-1.4,4.9c0.9,1.7,3.1,2.4,4.9,1.4c0.1,0,0.1-0.1,0.2-0.1l22.8-13.5
													C233.6,158.5,234.5,158.2,235.4,158.2z"/>
											</g>
										</g>
										<g id="_Group_75">
											<g id="_Group_76">
												<path id="_Path_196" class="st1" d="M198.8,159.8c-0.1-0.1-0.3-0.2-0.4-0.2h-0.1c-0.2,0-0.5,0.1-0.7,0.2L178,171
													c-4.6,3-7.5,8-7.8,13.5c0,0.3,0.1,0.5,0.3,0.8l0,0l15.9,9.1l15.1-14.4l9.1-6.7l3.5-4.4c0.1-0.2,0.1-0.4-0.1-0.6
													c0,0,0,0,0,0L198.8,159.8z"/>
												<path id="_Path_197" class="st18" d="M198.1,164.8L198.1,164.8c-0.3,0-0.5,0.1-0.8,0.2l-19.6,11.3c-3.3,2.1-5.8,5.3-7,9
													l15.4,8.8l15.1-14.4l9.1-6.7l0.7-0.9l-12.6-7.1C198.3,164.9,198.2,164.9,198.1,164.8z"/>
												<path id="_Compound_Path_36" class="st0" d="M186.4,195.4l-16.6-9.6c-0.3-0.4-0.5-0.8-0.5-1.3c0-5.2,3.7-11.6,8.2-14.2
													l19.6-11.3c0.3-0.2,0.7-0.3,1-0.3h0.2l0.2,0.1c0.2,0.1,0.5,0.2,0.7,0.4l15,8.4c0.6,0.3,0.8,1.1,0.5,1.6
													c0,0.1-0.1,0.1-0.1,0.2l-3.6,4.5l-9.1,6.7L186.4,195.4z M171,184.6l15.2,8.7l14.7-13.9l9.1-6.7l3.1-3.9l-14.9-8.4
													l-0.2,0.1l-19.6,11.3c-4.4,2.9-7.1,7.6-7.4,12.8C171,184.5,171,184.6,171,184.6z"/>
											</g>
											<g id="_Group_77">
												<path id="_Path_198" class="st17" d="M185.9,193.5L185.9,193.5c0.3-5.5,3.2-10.5,7.8-13.5l19.6-11.3
													c0.8-0.5,1.5-0.1,1.5,0.8v7.3c-0.1,1-0.6,2-1.5,2.5l-25.9,15C186.6,194.8,185.9,194.4,185.9,193.5z"/>
												<path id="_Compound_Path_37" class="st0" d="M186.7,195.3c-0.3,0-0.5-0.1-0.8-0.2c-0.6-0.4-0.9-1-0.8-1.6
													c0-5.2,3.7-11.6,8.2-14.2l19.6-11.3c0.8-0.6,1.8-0.4,2.4,0.4c0.3,0.3,0.4,0.8,0.3,1.2v7.3c0,1.3-0.7,2.5-1.9,3.2
													l-25.9,15C187.5,195.2,187.1,195.3,186.7,195.3z M213.9,169.2c0,0-0.1,0-0.2,0.1l-19.6,11.3c-4.4,2.9-7.1,7.6-7.4,12.8
													c0,0.1,0,0.2,0,0.2c0,0,0.1,0,0.2-0.1l25.9-15c0.6-0.4,1-1.1,1-1.8v-7.3C213.9,169.4,213.9,169.3,213.9,169.2
													L213.9,169.2z"/>
											</g>
										</g>
									</g>
								</g>
								<path id="_Path_199" class="st17" d="M236.1,158.3c0,0,8.2-0.1,8.2,9.5s0.8,13.3,0.8,13.3c-0.2,1.2-0.4,2.3-0.8,3.5
									c-0.3,0.6-3.6,1.9-3.6,1.9l-3.2-1.4l-1.2-3L236.1,158.3z"/>
								<path id="_Path_200" class="st17" d="M288.5,134c0,0-0.4-6.7,13.3-14.8s-0.8,1.9-0.8,1.9l-3.2,4.9l-1.3,5.5v12l-0.2,7.5
									l-2.3,3.2L291,154l-3.3-1.4v-17.5L288.5,134z"/>
							</g>
							<g id="_Group_78">
								<polygon id="_Path_201" class="st1" points="97.9,88.7 96.7,89.3 96.7,83.1 97.9,82.5 								"/>
							</g>
							<g id="_Group_79">
								<polygon id="_Path_202" class="st1" points="167.4,129 166.2,129.5 166.2,123.3 167.4,122.8 								"/>
							</g>
							<g id="_Group_80">
								<polygon id="_Path_203" class="st1" points="236.5,169.8 235.3,170.4 235.3,164.2 236.5,163.6 								"/>
							</g>
							<g id="_Group_81">
								<polygon id="_Path_204" class="st1" points="301,294.6 299.9,295.2 299.9,288.4 301,287.8 								"/>
							</g>
							<g id="_Group_82">
								<polygon id="_Path_205" class="st1" points="301,375 299.9,375.6 299.9,368.8 301,368.2 								"/>
							</g>
							<g id="_Group_83">
								<g id="_4">
									<g id="_Group_84">
										<path id="_Path_206" class="st1" d="M220.1,386.2l1.1,9.4c0,2.3,4.1,4.3,8.1,4.3s8.3-2.1,8.3-4.3l0.9-9.4H220.1z"/>
										<path id="_Compound_Path_38" class="st17" d="M229.3,400.4c-4.1,0-8.6-2-8.6-4.8l-1.1-9.8H239l-1,9.9
											C238,398.3,233.3,400.4,229.3,400.4z M220.6,386.7l1,8.9c0,2,3.9,3.9,7.7,3.9s7.8-2,7.8-3.9l0.9-8.9H220.6z"/>
									</g>
									<g id="_Group_85">
										<path id="_Path_207" class="st1" d="M239.7,378.5l-4.8,0.1c-1.8-0.6-3.7-0.9-5.6-0.9c-2.1,0-4.3,0.4-6.3,1.2l-4.2,0.1v4.5
											c0,3.2,4.7,5.8,10.4,5.8s10.4-2.6,10.4-5.8L239.7,378.5z"/>
										<path id="_Compound_Path_39" class="st17" d="M229.3,389.7c-6.1,0-10.9-2.8-10.9-6.2v-5l4.5-0.1c2-0.8,4.2-1.2,6.4-1.2
											c1.9,0,3.8,0.3,5.7,0.9l4.2-0.1c0.5,0,0.9,0.4,0.9,0.9c0,0,0,0,0,0v4.5C240.2,387,235.4,389.7,229.3,389.7z M219.3,379.4
											v4.1c0,2.9,4.5,5.3,10,5.3s10-2.4,10-5.3v-4.5l-4.4,0.1h-0.1c-1.8-0.6-3.6-0.9-5.4-0.9c-2.1,0-4.2,0.4-6.1,1.1h-0.2
											L219.3,379.4z"/>
									</g>
									<g id="_Group_86">
										<ellipse id="_Path_208" class="st1" cx="229.3" cy="378.9" rx="10.4" ry="5.4"/>
										<path id="_Path_209" class="st10" d="M229.3,380c-3-0.1-5.9,0.7-8.4,2.2c5.2,3,11.6,3,16.8,0
											C235.1,380.6,232.2,379.8,229.3,380z"/>
										<path id="_Compound_Path_40" class="st17" d="M229.3,384.8c-6.1,0-10.9-2.6-10.9-5.9s4.8-5.9,10.9-5.9s10.9,2.6,10.9,5.9
											S235.4,384.8,229.3,384.8z M229.3,374c-5.4,0-10,2.3-10,5s4.6,5,10,5s10-2.3,10-5S234.7,374,229.3,374L229.3,374z"/>
									</g>
									<g id="_Group_87">
										<path id="_Path_210" class="st19" d="M229.3,377.8c4.3,0,8,1.4,9.6,3.4c0.5-0.6,0.8-1.4,0.8-2.2c0-3-4.7-5.5-10.4-5.5
											s-10.4,2.5-10.4,5.5c0,0.8,0.3,1.6,0.8,2.2C221.2,379.2,225,377.8,229.3,377.8z"/>
										<path id="_Compound_Path_41" class="st17" d="M219.7,381.9l-0.4-0.5c-0.6-0.7-0.9-1.5-0.9-2.5c0-3.4,4.8-6,10.9-6
											s10.9,2.6,10.9,6c0,0.9-0.3,1.8-0.9,2.5l-0.4,0.5l-0.4-0.5c-1.6-1.9-5.2-3.2-9.2-3.2s-7.7,1.2-9.2,3.2L219.7,381.9z
											 M229.3,377.4c4,0,7.7,1.2,9.6,3.1c0.3-0.4,0.4-0.9,0.4-1.4c0-2.8-4.6-5.1-10-5.1s-10,2.3-10,5.1c0,0.5,0.1,1,0.4,1.4
											C221.6,378.6,225.2,377.4,229.3,377.4L229.3,377.4z"/>
									</g>
									<g id="_Group_88">
										<path id="_Compound_Path_42" class="st1" d="M229.3,373.1c-5.8,0-10.4,2.6-10.4,5.8s4.7,5.8,10.4,5.8s10.4-2.6,10.4-5.8
											S235,373.1,229.3,373.1z M229.3,383.5c-4.8,0-8.7-2.1-8.7-4.7s3.9-4.7,8.7-4.7s8.7,2.1,8.7,4.7S234.1,383.5,229.3,383.5
											L229.3,383.5z"/>
										<path id="_Compound_Path_43" class="st18" d="M229.3,374.3c-5.8,0-10.4,2.6-10.4,5.8s4.7,5.8,10.4,5.8s10.4-2.6,10.4-5.8
											S235,374.3,229.3,374.3z M229.3,384.6c-4.8,0-8.7-2.1-8.7-4.7s3.9-4.7,8.7-4.7s8.7,2.1,8.7,4.7S234.1,384.6,229.3,384.6z"
											/>
										<path id="_Compound_Path_44" class="st17" d="M229.3,385.2c-6.1,0-10.9-2.8-10.9-6.2s4.8-6.2,10.9-6.2s10.9,2.8,10.9,6.2
											S235.4,385.2,229.3,385.2z M229.3,373.6c-5.5,0-10,2.4-10,5.3s4.5,5.3,10,5.3s10-2.4,10-5.3S234.8,373.6,229.3,373.6z
											 M229.3,383.9c-5.1,0-9.2-2.3-9.2-5.1s4-5.1,9.2-5.1s9.2,2.3,9.2,5.1S234.4,383.9,229.3,383.9z M229.3,374.5
											c-4.5,0-8.3,1.9-8.3,4.2s3.8,4.2,8.3,4.2s8.3-1.9,8.3-4.2S233.8,374.5,229.3,374.5z"/>
									</g>
									<path id="_Path_211" class="st17" d="M235.9,384.3l-0.3,0.4c-0.1,0.1-7.7,10.4-14.6,6.4c-1.6-0.8-2.7-2.2-3.2-3.9
										c-0.4-2.4,0-4.9,1.3-6.9l0.1-0.1l0.1-3.5l-0.9,1.3c-0.9,1.2-3.5,5.6-2.6,9.6c0.6,2.2,2.1,4.1,4.1,5.2
										c1.3,0.8,2.9,1.2,4.4,1.2c6.8,0,12.6-7.8,12.8-8.2l0.3-0.4L235.9,384.3z"/>
								</g>
								<polygon id="_Path_212" class="st17" points="231.3,384.5 231.3,389.2 237,387.5 239.7,385.3 239.9,381.9 239.7,380.1 
									237.7,382.4 234.8,383.9 								"/>
								<polygon id="_Path_213" class="st17" points="231.3,389.6 230.7,399.9 234.1,399 237,397.1 237.6,394.7 238.2,386.5 
									235.6,388.1 231.9,389.1 								"/>
								<path id="_Path_214" class="st20" d="M236.4,385.3L236.4,385.3c-0.4-0.3-1-0.2-1.4,0.2c-0.9,1.1-1.9,2.1-3,3.1l-0.1,2.7
									c1.7-1.3,3.3-2.8,4.6-4.4C236.9,386.3,236.8,385.7,236.4,385.3C236.4,385.3,236.4,385.3,236.4,385.3z"/>
							</g>
						</g>
					</g>
					<g id="_Group_89">
						<g id="_Group_90">
							<path id="_Path_215" class="st0" d="M262.8,415.5c0.2,0.1,0.3,0.3,0.3,0.5c0,0.1-0.1,0.2-0.3,0.3c-0.4,0.2-0.9,0.2-1.4,0
								c-0.2-0.1-0.3-0.3-0.3-0.5c0-0.1,0.1-0.2,0.3-0.3C261.9,415.3,262.4,415.3,262.8,415.5z"/>
							<path id="_Path_216" class="st0" d="M266.4,413.4c0.2,0.1,0.3,0.3,0.3,0.5c0,0.1-0.1,0.2-0.3,0.3c-0.4,0.2-0.9,0.2-1.4,0
								c-0.2-0.1-0.3-0.3-0.3-0.5c0-0.1,0.1-0.2,0.3-0.3C265.5,413.2,266,413.2,266.4,413.4z"/>
							<path id="_Path_217" class="st0" d="M255.6,415.5c0.2,0.1,0.3,0.3,0.3,0.5c0,0.1-0.1,0.2-0.3,0.3c-0.4,0.2-0.9,0.2-1.4,0
								c-0.2-0.1-0.3-0.3-0.3-0.5c0-0.1,0.1-0.2,0.3-0.3C254.6,415.2,255.1,415.2,255.6,415.5z"/>
							<path id="_Path_218" class="st0" d="M259.2,413.4c0.2,0.1,0.3,0.3,0.3,0.5c0,0.1-0.1,0.2-0.3,0.3c-0.4,0.2-0.9,0.2-1.4,0
								c-0.2-0.1-0.3-0.3-0.3-0.5c0-0.1,0.1-0.2,0.3-0.3C258.2,413.2,258.7,413.2,259.2,413.4z"/>
							<path id="_Path_219" class="st0" d="M262.8,411.3c0.2,0.1,0.3,0.3,0.3,0.5c0,0.1-0.1,0.2-0.3,0.3c-0.4,0.2-0.9,0.2-1.4,0
								c-0.2-0.1-0.3-0.3-0.3-0.5c0-0.1,0.1-0.2,0.3-0.3C261.8,411.1,262.3,411.1,262.8,411.3z"/>
							<path id="_Path_220" class="st0" d="M266.4,409.2c0.2,0.1,0.3,0.3,0.3,0.5c0,0.1-0.1,0.2-0.3,0.3c-0.4,0.2-0.9,0.2-1.4,0
								c-0.2-0.1-0.3-0.3-0.3-0.5c0-0.1,0.1-0.2,0.3-0.3C265.4,409,265.9,409,266.4,409.2z"/>
							<path id="_Path_221" class="st0" d="M252,413.4c0.2,0.1,0.3,0.3,0.3,0.5c0,0.1-0.1,0.2-0.3,0.3c-0.4,0.2-0.9,0.2-1.4,0
								c-0.2-0.1-0.3-0.3-0.3-0.5c0-0.1,0.1-0.2,0.3-0.3C251.1,413.2,251.6,413.2,252,413.4z"/>
							<path id="_Path_222" class="st0" d="M255.6,411.3c0.2,0.1,0.3,0.3,0.3,0.5c0,0.1-0.1,0.2-0.3,0.3c-0.4,0.2-0.9,0.2-1.4,0
								c-0.2-0.1-0.3-0.3-0.3-0.5c0-0.1,0.1-0.2,0.3-0.3C254.6,411.1,255.1,411.1,255.6,411.3z"/>
							<path id="_Path_223" class="st0" d="M248.4,411.3c0.2,0.1,0.3,0.3,0.3,0.5c0,0.1-0.1,0.2-0.3,0.3c-0.4,0.2-0.9,0.2-1.4,0
								c-0.2-0.1-0.3-0.3-0.3-0.5c0-0.1,0.1-0.2,0.3-0.3C247.4,411.1,247.9,411.1,248.4,411.3z"/>
							<path id="_Path_224" class="st0" d="M252,409.2c0.2,0.1,0.3,0.3,0.3,0.5c0,0.1-0.1,0.2-0.3,0.3c-0.4,0.2-0.9,0.2-1.4,0
								c-0.2-0.1-0.3-0.3-0.3-0.5c0-0.1,0.1-0.2,0.3-0.3C251.1,409,251.6,409,252,409.2z"/>
							<path id="_Path_225" class="st0" d="M244.8,409.2c0.2,0.1,0.3,0.3,0.3,0.5c0,0.1-0.1,0.2-0.3,0.3c-0.4,0.2-0.9,0.2-1.4,0
								c-0.2-0.1-0.3-0.3-0.3-0.5c0-0.1,0.1-0.2,0.3-0.3C243.8,409,244.3,409,244.8,409.2z"/>
							<path id="_Path_226" class="st0" d="M248.4,407.2c0.2,0.1,0.3,0.3,0.3,0.5c0,0.1-0.1,0.2-0.3,0.3c-0.4,0.2-0.9,0.2-1.4,0
								c-0.2-0.1-0.3-0.3-0.3-0.5c0-0.1,0.1-0.2,0.3-0.3C247.4,406.9,247.9,406.9,248.4,407.2z"/>
							<path id="_Path_227" class="st0" d="M244.8,405.1c0.2,0.1,0.3,0.3,0.3,0.5c0,0.1-0.1,0.2-0.3,0.3c-0.4,0.2-0.9,0.2-1.4,0
								c-0.2-0.1-0.3-0.3-0.3-0.5c0-0.1,0.1-0.2,0.3-0.3C243.8,404.9,244.3,404.9,244.8,405.1z"/>
						</g>
						<g id="_Group_91">
							<g id="_Group_92">
								<g id="_Group_93">
									<g id="_Group_94">
										<path id="_Path_228" class="st1" d="M263.2,407.9l-3.9,2.5c-0.5,0.2-1.1,0.2-1.6,0l-13.7-8c-0.5-0.3-0.7-2.3-0.3-2.6
											l4-0.7c0.5-0.2,1.1-0.2,1.6,0l14,6.3C263.8,405.6,263.6,407.6,263.2,407.9z"/>
										<path id="_Compound_Path_45" class="st17" d="M258.6,410.9c-0.3,0-0.7-0.1-1-0.3l-13.7-8c-0.6-0.4-0.7-2-0.7-2
											c0-0.7,0.1-1.1,0.4-1.2l0.1,0l4-0.7c0.6-0.3,1.3-0.2,1.9,0.1l13.9,6.2c0.3,0.2,0.5,0.6,0.5,1.2c0,0.5-0.1,1.7-0.6,2
											l-3.9,2.5C259.2,410.8,258.9,410.9,258.6,410.9z M244,400.1c-0.1,0.6,0,1.3,0.3,1.9l13.7,8c0.4,0.2,0.8,0.2,1.2,0l3.9-2.5
											c0.3-0.6,0.3-1.3,0.2-1.9l-13.9-6.2c-0.4-0.2-0.8-0.2-1.2-0.1l-0.1,0L244,400.1z"/>
									</g>
									<g id="_Group_95">
										<path id="_Path_229" class="st1" d="M263.2,406l-3.9,2.5c-0.5,0.2-1.1,0.2-1.6,0l-13.7-7.9c-0.5-0.3-0.5-0.7-0.1-0.9
											l3.9-2.5c0.5-0.2,1.1-0.2,1.6,0l13.7,7.9C263.5,405.4,263.6,405.8,263.2,406z"/>
										<path id="_Path_230" class="st4" d="M259.3,408.5l2.7-1.7l-12.6-7.3c-0.5-0.2-1.1-0.2-1.6,0l-2.7,1.7l12.6,7.3
											C258.2,408.7,258.8,408.7,259.3,408.5z"/>
										<path id="_Compound_Path_46" class="st17" d="M258.6,409c-0.3,0-0.7-0.1-1-0.3l-13.7-7.9c-0.3-0.1-0.6-0.5-0.6-0.8
											c0-0.3,0.2-0.6,0.5-0.8l3.9-2.5c0.6-0.3,1.4-0.3,2,0l13.7,7.9c0.3,0.1,0.6,0.5,0.6,0.8c0,0.3-0.2,0.6-0.5,0.7l-3.9,2.5
											C259.3,408.9,258.9,409,258.6,409z M248.6,397.3c-0.2,0-0.4,0-0.5,0.1l-4,2.5c0.1,0.1,0.1,0.1,0.2,0.2l13.7,7.9
											c0.4,0.2,0.8,0.2,1.2,0l3.9-2.5c0,0,0.1,0,0.1-0.1c-0.1-0.1-0.1-0.1-0.2-0.1l-13.7-7.9C249,397.4,248.8,397.4,248.6,397.3
											L248.6,397.3z"/>
									</g>
								</g>
								<polygon id="_Path_231" class="st17" points="258.4,408.6 258.4,410.5 259.3,410.4 263.2,407.9 263.4,406.4 263.1,405.6 
									259.3,408.5 								"/>
							</g>
							<path id="_Path_232" class="st17" d="M253.4,403.5L253.4,403.5c-0.8-0.3-1.2-1.2-0.9-2c0,0,0,0,0,0l26.3-66.8
								c0.3-0.8,1.2-1.2,2-0.9c0,0,0,0,0,0l0,0c0.8,0.3,1.2,1.2,0.9,2c0,0,0,0,0,0l-26.3,66.8C255.1,403.4,254.2,403.8,253.4,403.5
								C253.4,403.5,253.4,403.5,253.4,403.5z"/>
						</g>
					</g>
				</g>
			</g>
		</g>
	</g>
</g>
</svg>
