<svg xmlns="http://www.w3.org/2000/svg" viewBox="0 0 41.28 62.14"><defs><style>.cls-1{fill:#16110d;}.cls-2{fill:#120d0c;}.cls-3{fill:#febd33;}.cls-4{fill:#140f0c;}.cls-5{fill:#fbeacc;}</style></defs><title>Bin</title><g id="Layer_2" data-name="Layer 2"><g id="Work"><g id="Work_Home" data-name="Work Home"><g id="illustrator"><g id="_Group_" data-name="&lt;Group&gt;"><g id="_Group_2" data-name="&lt;Group&gt;"><path id="_Path_" data-name="&lt;Path&gt;" class="cls-1" d="M25,60.47a.73.73,0,0,1,0,1.38,2.64,2.64,0,0,1-2.39,0,.73.73,0,0,1,0-1.38A2.64,2.64,0,0,1,25,60.47Z"/><path id="_Path_2" data-name="&lt;Path&gt;" class="cls-1" d="M31.23,56.87a.73.73,0,0,1,0,1.38,2.64,2.64,0,0,1-2.39,0,.73.73,0,0,1,0-1.38A2.64,2.64,0,0,1,31.23,56.87Z"/><path id="_Path_3" data-name="&lt;Path&gt;" class="cls-1" d="M37.47,53.27a.73.73,0,0,1,0,1.38,2.64,2.64,0,0,1-2.39,0,.73.73,0,0,1,0-1.38A2.64,2.64,0,0,1,37.47,53.27Z"/><path id="_Path_4" data-name="&lt;Path&gt;" class="cls-1" d="M12.5,60.47a.73.73,0,0,1,0,1.38,2.64,2.64,0,0,1-2.39,0,.73.73,0,0,1,0-1.38A2.64,2.64,0,0,1,12.5,60.47Z"/><path id="_Path_5" data-name="&lt;Path&gt;" class="cls-1" d="M18.74,56.87a.73.73,0,0,1,0,1.38,2.64,2.64,0,0,1-2.39,0,.73.73,0,0,1,0-1.38A2.64,2.64,0,0,1,18.74,56.87Z"/><path id="_Path_6" data-name="&lt;Path&gt;" class="cls-1" d="M25,53.27a.73.73,0,0,1,0,1.38,2.64,2.64,0,0,1-2.39,0,.73.73,0,0,1,0-1.38A2.64,2.64,0,0,1,25,53.27Z"/><path id="_Path_7" data-name="&lt;Path&gt;" class="cls-1" d="M31.23,49.66a.73.73,0,0,1,0,1.38,2.64,2.64,0,0,1-2.39,0,.73.73,0,0,1,0-1.38A2.64,2.64,0,0,1,31.23,49.66Z"/><path id="_Path_8" data-name="&lt;Path&gt;" class="cls-1" d="M37.47,46.06a.73.73,0,0,1,0,1.38,2.64,2.64,0,0,1-2.39,0,.73.73,0,0,1,0-1.38A2.64,2.64,0,0,1,37.47,46.06Z"/><path id="_Path_9" data-name="&lt;Path&gt;" class="cls-1" d="M6.25,56.87a.73.73,0,0,1,0,1.38,2.64,2.64,0,0,1-2.39,0,.73.73,0,0,1,0-1.38A2.64,2.64,0,0,1,6.25,56.87Z"/><path id="_Path_10" data-name="&lt;Path&gt;" class="cls-1" d="M12.5,53.27a.73.73,0,0,1,0,1.38,2.64,2.64,0,0,1-2.39,0,.73.73,0,0,1,0-1.38A2.64,2.64,0,0,1,12.5,53.27Z"/><path id="_Path_11" data-name="&lt;Path&gt;" class="cls-1" d="M6.2,49.62A.73.73,0,0,1,6.2,51a2.64,2.64,0,0,1-2.39,0,.73.73,0,0,1,0-1.38A2.64,2.64,0,0,1,6.2,49.62Z"/></g><g id="_Group_3" data-name="&lt;Group&gt;"><g id="_2" data-name="2"><g id="_Group_4" data-name="&lt;Group&gt;"><polygon id="_Path_12" data-name="&lt;Path&gt;" class="cls-2" points="16.86 31.26 16.86 52.18 35.14 41.72 38.45 18.14 16.86 31.26"/><g id="_Group_5" data-name="&lt;Group&gt;"><polygon id="_Path_13" data-name="&lt;Path&gt;" class="cls-3" points="3.45 24.42 6.66 46.35 16.86 52.18 16.86 31.26 3.45 24.42"/><path id="_Compound_Path_" data-name="&lt;Compound Path&gt;" class="cls-4" d="M39.33,16.8,16.83,30.47,2.57,23.2,6,46.78,16.86,53,35.77,42.15Zm-32,29.12-3-20.29,11.86,6V51ZM17.55,51V31.64l20-12.17L34.5,41.29Z"/></g><g id="_Group_6" data-name="&lt;Group&gt;"><path id="_Path_14" data-name="&lt;Path&gt;" class="cls-3" d="M40.51,17h0l.07-4.88-6.42.74L27,8.84a5.41,5.41,0,0,0-4.86-.18l-12,7L.69,16.78V21.9s0,0,0,0h0a2,2,0,0,0,1.2,1.62l12.36,7.05a5.4,5.4,0,0,0,4.86.18L39.76,18.7A1.32,1.32,0,0,0,40.51,17Z"/><path id="_Compound_Path_2" data-name="&lt;Compound Path&gt;" class="cls-4" d="M17,31.94a6.3,6.3,0,0,1-3.06-.76L1.55,24.12A2.62,2.62,0,0,1,0,21.89V17.3A1.27,1.27,0,0,1,1.12,16l8.81-1,11.9-6.95a6.06,6.06,0,0,1,5.55.17l6.92,3.95,5.54-.64a1.27,1.27,0,0,1,1.41,1.28l-.06,4.1a2,2,0,0,1-1.09,2.37L19.46,31.35A5,5,0,0,1,17,31.94ZM1.38,17.39V21.9c0,.35.32.73.85,1L14.59,30a4.74,4.74,0,0,0,4.18.18L39.41,18.11c.42-.25.57-.52.45-.83l0-.12.06-4.23L34,13.61,26.7,9.44a4.75,4.75,0,0,0-4.18-.18L10.23,16.37Z"/></g><g id="_Group_7" data-name="&lt;Group&gt;"><path id="_Path_15" data-name="&lt;Path&gt;" class="cls-3" d="M39.76,13.57,19.11,25.63a5.4,5.4,0,0,1-4.86-.18L1.89,18.4c-1.44-.82-1.61-2.08-.36-2.81L22.18,3.53A5.41,5.41,0,0,1,27,3.71L39.4,10.77C40.84,11.59,41,12.85,39.76,13.57Z"/><path id="_Path_16" data-name="&lt;Path&gt;" class="cls-5" d="M19.55,25.33,38.1,14.5,27.48,8.44a5.41,5.41,0,0,0-4.86-.18L4.06,19.09l10.62,6.06A5.41,5.41,0,0,0,19.55,25.33Z"/><path id="_Compound_Path_3" data-name="&lt;Compound Path&gt;" class="cls-4" d="M17,26.82a6.31,6.31,0,0,1-3.06-.76L1.55,19A2.67,2.67,0,0,1,0,16.82,2.1,2.1,0,0,1,1.18,15L21.83,2.94a6.08,6.08,0,0,1,5.55.17l12.36,7.05a2.66,2.66,0,0,1,1.54,2.17,2.11,2.11,0,0,1-1.18,1.82L19.46,26.23A5,5,0,0,1,17,26.82ZM24.31,3.72a3.65,3.65,0,0,0-1.79.4L1.87,16.19c-.19.11-.5.34-.5.63s.33.69.85,1l12.36,7.05a4.72,4.72,0,0,0,4.18.18L39.41,13c.19-.11.5-.34.5-.63s-.33-.69-.85-1L26.7,4.31A5,5,0,0,0,24.31,3.72Z"/></g></g><g id="_Group_8" data-name="&lt;Group&gt;"><path id="_Path_17" data-name="&lt;Path&gt;" class="cls-3" d="M32.69,11.84,21.42,18.35a6.36,6.36,0,0,1-5.72-.24L9,14.25c-1.69-1-1.88-2.46-.41-3.3L19.86,4.44a6.36,6.36,0,0,1,5.72.24l6.69,3.86C34,9.51,34.16,11,32.69,11.84Z"/><path id="_Compound_Path_4" data-name="&lt;Compound Path&gt;" class="cls-4" d="M18.93,19.61a7.34,7.34,0,0,1-3.57-.9L8.66,14.85a3,3,0,0,1-1.75-2.46,2.37,2.37,0,0,1,1.34-2L19.52,3.84a7,7,0,0,1,6.41.24l6.69,3.86a3,3,0,0,1,1.75,2.46,2.36,2.36,0,0,1-1.34,2L21.77,18.94A5.75,5.75,0,0,1,18.93,19.61ZM22.34,4.55A4.36,4.36,0,0,0,20.21,5L8.94,11.54c-.24.14-.65.44-.65.84s.4.89,1.06,1.28L16,17.52a5.72,5.72,0,0,0,5,.24l11.27-6.51c.24-.14.65-.43.65-.84s-.4-.89-1.06-1.27L25.24,5.27A6,6,0,0,0,22.34,4.55Z"/></g><g id="_Group_9" data-name="&lt;Group&gt;"><path id="_Path_18" data-name="&lt;Path&gt;" class="cls-3" d="M32.69,8.66,21.42,15.17a6.36,6.36,0,0,1-5.72-.24L9,11.07c-1.69-1-1.88-2.46-.41-3.3L19.86,1.26a6.36,6.36,0,0,1,5.72.24l6.69,3.86C34,6.33,34.16,7.81,32.69,8.66Z"/><path id="_Path_19" data-name="&lt;Path&gt;" class="cls-5" d="M19.86,5.12,9.28,11.24l6.42,3.7a6.36,6.36,0,0,0,5.72.24L32,9.06l-6.42-3.7A6.36,6.36,0,0,0,19.86,5.12Z"/><path id="_Compound_Path_5" data-name="&lt;Compound Path&gt;" class="cls-4" d="M18.93,16.43a7.32,7.32,0,0,1-3.57-.9L8.66,11.67A3,3,0,0,1,6.91,9.21a2.36,2.36,0,0,1,1.34-2L19.52.67A7,7,0,0,1,25.93.9l6.69,3.86a3,3,0,0,1,1.75,2.46,2.37,2.37,0,0,1-1.34,2L21.77,15.77A5.76,5.76,0,0,1,18.93,16.43ZM22.34,1.37a4.38,4.38,0,0,0-2.14.48L8.94,8.36c-.24.14-.65.44-.65.84s.4.89,1.06,1.27L16,14.34a5.72,5.72,0,0,0,5,.24L32.35,8.07c.24-.14.65-.44.65-.84S32.6,6.33,31.94,6L25.24,2.09A6,6,0,0,0,22.34,1.37Z"/></g></g><polygon id="_Path_20" data-name="&lt;Path&gt;" class="cls-2" points="18.86 15.74 18.86 18.92 21.42 18.35 33.68 11.39 33.49 9.66 32.69 8.66 20.17 15.19 18.86 15.74"/><polygon id="_Path_21" data-name="&lt;Path&gt;" class="cls-2" points="16.86 26.12 16.86 31.26 19.7 30.34 40.6 18.14 40.44 13.17 19.11 25.63 16.86 26.12"/><path id="_Path_22" data-name="&lt;Path&gt;" class="cls-3" d="M19.46,31.33,37.4,20.85l.27-1.75-18.91,11a2.82,2.82,0,0,1-.55.2v1.44A4.2,4.2,0,0,0,19.46,31.33Z"/></g></g></g></g></g></g></svg>