<svg xmlns="http://www.w3.org/2000/svg" viewBox="0 0 180.19 160"><defs><style>.cls-1{fill:#fff;}</style></defs><title>BurgerMenu</title><g id="Layer_2" data-name="Layer 2"><g id="Layer_1-2" data-name="Layer 1"><g id="HRquYV.tif"><path class="cls-1" d="M4.07,160C.89,157.62-.12,154.5,0,150.53c.26-7.65,0-15.32.09-23,0-5.67,1.9-7.69,7.35-7.69q82.68,0,165.36,0c5.27,0,7.21,2,7.26,7.24.07,8-.19,16,.11,24,.14,3.89-1.09,6.71-4.11,8.92Z"/><path class="cls-1" d="M90.57,59.93q40.5,0,81,0c6.9,0,8.51,1.63,8.53,8.53,0,7.83,0,15.66,0,23.5,0,5.84-2,7.94-7.7,7.94q-82.24,0-164.48,0C2.17,99.91.14,97.8.1,92c-.05-7.83,0-15.66,0-23.5,0-6.89,1.69-8.6,8.49-8.61Q49.57,59.91,90.57,59.93Z"/><path class="cls-1" d="M89.91,40q-40.49,0-81,0C1.82,40,.11,38.27.09,31.19c0-7.67,0-15.33,0-23C.13,2,2,0,8.07,0q82,0,164,0c6.15,0,8,1.88,8,8.06q.06,12,0,24c0,6.06-1.95,7.92-8.18,7.93Q130.91,40,89.91,40Z"/></g></g></g></svg>