<svg xmlns="http://www.w3.org/2000/svg" viewBox="0 0 190.62 263.11"><defs><style>.cls-1{isolation:isolate;}.cls-2,.cls-4{stroke:#000;stroke-linejoin:round;stroke-width:2px;}.cls-3{fill:#ffbe2e;}.cls-4{fill:none;}.cls-5{fill:#fec;}</style></defs><title>Button Android</title><g id="Layer_2" data-name="Layer 2"><g id="Contact"><g class="cls-1"><path class="cls-2" d="M56.11,130.62,20.87,151.1C22.78,150,24,147.7,24,144.34l35.24-20.48C59.22,127.22,58,129.51,56.11,130.62Z"/><path class="cls-3" d="M4.46,70.24,39.7,49.76c2.12-1.23,5.06-1.08,8.22.75L12.68,71C9.52,69.16,6.58,69,4.46,70.24Z"/><path class="cls-3" d="M12.68,71,47.92,50.51C54.09,54.07,59.4,63,59.38,70.09L24.14,90.57C24.16,83.49,18.85,74.55,12.68,71Z"/><path class="cls-4" d="M4.46,70.24,39.7,49.76c2.12-1.23,5.06-1.08,8.22.75L12.68,71C9.52,69.16,6.58,69,4.46,70.24Z"/><path class="cls-3" d="M12.68,71c6.17,3.56,11.48,12.5,11.46,19.58L24,144.34c0,7.1-5.36,9.44-11.53,5.88S1,138.16,1,131.07l.15-53.76C1.17,70.22,6.51,67.42,12.68,71Z"/><path class="cls-5" d="M4.46,75.64,39.7,55.16c2.12-1.23,5.06-1.08,8.22.75L12.68,76.39C9.52,74.57,6.58,74.41,4.46,75.64Z"/><path class="cls-5" d="M12.68,76.39,47.92,55.91c6.17,3.56,11.48,12.5,11.46,19.58L24.14,96C24.16,88.89,18.85,80,12.68,76.39Z"/><path class="cls-4" d="M12.68,71c6.17,3.56,11.48,12.5,11.46,19.58L24,144.34c0,7.1-5.36,9.44-11.53,5.88S1,138.16,1,131.07l.15-53.76C1.17,70.22,6.51,67.42,12.68,71Z"/><path class="cls-4" d="M12.68,71,47.92,50.51C54.09,54.07,59.4,63,59.38,70.09L24.14,90.57C24.16,83.49,18.85,74.55,12.68,71Z"/><polygon class="cls-2" points="24.14 90.57 59.38 70.09 59.23 123.86 23.98 144.34 24.14 90.57"/></g><g class="cls-1"><path class="cls-2" d="M101.76,218.73,66.52,239.21c2-1.16,3.25-3.58,3.26-7L105,211.7C105,215.15,103.76,217.57,101.76,218.73Z"/><polygon class="cls-2" points="69.87 201 105.11 180.53 105.02 211.7 69.78 232.18 69.87 201"/><path class="cls-2" d="M140.07,240.85l-35.24,20.48c2-1.16,3.25-3.58,3.26-7l35.24-20.48C143.32,237.27,142.06,239.69,140.07,240.85Z"/><polygon class="cls-2" points="108.18 223.12 143.42 202.64 143.33 233.82 108.09 254.29 108.18 223.12"/><path class="cls-2" d="M155.3,205.43l-35.24,20.48c2.14-1.24,3.47-3.89,3.48-7.65l35.24-20.48C158.77,201.54,157.44,204.18,155.3,205.43Z"/><path class="cls-3" d="M31.61,165.19,31.84,82l91.94,53.08-.24,83.13c0,7.58-5.39,10.62-12,6.82l-3.4-2-.09,31.17c0,7.09-5.27,9.82-11.45,6.26S85.08,248.11,85.1,241l.09-31.19L69.87,201l-.09,31.17c0,7.09-5.28,9.82-11.45,6.26S46.78,226,46.8,218.92l.09-31.19-3.39-2C36.9,182,31.58,172.77,31.61,165.19Z"/><path class="cls-4" d="M31.61,165.19,31.84,82l91.94,53.08-.24,83.13c0,7.58-5.39,10.62-12,6.82l-3.4-2-.09,31.17c0,7.09-5.27,9.82-11.45,6.26S85.08,248.11,85.1,241l.09-31.19L69.87,201l-.09,31.17c0,7.09-5.28,9.82-11.45,6.26S46.78,226,46.8,218.92l.09-31.19-3.39-2C36.9,182,31.58,172.77,31.61,165.19Z"/><polygon class="cls-2" points="123.77 135.13 159.01 114.65 158.78 197.78 123.54 218.26 123.77 135.13"/><polygon class="cls-2" points="31.84 82.05 67.08 61.57 159.01 114.65 123.77 135.13 31.84 82.05"/><polygon class="cls-2" points="31.84 82.05 67.08 61.57 159.01 114.65 123.77 135.13 31.84 82.05"/></g><g class="cls-1"><path class="cls-2" d="M96.69,50.91,61.45,71.39a2.69,2.69,0,0,1-2.72-.27L94,50.64A2.69,2.69,0,0,0,96.69,50.91Z"/><path class="cls-2" d="M56,62.06,91.27,41.58A2.67,2.67,0,0,0,90.15,44,8.44,8.44,0,0,0,94,50.64L58.73,71.12a8.44,8.44,0,0,1-3.82-6.62A2.67,2.67,0,0,1,56,62.06Z"/><path class="cls-4" d="M43.31,47.47,78.55,27a27.32,27.32,0,0,1,12-3.35L55.34,44.11A27.32,27.32,0,0,0,43.31,47.47Z"/><polygon class="cls-2" points="50.7 23.32 85.94 2.84 93.17 23.57 57.93 44.05 50.7 23.32"/><path class="cls-2" d="M48.47,21.57,83.71,1.1a1,1,0,0,1,1,.09,3.07,3.07,0,0,1,1.26,1.65L50.69,23.32a3.07,3.07,0,0,0-1.26-1.65A1,1,0,0,0,48.47,21.57Z"/><path class="cls-2" d="M135,73,99.76,93.5A2.71,2.71,0,0,1,97,93.23l35.24-20.48A2.71,2.71,0,0,0,135,73Z"/><path class="cls-2" d="M94.34,84.17l35.24-20.48a2.68,2.68,0,0,0-1.12,2.46,8.41,8.41,0,0,0,3.81,6.61L97,93.23a8.41,8.41,0,0,1-3.81-6.61A2.68,2.68,0,0,1,94.34,84.17Z"/><path class="cls-3" d="M57.93,44,93.17,23.57c6.31.15,13.21,2.5,20,6.42A82.45,82.45,0,0,1,133.23,46.7L98,67.18A82.45,82.45,0,0,0,77.91,50.46C71.14,46.55,64.24,44.2,57.93,44Z"/><path class="cls-5" d="M57.93,51,93.17,30.49c6.31.15,13.21,2.5,20,6.42a82.45,82.45,0,0,1,20.08,16.71L98,74.1A82.45,82.45,0,0,0,77.91,57.39C71.14,53.48,64.24,51.12,57.93,51Z"/><path class="cls-4" d="M57.93,44,93.17,23.57c6.31.15,13.21,2.5,20,6.42A82.45,82.45,0,0,1,133.23,46.7L98,67.18A82.45,82.45,0,0,0,77.91,50.46C71.14,46.55,64.24,44.2,57.93,44Z"/><path class="cls-4" d="M100.56,70.22,135.8,49.74C149.91,67,159.1,86,159,105.84L123.8,126.32C123.86,106.46,114.67,87.48,100.56,70.22Z"/><polygon class="cls-2" points="107.81 58.01 143.05 37.53 135.8 49.74 100.56 70.22 107.81 58.01"/><path class="cls-2" d="M105.59,54.56l35.24-20.48a1,1,0,0,1,1,.09c1.1.63,1.76,2.5,1.24,3.36L107.81,58c.53-.86-.14-2.73-1.24-3.36A1,1,0,0,0,105.59,54.56Z"/><path class="cls-3" d="M100.56,70.22c14.11,17.27,23.3,36.24,23.24,56.1L31.86,73.24c.06-19.86,9.32-28.18,23.48-29.12L48.19,23.59c-.52-1.47.15-2.56,1.25-1.92a3.07,3.07,0,0,1,1.26,1.65L57.93,44c6.31.15,13.21,2.5,20,6.42A82.45,82.45,0,0,1,98,67.18l7.32-12.33c.26-.44.75-.49,1.26-.2,1.1.63,1.76,2.5,1.24,3.36Zm-41.83.9c2.11,1.22,3.83.23,3.84-2.19a8.43,8.43,0,0,0-3.81-6.61c-2.11-1.22-3.84-.23-3.85,2.19a8.44,8.44,0,0,0,3.82,6.62M97,93.23c2.11,1.22,3.84.24,3.85-2.19a8.46,8.46,0,0,0-3.82-6.62c-2.11-1.22-3.83-.22-3.84,2.19A8.41,8.41,0,0,0,97,93.23"/><polygon class="cls-5" points="31.84 65.25 67.08 44.77 159.01 97.86 123.77 118.33 31.84 65.25"/><path d="M57.93,44,93.17,23.57c6.31.15,13.21,2.5,20,6.42,7.11,4.11,5.08,3.27,4.84,2.67L84.25,55c-6-6.79.78-.4-6.33-4.5C71.14,46.55,64.24,44.2,57.93,44Z"/><path class="cls-4" d="M100.56,70.22c14.11,17.27,23.3,36.24,23.24,56.1L31.86,73.24c.06-19.86,9.32-28.18,23.48-29.12L48.19,23.59c-.52-1.47.15-2.56,1.25-1.92a3.07,3.07,0,0,1,1.26,1.65L57.93,44c6.31.15,13.21,2.5,20,6.42A82.45,82.45,0,0,1,98,67.18l7.32-12.33c.26-.44.75-.49,1.26-.2,1.1.63,1.76,2.5,1.24,3.36Zm-41.83.9c2.11,1.22,3.83.23,3.84-2.19a8.43,8.43,0,0,0-3.81-6.61c-2.11-1.22-3.84-.23-3.85,2.19a8.44,8.44,0,0,0,3.82,6.62M97,93.23c2.11,1.22,3.84.24,3.85-2.19a8.46,8.46,0,0,0-3.82-6.62c-2.11-1.22-3.83-.22-3.84,2.19A8.41,8.41,0,0,0,97,93.23m0,0c2.11,1.22,3.84.24,3.85-2.19a8.46,8.46,0,0,0-3.82-6.62c-2.11-1.22-3.83-.22-3.84,2.19A8.41,8.41,0,0,0,97,93.23m0,0c2.11,1.22,3.84.24,3.85-2.19a8.46,8.46,0,0,0-3.82-6.62c-2.11-1.22-3.83-.22-3.84,2.19A8.41,8.41,0,0,0,97,93.23"/><path class="cls-2" d="M100.56,70.22,135.8,49.74C149.91,67,159.1,86,159,105.84L123.8,126.32C123.86,106.46,114.67,87.48,100.56,70.22Z"/></g><g class="cls-1"><path class="cls-3" d="M142.93,146.19l35.24-20.48c6.17,3.56,11.48,12.5,11.46,19.58l-35.24,20.48C154.4,158.68,149.1,149.75,142.93,146.19Z"/><path class="cls-3" d="M134.71,145.44,169.95,125c2.12-1.23,5.06-1.08,8.22.75l-35.24,20.48C139.77,144.36,136.83,144.2,134.71,145.44Z"/><path class="cls-2" d="M186.36,205.82l-35.24,20.48c1.91-1.11,3.11-3.4,3.12-6.76l35.24-20.48C189.46,202.41,188.27,204.71,186.36,205.82Z"/><path class="cls-4" d="M134.71,145.44,169.95,125c2.12-1.23,5.06-1.08,8.22.75l-35.24,20.48C139.77,144.36,136.83,144.2,134.71,145.44Z"/><path class="cls-3" d="M142.93,146.19c6.17,3.56,11.48,12.5,11.46,19.58l-.15,53.77c0,7.1-5.36,9.44-11.53,5.88s-11.48-12.06-11.46-19.15l.15-53.76C131.42,145.42,136.76,142.62,142.93,146.19Z"/><path class="cls-5" d="M142.93,151.47,178.17,131c6.17,3.56,11.48,12.5,11.46,19.58L154.38,171C154.4,164,149.1,155,142.93,151.47Z"/><path class="cls-5" d="M134.71,150.71l35.24-20.48c2.12-1.23,5.06-1.08,8.22.75l-35.24,20.48C139.77,149.64,136.83,149.48,134.71,150.71Z"/><path class="cls-4" d="M142.93,146.19c6.17,3.56,11.48,12.5,11.46,19.58l-.15,53.77c0,7.1-5.36,9.44-11.53,5.88s-11.48-12.06-11.46-19.15l.15-53.76C131.42,145.42,136.76,142.62,142.93,146.19Z"/><path class="cls-4" d="M142.93,146.19l35.24-20.48c6.17,3.56,11.48,12.5,11.46,19.58l-35.24,20.48C154.4,158.68,149.1,149.75,142.93,146.19Z"/><polygon class="cls-2" points="154.38 165.77 189.62 145.29 189.47 199.06 154.23 219.54 154.38 165.77"/></g><path class="cls-2" d="M97.07,93.36c2.11,1.22,3.84.24,3.85-2.19a8.46,8.46,0,0,0-3.82-6.62c-2.11-1.22-3.83-.22-3.84,2.19a8.41,8.41,0,0,0,3.81,6.61"/><path class="cls-2" d="M58.68,71.06c2.11,1.22,3.84.24,3.85-2.19a8.46,8.46,0,0,0-3.82-6.62C56.6,61,54.88,62,54.87,64.45a8.41,8.41,0,0,0,3.81,6.61"/></g></g></svg>