<?xml version="1.0" encoding="utf-8"?>
<!-- Generator: Adobe Illustrator 20.1.0, SVG Export Plug-In . SVG Version: 6.00 Build 0)  -->
<svg version="1.1" id="Layer_1" xmlns="http://www.w3.org/2000/svg" xmlns:xlink="http://www.w3.org/1999/xlink" x="0px" y="0px"
	 viewBox="0 0 72 54.6" style="enable-background:new 0 0 72 54.6;" xml:space="preserve">
<style type="text/css">
	.st0{fill:#271F3B;}
	.st1{display:none;}
	.st2{display:inline;}
	.st3{fill:#FFFFFF;stroke:#FFFFFF;stroke-width:0.6605;stroke-miterlimit:10;}
	.st4{fill:#FFFFFF;}
</style>
<circle class="st0" cx="36" cy="27.3" r="27"/>
<g id="Mail" class="st1">
	<g id="Contact_New" class="st2">
		<path class="st3" d="M20.8,16.5v21.7c0,0.3,0.2,0.5,0.5,0.5c0,0,0,0,0,0h29.3c0.3,0,0.5-0.2,0.5-0.5V16.5c0-0.3-0.2-0.5-0.5-0.5
			H21.4C21.1,15.9,20.8,16.2,20.8,16.5L20.8,16.5z M46.9,19.4l-10.5,8.5c-0.2,0.2-0.5,0.2-0.7,0l-10.6-8.5c-0.2-0.2-0.3-0.5-0.1-0.7
			c0.1-0.1,0.3-0.2,0.4-0.2h21.1c0.3,0,0.5,0.2,0.5,0.5C47.1,19.1,47,19.3,46.9,19.4z M23.4,35.6V22.3c0-0.3,0.2-0.5,0.5-0.5
			c0.1,0,0.3,0,0.4,0.1l11.4,9.3c0.2,0.2,0.5,0.2,0.7,0l11.4-9.3c0.2-0.2,0.5-0.2,0.7,0c0.1,0.1,0.1,0.2,0.1,0.4v13.3
			c0,0.3-0.2,0.5-0.5,0.5l0,0H23.9C23.6,36.1,23.4,35.9,23.4,35.6C23.4,35.6,23.4,35.6,23.4,35.6z"/>
	</g>
</g>
<g id="Linkedin">
	<g id="Layer_2_1_">
		<g id="Contact_New_1_">
			<path class="st4" d="M27.7,14.7c0,1.6-1.3,2.9-2.9,2.9s-2.9-1.3-2.9-2.9c0-1.6,1.3-2.9,2.9-2.9C26.4,11.8,27.7,13.1,27.7,14.7
				C27.7,14.7,27.7,14.7,27.7,14.7z M27.7,20h-5.9v18.8h5.9V20z M37.2,20h-5.9v18.8h5.9V29c0-5.5,7.1-6,7.1,0v9.9h5.9V26.9
				c0-9.3-10.5-8.9-13-4.4L37.2,20z"/>
		</g>
	</g>
</g>
</svg>
