<?xml version="1.0" encoding="utf-8"?>
<!-- Generator: Adobe Illustrator 20.1.0, SVG Export Plug-In . SVG Version: 6.00 Build 0)  -->
<svg version="1.1" id="Layer_1" xmlns="http://www.w3.org/2000/svg" xmlns:xlink="http://www.w3.org/1999/xlink" x="0px" y="0px"
	 viewBox="0 0 72 54.6" style="enable-background:new 0 0 72 54.6;" xml:space="preserve">
<style type="text/css">
	.st0{fill:#271F3B;}
	.st1{display:none;}
	.st2{display:inline;}
	.st3{fill:#FFFFFF;stroke:#FFFFFF;stroke-width:0.6605;stroke-miterlimit:10;}
	.st4{fill:#FFFFFF;}
	.st5{fill:#FCFCFC;}
</style>
<circle class="st0" cx="36" cy="27.3" r="27"/>
<g id="Mail" class="st1">
	<g id="Contact_New" class="st2">
		<path class="st3" d="M20.8,16.5v21.7c0,0.3,0.2,0.5,0.5,0.5c0,0,0,0,0,0h29.3c0.3,0,0.5-0.2,0.5-0.5V16.5c0-0.3-0.2-0.5-0.5-0.5
			H21.4C21.1,15.9,20.8,16.2,20.8,16.5L20.8,16.5z M46.9,19.4l-10.5,8.5c-0.2,0.2-0.5,0.2-0.7,0l-10.6-8.5c-0.2-0.2-0.3-0.5-0.1-0.7
			c0.1-0.1,0.3-0.2,0.4-0.2h21.1c0.3,0,0.5,0.2,0.5,0.5C47.1,19.1,47,19.3,46.9,19.4z M23.4,35.6V22.3c0-0.3,0.2-0.5,0.5-0.5
			c0.1,0,0.3,0,0.4,0.1l11.4,9.3c0.2,0.2,0.5,0.2,0.7,0l11.4-9.3c0.2-0.2,0.5-0.2,0.7,0c0.1,0.1,0.1,0.2,0.1,0.4v13.3
			c0,0.3-0.2,0.5-0.5,0.5l0,0H23.9C23.6,36.1,23.4,35.9,23.4,35.6C23.4,35.6,23.4,35.6,23.4,35.6z"/>
	</g>
</g>
<g id="Linkedin" class="st1">
	<g id="Layer_2_1_" class="st2">
		<g id="Contact_New_1_">
			<path class="st4" d="M27.7,14.7c0,1.6-1.3,2.9-2.9,2.9s-2.9-1.3-2.9-2.9c0-1.6,1.3-2.9,2.9-2.9C26.4,11.8,27.7,13.1,27.7,14.7
				C27.7,14.7,27.7,14.7,27.7,14.7z M27.7,20h-5.9v18.8h5.9V20z M37.2,20h-5.9v18.8h5.9V29c0-5.5,7.1-6,7.1,0v9.9h5.9V26.9
				c0-9.3-10.5-8.9-13-4.4L37.2,20z"/>
		</g>
	</g>
</g>
<g id="Behance" class="st1">
	<g id="Contact_New_2_" class="st2">
		<path class="st4" d="M48.6,20.4h-8.8v-2.5h8.8V20.4z M50.7,33c-0.6,1.6-2.6,3.8-6.4,3.8s-7-2.2-7-7.1s2.9-7.4,6.9-7.4
			c3.9,0,6.2,2.2,6.8,5.6c0.1,0.9,0.1,1.8,0.1,2.7H41c0.2,4,4.4,4.2,5.8,2.6H50.7z M41.1,27.9h6.2c-0.1-1.9-1.4-2.8-3.1-2.8
			C42.4,25.2,41.3,26.1,41.1,27.9z M29,36.7h-8.1V17.9h8.7c6.9,0.1,7,6.8,3.4,8.7C37.4,28.2,37.6,36.7,29,36.7z M24.7,25.4h4.5
			c3.2,0,3.7-3.8-0.4-3.8h-4.1V25.4z M28.9,29.2h-4.3V33h4.2C32.7,33,32.5,29.2,28.9,29.2z"/>
	</g>
</g>
<g id="USKM4w.tif">
	<g>
		<g>
			<path class="st4" d="M25.4,44c-1.1,0-2.1-1-2.1-2.1c0-2.1,0-29.1,0-29.1c0-1.1,0.6-1.9,1.6-2.2l0.1,0l0.1,0h17.2
				c0.6,0.2,1,0.6,1.4,0.9c1.4,1.4,2.8,2.7,4.1,4.1c0.5,0.5,0.7,1,0.7,1.7c0,8.2,0,16.4,0,24.7c0,1.1-1,2.1-2,2.1L36,44L25.4,44z
				 M25.6,12.5c-0.2,0-0.3,0-0.3,0c0,0,0,0.1,0,0.3l0,29c0,0.1,0,0.3,0,0.4c0,0,0.3,0,0.3,0h20.8c0.1,0,0.2,0,0.3,0c0,0,0-0.2,0-0.3
				l0-0.2c0-0.1,0-0.1,0-0.2V18l-4.4,0c-0.4,0-0.7-0.1-0.9-0.3s-0.3-0.5-0.3-0.9v-4.4H30.7H25.6z M45.6,16.1l-2.5-2.6l0,2.6H45.6z"
				/>
			<path class="st5" d="M42.4,10.8c0.5,0.2,0.9,0.5,1.2,0.9c1.4,1.3,2.7,2.7,4.1,4c0.4,0.4,0.6,0.9,0.6,1.5c0,8.2,0,16.4,0,24.7
				c0,0.9-0.9,1.8-1.8,1.8c-3.5,0-7,0-10.5,0c-3.5,0-7.1,0-10.6,0c-1,0-1.8-0.8-1.8-1.8c0-2.7,0-5.5,0-8.2c0-7,0-13.9,0-20.9
				c0-1,0.5-1.7,1.5-2c0,0,0.1,0,0.1-0.1C30.9,10.8,36.7,10.8,42.4,10.8 M36,42.4c3.5,0,6.9,0,10.4,0c0.5,0,0.5,0,0.5-0.5
				c0-0.1,0-0.2,0-0.4c0-7.8,0-15.7,0-23.5c0-0.1,0-0.2,0-0.4c-0.1,0-0.2,0-0.3,0c0,0-0.1,0-0.1,0c-1.4,0-2.8,0-4.2,0c0,0,0,0,0,0
				c-0.6,0-0.9-0.2-0.9-0.9c0-1.4,0-2.8,0-4.2c0-0.1,0-0.2,0-0.4c-0.1,0-0.2,0-0.3,0c0,0-0.1,0-0.1,0c-0.3,0-0.6,0-0.8,0
				c-1.6,0-3.2,0-4.9,0c-3.3,0-6.5,0-9.8,0c-0.5,0-0.6,0.1-0.6,0.6c0,9.7,0,19.3,0,29c0,0.6,0,0.6,0.6,0.6
				C29.1,42.4,32.5,42.4,36,42.4 M43.1,16.4C43.1,16.4,43.1,16.4,43.1,16.4c0.1,0,0.2,0,0.2,0c0.3,0,0.7,0,1,0c0.6,0,1.1,0,1.7,0
				c0.1,0,0.1,0,0.2,0c0,0,0,0,0,0c0,0,0.1,0,0.1-0.1c0,0-0.1,0-0.1,0c-1.1-1.1-2.2-2.2-3.3-3.4c0,1.1,0,2.2,0,3.2
				C42.8,16.3,42.9,16.4,43.1,16.4 M42.5,10.3L42.5,10.3H25.2H25l-0.1,0.1l0,0c-1.1,0.4-1.7,1.2-1.7,2.4l0,20.9l0,1.7
				c0,2.2,0,4.3,0,6.5c0,1.3,1.1,2.3,2.3,2.3l10.6,0l10.5,0c0.6,0,1.2-0.3,1.6-0.7c0.4-0.4,0.7-1,0.7-1.6c0-8.2,0-16.4,0-24.7
				c0-0.7-0.3-1.4-0.8-1.9c-1.4-1.3-2.7-2.7-4.1-4l0,0C43.6,11,43.2,10.6,42.5,10.3L42.5,10.3L42.5,10.3z M25.5,12.7
				C25.5,12.7,25.5,12.7,25.5,12.7l9.8,0h2.4l2.4,0H41l0,1.1l0,3c0,0.9,0.5,1.4,1.4,1.4l3,0l1.1,0l0,1.8l0,21.5c0,0.1,0,0.1,0,0.2
				c0,0.1,0,0.1,0,0.2c0,0,0,0,0,0c0,0,0,0,0,0c0,0,0,0,0,0l-10.4,0l-10.4,0c0,0-0.1,0-0.1,0c0,0,0-0.1,0-0.1L25.5,12.7
				C25.5,12.8,25.5,12.7,25.5,12.7L25.5,12.7z M43.3,15.9c0-0.6,0-1.1,0-1.7l1.6,1.7l-0.7,0l-0.5,0L43.3,15.9L43.3,15.9z"/>
		</g>
		<path class="st4" d="M36,34.2c-2.4,0-4.8,0-7.2,0c-0.5,0-0.7-0.2-0.8-0.5c-0.1-0.5,0.2-0.8,0.8-0.8c1.6,0,3.2,0,4.8,0
			c3.2,0,6.5,0,9.7,0c0.1,0,0.2,0,0.2,0c0.4,0,0.6,0.3,0.7,0.7c0,0.4-0.3,0.7-0.7,0.7c-0.7,0-1.4,0-2.1,0
			C39.5,34.2,37.8,34.2,36,34.2C36,34.2,36,34.2,36,34.2z"/>
		<path class="st4" d="M36,38.3c-2.4,0-4.8,0-7.3,0c-0.5,0-0.7-0.2-0.8-0.6c-0.1-0.4,0.2-0.8,0.7-0.8c1.1,0,2.1,0,3.2,0
			c3.8,0,7.6,0,11.4,0c0.1,0,0.1,0,0.2,0c0.4,0,0.7,0.3,0.7,0.7c0,0.4-0.3,0.6-0.7,0.6c-0.9,0-1.7,0-2.6,0
			C39.2,38.3,37.6,38.3,36,38.3C36,38.3,36,38.3,36,38.3z"/>
		<path class="st4" d="M35.2,30.1c-1.5,0-2.9-1.2-3.3-2.7c-0.4-1.8,0.8-3.8,2.7-4.2c1.1-0.2,2,0.2,2.7,0.9c0.3,0.3,0.3,0.7,0,1
			c-0.3,0.3-0.7,0.3-1,0c-0.4-0.4-0.8-0.6-1.4-0.6c-0.7,0-1.2,0.4-1.5,1c-0.3,0.7-0.3,1.4,0,2.1c0.5,1.1,2,1.4,2.9,0.5
			c0.2-0.2,0.4-0.3,0.6-0.3c0.3,0,0.5,0.1,0.6,0.4c0.1,0.3,0.1,0.5-0.2,0.7C36.7,29.7,36,30.1,35.2,30.1z"/>
		<path class="st4" d="M41.3,27.6c0.3-0.8,0.6-1.5,0.9-2.3c0.2-0.5,0.4-1,0.6-1.4c0.2-0.4,0.5-0.6,0.9-0.5c0.4,0.2,0.5,0.5,0.3,1
			c-0.7,1.7-1.4,3.5-2.1,5.2c-0.1,0.3-0.3,0.5-0.7,0.5c-0.3,0-0.5-0.2-0.7-0.5c-0.7-1.7-1.4-3.5-2.1-5.2c-0.2-0.4,0-0.8,0.4-1
			c0.4-0.1,0.7,0,0.9,0.4c0.5,1.1,0.9,2.2,1.3,3.3C41.1,27.3,41.2,27.4,41.3,27.6z"/>
	</g>
</g>
</svg>
