<svg xmlns="http://www.w3.org/2000/svg" viewBox="0 0 135.61 99.36"><defs><style>.cls-1{fill:#ffbe2e;}.cls-2{fill:#16110d;}.cls-3{fill:#fec;}.cls-4{fill:none;stroke:#16110d;stroke-miterlimit:10;stroke-width:1.82px;}</style></defs><title>ButtonGooglePlay 0</title><g id="Layer_2" data-name="Layer 2"><g id="Work"><g id="Tumpero"><g id="_1" data-name="1"><g id="_Group_" data-name="&lt;Group&gt;"><g id="_Group_2" data-name="&lt;Group&gt;"><path id="_Path_" data-name="&lt;Path&gt;" class="cls-1" d="M3.52,46.85h0l.24-13.73H117l-.15,13.38c0,.34,0,0,0,.35h0c-.26,2-1.82,4-4.62,5.64L69.91,76.9c-5.64,3.26-14.17,3.61-19.05.79L6.78,52.22C4.32,50.8,3.26,48.85,3.52,46.85Z"/><path id="_Path_2" data-name="&lt;Path&gt;" class="cls-1" d="M3.52,46.86h0l.24-13.73H117l-.15,13.38c0,.34,0,0,0,.35h0c-.26,2-1.82,4-4.62,5.64L69.91,76.91c-5.64,3.26-14.17,3.61-19.05.79L6.78,52.23C4.32,50.81,3.26,48.86,3.52,46.86Z"/><path id="_Compound_Path_" data-name="&lt;Compound Path&gt;" class="cls-2" d="M59.12,80.32a17.61,17.61,0,0,1-8.64-2L6.41,52.86c-2.59-1.5-3.91-3.71-3.62-6.06l.13-13.33,114.8-1.08-.16,14.13a.8.8,0,0,1-.06.48c-.34,2.31-2.1,4.48-5,6.14L70.27,77.54A22.9,22.9,0,0,1,59.12,80.32ZM4.49,33.86,4.25,46.95c-.23,1.78.8,3.42,2.89,4.63L51.22,77.05c4.67,2.7,12.88,2.35,18.31-.79l42.24-24.41c2.51-1.45,4-3.26,4.26-5.1a1.65,1.65,0,0,1,0-.22v0l.14-12.63Z"/></g><g id="_Group_3" data-name="&lt;Group&gt;"><path id="_Path_3" data-name="&lt;Path&gt;" class="cls-1" d="M6.95,38.84,51,64.31c4.88,2.82,13.41,2.47,19.05-.79l42.24-24.41c5.64-3.26,6.25-8.19,1.37-11L69.6,2.63C64.72-.19,56.19.16,50.55,3.42L8.31,27.83C2.68,31.08,2.06,36,6.95,38.84Z"/><path id="_Path_4" data-name="&lt;Path&gt;" class="cls-3" d="M6.5,43.94,50.58,69.41c4.88,2.82,13.41,2.47,19.05-.79l42.24-24.41c5.64-3.26,6.25-8.19,1.37-11L69.16,7.73c-4.88-2.82-13.41-2.47-19.05.79L7.87,32.93C2.23,36.19,1.62,41.12,6.5,43.94Z"/><path id="_Compound_Path_2" data-name="&lt;Compound Path&gt;" class="cls-2" d="M59.29,66.94a17.61,17.61,0,0,1-8.64-2L6.58,39.48c-2.36-1.37-3.67-3.29-3.67-5.42,0-2.52,1.83-5,5-6.87L50.18,2.78C56-.59,64.9-.95,70,2L114,27.46c2.37,1.37,3.67,3.29,3.67,5.42,0,2.52-1.84,5-5,6.87L70.44,64.16A22.9,22.9,0,0,1,59.29,66.94Zm2-65.48a21.38,21.38,0,0,0-10.41,2.6L8.68,28.47C6,30,4.39,32.08,4.39,34.05c0,1.58,1,3.05,2.93,4.14L51.39,63.67c4.67,2.7,12.89,2.35,18.31-.79l42.24-24.41c2.73-1.58,4.3-3.61,4.3-5.59,0-1.58-1-3.05-2.93-4.14L69.23,3.27A16.1,16.1,0,0,0,61.33,1.45Z"/></g><polygon id="_Path_5" data-name="&lt;Path&gt;" class="cls-2" points="60.31 66.19 60.31 79.56 66.03 78.54 74.41 74.6 114.45 50.94 116.96 47.86 116.96 33.12 115.32 37.39 106.69 42.44 66.16 65.23 60.31 66.19"/><polygon id="_Path_6" data-name="&lt;Path&gt;" class="cls-2" points="55.53 65.85 55.53 79.29 52.02 78.23 52.02 64.81 55.53 65.85"/><polygon id="_Path_7" data-name="&lt;Path&gt;" class="cls-2" points="6.15 38.62 6.15 51.34 4.22 49.9 2.84 41.19 3.48 33.86 6.15 38.62 6.15 38.62"/></g><g id="_Group_4" data-name="&lt;Group&gt;"><path id="_Path_8" data-name="&lt;Path&gt;" class="cls-2" d="M77.6,97.18a1,1,0,0,1,0,1.81,3.46,3.46,0,0,1-3.13,0,1,1,0,0,1,0-1.81A3.46,3.46,0,0,1,77.6,97.18Z"/><path id="_Path_9" data-name="&lt;Path&gt;" class="cls-2" d="M85.79,92.45a1,1,0,0,1,0,1.81,3.46,3.46,0,0,1-3.13,0,1,1,0,0,1,0-1.81A3.47,3.47,0,0,1,85.79,92.45Z"/><path id="_Path_10" data-name="&lt;Path&gt;" class="cls-2" d="M94,87.71a1,1,0,0,1,0,1.81,3.47,3.47,0,0,1-3.13,0,1,1,0,0,1,0-1.81A3.46,3.46,0,0,1,94,87.71Z"/><path id="_Path_11" data-name="&lt;Path&gt;" class="cls-2" d="M102.18,83a1,1,0,0,1,0,1.81,3.46,3.46,0,0,1-3.13,0A1,1,0,0,1,99,83,3.46,3.46,0,0,1,102.18,83Z"/><path id="_Path_12" data-name="&lt;Path&gt;" class="cls-2" d="M110.37,78.25a1,1,0,0,1,0,1.81,3.46,3.46,0,0,1-3.13,0,1,1,0,0,1,0-1.81A3.46,3.46,0,0,1,110.37,78.25Z"/><path id="_Path_13" data-name="&lt;Path&gt;" class="cls-2" d="M118.57,73.52a1,1,0,0,1,0,1.81,3.47,3.47,0,0,1-3.13,0,1,1,0,0,1,0-1.81A3.46,3.46,0,0,1,118.57,73.52Z"/><path id="_Path_14" data-name="&lt;Path&gt;" class="cls-2" d="M126.76,68.79a1,1,0,0,1,0,1.81,3.46,3.46,0,0,1-3.13,0,1,1,0,0,1,0-1.81A3.46,3.46,0,0,1,126.76,68.79Z"/><path id="_Path_15" data-name="&lt;Path&gt;" class="cls-2" d="M135,64.06a1,1,0,0,1,0,1.81,3.46,3.46,0,0,1-3.13,0,1,1,0,0,1,0-1.81A3.46,3.46,0,0,1,135,64.06Z"/><path id="_Path_16" data-name="&lt;Path&gt;" class="cls-2" d="M61.21,97.18a1,1,0,0,1,0,1.81,3.46,3.46,0,0,1-3.13,0,1,1,0,0,1,0-1.81A3.47,3.47,0,0,1,61.21,97.18Z"/><path id="_Path_17" data-name="&lt;Path&gt;" class="cls-2" d="M69.4,92.45a1,1,0,0,1,0,1.81,3.47,3.47,0,0,1-3.13,0,1,1,0,0,1,0-1.81A3.47,3.47,0,0,1,69.4,92.45Z"/><path id="_Path_18" data-name="&lt;Path&gt;" class="cls-2" d="M77.6,87.71a1,1,0,0,1,0,1.81,3.47,3.47,0,0,1-3.13,0,1,1,0,0,1,0-1.81A3.46,3.46,0,0,1,77.6,87.71Z"/><path id="_Path_19" data-name="&lt;Path&gt;" class="cls-2" d="M85.79,83a1,1,0,0,1,0,1.81,3.46,3.46,0,0,1-3.13,0,1,1,0,0,1,0-1.81A3.46,3.46,0,0,1,85.79,83Z"/><path id="_Path_20" data-name="&lt;Path&gt;" class="cls-2" d="M94,78.25a1,1,0,0,1,0,1.81,3.46,3.46,0,0,1-3.13,0,1,1,0,0,1,0-1.81A3.46,3.46,0,0,1,94,78.25Z"/><path id="_Path_21" data-name="&lt;Path&gt;" class="cls-2" d="M102.18,73.52a1,1,0,0,1,0,1.81,3.47,3.47,0,0,1-3.13,0,1,1,0,0,1,0-1.81A3.46,3.46,0,0,1,102.18,73.52Z"/><path id="_Path_22" data-name="&lt;Path&gt;" class="cls-2" d="M110.37,68.79a1,1,0,0,1,0,1.81,3.46,3.46,0,0,1-3.13,0,1,1,0,0,1,0-1.81A3.46,3.46,0,0,1,110.37,68.79Z"/><path id="_Path_23" data-name="&lt;Path&gt;" class="cls-2" d="M118.57,64.06a1,1,0,0,1,0,1.81,3.46,3.46,0,0,1-3.13,0,1,1,0,0,1,0-1.81A3.47,3.47,0,0,1,118.57,64.06Z"/><path id="_Path_24" data-name="&lt;Path&gt;" class="cls-2" d="M126.76,59.33a1,1,0,0,1,0,1.81,3.46,3.46,0,0,1-3.13,0,1,1,0,0,1,0-1.81A3.46,3.46,0,0,1,126.76,59.33Z"/><path id="_Path_25" data-name="&lt;Path&gt;" class="cls-2" d="M135,54.6a1,1,0,0,1,0,1.81,3.46,3.46,0,0,1-3.13,0,1,1,0,0,1,0-1.81A3.46,3.46,0,0,1,135,54.6Z"/><path id="_Path_26" data-name="&lt;Path&gt;" class="cls-2" d="M52.95,92.4a1,1,0,0,1,0,1.81,3.46,3.46,0,0,1-3.13,0,1,1,0,0,1,0-1.81A3.46,3.46,0,0,1,52.95,92.4Z"/><path id="_Path_27" data-name="&lt;Path&gt;" class="cls-2" d="M61.14,87.67a1,1,0,0,1,0,1.81,3.46,3.46,0,0,1-3.13,0,1,1,0,0,1,0-1.81A3.46,3.46,0,0,1,61.14,87.67Z"/><path id="_Path_28" data-name="&lt;Path&gt;" class="cls-2" d="M69.33,82.93a1,1,0,0,1,0,1.81,3.47,3.47,0,0,1-3.13,0,1,1,0,0,1,0-1.81A3.46,3.46,0,0,1,69.33,82.93Z"/><path id="_Path_29" data-name="&lt;Path&gt;" class="cls-2" d="M77.53,78.2a1,1,0,0,1,0,1.81,3.47,3.47,0,0,1-3.13,0,1,1,0,0,1,0-1.81A3.46,3.46,0,0,1,77.53,78.2Z"/><path id="_Path_30" data-name="&lt;Path&gt;" class="cls-2" d="M85.72,73.47a1,1,0,0,1,0,1.81,3.46,3.46,0,0,1-3.13,0,1,1,0,0,1,0-1.81A3.46,3.46,0,0,1,85.72,73.47Z"/><path id="_Path_31" data-name="&lt;Path&gt;" class="cls-2" d="M93.92,68.74a1,1,0,0,1,0,1.81,3.46,3.46,0,0,1-3.13,0,1,1,0,0,1,0-1.81A3.46,3.46,0,0,1,93.92,68.74Z"/><path id="_Path_32" data-name="&lt;Path&gt;" class="cls-2" d="M102.11,64a1,1,0,0,1,0,1.81,3.46,3.46,0,0,1-3.13,0A1,1,0,0,1,99,64,3.46,3.46,0,0,1,102.11,64Z"/><path id="_Path_33" data-name="&lt;Path&gt;" class="cls-2" d="M110.3,59.28a1,1,0,0,1,0,1.81,3.46,3.46,0,0,1-3.13,0,1,1,0,0,1,0-1.81A3.46,3.46,0,0,1,110.3,59.28Z"/><path id="_Path_34" data-name="&lt;Path&gt;" class="cls-2" d="M118.5,54.55a1,1,0,0,1,0,1.81,3.46,3.46,0,0,1-3.13,0,1,1,0,0,1,0-1.81A3.46,3.46,0,0,1,118.5,54.55Z"/><path id="_Path_35" data-name="&lt;Path&gt;" class="cls-2" d="M126.69,49.82a1,1,0,0,1,0,1.81,3.46,3.46,0,0,1-3.13,0,1,1,0,0,1,0-1.81A3.47,3.47,0,0,1,126.69,49.82Z"/><path id="_Path_36" data-name="&lt;Path&gt;" class="cls-2" d="M44.75,87.67a1,1,0,0,1,0,1.81,3.46,3.46,0,0,1-3.13,0,1,1,0,0,1,0-1.81A3.46,3.46,0,0,1,44.75,87.67Z"/><path id="_Path_37" data-name="&lt;Path&gt;" class="cls-2" d="M52.95,82.93a1,1,0,0,1,0,1.81,3.47,3.47,0,0,1-3.13,0,1,1,0,0,1,0-1.81A3.46,3.46,0,0,1,52.95,82.93Z"/><path id="_Path_38" data-name="&lt;Path&gt;" class="cls-2" d="M36.56,82.93a1,1,0,0,1,0,1.81,3.47,3.47,0,0,1-3.13,0,1,1,0,0,1,0-1.81A3.46,3.46,0,0,1,36.56,82.93Z"/><path id="_Path_39" data-name="&lt;Path&gt;" class="cls-2" d="M44.75,78.2a1,1,0,0,1,0,1.81,3.47,3.47,0,0,1-3.13,0,1,1,0,0,1,0-1.81A3.46,3.46,0,0,1,44.75,78.2Z"/><path id="_Path_40" data-name="&lt;Path&gt;" class="cls-2" d="M28.36,78.2a1,1,0,0,1,0,1.81,3.46,3.46,0,0,1-3.13,0,1,1,0,0,1,0-1.81A3.46,3.46,0,0,1,28.36,78.2Z"/><path id="_Path_41" data-name="&lt;Path&gt;" class="cls-2" d="M36.56,73.47a1,1,0,0,1,0,1.81,3.46,3.46,0,0,1-3.13,0,1,1,0,0,1,0-1.81A3.47,3.47,0,0,1,36.56,73.47Z"/><path id="_Path_42" data-name="&lt;Path&gt;" class="cls-2" d="M20.17,73.47a1,1,0,0,1,0,1.81,3.46,3.46,0,0,1-3.13,0,1,1,0,0,1,0-1.81A3.46,3.46,0,0,1,20.17,73.47Z"/><path id="_Path_43" data-name="&lt;Path&gt;" class="cls-2" d="M28.36,68.74a1,1,0,0,1,0,1.81,3.47,3.47,0,0,1-3.13,0,1,1,0,0,1,0-1.81A3.46,3.46,0,0,1,28.36,68.74Z"/><path id="_Path_44" data-name="&lt;Path&gt;" class="cls-2" d="M12,68.74a1,1,0,0,1,0,1.81,3.47,3.47,0,0,1-3.13,0,1,1,0,0,1,0-1.81A3.46,3.46,0,0,1,12,68.74Z"/><path id="_Path_45" data-name="&lt;Path&gt;" class="cls-2" d="M20.17,64a1,1,0,0,1,0,1.81,3.46,3.46,0,0,1-3.13,0A1,1,0,0,1,17,64,3.46,3.46,0,0,1,20.17,64Z"/><path id="_Path_46" data-name="&lt;Path&gt;" class="cls-2" d="M3.78,64a1,1,0,0,1,0,1.81,3.46,3.46,0,0,1-3.13,0A1,1,0,0,1,.65,64,3.47,3.47,0,0,1,3.78,64Z"/><path id="_Path_47" data-name="&lt;Path&gt;" class="cls-2" d="M12,59.28a1,1,0,0,1,0,1.81,3.46,3.46,0,0,1-3.13,0,1,1,0,0,1,0-1.81A3.46,3.46,0,0,1,12,59.28Z"/><path id="_Path_48" data-name="&lt;Path&gt;" class="cls-2" d="M3.78,54.55a1,1,0,0,1,0,1.81,3.47,3.47,0,0,1-3.13,0,1,1,0,0,1,0-1.81A3.46,3.46,0,0,1,3.78,54.55Z"/></g></g><path class="cls-1" d="M61.84,15.06,63,14.68c.09,0,.2,0,.34-.07L61.2,40.28l-38.61.26a2,2,0,0,1,.71-1.24l.14-.14Z"/><path class="cls-1" d="M82.64,52.33l-.55.19a4.92,4.92,0,0,1-2.32.15L66.19,50.29l-.13,0,.53-6.45h.27l13.21-.1c.26,0,.33.05.4.2,1,2.16,1.91,4.32,2.87,6.48a1.45,1.45,0,0,1-.43,1.72l-.09.11Z"/><path class="cls-1" d="M68.79,17.6l10,22.56-11.93.08,1.85-22.63Z"/><path class="cls-1" d="M30.62,44l30.29-.2-.45,5.45L30.62,44.08Z"/><path class="cls-4" d="M59.82,12.49l1.12-.39c.09,0,.2,0,.34-.07l-2.1,25.68L20.57,38a2,2,0,0,1,.71-1.24l.14-.14Z"/><path class="cls-4" d="M80.63,49.76l-.55.19a4.92,4.92,0,0,1-2.32.15L64.18,47.72l-.13,0,.53-6.45h.27l13.21-.1c.26,0,.33.05.4.2,1,2.16,1.91,4.32,2.87,6.48a1.45,1.45,0,0,1-.43,1.72l-.09.11Z"/><path class="cls-4" d="M66.77,15l10,22.56-11.93.08L66.71,15Z"/><path class="cls-4" d="M28.61,41.47l30.29-.2-.45,5.45L28.6,41.51Z"/></g></g></g></svg>