<svg xmlns="http://www.w3.org/2000/svg" viewBox="0 0 113.69 440.52"><defs><style>.cls-1{isolation:isolate;}.cls-2{fill:#ffbe2e;}.cls-10,.cls-11,.cls-3,.cls-6{fill:none;}.cls-3,.cls-4,.cls-6{stroke:#000;}.cls-3,.cls-4{stroke-linejoin:round;stroke-width:0.89px;}.cls-5{fill:#fec;}.cls-10,.cls-11,.cls-6{stroke-miterlimit:10;}.cls-6{stroke-width:1.02px;}.cls-7{fill:#16110d;}.cls-8{fill:#febd2e;}.cls-9{fill:#15100c;}.cls-10,.cls-11{stroke:#16110d;}.cls-10{stroke-width:0.85px;}.cls-11{stroke-width:0.64px;}</style></defs><title>Button Mail</title><g id="Layer_2" data-name="Layer 2"><g id="Contact"><g class="cls-1"><polygon class="cls-2" points="83.2 304.55 65.22 302.27 86.49 350.68 104.47 352.95 83.2 304.55"/><polygon class="cls-3" points="83.2 304.55 65.22 302.27 86.49 350.68 104.47 352.95 83.2 304.55"/><polygon class="cls-4" points="83.2 304.55 65.22 302.27 76.62 328.04 94.6 330.31 83.2 304.55"/><polygon class="cls-2" points="78.03 297.33 60.05 295.05 49.33 360.72 67.31 363 78.03 297.33"/><polygon class="cls-3" points="78.03 297.33 60.05 295.05 49.33 360.72 67.31 363 78.03 297.33"/><polygon class="cls-4" points="78.03 297.33 60.05 295.05 53.94 333.88 71.92 336.16 78.03 297.33"/><polygon class="cls-2" points="104.47 352.95 86.49 350.68 34.8 422.27 52.78 424.55 104.47 352.95"/><polygon class="cls-5" points="106.03 356.54 88.05 354.26 36.36 425.86 54.34 428.13 106.03 356.54"/><polygon class="cls-3" points="104.47 352.95 86.49 350.68 34.8 422.27 52.78 424.55 104.47 352.95"/><polygon class="cls-2" points="67.31 363 49.33 360.72 10.85 363.19 28.83 365.47 67.31 363"/><polygon class="cls-5" points="68.08 364.77 50.1 362.5 11.62 364.97 29.6 367.25 68.08 364.77"/><polygon class="cls-3" points="67.31 363 49.33 360.72 10.85 363.19 28.83 365.47 67.31 363"/><path d="M113.24,354l-62,85.91-32.4-73.74,62-85.91ZM52.78,424.55,104.47,353,83.2,304.55l-11.26,69-40.43,2.6,21.27,48.41M28.83,365.47,67.31,363,78,297.33l-49.2,68.14"/><polygon class="cls-2" points="18.81 366.16 0.83 363.88 33.23 437.62 51.21 439.9 18.81 366.16"/><polygon class="cls-2" points="80.84 280.25 62.86 277.97 0.83 363.88 18.81 366.16 80.84 280.25"/><polygon class="cls-5" points="82.86 284.87 64.87 282.59 2.85 368.5 20.83 370.78 82.86 284.87"/><path class="cls-3" d="M113.24,354l-62,85.91-32.4-73.74,62-85.91ZM52.78,424.55,104.47,353,83.2,304.55l-11.26,69-40.43,2.6,21.27,48.41M28.83,365.47,67.31,363,78,297.33l-49.2,68.14"/><polygon class="cls-6" points="18.81 366.16 0.83 363.88 33.23 437.62 51.21 439.9 18.81 366.16"/><polygon class="cls-3" points="80.84 280.25 62.86 277.97 0.83 363.88 18.81 366.16 80.84 280.25"/></g><g id="_Group_" data-name="&lt;Group&gt;"><g id="_Group_2" data-name="&lt;Group&gt;"><g id="_Group_3" data-name="&lt;Group&gt;"><g id="_Group_4" data-name="&lt;Group&gt;"><path id="_Path_" data-name="&lt;Path&gt;" class="cls-7" d="M45.39,206.57l-10.23,5.84,10.09,26.35,9.86-5.63c1.48-.67,2.32-2.43,2.32-4.83V213.52Z"/><g id="_Group_5" data-name="&lt;Group&gt;"><path id="_Path_2" data-name="&lt;Path&gt;" class="cls-8" d="M41.7,238.08l-.81-.47c-3-1.73-5.44-6.38-5.44-10.39V212.66l11.68,6.75V234C47.13,238,44.7,239.81,41.7,238.08Z"/><path id="_Compound_Path_" data-name="&lt;Compound Path&gt;" class="cls-7" d="M43.86,239.09a4.73,4.73,0,0,1-2.34-.7l-.81-.47c-3.1-1.79-5.62-6.59-5.62-10.7V212.44l.36-.2,12,7V234c0,2.24-.75,4-2.06,4.71A3.11,3.11,0,0,1,43.86,239.09Zm-2-1.32a3.16,3.16,0,0,0,3.2.29c1.08-.62,1.7-2.11,1.7-4.09V219.61l-11-6.33v13.94c0,3.88,2.36,8.4,5.26,10.08Z"/></g></g><g id="_Group_6" data-name="&lt;Group&gt;"><polygon id="_Path_3" data-name="&lt;Path&gt;" class="cls-8" points="47.13 219.4 57.08 213.73 45.39 206.98 35.45 212.66 47.13 219.4"/><polygon id="_Path_4" data-name="&lt;Path&gt;" class="cls-5" points="46.77 221.13 46.77 219.21 55.13 214.63 45.06 208.82 35.81 214.1 35.81 214.89 46.77 221.13"/><path id="_Compound_Path_2" data-name="&lt;Compound Path&gt;" class="cls-7" d="M47.13,219.82l-12-7v-.43l10.3-5.87,12,7v.42Zm-11-7.16,11,6.33,9.22-5.26-11-6.33Z"/></g><g id="_Group_7" data-name="&lt;Group&gt;"><g id="_Group_8" data-name="&lt;Group&gt;"><g id="_Group_9" data-name="&lt;Group&gt;"><path id="_Path_5" data-name="&lt;Path&gt;" class="cls-8" d="M65.58,137.35l-22.46-13a1.75,1.75,0,0,0-1.57-.23h0l-4.68,2.8,6.3,9.55,1.39,5.86a8.68,8.68,0,0,0,3.7,5.26l4.8,2.77,5.22,7.34L63,154.91h0A2.16,2.16,0,0,0,64,153.54l3.82-11.33C68.32,140.7,67.18,138.27,65.58,137.35Z"/><path id="_Path_6" data-name="&lt;Path&gt;" class="cls-5" d="M66.14,139.4l-22.46-13a1.75,1.75,0,0,0-1.57-.23h0L37.44,129l6.3,9.55,1.39,5.86a8.68,8.68,0,0,0,3.7,5.26l4.8,2.77,2.88,3.64L61,154l.17-.74a2.16,2.16,0,0,0,1.05-1.36l5.07-7C67.79,143.41,67.74,140.32,66.14,139.4Z"/><path id="_Compound_Path_3" data-name="&lt;Compound Path&gt;" class="cls-7" d="M58.18,158.22l-5.37-7.55-4.73-2.73a9,9,0,0,1-3.87-5.49l-1.37-5.8-6.47-9.81,5.17-3.09,0,0a2.2,2.2,0,0,1,1.72.31l22.46,13c1.74,1,3,3.62,2.45,5.28l-3.82,11.34a2.53,2.53,0,0,1-1.13,1.51l-.08.05Zm-20.8-31.16,6.14,9.35,1.39,5.86a8.39,8.39,0,0,0,3.53,5l4.91,2.87,5,7.07,4.45-2.69a1.8,1.8,0,0,0,.87-1.14l3.82-11.34c.4-1.32-.69-3.61-2.13-4.44l-22.46-13a1.44,1.44,0,0,0-1.24-.21Z"/></g><path id="_Path_7" data-name="&lt;Path&gt;" class="cls-8" d="M55.5,157.49l-12.07-7a8.68,8.68,0,0,1-3.7-5.26L36,129.55c-.49-2.06.66-3.21,2.28-2.27l22.46,13c1.6.92,2.74,3.36,2.29,4.86l-3.82,11.33C58.73,158.05,57.22,158.48,55.5,157.49Z"/></g><path id="_Compound_Path_4" data-name="&lt;Compound Path&gt;" class="cls-7" d="M67.93,142.22l-.22-2.33-4.61,2.71a5.5,5.5,0,0,0-2.17-2.66L38.47,127a2,2,0,0,0-2.19-.07,2.58,2.58,0,0,0-.62,2.74l3.71,15.71a9,9,0,0,0,3.87,5.49l12.07,7a3.89,3.89,0,0,0,1.92.58,2.42,2.42,0,0,0,.9-.16,2.29,2.29,0,0,0,1.17-1.06l4.26-2.64ZM57.87,157.55a2.58,2.58,0,0,1-2.19-.37l-12.07-7a8.39,8.39,0,0,1-3.53-5l-3.71-15.71a2,2,0,0,1,.34-2,.85.85,0,0,1,.52-.16,1.82,1.82,0,0,1,.89.28l22.46,13c1.43.83,2.53,3.11,2.13,4.44l-3.82,11.34A1.77,1.77,0,0,1,57.87,157.55Z"/><g id="_Group_10" data-name="&lt;Group&gt;"><g id="_Group_11" data-name="&lt;Group&gt;"><path id="_Path_8" data-name="&lt;Path&gt;" class="cls-8" d="M50,187.27c-.7-1-1.66-1.34-2.17-.85a4.15,4.15,0,0,1-1.34.84c-.57.22-1.46-.34-1.95-1.23l-.39-.71c-.65-1.19-.65-2.44,0-2.89l.86-.6a5.37,5.37,0,0,0,2-4.6v-4.77l-3.18-1.84-2.31,1.51.91,6-.61.42c-1.27.89-1.61,2.94-1,5.23l-.59,1.29,3.35,5.42,3.85,1.61,1.74-1.2a5.59,5.59,0,0,0,1.21-.83C50.87,189.6,50.73,188.31,50,187.27Z"/><path id="_Compound_Path_5" data-name="&lt;Compound Path&gt;" class="cls-7" d="M47.4,192.55l-4.14-1.72-3.52-5.68.62-1.35c-.6-2.46-.15-4.56,1.19-5.49L42,178l-.92-6.05,2.69-1.76,3.55,2.05v5a5.71,5.71,0,0,1-2.11,4.9l-.87.6c-.42.29-.49,1.3.12,2.42l.39.71c.42.77,1.15,1.2,1.5,1.07a3.81,3.81,0,0,0,1.22-.76,1.16,1.16,0,0,1,.94-.3,2.71,2.71,0,0,1,1.77,1.21h0c.87,1.2,1,2.66.3,3.32a5.86,5.86,0,0,1-1.29.89Zm-3.65-2.3,3.57,1.49,1.58-1.08a5.38,5.38,0,0,0,1.17-.8c.38-.35.29-1.44-.39-2.37a2,2,0,0,0-1.26-.91.45.45,0,0,0-.38.11,4.5,4.5,0,0,1-1.45.91c-.74.29-1.81-.34-2.39-1.4l-.39-.71c-.75-1.38-.71-2.79.1-3.36l.87-.6a5,5,0,0,0,1.81-4.31v-4.56L43.77,171l-1.93,1.26.91,6-.79.55c-1.11.77-1.45,2.63-.87,4.85l0,.12-.57,1.23Z"/></g><g id="_Group_12" data-name="&lt;Group&gt;"><path id="_Path_9" data-name="&lt;Path&gt;" class="cls-8" d="M44.15,188.76c-.57.22-1.46-.34-1.95-1.23l-.39-.71c-.65-1.19-.65-2.44,0-2.89l.87-.6a5.37,5.37,0,0,0,2-4.6V174l-3.18-1.84v4.77a3,3,0,0,1-1.14,2.61l-.87.6c-1.75,1.22-1.74,4.62,0,7.85l.39.71a9.39,9.39,0,0,0,3.36,3.61,3.51,3.51,0,0,0,3,.48A5.65,5.65,0,0,0,48,191.63c.56-.52.41-1.81-.34-2.85h0c-.7-1-1.66-1.34-2.17-.85A4.15,4.15,0,0,1,44.15,188.76Z"/><path id="_Compound_Path_6" data-name="&lt;Compound Path&gt;" class="cls-7" d="M45.31,193.27a4.62,4.62,0,0,1-2.27-.69,9.8,9.8,0,0,1-3.5-3.75l-.39-.71c-1.86-3.41-1.82-7,.08-8.31l.87-.6a2.7,2.7,0,0,0,1-2.32V171.5l3.9,2.25v5a5.71,5.71,0,0,1-2.11,4.9l-.86.6c-.42.29-.49,1.3.12,2.42l.39.71c.42.77,1.15,1.21,1.5,1.07h0a3.79,3.79,0,0,0,1.22-.76,1.16,1.16,0,0,1,.94-.3A2.72,2.72,0,0,1,48,188.57c.87,1.2,1,2.66.3,3.32a6,6,0,0,1-1.93,1.2A2.76,2.76,0,0,1,45.31,193.27Zm-3.5-20.53v4.14a3.39,3.39,0,0,1-1.29,2.91l-.87.6c-1.58,1.1-1.52,4.34.13,7.38l.39.71A9.08,9.08,0,0,0,43.41,192a3.16,3.16,0,0,0,2.66.46,5.3,5.3,0,0,0,1.7-1.06c.38-.35.29-1.44-.39-2.37a2,2,0,0,0-1.26-.91.45.45,0,0,0-.38.11,4.5,4.5,0,0,1-1.45.91h0c-.74.29-1.82-.34-2.39-1.4L41.5,187c-.75-1.38-.71-2.79.1-3.36l.86-.6a5,5,0,0,0,1.81-4.31v-4.56Z"/></g></g><g id="_Group_13" data-name="&lt;Group&gt;"><path id="_Compound_Path_7" data-name="&lt;Compound Path&gt;" class="cls-7" d="M50.18,187.06a2.71,2.71,0,0,0-1.77-1.21,1.16,1.16,0,0,0-.94.3,3.8,3.8,0,0,1-1.22.76c-.35.13-1.08-.3-1.5-1.07l-.39-.71c-.61-1.12-.54-2.13-.12-2.42l.86-.6a5.71,5.71,0,0,0,2.11-4.9v-5l-3.55-2.05L41,171.95l.92,6.05-.43.3c-1.34.93-1.79,3-1.19,5.49l-.62,1.35,3.52,5.68,4.14,1.72,1.87-1.28a5.9,5.9,0,0,0,1.29-.89C51.18,189.72,51.05,188.26,50.18,187.06Zm-6.49-16,2.81,1.62v2.05l-1.95,1.21-2.74-3.27-.05-.35Z"/><g id="_Group_14" data-name="&lt;Group&gt;"><path id="_Path_10" data-name="&lt;Path&gt;" class="cls-8" d="M44.07,188.76c-.57.22-1.46-.34-1.95-1.23l-.39-.71c-.65-1.19-.65-2.44,0-2.89l.87-.6a5.37,5.37,0,0,0,2-4.6V174l-3.18-1.84v4.77a3,3,0,0,1-1.14,2.61l-.87.6c-1.75,1.22-1.74,4.62,0,7.85l.39.71a9.39,9.39,0,0,0,3.36,3.61,3.5,3.5,0,0,0,3,.48,5.65,5.65,0,0,0,1.81-1.13c.56-.52.41-1.81-.34-2.85h0c-.7-1-1.66-1.34-2.17-.85A4.15,4.15,0,0,1,44.07,188.76Z"/><path id="_Compound_Path_8" data-name="&lt;Compound Path&gt;" class="cls-7" d="M45.23,193.27a4.61,4.61,0,0,1-2.27-.69,9.79,9.79,0,0,1-3.5-3.75l-.39-.71c-1.86-3.41-1.82-7,.08-8.31l.87-.6a2.7,2.7,0,0,0,1-2.32V171.5l3.9,2.25v5a5.71,5.71,0,0,1-2.11,4.9l-.86.6c-.42.29-.49,1.3.12,2.42l.39.71c.42.77,1.15,1.21,1.5,1.07h0a3.79,3.79,0,0,0,1.22-.76,1.17,1.17,0,0,1,.94-.3,2.72,2.72,0,0,1,1.77,1.21c.87,1.2,1,2.66.3,3.32a6,6,0,0,1-1.93,1.2A2.76,2.76,0,0,1,45.23,193.27Zm-3.5-20.53v4.14a3.39,3.39,0,0,1-1.29,2.91l-.87.6c-1.58,1.1-1.52,4.34.14,7.38l.39.71A9.06,9.06,0,0,0,43.32,192a3.16,3.16,0,0,0,2.66.46,5.29,5.29,0,0,0,1.7-1.06c.38-.35.29-1.44-.39-2.37a2,2,0,0,0-1.26-.91.45.45,0,0,0-.38.11,4.5,4.5,0,0,1-1.45.91h0c-.74.29-1.82-.34-2.39-1.4l-.39-.71c-.75-1.38-.71-2.79.1-3.36l.86-.6a5,5,0,0,0,1.81-4.31v-4.56Z"/></g></g><g id="_Group_15" data-name="&lt;Group&gt;"><path id="_Path_11" data-name="&lt;Path&gt;" class="cls-7" d="M42.94,150l-8.32,4.75,8.17,20.94,7.88-4.5c1.2-.55,1.88-2,1.88-3.9V155.55Z"/><g id="_Group_16" data-name="&lt;Group&gt;"><path id="_Path_12" data-name="&lt;Path&gt;" class="cls-8" d="M40,175l-.64-.37c-2.38-1.37-4.31-5.06-4.31-8.23V154.91l9.25,5.34v11.54C44.32,175,42.39,176.42,40,175Z"/><path id="_Compound_Path_9" data-name="&lt;Compound Path&gt;" class="cls-7" d="M41.72,175.92a3.82,3.82,0,0,1-1.89-.56l-.64-.37c-2.47-1.43-4.49-5.26-4.49-8.54V154.29l10,5.76v11.74c0,1.8-.61,3.18-1.67,3.79A2.54,2.54,0,0,1,41.72,175.92Zm-6.3-20.39v10.91c0,3.05,1.85,6.6,4.13,7.92l.64.37a2.43,2.43,0,0,0,2.46.23c.83-.48,1.31-1.64,1.31-3.17V160.46Z"/></g></g><g id="_Group_17" data-name="&lt;Group&gt;"><rect id="_Path_13" data-name="&lt;Path&gt;" class="cls-7" x="33.63" width="0.96" height="135.68"/></g><g id="_Group_18" data-name="&lt;Group&gt;"><g id="_Group_19" data-name="&lt;Group&gt;"><path id="_Path_14" data-name="&lt;Path&gt;" class="cls-8" d="M44.4,130.11c-3-1.71-5.64-1.91-7.63-.89h0a10.89,10.89,0,0,0-1,.66l-2.21,1.48.65.57a10.5,10.5,0,0,0-.94,4.61c0,7.09,5,15.71,11.12,19.26s11.12.67,11.12-6.42S50.54,133.65,44.4,130.11Z"/><path id="_Path_15" data-name="&lt;Path&gt;" class="cls-5" d="M38.84,152.41l14.81-8.79c-1.84-5.22-5.58-10.22-9.89-12.71-3-1.71-5.64-1.91-7.63-.89h0a10.9,10.9,0,0,0-1,.66l-2.21,1.48.65.57a10.5,10.5,0,0,0-.94,4.61C32.63,142.37,35.17,148.19,38.84,152.41Z"/><path id="_Compound_Path_10" data-name="&lt;Compound Path&gt;" class="cls-7" d="M49.37,157.67a10.46,10.46,0,0,1-5.15-1.57c-6.23-3.6-11.3-12.38-11.3-19.57a11.07,11.07,0,0,1,.86-4.51l-.8-.7,2.6-1.74a10.9,10.9,0,0,1,1-.67l.16-.1h0c2.17-1,4.93-.69,7.82,1,6.23,3.6,11.3,12.38,11.3,19.57,0,3.56-1.22,6.23-3.44,7.51A6.07,6.07,0,0,1,49.37,157.67ZM34.15,131.39l.51.44-.12.25a10.14,10.14,0,0,0-.9,4.45c0,7,4.91,15.46,10.94,18.95,2.85,1.65,5.52,1.92,7.5.78s3.08-3.59,3.08-6.89c0-7-4.91-15.46-10.94-18.95-2.73-1.58-5.32-1.89-7.29-.88l-.14.07a8.65,8.65,0,0,0-.78.53Z"/></g><g id="_Group_20" data-name="&lt;Group&gt;"><g id="_Group_21" data-name="&lt;Group&gt;"><path id="_Path_16" data-name="&lt;Path&gt;" class="cls-8" d="M52.63,151.34c0,7.09-5,10-11.12,6.42S30.39,145.59,30.39,138.5s5-10,11.12-6.42S52.63,144.24,52.63,151.34Z"/><path id="_Compound_Path_11" data-name="&lt;Compound Path&gt;" class="cls-7" d="M46.47,159.64a10.46,10.46,0,0,1-5.15-1.57C35.1,154.47,30,145.69,30,138.5c0-3.56,1.22-6.23,3.44-7.51s5.13-1,8.22.78c6.23,3.6,11.3,12.38,11.3,19.57,0,3.56-1.22,6.23-3.44,7.51A6.07,6.07,0,0,1,46.47,159.64Zm-9.93-28.72a5.36,5.36,0,0,0-2.72.7c-2,1.15-3.08,3.59-3.08,6.89,0,7,4.91,15.46,10.94,18.95,2.85,1.65,5.52,1.92,7.5.78s3.08-3.59,3.08-6.89c0-7-4.91-15.46-10.94-18.95A9.75,9.75,0,0,0,36.54,130.91Z"/></g><g id="_Group_22" data-name="&lt;Group&gt;"><path id="_Compound_Path_12" data-name="&lt;Compound Path&gt;" class="cls-7" d="M43.84,152a5.1,5.1,0,0,1-2.51-.76,12,12,0,0,1-5.4-9.36,4,4,0,0,1,1.71-3.69,4,4,0,0,1,4.05.37,12,12,0,0,1,5.4,9.36,4,4,0,0,1-1.71,3.69A3,3,0,0,1,43.84,152Zm-4.67-13.5a2.34,2.34,0,0,0-1.18.3,3.34,3.34,0,0,0-1.35,3.07,11.16,11.16,0,0,0,5,8.74A3.33,3.33,0,0,0,45,151a3.34,3.34,0,0,0,1.35-3.07,11.17,11.17,0,0,0-5-8.74A4.4,4.4,0,0,0,39.18,138.53Z"/></g><g id="_Group_23" data-name="&lt;Group&gt;"><path id="_Path_17" data-name="&lt;Path&gt;" class="cls-5" d="M45.59,147.91c0,2.6-1.83,3.66-4.08,2.35a9,9,0,0,1-4.08-7.06c0-2.6,1.83-3.66,4.08-2.35A9,9,0,0,1,45.59,147.91Z"/></g></g></g><g id="_Group_24" data-name="&lt;Group&gt;"><path id="_Path_18" data-name="&lt;Path&gt;" class="cls-7" d="M50,158.69l-.55-.78,2.32-1.63c1.73-1.21,1.93-5.68,1.87-7.29V.26h1V149c0,.24.23,6.34-2.28,8.1Z"/></g><g id="_Group_25" data-name="&lt;Group&gt;"><g id="_Group_26" data-name="&lt;Group&gt;"><path id="_Path_19" data-name="&lt;Path&gt;" class="cls-8" d="M48.71,147.69l-22.46-13a1.75,1.75,0,0,0-1.57-.23h0L20,137.29l6.3,9.55,1.39,5.86a8.68,8.68,0,0,0,3.7,5.26l4.8,2.77,5.22,7.34,4.71-2.84h0a2.16,2.16,0,0,0,1.05-1.36L51,152.55C51.45,151,50.3,148.61,48.71,147.69Z"/><path id="_Path_20" data-name="&lt;Path&gt;" class="cls-5" d="M48.78,149.8l-22.46-13a1.75,1.75,0,0,0-1.57-.23h0l-4.68,2.8,6.3,9.55,1.39,5.86a8.68,8.68,0,0,0,3.7,5.26l4.8,2.77,4.11,2.24,4.71-2.84h0a2.19,2.19,0,0,0,1.05-1.37l4.44-6.24A4.59,4.59,0,0,0,48.78,149.8Z"/><path id="_Compound_Path_13" data-name="&lt;Compound Path&gt;" class="cls-7" d="M41.31,168.57,35.93,161l-4.73-2.73a9,9,0,0,1-3.87-5.49L26,147l-6.47-9.81,5.17-3.09,0,0a2.2,2.2,0,0,1,1.72.31l22.46,13c1.74,1,3,3.62,2.45,5.28L47.51,164a2.54,2.54,0,0,1-1.13,1.51l-.08.05Zm-20.8-31.16,6.14,9.35L28,152.62a8.39,8.39,0,0,0,3.53,5l4.91,2.87,5,7.07L46,164.92a1.8,1.8,0,0,0,.87-1.14l3.82-11.34c.4-1.32-.69-3.61-2.13-4.44L26.07,135a1.43,1.43,0,0,0-1.24-.21Z"/></g><g id="_Group_27" data-name="&lt;Group&gt;"><path id="_Path_21" data-name="&lt;Path&gt;" class="cls-8" d="M38.62,167.84l-12.07-7a8.68,8.68,0,0,1-3.7-5.26l-3.71-15.71c-.49-2.06.66-3.2,2.28-2.27l22.46,13c1.6.92,2.74,3.36,2.29,4.86l-3.82,11.33C41.86,168.4,40.34,168.83,38.62,167.84Z"/><path id="_Path_22" data-name="&lt;Path&gt;" class="cls-8" d="M25.11,157.74l2.18-2.2Z"/><path id="_Path_23" data-name="&lt;Path&gt;" class="cls-8" d="M38,165.19,40.2,163Z"/></g></g><g id="_Group_28" data-name="&lt;Group&gt;"><path id="_Path_24" data-name="&lt;Path&gt;" class="cls-8" d="M49.95,185.2l1-1.3-2.29-1.07,0,0-.4-.15a3.52,3.52,0,0,0-2.93.49,10.42,10.42,0,0,0-4.69,8.14v24.44l2.65,1.43,1.24-24.53,1.09-5,1.67-1.71a1.89,1.89,0,0,1,.44,1.32v24.23l2.65,1.18.7-11.68.52-14.38-1.54-.7A5.4,5.4,0,0,0,49.95,185.2Z"/><path id="_Path_25" data-name="&lt;Path&gt;" class="cls-5" d="M50.5,186.36l1-1.3L49.2,184l0,0-.4-.15a3.52,3.52,0,0,0-2.93.49,10.42,10.42,0,0,0-4.69,8.14v1.47L44,195.35,45,193.79l1.09-5L47.79,187a1.89,1.89,0,0,1,.44,1.32l.19,1.26,2.65,1.18.51,11.29.52-14.38-1.54-.7A5.39,5.39,0,0,0,50.5,186.36Z"/><path id="_Compound_Path_14" data-name="&lt;Compound Path&gt;" class="cls-7" d="M43.58,217.75l-3.34-1.91V191.29a10.82,10.82,0,0,1,4.87-8.45,3.85,3.85,0,0,1,3.23-.52l.46.18.05,0,2.65,1.24-1.18,1.54c0,.1,0,.21,0,.32l1.56.7-.53,14.62-.62,11.71-.42.36-3-1.35V187.2a2,2,0,0,0-.13-.75l-1.28,1.32-1.07,4.93ZM41,215.52l2,1.06,1.21-24,1.12-5.19,2-2.06.26.27A2.24,2.24,0,0,1,48,187.2v24l2,.88.67-11.17.51-14.13-1.53-.69v-.23a3.9,3.9,0,0,0,0-.49l0-.27.82-1.06-2-.92L48.1,183a3.16,3.16,0,0,0-2.63.46A10,10,0,0,0,41,191.29Z"/></g><path id="_Path_26" data-name="&lt;Path&gt;" class="cls-7" d="M51.45,183.68a3.63,3.63,0,0,0-3.69.34,10.82,10.82,0,0,0-4.87,8.45V216.7a.48.48,0,0,0,.72.42l2.33-1.34V191.41a4.84,4.84,0,0,1,1.52-3.58c.78-.71,1.53-.95,2-.67a1.34,1.34,0,0,1,.52,1.23v24.47l.38.17L53,211.48V187A3.64,3.64,0,0,0,51.45,183.68Z"/><g id="_Group_29" data-name="&lt;Group&gt;"><path id="_Path_27" data-name="&lt;Path&gt;" class="cls-7" d="M50.26,187.08a2.71,2.71,0,0,0-1.77-1.21,1.15,1.15,0,0,0-.94.3,3.82,3.82,0,0,1-1.22.76l-.13,0H46l-.1.18a13.07,13.07,0,0,0-.68,4v.51l2.18.91,1.87-1.29a5.85,5.85,0,0,0,1.29-.89C51.27,189.74,51.14,188.28,50.26,187.08Z"/><g id="_Group_30" data-name="&lt;Group&gt;"><path id="_Path_28" data-name="&lt;Path&gt;" class="cls-8" d="M46,187.74a16.19,16.19,0,0,0-.47,3.41v1.77a2.34,2.34,0,0,0,.62-.14A5.65,5.65,0,0,0,48,191.65c.56-.52.41-1.81-.34-2.85A2.22,2.22,0,0,0,46,187.74Z"/><path id="_Compound_Path_15" data-name="&lt;Compound Path&gt;" class="cls-7" d="M45.21,193.31v-2.16a16.37,16.37,0,0,1,.49-3.51l.08-.25h.27A2.56,2.56,0,0,1,48,188.59c.87,1.2,1,2.66.3,3.32a6,6,0,0,1-1.93,1.2,2.66,2.66,0,0,1-.72.16Zm1.1-5.17a17.29,17.29,0,0,0-.38,3v1.34l.13,0a5.3,5.3,0,0,0,1.7-1.06c.38-.35.29-1.44-.39-2.37A2.3,2.3,0,0,0,46.31,188.15Z"/></g></g><g id="_Group_31" data-name="&lt;Group&gt;"><path id="_Compound_Path_16" data-name="&lt;Compound Path&gt;" class="cls-7" d="M26.46,154.29a1.48,1.48,0,0,0-2.4,1.38,4.44,4.44,0,0,0,2,3.53,2,2,0,0,0,1,.3,1.32,1.32,0,0,0,.66-.17,1.65,1.65,0,0,0,.72-1.51A4.44,4.44,0,0,0,26.46,154.29Zm-1.31.49a.6.6,0,0,1,.3-.07,1.34,1.34,0,0,1,.65.21,2.92,2.92,0,0,1,.71.6l-1.62,1.63a3.33,3.33,0,0,1-.41-1.47A1,1,0,0,1,25.14,154.78Zm2.27,3.93a1,1,0,0,1-1-.13,3.11,3.11,0,0,1-.88-.81l1.65-1.67a3.48,3.48,0,0,1,.54,1.71A1,1,0,0,1,27.41,158.71Z"/><path id="_Compound_Path_17" data-name="&lt;Compound Path&gt;" class="cls-7" d="M39.36,161.74a1.48,1.48,0,0,0-2.4,1.38,4.44,4.44,0,0,0,2,3.53,2,2,0,0,0,1,.3,1.31,1.31,0,0,0,.66-.17,1.64,1.64,0,0,0,.72-1.51A4.44,4.44,0,0,0,39.36,161.74Zm-1.31.49a.6.6,0,0,1,.3-.07,1.35,1.35,0,0,1,.65.2,2.91,2.91,0,0,1,.71.6l-1.62,1.63a3.33,3.33,0,0,1-.41-1.47A1,1,0,0,1,38,162.23Zm2.27,3.93a1,1,0,0,1-1-.13,3.11,3.11,0,0,1-.88-.81l1.65-1.67a3.49,3.49,0,0,1,.54,1.71A1,1,0,0,1,40.31,166.16Z"/><path id="_Compound_Path_18" data-name="&lt;Compound Path&gt;" class="cls-7" d="M51,152.55l-.22-2.33-4.56,2.68a5.49,5.49,0,0,0-2.16-2.62l-22.46-13a2,2,0,0,0-2.19-.07,2.58,2.58,0,0,0-.62,2.74l3.71,15.71a9,9,0,0,0,3.87,5.49l12.07,7a3.89,3.89,0,0,0,1.92.58,2.43,2.43,0,0,0,.9-.16,2.31,2.31,0,0,0,1.21-1.13l4.15-2.58Zm-5.17,2.78-1,3-3.15-1.82,3.53-4A3.87,3.87,0,0,1,45.82,155.33Zm-21.06-8.63,3.94-4.46L31.76,144l-3.94,4.46Zm12.39.42,3.07,1.77-3.94,4.46-3.07-1.77Zm-17.32-9.31a1.27,1.27,0,0,1,1.4.12l2.08,1.2-3.13,3.61-.69-2.92A2,2,0,0,1,19.84,137.81ZM41,167.89a2.58,2.58,0,0,1-2.19-.37l-12.07-7a8.38,8.38,0,0,1-3.53-5l-2.43-10.29L44.59,159,42,166.67A1.77,1.77,0,0,1,41,167.89Z"/></g><g id="_Group_32" data-name="&lt;Group&gt;"><path id="_Path_29" data-name="&lt;Path&gt;" class="cls-2" d="M44.46,167.08l-.29-.66a7,7,0,0,0,2.6-1.72c.41-.83,2.23-6.22,2.25-6.28l.68.23c-.08.22-1.85,5.49-2.28,6.36S44.71,167,44.46,167.08Z"/></g><path id="_Path_30" data-name="&lt;Path&gt;" class="cls-8" d="M49.58,190.22l.51.53a2.08,2.08,0,0,0,.64-.51c.71-.66.58-2.12-.3-3.32a2.71,2.71,0,0,0-1.77-1.21,1.15,1.15,0,0,0-.94.3,3.79,3.79,0,0,1-1,.67l0,.78h0a4.51,4.51,0,0,0,1.45-.91h0a.46.46,0,0,1,.38-.11,2,2,0,0,1,1.26.91c.68.93.76,2,.39,2.37A1.9,1.9,0,0,1,49.58,190.22Z"/></g><g id="_Group_33" data-name="&lt;Group&gt;"><polygon id="_Path_31" data-name="&lt;Path&gt;" class="cls-8" points="47.31 222.87 47.31 222.1 56.89 216.7 56.89 217.47 47.31 222.87"/></g></g><path id="_Path_32" data-name="&lt;Path&gt;" class="cls-9" d="M43.66,233.48c0,1.51-1.06,2.13-2.37,1.37a5.24,5.24,0,0,1-2.37-4.11c0-1.51,1.06-2.13,2.37-1.37A5.24,5.24,0,0,1,43.66,233.48Z"/></g><line class="cls-10" x1="41.23" y1="231.86" x2="18.78" y2="366.01"/><line class="cls-10" x1="0.63" y1="363.24" x2="40.97" y2="231.61"/><line class="cls-11" x1="52.83" y1="228.83" x2="62.66" y2="277.75"/><line class="cls-11" x1="80.82" y1="280.53" x2="52.83" y2="228.58"/></g></g></g></svg>