<svg xmlns="http://www.w3.org/2000/svg" viewBox="0 0 156.93 179.08"><defs><style>.cls-1{fill:#16110d;}.cls-2{isolation:isolate;}.cls-3,.cls-7,.cls-8,.cls-9{stroke:#000;stroke-width:1.44px;}.cls-3,.cls-9{stroke-miterlimit:10;}.cls-4{fill:#ffbe2e;}.cls-5{fill:#fec;}.cls-6{fill:#121212;}.cls-7,.cls-9{fill:none;}.cls-7,.cls-8{stroke-linejoin:round;}</style></defs><title>Button Behance</title><g id="Layer_2" data-name="Layer 2"><g id="Contact"><g id="_Group_" data-name="&lt;Group&gt;"><path id="_Path_" data-name="&lt;Path&gt;" class="cls-1" d="M107.84,172.45a.4.4,0,0,1,0,.76,1.45,1.45,0,0,1-1.31,0,.4.4,0,0,1,0-.76A1.44,1.44,0,0,1,107.84,172.45Z"/><path id="_Path_2" data-name="&lt;Path&gt;" class="cls-1" d="M111.26,170.48a.4.4,0,0,1,0,.76,1.44,1.44,0,0,1-1.31,0,.4.4,0,0,1,0-.76A1.45,1.45,0,0,1,111.26,170.48Z"/><path id="_Path_3" data-name="&lt;Path&gt;" class="cls-1" d="M114.68,168.5a.4.4,0,0,1,0,.76,1.45,1.45,0,0,1-1.31,0,.4.4,0,0,1,0-.76A1.45,1.45,0,0,1,114.68,168.5Z"/><path id="_Path_4" data-name="&lt;Path&gt;" class="cls-1" d="M118.1,166.53a.4.4,0,0,1,0,.76,1.45,1.45,0,0,1-1.31,0,.4.4,0,0,1,0-.76A1.45,1.45,0,0,1,118.1,166.53Z"/><path id="_Path_5" data-name="&lt;Path&gt;" class="cls-1" d="M121.52,164.55a.4.4,0,0,1,0,.76,1.44,1.44,0,0,1-1.31,0,.4.4,0,0,1,0-.76A1.45,1.45,0,0,1,121.52,164.55Z"/><path id="_Path_6" data-name="&lt;Path&gt;" class="cls-1" d="M124.94,162.58a.4.4,0,0,1,0,.76,1.44,1.44,0,0,1-1.31,0,.4.4,0,0,1,0-.76A1.45,1.45,0,0,1,124.94,162.58Z"/><path id="_Path_7" data-name="&lt;Path&gt;" class="cls-1" d="M128.36,160.6a.4.4,0,0,1,0,.76,1.45,1.45,0,0,1-1.31,0,.4.4,0,0,1,0-.76A1.45,1.45,0,0,1,128.36,160.6Z"/><path id="_Path_8" data-name="&lt;Path&gt;" class="cls-1" d="M131.78,158.63a.4.4,0,0,1,0,.76,1.45,1.45,0,0,1-1.31,0,.4.4,0,0,1,0-.76A1.44,1.44,0,0,1,131.78,158.63Z"/><path id="_Path_9" data-name="&lt;Path&gt;" class="cls-1" d="M104.42,170.48a.4.4,0,0,1,0,.76,1.44,1.44,0,0,1-1.31,0,.4.4,0,0,1,0-.76A1.45,1.45,0,0,1,104.42,170.48Z"/><path id="_Path_10" data-name="&lt;Path&gt;" class="cls-1" d="M107.84,168.5a.4.4,0,0,1,0,.76,1.45,1.45,0,0,1-1.31,0,.4.4,0,0,1,0-.76A1.45,1.45,0,0,1,107.84,168.5Z"/><path id="_Path_11" data-name="&lt;Path&gt;" class="cls-1" d="M111.26,166.53a.4.4,0,0,1,0,.76,1.45,1.45,0,0,1-1.31,0,.4.4,0,0,1,0-.76A1.45,1.45,0,0,1,111.26,166.53Z"/><path id="_Path_12" data-name="&lt;Path&gt;" class="cls-1" d="M114.68,164.55a.4.4,0,0,1,0,.76,1.44,1.44,0,0,1-1.31,0,.4.4,0,0,1,0-.76A1.45,1.45,0,0,1,114.68,164.55Z"/><path id="_Path_13" data-name="&lt;Path&gt;" class="cls-1" d="M118.1,162.58a.4.4,0,0,1,0,.76,1.45,1.45,0,0,1-1.31,0,.4.4,0,0,1,0-.76A1.45,1.45,0,0,1,118.1,162.58Z"/><path id="_Path_14" data-name="&lt;Path&gt;" class="cls-1" d="M121.52,160.6a.4.4,0,0,1,0,.76,1.45,1.45,0,0,1-1.31,0,.4.4,0,0,1,0-.76A1.45,1.45,0,0,1,121.52,160.6Z"/><path id="_Path_15" data-name="&lt;Path&gt;" class="cls-1" d="M124.94,158.63a.4.4,0,0,1,0,.76,1.45,1.45,0,0,1-1.31,0,.4.4,0,0,1,0-.76A1.44,1.44,0,0,1,124.94,158.63Z"/><path id="_Path_16" data-name="&lt;Path&gt;" class="cls-1" d="M128.36,156.65a.4.4,0,0,1,0,.76,1.45,1.45,0,0,1-1.31,0,.4.4,0,0,1,0-.76A1.45,1.45,0,0,1,128.36,156.65Z"/><path id="_Path_17" data-name="&lt;Path&gt;" class="cls-1" d="M101,168.5a.4.4,0,0,1,0,.76,1.45,1.45,0,0,1-1.31,0,.4.4,0,0,1,0-.76A1.45,1.45,0,0,1,101,168.5Z"/><path id="_Path_18" data-name="&lt;Path&gt;" class="cls-1" d="M104.42,166.53a.4.4,0,0,1,0,.76,1.45,1.45,0,0,1-1.31,0,.4.4,0,0,1,0-.76A1.45,1.45,0,0,1,104.42,166.53Z"/><path id="_Path_19" data-name="&lt;Path&gt;" class="cls-1" d="M107.84,164.55a.4.4,0,0,1,0,.76,1.44,1.44,0,0,1-1.31,0,.4.4,0,0,1,0-.76A1.45,1.45,0,0,1,107.84,164.55Z"/><path id="_Path_20" data-name="&lt;Path&gt;" class="cls-1" d="M111.26,162.58a.4.4,0,0,1,0,.76,1.45,1.45,0,0,1-1.31,0,.4.4,0,0,1,0-.76A1.45,1.45,0,0,1,111.26,162.58Z"/><path id="_Path_21" data-name="&lt;Path&gt;" class="cls-1" d="M114.68,160.6a.4.4,0,0,1,0,.76,1.45,1.45,0,0,1-1.31,0,.4.4,0,0,1,0-.76A1.44,1.44,0,0,1,114.68,160.6Z"/><path id="_Path_22" data-name="&lt;Path&gt;" class="cls-1" d="M118.1,158.63a.4.4,0,0,1,0,.76,1.45,1.45,0,0,1-1.31,0,.4.4,0,0,1,0-.76A1.44,1.44,0,0,1,118.1,158.63Z"/><path id="_Path_23" data-name="&lt;Path&gt;" class="cls-1" d="M121.52,156.65a.4.4,0,0,1,0,.76,1.45,1.45,0,0,1-1.31,0,.4.4,0,0,1,0-.76A1.45,1.45,0,0,1,121.52,156.65Z"/><path id="_Path_24" data-name="&lt;Path&gt;" class="cls-1" d="M124.94,154.68a.4.4,0,0,1,0,.76,1.45,1.45,0,0,1-1.31,0,.4.4,0,0,1,0-.76A1.45,1.45,0,0,1,124.94,154.68Z"/><path id="_Path_25" data-name="&lt;Path&gt;" class="cls-1" d="M97.59,166.53a.4.4,0,0,1,0,.76,1.44,1.44,0,0,1-1.31,0,.4.4,0,0,1,0-.76A1.45,1.45,0,0,1,97.59,166.53Z"/><path id="_Path_26" data-name="&lt;Path&gt;" class="cls-1" d="M101,164.55a.4.4,0,0,1,0,.76,1.44,1.44,0,0,1-1.31,0,.4.4,0,0,1,0-.76A1.45,1.45,0,0,1,101,164.55Z"/><path id="_Path_27" data-name="&lt;Path&gt;" class="cls-1" d="M104.42,162.58a.4.4,0,0,1,0,.76,1.45,1.45,0,0,1-1.31,0,.4.4,0,0,1,0-.76A1.45,1.45,0,0,1,104.42,162.58Z"/><path id="_Path_28" data-name="&lt;Path&gt;" class="cls-1" d="M107.84,160.6a.4.4,0,0,1,0,.76,1.45,1.45,0,0,1-1.31,0,.4.4,0,0,1,0-.76A1.44,1.44,0,0,1,107.84,160.6Z"/><path id="_Path_29" data-name="&lt;Path&gt;" class="cls-1" d="M111.26,158.63a.4.4,0,0,1,0,.76,1.45,1.45,0,0,1-1.31,0,.4.4,0,0,1,0-.76A1.45,1.45,0,0,1,111.26,158.63Z"/><path id="_Path_30" data-name="&lt;Path&gt;" class="cls-1" d="M114.68,156.65a.4.4,0,0,1,0,.76,1.45,1.45,0,0,1-1.31,0,.4.4,0,0,1,0-.76A1.45,1.45,0,0,1,114.68,156.65Z"/><path id="_Path_31" data-name="&lt;Path&gt;" class="cls-1" d="M118.1,154.68a.4.4,0,0,1,0,.76,1.45,1.45,0,0,1-1.31,0,.4.4,0,0,1,0-.76A1.44,1.44,0,0,1,118.1,154.68Z"/><path id="_Path_32" data-name="&lt;Path&gt;" class="cls-1" d="M121.52,152.71a.4.4,0,0,1,0,.76,1.44,1.44,0,0,1-1.31,0,.4.4,0,0,1,0-.76A1.44,1.44,0,0,1,121.52,152.71Z"/><path id="_Path_33" data-name="&lt;Path&gt;" class="cls-1" d="M94.17,164.55a.4.4,0,0,1,0,.76,1.45,1.45,0,0,1-1.31,0,.4.4,0,0,1,0-.76A1.45,1.45,0,0,1,94.17,164.55Z"/><path id="_Path_34" data-name="&lt;Path&gt;" class="cls-1" d="M97.59,162.58a.4.4,0,0,1,0,.76,1.45,1.45,0,0,1-1.31,0,.4.4,0,0,1,0-.76A1.44,1.44,0,0,1,97.59,162.58Z"/><path id="_Path_35" data-name="&lt;Path&gt;" class="cls-1" d="M101,160.6a.4.4,0,0,1,0,.76,1.45,1.45,0,0,1-1.31,0,.4.4,0,0,1,0-.76A1.44,1.44,0,0,1,101,160.6Z"/><path id="_Path_36" data-name="&lt;Path&gt;" class="cls-1" d="M104.42,158.63a.4.4,0,0,1,0,.76,1.45,1.45,0,0,1-1.31,0,.4.4,0,0,1,0-.76A1.45,1.45,0,0,1,104.42,158.63Z"/><path id="_Path_37" data-name="&lt;Path&gt;" class="cls-1" d="M107.84,156.65a.4.4,0,0,1,0,.76,1.45,1.45,0,0,1-1.31,0,.4.4,0,0,1,0-.76A1.45,1.45,0,0,1,107.84,156.65Z"/><path id="_Path_38" data-name="&lt;Path&gt;" class="cls-1" d="M111.26,154.68a.4.4,0,0,1,0,.76,1.45,1.45,0,0,1-1.31,0,.4.4,0,0,1,0-.76A1.44,1.44,0,0,1,111.26,154.68Z"/><path id="_Path_39" data-name="&lt;Path&gt;" class="cls-1" d="M114.68,152.71a.4.4,0,0,1,0,.76,1.44,1.44,0,0,1-1.31,0,.4.4,0,0,1,0-.76A1.45,1.45,0,0,1,114.68,152.71Z"/><path id="_Path_40" data-name="&lt;Path&gt;" class="cls-1" d="M118.1,150.73a.4.4,0,0,1,0,.76,1.45,1.45,0,0,1-1.31,0,.4.4,0,0,1,0-.76A1.45,1.45,0,0,1,118.1,150.73Z"/><path id="_Path_41" data-name="&lt;Path&gt;" class="cls-1" d="M90.72,162.56a.4.4,0,0,1,0,.76,1.44,1.44,0,0,1-1.31,0,.4.4,0,0,1,0-.76A1.45,1.45,0,0,1,90.72,162.56Z"/><path id="_Path_42" data-name="&lt;Path&gt;" class="cls-1" d="M94.14,160.58a.4.4,0,0,1,0,.76,1.45,1.45,0,0,1-1.31,0,.4.4,0,0,1,0-.76A1.45,1.45,0,0,1,94.14,160.58Z"/><path id="_Path_43" data-name="&lt;Path&gt;" class="cls-1" d="M97.56,158.61a.4.4,0,0,1,0,.76,1.45,1.45,0,0,1-1.31,0,.4.4,0,0,1,0-.76A1.45,1.45,0,0,1,97.56,158.61Z"/><path id="_Path_44" data-name="&lt;Path&gt;" class="cls-1" d="M101,156.63a.4.4,0,0,1,0,.76,1.44,1.44,0,0,1-1.31,0,.4.4,0,0,1,0-.76A1.45,1.45,0,0,1,101,156.63Z"/><path id="_Path_45" data-name="&lt;Path&gt;" class="cls-1" d="M104.4,154.66a.4.4,0,0,1,0,.76,1.44,1.44,0,0,1-1.31,0,.4.4,0,0,1,0-.76A1.45,1.45,0,0,1,104.4,154.66Z"/><path id="_Path_46" data-name="&lt;Path&gt;" class="cls-1" d="M107.81,152.69a.4.4,0,0,1,0,.76,1.45,1.45,0,0,1-1.31,0,.4.4,0,0,1,0-.76A1.45,1.45,0,0,1,107.81,152.69Z"/><path id="_Path_47" data-name="&lt;Path&gt;" class="cls-1" d="M111.23,150.71a.4.4,0,0,1,0,.76,1.45,1.45,0,0,1-1.31,0,.4.4,0,0,1,0-.76A1.44,1.44,0,0,1,111.23,150.71Z"/><path id="_Path_48" data-name="&lt;Path&gt;" class="cls-1" d="M114.65,148.74a.4.4,0,0,1,0,.76,1.45,1.45,0,0,1-1.31,0,.4.4,0,0,1,0-.76A1.44,1.44,0,0,1,114.65,148.74Z"/><path id="_Path_49" data-name="&lt;Path&gt;" class="cls-1" d="M87.3,160.58a.4.4,0,0,1,0,.76,1.45,1.45,0,0,1-1.31,0,.4.4,0,0,1,0-.76A1.45,1.45,0,0,1,87.3,160.58Z"/><path id="_Path_50" data-name="&lt;Path&gt;" class="cls-1" d="M90.72,158.61a.4.4,0,0,1,0,.76,1.45,1.45,0,0,1-1.31,0,.4.4,0,0,1,0-.76A1.45,1.45,0,0,1,90.72,158.61Z"/><path id="_Path_51" data-name="&lt;Path&gt;" class="cls-1" d="M94.14,156.63a.4.4,0,0,1,0,.76,1.44,1.44,0,0,1-1.31,0,.4.4,0,0,1,0-.76A1.45,1.45,0,0,1,94.14,156.63Z"/><path id="_Path_52" data-name="&lt;Path&gt;" class="cls-1" d="M97.56,154.66a.4.4,0,0,1,0,.76,1.44,1.44,0,0,1-1.31,0,.4.4,0,0,1,0-.76A1.45,1.45,0,0,1,97.56,154.66Z"/><path id="_Path_53" data-name="&lt;Path&gt;" class="cls-1" d="M101,152.69a.4.4,0,0,1,0,.76,1.45,1.45,0,0,1-1.31,0,.4.4,0,0,1,0-.76A1.45,1.45,0,0,1,101,152.69Z"/><path id="_Path_54" data-name="&lt;Path&gt;" class="cls-1" d="M104.4,150.71a.4.4,0,0,1,0,.76,1.45,1.45,0,0,1-1.31,0,.4.4,0,0,1,0-.76A1.44,1.44,0,0,1,104.4,150.71Z"/><path id="_Path_55" data-name="&lt;Path&gt;" class="cls-1" d="M107.81,148.74a.4.4,0,0,1,0,.76,1.45,1.45,0,0,1-1.31,0,.4.4,0,0,1,0-.76A1.45,1.45,0,0,1,107.81,148.74Z"/><path id="_Path_56" data-name="&lt;Path&gt;" class="cls-1" d="M111.23,146.76a.4.4,0,0,1,0,.76,1.45,1.45,0,0,1-1.31,0,.4.4,0,0,1,0-.76A1.45,1.45,0,0,1,111.23,146.76Z"/><path id="_Path_57" data-name="&lt;Path&gt;" class="cls-1" d="M83.88,158.61a.4.4,0,0,1,0,.76,1.45,1.45,0,0,1-1.31,0,.4.4,0,0,1,0-.76A1.45,1.45,0,0,1,83.88,158.61Z"/><path id="_Path_58" data-name="&lt;Path&gt;" class="cls-1" d="M87.3,156.63a.4.4,0,0,1,0,.76,1.44,1.44,0,0,1-1.31,0,.4.4,0,0,1,0-.76A1.45,1.45,0,0,1,87.3,156.63Z"/><path id="_Path_59" data-name="&lt;Path&gt;" class="cls-1" d="M90.72,154.66a.4.4,0,0,1,0,.76,1.45,1.45,0,0,1-1.31,0,.4.4,0,0,1,0-.76A1.45,1.45,0,0,1,90.72,154.66Z"/><path id="_Path_60" data-name="&lt;Path&gt;" class="cls-1" d="M94.14,152.69a.4.4,0,0,1,0,.76,1.45,1.45,0,0,1-1.31,0,.4.4,0,0,1,0-.76A1.44,1.44,0,0,1,94.14,152.69Z"/><path id="_Path_61" data-name="&lt;Path&gt;" class="cls-1" d="M97.56,150.71a.4.4,0,0,1,0,.76,1.45,1.45,0,0,1-1.31,0,.4.4,0,0,1,0-.76A1.44,1.44,0,0,1,97.56,150.71Z"/><path id="_Path_62" data-name="&lt;Path&gt;" class="cls-1" d="M101,148.74a.4.4,0,0,1,0,.76,1.45,1.45,0,0,1-1.31,0,.4.4,0,0,1,0-.76A1.45,1.45,0,0,1,101,148.74Z"/><path id="_Path_63" data-name="&lt;Path&gt;" class="cls-1" d="M104.4,146.76a.4.4,0,0,1,0,.76,1.45,1.45,0,0,1-1.31,0,.4.4,0,0,1,0-.76A1.45,1.45,0,0,1,104.4,146.76Z"/><path id="_Path_64" data-name="&lt;Path&gt;" class="cls-1" d="M107.81,144.79a.4.4,0,0,1,0,.76,1.45,1.45,0,0,1-1.31,0,.4.4,0,0,1,0-.76A1.44,1.44,0,0,1,107.81,144.79Z"/><path id="_Path_65" data-name="&lt;Path&gt;" class="cls-1" d="M80.46,156.63a.4.4,0,0,1,0,.76,1.44,1.44,0,0,1-1.31,0,.4.4,0,0,1,0-.76A1.45,1.45,0,0,1,80.46,156.63Z"/><path id="_Path_66" data-name="&lt;Path&gt;" class="cls-1" d="M83.88,154.66a.4.4,0,0,1,0,.76,1.45,1.45,0,0,1-1.31,0,.4.4,0,0,1,0-.76A1.45,1.45,0,0,1,83.88,154.66Z"/><path id="_Path_67" data-name="&lt;Path&gt;" class="cls-1" d="M87.3,152.69a.4.4,0,0,1,0,.76,1.45,1.45,0,0,1-1.31,0,.4.4,0,0,1,0-.76A1.44,1.44,0,0,1,87.3,152.69Z"/><path id="_Path_68" data-name="&lt;Path&gt;" class="cls-1" d="M90.72,150.71a.4.4,0,0,1,0,.76,1.45,1.45,0,0,1-1.31,0,.4.4,0,0,1,0-.76A1.45,1.45,0,0,1,90.72,150.71Z"/><path id="_Path_69" data-name="&lt;Path&gt;" class="cls-1" d="M94.14,148.74a.4.4,0,0,1,0,.76,1.45,1.45,0,0,1-1.31,0,.4.4,0,0,1,0-.76A1.45,1.45,0,0,1,94.14,148.74Z"/><path id="_Path_70" data-name="&lt;Path&gt;" class="cls-1" d="M97.56,146.76a.4.4,0,0,1,0,.76,1.45,1.45,0,0,1-1.31,0,.4.4,0,0,1,0-.76A1.44,1.44,0,0,1,97.56,146.76Z"/><path id="_Path_71" data-name="&lt;Path&gt;" class="cls-1" d="M101,144.79a.4.4,0,0,1,0,.76,1.44,1.44,0,0,1-1.31,0,.4.4,0,0,1,0-.76A1.44,1.44,0,0,1,101,144.79Z"/><path id="_Path_72" data-name="&lt;Path&gt;" class="cls-1" d="M104.4,142.81a.4.4,0,0,1,0,.76,1.44,1.44,0,0,1-1.31,0,.4.4,0,0,1,0-.76A1.45,1.45,0,0,1,104.4,142.81Z"/><path id="_Path_73" data-name="&lt;Path&gt;" class="cls-1" d="M77,154.66a.4.4,0,0,1,0,.76,1.45,1.45,0,0,1-1.31,0,.4.4,0,0,1,0-.76A1.44,1.44,0,0,1,77,154.66Z"/><path id="_Path_74" data-name="&lt;Path&gt;" class="cls-1" d="M80.46,152.69a.4.4,0,0,1,0,.76,1.45,1.45,0,0,1-1.31,0,.4.4,0,0,1,0-.76A1.44,1.44,0,0,1,80.46,152.69Z"/><path id="_Path_75" data-name="&lt;Path&gt;" class="cls-1" d="M83.88,150.71a.4.4,0,0,1,0,.76,1.45,1.45,0,0,1-1.31,0,.4.4,0,0,1,0-.76A1.45,1.45,0,0,1,83.88,150.71Z"/><path id="_Path_76" data-name="&lt;Path&gt;" class="cls-1" d="M87.3,148.74a.4.4,0,0,1,0,.76,1.45,1.45,0,0,1-1.31,0,.4.4,0,0,1,0-.76A1.45,1.45,0,0,1,87.3,148.74Z"/><path id="_Path_77" data-name="&lt;Path&gt;" class="cls-1" d="M90.72,146.76a.4.4,0,0,1,0,.76,1.45,1.45,0,0,1-1.31,0,.4.4,0,0,1,0-.76A1.44,1.44,0,0,1,90.72,146.76Z"/><path id="_Path_78" data-name="&lt;Path&gt;" class="cls-1" d="M94.14,144.79a.4.4,0,0,1,0,.76,1.44,1.44,0,0,1-1.31,0,.4.4,0,0,1,0-.76A1.45,1.45,0,0,1,94.14,144.79Z"/><path id="_Path_79" data-name="&lt;Path&gt;" class="cls-1" d="M97.56,142.81a.4.4,0,0,1,0,.76,1.45,1.45,0,0,1-1.31,0,.4.4,0,0,1,0-.76A1.45,1.45,0,0,1,97.56,142.81Z"/><path id="_Path_80" data-name="&lt;Path&gt;" class="cls-1" d="M101,140.84a.4.4,0,0,1,0,.76,1.45,1.45,0,0,1-1.31,0,.4.4,0,0,1,0-.76A1.45,1.45,0,0,1,101,140.84Z"/><path id="_Path_81" data-name="&lt;Path&gt;" class="cls-1" d="M73.62,152.69a.4.4,0,0,1,0,.76,1.45,1.45,0,0,1-1.31,0,.4.4,0,0,1,0-.76A1.44,1.44,0,0,1,73.62,152.69Z"/><path id="_Path_82" data-name="&lt;Path&gt;" class="cls-1" d="M77,150.71a.4.4,0,0,1,0,.76,1.45,1.45,0,0,1-1.31,0,.4.4,0,0,1,0-.76A1.45,1.45,0,0,1,77,150.71Z"/><path id="_Path_83" data-name="&lt;Path&gt;" class="cls-1" d="M80.46,148.74a.4.4,0,0,1,0,.76,1.45,1.45,0,0,1-1.31,0,.4.4,0,0,1,0-.76A1.45,1.45,0,0,1,80.46,148.74Z"/><path id="_Path_84" data-name="&lt;Path&gt;" class="cls-1" d="M83.88,146.76a.4.4,0,0,1,0,.76,1.45,1.45,0,0,1-1.31,0,.4.4,0,0,1,0-.76A1.44,1.44,0,0,1,83.88,146.76Z"/><path id="_Path_85" data-name="&lt;Path&gt;" class="cls-1" d="M87.3,144.79a.4.4,0,0,1,0,.76,1.44,1.44,0,0,1-1.31,0,.4.4,0,0,1,0-.76A1.45,1.45,0,0,1,87.3,144.79Z"/><path id="_Path_86" data-name="&lt;Path&gt;" class="cls-1" d="M90.72,142.81a.4.4,0,0,1,0,.76,1.45,1.45,0,0,1-1.31,0,.4.4,0,0,1,0-.76A1.45,1.45,0,0,1,90.72,142.81Z"/><path id="_Path_87" data-name="&lt;Path&gt;" class="cls-1" d="M94.14,140.84a.4.4,0,0,1,0,.76,1.45,1.45,0,0,1-1.31,0,.4.4,0,0,1,0-.76A1.45,1.45,0,0,1,94.14,140.84Z"/><path id="_Path_88" data-name="&lt;Path&gt;" class="cls-1" d="M97.56,138.86a.4.4,0,0,1,0,.76,1.44,1.44,0,0,1-1.31,0,.4.4,0,0,1,0-.76A1.45,1.45,0,0,1,97.56,138.86Z"/><path id="_Path_89" data-name="&lt;Path&gt;" class="cls-1" d="M70.2,150.71a.4.4,0,0,1,0,.76,1.45,1.45,0,0,1-1.31,0,.4.4,0,0,1,0-.76A1.45,1.45,0,0,1,70.2,150.71Z"/><path id="_Path_90" data-name="&lt;Path&gt;" class="cls-1" d="M73.62,148.74a.4.4,0,0,1,0,.76,1.45,1.45,0,0,1-1.31,0,.4.4,0,0,1,0-.76A1.44,1.44,0,0,1,73.62,148.74Z"/><path id="_Path_91" data-name="&lt;Path&gt;" class="cls-1" d="M77,146.76a.4.4,0,0,1,0,.76,1.44,1.44,0,0,1-1.31,0,.4.4,0,0,1,0-.76A1.44,1.44,0,0,1,77,146.76Z"/><path id="_Path_92" data-name="&lt;Path&gt;" class="cls-1" d="M80.46,144.79a.4.4,0,0,1,0,.76,1.44,1.44,0,0,1-1.31,0,.4.4,0,0,1,0-.76A1.45,1.45,0,0,1,80.46,144.79Z"/><path id="_Path_93" data-name="&lt;Path&gt;" class="cls-1" d="M83.88,142.81a.4.4,0,0,1,0,.76,1.45,1.45,0,0,1-1.31,0,.4.4,0,0,1,0-.76A1.45,1.45,0,0,1,83.88,142.81Z"/><path id="_Path_94" data-name="&lt;Path&gt;" class="cls-1" d="M87.3,140.84a.4.4,0,0,1,0,.76,1.45,1.45,0,0,1-1.31,0,.4.4,0,0,1,0-.76A1.45,1.45,0,0,1,87.3,140.84Z"/><path id="_Path_95" data-name="&lt;Path&gt;" class="cls-1" d="M90.72,138.86a.4.4,0,0,1,0,.76,1.44,1.44,0,0,1-1.31,0,.4.4,0,0,1,0-.76A1.45,1.45,0,0,1,90.72,138.86Z"/><path id="_Path_96" data-name="&lt;Path&gt;" class="cls-1" d="M94.14,136.89a.4.4,0,0,1,0,.76,1.45,1.45,0,0,1-1.31,0,.4.4,0,0,1,0-.76A1.45,1.45,0,0,1,94.14,136.89Z"/><path id="_Path_97" data-name="&lt;Path&gt;" class="cls-1" d="M66.78,148.74a.4.4,0,0,1,0,.76,1.45,1.45,0,0,1-1.31,0,.4.4,0,0,1,0-.76A1.44,1.44,0,0,1,66.78,148.74Z"/><path id="_Path_98" data-name="&lt;Path&gt;" class="cls-1" d="M70.2,146.76a.4.4,0,0,1,0,.76,1.44,1.44,0,0,1-1.31,0,.4.4,0,0,1,0-.76A1.45,1.45,0,0,1,70.2,146.76Z"/><path id="_Path_99" data-name="&lt;Path&gt;" class="cls-1" d="M73.62,144.79a.4.4,0,0,1,0,.76,1.45,1.45,0,0,1-1.31,0,.4.4,0,0,1,0-.76A1.45,1.45,0,0,1,73.62,144.79Z"/><path id="_Path_100" data-name="&lt;Path&gt;" class="cls-1" d="M77,142.81a.4.4,0,0,1,0,.76,1.45,1.45,0,0,1-1.31,0,.4.4,0,0,1,0-.76A1.45,1.45,0,0,1,77,142.81Z"/><path id="_Path_101" data-name="&lt;Path&gt;" class="cls-1" d="M80.46,140.84a.4.4,0,0,1,0,.76,1.44,1.44,0,0,1-1.31,0,.4.4,0,0,1,0-.76A1.45,1.45,0,0,1,80.46,140.84Z"/><path id="_Path_102" data-name="&lt;Path&gt;" class="cls-1" d="M83.88,138.86a.4.4,0,0,1,0,.76,1.44,1.44,0,0,1-1.31,0,.4.4,0,0,1,0-.76A1.45,1.45,0,0,1,83.88,138.86Z"/><path id="_Path_103" data-name="&lt;Path&gt;" class="cls-1" d="M87.3,136.89a.4.4,0,0,1,0,.76,1.45,1.45,0,0,1-1.31,0,.4.4,0,0,1,0-.76A1.45,1.45,0,0,1,87.3,136.89Z"/><path id="_Path_104" data-name="&lt;Path&gt;" class="cls-1" d="M90.72,134.92a.4.4,0,0,1,0,.76,1.45,1.45,0,0,1-1.31,0,.4.4,0,0,1,0-.76A1.44,1.44,0,0,1,90.72,134.92Z"/><path id="_Path_105" data-name="&lt;Path&gt;" class="cls-1" d="M63.33,146.74a.4.4,0,0,1,0,.76,1.45,1.45,0,0,1-1.31,0,.4.4,0,0,1,0-.76A1.45,1.45,0,0,1,63.33,146.74Z"/><path id="_Path_106" data-name="&lt;Path&gt;" class="cls-1" d="M66.75,144.77a.4.4,0,0,1,0,.76,1.45,1.45,0,0,1-1.31,0,.4.4,0,0,1,0-.76A1.44,1.44,0,0,1,66.75,144.77Z"/><path id="_Path_107" data-name="&lt;Path&gt;" class="cls-1" d="M70.17,142.79a.4.4,0,0,1,0,.76,1.45,1.45,0,0,1-1.31,0,.4.4,0,0,1,0-.76A1.45,1.45,0,0,1,70.17,142.79Z"/><path id="_Path_108" data-name="&lt;Path&gt;" class="cls-1" d="M73.59,140.82a.4.4,0,0,1,0,.76,1.45,1.45,0,0,1-1.31,0,.4.4,0,0,1,0-.76A1.45,1.45,0,0,1,73.59,140.82Z"/><path id="_Path_109" data-name="&lt;Path&gt;" class="cls-1" d="M77,138.84a.4.4,0,0,1,0,.76,1.45,1.45,0,0,1-1.31,0,.4.4,0,0,1,0-.76A1.44,1.44,0,0,1,77,138.84Z"/><path id="_Path_110" data-name="&lt;Path&gt;" class="cls-1" d="M80.43,136.87a.4.4,0,0,1,0,.76,1.44,1.44,0,0,1-1.31,0,.4.4,0,0,1,0-.76A1.44,1.44,0,0,1,80.43,136.87Z"/><path id="_Path_111" data-name="&lt;Path&gt;" class="cls-1" d="M83.85,134.89a.4.4,0,0,1,0,.76,1.44,1.44,0,0,1-1.31,0,.4.4,0,0,1,0-.76A1.45,1.45,0,0,1,83.85,134.89Z"/><path id="_Path_112" data-name="&lt;Path&gt;" class="cls-1" d="M87.27,132.92a.4.4,0,0,1,0,.76,1.45,1.45,0,0,1-1.31,0,.4.4,0,0,1,0-.76A1.45,1.45,0,0,1,87.27,132.92Z"/><path id="_Path_113" data-name="&lt;Path&gt;" class="cls-1" d="M59.91,144.77a.4.4,0,0,1,0,.76,1.45,1.45,0,0,1-1.31,0,.4.4,0,0,1,0-.76A1.44,1.44,0,0,1,59.91,144.77Z"/><path id="_Path_114" data-name="&lt;Path&gt;" class="cls-1" d="M63.33,142.79a.4.4,0,0,1,0,.76,1.45,1.45,0,0,1-1.31,0,.4.4,0,0,1,0-.76A1.45,1.45,0,0,1,63.33,142.79Z"/><path id="_Path_115" data-name="&lt;Path&gt;" class="cls-1" d="M66.75,140.82a.4.4,0,0,1,0,.76,1.45,1.45,0,0,1-1.31,0,.4.4,0,0,1,0-.76A1.45,1.45,0,0,1,66.75,140.82Z"/><path id="_Path_116" data-name="&lt;Path&gt;" class="cls-1" d="M70.17,138.84a.4.4,0,0,1,0,.76,1.45,1.45,0,0,1-1.31,0,.4.4,0,0,1,0-.76A1.44,1.44,0,0,1,70.17,138.84Z"/><path id="_Path_117" data-name="&lt;Path&gt;" class="cls-1" d="M73.59,136.87a.4.4,0,0,1,0,.76,1.44,1.44,0,0,1-1.31,0,.4.4,0,0,1,0-.76A1.44,1.44,0,0,1,73.59,136.87Z"/><path id="_Path_118" data-name="&lt;Path&gt;" class="cls-1" d="M77,134.89a.4.4,0,0,1,0,.76,1.44,1.44,0,0,1-1.31,0,.4.4,0,0,1,0-.76A1.45,1.45,0,0,1,77,134.89Z"/><path id="_Path_119" data-name="&lt;Path&gt;" class="cls-1" d="M80.43,132.92a.4.4,0,0,1,0,.76,1.45,1.45,0,0,1-1.31,0,.4.4,0,0,1,0-.76A1.45,1.45,0,0,1,80.43,132.92Z"/><path id="_Path_120" data-name="&lt;Path&gt;" class="cls-1" d="M83.85,130.95a.4.4,0,0,1,0,.76,1.45,1.45,0,0,1-1.31,0,.4.4,0,0,1,0-.76A1.45,1.45,0,0,1,83.85,130.95Z"/><path id="_Path_121" data-name="&lt;Path&gt;" class="cls-1" d="M59.91,140.82a.4.4,0,0,1,0,.76,1.45,1.45,0,0,1-1.31,0,.4.4,0,0,1,0-.76A1.45,1.45,0,0,1,59.91,140.82Z"/><path id="_Path_122" data-name="&lt;Path&gt;" class="cls-1" d="M63.33,138.84a.4.4,0,0,1,0,.76,1.45,1.45,0,0,1-1.31,0,.4.4,0,0,1,0-.76A1.44,1.44,0,0,1,63.33,138.84Z"/><path id="_Path_123" data-name="&lt;Path&gt;" class="cls-1" d="M66.75,136.87a.4.4,0,0,1,0,.76,1.44,1.44,0,0,1-1.31,0,.4.4,0,0,1,0-.76A1.45,1.45,0,0,1,66.75,136.87Z"/><path id="_Path_124" data-name="&lt;Path&gt;" class="cls-1" d="M70.17,134.89a.4.4,0,0,1,0,.76,1.45,1.45,0,0,1-1.31,0,.4.4,0,0,1,0-.76A1.45,1.45,0,0,1,70.17,134.89Z"/><path id="_Path_125" data-name="&lt;Path&gt;" class="cls-1" d="M73.59,132.92a.4.4,0,0,1,0,.76,1.45,1.45,0,0,1-1.31,0,.4.4,0,0,1,0-.76A1.45,1.45,0,0,1,73.59,132.92Z"/><path id="_Path_126" data-name="&lt;Path&gt;" class="cls-1" d="M77,130.95a.4.4,0,0,1,0,.76,1.44,1.44,0,0,1-1.31,0,.4.4,0,0,1,0-.76A1.45,1.45,0,0,1,77,130.95Z"/><path id="_Path_127" data-name="&lt;Path&gt;" class="cls-1" d="M118.24,174.11a.4.4,0,0,1,0,.76,1.45,1.45,0,0,1-1.31,0,.4.4,0,0,1,0-.76A1.44,1.44,0,0,1,118.24,174.11Z"/><path id="_Path_128" data-name="&lt;Path&gt;" class="cls-1" d="M121.66,172.13a.4.4,0,0,1,0,.76,1.45,1.45,0,0,1-1.31,0,.4.4,0,0,1,0-.76A1.45,1.45,0,0,1,121.66,172.13Z"/><path id="_Path_129" data-name="&lt;Path&gt;" class="cls-1" d="M125.08,170.16a.4.4,0,0,1,0,.76,1.45,1.45,0,0,1-1.31,0,.4.4,0,0,1,0-.76A1.45,1.45,0,0,1,125.08,170.16Z"/><path id="_Path_130" data-name="&lt;Path&gt;" class="cls-1" d="M128.5,168.19a.4.4,0,0,1,0,.76,1.45,1.45,0,0,1-1.31,0,.4.4,0,0,1,0-.76A1.44,1.44,0,0,1,128.5,168.19Z"/><path id="_Path_131" data-name="&lt;Path&gt;" class="cls-1" d="M131.92,166.21a.4.4,0,0,1,0,.76,1.44,1.44,0,0,1-1.31,0,.4.4,0,0,1,0-.76A1.44,1.44,0,0,1,131.92,166.21Z"/><path id="_Path_132" data-name="&lt;Path&gt;" class="cls-1" d="M111.4,174.11a.4.4,0,0,1,0,.76,1.45,1.45,0,0,1-1.31,0,.4.4,0,0,1,0-.76A1.44,1.44,0,0,1,111.4,174.11Z"/><path id="_Path_133" data-name="&lt;Path&gt;" class="cls-1" d="M114.82,172.13a.4.4,0,0,1,0,.76,1.45,1.45,0,0,1-1.31,0,.4.4,0,0,1,0-.76A1.45,1.45,0,0,1,114.82,172.13Z"/><path id="_Path_134" data-name="&lt;Path&gt;" class="cls-1" d="M118.24,170.16a.4.4,0,0,1,0,.76,1.45,1.45,0,0,1-1.31,0,.4.4,0,0,1,0-.76A1.45,1.45,0,0,1,118.24,170.16Z"/><path id="_Path_135" data-name="&lt;Path&gt;" class="cls-1" d="M121.66,168.19a.4.4,0,0,1,0,.76,1.45,1.45,0,0,1-1.31,0,.4.4,0,0,1,0-.76A1.44,1.44,0,0,1,121.66,168.19Z"/><path id="_Path_136" data-name="&lt;Path&gt;" class="cls-1" d="M125.08,166.21a.4.4,0,0,1,0,.76,1.44,1.44,0,0,1-1.31,0,.4.4,0,0,1,0-.76A1.45,1.45,0,0,1,125.08,166.21Z"/><path id="_Path_137" data-name="&lt;Path&gt;" class="cls-1" d="M128.5,164.24a.4.4,0,0,1,0,.76,1.45,1.45,0,0,1-1.31,0,.4.4,0,0,1,0-.76A1.45,1.45,0,0,1,128.5,164.24Z"/><path id="_Path_138" data-name="&lt;Path&gt;" class="cls-1" d="M131.92,162.26a.4.4,0,0,1,0,.76,1.45,1.45,0,0,1-1.31,0,.4.4,0,0,1,0-.76A1.45,1.45,0,0,1,131.92,162.26Z"/><path id="_Path_139" data-name="&lt;Path&gt;" class="cls-1" d="M135.2,160.62a.4.4,0,0,1,0,.76,1.45,1.45,0,0,1-1.31,0,.4.4,0,0,1,0-.76A1.45,1.45,0,0,1,135.2,160.62Z"/><path id="_Path_140" data-name="&lt;Path&gt;" class="cls-1" d="M135.34,164.25a.4.4,0,0,1,0,.76,1.45,1.45,0,0,1-1.31,0,.4.4,0,0,1,0-.76A1.45,1.45,0,0,1,135.34,164.25Z"/><path id="_Path_141" data-name="&lt;Path&gt;" class="cls-1" d="M131.88,166.19a.4.4,0,0,1,0,.76,1.45,1.45,0,0,1-1.31,0,.4.4,0,0,1,0-.76A1.44,1.44,0,0,1,131.88,166.19Z"/><path id="_Path_142" data-name="&lt;Path&gt;" class="cls-1" d="M135.3,164.21a.4.4,0,0,1,0,.76,1.45,1.45,0,0,1-1.31,0,.4.4,0,0,1,0-.76A1.45,1.45,0,0,1,135.3,164.21Z"/><path id="_Path_143" data-name="&lt;Path&gt;" class="cls-1" d="M138.72,162.24a.4.4,0,0,1,0,.76,1.45,1.45,0,0,1-1.31,0,.4.4,0,0,1,0-.76A1.45,1.45,0,0,1,138.72,162.24Z"/><path id="_Path_144" data-name="&lt;Path&gt;" class="cls-1" d="M142.14,160.26a.4.4,0,0,1,0,.76,1.45,1.45,0,0,1-1.31,0,.4.4,0,0,1,0-.76A1.44,1.44,0,0,1,142.14,160.26Z"/><path id="_Path_145" data-name="&lt;Path&gt;" class="cls-1" d="M145.56,158.29a.4.4,0,0,1,0,.76,1.44,1.44,0,0,1-1.31,0,.4.4,0,0,1,0-.76A1.44,1.44,0,0,1,145.56,158.29Z"/><path id="_Path_146" data-name="&lt;Path&gt;" class="cls-1" d="M149,156.33a.4.4,0,0,1,0,.76,1.45,1.45,0,0,1-1.31,0,.4.4,0,0,1,0-.76A1.45,1.45,0,0,1,149,156.33Z"/><path id="_Path_147" data-name="&lt;Path&gt;" class="cls-1" d="M121.26,176.12a.4.4,0,0,1,0,.76,1.45,1.45,0,0,1-1.31,0,.4.4,0,0,1,0-.76A1.44,1.44,0,0,1,121.26,176.12Z"/><path id="_Path_148" data-name="&lt;Path&gt;" class="cls-1" d="M114.8,176.07a.4.4,0,0,1,0,.76,1.45,1.45,0,0,1-1.31,0,.4.4,0,0,1,0-.76A1.44,1.44,0,0,1,114.8,176.07Z"/><path id="_Path_149" data-name="&lt;Path&gt;" class="cls-1" d="M117.82,178.08a.4.4,0,0,1,0,.76,1.45,1.45,0,0,1-1.31,0,.4.4,0,0,1,0-.76A1.44,1.44,0,0,1,117.82,178.08Z"/><path id="_Path_150" data-name="&lt;Path&gt;" class="cls-1" d="M124.68,174.15a.4.4,0,0,1,0,.76,1.45,1.45,0,0,1-1.31,0,.4.4,0,0,1,0-.76A1.45,1.45,0,0,1,124.68,174.15Z"/><path id="_Path_151" data-name="&lt;Path&gt;" class="cls-1" d="M128.1,172.17a.4.4,0,0,1,0,.76,1.45,1.45,0,0,1-1.31,0,.4.4,0,0,1,0-.76A1.45,1.45,0,0,1,128.1,172.17Z"/><path id="_Path_152" data-name="&lt;Path&gt;" class="cls-1" d="M131.52,170.2a.4.4,0,0,1,0,.76,1.45,1.45,0,0,1-1.31,0,.4.4,0,0,1,0-.76A1.44,1.44,0,0,1,131.52,170.2Z"/><path id="_Path_153" data-name="&lt;Path&gt;" class="cls-1" d="M134.94,168.22a.4.4,0,0,1,0,.76,1.44,1.44,0,0,1-1.31,0,.4.4,0,0,1,0-.76A1.44,1.44,0,0,1,134.94,168.22Z"/><path id="_Path_154" data-name="&lt;Path&gt;" class="cls-1" d="M138.36,166.26a.4.4,0,0,1,0,.76,1.45,1.45,0,0,1-1.31,0,.4.4,0,0,1,0-.76A1.45,1.45,0,0,1,138.36,166.26Z"/><path id="_Path_155" data-name="&lt;Path&gt;" class="cls-1" d="M134.9,168.2a.4.4,0,0,1,0,.76,1.45,1.45,0,0,1-1.31,0,.4.4,0,0,1,0-.76A1.44,1.44,0,0,1,134.9,168.2Z"/><path id="_Path_156" data-name="&lt;Path&gt;" class="cls-1" d="M138.32,166.23a.4.4,0,0,1,0,.76,1.45,1.45,0,0,1-1.31,0,.4.4,0,0,1,0-.76A1.45,1.45,0,0,1,138.32,166.23Z"/><path id="_Path_157" data-name="&lt;Path&gt;" class="cls-1" d="M141.74,164.25a.4.4,0,0,1,0,.76,1.45,1.45,0,0,1-1.31,0,.4.4,0,0,1,0-.76A1.45,1.45,0,0,1,141.74,164.25Z"/><path id="_Path_158" data-name="&lt;Path&gt;" class="cls-1" d="M145.16,162.28a.4.4,0,0,1,0,.76,1.45,1.45,0,0,1-1.31,0,.4.4,0,0,1,0-.76A1.44,1.44,0,0,1,145.16,162.28Z"/><path id="_Path_159" data-name="&lt;Path&gt;" class="cls-1" d="M148.58,160.3a.4.4,0,0,1,0,.76,1.44,1.44,0,0,1-1.31,0,.4.4,0,0,1,0-.76A1.44,1.44,0,0,1,148.58,160.3Z"/><path id="_Path_160" data-name="&lt;Path&gt;" class="cls-1" d="M152,158.34a.4.4,0,0,1,0,.76,1.45,1.45,0,0,1-1.31,0,.4.4,0,0,1,0-.76A1.45,1.45,0,0,1,152,158.34Z"/><path id="_Path_161" data-name="&lt;Path&gt;" class="cls-1" d="M124.3,178.17a.4.4,0,0,1,0,.76,1.45,1.45,0,0,1-1.31,0,.4.4,0,0,1,0-.76A1.44,1.44,0,0,1,124.3,178.17Z"/><path id="_Path_162" data-name="&lt;Path&gt;" class="cls-1" d="M127.72,176.19a.4.4,0,0,1,0,.76,1.45,1.45,0,0,1-1.31,0,.4.4,0,0,1,0-.76A1.45,1.45,0,0,1,127.72,176.19Z"/><path id="_Path_163" data-name="&lt;Path&gt;" class="cls-1" d="M131.14,174.22a.4.4,0,0,1,0,.76,1.45,1.45,0,0,1-1.31,0,.4.4,0,0,1,0-.76A1.45,1.45,0,0,1,131.14,174.22Z"/><path id="_Path_164" data-name="&lt;Path&gt;" class="cls-1" d="M134.56,172.25a.4.4,0,0,1,0,.76,1.45,1.45,0,0,1-1.31,0,.4.4,0,0,1,0-.76A1.44,1.44,0,0,1,134.56,172.25Z"/><path id="_Path_165" data-name="&lt;Path&gt;" class="cls-1" d="M138,170.27a.4.4,0,0,1,0,.76,1.44,1.44,0,0,1-1.31,0,.4.4,0,0,1,0-.76A1.44,1.44,0,0,1,138,170.27Z"/><path id="_Path_166" data-name="&lt;Path&gt;" class="cls-1" d="M141.4,168.31a.4.4,0,0,1,0,.76,1.45,1.45,0,0,1-1.31,0,.4.4,0,0,1,0-.76A1.45,1.45,0,0,1,141.4,168.31Z"/><path id="_Path_167" data-name="&lt;Path&gt;" class="cls-1" d="M137.94,170.25a.4.4,0,0,1,0,.76,1.45,1.45,0,0,1-1.31,0,.4.4,0,0,1,0-.76A1.44,1.44,0,0,1,137.94,170.25Z"/><path id="_Path_168" data-name="&lt;Path&gt;" class="cls-1" d="M141.36,168.27a.4.4,0,0,1,0,.76,1.45,1.45,0,0,1-1.31,0,.4.4,0,0,1,0-.76A1.45,1.45,0,0,1,141.36,168.27Z"/><path id="_Path_169" data-name="&lt;Path&gt;" class="cls-1" d="M144.78,166.3a.4.4,0,0,1,0,.76,1.45,1.45,0,0,1-1.31,0,.4.4,0,0,1,0-.76A1.45,1.45,0,0,1,144.78,166.3Z"/><path id="_Path_170" data-name="&lt;Path&gt;" class="cls-1" d="M148.2,164.32a.4.4,0,0,1,0,.76,1.45,1.45,0,0,1-1.31,0,.4.4,0,0,1,0-.76A1.44,1.44,0,0,1,148.2,164.32Z"/><path id="_Path_171" data-name="&lt;Path&gt;" class="cls-1" d="M151.62,162.35a.4.4,0,0,1,0,.76,1.44,1.44,0,0,1-1.31,0,.4.4,0,0,1,0-.76A1.44,1.44,0,0,1,151.62,162.35Z"/><path id="_Path_172" data-name="&lt;Path&gt;" class="cls-1" d="M155,160.39a.4.4,0,0,1,0,.76,1.45,1.45,0,0,1-1.31,0,.4.4,0,0,1,0-.76A1.45,1.45,0,0,1,155,160.39Z"/></g><g id="_Group_2" data-name="&lt;Group&gt;"><path id="_Path_173" data-name="&lt;Path&gt;" class="cls-1" d="M56.35,143.11a.4.4,0,0,1,0,.76,1.45,1.45,0,0,1-1.31,0,.4.4,0,0,1,0-.76A1.44,1.44,0,0,1,56.35,143.11Z"/><path id="_Path_174" data-name="&lt;Path&gt;" class="cls-1" d="M59.77,141.13a.4.4,0,0,1,0,.76,1.44,1.44,0,0,1-1.31,0,.4.4,0,0,1,0-.76A1.45,1.45,0,0,1,59.77,141.13Z"/><path id="_Path_175" data-name="&lt;Path&gt;" class="cls-1" d="M63.19,139.16a.4.4,0,0,1,0,.76,1.45,1.45,0,0,1-1.31,0,.4.4,0,0,1,0-.76A1.45,1.45,0,0,1,63.19,139.16Z"/><path id="_Path_176" data-name="&lt;Path&gt;" class="cls-1" d="M66.61,137.19a.4.4,0,0,1,0,.76,1.45,1.45,0,0,1-1.31,0,.4.4,0,0,1,0-.76A1.45,1.45,0,0,1,66.61,137.19Z"/><path id="_Path_177" data-name="&lt;Path&gt;" class="cls-1" d="M70,135.21a.4.4,0,0,1,0,.76,1.44,1.44,0,0,1-1.31,0,.4.4,0,0,1,0-.76A1.45,1.45,0,0,1,70,135.21Z"/><path id="_Path_178" data-name="&lt;Path&gt;" class="cls-1" d="M73.45,133.24a.4.4,0,0,1,0,.76,1.44,1.44,0,0,1-1.31,0,.4.4,0,0,1,0-.76A1.45,1.45,0,0,1,73.45,133.24Z"/><path id="_Path_179" data-name="&lt;Path&gt;" class="cls-1" d="M76.87,131.26a.4.4,0,0,1,0,.76,1.45,1.45,0,0,1-1.31,0,.4.4,0,0,1,0-.76A1.45,1.45,0,0,1,76.87,131.26Z"/><path id="_Path_180" data-name="&lt;Path&gt;" class="cls-1" d="M80.29,129.29a.4.4,0,0,1,0,.76A1.45,1.45,0,0,1,79,130a.4.4,0,0,1,0-.76A1.44,1.44,0,0,1,80.29,129.29Z"/><path id="_Path_181" data-name="&lt;Path&gt;" class="cls-1" d="M52.93,141.13a.4.4,0,0,1,0,.76,1.44,1.44,0,0,1-1.31,0,.4.4,0,0,1,0-.76A1.45,1.45,0,0,1,52.93,141.13Z"/><path id="_Path_182" data-name="&lt;Path&gt;" class="cls-1" d="M56.35,139.16a.4.4,0,0,1,0,.76,1.45,1.45,0,0,1-1.31,0,.4.4,0,0,1,0-.76A1.45,1.45,0,0,1,56.35,139.16Z"/><path id="_Path_183" data-name="&lt;Path&gt;" class="cls-1" d="M59.77,137.19a.4.4,0,0,1,0,.76,1.45,1.45,0,0,1-1.31,0,.4.4,0,0,1,0-.76A1.45,1.45,0,0,1,59.77,137.19Z"/><path id="_Path_184" data-name="&lt;Path&gt;" class="cls-1" d="M63.19,135.21a.4.4,0,0,1,0,.76,1.44,1.44,0,0,1-1.31,0,.4.4,0,0,1,0-.76A1.45,1.45,0,0,1,63.19,135.21Z"/><path id="_Path_185" data-name="&lt;Path&gt;" class="cls-1" d="M66.61,133.24a.4.4,0,0,1,0,.76,1.45,1.45,0,0,1-1.31,0,.4.4,0,0,1,0-.76A1.45,1.45,0,0,1,66.61,133.24Z"/><path id="_Path_186" data-name="&lt;Path&gt;" class="cls-1" d="M70,131.26a.4.4,0,0,1,0,.76,1.45,1.45,0,0,1-1.31,0,.4.4,0,0,1,0-.76A1.45,1.45,0,0,1,70,131.26Z"/><path id="_Path_187" data-name="&lt;Path&gt;" class="cls-1" d="M73.45,129.29a.4.4,0,0,1,0,.76,1.45,1.45,0,0,1-1.31,0,.4.4,0,0,1,0-.76A1.44,1.44,0,0,1,73.45,129.29Z"/><path id="_Path_188" data-name="&lt;Path&gt;" class="cls-1" d="M76.87,127.31a.4.4,0,0,1,0,.76,1.45,1.45,0,0,1-1.31,0,.4.4,0,0,1,0-.76A1.45,1.45,0,0,1,76.87,127.31Z"/><path id="_Path_189" data-name="&lt;Path&gt;" class="cls-1" d="M49.52,139.16a.4.4,0,0,1,0,.76,1.45,1.45,0,0,1-1.31,0,.4.4,0,0,1,0-.76A1.45,1.45,0,0,1,49.52,139.16Z"/><path id="_Path_190" data-name="&lt;Path&gt;" class="cls-1" d="M52.93,137.19a.4.4,0,0,1,0,.76,1.45,1.45,0,0,1-1.31,0,.4.4,0,0,1,0-.76A1.45,1.45,0,0,1,52.93,137.19Z"/><path id="_Path_191" data-name="&lt;Path&gt;" class="cls-1" d="M56.35,135.21a.4.4,0,0,1,0,.76A1.44,1.44,0,0,1,55,136a.4.4,0,0,1,0-.76A1.45,1.45,0,0,1,56.35,135.21Z"/><path id="_Path_192" data-name="&lt;Path&gt;" class="cls-1" d="M59.77,133.24a.4.4,0,0,1,0,.76,1.45,1.45,0,0,1-1.31,0,.4.4,0,0,1,0-.76A1.45,1.45,0,0,1,59.77,133.24Z"/><path id="_Path_193" data-name="&lt;Path&gt;" class="cls-1" d="M63.19,131.26a.4.4,0,0,1,0,.76,1.45,1.45,0,0,1-1.31,0,.4.4,0,0,1,0-.76A1.44,1.44,0,0,1,63.19,131.26Z"/><path id="_Path_194" data-name="&lt;Path&gt;" class="cls-1" d="M66.61,129.29a.4.4,0,0,1,0,.76,1.45,1.45,0,0,1-1.31,0,.4.4,0,0,1,0-.76A1.44,1.44,0,0,1,66.61,129.29Z"/><path id="_Path_195" data-name="&lt;Path&gt;" class="cls-1" d="M70,127.31a.4.4,0,0,1,0,.76,1.45,1.45,0,0,1-1.31,0,.4.4,0,0,1,0-.76A1.45,1.45,0,0,1,70,127.31Z"/><path id="_Path_196" data-name="&lt;Path&gt;" class="cls-1" d="M73.45,125.34a.4.4,0,0,1,0,.76,1.45,1.45,0,0,1-1.31,0,.4.4,0,0,1,0-.76A1.45,1.45,0,0,1,73.45,125.34Z"/><path id="_Path_197" data-name="&lt;Path&gt;" class="cls-1" d="M46.1,137.19a.4.4,0,0,1,0,.76,1.44,1.44,0,0,1-1.31,0,.4.4,0,0,1,0-.76A1.45,1.45,0,0,1,46.1,137.19Z"/><path id="_Path_198" data-name="&lt;Path&gt;" class="cls-1" d="M49.52,135.21a.4.4,0,0,1,0,.76,1.44,1.44,0,0,1-1.31,0,.4.4,0,0,1,0-.76A1.45,1.45,0,0,1,49.52,135.21Z"/><path id="_Path_199" data-name="&lt;Path&gt;" class="cls-1" d="M52.93,133.24a.4.4,0,0,1,0,.76,1.45,1.45,0,0,1-1.31,0,.4.4,0,0,1,0-.76A1.45,1.45,0,0,1,52.93,133.24Z"/><path id="_Path_200" data-name="&lt;Path&gt;" class="cls-1" d="M56.35,131.26a.4.4,0,0,1,0,.76A1.45,1.45,0,0,1,55,132a.4.4,0,0,1,0-.76A1.44,1.44,0,0,1,56.35,131.26Z"/><path id="_Path_201" data-name="&lt;Path&gt;" class="cls-1" d="M59.77,129.29a.4.4,0,0,1,0,.76,1.45,1.45,0,0,1-1.31,0,.4.4,0,0,1,0-.76A1.45,1.45,0,0,1,59.77,129.29Z"/><path id="_Path_202" data-name="&lt;Path&gt;" class="cls-1" d="M63.19,127.31a.4.4,0,0,1,0,.76,1.45,1.45,0,0,1-1.31,0,.4.4,0,0,1,0-.76A1.45,1.45,0,0,1,63.19,127.31Z"/><path id="_Path_203" data-name="&lt;Path&gt;" class="cls-1" d="M66.61,125.34a.4.4,0,0,1,0,.76,1.45,1.45,0,0,1-1.31,0,.4.4,0,0,1,0-.76A1.44,1.44,0,0,1,66.61,125.34Z"/><path id="_Path_204" data-name="&lt;Path&gt;" class="cls-1" d="M70,123.36a.4.4,0,0,1,0,.76,1.44,1.44,0,0,1-1.31,0,.4.4,0,0,1,0-.76A1.44,1.44,0,0,1,70,123.36Z"/><path id="_Path_205" data-name="&lt;Path&gt;" class="cls-1" d="M42.68,135.21a.4.4,0,0,1,0,.76,1.45,1.45,0,0,1-1.31,0,.4.4,0,0,1,0-.76A1.45,1.45,0,0,1,42.68,135.21Z"/><path id="_Path_206" data-name="&lt;Path&gt;" class="cls-1" d="M46.1,133.24a.4.4,0,0,1,0,.76,1.45,1.45,0,0,1-1.31,0,.4.4,0,0,1,0-.76A1.44,1.44,0,0,1,46.1,133.24Z"/><path id="_Path_207" data-name="&lt;Path&gt;" class="cls-1" d="M49.52,131.26a.4.4,0,0,1,0,.76,1.45,1.45,0,0,1-1.31,0,.4.4,0,0,1,0-.76A1.44,1.44,0,0,1,49.52,131.26Z"/><path id="_Path_208" data-name="&lt;Path&gt;" class="cls-1" d="M52.93,129.29a.4.4,0,0,1,0,.76,1.45,1.45,0,0,1-1.31,0,.4.4,0,0,1,0-.76A1.45,1.45,0,0,1,52.93,129.29Z"/><path id="_Path_209" data-name="&lt;Path&gt;" class="cls-1" d="M56.35,127.31a.4.4,0,0,1,0,.76,1.45,1.45,0,0,1-1.31,0,.4.4,0,0,1,0-.76A1.45,1.45,0,0,1,56.35,127.31Z"/><path id="_Path_210" data-name="&lt;Path&gt;" class="cls-1" d="M59.77,125.34a.4.4,0,0,1,0,.76,1.45,1.45,0,0,1-1.31,0,.4.4,0,0,1,0-.76A1.44,1.44,0,0,1,59.77,125.34Z"/><path id="_Path_211" data-name="&lt;Path&gt;" class="cls-1" d="M63.19,123.36a.4.4,0,0,1,0,.76,1.44,1.44,0,0,1-1.31,0,.4.4,0,0,1,0-.76A1.45,1.45,0,0,1,63.19,123.36Z"/><path id="_Path_212" data-name="&lt;Path&gt;" class="cls-1" d="M66.61,121.39a.4.4,0,0,1,0,.76,1.45,1.45,0,0,1-1.31,0,.4.4,0,0,1,0-.76A1.45,1.45,0,0,1,66.61,121.39Z"/><path id="_Path_213" data-name="&lt;Path&gt;" class="cls-1" d="M39.23,133.22a.4.4,0,0,1,0,.76,1.44,1.44,0,0,1-1.31,0,.4.4,0,0,1,0-.76A1.45,1.45,0,0,1,39.23,133.22Z"/><path id="_Path_214" data-name="&lt;Path&gt;" class="cls-1" d="M42.65,131.24a.4.4,0,0,1,0,.76,1.45,1.45,0,0,1-1.31,0,.4.4,0,0,1,0-.76A1.45,1.45,0,0,1,42.65,131.24Z"/><path id="_Path_215" data-name="&lt;Path&gt;" class="cls-1" d="M46.07,129.27a.4.4,0,0,1,0,.76,1.45,1.45,0,0,1-1.31,0,.4.4,0,0,1,0-.76A1.45,1.45,0,0,1,46.07,129.27Z"/><path id="_Path_216" data-name="&lt;Path&gt;" class="cls-1" d="M49.49,127.29a.4.4,0,0,1,0,.76,1.44,1.44,0,0,1-1.31,0,.4.4,0,0,1,0-.76A1.45,1.45,0,0,1,49.49,127.29Z"/><path id="_Path_217" data-name="&lt;Path&gt;" class="cls-1" d="M52.91,125.32a.4.4,0,0,1,0,.76,1.44,1.44,0,0,1-1.31,0,.4.4,0,0,1,0-.76A1.45,1.45,0,0,1,52.91,125.32Z"/><path id="_Path_218" data-name="&lt;Path&gt;" class="cls-1" d="M56.33,123.34a.4.4,0,0,1,0,.76,1.45,1.45,0,0,1-1.31,0,.4.4,0,0,1,0-.76A1.45,1.45,0,0,1,56.33,123.34Z"/><path id="_Path_219" data-name="&lt;Path&gt;" class="cls-1" d="M59.74,121.37a.4.4,0,0,1,0,.76,1.45,1.45,0,0,1-1.31,0,.4.4,0,0,1,0-.76A1.44,1.44,0,0,1,59.74,121.37Z"/><path id="_Path_220" data-name="&lt;Path&gt;" class="cls-1" d="M63.16,119.39a.4.4,0,0,1,0,.76,1.45,1.45,0,0,1-1.31,0,.4.4,0,0,1,0-.76A1.44,1.44,0,0,1,63.16,119.39Z"/><path id="_Path_221" data-name="&lt;Path&gt;" class="cls-1" d="M35.81,131.24a.4.4,0,0,1,0,.76,1.45,1.45,0,0,1-1.31,0,.4.4,0,0,1,0-.76A1.45,1.45,0,0,1,35.81,131.24Z"/><path id="_Path_222" data-name="&lt;Path&gt;" class="cls-1" d="M39.23,129.27a.4.4,0,0,1,0,.76,1.45,1.45,0,0,1-1.31,0,.4.4,0,0,1,0-.76A1.45,1.45,0,0,1,39.23,129.27Z"/><path id="_Path_223" data-name="&lt;Path&gt;" class="cls-1" d="M42.65,127.29a.4.4,0,0,1,0,.76,1.44,1.44,0,0,1-1.31,0,.4.4,0,0,1,0-.76A1.45,1.45,0,0,1,42.65,127.29Z"/><path id="_Path_224" data-name="&lt;Path&gt;" class="cls-1" d="M46.07,125.32a.4.4,0,0,1,0,.76,1.44,1.44,0,0,1-1.31,0,.4.4,0,0,1,0-.76A1.45,1.45,0,0,1,46.07,125.32Z"/><path id="_Path_225" data-name="&lt;Path&gt;" class="cls-1" d="M49.49,123.34a.4.4,0,0,1,0,.76,1.45,1.45,0,0,1-1.31,0,.4.4,0,0,1,0-.76A1.45,1.45,0,0,1,49.49,123.34Z"/><path id="_Path_226" data-name="&lt;Path&gt;" class="cls-1" d="M52.91,121.37a.4.4,0,0,1,0,.76,1.45,1.45,0,0,1-1.31,0,.4.4,0,0,1,0-.76A1.44,1.44,0,0,1,52.91,121.37Z"/><path id="_Path_227" data-name="&lt;Path&gt;" class="cls-1" d="M56.33,119.39a.4.4,0,0,1,0,.76,1.45,1.45,0,0,1-1.31,0,.4.4,0,0,1,0-.76A1.45,1.45,0,0,1,56.33,119.39Z"/><path id="_Path_228" data-name="&lt;Path&gt;" class="cls-1" d="M59.75,117.42a.4.4,0,0,1,0,.76,1.45,1.45,0,0,1-1.31,0,.4.4,0,0,1,0-.76A1.45,1.45,0,0,1,59.75,117.42Z"/><path id="_Path_229" data-name="&lt;Path&gt;" class="cls-1" d="M32.39,129.27a.4.4,0,0,1,0,.76,1.45,1.45,0,0,1-1.31,0,.4.4,0,0,1,0-.76A1.45,1.45,0,0,1,32.39,129.27Z"/><path id="_Path_230" data-name="&lt;Path&gt;" class="cls-1" d="M35.81,127.29a.4.4,0,0,1,0,.76,1.44,1.44,0,0,1-1.31,0,.4.4,0,0,1,0-.76A1.45,1.45,0,0,1,35.81,127.29Z"/><path id="_Path_231" data-name="&lt;Path&gt;" class="cls-1" d="M39.23,125.32a.4.4,0,0,1,0,.76,1.45,1.45,0,0,1-1.31,0,.4.4,0,0,1,0-.76A1.45,1.45,0,0,1,39.23,125.32Z"/><path id="_Path_232" data-name="&lt;Path&gt;" class="cls-1" d="M42.65,123.34a.4.4,0,0,1,0,.76,1.45,1.45,0,0,1-1.31,0,.4.4,0,0,1,0-.76A1.44,1.44,0,0,1,42.65,123.34Z"/><path id="_Path_233" data-name="&lt;Path&gt;" class="cls-1" d="M46.07,121.37a.4.4,0,0,1,0,.76,1.45,1.45,0,0,1-1.31,0,.4.4,0,0,1,0-.76A1.44,1.44,0,0,1,46.07,121.37Z"/><path id="_Path_234" data-name="&lt;Path&gt;" class="cls-1" d="M49.49,119.39a.4.4,0,0,1,0,.76,1.45,1.45,0,0,1-1.31,0,.4.4,0,0,1,0-.76A1.45,1.45,0,0,1,49.49,119.39Z"/><path id="_Path_235" data-name="&lt;Path&gt;" class="cls-1" d="M52.91,117.42a.4.4,0,0,1,0,.76,1.45,1.45,0,0,1-1.31,0,.4.4,0,0,1,0-.76A1.45,1.45,0,0,1,52.91,117.42Z"/><path id="_Path_236" data-name="&lt;Path&gt;" class="cls-1" d="M56.33,115.45a.4.4,0,0,1,0,.76,1.45,1.45,0,0,1-1.31,0,.4.4,0,0,1,0-.76A1.44,1.44,0,0,1,56.33,115.45Z"/><path id="_Path_237" data-name="&lt;Path&gt;" class="cls-1" d="M29,127.29a.4.4,0,0,1,0,.76,1.44,1.44,0,0,1-1.31,0,.4.4,0,0,1,0-.76A1.45,1.45,0,0,1,29,127.29Z"/><path id="_Path_238" data-name="&lt;Path&gt;" class="cls-1" d="M32.39,125.32a.4.4,0,0,1,0,.76,1.45,1.45,0,0,1-1.31,0,.4.4,0,0,1,0-.76A1.45,1.45,0,0,1,32.39,125.32Z"/><path id="_Path_239" data-name="&lt;Path&gt;" class="cls-1" d="M35.81,123.34a.4.4,0,0,1,0,.76,1.45,1.45,0,0,1-1.31,0,.4.4,0,0,1,0-.76A1.44,1.44,0,0,1,35.81,123.34Z"/><path id="_Path_240" data-name="&lt;Path&gt;" class="cls-1" d="M39.23,121.37a.4.4,0,0,1,0,.76,1.45,1.45,0,0,1-1.31,0,.4.4,0,0,1,0-.76A1.45,1.45,0,0,1,39.23,121.37Z"/><path id="_Path_241" data-name="&lt;Path&gt;" class="cls-1" d="M42.65,119.39a.4.4,0,0,1,0,.76,1.45,1.45,0,0,1-1.31,0,.4.4,0,0,1,0-.76A1.45,1.45,0,0,1,42.65,119.39Z"/><path id="_Path_242" data-name="&lt;Path&gt;" class="cls-1" d="M46.07,117.42a.4.4,0,0,1,0,.76,1.45,1.45,0,0,1-1.31,0,.4.4,0,0,1,0-.76A1.44,1.44,0,0,1,46.07,117.42Z"/><path id="_Path_243" data-name="&lt;Path&gt;" class="cls-1" d="M49.49,115.45a.4.4,0,0,1,0,.76,1.44,1.44,0,0,1-1.31,0,.4.4,0,0,1,0-.76A1.44,1.44,0,0,1,49.49,115.45Z"/><path id="_Path_244" data-name="&lt;Path&gt;" class="cls-1" d="M52.91,113.47a.4.4,0,0,1,0,.76,1.44,1.44,0,0,1-1.31,0,.4.4,0,0,1,0-.76A1.45,1.45,0,0,1,52.91,113.47Z"/><path id="_Path_245" data-name="&lt;Path&gt;" class="cls-1" d="M25.55,125.32a.4.4,0,0,1,0,.76,1.45,1.45,0,0,1-1.31,0,.4.4,0,0,1,0-.76A1.44,1.44,0,0,1,25.55,125.32Z"/><path id="_Path_246" data-name="&lt;Path&gt;" class="cls-1" d="M29,123.34a.4.4,0,0,1,0,.76,1.45,1.45,0,0,1-1.31,0,.4.4,0,0,1,0-.76A1.44,1.44,0,0,1,29,123.34Z"/><path id="_Path_247" data-name="&lt;Path&gt;" class="cls-1" d="M32.39,121.37a.4.4,0,0,1,0,.76,1.45,1.45,0,0,1-1.31,0,.4.4,0,0,1,0-.76A1.45,1.45,0,0,1,32.39,121.37Z"/><path id="_Path_248" data-name="&lt;Path&gt;" class="cls-1" d="M35.81,119.39a.4.4,0,0,1,0,.76,1.45,1.45,0,0,1-1.31,0,.4.4,0,0,1,0-.76A1.45,1.45,0,0,1,35.81,119.39Z"/><path id="_Path_249" data-name="&lt;Path&gt;" class="cls-1" d="M39.23,117.42a.4.4,0,0,1,0,.76,1.45,1.45,0,0,1-1.31,0,.4.4,0,0,1,0-.76A1.44,1.44,0,0,1,39.23,117.42Z"/><path id="_Path_250" data-name="&lt;Path&gt;" class="cls-1" d="M42.65,115.45a.4.4,0,0,1,0,.76,1.44,1.44,0,0,1-1.31,0,.4.4,0,0,1,0-.76A1.45,1.45,0,0,1,42.65,115.45Z"/><path id="_Path_251" data-name="&lt;Path&gt;" class="cls-1" d="M46.07,113.47a.4.4,0,0,1,0,.76,1.45,1.45,0,0,1-1.31,0,.4.4,0,0,1,0-.76A1.45,1.45,0,0,1,46.07,113.47Z"/><path id="_Path_252" data-name="&lt;Path&gt;" class="cls-1" d="M49.49,111.5a.4.4,0,0,1,0,.76,1.45,1.45,0,0,1-1.31,0,.4.4,0,0,1,0-.76A1.45,1.45,0,0,1,49.49,111.5Z"/><path id="_Path_253" data-name="&lt;Path&gt;" class="cls-1" d="M22.13,123.34a.4.4,0,0,1,0,.76,1.45,1.45,0,0,1-1.31,0,.4.4,0,0,1,0-.76A1.44,1.44,0,0,1,22.13,123.34Z"/><path id="_Path_254" data-name="&lt;Path&gt;" class="cls-1" d="M25.55,121.37a.4.4,0,0,1,0,.76,1.45,1.45,0,0,1-1.31,0,.4.4,0,0,1,0-.76A1.45,1.45,0,0,1,25.55,121.37Z"/><path id="_Path_255" data-name="&lt;Path&gt;" class="cls-1" d="M29,119.39a.4.4,0,0,1,0,.76,1.45,1.45,0,0,1-1.31,0,.4.4,0,0,1,0-.76A1.45,1.45,0,0,1,29,119.39Z"/><path id="_Path_256" data-name="&lt;Path&gt;" class="cls-1" d="M32.39,117.42a.4.4,0,0,1,0,.76,1.45,1.45,0,0,1-1.31,0,.4.4,0,0,1,0-.76A1.44,1.44,0,0,1,32.39,117.42Z"/><path id="_Path_257" data-name="&lt;Path&gt;" class="cls-1" d="M35.81,115.45a.4.4,0,0,1,0,.76,1.44,1.44,0,0,1-1.31,0,.4.4,0,0,1,0-.76A1.45,1.45,0,0,1,35.81,115.45Z"/><path id="_Path_258" data-name="&lt;Path&gt;" class="cls-1" d="M39.23,113.47a.4.4,0,0,1,0,.76,1.45,1.45,0,0,1-1.31,0,.4.4,0,0,1,0-.76A1.45,1.45,0,0,1,39.23,113.47Z"/><path id="_Path_259" data-name="&lt;Path&gt;" class="cls-1" d="M42.65,111.5a.4.4,0,0,1,0,.76,1.45,1.45,0,0,1-1.31,0,.4.4,0,0,1,0-.76A1.45,1.45,0,0,1,42.65,111.5Z"/><path id="_Path_260" data-name="&lt;Path&gt;" class="cls-1" d="M46.07,109.52a.4.4,0,0,1,0,.76,1.44,1.44,0,0,1-1.31,0,.4.4,0,0,1,0-.76A1.45,1.45,0,0,1,46.07,109.52Z"/><path id="_Path_261" data-name="&lt;Path&gt;" class="cls-1" d="M18.71,121.37a.4.4,0,0,1,0,.76,1.45,1.45,0,0,1-1.31,0,.4.4,0,0,1,0-.76A1.45,1.45,0,0,1,18.71,121.37Z"/><path id="_Path_262" data-name="&lt;Path&gt;" class="cls-1" d="M22.13,119.39a.4.4,0,0,1,0,.76,1.45,1.45,0,0,1-1.31,0,.4.4,0,0,1,0-.76A1.44,1.44,0,0,1,22.13,119.39Z"/><path id="_Path_263" data-name="&lt;Path&gt;" class="cls-1" d="M25.55,117.42a.4.4,0,0,1,0,.76,1.44,1.44,0,0,1-1.31,0,.4.4,0,0,1,0-.76A1.44,1.44,0,0,1,25.55,117.42Z"/><path id="_Path_264" data-name="&lt;Path&gt;" class="cls-1" d="M29,115.45a.4.4,0,0,1,0,.76,1.44,1.44,0,0,1-1.31,0,.4.4,0,0,1,0-.76A1.45,1.45,0,0,1,29,115.45Z"/><path id="_Path_265" data-name="&lt;Path&gt;" class="cls-1" d="M32.39,113.47a.4.4,0,0,1,0,.76,1.45,1.45,0,0,1-1.31,0,.4.4,0,0,1,0-.76A1.45,1.45,0,0,1,32.39,113.47Z"/><path id="_Path_266" data-name="&lt;Path&gt;" class="cls-1" d="M35.81,111.5a.4.4,0,0,1,0,.76,1.45,1.45,0,0,1-1.31,0,.4.4,0,0,1,0-.76A1.45,1.45,0,0,1,35.81,111.5Z"/><path id="_Path_267" data-name="&lt;Path&gt;" class="cls-1" d="M39.23,109.52a.4.4,0,0,1,0,.76,1.44,1.44,0,0,1-1.31,0,.4.4,0,0,1,0-.76A1.45,1.45,0,0,1,39.23,109.52Z"/><path id="_Path_268" data-name="&lt;Path&gt;" class="cls-1" d="M42.65,107.55a.4.4,0,0,1,0,.76,1.45,1.45,0,0,1-1.31,0,.4.4,0,0,1,0-.76A1.45,1.45,0,0,1,42.65,107.55Z"/><path id="_Path_269" data-name="&lt;Path&gt;" class="cls-1" d="M15.29,119.39a.4.4,0,0,1,0,.76,1.45,1.45,0,0,1-1.31,0,.4.4,0,0,1,0-.76A1.44,1.44,0,0,1,15.29,119.39Z"/><path id="_Path_270" data-name="&lt;Path&gt;" class="cls-1" d="M18.71,117.42a.4.4,0,0,1,0,.76,1.44,1.44,0,0,1-1.31,0,.4.4,0,0,1,0-.76A1.45,1.45,0,0,1,18.71,117.42Z"/><path id="_Path_271" data-name="&lt;Path&gt;" class="cls-1" d="M22.13,115.45a.4.4,0,0,1,0,.76,1.45,1.45,0,0,1-1.31,0,.4.4,0,0,1,0-.76A1.45,1.45,0,0,1,22.13,115.45Z"/><path id="_Path_272" data-name="&lt;Path&gt;" class="cls-1" d="M25.55,113.47a.4.4,0,0,1,0,.76,1.45,1.45,0,0,1-1.31,0,.4.4,0,0,1,0-.76A1.45,1.45,0,0,1,25.55,113.47Z"/><path id="_Path_273" data-name="&lt;Path&gt;" class="cls-1" d="M29,111.5a.4.4,0,0,1,0,.76,1.44,1.44,0,0,1-1.31,0,.4.4,0,0,1,0-.76A1.45,1.45,0,0,1,29,111.5Z"/><path id="_Path_274" data-name="&lt;Path&gt;" class="cls-1" d="M32.39,109.52a.4.4,0,0,1,0,.76,1.44,1.44,0,0,1-1.31,0,.4.4,0,0,1,0-.76A1.45,1.45,0,0,1,32.39,109.52Z"/><path id="_Path_275" data-name="&lt;Path&gt;" class="cls-1" d="M35.81,107.55a.4.4,0,0,1,0,.76,1.45,1.45,0,0,1-1.31,0,.4.4,0,0,1,0-.76A1.45,1.45,0,0,1,35.81,107.55Z"/><path id="_Path_276" data-name="&lt;Path&gt;" class="cls-1" d="M39.23,105.57a.4.4,0,0,1,0,.76,1.45,1.45,0,0,1-1.31,0,.4.4,0,0,1,0-.76A1.44,1.44,0,0,1,39.23,105.57Z"/><path id="_Path_277" data-name="&lt;Path&gt;" class="cls-1" d="M11.84,117.4a.4.4,0,0,1,0,.76,1.45,1.45,0,0,1-1.31,0,.4.4,0,0,1,0-.76A1.45,1.45,0,0,1,11.84,117.4Z"/><path id="_Path_278" data-name="&lt;Path&gt;" class="cls-1" d="M15.26,115.43a.4.4,0,0,1,0,.76,1.45,1.45,0,0,1-1.31,0,.4.4,0,0,1,0-.76A1.44,1.44,0,0,1,15.26,115.43Z"/><path id="_Path_279" data-name="&lt;Path&gt;" class="cls-1" d="M18.68,113.45a.4.4,0,0,1,0,.76,1.45,1.45,0,0,1-1.31,0,.4.4,0,0,1,0-.76A1.45,1.45,0,0,1,18.68,113.45Z"/><path id="_Path_280" data-name="&lt;Path&gt;" class="cls-1" d="M22.1,111.48a.4.4,0,0,1,0,.76,1.45,1.45,0,0,1-1.31,0,.4.4,0,0,1,0-.76A1.45,1.45,0,0,1,22.1,111.48Z"/><path id="_Path_281" data-name="&lt;Path&gt;" class="cls-1" d="M25.52,109.5a.4.4,0,0,1,0,.76,1.45,1.45,0,0,1-1.31,0,.4.4,0,0,1,0-.76A1.44,1.44,0,0,1,25.52,109.5Z"/><path id="_Path_282" data-name="&lt;Path&gt;" class="cls-1" d="M28.94,107.53a.4.4,0,0,1,0,.76,1.44,1.44,0,0,1-1.31,0,.4.4,0,0,1,0-.76A1.44,1.44,0,0,1,28.94,107.53Z"/><path id="_Path_283" data-name="&lt;Path&gt;" class="cls-1" d="M32.36,105.55a.4.4,0,0,1,0,.76,1.44,1.44,0,0,1-1.31,0,.4.4,0,0,1,0-.76A1.45,1.45,0,0,1,32.36,105.55Z"/><path id="_Path_284" data-name="&lt;Path&gt;" class="cls-1" d="M35.78,103.58a.4.4,0,0,1,0,.76,1.45,1.45,0,0,1-1.31,0,.4.4,0,0,1,0-.76A1.45,1.45,0,0,1,35.78,103.58Z"/><path id="_Path_285" data-name="&lt;Path&gt;" class="cls-1" d="M8.42,115.43a.4.4,0,0,1,0,.76,1.45,1.45,0,0,1-1.31,0,.4.4,0,0,1,0-.76A1.44,1.44,0,0,1,8.42,115.43Z"/><path id="_Path_286" data-name="&lt;Path&gt;" class="cls-1" d="M11.84,113.45a.4.4,0,0,1,0,.76,1.45,1.45,0,0,1-1.31,0,.4.4,0,0,1,0-.76A1.45,1.45,0,0,1,11.84,113.45Z"/><path id="_Path_287" data-name="&lt;Path&gt;" class="cls-1" d="M15.26,111.48a.4.4,0,0,1,0,.76,1.45,1.45,0,0,1-1.31,0,.4.4,0,0,1,0-.76A1.45,1.45,0,0,1,15.26,111.48Z"/><path id="_Path_288" data-name="&lt;Path&gt;" class="cls-1" d="M18.68,109.5a.4.4,0,0,1,0,.76,1.45,1.45,0,0,1-1.31,0,.4.4,0,0,1,0-.76A1.44,1.44,0,0,1,18.68,109.5Z"/><path id="_Path_289" data-name="&lt;Path&gt;" class="cls-1" d="M22.1,107.53a.4.4,0,0,1,0,.76,1.44,1.44,0,0,1-1.31,0,.4.4,0,0,1,0-.76A1.44,1.44,0,0,1,22.1,107.53Z"/><path id="_Path_290" data-name="&lt;Path&gt;" class="cls-1" d="M25.52,105.55a.4.4,0,0,1,0,.76,1.44,1.44,0,0,1-1.31,0,.4.4,0,0,1,0-.76A1.45,1.45,0,0,1,25.52,105.55Z"/><path id="_Path_291" data-name="&lt;Path&gt;" class="cls-1" d="M28.94,103.58a.4.4,0,0,1,0,.76,1.45,1.45,0,0,1-1.31,0,.4.4,0,0,1,0-.76A1.45,1.45,0,0,1,28.94,103.58Z"/><path id="_Path_292" data-name="&lt;Path&gt;" class="cls-1" d="M32.36,101.6a.4.4,0,0,1,0,.76,1.45,1.45,0,0,1-1.31,0,.4.4,0,0,1,0-.76A1.45,1.45,0,0,1,32.36,101.6Z"/><path id="_Path_293" data-name="&lt;Path&gt;" class="cls-1" d="M8.42,111.48a.4.4,0,0,1,0,.76,1.45,1.45,0,0,1-1.31,0,.4.4,0,0,1,0-.76A1.45,1.45,0,0,1,8.42,111.48Z"/><path id="_Path_294" data-name="&lt;Path&gt;" class="cls-1" d="M11.84,109.5a.4.4,0,0,1,0,.76,1.45,1.45,0,0,1-1.31,0,.4.4,0,0,1,0-.76A1.44,1.44,0,0,1,11.84,109.5Z"/><path id="_Path_295" data-name="&lt;Path&gt;" class="cls-1" d="M15.26,107.53a.4.4,0,0,1,0,.76,1.44,1.44,0,0,1-1.31,0,.4.4,0,0,1,0-.76A1.45,1.45,0,0,1,15.26,107.53Z"/><path id="_Path_296" data-name="&lt;Path&gt;" class="cls-1" d="M18.68,105.55a.4.4,0,0,1,0,.76,1.45,1.45,0,0,1-1.31,0,.4.4,0,0,1,0-.76A1.45,1.45,0,0,1,18.68,105.55Z"/><path id="_Path_297" data-name="&lt;Path&gt;" class="cls-1" d="M22.1,103.58a.4.4,0,0,1,0,.76,1.45,1.45,0,0,1-1.31,0,.4.4,0,0,1,0-.76A1.45,1.45,0,0,1,22.1,103.58Z"/><path id="_Path_298" data-name="&lt;Path&gt;" class="cls-1" d="M25.52,101.6a.4.4,0,0,1,0,.76,1.44,1.44,0,0,1-1.31,0,.4.4,0,0,1,0-.76A1.45,1.45,0,0,1,25.52,101.6Z"/><path id="_Path_299" data-name="&lt;Path&gt;" class="cls-1" d="M66.75,144.77a.4.4,0,0,1,0,.76,1.45,1.45,0,0,1-1.31,0,.4.4,0,0,1,0-.76A1.44,1.44,0,0,1,66.75,144.77Z"/><path id="_Path_300" data-name="&lt;Path&gt;" class="cls-1" d="M70.17,142.79a.4.4,0,0,1,0,.76,1.45,1.45,0,0,1-1.31,0,.4.4,0,0,1,0-.76A1.45,1.45,0,0,1,70.17,142.79Z"/><path id="_Path_301" data-name="&lt;Path&gt;" class="cls-1" d="M73.59,140.82a.4.4,0,0,1,0,.76,1.45,1.45,0,0,1-1.31,0,.4.4,0,0,1,0-.76A1.45,1.45,0,0,1,73.59,140.82Z"/><path id="_Path_302" data-name="&lt;Path&gt;" class="cls-1" d="M77,138.84a.4.4,0,0,1,0,.76,1.45,1.45,0,0,1-1.31,0,.4.4,0,0,1,0-.76A1.44,1.44,0,0,1,77,138.84Z"/><path id="_Path_303" data-name="&lt;Path&gt;" class="cls-1" d="M80.43,136.87a.4.4,0,0,1,0,.76,1.44,1.44,0,0,1-1.31,0,.4.4,0,0,1,0-.76A1.44,1.44,0,0,1,80.43,136.87Z"/><path id="_Path_304" data-name="&lt;Path&gt;" class="cls-1" d="M59.91,144.77a.4.4,0,0,1,0,.76,1.45,1.45,0,0,1-1.31,0,.4.4,0,0,1,0-.76A1.44,1.44,0,0,1,59.91,144.77Z"/><path id="_Path_305" data-name="&lt;Path&gt;" class="cls-1" d="M63.33,142.79a.4.4,0,0,1,0,.76,1.45,1.45,0,0,1-1.31,0,.4.4,0,0,1,0-.76A1.45,1.45,0,0,1,63.33,142.79Z"/><path id="_Path_306" data-name="&lt;Path&gt;" class="cls-1" d="M66.75,140.82a.4.4,0,0,1,0,.76,1.45,1.45,0,0,1-1.31,0,.4.4,0,0,1,0-.76A1.45,1.45,0,0,1,66.75,140.82Z"/><path id="_Path_307" data-name="&lt;Path&gt;" class="cls-1" d="M70.17,138.84a.4.4,0,0,1,0,.76,1.45,1.45,0,0,1-1.31,0,.4.4,0,0,1,0-.76A1.44,1.44,0,0,1,70.17,138.84Z"/><path id="_Path_308" data-name="&lt;Path&gt;" class="cls-1" d="M73.59,136.87a.4.4,0,0,1,0,.76,1.44,1.44,0,0,1-1.31,0,.4.4,0,0,1,0-.76A1.45,1.45,0,0,1,73.59,136.87Z"/><path id="_Path_309" data-name="&lt;Path&gt;" class="cls-1" d="M77,134.89a.4.4,0,0,1,0,.76,1.45,1.45,0,0,1-1.31,0,.4.4,0,0,1,0-.76A1.45,1.45,0,0,1,77,134.89Z"/><path id="_Path_310" data-name="&lt;Path&gt;" class="cls-1" d="M80.43,132.92a.4.4,0,0,1,0,.76,1.45,1.45,0,0,1-1.31,0,.4.4,0,0,1,0-.76A1.45,1.45,0,0,1,80.43,132.92Z"/><path id="_Path_311" data-name="&lt;Path&gt;" class="cls-1" d="M83.71,131.27a.4.4,0,0,1,0,.76,1.45,1.45,0,0,1-1.31,0,.4.4,0,0,1,0-.76A1.45,1.45,0,0,1,83.71,131.27Z"/><path id="_Path_312" data-name="&lt;Path&gt;" class="cls-1" d="M83.85,134.91a.4.4,0,0,1,0,.76,1.45,1.45,0,0,1-1.31,0,.4.4,0,0,1,0-.76A1.45,1.45,0,0,1,83.85,134.91Z"/></g><g id="_Group_3" data-name="&lt;Group&gt;"><path id="_Path_313" data-name="&lt;Path&gt;" class="cls-1" d="M49.52,139.16a.4.4,0,0,1,0,.76,1.45,1.45,0,0,1-1.31,0,.4.4,0,0,1,0-.76A1.44,1.44,0,0,1,49.52,139.16Z"/><path id="_Path_314" data-name="&lt;Path&gt;" class="cls-1" d="M52.93,137.19a.4.4,0,0,1,0,.76,1.44,1.44,0,0,1-1.31,0,.4.4,0,0,1,0-.76A1.45,1.45,0,0,1,52.93,137.19Z"/><path id="_Path_315" data-name="&lt;Path&gt;" class="cls-1" d="M56.35,135.21a.4.4,0,0,1,0,.76A1.45,1.45,0,0,1,55,136a.4.4,0,0,1,0-.76A1.45,1.45,0,0,1,56.35,135.21Z"/><path id="_Path_316" data-name="&lt;Path&gt;" class="cls-1" d="M59.77,133.24a.4.4,0,0,1,0,.76,1.45,1.45,0,0,1-1.31,0,.4.4,0,0,1,0-.76A1.45,1.45,0,0,1,59.77,133.24Z"/><path id="_Path_317" data-name="&lt;Path&gt;" class="cls-1" d="M63.19,131.26a.4.4,0,0,1,0,.76,1.44,1.44,0,0,1-1.31,0,.4.4,0,0,1,0-.76A1.45,1.45,0,0,1,63.19,131.26Z"/><path id="_Path_318" data-name="&lt;Path&gt;" class="cls-1" d="M66.61,129.29a.4.4,0,0,1,0,.76,1.44,1.44,0,0,1-1.31,0,.4.4,0,0,1,0-.76A1.45,1.45,0,0,1,66.61,129.29Z"/><path id="_Path_319" data-name="&lt;Path&gt;" class="cls-1" d="M70,127.31a.4.4,0,0,1,0,.76,1.45,1.45,0,0,1-1.31,0,.4.4,0,0,1,0-.76A1.45,1.45,0,0,1,70,127.31Z"/><path id="_Path_320" data-name="&lt;Path&gt;" class="cls-1" d="M73.45,125.34a.4.4,0,0,1,0,.76,1.45,1.45,0,0,1-1.31,0,.4.4,0,0,1,0-.76A1.44,1.44,0,0,1,73.45,125.34Z"/><path id="_Path_321" data-name="&lt;Path&gt;" class="cls-1" d="M46.1,137.19a.4.4,0,0,1,0,.76,1.44,1.44,0,0,1-1.31,0,.4.4,0,0,1,0-.76A1.45,1.45,0,0,1,46.1,137.19Z"/><path id="_Path_322" data-name="&lt;Path&gt;" class="cls-1" d="M49.52,135.21a.4.4,0,0,1,0,.76,1.45,1.45,0,0,1-1.31,0,.4.4,0,0,1,0-.76A1.45,1.45,0,0,1,49.52,135.21Z"/><path id="_Path_323" data-name="&lt;Path&gt;" class="cls-1" d="M52.93,133.24a.4.4,0,0,1,0,.76,1.45,1.45,0,0,1-1.31,0,.4.4,0,0,1,0-.76A1.45,1.45,0,0,1,52.93,133.24Z"/><path id="_Path_324" data-name="&lt;Path&gt;" class="cls-1" d="M56.35,131.26a.4.4,0,0,1,0,.76A1.44,1.44,0,0,1,55,132a.4.4,0,0,1,0-.76A1.45,1.45,0,0,1,56.35,131.26Z"/><path id="_Path_325" data-name="&lt;Path&gt;" class="cls-1" d="M59.77,129.29a.4.4,0,0,1,0,.76,1.45,1.45,0,0,1-1.31,0,.4.4,0,0,1,0-.76A1.45,1.45,0,0,1,59.77,129.29Z"/><path id="_Path_326" data-name="&lt;Path&gt;" class="cls-1" d="M63.19,127.31a.4.4,0,0,1,0,.76,1.45,1.45,0,0,1-1.31,0,.4.4,0,0,1,0-.76A1.45,1.45,0,0,1,63.19,127.31Z"/><path id="_Path_327" data-name="&lt;Path&gt;" class="cls-1" d="M66.61,125.34a.4.4,0,0,1,0,.76,1.45,1.45,0,0,1-1.31,0,.4.4,0,0,1,0-.76A1.44,1.44,0,0,1,66.61,125.34Z"/><path id="_Path_328" data-name="&lt;Path&gt;" class="cls-1" d="M70,123.36a.4.4,0,0,1,0,.76,1.45,1.45,0,0,1-1.31,0,.4.4,0,0,1,0-.76A1.45,1.45,0,0,1,70,123.36Z"/><path id="_Path_329" data-name="&lt;Path&gt;" class="cls-1" d="M42.68,135.21a.4.4,0,0,1,0,.76,1.45,1.45,0,0,1-1.31,0,.4.4,0,0,1,0-.76A1.45,1.45,0,0,1,42.68,135.21Z"/><path id="_Path_330" data-name="&lt;Path&gt;" class="cls-1" d="M46.1,133.24a.4.4,0,0,1,0,.76,1.45,1.45,0,0,1-1.31,0,.4.4,0,0,1,0-.76A1.45,1.45,0,0,1,46.1,133.24Z"/><path id="_Path_331" data-name="&lt;Path&gt;" class="cls-1" d="M49.52,131.26a.4.4,0,0,1,0,.76,1.44,1.44,0,0,1-1.31,0,.4.4,0,0,1,0-.76A1.45,1.45,0,0,1,49.52,131.26Z"/><path id="_Path_332" data-name="&lt;Path&gt;" class="cls-1" d="M52.93,129.29a.4.4,0,0,1,0,.76,1.45,1.45,0,0,1-1.31,0,.4.4,0,0,1,0-.76A1.45,1.45,0,0,1,52.93,129.29Z"/><path id="_Path_333" data-name="&lt;Path&gt;" class="cls-1" d="M56.35,127.31a.4.4,0,0,1,0,.76,1.45,1.45,0,0,1-1.31,0,.4.4,0,0,1,0-.76A1.44,1.44,0,0,1,56.35,127.31Z"/><path id="_Path_334" data-name="&lt;Path&gt;" class="cls-1" d="M59.77,125.34a.4.4,0,0,1,0,.76,1.45,1.45,0,0,1-1.31,0,.4.4,0,0,1,0-.76A1.44,1.44,0,0,1,59.77,125.34Z"/><path id="_Path_335" data-name="&lt;Path&gt;" class="cls-1" d="M63.19,123.36a.4.4,0,0,1,0,.76,1.45,1.45,0,0,1-1.31,0,.4.4,0,0,1,0-.76A1.45,1.45,0,0,1,63.19,123.36Z"/><path id="_Path_336" data-name="&lt;Path&gt;" class="cls-1" d="M66.61,121.39a.4.4,0,0,1,0,.76,1.45,1.45,0,0,1-1.31,0,.4.4,0,0,1,0-.76A1.45,1.45,0,0,1,66.61,121.39Z"/><path id="_Path_337" data-name="&lt;Path&gt;" class="cls-1" d="M39.26,133.24a.4.4,0,0,1,0,.76,1.44,1.44,0,0,1-1.31,0,.4.4,0,0,1,0-.76A1.45,1.45,0,0,1,39.26,133.24Z"/><path id="_Path_338" data-name="&lt;Path&gt;" class="cls-1" d="M42.68,131.26a.4.4,0,0,1,0,.76,1.44,1.44,0,0,1-1.31,0,.4.4,0,0,1,0-.76A1.45,1.45,0,0,1,42.68,131.26Z"/><path id="_Path_339" data-name="&lt;Path&gt;" class="cls-1" d="M46.1,129.29a.4.4,0,0,1,0,.76,1.45,1.45,0,0,1-1.31,0,.4.4,0,0,1,0-.76A1.45,1.45,0,0,1,46.1,129.29Z"/><path id="_Path_340" data-name="&lt;Path&gt;" class="cls-1" d="M49.52,127.31a.4.4,0,0,1,0,.76,1.45,1.45,0,0,1-1.31,0,.4.4,0,0,1,0-.76A1.44,1.44,0,0,1,49.52,127.31Z"/><path id="_Path_341" data-name="&lt;Path&gt;" class="cls-1" d="M52.93,125.34a.4.4,0,0,1,0,.76,1.45,1.45,0,0,1-1.31,0,.4.4,0,0,1,0-.76A1.45,1.45,0,0,1,52.93,125.34Z"/><path id="_Path_342" data-name="&lt;Path&gt;" class="cls-1" d="M56.35,123.36a.4.4,0,0,1,0,.76,1.45,1.45,0,0,1-1.31,0,.4.4,0,0,1,0-.76A1.45,1.45,0,0,1,56.35,123.36Z"/><path id="_Path_343" data-name="&lt;Path&gt;" class="cls-1" d="M59.77,121.39a.4.4,0,0,1,0,.76,1.45,1.45,0,0,1-1.31,0,.4.4,0,0,1,0-.76A1.44,1.44,0,0,1,59.77,121.39Z"/><path id="_Path_344" data-name="&lt;Path&gt;" class="cls-1" d="M63.19,119.42a.4.4,0,0,1,0,.76,1.44,1.44,0,0,1-1.31,0,.4.4,0,0,1,0-.76A1.44,1.44,0,0,1,63.19,119.42Z"/><path id="_Path_345" data-name="&lt;Path&gt;" class="cls-1" d="M35.84,131.26a.4.4,0,0,1,0,.76,1.45,1.45,0,0,1-1.31,0,.4.4,0,0,1,0-.76A1.45,1.45,0,0,1,35.84,131.26Z"/><path id="_Path_346" data-name="&lt;Path&gt;" class="cls-1" d="M39.26,129.29a.4.4,0,0,1,0,.76,1.45,1.45,0,0,1-1.31,0,.4.4,0,0,1,0-.76A1.44,1.44,0,0,1,39.26,129.29Z"/><path id="_Path_347" data-name="&lt;Path&gt;" class="cls-1" d="M42.68,127.31a.4.4,0,0,1,0,.76,1.45,1.45,0,0,1-1.31,0,.4.4,0,0,1,0-.76A1.44,1.44,0,0,1,42.68,127.31Z"/><path id="_Path_348" data-name="&lt;Path&gt;" class="cls-1" d="M46.1,125.34a.4.4,0,0,1,0,.76,1.45,1.45,0,0,1-1.31,0,.4.4,0,0,1,0-.76A1.45,1.45,0,0,1,46.1,125.34Z"/><path id="_Path_349" data-name="&lt;Path&gt;" class="cls-1" d="M49.52,123.36a.4.4,0,0,1,0,.76,1.45,1.45,0,0,1-1.31,0,.4.4,0,0,1,0-.76A1.45,1.45,0,0,1,49.52,123.36Z"/><path id="_Path_350" data-name="&lt;Path&gt;" class="cls-1" d="M52.94,121.39a.4.4,0,0,1,0,.76,1.45,1.45,0,0,1-1.31,0,.4.4,0,0,1,0-.76A1.44,1.44,0,0,1,52.94,121.39Z"/><path id="_Path_351" data-name="&lt;Path&gt;" class="cls-1" d="M56.35,119.42a.4.4,0,0,1,0,.76,1.44,1.44,0,0,1-1.31,0,.4.4,0,0,1,0-.76A1.45,1.45,0,0,1,56.35,119.42Z"/><path id="_Path_352" data-name="&lt;Path&gt;" class="cls-1" d="M59.77,117.44a.4.4,0,0,1,0,.76,1.45,1.45,0,0,1-1.31,0,.4.4,0,0,1,0-.76A1.45,1.45,0,0,1,59.77,117.44Z"/><path id="_Path_353" data-name="&lt;Path&gt;" class="cls-1" d="M32.39,129.27a.4.4,0,0,1,0,.76,1.44,1.44,0,0,1-1.31,0,.4.4,0,0,1,0-.76A1.45,1.45,0,0,1,32.39,129.27Z"/><path id="_Path_354" data-name="&lt;Path&gt;" class="cls-1" d="M35.81,127.29a.4.4,0,0,1,0,.76,1.45,1.45,0,0,1-1.31,0,.4.4,0,0,1,0-.76A1.45,1.45,0,0,1,35.81,127.29Z"/><path id="_Path_355" data-name="&lt;Path&gt;" class="cls-1" d="M39.23,125.32a.4.4,0,0,1,0,.76,1.45,1.45,0,0,1-1.31,0,.4.4,0,0,1,0-.76A1.45,1.45,0,0,1,39.23,125.32Z"/><path id="_Path_356" data-name="&lt;Path&gt;" class="cls-1" d="M42.65,123.34a.4.4,0,0,1,0,.76,1.44,1.44,0,0,1-1.31,0,.4.4,0,0,1,0-.76A1.45,1.45,0,0,1,42.65,123.34Z"/><path id="_Path_357" data-name="&lt;Path&gt;" class="cls-1" d="M46.07,121.37a.4.4,0,0,1,0,.76,1.44,1.44,0,0,1-1.31,0,.4.4,0,0,1,0-.76A1.45,1.45,0,0,1,46.07,121.37Z"/><path id="_Path_358" data-name="&lt;Path&gt;" class="cls-1" d="M49.49,119.39a.4.4,0,0,1,0,.76,1.45,1.45,0,0,1-1.31,0,.4.4,0,0,1,0-.76A1.45,1.45,0,0,1,49.49,119.39Z"/><path id="_Path_359" data-name="&lt;Path&gt;" class="cls-1" d="M52.91,117.42a.4.4,0,0,1,0,.76,1.45,1.45,0,0,1-1.31,0,.4.4,0,0,1,0-.76A1.44,1.44,0,0,1,52.91,117.42Z"/><path id="_Path_360" data-name="&lt;Path&gt;" class="cls-1" d="M56.33,115.45a.4.4,0,0,1,0,.76,1.45,1.45,0,0,1-1.31,0,.4.4,0,0,1,0-.76A1.44,1.44,0,0,1,56.33,115.45Z"/><path id="_Path_361" data-name="&lt;Path&gt;" class="cls-1" d="M29,127.29a.4.4,0,0,1,0,.76,1.45,1.45,0,0,1-1.31,0,.4.4,0,0,1,0-.76A1.45,1.45,0,0,1,29,127.29Z"/><path id="_Path_362" data-name="&lt;Path&gt;" class="cls-1" d="M32.39,125.32a.4.4,0,0,1,0,.76,1.45,1.45,0,0,1-1.31,0,.4.4,0,0,1,0-.76A1.45,1.45,0,0,1,32.39,125.32Z"/><path id="_Path_363" data-name="&lt;Path&gt;" class="cls-1" d="M35.81,123.34a.4.4,0,0,1,0,.76,1.44,1.44,0,0,1-1.31,0,.4.4,0,0,1,0-.76A1.45,1.45,0,0,1,35.81,123.34Z"/><path id="_Path_364" data-name="&lt;Path&gt;" class="cls-1" d="M39.23,121.37a.4.4,0,0,1,0,.76,1.44,1.44,0,0,1-1.31,0,.4.4,0,0,1,0-.76A1.45,1.45,0,0,1,39.23,121.37Z"/><path id="_Path_365" data-name="&lt;Path&gt;" class="cls-1" d="M42.65,119.39a.4.4,0,0,1,0,.76,1.45,1.45,0,0,1-1.31,0,.4.4,0,0,1,0-.76A1.45,1.45,0,0,1,42.65,119.39Z"/><path id="_Path_366" data-name="&lt;Path&gt;" class="cls-1" d="M46.07,117.42a.4.4,0,0,1,0,.76,1.45,1.45,0,0,1-1.31,0,.4.4,0,0,1,0-.76A1.44,1.44,0,0,1,46.07,117.42Z"/><path id="_Path_367" data-name="&lt;Path&gt;" class="cls-1" d="M49.49,115.45a.4.4,0,0,1,0,.76,1.45,1.45,0,0,1-1.31,0,.4.4,0,0,1,0-.76A1.45,1.45,0,0,1,49.49,115.45Z"/><path id="_Path_368" data-name="&lt;Path&gt;" class="cls-1" d="M52.91,113.47a.4.4,0,0,1,0,.76,1.45,1.45,0,0,1-1.31,0,.4.4,0,0,1,0-.76A1.45,1.45,0,0,1,52.91,113.47Z"/><path id="_Path_369" data-name="&lt;Path&gt;" class="cls-1" d="M25.55,125.32a.4.4,0,0,1,0,.76,1.45,1.45,0,0,1-1.31,0,.4.4,0,0,1,0-.76A1.45,1.45,0,0,1,25.55,125.32Z"/><path id="_Path_370" data-name="&lt;Path&gt;" class="cls-1" d="M29,123.34a.4.4,0,0,1,0,.76,1.44,1.44,0,0,1-1.31,0,.4.4,0,0,1,0-.76A1.45,1.45,0,0,1,29,123.34Z"/><path id="_Path_371" data-name="&lt;Path&gt;" class="cls-1" d="M32.39,121.37a.4.4,0,0,1,0,.76,1.45,1.45,0,0,1-1.31,0,.4.4,0,0,1,0-.76A1.45,1.45,0,0,1,32.39,121.37Z"/><path id="_Path_372" data-name="&lt;Path&gt;" class="cls-1" d="M35.81,119.39a.4.4,0,0,1,0,.76,1.45,1.45,0,0,1-1.31,0,.4.4,0,0,1,0-.76A1.44,1.44,0,0,1,35.81,119.39Z"/><path id="_Path_373" data-name="&lt;Path&gt;" class="cls-1" d="M39.23,117.42a.4.4,0,0,1,0,.76,1.45,1.45,0,0,1-1.31,0,.4.4,0,0,1,0-.76A1.44,1.44,0,0,1,39.23,117.42Z"/><path id="_Path_374" data-name="&lt;Path&gt;" class="cls-1" d="M42.65,115.45a.4.4,0,0,1,0,.76,1.45,1.45,0,0,1-1.31,0,.4.4,0,0,1,0-.76A1.45,1.45,0,0,1,42.65,115.45Z"/><path id="_Path_375" data-name="&lt;Path&gt;" class="cls-1" d="M46.07,113.47a.4.4,0,0,1,0,.76,1.45,1.45,0,0,1-1.31,0,.4.4,0,0,1,0-.76A1.45,1.45,0,0,1,46.07,113.47Z"/><path id="_Path_376" data-name="&lt;Path&gt;" class="cls-1" d="M49.49,111.5a.4.4,0,0,1,0,.76,1.45,1.45,0,0,1-1.31,0,.4.4,0,0,1,0-.76A1.44,1.44,0,0,1,49.49,111.5Z"/><path id="_Path_377" data-name="&lt;Path&gt;" class="cls-1" d="M22.13,123.34a.4.4,0,0,1,0,.76,1.44,1.44,0,0,1-1.31,0,.4.4,0,0,1,0-.76A1.45,1.45,0,0,1,22.13,123.34Z"/><path id="_Path_378" data-name="&lt;Path&gt;" class="cls-1" d="M25.55,121.37a.4.4,0,0,1,0,.76,1.45,1.45,0,0,1-1.31,0,.4.4,0,0,1,0-.76A1.45,1.45,0,0,1,25.55,121.37Z"/><path id="_Path_379" data-name="&lt;Path&gt;" class="cls-1" d="M29,119.39a.4.4,0,0,1,0,.76,1.45,1.45,0,0,1-1.31,0,.4.4,0,0,1,0-.76A1.44,1.44,0,0,1,29,119.39Z"/><path id="_Path_380" data-name="&lt;Path&gt;" class="cls-1" d="M32.39,117.42a.4.4,0,0,1,0,.76,1.45,1.45,0,0,1-1.31,0,.4.4,0,0,1,0-.76A1.45,1.45,0,0,1,32.39,117.42Z"/><path id="_Path_381" data-name="&lt;Path&gt;" class="cls-1" d="M35.81,115.45a.4.4,0,0,1,0,.76,1.45,1.45,0,0,1-1.31,0,.4.4,0,0,1,0-.76A1.45,1.45,0,0,1,35.81,115.45Z"/><path id="_Path_382" data-name="&lt;Path&gt;" class="cls-1" d="M39.23,113.47a.4.4,0,0,1,0,.76,1.45,1.45,0,0,1-1.31,0,.4.4,0,0,1,0-.76A1.44,1.44,0,0,1,39.23,113.47Z"/><path id="_Path_383" data-name="&lt;Path&gt;" class="cls-1" d="M42.65,111.5a.4.4,0,0,1,0,.76,1.44,1.44,0,0,1-1.31,0,.4.4,0,0,1,0-.76A1.44,1.44,0,0,1,42.65,111.5Z"/><path id="_Path_384" data-name="&lt;Path&gt;" class="cls-1" d="M46.07,109.52a.4.4,0,0,1,0,.76,1.44,1.44,0,0,1-1.31,0,.4.4,0,0,1,0-.76A1.45,1.45,0,0,1,46.07,109.52Z"/><path id="_Path_385" data-name="&lt;Path&gt;" class="cls-1" d="M18.71,121.37a.4.4,0,0,1,0,.76,1.45,1.45,0,0,1-1.31,0,.4.4,0,0,1,0-.76A1.44,1.44,0,0,1,18.71,121.37Z"/><path id="_Path_386" data-name="&lt;Path&gt;" class="cls-1" d="M22.13,119.39a.4.4,0,0,1,0,.76,1.45,1.45,0,0,1-1.31,0,.4.4,0,0,1,0-.76A1.44,1.44,0,0,1,22.13,119.39Z"/><path id="_Path_387" data-name="&lt;Path&gt;" class="cls-1" d="M25.55,117.42a.4.4,0,0,1,0,.76,1.45,1.45,0,0,1-1.31,0,.4.4,0,0,1,0-.76A1.45,1.45,0,0,1,25.55,117.42Z"/><path id="_Path_388" data-name="&lt;Path&gt;" class="cls-1" d="M29,115.45a.4.4,0,0,1,0,.76,1.45,1.45,0,0,1-1.31,0,.4.4,0,0,1,0-.76A1.45,1.45,0,0,1,29,115.45Z"/><path id="_Path_389" data-name="&lt;Path&gt;" class="cls-1" d="M32.39,113.47a.4.4,0,0,1,0,.76,1.45,1.45,0,0,1-1.31,0,.4.4,0,0,1,0-.76A1.44,1.44,0,0,1,32.39,113.47Z"/><path id="_Path_390" data-name="&lt;Path&gt;" class="cls-1" d="M35.81,111.5a.4.4,0,0,1,0,.76,1.44,1.44,0,0,1-1.31,0,.4.4,0,0,1,0-.76A1.45,1.45,0,0,1,35.81,111.5Z"/><path id="_Path_391" data-name="&lt;Path&gt;" class="cls-1" d="M39.23,109.52a.4.4,0,0,1,0,.76,1.45,1.45,0,0,1-1.31,0,.4.4,0,0,1,0-.76A1.45,1.45,0,0,1,39.23,109.52Z"/><path id="_Path_392" data-name="&lt;Path&gt;" class="cls-1" d="M42.65,107.55a.4.4,0,0,1,0,.76,1.45,1.45,0,0,1-1.31,0,.4.4,0,0,1,0-.76A1.45,1.45,0,0,1,42.65,107.55Z"/><path id="_Path_393" data-name="&lt;Path&gt;" class="cls-1" d="M15.29,119.39a.4.4,0,0,1,0,.76,1.45,1.45,0,0,1-1.31,0,.4.4,0,0,1,0-.76A1.44,1.44,0,0,1,15.29,119.39Z"/><path id="_Path_394" data-name="&lt;Path&gt;" class="cls-1" d="M18.71,117.42a.4.4,0,0,1,0,.76,1.45,1.45,0,0,1-1.31,0,.4.4,0,0,1,0-.76A1.45,1.45,0,0,1,18.71,117.42Z"/><path id="_Path_395" data-name="&lt;Path&gt;" class="cls-1" d="M22.13,115.45a.4.4,0,0,1,0,.76,1.45,1.45,0,0,1-1.31,0,.4.4,0,0,1,0-.76A1.45,1.45,0,0,1,22.13,115.45Z"/><path id="_Path_396" data-name="&lt;Path&gt;" class="cls-1" d="M25.55,113.47a.4.4,0,0,1,0,.76,1.45,1.45,0,0,1-1.31,0,.4.4,0,0,1,0-.76A1.44,1.44,0,0,1,25.55,113.47Z"/><path id="_Path_397" data-name="&lt;Path&gt;" class="cls-1" d="M29,111.5a.4.4,0,0,1,0,.76,1.44,1.44,0,0,1-1.31,0,.4.4,0,0,1,0-.76A1.45,1.45,0,0,1,29,111.5Z"/><path id="_Path_398" data-name="&lt;Path&gt;" class="cls-1" d="M32.39,109.52a.4.4,0,0,1,0,.76,1.45,1.45,0,0,1-1.31,0,.4.4,0,0,1,0-.76A1.45,1.45,0,0,1,32.39,109.52Z"/><path id="_Path_399" data-name="&lt;Path&gt;" class="cls-1" d="M35.81,107.55a.4.4,0,0,1,0,.76,1.45,1.45,0,0,1-1.31,0,.4.4,0,0,1,0-.76A1.45,1.45,0,0,1,35.81,107.55Z"/><path id="_Path_400" data-name="&lt;Path&gt;" class="cls-1" d="M39.23,105.57a.4.4,0,0,1,0,.76,1.44,1.44,0,0,1-1.31,0,.4.4,0,0,1,0-.76A1.45,1.45,0,0,1,39.23,105.57Z"/><path id="_Path_401" data-name="&lt;Path&gt;" class="cls-1" d="M11.87,117.42a.4.4,0,0,1,0,.76,1.45,1.45,0,0,1-1.31,0,.4.4,0,0,1,0-.76A1.45,1.45,0,0,1,11.87,117.42Z"/><path id="_Path_402" data-name="&lt;Path&gt;" class="cls-1" d="M15.29,115.45a.4.4,0,0,1,0,.76,1.45,1.45,0,0,1-1.31,0,.4.4,0,0,1,0-.76A1.44,1.44,0,0,1,15.29,115.45Z"/><path id="_Path_403" data-name="&lt;Path&gt;" class="cls-1" d="M18.71,113.47a.4.4,0,0,1,0,.76,1.44,1.44,0,0,1-1.31,0,.4.4,0,0,1,0-.76A1.44,1.44,0,0,1,18.71,113.47Z"/><path id="_Path_404" data-name="&lt;Path&gt;" class="cls-1" d="M22.13,111.5a.4.4,0,0,1,0,.76,1.44,1.44,0,0,1-1.31,0,.4.4,0,0,1,0-.76A1.45,1.45,0,0,1,22.13,111.5Z"/><path id="_Path_405" data-name="&lt;Path&gt;" class="cls-1" d="M25.55,109.52a.4.4,0,0,1,0,.76,1.45,1.45,0,0,1-1.31,0,.4.4,0,0,1,0-.76A1.45,1.45,0,0,1,25.55,109.52Z"/><path id="_Path_406" data-name="&lt;Path&gt;" class="cls-1" d="M29,107.55a.4.4,0,0,1,0,.76,1.45,1.45,0,0,1-1.31,0,.4.4,0,0,1,0-.76A1.45,1.45,0,0,1,29,107.55Z"/><path id="_Path_407" data-name="&lt;Path&gt;" class="cls-1" d="M32.39,105.57a.4.4,0,0,1,0,.76,1.44,1.44,0,0,1-1.31,0,.4.4,0,0,1,0-.76A1.45,1.45,0,0,1,32.39,105.57Z"/><path id="_Path_408" data-name="&lt;Path&gt;" class="cls-1" d="M35.81,103.6a.4.4,0,0,1,0,.76,1.45,1.45,0,0,1-1.31,0,.4.4,0,0,1,0-.76A1.45,1.45,0,0,1,35.81,103.6Z"/><path id="_Path_409" data-name="&lt;Path&gt;" class="cls-1" d="M8.45,115.45a.4.4,0,0,1,0,.76,1.45,1.45,0,0,1-1.31,0,.4.4,0,0,1,0-.76A1.44,1.44,0,0,1,8.45,115.45Z"/><path id="_Path_410" data-name="&lt;Path&gt;" class="cls-1" d="M11.87,113.47a.4.4,0,0,1,0,.76,1.44,1.44,0,0,1-1.31,0,.4.4,0,0,1,0-.76A1.45,1.45,0,0,1,11.87,113.47Z"/><path id="_Path_411" data-name="&lt;Path&gt;" class="cls-1" d="M15.29,111.5a.4.4,0,0,1,0,.76,1.45,1.45,0,0,1-1.31,0,.4.4,0,0,1,0-.76A1.45,1.45,0,0,1,15.29,111.5Z"/><path id="_Path_412" data-name="&lt;Path&gt;" class="cls-1" d="M18.71,109.52a.4.4,0,0,1,0,.76,1.45,1.45,0,0,1-1.31,0,.4.4,0,0,1,0-.76A1.45,1.45,0,0,1,18.71,109.52Z"/><path id="_Path_413" data-name="&lt;Path&gt;" class="cls-1" d="M22.13,107.55a.4.4,0,0,1,0,.76,1.44,1.44,0,0,1-1.31,0,.4.4,0,0,1,0-.76A1.45,1.45,0,0,1,22.13,107.55Z"/><path id="_Path_414" data-name="&lt;Path&gt;" class="cls-1" d="M25.55,105.57a.4.4,0,0,1,0,.76,1.44,1.44,0,0,1-1.31,0,.4.4,0,0,1,0-.76A1.45,1.45,0,0,1,25.55,105.57Z"/><path id="_Path_415" data-name="&lt;Path&gt;" class="cls-1" d="M29,103.6a.4.4,0,0,1,0,.76,1.45,1.45,0,0,1-1.31,0,.4.4,0,0,1,0-.76A1.45,1.45,0,0,1,29,103.6Z"/><path id="_Path_416" data-name="&lt;Path&gt;" class="cls-1" d="M32.39,101.63a.4.4,0,0,1,0,.76,1.45,1.45,0,0,1-1.31,0,.4.4,0,0,1,0-.76A1.44,1.44,0,0,1,32.39,101.63Z"/><path id="_Path_417" data-name="&lt;Path&gt;" class="cls-1" d="M5,113.45a.4.4,0,0,1,0,.76,1.45,1.45,0,0,1-1.31,0,.4.4,0,0,1,0-.76A1.45,1.45,0,0,1,5,113.45Z"/><path id="_Path_418" data-name="&lt;Path&gt;" class="cls-1" d="M8.42,111.48a.4.4,0,0,1,0,.76,1.45,1.45,0,0,1-1.31,0,.4.4,0,0,1,0-.76A1.44,1.44,0,0,1,8.42,111.48Z"/><path id="_Path_419" data-name="&lt;Path&gt;" class="cls-1" d="M11.84,109.5a.4.4,0,0,1,0,.76,1.45,1.45,0,0,1-1.31,0,.4.4,0,0,1,0-.76A1.45,1.45,0,0,1,11.84,109.5Z"/><path id="_Path_420" data-name="&lt;Path&gt;" class="cls-1" d="M15.26,107.53a.4.4,0,0,1,0,.76,1.45,1.45,0,0,1-1.31,0,.4.4,0,0,1,0-.76A1.45,1.45,0,0,1,15.26,107.53Z"/><path id="_Path_421" data-name="&lt;Path&gt;" class="cls-1" d="M18.68,105.55a.4.4,0,0,1,0,.76,1.45,1.45,0,0,1-1.31,0,.4.4,0,0,1,0-.76A1.44,1.44,0,0,1,18.68,105.55Z"/><path id="_Path_422" data-name="&lt;Path&gt;" class="cls-1" d="M22.1,103.58a.4.4,0,0,1,0,.76,1.44,1.44,0,0,1-1.31,0,.4.4,0,0,1,0-.76A1.44,1.44,0,0,1,22.1,103.58Z"/><path id="_Path_423" data-name="&lt;Path&gt;" class="cls-1" d="M25.52,101.6a.4.4,0,0,1,0,.76,1.44,1.44,0,0,1-1.31,0,.4.4,0,0,1,0-.76A1.45,1.45,0,0,1,25.52,101.6Z"/><path id="_Path_424" data-name="&lt;Path&gt;" class="cls-1" d="M28.94,99.63a.4.4,0,0,1,0,.76,1.45,1.45,0,0,1-1.31,0,.4.4,0,0,1,0-.76A1.45,1.45,0,0,1,28.94,99.63Z"/><path id="_Path_425" data-name="&lt;Path&gt;" class="cls-1" d="M1.58,111.48a.4.4,0,0,1,0,.76,1.45,1.45,0,0,1-1.31,0,.4.4,0,0,1,0-.76A1.44,1.44,0,0,1,1.58,111.48Z"/><path id="_Path_426" data-name="&lt;Path&gt;" class="cls-1" d="M5,109.5a.4.4,0,0,1,0,.76,1.45,1.45,0,0,1-1.31,0,.4.4,0,0,1,0-.76A1.45,1.45,0,0,1,5,109.5Z"/><path id="_Path_427" data-name="&lt;Path&gt;" class="cls-1" d="M8.42,107.53a.4.4,0,0,1,0,.76,1.45,1.45,0,0,1-1.31,0,.4.4,0,0,1,0-.76A1.45,1.45,0,0,1,8.42,107.53Z"/><path id="_Path_428" data-name="&lt;Path&gt;" class="cls-1" d="M11.84,105.55a.4.4,0,0,1,0,.76,1.45,1.45,0,0,1-1.31,0,.4.4,0,0,1,0-.76A1.44,1.44,0,0,1,11.84,105.55Z"/><path id="_Path_429" data-name="&lt;Path&gt;" class="cls-1" d="M15.26,103.58a.4.4,0,0,1,0,.76,1.44,1.44,0,0,1-1.31,0,.4.4,0,0,1,0-.76A1.44,1.44,0,0,1,15.26,103.58Z"/><path id="_Path_430" data-name="&lt;Path&gt;" class="cls-1" d="M18.68,101.6a.4.4,0,0,1,0,.76,1.44,1.44,0,0,1-1.31,0,.4.4,0,0,1,0-.76A1.45,1.45,0,0,1,18.68,101.6Z"/><path id="_Path_431" data-name="&lt;Path&gt;" class="cls-1" d="M22.1,99.63a.4.4,0,0,1,0,.76,1.45,1.45,0,0,1-1.31,0,.4.4,0,0,1,0-.76A1.45,1.45,0,0,1,22.1,99.63Z"/><path id="_Path_432" data-name="&lt;Path&gt;" class="cls-1" d="M25.52,97.66a.4.4,0,0,1,0,.76,1.45,1.45,0,0,1-1.31,0,.4.4,0,0,1,0-.76A1.45,1.45,0,0,1,25.52,97.66Z"/><path id="_Path_433" data-name="&lt;Path&gt;" class="cls-1" d="M1.58,107.53a.4.4,0,0,1,0,.76,1.45,1.45,0,0,1-1.31,0,.4.4,0,0,1,0-.76A1.45,1.45,0,0,1,1.58,107.53Z"/><path id="_Path_434" data-name="&lt;Path&gt;" class="cls-1" d="M5,105.55a.4.4,0,0,1,0,.76,1.45,1.45,0,0,1-1.31,0,.4.4,0,0,1,0-.76A1.44,1.44,0,0,1,5,105.55Z"/><path id="_Path_435" data-name="&lt;Path&gt;" class="cls-1" d="M8.42,103.58a.4.4,0,0,1,0,.76,1.44,1.44,0,0,1-1.31,0,.4.4,0,0,1,0-.76A1.45,1.45,0,0,1,8.42,103.58Z"/><path id="_Path_436" data-name="&lt;Path&gt;" class="cls-1" d="M11.84,101.6a.4.4,0,0,1,0,.76,1.45,1.45,0,0,1-1.31,0,.4.4,0,0,1,0-.76A1.45,1.45,0,0,1,11.84,101.6Z"/><path id="_Path_437" data-name="&lt;Path&gt;" class="cls-1" d="M15.26,99.63a.4.4,0,0,1,0,.76,1.45,1.45,0,0,1-1.31,0,.4.4,0,0,1,0-.76A1.45,1.45,0,0,1,15.26,99.63Z"/><path id="_Path_438" data-name="&lt;Path&gt;" class="cls-1" d="M18.68,97.66a.4.4,0,0,1,0,.76,1.44,1.44,0,0,1-1.31,0,.4.4,0,0,1,0-.76A1.45,1.45,0,0,1,18.68,97.66Z"/><path id="_Path_439" data-name="&lt;Path&gt;" class="cls-1" d="M59.91,140.82a.4.4,0,0,1,0,.76,1.45,1.45,0,0,1-1.31,0,.4.4,0,0,1,0-.76A1.44,1.44,0,0,1,59.91,140.82Z"/><path id="_Path_440" data-name="&lt;Path&gt;" class="cls-1" d="M63.33,138.84a.4.4,0,0,1,0,.76,1.45,1.45,0,0,1-1.31,0,.4.4,0,0,1,0-.76A1.45,1.45,0,0,1,63.33,138.84Z"/><path id="_Path_441" data-name="&lt;Path&gt;" class="cls-1" d="M66.75,136.87a.4.4,0,0,1,0,.76,1.45,1.45,0,0,1-1.31,0,.4.4,0,0,1,0-.76A1.45,1.45,0,0,1,66.75,136.87Z"/><path id="_Path_442" data-name="&lt;Path&gt;" class="cls-1" d="M70.17,134.89a.4.4,0,0,1,0,.76,1.45,1.45,0,0,1-1.31,0,.4.4,0,0,1,0-.76A1.44,1.44,0,0,1,70.17,134.89Z"/><path id="_Path_443" data-name="&lt;Path&gt;" class="cls-1" d="M73.59,132.92a.4.4,0,0,1,0,.76,1.44,1.44,0,0,1-1.31,0,.4.4,0,0,1,0-.76A1.44,1.44,0,0,1,73.59,132.92Z"/><path id="_Path_444" data-name="&lt;Path&gt;" class="cls-1" d="M53.07,140.82a.4.4,0,0,1,0,.76,1.45,1.45,0,0,1-1.31,0,.4.4,0,0,1,0-.76A1.44,1.44,0,0,1,53.07,140.82Z"/><path id="_Path_445" data-name="&lt;Path&gt;" class="cls-1" d="M56.49,138.84a.4.4,0,0,1,0,.76,1.45,1.45,0,0,1-1.31,0,.4.4,0,0,1,0-.76A1.45,1.45,0,0,1,56.49,138.84Z"/><path id="_Path_446" data-name="&lt;Path&gt;" class="cls-1" d="M59.91,136.87a.4.4,0,0,1,0,.76,1.45,1.45,0,0,1-1.31,0,.4.4,0,0,1,0-.76A1.45,1.45,0,0,1,59.91,136.87Z"/><path id="_Path_447" data-name="&lt;Path&gt;" class="cls-1" d="M63.33,134.89a.4.4,0,0,1,0,.76,1.45,1.45,0,0,1-1.31,0,.4.4,0,0,1,0-.76A1.44,1.44,0,0,1,63.33,134.89Z"/><path id="_Path_448" data-name="&lt;Path&gt;" class="cls-1" d="M66.75,132.92a.4.4,0,0,1,0,.76,1.44,1.44,0,0,1-1.31,0,.4.4,0,0,1,0-.76A1.45,1.45,0,0,1,66.75,132.92Z"/><path id="_Path_449" data-name="&lt;Path&gt;" class="cls-1" d="M70.17,130.95a.4.4,0,0,1,0,.76,1.45,1.45,0,0,1-1.31,0,.4.4,0,0,1,0-.76A1.45,1.45,0,0,1,70.17,130.95Z"/><path id="_Path_450" data-name="&lt;Path&gt;" class="cls-1" d="M73.59,129a.4.4,0,0,1,0,.76,1.45,1.45,0,0,1-1.31,0,.4.4,0,0,1,0-.76A1.45,1.45,0,0,1,73.59,129Z"/><path id="_Path_451" data-name="&lt;Path&gt;" class="cls-1" d="M76.87,127.32a.4.4,0,0,1,0,.76,1.45,1.45,0,0,1-1.31,0,.4.4,0,0,1,0-.76A1.45,1.45,0,0,1,76.87,127.32Z"/><path id="_Path_452" data-name="&lt;Path&gt;" class="cls-1" d="M77,131a.4.4,0,0,1,0,.76,1.45,1.45,0,0,1-1.31,0,.4.4,0,0,1,0-.76A1.45,1.45,0,0,1,77,131Z"/></g><g class="cls-2"><polygon class="cls-3" points="20.2 78.96 45.58 64.21 45.53 82.46 20.14 97.21 20.2 78.96"/><polygon class="cls-3" points="20.3 42.63 45.69 27.88 45.63 46.04 20.25 60.79 20.3 42.63"/><polygon class="cls-4" points="95.67 143.31 100.38 148.22 106.01 150.99 112.46 151.19 123.42 144.23 108.16 135.22 95.67 143.31"/><polygon class="cls-5" points="95.67 143.31 100.38 148.22 106.01 150.99 112.46 151.19 123.42 144.23 108.16 135.22 95.67 143.31"/><polyline id="_Path_453" data-name="&lt;Path&gt;" class="cls-6" points="93.97 123.39 91.51 122.28 90.41 122.55 89.17 124.42 88.79 129.25 89.56 133.64 96 143.75 111.59 134.99"/><path class="cls-4" d="M63.13,92.62,45.53,82.46,20.14,97.21l17.6,10.16c4.66,2.69,7.9,3,9.78,1.93L72.91,94.55C71,95.65,67.79,95.31,63.13,92.62Z"/><path class="cls-7" d="M63.13,92.62,45.53,82.46,20.14,97.21l17.6,10.16c4.66,2.69,7.9,3,9.78,1.93L72.91,94.55C71,95.65,67.79,95.31,63.13,92.62Z"/><path class="cls-4" d="M47.48,73,72.87,58.25c-1.79,1-4.63.84-8.35-1.31L45.63,46,20.25,60.79,39.13,71.7C42.85,73.84,45.69,74,47.48,73Z"/><path class="cls-7" d="M47.48,73,72.87,58.25c-1.79,1-4.63.84-8.35-1.31L45.63,46,20.25,60.79,39.13,71.7C42.85,73.84,45.69,74,47.48,73Z"/><polygon class="cls-4" points="4.55 15.47 29.93 0.72 66.57 21.87 41.18 36.62 4.55 15.47"/><polygon class="cls-7" points="4.55 15.47 29.93 0.72 66.57 21.87 41.18 36.62 4.55 15.47"/><path class="cls-7" d="M137.61,136.06l-25.39,14.75c-2.25,1.31-5.88.74-9.63-1.43-6.65-3.84-13.69-12.71-14.08-25.09l25.39-14.75c.39,12.38,7.43,21.25,14.08,25.09C131.73,136.8,135.37,137.36,137.61,136.06Z"/><path class="cls-3" d="M92.61,105.12,118,90.37c-1.94,1.13-3.17,3.64-3.7,7.45L88.91,112.57C89.45,108.75,90.67,106.25,92.61,105.12Z"/><polygon class="cls-4" points="112.65 150.53 138.04 135.77 154.73 145.41 129.34 160.16 112.65 150.53"/><polygon class="cls-7" points="112.65 150.53 138.04 135.77 154.73 145.41 129.34 160.16 112.65 150.53"/><path class="cls-4" d="M55.39,86.7c18.21,18.16,18.71,59.68-17,39L4.29,106.08l.26-90.61L41.18,36.62C70,53.77,70.48,86.55,55.39,86.7Zm-16.26-15c13.21,7.63,15.36-9.32-1.6-19.11l-17.24-10-.05,18.16L39.13,71.7m-1.39,35.68c16.1,9.29,15.17-9.53.32-18.1L20.2,79l-.05,18.25,17.6,10.16"/><path class="cls-4" d="M66.57,21.87,41.18,36.62C50.3,42,56.69,48.93,60.45,55.9L86,41.75A51.68,51.68,0,0,0,66.57,21.87Z"/><path class="cls-5" d="M63.13,92.62,45.53,82.46,20.14,97.21l17.6,10.16c4.66,2.69,7.9,3,9.78,1.93L72.91,94.55C71,95.65,67.79,95.31,63.13,92.62Z"/><path class="cls-5" d="M47.48,73,72.87,58.25c-1.79,1-4.63.84-8.35-1.31L45.63,46,20.25,60.79,39.13,71.7C42.85,73.84,45.69,74,47.48,73Z"/><polygon class="cls-5" points="4.55 21.31 29.93 6.56 66.57 27.71 41.18 42.46 4.55 21.31"/><path class="cls-3" d="M86.69,115.06,61.3,129.82c10.89-6.33,6.81-30.43-5.91-43.11L80.78,72C93.5,84.64,97.58,108.73,86.69,115.06Z"/><path class="cls-7" d="M55.39,86.7c18.21,18.16,18.71,59.68-17,39L4.29,106.08l.26-90.61L41.18,36.62C70,53.77,70.48,86.55,55.39,86.7Zm-16.26-15c13.21,7.63,15.36-9.32-1.6-19.11l-17.24-10-.05,18.16L39.13,71.7m-1.39,35.68c16.1,9.29,15.17-9.53.32-18.1L20.2,79l-.05,18.25,17.6,10.16"/><polygon points="46.24 39.79 71.81 24.92 66.57 21.87 41.18 36.62 46.24 39.79"/><polygon class="cls-4" points="88.91 112.57 114.3 97.81 140.46 112.92 115.08 127.67 88.91 112.57"/><polygon class="cls-5" points="88.91 118.31 114.3 103.55 140.46 118.66 115.08 133.41 88.91 118.31"/><polygon class="cls-7" points="88.91 112.57 114.3 97.81 140.46 112.92 115.08 127.67 88.91 112.57"/><path class="cls-4" d="M81.53,89.42l25.39-14.75c5.14-3,12.32-1.86,20.56,2.89a58,58,0,0,1,28.24,43.14l-25.39,14.75A58,58,0,0,0,102.1,92.32C93.86,87.56,86.68,86.43,81.53,89.42Z"/><path class="cls-7" d="M81.53,89.42l25.39-14.75c5.14-3,12.32-1.86,20.56,2.89a58,58,0,0,1,28.24,43.14l-25.39,14.75A58,58,0,0,0,102.1,92.32C93.86,87.56,86.68,86.43,81.53,89.42Z"/><path class="cls-7" d="M130.34,135.46a99.3,99.3,0,0,1,.46,13.25L88.51,124.29c.39,12.38,7.43,21.25,14.08,25.09,4,2.31,7.86,2.8,10.06,1.15l16.69,9.64c-2.35,6.51-10.74,12-26.93,2.64A58.28,58.28,0,0,1,73.2,111.53c.07-23.67,12.35-28.77,28.9-19.21A58,58,0,0,1,130.34,135.46ZM88.91,112.57l26.16,15.1a25.41,25.41,0,0,0-13-21c-7.72-4.46-12-2.27-13.15,5.87"/><path class="cls-4" d="M130.34,135.46a99.3,99.3,0,0,1,.46,13.25L88.51,124.29c.39,12.38,7.43,21.25,14.08,25.09,4,2.31,7.86,2.8,10.06,1.15l16.69,9.64c-2.35,6.51-10.74,12-26.93,2.64A58.28,58.28,0,0,1,73.2,111.53c.07-23.67,12.35-28.77,28.9-19.21A58,58,0,0,1,130.34,135.46ZM88.91,112.57l26.16,15.1a25.41,25.41,0,0,0-13-21c-7.72-4.46-12-2.27-13.15,5.87"/><polygon class="cls-5" points="112.65 154.17 138.04 139.42 154.73 149.05 129.34 163.81 112.65 154.17"/><path class="cls-8" d="M149.81,151.37l-25.39,14.75a11.25,11.25,0,0,0,4.92-6l25.39-14.75A11.25,11.25,0,0,1,149.81,151.37Z"/><path class="cls-5" d="M85.92,94.92l20.9-12.15c4.24-2.46,10.15-1.53,16.93,2.38A47.73,47.73,0,0,1,147,120.68l-20.9,12.15A47.73,47.73,0,0,0,102.85,97.3C96.07,93.39,90.16,92.46,85.92,94.92Z"/><path class="cls-7" d="M130.34,135.46a99.3,99.3,0,0,1,.46,13.25L88.51,124.29c.39,12.38,7.43,21.25,14.08,25.09,4,2.31,7.86,2.8,10.06,1.15l16.69,9.64c-2.35,6.51-10.74,12-26.93,2.64A58.28,58.28,0,0,1,73.2,111.53c.07-23.67,12.35-28.77,28.9-19.21A58,58,0,0,1,130.34,135.46ZM88.91,112.57l26.16,15.1a25.41,25.41,0,0,0-13-21c-7.72-4.46-12-2.27-13.15,5.87"/><path class="cls-3" d="M60.45,55.9c6.84,12.68,5,25.67-5.06,30.8L85.15,70.8C91.7,67,92.78,54.36,86,41.75Z"/></g><g class="cls-2"><polygon class="cls-4" points="120.46 82.27 120.42 94.37 83.54 73.08 83.57 60.97 120.46 82.27"/><polygon class="cls-4" points="83.57 60.97 108.96 46.22 145.84 67.51 120.46 82.27 83.57 60.97"/><polygon class="cls-5" points="83.57 66.1 108.96 51.35 145.84 72.64 120.46 87.39 83.57 66.1"/><polygon class="cls-7" points="120.46 82.27 120.42 94.37 83.54 73.08 83.57 60.97 120.46 82.27"/><polygon class="cls-3" points="120.46 82.27 145.84 67.51 145.81 79.62 120.42 94.37 120.46 82.27"/><polygon class="cls-7" points="83.57 60.97 108.96 46.22 145.84 67.51 120.46 82.27 83.57 60.97"/><path class="cls-3" d="M130.34,135.46l25.39-14.75a99.3,99.3,0,0,1,.46,13.25L130.8,148.7A99.3,99.3,0,0,0,130.34,135.46Z"/><path d="M126.51,119.27l25.89-13.81c.41,3.3,1.05,2.78,1.9,6.13l-25.39,14.75C127.56,122.27,126.91,122.58,126.51,119.27Z"/></g><path class="cls-9" d="M66.57,21.87,41.18,36.62C50.3,42,56.69,48.93,60.45,55.9L86,41.75A51.68,51.68,0,0,0,66.57,21.87Z"/></g></g></svg>