<svg xmlns="http://www.w3.org/2000/svg" viewBox="0 0 62.73 61.18"><defs><style>.cls-1{fill:#271f3b;}</style></defs><title>Button Github_1</title><g id="Layer_2" data-name="Layer 2"><g id="Contact_New" data-name="Contact New"><path class="cls-1" d="M31.36,0a31.37,31.37,0,0,0-9.91,61.13c1.57.29,2.07-.68,2.07-1.51V53.78C14.8,55.68,13,50.08,13,50.08c-1.43-3.63-3.48-4.59-3.48-4.59-2.85-1.95.22-1.91.22-1.91,3.15.22,4.81,3.23,4.81,3.23,2.8,4.79,7.34,3.41,9.13,2.61a6.65,6.65,0,0,1,2-4.19c-7-.8-14.29-3.49-14.29-15.5a12.14,12.14,0,0,1,3.23-8.42,11.28,11.28,0,0,1,.31-8.3s2.63-.84,8.63,3.21a29.73,29.73,0,0,1,15.71,0c6-4.06,8.62-3.21,8.62-3.21a11.27,11.27,0,0,1,.31,8.3,12.11,12.11,0,0,1,3.23,8.42c0,12-7.34,14.7-14.32,15.48,1.12,1,2.15,2.88,2.15,5.81v8.61c0,.83.5,1.81,2.09,1.51A31.37,31.37,0,0,0,31.36,0Z"/></g></g></svg>