<svg xmlns="http://www.w3.org/2000/svg" viewBox="0 0 117.39 136.69"><defs><style>.cls-1{fill:#16110d;}.cls-2{isolation:isolate;}.cls-3,.cls-5{fill:#ffbe2e;stroke:#000;stroke-miterlimit:10;}.cls-3{stroke-width:0.51px;}.cls-4{fill:#fec;}.cls-5{stroke-width:1.09px;}</style></defs><title>Button Code</title><g id="Layer_2" data-name="Layer 2"><g id="Code"><g id="_Group_" data-name="&lt;Group&gt;"><path id="_Path_" data-name="&lt;Path&gt;" class="cls-1" d="M33,58.36a.22.22,0,0,1,0,.41.78.78,0,0,1-.71,0,.22.22,0,0,1,0-.41A.78.78,0,0,1,33,58.36Z"/><path id="_Path_2" data-name="&lt;Path&gt;" class="cls-1" d="M34.82,57.3a.22.22,0,0,1,0,.41.78.78,0,0,1-.71,0,.22.22,0,0,1,0-.41A.78.78,0,0,1,34.82,57.3Z"/><path id="_Path_3" data-name="&lt;Path&gt;" class="cls-1" d="M36.66,56.23a.22.22,0,0,1,0,.41.78.78,0,0,1-.71,0,.22.22,0,0,1,0-.41A.78.78,0,0,1,36.66,56.23Z"/><path id="_Path_4" data-name="&lt;Path&gt;" class="cls-1" d="M38.51,55.17a.22.22,0,0,1,0,.41.78.78,0,0,1-.71,0,.22.22,0,0,1,0-.41A.78.78,0,0,1,38.51,55.17Z"/><path id="_Path_5" data-name="&lt;Path&gt;" class="cls-1" d="M40.36,54.1a.22.22,0,0,1,0,.41.78.78,0,0,1-.71,0,.22.22,0,0,1,0-.41A.78.78,0,0,1,40.36,54.1Z"/><path id="_Path_6" data-name="&lt;Path&gt;" class="cls-1" d="M42.2,53a.22.22,0,0,1,0,.41.78.78,0,0,1-.71,0,.22.22,0,0,1,0-.41A.78.78,0,0,1,42.2,53Z"/><path id="_Path_7" data-name="&lt;Path&gt;" class="cls-1" d="M44,52a.22.22,0,0,1,0,.41.78.78,0,0,1-.71,0,.22.22,0,0,1,0-.41A.78.78,0,0,1,44,52Z"/><path id="_Path_8" data-name="&lt;Path&gt;" class="cls-1" d="M45.9,50.9a.22.22,0,0,1,0,.41.78.78,0,0,1-.71,0,.22.22,0,0,1,0-.41A.78.78,0,0,1,45.9,50.9Z"/><path id="_Path_9" data-name="&lt;Path&gt;" class="cls-1" d="M31.12,57.3a.22.22,0,0,1,0,.41.78.78,0,0,1-.71,0,.22.22,0,0,1,0-.41A.78.78,0,0,1,31.12,57.3Z"/><path id="_Path_10" data-name="&lt;Path&gt;" class="cls-1" d="M33,56.23a.22.22,0,0,1,0,.41.78.78,0,0,1-.71,0,.22.22,0,0,1,0-.41A.78.78,0,0,1,33,56.23Z"/><path id="_Path_11" data-name="&lt;Path&gt;" class="cls-1" d="M34.82,55.17a.22.22,0,0,1,0,.41.78.78,0,0,1-.71,0,.22.22,0,0,1,0-.41A.78.78,0,0,1,34.82,55.17Z"/><path id="_Path_12" data-name="&lt;Path&gt;" class="cls-1" d="M36.66,54.1a.22.22,0,0,1,0,.41.78.78,0,0,1-.71,0,.22.22,0,0,1,0-.41A.78.78,0,0,1,36.66,54.1Z"/><path id="_Path_13" data-name="&lt;Path&gt;" class="cls-1" d="M38.51,53a.22.22,0,0,1,0,.41.78.78,0,0,1-.71,0,.22.22,0,0,1,0-.41A.78.78,0,0,1,38.51,53Z"/><path id="_Path_14" data-name="&lt;Path&gt;" class="cls-1" d="M40.36,52a.22.22,0,0,1,0,.41.78.78,0,0,1-.71,0,.22.22,0,0,1,0-.41A.78.78,0,0,1,40.36,52Z"/><path id="_Path_15" data-name="&lt;Path&gt;" class="cls-1" d="M42.2,50.9a.22.22,0,0,1,0,.41.78.78,0,0,1-.71,0,.22.22,0,0,1,0-.41A.78.78,0,0,1,42.2,50.9Z"/><path id="_Path_16" data-name="&lt;Path&gt;" class="cls-1" d="M44,49.84a.22.22,0,0,1,0,.41.78.78,0,0,1-.71,0,.22.22,0,0,1,0-.41A.78.78,0,0,1,44,49.84Z"/><path id="_Path_17" data-name="&lt;Path&gt;" class="cls-1" d="M29.28,56.23a.22.22,0,0,1,0,.41.78.78,0,0,1-.71,0,.22.22,0,0,1,0-.41A.78.78,0,0,1,29.28,56.23Z"/><path id="_Path_18" data-name="&lt;Path&gt;" class="cls-1" d="M31.12,55.17a.22.22,0,0,1,0,.41.78.78,0,0,1-.71,0,.22.22,0,0,1,0-.41A.78.78,0,0,1,31.12,55.17Z"/><path id="_Path_19" data-name="&lt;Path&gt;" class="cls-1" d="M33,54.1a.22.22,0,0,1,0,.41.78.78,0,0,1-.71,0,.22.22,0,0,1,0-.41A.78.78,0,0,1,33,54.1Z"/><path id="_Path_20" data-name="&lt;Path&gt;" class="cls-1" d="M34.82,53a.22.22,0,0,1,0,.41.78.78,0,0,1-.71,0,.22.22,0,0,1,0-.41A.78.78,0,0,1,34.82,53Z"/><path id="_Path_21" data-name="&lt;Path&gt;" class="cls-1" d="M36.66,52a.22.22,0,0,1,0,.41.78.78,0,0,1-.71,0A.22.22,0,0,1,36,52,.78.78,0,0,1,36.66,52Z"/><path id="_Path_22" data-name="&lt;Path&gt;" class="cls-1" d="M38.51,50.9a.22.22,0,0,1,0,.41.78.78,0,0,1-.71,0,.22.22,0,0,1,0-.41A.78.78,0,0,1,38.51,50.9Z"/><path id="_Path_23" data-name="&lt;Path&gt;" class="cls-1" d="M40.36,49.84a.22.22,0,0,1,0,.41.78.78,0,0,1-.71,0,.22.22,0,0,1,0-.41A.78.78,0,0,1,40.36,49.84Z"/><path id="_Path_24" data-name="&lt;Path&gt;" class="cls-1" d="M42.2,48.77a.22.22,0,0,1,0,.41.78.78,0,0,1-.71,0,.22.22,0,0,1,0-.41A.78.78,0,0,1,42.2,48.77Z"/><path id="_Path_25" data-name="&lt;Path&gt;" class="cls-1" d="M27.43,55.17a.22.22,0,0,1,0,.41.78.78,0,0,1-.71,0,.22.22,0,0,1,0-.41A.78.78,0,0,1,27.43,55.17Z"/><path id="_Path_26" data-name="&lt;Path&gt;" class="cls-1" d="M29.28,54.1a.22.22,0,0,1,0,.41.78.78,0,0,1-.71,0,.22.22,0,0,1,0-.41A.78.78,0,0,1,29.28,54.1Z"/><path id="_Path_27" data-name="&lt;Path&gt;" class="cls-1" d="M31.12,53a.22.22,0,0,1,0,.41.78.78,0,0,1-.71,0,.22.22,0,0,1,0-.41A.78.78,0,0,1,31.12,53Z"/><path id="_Path_28" data-name="&lt;Path&gt;" class="cls-1" d="M33,52a.22.22,0,0,1,0,.41.78.78,0,0,1-.71,0,.22.22,0,0,1,0-.41A.78.78,0,0,1,33,52Z"/><path id="_Path_29" data-name="&lt;Path&gt;" class="cls-1" d="M34.82,50.9a.22.22,0,0,1,0,.41.78.78,0,0,1-.71,0,.22.22,0,0,1,0-.41A.78.78,0,0,1,34.82,50.9Z"/><path id="_Path_30" data-name="&lt;Path&gt;" class="cls-1" d="M36.66,49.84a.22.22,0,0,1,0,.41.78.78,0,0,1-.71,0,.22.22,0,0,1,0-.41A.78.78,0,0,1,36.66,49.84Z"/><path id="_Path_31" data-name="&lt;Path&gt;" class="cls-1" d="M38.51,48.77a.22.22,0,0,1,0,.41.78.78,0,0,1-.71,0,.22.22,0,0,1,0-.41A.78.78,0,0,1,38.51,48.77Z"/><path id="_Path_32" data-name="&lt;Path&gt;" class="cls-1" d="M40.36,47.7a.22.22,0,0,1,0,.41.78.78,0,0,1-.71,0,.22.22,0,0,1,0-.41A.78.78,0,0,1,40.36,47.7Z"/><path id="_Path_33" data-name="&lt;Path&gt;" class="cls-1" d="M25.58,54.1a.22.22,0,0,1,0,.41.78.78,0,0,1-.71,0,.22.22,0,0,1,0-.41A.78.78,0,0,1,25.58,54.1Z"/><path id="_Path_34" data-name="&lt;Path&gt;" class="cls-1" d="M27.43,53a.22.22,0,0,1,0,.41.78.78,0,0,1-.71,0,.22.22,0,0,1,0-.41A.78.78,0,0,1,27.43,53Z"/><path id="_Path_35" data-name="&lt;Path&gt;" class="cls-1" d="M29.28,52a.22.22,0,0,1,0,.41.78.78,0,0,1-.71,0,.22.22,0,0,1,0-.41A.78.78,0,0,1,29.28,52Z"/><path id="_Path_36" data-name="&lt;Path&gt;" class="cls-1" d="M31.12,50.9a.22.22,0,0,1,0,.41.78.78,0,0,1-.71,0,.22.22,0,0,1,0-.41A.78.78,0,0,1,31.12,50.9Z"/><path id="_Path_37" data-name="&lt;Path&gt;" class="cls-1" d="M33,49.84a.22.22,0,0,1,0,.41.78.78,0,0,1-.71,0,.22.22,0,0,1,0-.41A.78.78,0,0,1,33,49.84Z"/><path id="_Path_38" data-name="&lt;Path&gt;" class="cls-1" d="M34.82,48.77a.22.22,0,0,1,0,.41.78.78,0,0,1-.71,0,.22.22,0,0,1,0-.41A.78.78,0,0,1,34.82,48.77Z"/><path id="_Path_39" data-name="&lt;Path&gt;" class="cls-1" d="M36.66,47.7a.22.22,0,0,1,0,.41.78.78,0,0,1-.71,0,.22.22,0,0,1,0-.41A.78.78,0,0,1,36.66,47.7Z"/><path id="_Path_40" data-name="&lt;Path&gt;" class="cls-1" d="M38.51,46.64a.22.22,0,0,1,0,.41.78.78,0,0,1-.71,0,.22.22,0,0,1,0-.41A.78.78,0,0,1,38.51,46.64Z"/><path id="_Path_41" data-name="&lt;Path&gt;" class="cls-1" d="M23.72,53a.22.22,0,0,1,0,.41.78.78,0,0,1-.71,0A.22.22,0,0,1,23,53,.78.78,0,0,1,23.72,53Z"/><path id="_Path_42" data-name="&lt;Path&gt;" class="cls-1" d="M25.57,52a.22.22,0,0,1,0,.41.78.78,0,0,1-.71,0,.22.22,0,0,1,0-.41A.78.78,0,0,1,25.57,52Z"/><path id="_Path_43" data-name="&lt;Path&gt;" class="cls-1" d="M27.41,50.89a.22.22,0,0,1,0,.41.78.78,0,0,1-.71,0,.22.22,0,0,1,0-.41A.78.78,0,0,1,27.41,50.89Z"/><path id="_Path_44" data-name="&lt;Path&gt;" class="cls-1" d="M29.26,49.82a.22.22,0,0,1,0,.41.78.78,0,0,1-.71,0,.22.22,0,0,1,0-.41A.78.78,0,0,1,29.26,49.82Z"/><path id="_Path_45" data-name="&lt;Path&gt;" class="cls-1" d="M31.11,48.76a.22.22,0,0,1,0,.41.78.78,0,0,1-.71,0,.22.22,0,0,1,0-.41A.78.78,0,0,1,31.11,48.76Z"/><path id="_Path_46" data-name="&lt;Path&gt;" class="cls-1" d="M33,47.69a.22.22,0,0,1,0,.41.78.78,0,0,1-.71,0,.22.22,0,0,1,0-.41A.78.78,0,0,1,33,47.69Z"/><path id="_Path_47" data-name="&lt;Path&gt;" class="cls-1" d="M34.8,46.63a.22.22,0,0,1,0,.41.78.78,0,0,1-.71,0,.22.22,0,0,1,0-.41A.78.78,0,0,1,34.8,46.63Z"/><path id="_Path_48" data-name="&lt;Path&gt;" class="cls-1" d="M36.65,45.56a.22.22,0,0,1,0,.41.78.78,0,0,1-.71,0,.22.22,0,0,1,0-.41A.78.78,0,0,1,36.65,45.56Z"/><path id="_Path_49" data-name="&lt;Path&gt;" class="cls-1" d="M21.87,52a.22.22,0,0,1,0,.41.78.78,0,0,1-.71,0,.22.22,0,0,1,0-.41A.78.78,0,0,1,21.87,52Z"/><path id="_Path_50" data-name="&lt;Path&gt;" class="cls-1" d="M23.72,50.89a.22.22,0,0,1,0,.41.78.78,0,0,1-.71,0,.22.22,0,0,1,0-.41A.78.78,0,0,1,23.72,50.89Z"/><path id="_Path_51" data-name="&lt;Path&gt;" class="cls-1" d="M25.57,49.82a.22.22,0,0,1,0,.41.78.78,0,0,1-.71,0,.22.22,0,0,1,0-.41A.78.78,0,0,1,25.57,49.82Z"/><path id="_Path_52" data-name="&lt;Path&gt;" class="cls-1" d="M27.41,48.76a.22.22,0,0,1,0,.41.78.78,0,0,1-.71,0,.22.22,0,0,1,0-.41A.78.78,0,0,1,27.41,48.76Z"/><path id="_Path_53" data-name="&lt;Path&gt;" class="cls-1" d="M29.26,47.69a.22.22,0,0,1,0,.41.78.78,0,0,1-.71,0,.22.22,0,0,1,0-.41A.78.78,0,0,1,29.26,47.69Z"/><path id="_Path_54" data-name="&lt;Path&gt;" class="cls-1" d="M31.11,46.63a.22.22,0,0,1,0,.41.78.78,0,0,1-.71,0,.22.22,0,0,1,0-.41A.78.78,0,0,1,31.11,46.63Z"/><path id="_Path_55" data-name="&lt;Path&gt;" class="cls-1" d="M33,45.56A.22.22,0,0,1,33,46a.78.78,0,0,1-.71,0,.22.22,0,0,1,0-.41A.78.78,0,0,1,33,45.56Z"/><path id="_Path_56" data-name="&lt;Path&gt;" class="cls-1" d="M34.8,44.49a.22.22,0,0,1,0,.41.78.78,0,0,1-.71,0,.22.22,0,0,1,0-.41A.78.78,0,0,1,34.8,44.49Z"/><path id="_Path_57" data-name="&lt;Path&gt;" class="cls-1" d="M20,50.89a.22.22,0,0,1,0,.41.78.78,0,0,1-.71,0,.22.22,0,0,1,0-.41A.78.78,0,0,1,20,50.89Z"/><path id="_Path_58" data-name="&lt;Path&gt;" class="cls-1" d="M21.87,49.82a.22.22,0,0,1,0,.41.78.78,0,0,1-.71,0,.22.22,0,0,1,0-.41A.78.78,0,0,1,21.87,49.82Z"/><path id="_Path_59" data-name="&lt;Path&gt;" class="cls-1" d="M23.72,48.76a.22.22,0,0,1,0,.41.78.78,0,0,1-.71,0,.22.22,0,0,1,0-.41A.78.78,0,0,1,23.72,48.76Z"/><path id="_Path_60" data-name="&lt;Path&gt;" class="cls-1" d="M25.57,47.69a.22.22,0,0,1,0,.41.78.78,0,0,1-.71,0,.22.22,0,0,1,0-.41A.78.78,0,0,1,25.57,47.69Z"/><path id="_Path_61" data-name="&lt;Path&gt;" class="cls-1" d="M27.41,46.63a.22.22,0,0,1,0,.41.78.78,0,0,1-.71,0,.22.22,0,0,1,0-.41A.78.78,0,0,1,27.41,46.63Z"/><path id="_Path_62" data-name="&lt;Path&gt;" class="cls-1" d="M29.26,45.56a.22.22,0,0,1,0,.41.78.78,0,0,1-.71,0,.22.22,0,0,1,0-.41A.78.78,0,0,1,29.26,45.56Z"/><path id="_Path_63" data-name="&lt;Path&gt;" class="cls-1" d="M31.11,44.49a.22.22,0,0,1,0,.41.78.78,0,0,1-.71,0,.22.22,0,0,1,0-.41A.78.78,0,0,1,31.11,44.49Z"/><path id="_Path_64" data-name="&lt;Path&gt;" class="cls-1" d="M33,43.43a.22.22,0,0,1,0,.41.78.78,0,0,1-.71,0,.22.22,0,0,1,0-.41A.78.78,0,0,1,33,43.43Z"/><path id="_Path_65" data-name="&lt;Path&gt;" class="cls-1" d="M18.18,49.82a.22.22,0,0,1,0,.41.78.78,0,0,1-.71,0,.22.22,0,0,1,0-.41A.78.78,0,0,1,18.18,49.82Z"/><path id="_Path_66" data-name="&lt;Path&gt;" class="cls-1" d="M20,48.76a.22.22,0,0,1,0,.41.78.78,0,0,1-.71,0,.22.22,0,0,1,0-.41A.78.78,0,0,1,20,48.76Z"/><path id="_Path_67" data-name="&lt;Path&gt;" class="cls-1" d="M21.87,47.69a.22.22,0,0,1,0,.41.78.78,0,0,1-.71,0,.22.22,0,0,1,0-.41A.78.78,0,0,1,21.87,47.69Z"/><path id="_Path_68" data-name="&lt;Path&gt;" class="cls-1" d="M23.72,46.63a.22.22,0,0,1,0,.41A.78.78,0,0,1,23,47a.22.22,0,0,1,0-.41A.78.78,0,0,1,23.72,46.63Z"/><path id="_Path_69" data-name="&lt;Path&gt;" class="cls-1" d="M25.57,45.56a.22.22,0,0,1,0,.41.78.78,0,0,1-.71,0,.22.22,0,0,1,0-.41A.78.78,0,0,1,25.57,45.56Z"/><path id="_Path_70" data-name="&lt;Path&gt;" class="cls-1" d="M27.41,44.49a.22.22,0,0,1,0,.41.78.78,0,0,1-.71,0,.22.22,0,0,1,0-.41A.78.78,0,0,1,27.41,44.49Z"/><path id="_Path_71" data-name="&lt;Path&gt;" class="cls-1" d="M29.26,43.43a.22.22,0,0,1,0,.41.78.78,0,0,1-.71,0,.22.22,0,0,1,0-.41A.78.78,0,0,1,29.26,43.43Z"/><path id="_Path_72" data-name="&lt;Path&gt;" class="cls-1" d="M31.11,42.36a.22.22,0,0,1,0,.41.78.78,0,0,1-.71,0,.22.22,0,0,1,0-.41A.78.78,0,0,1,31.11,42.36Z"/><path id="_Path_73" data-name="&lt;Path&gt;" class="cls-1" d="M16.33,48.76a.22.22,0,0,1,0,.41.78.78,0,0,1-.71,0,.22.22,0,0,1,0-.41A.78.78,0,0,1,16.33,48.76Z"/><path id="_Path_74" data-name="&lt;Path&gt;" class="cls-1" d="M18.18,47.69a.22.22,0,0,1,0,.41.78.78,0,0,1-.71,0,.22.22,0,0,1,0-.41A.78.78,0,0,1,18.18,47.69Z"/><path id="_Path_75" data-name="&lt;Path&gt;" class="cls-1" d="M20,46.63A.22.22,0,0,1,20,47a.78.78,0,0,1-.71,0,.22.22,0,0,1,0-.41A.78.78,0,0,1,20,46.63Z"/><path id="_Path_76" data-name="&lt;Path&gt;" class="cls-1" d="M21.87,45.56a.22.22,0,0,1,0,.41.78.78,0,0,1-.71,0,.22.22,0,0,1,0-.41A.78.78,0,0,1,21.87,45.56Z"/><path id="_Path_77" data-name="&lt;Path&gt;" class="cls-1" d="M23.72,44.49a.22.22,0,0,1,0,.41.78.78,0,0,1-.71,0,.22.22,0,0,1,0-.41A.78.78,0,0,1,23.72,44.49Z"/><path id="_Path_78" data-name="&lt;Path&gt;" class="cls-1" d="M25.57,43.43a.22.22,0,0,1,0,.41.78.78,0,0,1-.71,0,.22.22,0,0,1,0-.41A.78.78,0,0,1,25.57,43.43Z"/><path id="_Path_79" data-name="&lt;Path&gt;" class="cls-1" d="M27.41,42.36a.22.22,0,0,1,0,.41.78.78,0,0,1-.71,0,.22.22,0,0,1,0-.41A.78.78,0,0,1,27.41,42.36Z"/><path id="_Path_80" data-name="&lt;Path&gt;" class="cls-1" d="M29.26,41.29a.22.22,0,0,1,0,.41.78.78,0,0,1-.71,0,.22.22,0,0,1,0-.41A.78.78,0,0,1,29.26,41.29Z"/><path id="_Path_81" data-name="&lt;Path&gt;" class="cls-1" d="M14.49,47.69a.22.22,0,0,1,0,.41.78.78,0,0,1-.71,0,.22.22,0,0,1,0-.41A.78.78,0,0,1,14.49,47.69Z"/><path id="_Path_82" data-name="&lt;Path&gt;" class="cls-1" d="M16.33,46.63a.22.22,0,0,1,0,.41.78.78,0,0,1-.71,0,.22.22,0,0,1,0-.41A.78.78,0,0,1,16.33,46.63Z"/><path id="_Path_83" data-name="&lt;Path&gt;" class="cls-1" d="M18.18,45.56a.22.22,0,0,1,0,.41.78.78,0,0,1-.71,0,.22.22,0,0,1,0-.41A.78.78,0,0,1,18.18,45.56Z"/><path id="_Path_84" data-name="&lt;Path&gt;" class="cls-1" d="M20,44.49a.22.22,0,0,1,0,.41.78.78,0,0,1-.71,0,.22.22,0,0,1,0-.41A.78.78,0,0,1,20,44.49Z"/><path id="_Path_85" data-name="&lt;Path&gt;" class="cls-1" d="M21.87,43.43a.22.22,0,0,1,0,.41.78.78,0,0,1-.71,0,.22.22,0,0,1,0-.41A.78.78,0,0,1,21.87,43.43Z"/><path id="_Path_86" data-name="&lt;Path&gt;" class="cls-1" d="M23.72,42.36a.22.22,0,0,1,0,.41.78.78,0,0,1-.71,0,.22.22,0,0,1,0-.41A.78.78,0,0,1,23.72,42.36Z"/><path id="_Path_87" data-name="&lt;Path&gt;" class="cls-1" d="M25.57,41.3a.22.22,0,0,1,0,.41.78.78,0,0,1-.71,0,.22.22,0,0,1,0-.41A.78.78,0,0,1,25.57,41.3Z"/><path id="_Path_88" data-name="&lt;Path&gt;" class="cls-1" d="M27.41,40.23a.22.22,0,0,1,0,.41.78.78,0,0,1-.71,0,.22.22,0,0,1,0-.41A.78.78,0,0,1,27.41,40.23Z"/><path id="_Path_89" data-name="&lt;Path&gt;" class="cls-1" d="M12.64,46.63a.22.22,0,0,1,0,.41.78.78,0,0,1-.71,0,.22.22,0,0,1,0-.41A.78.78,0,0,1,12.64,46.63Z"/><path id="_Path_90" data-name="&lt;Path&gt;" class="cls-1" d="M14.49,45.56a.22.22,0,0,1,0,.41.78.78,0,0,1-.71,0,.22.22,0,0,1,0-.41A.78.78,0,0,1,14.49,45.56Z"/><path id="_Path_91" data-name="&lt;Path&gt;" class="cls-1" d="M16.33,44.49a.22.22,0,0,1,0,.41.78.78,0,0,1-.71,0,.22.22,0,0,1,0-.41A.78.78,0,0,1,16.33,44.49Z"/><path id="_Path_92" data-name="&lt;Path&gt;" class="cls-1" d="M18.18,43.43a.22.22,0,0,1,0,.41.78.78,0,0,1-.71,0,.22.22,0,0,1,0-.41A.78.78,0,0,1,18.18,43.43Z"/><path id="_Path_93" data-name="&lt;Path&gt;" class="cls-1" d="M20,42.36a.22.22,0,0,1,0,.41.78.78,0,0,1-.71,0,.22.22,0,0,1,0-.41A.78.78,0,0,1,20,42.36Z"/><path id="_Path_94" data-name="&lt;Path&gt;" class="cls-1" d="M21.87,41.3a.22.22,0,0,1,0,.41.78.78,0,0,1-.71,0,.22.22,0,0,1,0-.41A.78.78,0,0,1,21.87,41.3Z"/><path id="_Path_95" data-name="&lt;Path&gt;" class="cls-1" d="M23.72,40.23a.22.22,0,0,1,0,.41.78.78,0,0,1-.71,0,.22.22,0,0,1,0-.41A.78.78,0,0,1,23.72,40.23Z"/><path id="_Path_96" data-name="&lt;Path&gt;" class="cls-1" d="M25.57,39.16a.22.22,0,0,1,0,.41.78.78,0,0,1-.71,0,.22.22,0,0,1,0-.41A.78.78,0,0,1,25.57,39.16Z"/><path id="_Path_97" data-name="&lt;Path&gt;" class="cls-1" d="M10.79,45.56a.22.22,0,0,1,0,.41.78.78,0,0,1-.71,0,.22.22,0,0,1,0-.41A.78.78,0,0,1,10.79,45.56Z"/><path id="_Path_98" data-name="&lt;Path&gt;" class="cls-1" d="M12.64,44.49a.22.22,0,0,1,0,.41.78.78,0,0,1-.71,0,.22.22,0,0,1,0-.41A.78.78,0,0,1,12.64,44.49Z"/><path id="_Path_99" data-name="&lt;Path&gt;" class="cls-1" d="M14.49,43.43a.22.22,0,0,1,0,.41.78.78,0,0,1-.71,0,.22.22,0,0,1,0-.41A.78.78,0,0,1,14.49,43.43Z"/><path id="_Path_100" data-name="&lt;Path&gt;" class="cls-1" d="M16.33,42.36a.22.22,0,0,1,0,.41.78.78,0,0,1-.71,0,.22.22,0,0,1,0-.41A.78.78,0,0,1,16.33,42.36Z"/><path id="_Path_101" data-name="&lt;Path&gt;" class="cls-1" d="M18.18,41.3a.22.22,0,0,1,0,.41.78.78,0,0,1-.71,0,.22.22,0,0,1,0-.41A.78.78,0,0,1,18.18,41.3Z"/><path id="_Path_102" data-name="&lt;Path&gt;" class="cls-1" d="M20,40.23a.22.22,0,0,1,0,.41.78.78,0,0,1-.71,0,.22.22,0,0,1,0-.41A.78.78,0,0,1,20,40.23Z"/><path id="_Path_103" data-name="&lt;Path&gt;" class="cls-1" d="M21.87,39.16a.22.22,0,0,1,0,.41.78.78,0,0,1-.71,0,.22.22,0,0,1,0-.41A.78.78,0,0,1,21.87,39.16Z"/><path id="_Path_104" data-name="&lt;Path&gt;" class="cls-1" d="M23.72,38.1a.22.22,0,0,1,0,.41.78.78,0,0,1-.71,0,.22.22,0,0,1,0-.41A.78.78,0,0,1,23.72,38.1Z"/><path id="_Path_105" data-name="&lt;Path&gt;" class="cls-1" d="M8.93,44.48a.22.22,0,0,1,0,.41.78.78,0,0,1-.71,0,.22.22,0,0,1,0-.41A.78.78,0,0,1,8.93,44.48Z"/><path id="_Path_106" data-name="&lt;Path&gt;" class="cls-1" d="M10.78,43.42a.22.22,0,0,1,0,.41.78.78,0,0,1-.71,0,.22.22,0,0,1,0-.41A.78.78,0,0,1,10.78,43.42Z"/><path id="_Path_107" data-name="&lt;Path&gt;" class="cls-1" d="M12.63,42.35a.22.22,0,0,1,0,.41.78.78,0,0,1-.71,0,.22.22,0,0,1,0-.41A.78.78,0,0,1,12.63,42.35Z"/><path id="_Path_108" data-name="&lt;Path&gt;" class="cls-1" d="M14.47,41.28a.22.22,0,0,1,0,.41.78.78,0,0,1-.71,0,.22.22,0,0,1,0-.41A.78.78,0,0,1,14.47,41.28Z"/><path id="_Path_109" data-name="&lt;Path&gt;" class="cls-1" d="M16.32,40.22a.22.22,0,0,1,0,.41.78.78,0,0,1-.71,0,.22.22,0,0,1,0-.41A.78.78,0,0,1,16.32,40.22Z"/><path id="_Path_110" data-name="&lt;Path&gt;" class="cls-1" d="M18.16,39.15a.22.22,0,0,1,0,.41.78.78,0,0,1-.71,0,.22.22,0,0,1,0-.41A.78.78,0,0,1,18.16,39.15Z"/><path id="_Path_111" data-name="&lt;Path&gt;" class="cls-1" d="M20,38.09a.22.22,0,0,1,0,.41.78.78,0,0,1-.71,0,.22.22,0,0,1,0-.41A.78.78,0,0,1,20,38.09Z"/><path id="_Path_112" data-name="&lt;Path&gt;" class="cls-1" d="M21.86,37a.22.22,0,0,1,0,.41.78.78,0,0,1-.71,0,.22.22,0,0,1,0-.41A.78.78,0,0,1,21.86,37Z"/><path id="_Path_113" data-name="&lt;Path&gt;" class="cls-1" d="M7.09,43.42a.22.22,0,0,1,0,.41.78.78,0,0,1-.71,0,.22.22,0,0,1,0-.41A.78.78,0,0,1,7.09,43.42Z"/><path id="_Path_114" data-name="&lt;Path&gt;" class="cls-1" d="M8.93,42.35a.22.22,0,0,1,0,.41.78.78,0,0,1-.71,0,.22.22,0,0,1,0-.41A.78.78,0,0,1,8.93,42.35Z"/><path id="_Path_115" data-name="&lt;Path&gt;" class="cls-1" d="M10.78,41.28a.22.22,0,0,1,0,.41.78.78,0,0,1-.71,0,.22.22,0,0,1,0-.41A.78.78,0,0,1,10.78,41.28Z"/><path id="_Path_116" data-name="&lt;Path&gt;" class="cls-1" d="M12.63,40.22a.22.22,0,0,1,0,.41.78.78,0,0,1-.71,0,.22.22,0,0,1,0-.41A.78.78,0,0,1,12.63,40.22Z"/><path id="_Path_117" data-name="&lt;Path&gt;" class="cls-1" d="M14.47,39.15a.22.22,0,0,1,0,.41.78.78,0,0,1-.71,0,.22.22,0,0,1,0-.41A.78.78,0,0,1,14.47,39.15Z"/><path id="_Path_118" data-name="&lt;Path&gt;" class="cls-1" d="M16.32,38.09a.22.22,0,0,1,0,.41.78.78,0,0,1-.71,0,.22.22,0,0,1,0-.41A.78.78,0,0,1,16.32,38.09Z"/><path id="_Path_119" data-name="&lt;Path&gt;" class="cls-1" d="M18.16,37a.22.22,0,0,1,0,.41.78.78,0,0,1-.71,0,.22.22,0,0,1,0-.41A.78.78,0,0,1,18.16,37Z"/><path id="_Path_120" data-name="&lt;Path&gt;" class="cls-1" d="M20,36a.22.22,0,0,1,0,.41.78.78,0,0,1-.71,0,.22.22,0,0,1,0-.41A.78.78,0,0,1,20,36Z"/><path id="_Path_121" data-name="&lt;Path&gt;" class="cls-1" d="M7.09,41.28a.22.22,0,0,1,0,.41.78.78,0,0,1-.71,0,.22.22,0,0,1,0-.41A.78.78,0,0,1,7.09,41.28Z"/><path id="_Path_122" data-name="&lt;Path&gt;" class="cls-1" d="M8.93,40.22a.22.22,0,0,1,0,.41.78.78,0,0,1-.71,0,.22.22,0,0,1,0-.41A.78.78,0,0,1,8.93,40.22Z"/><path id="_Path_123" data-name="&lt;Path&gt;" class="cls-1" d="M10.78,39.15a.22.22,0,0,1,0,.41.78.78,0,0,1-.71,0,.22.22,0,0,1,0-.41A.78.78,0,0,1,10.78,39.15Z"/><path id="_Path_124" data-name="&lt;Path&gt;" class="cls-1" d="M12.63,38.09a.22.22,0,0,1,0,.41.78.78,0,0,1-.71,0,.22.22,0,0,1,0-.41A.78.78,0,0,1,12.63,38.09Z"/><path id="_Path_125" data-name="&lt;Path&gt;" class="cls-1" d="M14.47,37a.22.22,0,0,1,0,.41.78.78,0,0,1-.71,0,.22.22,0,0,1,0-.41A.78.78,0,0,1,14.47,37Z"/><path id="_Path_126" data-name="&lt;Path&gt;" class="cls-1" d="M16.32,36a.22.22,0,0,1,0,.41.78.78,0,0,1-.71,0,.22.22,0,0,1,0-.41A.78.78,0,0,1,16.32,36Z"/><path id="_Path_127" data-name="&lt;Path&gt;" class="cls-1" d="M38.58,59.26a.22.22,0,0,1,0,.41.78.78,0,0,1-.71,0,.22.22,0,0,1,0-.41A.78.78,0,0,1,38.58,59.26Z"/><path id="_Path_128" data-name="&lt;Path&gt;" class="cls-1" d="M40.43,58.19a.22.22,0,0,1,0,.41.78.78,0,0,1-.71,0,.22.22,0,0,1,0-.41A.78.78,0,0,1,40.43,58.19Z"/><path id="_Path_129" data-name="&lt;Path&gt;" class="cls-1" d="M42.27,57.13a.22.22,0,0,1,0,.41.78.78,0,0,1-.71,0,.22.22,0,0,1,0-.41A.78.78,0,0,1,42.27,57.13Z"/><path id="_Path_130" data-name="&lt;Path&gt;" class="cls-1" d="M44.12,56.06a.22.22,0,0,1,0,.41.78.78,0,0,1-.71,0,.22.22,0,0,1,0-.41A.78.78,0,0,1,44.12,56.06Z"/><path id="_Path_131" data-name="&lt;Path&gt;" class="cls-1" d="M46,55a.22.22,0,0,1,0,.41.78.78,0,0,1-.71,0,.22.22,0,0,1,0-.41A.78.78,0,0,1,46,55Z"/><path id="_Path_132" data-name="&lt;Path&gt;" class="cls-1" d="M34.89,59.26a.22.22,0,0,1,0,.41.78.78,0,0,1-.71,0,.22.22,0,0,1,0-.41A.78.78,0,0,1,34.89,59.26Z"/><path id="_Path_133" data-name="&lt;Path&gt;" class="cls-1" d="M36.73,58.19a.22.22,0,0,1,0,.41.78.78,0,0,1-.71,0,.22.22,0,0,1,0-.41A.78.78,0,0,1,36.73,58.19Z"/><path id="_Path_134" data-name="&lt;Path&gt;" class="cls-1" d="M38.58,57.13a.22.22,0,0,1,0,.41.78.78,0,0,1-.71,0,.22.22,0,0,1,0-.41A.78.78,0,0,1,38.58,57.13Z"/><path id="_Path_135" data-name="&lt;Path&gt;" class="cls-1" d="M40.43,56.06a.22.22,0,0,1,0,.41.78.78,0,0,1-.71,0,.22.22,0,0,1,0-.41A.78.78,0,0,1,40.43,56.06Z"/><path id="_Path_136" data-name="&lt;Path&gt;" class="cls-1" d="M42.27,55a.22.22,0,0,1,0,.41.78.78,0,0,1-.71,0,.22.22,0,0,1,0-.41A.78.78,0,0,1,42.27,55Z"/><path id="_Path_137" data-name="&lt;Path&gt;" class="cls-1" d="M44.12,53.93a.22.22,0,0,1,0,.41.78.78,0,0,1-.71,0,.22.22,0,0,1,0-.41A.78.78,0,0,1,44.12,53.93Z"/><path id="_Path_138" data-name="&lt;Path&gt;" class="cls-1" d="M46,52.86a.22.22,0,0,1,0,.41.78.78,0,0,1-.71,0,.22.22,0,0,1,0-.41A.78.78,0,0,1,46,52.86Z"/><path id="_Path_139" data-name="&lt;Path&gt;" class="cls-1" d="M47.74,52a.22.22,0,0,1,0,.41.78.78,0,0,1-.71,0A.22.22,0,0,1,47,52,.78.78,0,0,1,47.74,52Z"/><path id="_Path_140" data-name="&lt;Path&gt;" class="cls-1" d="M47.81,53.94a.22.22,0,0,1,0,.41.78.78,0,0,1-.71,0,.22.22,0,0,1,0-.41A.78.78,0,0,1,47.81,53.94Z"/></g><g class="cls-2"><polygon points="23.4 49.7 32.17 44.6 30.58 48.8 21.81 53.9 23.4 49.7"/><polygon points="4.45 9.32 13.22 4.23 16.78 2.2 8.01 7.3 4.45 9.32"/><path d="M12.27,12.1,21,7a10.21,10.21,0,0,1,3,.31l-8.77,5.1A10.21,10.21,0,0,0,12.27,12.1Z"/><polygon points="8.01 7.3 16.78 2.2 21.04 7 12.27 12.1 8.01 7.3"/><polygon class="cls-3" points="9.51 12.32 0.74 17.41 5.2 18.17 13.97 13.07 9.51 12.32"/><path class="cls-3" d="M28.11,33.09a13.64,13.64,0,0,1-6.19-10.72c0-2,.7-3.33,1.81-4L15,23.48c-1.11.65-1.8,2-1.81,4a13.64,13.64,0,0,0,6.19,10.72c1.72,1,3.29,1.09,4.42.43l8.77-5.1C31.4,34.17,29.83,34.08,28.11,33.09Z"/><polygon class="cls-3" points="30.7 6 25.68 3.1 16.91 8.2 21.93 11.1 30.7 6"/><polygon class="cls-3" points="39.57 15.36 35.3 15.23 26.53 20.33 30.8 20.46 34.34 26.58 43.11 21.49 39.57 15.36"/><polygon class="cls-4" points="9.51 13.86 0.74 18.95 5.2 19.7 13.97 14.61 9.51 13.86"/><path class="cls-4" d="M27.08,36.67A13.64,13.64,0,0,1,20.9,26c0-2,.7-3.33,1.81-4l-8.77,5.1c-1.11.65-1.8,2-1.81,4a13.64,13.64,0,0,0,6.19,10.72c1.72,1,3.29,1.09,4.42.43l8.77-5.1C30.37,37.76,28.81,37.67,27.08,36.67Z"/><polygon class="cls-4" points="30.7 7.54 25.68 4.64 16.91 9.74 21.93 12.63 30.7 7.54"/><polygon class="cls-4" points="38.55 17.41 34.27 17.28 25.5 22.38 29.78 22.51 33.31 28.63 42.08 23.54 38.55 17.41"/><path d="M9.56,12.59l3.67.62L5.15,17.9l-3.67-.62,8.08-4.69m0-.27L.74,17.42l4.46.75L14,13.07l-4.46-.75Z"/><path d="M22.31,19.51a5.92,5.92,0,0,0-.65,2.86A13.94,13.94,0,0,0,28,33.31a5.91,5.91,0,0,0,2.87.89l-7.23,4.2a3,3,0,0,1-1.5.38A5.45,5.45,0,0,1,19.47,38a13.37,13.37,0,0,1-6.06-10.49c0-1.8.6-3.13,1.68-3.76l7.22-4.2m1.42-1.12L15,23.48c-1.11.65-1.8,2-1.81,4a13.64,13.64,0,0,0,6.19,10.72,5.65,5.65,0,0,0,2.78.85,3.21,3.21,0,0,0,1.63-.42l8.77-5.1a3.21,3.21,0,0,1-1.63.42,5.65,5.65,0,0,1-2.78-.85,13.64,13.64,0,0,1-6.19-10.72c0-2,.7-3.33,1.81-4Z"/><path d="M25.68,3.4,30.19,6l-8.26,4.8-4.5-2.6,8.26-4.8m0-.3L16.91,8.2l5,2.9L30.7,6l-5-2.9Z"/><path d="M35.36,15.49l4.06.13,3.34,5.78-8.33,4.84L31,20.33a.26.26,0,0,0-.21-.13l-3.38-.11,7.93-4.61m-.07-.26-8.77,5.1,4.28.13,3.53,6.12,8.77-5.1-3.53-6.12-4.28-.13Z"/><polygon points="32.25 46.69 41.02 41.59 43.03 47.67 34.26 52.77 32.25 46.69"/><path d="M33.52,43.93l8.77-5.1A10.15,10.15,0,0,1,41,41.59l-8.77,5.1A10.15,10.15,0,0,0,33.52,43.93Z"/><path d="M32.29,30.32l8.77-5.1a30.68,30.68,0,0,1,1.25,4.21l-8.77,5.1A30.68,30.68,0,0,0,32.29,30.32Z"/><path d="M23.5,17.13,32.27,12a30.6,30.6,0,0,1,3,3.2l-8.77,5.1A30.6,30.6,0,0,0,23.5,17.13Z"/><polygon points="37.99 38.92 46.76 33.82 46.74 39.59 37.97 44.68 37.99 38.92"/><polygon points="33.54 34.53 42.31 29.43 46.76 33.82 37.99 38.92 33.54 34.53"/><polygon points="21.93 11.1 30.7 6 32.27 12.03 23.5 17.13 21.93 11.1"/><polygon points="34.34 26.58 43.11 21.49 41.06 25.22 32.3 30.32 34.34 26.58"/><path class="cls-3" d="M38,44.68l-4.46-.75a10.15,10.15,0,0,1-1.27,2.76l2,6.08-3.56,2L26.44,50a10.29,10.29,0,0,1-3-.31l-1.6,4.2-5-2.9-1.57-6a30.87,30.87,0,0,1-3-3.2l-4.28-.14L4.38,35.51l2-3.73a30,30,0,0,1-1.25-4.21L.73,23.18l0-5.76,4.46.75a10,10,0,0,1,1.27-2.76l-2-6.08L8,7.3l4.26,4.8a10.21,10.21,0,0,1,3,.31l1.6-4.2,5,2.9,1.57,6a30.6,30.6,0,0,1,3,3.2l4.28.13,3.53,6.12-2,3.73a30.68,30.68,0,0,1,1.25,4.21L38,38.92Zm-18.63-6.5c3.43,2,6.22.39,6.23-3.55a13.64,13.64,0,0,0-6.19-10.72c-3.43-2-6.22-.39-6.23,3.55a13.64,13.64,0,0,0,6.19,10.72"/></g><g id="_Group_2" data-name="&lt;Group&gt;"><path id="_Path_141" data-name="&lt;Path&gt;" class="cls-1" d="M85.62,119a.46.46,0,0,1,0,.86,1.65,1.65,0,0,1-1.5,0,.46.46,0,0,1,0-.86A1.65,1.65,0,0,1,85.62,119Z"/><path id="_Path_142" data-name="&lt;Path&gt;" class="cls-1" d="M89.54,116.75a.46.46,0,0,1,0,.86,1.65,1.65,0,0,1-1.5,0,.46.46,0,0,1,0-.86A1.65,1.65,0,0,1,89.54,116.75Z"/><path id="_Path_143" data-name="&lt;Path&gt;" class="cls-1" d="M93.45,114.49a.46.46,0,0,1,0,.86,1.65,1.65,0,0,1-1.5,0,.46.46,0,0,1,0-.86A1.65,1.65,0,0,1,93.45,114.49Z"/><path id="_Path_144" data-name="&lt;Path&gt;" class="cls-1" d="M97.36,112.24a.46.46,0,0,1,0,.86,1.65,1.65,0,0,1-1.5,0,.46.46,0,0,1,0-.86A1.65,1.65,0,0,1,97.36,112.24Z"/><path id="_Path_145" data-name="&lt;Path&gt;" class="cls-1" d="M101.27,110a.46.46,0,0,1,0,.86,1.65,1.65,0,0,1-1.5,0,.46.46,0,0,1,0-.86A1.65,1.65,0,0,1,101.27,110Z"/><path id="_Path_146" data-name="&lt;Path&gt;" class="cls-1" d="M105.19,107.72a.46.46,0,0,1,0,.86,1.65,1.65,0,0,1-1.5,0,.46.46,0,0,1,0-.86A1.65,1.65,0,0,1,105.19,107.72Z"/><path id="_Path_147" data-name="&lt;Path&gt;" class="cls-1" d="M109.1,105.46a.46.46,0,0,1,0,.86,1.65,1.65,0,0,1-1.5,0,.46.46,0,0,1,0-.86A1.65,1.65,0,0,1,109.1,105.46Z"/><path id="_Path_148" data-name="&lt;Path&gt;" class="cls-1" d="M113,103.2a.46.46,0,0,1,0,.86,1.65,1.65,0,0,1-1.5,0,.46.46,0,0,1,0-.86A1.65,1.65,0,0,1,113,103.2Z"/><path id="_Path_149" data-name="&lt;Path&gt;" class="cls-1" d="M81.71,116.75a.46.46,0,0,1,0,.86,1.65,1.65,0,0,1-1.5,0,.46.46,0,0,1,0-.86A1.65,1.65,0,0,1,81.71,116.75Z"/><path id="_Path_150" data-name="&lt;Path&gt;" class="cls-1" d="M85.62,114.49a.46.46,0,0,1,0,.86,1.65,1.65,0,0,1-1.5,0,.46.46,0,0,1,0-.86A1.65,1.65,0,0,1,85.62,114.49Z"/><path id="_Path_151" data-name="&lt;Path&gt;" class="cls-1" d="M89.54,112.24a.46.46,0,0,1,0,.86,1.65,1.65,0,0,1-1.5,0,.46.46,0,0,1,0-.86A1.65,1.65,0,0,1,89.54,112.24Z"/><path id="_Path_152" data-name="&lt;Path&gt;" class="cls-1" d="M93.45,110a.46.46,0,0,1,0,.86,1.65,1.65,0,0,1-1.5,0,.46.46,0,0,1,0-.86A1.65,1.65,0,0,1,93.45,110Z"/><path id="_Path_153" data-name="&lt;Path&gt;" class="cls-1" d="M97.36,107.72a.46.46,0,0,1,0,.86,1.65,1.65,0,0,1-1.5,0,.46.46,0,0,1,0-.86A1.65,1.65,0,0,1,97.36,107.72Z"/><path id="_Path_154" data-name="&lt;Path&gt;" class="cls-1" d="M101.27,105.46a.46.46,0,0,1,0,.86,1.65,1.65,0,0,1-1.5,0,.46.46,0,0,1,0-.86A1.65,1.65,0,0,1,101.27,105.46Z"/><path id="_Path_155" data-name="&lt;Path&gt;" class="cls-1" d="M105.19,103.2a.46.46,0,0,1,0,.86,1.65,1.65,0,0,1-1.5,0,.46.46,0,0,1,0-.86A1.65,1.65,0,0,1,105.19,103.2Z"/><path id="_Path_156" data-name="&lt;Path&gt;" class="cls-1" d="M109.1,100.94a.46.46,0,0,1,0,.86,1.65,1.65,0,0,1-1.5,0,.46.46,0,0,1,0-.86A1.65,1.65,0,0,1,109.1,100.94Z"/><path id="_Path_157" data-name="&lt;Path&gt;" class="cls-1" d="M77.8,114.49a.46.46,0,0,1,0,.86,1.65,1.65,0,0,1-1.5,0,.46.46,0,0,1,0-.86A1.65,1.65,0,0,1,77.8,114.49Z"/><path id="_Path_158" data-name="&lt;Path&gt;" class="cls-1" d="M81.71,112.24a.46.46,0,0,1,0,.86,1.65,1.65,0,0,1-1.5,0,.46.46,0,0,1,0-.86A1.65,1.65,0,0,1,81.71,112.24Z"/><path id="_Path_159" data-name="&lt;Path&gt;" class="cls-1" d="M85.62,110a.46.46,0,0,1,0,.86,1.65,1.65,0,0,1-1.5,0,.46.46,0,0,1,0-.86A1.65,1.65,0,0,1,85.62,110Z"/><path id="_Path_160" data-name="&lt;Path&gt;" class="cls-1" d="M89.54,107.72a.46.46,0,0,1,0,.86,1.65,1.65,0,0,1-1.5,0,.46.46,0,0,1,0-.86A1.65,1.65,0,0,1,89.54,107.72Z"/><path id="_Path_161" data-name="&lt;Path&gt;" class="cls-1" d="M93.45,105.46a.46.46,0,0,1,0,.86,1.65,1.65,0,0,1-1.5,0,.46.46,0,0,1,0-.86A1.65,1.65,0,0,1,93.45,105.46Z"/><path id="_Path_162" data-name="&lt;Path&gt;" class="cls-1" d="M97.36,103.2a.46.46,0,0,1,0,.86,1.65,1.65,0,0,1-1.5,0,.46.46,0,0,1,0-.86A1.65,1.65,0,0,1,97.36,103.2Z"/><path id="_Path_163" data-name="&lt;Path&gt;" class="cls-1" d="M101.27,100.94a.46.46,0,0,1,0,.86,1.65,1.65,0,0,1-1.5,0,.46.46,0,0,1,0-.86A1.65,1.65,0,0,1,101.27,100.94Z"/><path id="_Path_164" data-name="&lt;Path&gt;" class="cls-1" d="M105.19,98.68a.46.46,0,0,1,0,.86,1.65,1.65,0,0,1-1.5,0,.46.46,0,0,1,0-.86A1.65,1.65,0,0,1,105.19,98.68Z"/><path id="_Path_165" data-name="&lt;Path&gt;" class="cls-1" d="M73.88,112.24a.46.46,0,0,1,0,.86,1.65,1.65,0,0,1-1.5,0,.46.46,0,0,1,0-.86A1.65,1.65,0,0,1,73.88,112.24Z"/><path id="_Path_166" data-name="&lt;Path&gt;" class="cls-1" d="M77.8,110a.46.46,0,0,1,0,.86,1.65,1.65,0,0,1-1.5,0,.46.46,0,0,1,0-.86A1.65,1.65,0,0,1,77.8,110Z"/><path id="_Path_167" data-name="&lt;Path&gt;" class="cls-1" d="M81.71,107.72a.46.46,0,0,1,0,.86,1.65,1.65,0,0,1-1.5,0,.46.46,0,0,1,0-.86A1.65,1.65,0,0,1,81.71,107.72Z"/><path id="_Path_168" data-name="&lt;Path&gt;" class="cls-1" d="M85.62,105.46a.46.46,0,0,1,0,.86,1.65,1.65,0,0,1-1.5,0,.46.46,0,0,1,0-.86A1.65,1.65,0,0,1,85.62,105.46Z"/><path id="_Path_169" data-name="&lt;Path&gt;" class="cls-1" d="M89.54,103.2a.46.46,0,0,1,0,.86,1.65,1.65,0,0,1-1.5,0,.46.46,0,0,1,0-.86A1.65,1.65,0,0,1,89.54,103.2Z"/><path id="_Path_170" data-name="&lt;Path&gt;" class="cls-1" d="M93.45,100.94a.46.46,0,0,1,0,.86,1.65,1.65,0,0,1-1.5,0,.46.46,0,0,1,0-.86A1.65,1.65,0,0,1,93.45,100.94Z"/><path id="_Path_171" data-name="&lt;Path&gt;" class="cls-1" d="M97.36,98.68a.46.46,0,0,1,0,.86,1.65,1.65,0,0,1-1.5,0,.46.46,0,0,1,0-.86A1.65,1.65,0,0,1,97.36,98.68Z"/><path id="_Path_172" data-name="&lt;Path&gt;" class="cls-1" d="M101.27,96.42a.46.46,0,0,1,0,.86,1.65,1.65,0,0,1-1.5,0,.46.46,0,0,1,0-.86A1.65,1.65,0,0,1,101.27,96.42Z"/><path id="_Path_173" data-name="&lt;Path&gt;" class="cls-1" d="M70,110a.46.46,0,0,1,0,.86,1.65,1.65,0,0,1-1.5,0,.46.46,0,0,1,0-.86A1.65,1.65,0,0,1,70,110Z"/><path id="_Path_174" data-name="&lt;Path&gt;" class="cls-1" d="M73.88,107.72a.46.46,0,0,1,0,.86,1.65,1.65,0,0,1-1.5,0,.46.46,0,0,1,0-.86A1.65,1.65,0,0,1,73.88,107.72Z"/><path id="_Path_175" data-name="&lt;Path&gt;" class="cls-1" d="M77.8,105.46a.46.46,0,0,1,0,.86,1.65,1.65,0,0,1-1.5,0,.46.46,0,0,1,0-.86A1.65,1.65,0,0,1,77.8,105.46Z"/><path id="_Path_176" data-name="&lt;Path&gt;" class="cls-1" d="M81.71,103.2a.46.46,0,0,1,0,.86,1.65,1.65,0,0,1-1.5,0,.46.46,0,0,1,0-.86A1.65,1.65,0,0,1,81.71,103.2Z"/><path id="_Path_177" data-name="&lt;Path&gt;" class="cls-1" d="M85.62,100.94a.46.46,0,0,1,0,.86,1.65,1.65,0,0,1-1.5,0,.46.46,0,0,1,0-.86A1.65,1.65,0,0,1,85.62,100.94Z"/><path id="_Path_178" data-name="&lt;Path&gt;" class="cls-1" d="M89.54,98.68a.46.46,0,0,1,0,.86,1.65,1.65,0,0,1-1.5,0,.46.46,0,0,1,0-.86A1.65,1.65,0,0,1,89.54,98.68Z"/><path id="_Path_179" data-name="&lt;Path&gt;" class="cls-1" d="M93.45,96.42a.46.46,0,0,1,0,.86,1.65,1.65,0,0,1-1.5,0,.46.46,0,0,1,0-.86A1.65,1.65,0,0,1,93.45,96.42Z"/><path id="_Path_180" data-name="&lt;Path&gt;" class="cls-1" d="M97.36,94.16a.46.46,0,0,1,0,.86,1.65,1.65,0,0,1-1.5,0,.46.46,0,0,1,0-.86A1.65,1.65,0,0,1,97.36,94.16Z"/><path id="_Path_181" data-name="&lt;Path&gt;" class="cls-1" d="M66,107.69a.46.46,0,0,1,0,.86,1.65,1.65,0,0,1-1.5,0,.46.46,0,0,1,0-.86A1.65,1.65,0,0,1,66,107.69Z"/><path id="_Path_182" data-name="&lt;Path&gt;" class="cls-1" d="M69.94,105.43a.46.46,0,0,1,0,.86,1.65,1.65,0,0,1-1.5,0,.46.46,0,0,1,0-.86A1.65,1.65,0,0,1,69.94,105.43Z"/><path id="_Path_183" data-name="&lt;Path&gt;" class="cls-1" d="M73.85,103.17a.46.46,0,0,1,0,.86,1.65,1.65,0,0,1-1.5,0,.46.46,0,0,1,0-.86A1.65,1.65,0,0,1,73.85,103.17Z"/><path id="_Path_184" data-name="&lt;Path&gt;" class="cls-1" d="M77.76,100.92a.46.46,0,0,1,0,.86,1.65,1.65,0,0,1-1.5,0,.46.46,0,0,1,0-.86A1.65,1.65,0,0,1,77.76,100.92Z"/><path id="_Path_185" data-name="&lt;Path&gt;" class="cls-1" d="M81.68,98.66a.46.46,0,0,1,0,.86,1.65,1.65,0,0,1-1.5,0,.46.46,0,0,1,0-.86A1.65,1.65,0,0,1,81.68,98.66Z"/><path id="_Path_186" data-name="&lt;Path&gt;" class="cls-1" d="M85.59,96.4a.46.46,0,0,1,0,.86,1.65,1.65,0,0,1-1.5,0,.46.46,0,0,1,0-.86A1.65,1.65,0,0,1,85.59,96.4Z"/><path id="_Path_187" data-name="&lt;Path&gt;" class="cls-1" d="M89.5,94.14a.46.46,0,0,1,0,.86A1.65,1.65,0,0,1,88,95a.46.46,0,0,1,0-.86A1.65,1.65,0,0,1,89.5,94.14Z"/><path id="_Path_188" data-name="&lt;Path&gt;" class="cls-1" d="M93.42,91.88a.46.46,0,0,1,0,.86,1.65,1.65,0,0,1-1.5,0,.46.46,0,0,1,0-.86A1.65,1.65,0,0,1,93.42,91.88Z"/><path id="_Path_189" data-name="&lt;Path&gt;" class="cls-1" d="M62.11,105.43a.46.46,0,0,1,0,.86,1.65,1.65,0,0,1-1.5,0,.46.46,0,0,1,0-.86A1.65,1.65,0,0,1,62.11,105.43Z"/><path id="_Path_190" data-name="&lt;Path&gt;" class="cls-1" d="M66,103.17a.46.46,0,0,1,0,.86,1.65,1.65,0,0,1-1.5,0,.46.46,0,0,1,0-.86A1.65,1.65,0,0,1,66,103.17Z"/><path id="_Path_191" data-name="&lt;Path&gt;" class="cls-1" d="M69.94,100.92a.46.46,0,0,1,0,.86,1.65,1.65,0,0,1-1.5,0,.46.46,0,0,1,0-.86A1.65,1.65,0,0,1,69.94,100.92Z"/><path id="_Path_192" data-name="&lt;Path&gt;" class="cls-1" d="M73.85,98.66a.46.46,0,0,1,0,.86,1.65,1.65,0,0,1-1.5,0,.46.46,0,0,1,0-.86A1.65,1.65,0,0,1,73.85,98.66Z"/><path id="_Path_193" data-name="&lt;Path&gt;" class="cls-1" d="M77.76,96.4a.46.46,0,0,1,0,.86,1.65,1.65,0,0,1-1.5,0,.46.46,0,0,1,0-.86A1.65,1.65,0,0,1,77.76,96.4Z"/><path id="_Path_194" data-name="&lt;Path&gt;" class="cls-1" d="M81.68,94.14a.46.46,0,0,1,0,.86,1.65,1.65,0,0,1-1.5,0,.46.46,0,0,1,0-.86A1.65,1.65,0,0,1,81.68,94.14Z"/><path id="_Path_195" data-name="&lt;Path&gt;" class="cls-1" d="M85.59,91.88a.46.46,0,0,1,0,.86,1.65,1.65,0,0,1-1.5,0,.46.46,0,0,1,0-.86A1.65,1.65,0,0,1,85.59,91.88Z"/><path id="_Path_196" data-name="&lt;Path&gt;" class="cls-1" d="M89.5,89.62a.46.46,0,0,1,0,.86,1.65,1.65,0,0,1-1.5,0,.46.46,0,0,1,0-.86A1.65,1.65,0,0,1,89.5,89.62Z"/><path id="_Path_197" data-name="&lt;Path&gt;" class="cls-1" d="M58.2,103.17a.46.46,0,0,1,0,.86,1.65,1.65,0,0,1-1.5,0,.46.46,0,0,1,0-.86A1.65,1.65,0,0,1,58.2,103.17Z"/><path id="_Path_198" data-name="&lt;Path&gt;" class="cls-1" d="M62.11,100.92a.46.46,0,0,1,0,.86,1.65,1.65,0,0,1-1.5,0,.46.46,0,0,1,0-.86A1.65,1.65,0,0,1,62.11,100.92Z"/><path id="_Path_199" data-name="&lt;Path&gt;" class="cls-1" d="M66,98.66a.46.46,0,0,1,0,.86,1.65,1.65,0,0,1-1.5,0,.46.46,0,0,1,0-.86A1.65,1.65,0,0,1,66,98.66Z"/><path id="_Path_200" data-name="&lt;Path&gt;" class="cls-1" d="M69.94,96.4a.46.46,0,0,1,0,.86,1.65,1.65,0,0,1-1.5,0,.46.46,0,0,1,0-.86A1.65,1.65,0,0,1,69.94,96.4Z"/><path id="_Path_201" data-name="&lt;Path&gt;" class="cls-1" d="M73.85,94.14a.46.46,0,0,1,0,.86,1.65,1.65,0,0,1-1.5,0,.46.46,0,0,1,0-.86A1.65,1.65,0,0,1,73.85,94.14Z"/><path id="_Path_202" data-name="&lt;Path&gt;" class="cls-1" d="M77.76,91.88a.46.46,0,0,1,0,.86,1.65,1.65,0,0,1-1.5,0,.46.46,0,0,1,0-.86A1.65,1.65,0,0,1,77.76,91.88Z"/><path id="_Path_203" data-name="&lt;Path&gt;" class="cls-1" d="M81.68,89.62a.46.46,0,0,1,0,.86,1.65,1.65,0,0,1-1.5,0,.46.46,0,0,1,0-.86A1.65,1.65,0,0,1,81.68,89.62Z"/><path id="_Path_204" data-name="&lt;Path&gt;" class="cls-1" d="M85.59,87.36a.46.46,0,0,1,0,.86,1.65,1.65,0,0,1-1.5,0,.46.46,0,0,1,0-.86A1.65,1.65,0,0,1,85.59,87.36Z"/><path id="_Path_205" data-name="&lt;Path&gt;" class="cls-1" d="M54.28,100.92a.46.46,0,0,1,0,.86,1.65,1.65,0,0,1-1.5,0,.46.46,0,0,1,0-.86A1.65,1.65,0,0,1,54.28,100.92Z"/><path id="_Path_206" data-name="&lt;Path&gt;" class="cls-1" d="M58.2,98.66a.46.46,0,0,1,0,.86,1.65,1.65,0,0,1-1.5,0,.46.46,0,0,1,0-.86A1.65,1.65,0,0,1,58.2,98.66Z"/><path id="_Path_207" data-name="&lt;Path&gt;" class="cls-1" d="M62.11,96.4a.46.46,0,0,1,0,.86,1.65,1.65,0,0,1-1.5,0,.46.46,0,0,1,0-.86A1.65,1.65,0,0,1,62.11,96.4Z"/><path id="_Path_208" data-name="&lt;Path&gt;" class="cls-1" d="M66,94.14A.46.46,0,0,1,66,95a1.65,1.65,0,0,1-1.5,0,.46.46,0,0,1,0-.86A1.65,1.65,0,0,1,66,94.14Z"/><path id="_Path_209" data-name="&lt;Path&gt;" class="cls-1" d="M69.94,91.88a.46.46,0,0,1,0,.86,1.65,1.65,0,0,1-1.5,0,.46.46,0,0,1,0-.86A1.65,1.65,0,0,1,69.94,91.88Z"/><path id="_Path_210" data-name="&lt;Path&gt;" class="cls-1" d="M73.85,89.62a.46.46,0,0,1,0,.86,1.65,1.65,0,0,1-1.5,0,.46.46,0,0,1,0-.86A1.65,1.65,0,0,1,73.85,89.62Z"/><path id="_Path_211" data-name="&lt;Path&gt;" class="cls-1" d="M77.76,87.36a.46.46,0,0,1,0,.86,1.65,1.65,0,0,1-1.5,0,.46.46,0,0,1,0-.86A1.65,1.65,0,0,1,77.76,87.36Z"/><path id="_Path_212" data-name="&lt;Path&gt;" class="cls-1" d="M81.68,85.1a.46.46,0,0,1,0,.86,1.65,1.65,0,0,1-1.5,0,.46.46,0,0,1,0-.86A1.65,1.65,0,0,1,81.68,85.1Z"/><path id="_Path_213" data-name="&lt;Path&gt;" class="cls-1" d="M50.37,98.66a.46.46,0,0,1,0,.86,1.65,1.65,0,0,1-1.5,0,.46.46,0,0,1,0-.86A1.65,1.65,0,0,1,50.37,98.66Z"/><path id="_Path_214" data-name="&lt;Path&gt;" class="cls-1" d="M54.28,96.4a.46.46,0,0,1,0,.86,1.65,1.65,0,0,1-1.5,0,.46.46,0,0,1,0-.86A1.65,1.65,0,0,1,54.28,96.4Z"/><path id="_Path_215" data-name="&lt;Path&gt;" class="cls-1" d="M58.2,94.14a.46.46,0,0,1,0,.86,1.65,1.65,0,0,1-1.5,0,.46.46,0,0,1,0-.86A1.65,1.65,0,0,1,58.2,94.14Z"/><path id="_Path_216" data-name="&lt;Path&gt;" class="cls-1" d="M62.11,91.88a.46.46,0,0,1,0,.86,1.65,1.65,0,0,1-1.5,0,.46.46,0,0,1,0-.86A1.65,1.65,0,0,1,62.11,91.88Z"/><path id="_Path_217" data-name="&lt;Path&gt;" class="cls-1" d="M66,89.62a.46.46,0,0,1,0,.86,1.65,1.65,0,0,1-1.5,0,.46.46,0,0,1,0-.86A1.65,1.65,0,0,1,66,89.62Z"/><path id="_Path_218" data-name="&lt;Path&gt;" class="cls-1" d="M69.94,87.36a.46.46,0,0,1,0,.86,1.65,1.65,0,0,1-1.5,0,.46.46,0,0,1,0-.86A1.65,1.65,0,0,1,69.94,87.36Z"/><path id="_Path_219" data-name="&lt;Path&gt;" class="cls-1" d="M73.85,85.1a.46.46,0,0,1,0,.86,1.65,1.65,0,0,1-1.5,0,.46.46,0,0,1,0-.86A1.65,1.65,0,0,1,73.85,85.1Z"/><path id="_Path_220" data-name="&lt;Path&gt;" class="cls-1" d="M77.76,82.84a.46.46,0,0,1,0,.86,1.65,1.65,0,0,1-1.5,0,.46.46,0,0,1,0-.86A1.65,1.65,0,0,1,77.76,82.84Z"/><path id="_Path_221" data-name="&lt;Path&gt;" class="cls-1" d="M46.46,96.4a.46.46,0,0,1,0,.86,1.65,1.65,0,0,1-1.5,0,.46.46,0,0,1,0-.86A1.65,1.65,0,0,1,46.46,96.4Z"/><path id="_Path_222" data-name="&lt;Path&gt;" class="cls-1" d="M50.37,94.14a.46.46,0,0,1,0,.86,1.65,1.65,0,0,1-1.5,0,.46.46,0,0,1,0-.86A1.65,1.65,0,0,1,50.37,94.14Z"/><path id="_Path_223" data-name="&lt;Path&gt;" class="cls-1" d="M54.28,91.88a.46.46,0,0,1,0,.86,1.65,1.65,0,0,1-1.5,0,.46.46,0,0,1,0-.86A1.65,1.65,0,0,1,54.28,91.88Z"/><path id="_Path_224" data-name="&lt;Path&gt;" class="cls-1" d="M58.2,89.62a.46.46,0,0,1,0,.86,1.65,1.65,0,0,1-1.5,0,.46.46,0,0,1,0-.86A1.65,1.65,0,0,1,58.2,89.62Z"/><path id="_Path_225" data-name="&lt;Path&gt;" class="cls-1" d="M62.11,87.36a.46.46,0,0,1,0,.86,1.65,1.65,0,0,1-1.5,0,.46.46,0,0,1,0-.86A1.65,1.65,0,0,1,62.11,87.36Z"/><path id="_Path_226" data-name="&lt;Path&gt;" class="cls-1" d="M66,85.1A.46.46,0,0,1,66,86a1.65,1.65,0,0,1-1.5,0,.46.46,0,0,1,0-.86A1.65,1.65,0,0,1,66,85.1Z"/><path id="_Path_227" data-name="&lt;Path&gt;" class="cls-1" d="M69.94,82.84a.46.46,0,0,1,0,.86,1.65,1.65,0,0,1-1.5,0,.46.46,0,0,1,0-.86A1.65,1.65,0,0,1,69.94,82.84Z"/><path id="_Path_228" data-name="&lt;Path&gt;" class="cls-1" d="M73.85,80.58a.46.46,0,0,1,0,.86,1.65,1.65,0,0,1-1.5,0,.46.46,0,0,1,0-.86A1.65,1.65,0,0,1,73.85,80.58Z"/><path id="_Path_229" data-name="&lt;Path&gt;" class="cls-1" d="M42.55,94.14a.46.46,0,0,1,0,.86A1.65,1.65,0,0,1,41,95a.46.46,0,0,1,0-.86A1.65,1.65,0,0,1,42.55,94.14Z"/><path id="_Path_230" data-name="&lt;Path&gt;" class="cls-1" d="M46.46,91.88a.46.46,0,0,1,0,.86,1.65,1.65,0,0,1-1.5,0,.46.46,0,0,1,0-.86A1.65,1.65,0,0,1,46.46,91.88Z"/><path id="_Path_231" data-name="&lt;Path&gt;" class="cls-1" d="M50.37,89.62a.46.46,0,0,1,0,.86,1.65,1.65,0,0,1-1.5,0,.46.46,0,0,1,0-.86A1.65,1.65,0,0,1,50.37,89.62Z"/><path id="_Path_232" data-name="&lt;Path&gt;" class="cls-1" d="M54.28,87.36a.46.46,0,0,1,0,.86,1.65,1.65,0,0,1-1.5,0,.46.46,0,0,1,0-.86A1.65,1.65,0,0,1,54.28,87.36Z"/><path id="_Path_233" data-name="&lt;Path&gt;" class="cls-1" d="M58.2,85.1a.46.46,0,0,1,0,.86,1.65,1.65,0,0,1-1.5,0,.46.46,0,0,1,0-.86A1.65,1.65,0,0,1,58.2,85.1Z"/><path id="_Path_234" data-name="&lt;Path&gt;" class="cls-1" d="M62.11,82.84a.46.46,0,0,1,0,.86,1.65,1.65,0,0,1-1.5,0,.46.46,0,0,1,0-.86A1.65,1.65,0,0,1,62.11,82.84Z"/><path id="_Path_235" data-name="&lt;Path&gt;" class="cls-1" d="M66,80.58a.46.46,0,0,1,0,.86,1.65,1.65,0,0,1-1.5,0,.46.46,0,0,1,0-.86A1.65,1.65,0,0,1,66,80.58Z"/><path id="_Path_236" data-name="&lt;Path&gt;" class="cls-1" d="M69.94,78.32a.46.46,0,0,1,0,.86,1.65,1.65,0,0,1-1.5,0,.46.46,0,0,1,0-.86A1.65,1.65,0,0,1,69.94,78.32Z"/><path id="_Path_237" data-name="&lt;Path&gt;" class="cls-1" d="M38.63,91.88a.46.46,0,0,1,0,.86,1.65,1.65,0,0,1-1.5,0,.46.46,0,0,1,0-.86A1.65,1.65,0,0,1,38.63,91.88Z"/><path id="_Path_238" data-name="&lt;Path&gt;" class="cls-1" d="M42.55,89.62a.46.46,0,0,1,0,.86,1.65,1.65,0,0,1-1.5,0,.46.46,0,0,1,0-.86A1.65,1.65,0,0,1,42.55,89.62Z"/><path id="_Path_239" data-name="&lt;Path&gt;" class="cls-1" d="M46.46,87.36a.46.46,0,0,1,0,.86,1.65,1.65,0,0,1-1.5,0,.46.46,0,0,1,0-.86A1.65,1.65,0,0,1,46.46,87.36Z"/><path id="_Path_240" data-name="&lt;Path&gt;" class="cls-1" d="M50.37,85.1a.46.46,0,0,1,0,.86,1.65,1.65,0,0,1-1.5,0,.46.46,0,0,1,0-.86A1.65,1.65,0,0,1,50.37,85.1Z"/><path id="_Path_241" data-name="&lt;Path&gt;" class="cls-1" d="M54.28,82.84a.46.46,0,0,1,0,.86,1.65,1.65,0,0,1-1.5,0,.46.46,0,0,1,0-.86A1.65,1.65,0,0,1,54.28,82.84Z"/><path id="_Path_242" data-name="&lt;Path&gt;" class="cls-1" d="M58.2,80.58a.46.46,0,0,1,0,.86,1.65,1.65,0,0,1-1.5,0,.46.46,0,0,1,0-.86A1.65,1.65,0,0,1,58.2,80.58Z"/><path id="_Path_243" data-name="&lt;Path&gt;" class="cls-1" d="M62.11,78.32a.46.46,0,0,1,0,.86,1.65,1.65,0,0,1-1.5,0,.46.46,0,0,1,0-.86A1.65,1.65,0,0,1,62.11,78.32Z"/><path id="_Path_244" data-name="&lt;Path&gt;" class="cls-1" d="M66,76.06a.46.46,0,0,1,0,.86,1.65,1.65,0,0,1-1.5,0,.46.46,0,0,1,0-.86A1.65,1.65,0,0,1,66,76.06Z"/><path id="_Path_245" data-name="&lt;Path&gt;" class="cls-1" d="M34.69,89.6a.46.46,0,0,1,0,.86,1.65,1.65,0,0,1-1.5,0,.46.46,0,0,1,0-.86A1.65,1.65,0,0,1,34.69,89.6Z"/><path id="_Path_246" data-name="&lt;Path&gt;" class="cls-1" d="M38.6,87.34a.46.46,0,0,1,0,.86,1.65,1.65,0,0,1-1.5,0,.46.46,0,0,1,0-.86A1.65,1.65,0,0,1,38.6,87.34Z"/><path id="_Path_247" data-name="&lt;Path&gt;" class="cls-1" d="M42.51,85.08a.46.46,0,0,1,0,.86,1.65,1.65,0,0,1-1.5,0,.46.46,0,0,1,0-.86A1.65,1.65,0,0,1,42.51,85.08Z"/><path id="_Path_248" data-name="&lt;Path&gt;" class="cls-1" d="M46.42,82.82a.46.46,0,0,1,0,.86,1.65,1.65,0,0,1-1.5,0,.46.46,0,0,1,0-.86A1.65,1.65,0,0,1,46.42,82.82Z"/><path id="_Path_249" data-name="&lt;Path&gt;" class="cls-1" d="M50.34,80.56a.46.46,0,0,1,0,.86,1.65,1.65,0,0,1-1.5,0,.46.46,0,0,1,0-.86A1.65,1.65,0,0,1,50.34,80.56Z"/><path id="_Path_250" data-name="&lt;Path&gt;" class="cls-1" d="M54.25,78.3a.46.46,0,0,1,0,.86,1.65,1.65,0,0,1-1.5,0,.46.46,0,0,1,0-.86A1.65,1.65,0,0,1,54.25,78.3Z"/><path id="_Path_251" data-name="&lt;Path&gt;" class="cls-1" d="M58.16,76a.46.46,0,0,1,0,.86,1.65,1.65,0,0,1-1.5,0,.46.46,0,0,1,0-.86A1.65,1.65,0,0,1,58.16,76Z"/><path id="_Path_252" data-name="&lt;Path&gt;" class="cls-1" d="M62.08,73.78a.46.46,0,0,1,0,.86,1.65,1.65,0,0,1-1.5,0,.46.46,0,0,1,0-.86A1.65,1.65,0,0,1,62.08,73.78Z"/><path id="_Path_253" data-name="&lt;Path&gt;" class="cls-1" d="M30.77,87.34a.46.46,0,0,1,0,.86,1.65,1.65,0,0,1-1.5,0,.46.46,0,0,1,0-.86A1.65,1.65,0,0,1,30.77,87.34Z"/><path id="_Path_254" data-name="&lt;Path&gt;" class="cls-1" d="M34.69,85.08a.46.46,0,0,1,0,.86,1.65,1.65,0,0,1-1.5,0,.46.46,0,0,1,0-.86A1.65,1.65,0,0,1,34.69,85.08Z"/><path id="_Path_255" data-name="&lt;Path&gt;" class="cls-1" d="M38.6,82.82a.46.46,0,0,1,0,.86,1.65,1.65,0,0,1-1.5,0,.46.46,0,0,1,0-.86A1.65,1.65,0,0,1,38.6,82.82Z"/><path id="_Path_256" data-name="&lt;Path&gt;" class="cls-1" d="M42.51,80.56a.46.46,0,0,1,0,.86,1.65,1.65,0,0,1-1.5,0,.46.46,0,0,1,0-.86A1.65,1.65,0,0,1,42.51,80.56Z"/><path id="_Path_257" data-name="&lt;Path&gt;" class="cls-1" d="M46.42,78.3a.46.46,0,0,1,0,.86,1.65,1.65,0,0,1-1.5,0,.46.46,0,0,1,0-.86A1.65,1.65,0,0,1,46.42,78.3Z"/><path id="_Path_258" data-name="&lt;Path&gt;" class="cls-1" d="M50.34,76a.46.46,0,0,1,0,.86,1.65,1.65,0,0,1-1.5,0,.46.46,0,0,1,0-.86A1.65,1.65,0,0,1,50.34,76Z"/><path id="_Path_259" data-name="&lt;Path&gt;" class="cls-1" d="M54.25,73.78a.46.46,0,0,1,0,.86,1.65,1.65,0,0,1-1.5,0,.46.46,0,0,1,0-.86A1.65,1.65,0,0,1,54.25,73.78Z"/><path id="_Path_260" data-name="&lt;Path&gt;" class="cls-1" d="M58.16,71.52a.46.46,0,0,1,0,.86,1.65,1.65,0,0,1-1.5,0,.46.46,0,0,1,0-.86A1.65,1.65,0,0,1,58.16,71.52Z"/><path id="_Path_261" data-name="&lt;Path&gt;" class="cls-1" d="M30.77,82.82a.46.46,0,0,1,0,.86,1.65,1.65,0,0,1-1.5,0,.46.46,0,0,1,0-.86A1.65,1.65,0,0,1,30.77,82.82Z"/><path id="_Path_262" data-name="&lt;Path&gt;" class="cls-1" d="M34.69,80.56a.46.46,0,0,1,0,.86,1.65,1.65,0,0,1-1.5,0,.46.46,0,0,1,0-.86A1.65,1.65,0,0,1,34.69,80.56Z"/><path id="_Path_263" data-name="&lt;Path&gt;" class="cls-1" d="M38.6,78.3a.46.46,0,0,1,0,.86,1.65,1.65,0,0,1-1.5,0,.46.46,0,0,1,0-.86A1.65,1.65,0,0,1,38.6,78.3Z"/><path id="_Path_264" data-name="&lt;Path&gt;" class="cls-1" d="M42.51,76a.46.46,0,0,1,0,.86,1.65,1.65,0,0,1-1.5,0A.46.46,0,0,1,41,76,1.65,1.65,0,0,1,42.51,76Z"/><path id="_Path_265" data-name="&lt;Path&gt;" class="cls-1" d="M46.42,73.78a.46.46,0,0,1,0,.86,1.65,1.65,0,0,1-1.5,0,.46.46,0,0,1,0-.86A1.65,1.65,0,0,1,46.42,73.78Z"/><path id="_Path_266" data-name="&lt;Path&gt;" class="cls-1" d="M50.34,71.52a.46.46,0,0,1,0,.86,1.65,1.65,0,0,1-1.5,0,.46.46,0,0,1,0-.86A1.65,1.65,0,0,1,50.34,71.52Z"/><path id="_Path_267" data-name="&lt;Path&gt;" class="cls-1" d="M97.52,120.91a.46.46,0,0,1,0,.86,1.65,1.65,0,0,1-1.5,0,.46.46,0,0,1,0-.86A1.65,1.65,0,0,1,97.52,120.91Z"/><path id="_Path_268" data-name="&lt;Path&gt;" class="cls-1" d="M101.43,118.65a.46.46,0,0,1,0,.86,1.65,1.65,0,0,1-1.5,0,.46.46,0,0,1,0-.86A1.65,1.65,0,0,1,101.43,118.65Z"/><path id="_Path_269" data-name="&lt;Path&gt;" class="cls-1" d="M105.34,116.39a.46.46,0,0,1,0,.86,1.65,1.65,0,0,1-1.5,0,.46.46,0,0,1,0-.86A1.65,1.65,0,0,1,105.34,116.39Z"/><path id="_Path_270" data-name="&lt;Path&gt;" class="cls-1" d="M109.25,114.13a.46.46,0,0,1,0,.86,1.65,1.65,0,0,1-1.5,0,.46.46,0,0,1,0-.86A1.65,1.65,0,0,1,109.25,114.13Z"/><path id="_Path_271" data-name="&lt;Path&gt;" class="cls-1" d="M113.17,111.87a.46.46,0,0,1,0,.86,1.65,1.65,0,0,1-1.5,0,.46.46,0,0,1,0-.86A1.65,1.65,0,0,1,113.17,111.87Z"/><path id="_Path_272" data-name="&lt;Path&gt;" class="cls-1" d="M89.69,120.91a.46.46,0,0,1,0,.86,1.65,1.65,0,0,1-1.5,0,.46.46,0,0,1,0-.86A1.65,1.65,0,0,1,89.69,120.91Z"/><path id="_Path_273" data-name="&lt;Path&gt;" class="cls-1" d="M93.6,118.65a.46.46,0,0,1,0,.86,1.65,1.65,0,0,1-1.5,0,.46.46,0,0,1,0-.86A1.65,1.65,0,0,1,93.6,118.65Z"/><path id="_Path_274" data-name="&lt;Path&gt;" class="cls-1" d="M97.52,116.39a.46.46,0,0,1,0,.86,1.65,1.65,0,0,1-1.5,0,.46.46,0,0,1,0-.86A1.65,1.65,0,0,1,97.52,116.39Z"/><path id="_Path_275" data-name="&lt;Path&gt;" class="cls-1" d="M101.43,114.13a.46.46,0,0,1,0,.86,1.65,1.65,0,0,1-1.5,0,.46.46,0,0,1,0-.86A1.65,1.65,0,0,1,101.43,114.13Z"/><path id="_Path_276" data-name="&lt;Path&gt;" class="cls-1" d="M105.34,111.87a.46.46,0,0,1,0,.86,1.65,1.65,0,0,1-1.5,0,.46.46,0,0,1,0-.86A1.65,1.65,0,0,1,105.34,111.87Z"/><path id="_Path_277" data-name="&lt;Path&gt;" class="cls-1" d="M109.25,109.61a.46.46,0,0,1,0,.86,1.65,1.65,0,0,1-1.5,0,.46.46,0,0,1,0-.86A1.65,1.65,0,0,1,109.25,109.61Z"/><path id="_Path_278" data-name="&lt;Path&gt;" class="cls-1" d="M113.17,107.36a.46.46,0,0,1,0,.86,1.65,1.65,0,0,1-1.5,0,.46.46,0,0,1,0-.86A1.65,1.65,0,0,1,113.17,107.36Z"/><path id="_Path_279" data-name="&lt;Path&gt;" class="cls-1" d="M116.93,105.47a.46.46,0,0,1,0,.86,1.65,1.65,0,0,1-1.5,0,.46.46,0,0,1,0-.86A1.65,1.65,0,0,1,116.93,105.47Z"/><path id="_Path_280" data-name="&lt;Path&gt;" class="cls-1" d="M117.08,109.63a.46.46,0,0,1,0,.86,1.65,1.65,0,0,1-1.5,0,.46.46,0,0,1,0-.86A1.65,1.65,0,0,1,117.08,109.63Z"/></g><g class="cls-2"><polygon points="65.35 100.64 83.94 89.84 80.55 98.75 61.97 109.55 65.35 100.64"/><polygon points="25.19 15.1 43.78 4.3 51.31 0 32.73 10.8 25.19 15.1"/><path d="M41.77,21l18.58-10.8a21.63,21.63,0,0,1,6.43.65L48.2,21.62A21.63,21.63,0,0,0,41.77,21Z"/><polygon points="32.73 10.8 51.31 0 60.35 10.17 41.77 20.97 32.73 10.8"/><polygon class="cls-5" points="35.91 21.44 17.33 32.24 26.78 33.83 45.37 23.03 35.91 21.44"/><path class="cls-5" d="M75.32,65.45c-7.27-4.2-13.13-14.37-13.11-22.71,0-4.15,1.48-7.07,3.84-8.44L47.46,45.1c-2.36,1.37-3.82,4.29-3.84,8.44,0,8.34,5.84,18.51,13.11,22.71,3.65,2.11,7,2.3,9.36.91l18.58-10.8C82.29,67.75,79,67.56,75.32,65.45Z"/><polygon class="cls-5" points="80.81 8.05 70.18 1.91 51.59 12.71 62.22 18.85 80.81 8.05"/><polygon class="cls-5" points="99.61 27.89 90.56 27.61 71.97 38.41 81.03 38.69 88.52 51.66 107.11 40.87 99.61 27.89"/><polygon class="cls-4" points="35.91 24.7 17.33 35.5 26.78 37.09 45.37 26.29 35.91 24.7"/><path class="cls-4" d="M73.15,73.05C65.88,68.85,60,58.69,60,50.34c0-4.15,1.48-7.07,3.84-8.44L45.29,52.7c-2.36,1.37-3.82,4.29-3.84,8.44,0,8.34,5.84,18.51,13.11,22.71,3.65,2.11,7,2.3,9.36.91L82.51,74C80.12,75.35,76.8,75.16,73.15,73.05Z"/><polygon class="cls-4" points="80.81 11.31 70.18 5.17 51.59 15.97 62.22 22.11 80.81 11.31"/><polygon class="cls-4" points="97.44 32.24 88.38 31.95 69.8 42.75 78.86 43.04 86.35 56.01 104.93 45.21 97.44 32.24"/><path d="M36,22l7.77,1.31L26.68,33.26,18.9,32,36,22m-.1-.57L17.33,32.24l9.45,1.59L45.36,23l-9.45-1.59Z"/><path d="M63,36.67a12.54,12.54,0,0,0-1.38,6.06c0,8.51,6,18.91,13.38,23.18a12.52,12.52,0,0,0,6.09,1.88l-15.31,8.9a6.25,6.25,0,0,1-3.19.81A11.56,11.56,0,0,1,57,75.78c-7.1-4.1-12.86-14.08-12.84-22.24,0-3.81,1.28-6.64,3.57-8L63,36.67m3-2.37L47.46,45.1c-2.36,1.37-3.82,4.29-3.84,8.44,0,8.34,5.84,18.51,13.11,22.71a12,12,0,0,0,5.9,1.8,6.8,6.8,0,0,0,3.46-.89l18.58-10.8a6.8,6.8,0,0,1-3.46.89,12,12,0,0,1-5.9-1.8c-7.27-4.2-13.13-14.37-13.11-22.71,0-4.15,1.48-7.07,3.84-8.44Z"/><path d="M70.18,2.54l9.54,5.51L62.22,18.22l-9.54-5.51L70.18,2.54m0-.63L51.59,12.71l10.63,6.14L80.81,8,70.18,1.91Z"/><path d="M90.69,28.16l8.6.27,7.07,12.24L88.72,50.92,81.5,38.42a.54.54,0,0,0-.45-.27l-7.16-.22,16.81-9.77m-.14-.55L72,38.41l9.06.28,7.49,13,18.58-10.8-7.49-13-9.06-.28Z"/><polygon points="84.09 94.28 102.68 83.48 106.95 96.35 88.36 107.15 84.09 94.28"/><path d="M86.78,88.43l18.58-10.8a21.51,21.51,0,0,1-2.69,5.84L84.09,94.28A21.51,21.51,0,0,0,86.78,88.43Z"/><path d="M84.19,59.58l18.58-10.8a65,65,0,0,1,2.64,8.93L86.84,68.51A65,65,0,0,0,84.19,59.58Z"/><path d="M65.55,31.63l18.58-10.8a64.84,64.84,0,0,1,6.42,6.78L72,38.41A64.84,64.84,0,0,0,65.55,31.63Z"/><polygon points="96.26 77.81 114.84 67.01 114.81 79.22 96.22 90.02 96.26 77.81"/><polygon points="86.84 68.51 105.42 57.71 114.84 67.01 96.26 77.81 86.84 68.51"/><polygon points="62.22 18.85 80.81 8.05 84.13 20.83 65.55 31.63 62.22 18.85"/><polygon points="88.52 51.66 107.11 40.87 102.78 48.78 84.19 59.58 88.52 51.66"/><path class="cls-5" d="M96.23,90l-9.44-1.59a21.51,21.51,0,0,1-2.69,5.84l4.27,12.88-7.54,4.3-9-10.16a21.8,21.8,0,0,1-6.44-.65L62,109.55l-10.63-6.14L48,90.63a65.41,65.41,0,0,1-6.42-6.77l-9.07-.29L25,70.59l4.33-7.91a63.63,63.63,0,0,1-2.64-8.92L17.3,44.45l0-12.21,9.45,1.59A21.13,21.13,0,0,1,29.47,28L25.19,15.1l7.54-4.3,9,10.17a21.63,21.63,0,0,1,6.43.65l3.39-8.91,10.63,6.14,3.32,12.78A64.84,64.84,0,0,1,72,38.41l9.06.28,7.49,13-4.33,7.91a65,65,0,0,1,2.64,8.93l9.42,9.3ZM56.74,76.25c7.26,4.19,13.17.82,13.2-7.52S64.09,50.21,56.82,46s-13.17-.83-13.2,7.52,5.84,18.51,13.11,22.71"/></g><path d="M10.24,79.38a13.69,13.69,0,0,1,5.27,5,14.11,14.11,0,0,1,1.63,7v2.13l-5-2.9V88.44a8.33,8.33,0,0,0-.4-3,3.23,3.23,0,0,0-1.43-1.62c-.76-.44-1.26-.42-1.53.05a8,8,0,0,0-.41,3.21l0,9.55a11,11,0,0,0,.42,3.62A3.33,3.33,0,0,0,10.23,102c.72.42,1.21.42,1.47,0a5,5,0,0,0,.39-2.35V96.8l5,2.9v2.48q0,4.06-1.7,5.15t-5.24-1a13.33,13.33,0,0,1-5.55-5.7,18.48,18.48,0,0,1-1.67-8.2l0-7.58q0-4.73,1.71-6.23T10.24,79.38Z"/><path d="M31.87,94.25a16.47,16.47,0,0,1,1.79,7.84l0,8.64q0,4.42-1.83,5.75t-5.52-.81a13.72,13.72,0,0,1-5.46-5.53A16.5,16.5,0,0,1,19,102.3l0-8.64q0-4.42,1.82-5.76c1.2-.89,3-.63,5.48.78A13.93,13.93,0,0,1,31.87,94.25Zm-3.57,13.82,0-9.48c0-.54,0-1,0-1.37a12,12,0,0,0-.13-1.26,4.67,4.67,0,0,0-.32-1.19,4.3,4.3,0,0,0-.57-.95,3,3,0,0,0-.9-.78,1.5,1.5,0,0,0-1.07-.27c-.28.06-.47.3-.6.69a6,6,0,0,0-.25,1.21c0,.42-.06,1-.06,1.66l0,9.48c0,.54,0,1,0,1.37a11.35,11.35,0,0,0,.14,1.25,4.74,4.74,0,0,0,.31,1.18,4.23,4.23,0,0,0,.58,1,3.12,3.12,0,0,0,.9.78,1.55,1.55,0,0,0,1.07.28.9.9,0,0,0,.6-.68,5.88,5.88,0,0,0,.24-1.21c0-.41.07-1,.07-1.65"/><path d="M45.36,89.57l5.39,3.11-.1,36.63-5.39-3.11v-1.78a3.65,3.65,0,0,1-4-.08,9.91,9.91,0,0,1-4.16-4.69,19.64,19.64,0,0,1-1.37-8l0-7.6a20.53,20.53,0,0,1,.29-3.64,8.23,8.23,0,0,1,.9-2.6,2.25,2.25,0,0,1,1.71-1.21,4.36,4.36,0,0,1,2.62.74,12,12,0,0,1,4,4.35Zm-.09,31.93,0-16.71a7.68,7.68,0,0,0-2.09-2c-.71-.41-1.24-.33-1.55.24a5.57,5.57,0,0,0-.48,2.6l0,9.59a18.5,18.5,0,0,0,.13,2.42,6.29,6.29,0,0,0,.6,1.95A3.27,3.27,0,0,0,43.19,121a3.59,3.59,0,0,0,2.08.5"/><path d="M67.53,126.27l-9-5.19V125c0,.54,0,1,0,1.28s0,.68.07,1.13a5.62,5.62,0,0,0,.18,1.1,7.79,7.79,0,0,0,.34.91,2.79,2.79,0,0,0,.55.84,3.68,3.68,0,0,0,.81.62c.71.41,1.21.41,1.5,0a4.44,4.44,0,0,0,.43-2.29v-1.5L67.5,130v1c0,2.71-.6,4.44-1.78,5.21s-2.93.47-5.25-.88a13.53,13.53,0,0,1-5.6-5.72,18.48,18.48,0,0,1-1.69-8.3l0-7.39q0-4.84,1.75-6.31t5.58.74A14.79,14.79,0,0,1,64,111.09a11.25,11.25,0,0,1,2.16,3.33,16.49,16.49,0,0,1,1.09,3.85,28.29,28.29,0,0,1,.31,4.58Zm-9-10V118l3.88,2.24v-2.49a8.92,8.92,0,0,0-.42-3.1,3.42,3.42,0,0,0-1.53-1.75c-.74-.43-1.25-.39-1.52.1a8.37,8.37,0,0,0-.41,3.31"/></g></g></svg>