<svg xmlns="http://www.w3.org/2000/svg" viewBox="0 0 71.99 54.61"><defs><style>.cls-1{fill:#271f3b;stroke:#271f3b;stroke-miterlimit:10;stroke-width:2.45px;}</style></defs><title>Button Mail_1</title><g id="Layer_2" data-name="Layer 2"><g id="Contact_New" data-name="Contact New"><path class="cls-1" d="M1.23,2.43V52.18a1.2,1.2,0,0,0,1.2,1.2H69.56a1.2,1.2,0,0,0,1.2-1.2V2.43a1.2,1.2,0,0,0-1.2-1.2H2.43A1.2,1.2,0,0,0,1.23,2.43ZM60.94,9.15,36.75,28.76a1.2,1.2,0,0,1-1.51,0L11,9.15A1.2,1.2,0,0,1,11.8,7H60.19A1.2,1.2,0,0,1,60.94,9.15ZM7,46.38V15.86a1.2,1.2,0,0,1,2-.93L35.24,36.21a1.2,1.2,0,0,0,1.51,0L63,14.93a1.2,1.2,0,0,1,2,.93V46.38a1.2,1.2,0,0,1-1.2,1.2H8.22A1.2,1.2,0,0,1,7,46.38Z"/></g></g></svg>