<svg xmlns="http://www.w3.org/2000/svg" viewBox="0 0 182.78 237.52"><defs><style>.cls-1{fill:#ffbe2e;}.cls-2{fill:#0d1858;}.cls-3{fill:#f4e3cc;}.cls-4{fill:none;}.cls-5{fill:#16110d;}</style></defs><title>Button Github_1</title><g id="Layer_2" data-name="Layer 2"><g id="Contact"><g id="_Group_" data-name="&lt;Group&gt;"><g id="_Group_2" data-name="&lt;Group&gt;"><g id="_Group_3" data-name="&lt;Group&gt;"><g id="_Group_4" data-name="&lt;Group&gt;"><g id="_Group_5" data-name="&lt;Group&gt;"><g id="_Group_6" data-name="&lt;Group&gt;"><g id="_Group_7" data-name="&lt;Group&gt;"><path id="_Path_" data-name="&lt;Path&gt;" class="cls-1" d="M110.28,204.83s-19-19.22-19-20,11.34-14.27,11.34-14.27l22.77,25-17.7-26.86c-5.53-8.4-12.45-15.23-19.58-19.35L46.68,125.43c-18.3-10.57-7.28-20.64-7.28-41.77V35.37L10.74,18.05,38,3.88c.24-.15.49-.27.74-.41l.75-.41,0,0C45.4.38,53.15,1.11,61.67,6l86.08,49C166,65.6,180.88,91.3,180.88,112.43v65.13c0,10.45-3.64,17.81-9.52,21.32v0l-.1.06-.27.15"/></g></g></g></g></g><g id="_Group_8" data-name="&lt;Group&gt;"><g id="_Group_9" data-name="&lt;Group&gt;"><g id="_Group_10" data-name="&lt;Group&gt;"><g id="_Group_11" data-name="&lt;Group&gt;"><g id="_Group_12" data-name="&lt;Group&gt;"><polygon id="_Path_2" data-name="&lt;Path&gt;" class="cls-2" points="17.12 20.11 13.88 18.16 14.31 17.93 17.12 20.11"/></g></g></g></g></g><g id="_Group_13" data-name="&lt;Group&gt;"><g id="_Group_14" data-name="&lt;Group&gt;"><g id="_Group_15" data-name="&lt;Group&gt;"><g id="_Group_16" data-name="&lt;Group&gt;"><g id="_Group_17" data-name="&lt;Group&gt;"><path id="_Path_3" data-name="&lt;Path&gt;" class="cls-3" d="M50.7,169.75l-15.6-8.32C16.8,150.87,2,125.18,2,104V38.92C2,17.79,16.8,9.22,35.1,19.79l86.08,49c18.3,10.57,33.14,36.26,33.14,57.39v65.13c0,21.13-14.83,29.7-33.14,19.13l-5.52-3.18"/></g></g></g></g></g><g id="_Group_18" data-name="&lt;Group&gt;"><g id="_Group_19" data-name="&lt;Group&gt;"><g id="_Group_20" data-name="&lt;Group&gt;"><path id="_Path_4" data-name="&lt;Path&gt;" class="cls-1" d="M115.15,206.56l2.85,1.65a86.09,86.09,0,0,0,8.81,6.21H137c4.28,2.47,2.54-2.42,6.3-2,6.48-3.24,10.55-10.81,10.55-21.85V125.49c0-21.13-14.83-46.83-33.13-57.39l-86.08-49a32.28,32.28,0,0,0-12.12-4.32C16,18,11.92,25.58,11.92,36.62v65.13c0,21.13,14.83,46.83,33.13,57.39"/></g></g></g><g id="_Group_21" data-name="&lt;Group&gt;"><g id="_Group_22" data-name="&lt;Group&gt;"><g id="_Group_23" data-name="&lt;Group&gt;"><g id="_Group_24" data-name="&lt;Group&gt;"><g id="_Group_25" data-name="&lt;Group&gt;"><path id="_Path_5" data-name="&lt;Path&gt;" class="cls-3" d="M34.3,28.77C26.2,24.09,18.79,23.18,13,25.42L38.69,12l0,0c5.87-2.71,13.61-2,22.14,2.93l86.08,49a61.92,61.92,0,0,1,17.57,16l-25.8,14.76a62.65,62.65,0,0,0-18.35-17Z"/></g></g></g></g></g><path class="cls-4" d="M153,191.32V126.19c0-20.61-14.66-45.76-32.51-56.06l-86.15-49C27,16.87,20.08,15.73,14.6,17.8l-.28.13,0,0a15.8,15.8,0,0,0-2,.89c-5.76,3.33-9,10.47-9,20.12V104c0,20.61,14.62,45.76,32.46,56.06l15.65,8.32,40.28,23.24c-1.94-6.42-1.93-6.67-1.93-6.82,0-.65,0-1.33,11.71-15.26l1.14-1.35L113.33,180l-6.88-10.45c-5.39-8.18-12.16-14.88-19.07-18.86L45.7,126.76C27,116,37.44,105.24,37.44,83.65V36.24L16.8,20.11,40.74,34.5V83.65c0,20.61-11.24,30.14,6.61,40.44L88.86,148c7.31,4.22,14.48,11.26,20.13,19.84l17.71,26.86-2.42,1.88-21.58-23.7c-4.33,5.18-8.7,10.57-9.76,12.14.33,1.2,1.31,4.44,2.67,8.87l20.81,12,5.52,3.18c7.28,4.21,14.13,5.37,19.59,3.39l3.39-1.67C150.08,207.29,153,200.42,153,191.32Z"/><path class="cls-4" d="M121.94,67.46c14.51,8.38,26.92,26.13,31.75,43.75l23.39-13.74c-4.73-16.6-16.43-33.22-30.1-41.11L60.9,7.36C53.18,2.9,45.82,1.88,40.18,4.49l-.86.41-.62.34L22.25,13.8a33.28,33.28,0,0,1,13.62,4.66Z"/><path class="cls-5" d="M14.57,17.8l-.28.12,0,0Z"/><path class="cls-5" d="M148.69,53.7,62.53,4.7C54.29-.06,46.23-1.24,39.8,1.33l-.1-.06L38,2.12c-.34.18-.58.3-.8.44L13.27,15a19.7,19.7,0,0,1,9-1.21L38.7,5.24l.62-.34.86-.41c5.65-2.61,13-1.59,20.72,2.87l86.08,49c13.68,7.9,25.37,24.51,30.1,41.11l-23.14,13.74a57.7,57.7,0,0,1,2.41,15v65.13c0,10.27-3.63,18.08-9.77,22.18l25.09-13,.09-.07.07-.06.17-.1,1-.52c6.21-4.08,9.78-11.94,9.78-22.23V112.43C182.78,90.84,167.39,64.5,148.69,53.7Z"/><path class="cls-5" d="M143.84,211.44c.32-.19.64-.39.94-.6l-3.25,1.67A14.5,14.5,0,0,0,143.84,211.44Z"/><path class="cls-5" d="M145.37,214.1c.33-.19.64-.4,1-.61l-3.6,1.85A17.69,17.69,0,0,0,145.37,214.1Z"/><path class="cls-5" d="M51.46,168.42l-15.7-8.32C17.92,149.8,3.3,124.65,3.3,104V38.92c0-9.65,3.27-16.79,9-20.12a15.1,15.1,0,0,1,1.9-.89l-2.63-2.06L13.26,15a20.18,20.18,0,0,0-2.58,1.13C3.93,20,0,28.13,0,38.92V104C0,125.63,15.42,152,34.12,162.77l15.7,8.32L93,196c-.52-1.68-.92-3.1-1.29-4.31Z"/><path class="cls-5" d="M106,237.32l-1.4.2A4.85,4.85,0,0,0,106,237.32Z"/><path class="cls-5" d="M121.94,209.11l-5.52-3.18-20.81-12,1.33,4.32,14.79,8.54,1.57-1.21L128.39,214l6.82,1.73,6.33-3.25C136.07,214.48,129.23,213.32,121.94,209.11Z"/><path class="cls-5" d="M34.33,21.12l86.21,49C138.39,80.43,153,105.58,153,126.19v65.13c0,9.1-3,16-8.13,19.52l4.71-2.45,4.72-10.05.71-70.39L152,112.23l1.72-1c-4.83-17.62-17.24-35.37-31.75-43.75l-86.08-49A33.28,33.28,0,0,0,22.25,13.8l-7.68,4C20,15.73,27,16.87,34.33,21.12Z"/><path class="cls-5" d="M156.35,191.32V126.19a57.7,57.7,0,0,0-2.41-15l-1.85,1,3,15.7-.76,70.39-4.77,10.05-4.78,2.45c-.31.21-.62.41-.95.6a14.52,14.52,0,0,1-2.31,1.07l-6.33,3.25L128.39,214l-15.09-8.46-1.57,1.21,3.15,1.82,5.52,3.18c8.17,4.72,16,5.94,22.33,3.57l3.85-1.85C152.73,209.4,156.35,201.58,156.35,191.32Z"/><path class="cls-5" d="M14.29,17.91h0l7.92-4.12a19.71,19.71,0,0,0-9,1.21l-1.63.85Z"/><path class="cls-5" d="M95.61,193.91l-3.9-2.25L93,196l3.91,2.26Z"/></g></g><path d="M78.27,65.9c23.57,13.61,42.62,46.61,42.55,73.69-.06,21.66-12.33,33-29.3,29.7a4.61,4.61,0,0,1-.77-.35,4.21,4.21,0,0,1-2.08-3.65l0-13.46a20.35,20.35,0,0,0-2.9-10.77c9.51,4.27,19.51,5.89,19.56-12.95a32.88,32.88,0,0,0-4.36-15.7c.44-1,1.92-5.12-.38-13.22a5.31,5.31,0,0,0-.95-.66c-1.54-.89-5-2.24-10.79-1.08a65.51,65.51,0,0,0-10.69-7.83A44,44,0,0,0,67.52,85.1c-5.75-7.81-9.23-10.48-10.78-11.37a3.68,3.68,0,0,0-1-.44c-2.34,5.41-.89,11.24-.45,12.74-2.73,1.86-4.42,5.27-4.43,10.63-.05,18.79,9.9,28.75,19.37,35.46-1.22.52-2.34,2-2.73,5a11.24,11.24,0,0,1-4.89-1.53c-2.54-1.47-5.41-4.3-7.52-9.71-.11-.3-2.24-6-6.53-8.83-.34-.19-4-2.25-.3,2.81.14.16,2.79,3.12,4.72,9.92a20.31,20.31,0,0,0,9.74,12,24.25,24.25,0,0,0,4.59,2l0,9.13c0,1.13-.54,2.13-2.11,1.23a6.09,6.09,0,0,1-.72-.5C47.57,137.41,35.39,112,35.45,90.3,35.53,63.22,54.71,52.29,78.27,65.9Z"/></g></g></svg>