<?xml version="1.0" encoding="utf-8"?>
<!-- Generator: Adobe Illustrator 20.1.0, SVG Export Plug-In . SVG Version: 6.00 Build 0)  -->
<svg version="1.1" id="Layer_1" xmlns="http://www.w3.org/2000/svg" xmlns:xlink="http://www.w3.org/1999/xlink" x="0px" y="0px"
	 viewBox="0 0 72 54.6" style="enable-background:new 0 0 72 54.6;" xml:space="preserve">
<style type="text/css">
	.st0{fill:#271F3B;}
	.st1{display:none;}
	.st2{display:inline;}
	.st3{fill:#FFFFFF;stroke:#FFFFFF;stroke-width:0.6605;stroke-miterlimit:10;}
	.st4{fill:#FFFFFF;}
</style>
<circle class="st0" cx="36" cy="27.3" r="27"/>
<g id="Mail" class="st1">
	<g id="Contact_New" class="st2">
		<path class="st3" d="M20.8,16.5v21.7c0,0.3,0.2,0.5,0.5,0.5c0,0,0,0,0,0h29.3c0.3,0,0.5-0.2,0.5-0.5V16.5c0-0.3-0.2-0.5-0.5-0.5
			H21.4C21.1,15.9,20.8,16.2,20.8,16.5L20.8,16.5z M46.9,19.4l-10.5,8.5c-0.2,0.2-0.5,0.2-0.7,0l-10.6-8.5c-0.2-0.2-0.3-0.5-0.1-0.7
			c0.1-0.1,0.3-0.2,0.4-0.2h21.1c0.3,0,0.5,0.2,0.5,0.5C47.1,19.1,47,19.3,46.9,19.4z M23.4,35.6V22.3c0-0.3,0.2-0.5,0.5-0.5
			c0.1,0,0.3,0,0.4,0.1l11.4,9.3c0.2,0.2,0.5,0.2,0.7,0l11.4-9.3c0.2-0.2,0.5-0.2,0.7,0c0.1,0.1,0.1,0.2,0.1,0.4v13.3
			c0,0.3-0.2,0.5-0.5,0.5l0,0H23.9C23.6,36.1,23.4,35.9,23.4,35.6C23.4,35.6,23.4,35.6,23.4,35.6z"/>
	</g>
</g>
<g id="Linkedin" class="st1">
	<g id="Layer_2_1_" class="st2">
		<g id="Contact_New_1_">
			<path class="st4" d="M27.7,14.7c0,1.6-1.3,2.9-2.9,2.9s-2.9-1.3-2.9-2.9c0-1.6,1.3-2.9,2.9-2.9C26.4,11.8,27.7,13.1,27.7,14.7
				C27.7,14.7,27.7,14.7,27.7,14.7z M27.7,20h-5.9v18.8h5.9V20z M37.2,20h-5.9v18.8h5.9V29c0-5.5,7.1-6,7.1,0v9.9h5.9V26.9
				c0-9.3-10.5-8.9-13-4.4L37.2,20z"/>
		</g>
	</g>
</g>
<g id="Behance">
	<g id="Contact_New_2_">
		<path class="st4" d="M48.6,20.4h-8.8v-2.5h8.8V20.4z M50.7,33c-0.6,1.6-2.6,3.8-6.4,3.8s-7-2.2-7-7.1s2.9-7.4,6.9-7.4
			c3.9,0,6.2,2.2,6.8,5.6c0.1,0.9,0.1,1.8,0.1,2.7H41c0.2,4,4.4,4.2,5.8,2.6H50.7z M41.1,27.9h6.2c-0.1-1.9-1.4-2.8-3.1-2.8
			C42.4,25.2,41.3,26.1,41.1,27.9z M29,36.7h-8.1V17.9h8.7c6.9,0.1,7,6.8,3.4,8.7C37.4,28.2,37.6,36.7,29,36.7z M24.7,25.4h4.5
			c3.2,0,3.7-3.8-0.4-3.8h-4.1V25.4z M28.9,29.2h-4.3V33h4.2C32.7,33,32.5,29.2,28.9,29.2z"/>
	</g>
</g>
</svg>
