<svg xmlns="http://www.w3.org/2000/svg" xmlns:xlink="http://www.w3.org/1999/xlink" viewBox="0 0 117.56 129.52"><defs><style>.cls-1{fill:none;}.cls-2{fill:#16110d;}.cls-3{isolation:isolate;}.cls-4{fill:#fff;}.cls-5{fill:#ffbe2e;}.cls-6{fill:#fec;}.cls-7{clip-path:url(#clip-path);}</style><clipPath id="clip-path"><path class="cls-1" d="M17,.82a4.48,4.48,0,0,0-3.45-.7,2.2,2.2,0,0,0-.45.2L1.63,7a2.19,2.19,0,0,1,.45-.2,4.48,4.48,0,0,1,3.45.7L90.23,56.41l11.5-6.68Z"/></clipPath></defs><title>Button Live Website</title><g id="Layer_2" data-name="Layer 2"><g id="Code"><g id="_Group_" data-name="&lt;Group&gt;"><path id="_Path_" data-name="&lt;Path&gt;" class="cls-2" d="M46.93,100.42a.36.36,0,0,1,0,.67,1.29,1.29,0,0,1-1.17,0,.36.36,0,0,1,0-.67A1.29,1.29,0,0,1,46.93,100.42Z"/><path id="_Path_2" data-name="&lt;Path&gt;" class="cls-2" d="M50,98.69a.36.36,0,0,1,0,.67,1.29,1.29,0,0,1-1.17,0,.36.36,0,0,1,0-.67A1.29,1.29,0,0,1,50,98.69Z"/><path id="_Path_3" data-name="&lt;Path&gt;" class="cls-2" d="M53.08,97a.36.36,0,0,1,0,.67,1.29,1.29,0,0,1-1.17,0,.36.36,0,0,1,0-.67A1.29,1.29,0,0,1,53.08,97Z"/><path id="_Path_4" data-name="&lt;Path&gt;" class="cls-2" d="M56.15,95.22a.36.36,0,0,1,0,.67,1.29,1.29,0,0,1-1.17,0,.36.36,0,0,1,0-.67A1.29,1.29,0,0,1,56.15,95.22Z"/><path id="_Path_5" data-name="&lt;Path&gt;" class="cls-2" d="M59.23,93.48a.36.36,0,0,1,0,.67,1.29,1.29,0,0,1-1.17,0,.36.36,0,0,1,0-.67A1.29,1.29,0,0,1,59.23,93.48Z"/><path id="_Path_6" data-name="&lt;Path&gt;" class="cls-2" d="M62.3,91.75a.36.36,0,0,1,0,.67,1.29,1.29,0,0,1-1.17,0,.36.36,0,0,1,0-.67A1.29,1.29,0,0,1,62.3,91.75Z"/><path id="_Path_7" data-name="&lt;Path&gt;" class="cls-2" d="M65.37,90a.36.36,0,0,1,0,.68,1.29,1.29,0,0,1-1.17,0,.36.36,0,0,1,0-.68A1.29,1.29,0,0,1,65.37,90Z"/><path id="_Path_8" data-name="&lt;Path&gt;" class="cls-2" d="M68.45,88.28a.36.36,0,0,1,0,.67,1.29,1.29,0,0,1-1.17,0,.36.36,0,0,1,0-.67A1.29,1.29,0,0,1,68.45,88.28Z"/><path id="_Path_9" data-name="&lt;Path&gt;" class="cls-2" d="M43.9,98.63a.36.36,0,0,1,0,.67,1.29,1.29,0,0,1-1.17,0,.36.36,0,0,1,0-.67A1.29,1.29,0,0,1,43.9,98.63Z"/><path id="_Path_10" data-name="&lt;Path&gt;" class="cls-2" d="M47,96.89a.36.36,0,0,1,0,.67,1.29,1.29,0,0,1-1.17,0,.36.36,0,0,1,0-.67A1.29,1.29,0,0,1,47,96.89Z"/><path id="_Path_11" data-name="&lt;Path&gt;" class="cls-2" d="M50,95.16a.36.36,0,0,1,0,.67,1.29,1.29,0,0,1-1.17,0,.36.36,0,0,1,0-.67A1.29,1.29,0,0,1,50,95.16Z"/><path id="_Path_12" data-name="&lt;Path&gt;" class="cls-2" d="M53.12,93.42a.36.36,0,0,1,0,.67,1.29,1.29,0,0,1-1.17,0,.36.36,0,0,1,0-.67A1.29,1.29,0,0,1,53.12,93.42Z"/><path id="_Path_13" data-name="&lt;Path&gt;" class="cls-2" d="M56.19,91.69a.36.36,0,0,1,0,.67,1.29,1.29,0,0,1-1.17,0,.36.36,0,0,1,0-.68A1.29,1.29,0,0,1,56.19,91.69Z"/><path id="_Path_14" data-name="&lt;Path&gt;" class="cls-2" d="M59.26,90a.36.36,0,0,1,0,.68,1.29,1.29,0,0,1-1.17,0,.36.36,0,0,1,0-.67A1.29,1.29,0,0,1,59.26,90Z"/><path id="_Path_15" data-name="&lt;Path&gt;" class="cls-2" d="M62.34,88.22a.36.36,0,0,1,0,.67,1.29,1.29,0,0,1-1.17,0,.36.36,0,0,1,0-.67A1.29,1.29,0,0,1,62.34,88.22Z"/><path id="_Path_16" data-name="&lt;Path&gt;" class="cls-2" d="M65.41,86.48a.36.36,0,0,1,0,.67,1.29,1.29,0,0,1-1.17,0,.36.36,0,0,1,0-.67A1.29,1.29,0,0,1,65.41,86.48Z"/><path id="_Path_17" data-name="&lt;Path&gt;" class="cls-2" d="M40.86,96.84a.36.36,0,0,1,0,.67,1.29,1.29,0,0,1-1.17,0,.36.36,0,0,1,0-.67A1.29,1.29,0,0,1,40.86,96.84Z"/><path id="_Path_18" data-name="&lt;Path&gt;" class="cls-2" d="M43.93,95.1a.36.36,0,0,1,0,.67,1.29,1.29,0,0,1-1.17,0,.36.36,0,0,1,0-.67A1.29,1.29,0,0,1,43.93,95.1Z"/><path id="_Path_19" data-name="&lt;Path&gt;" class="cls-2" d="M47,93.37A.36.36,0,0,1,47,94a1.29,1.29,0,0,1-1.17,0,.36.36,0,0,1,0-.67A1.29,1.29,0,0,1,47,93.37Z"/><path id="_Path_20" data-name="&lt;Path&gt;" class="cls-2" d="M50.08,91.63a.36.36,0,0,1,0,.68,1.29,1.29,0,0,1-1.17,0,.36.36,0,0,1,0-.68A1.29,1.29,0,0,1,50.08,91.63Z"/><path id="_Path_21" data-name="&lt;Path&gt;" class="cls-2" d="M53.15,89.9a.36.36,0,0,1,0,.67,1.29,1.29,0,0,1-1.17,0,.36.36,0,0,1,0-.67A1.29,1.29,0,0,1,53.15,89.9Z"/><path id="_Path_22" data-name="&lt;Path&gt;" class="cls-2" d="M56.22,88.16a.36.36,0,0,1,0,.67,1.29,1.29,0,0,1-1.17,0,.36.36,0,0,1,0-.67A1.29,1.29,0,0,1,56.22,88.16Z"/><path id="_Path_23" data-name="&lt;Path&gt;" class="cls-2" d="M59.3,86.42a.36.36,0,0,1,0,.67,1.29,1.29,0,0,1-1.17,0,.36.36,0,0,1,0-.67A1.29,1.29,0,0,1,59.3,86.42Z"/><path id="_Path_24" data-name="&lt;Path&gt;" class="cls-2" d="M62.37,84.69a.36.36,0,0,1,0,.67,1.29,1.29,0,0,1-1.17,0,.36.36,0,0,1,0-.67A1.29,1.29,0,0,1,62.37,84.69Z"/><path id="_Path_25" data-name="&lt;Path&gt;" class="cls-2" d="M37.82,95a.36.36,0,0,1,0,.67,1.29,1.29,0,0,1-1.17,0,.36.36,0,0,1,0-.67A1.29,1.29,0,0,1,37.82,95Z"/><path id="_Path_26" data-name="&lt;Path&gt;" class="cls-2" d="M40.89,93.31a.36.36,0,0,1,0,.67,1.29,1.29,0,0,1-1.17,0,.36.36,0,0,1,0-.67A1.29,1.29,0,0,1,40.89,93.31Z"/><path id="_Path_27" data-name="&lt;Path&gt;" class="cls-2" d="M44,91.57a.36.36,0,0,1,0,.68,1.29,1.29,0,0,1-1.17,0,.36.36,0,0,1,0-.68A1.29,1.29,0,0,1,44,91.57Z"/><path id="_Path_28" data-name="&lt;Path&gt;" class="cls-2" d="M47,89.84a.36.36,0,0,1,0,.67,1.29,1.29,0,0,1-1.17,0,.36.36,0,0,1,0-.67A1.29,1.29,0,0,1,47,89.84Z"/><path id="_Path_29" data-name="&lt;Path&gt;" class="cls-2" d="M50.11,88.1a.36.36,0,0,1,0,.67,1.29,1.29,0,0,1-1.17,0,.36.36,0,0,1,0-.67A1.29,1.29,0,0,1,50.11,88.1Z"/><path id="_Path_30" data-name="&lt;Path&gt;" class="cls-2" d="M53.18,86.37a.36.36,0,0,1,0,.67A1.29,1.29,0,0,1,52,87a.36.36,0,0,1,0-.67A1.29,1.29,0,0,1,53.18,86.37Z"/><path id="_Path_31" data-name="&lt;Path&gt;" class="cls-2" d="M56.26,84.63a.36.36,0,0,1,0,.67,1.29,1.29,0,0,1-1.17,0,.36.36,0,0,1,0-.67A1.29,1.29,0,0,1,56.26,84.63Z"/><path id="_Path_32" data-name="&lt;Path&gt;" class="cls-2" d="M59.33,82.9a.36.36,0,0,1,0,.67,1.29,1.29,0,0,1-1.17,0,.36.36,0,0,1,0-.67A1.29,1.29,0,0,1,59.33,82.9Z"/><path id="_Path_33" data-name="&lt;Path&gt;" class="cls-2" d="M34.78,93.25a.36.36,0,0,1,0,.68,1.29,1.29,0,0,1-1.17,0,.36.36,0,0,1,0-.68A1.29,1.29,0,0,1,34.78,93.25Z"/><path id="_Path_34" data-name="&lt;Path&gt;" class="cls-2" d="M37.85,91.51a.36.36,0,0,1,0,.67,1.29,1.29,0,0,1-1.17,0,.36.36,0,0,1,0-.67A1.29,1.29,0,0,1,37.85,91.51Z"/><path id="_Path_35" data-name="&lt;Path&gt;" class="cls-2" d="M40.92,89.78a.36.36,0,0,1,0,.67,1.29,1.29,0,0,1-1.17,0,.36.36,0,0,1,0-.67A1.29,1.29,0,0,1,40.92,89.78Z"/><path id="_Path_36" data-name="&lt;Path&gt;" class="cls-2" d="M44,88a.36.36,0,0,1,0,.67,1.29,1.29,0,0,1-1.17,0,.36.36,0,0,1,0-.67A1.29,1.29,0,0,1,44,88Z"/><path id="_Path_37" data-name="&lt;Path&gt;" class="cls-2" d="M47.07,86.31a.36.36,0,0,1,0,.67,1.29,1.29,0,0,1-1.17,0,.36.36,0,0,1,0-.67A1.29,1.29,0,0,1,47.07,86.31Z"/><path id="_Path_38" data-name="&lt;Path&gt;" class="cls-2" d="M50.14,84.57a.36.36,0,0,1,0,.67,1.29,1.29,0,0,1-1.17,0,.36.36,0,0,1,0-.67A1.29,1.29,0,0,1,50.14,84.57Z"/><path id="_Path_39" data-name="&lt;Path&gt;" class="cls-2" d="M53.22,82.84a.36.36,0,0,1,0,.67,1.29,1.29,0,0,1-1.17,0,.36.36,0,0,1,0-.67A1.29,1.29,0,0,1,53.22,82.84Z"/><path id="_Path_40" data-name="&lt;Path&gt;" class="cls-2" d="M56.29,81.1a.36.36,0,0,1,0,.67,1.29,1.29,0,0,1-1.17,0,.36.36,0,0,1,0-.67A1.29,1.29,0,0,1,56.29,81.1Z"/><path id="_Path_41" data-name="&lt;Path&gt;" class="cls-2" d="M31.71,91.44a.36.36,0,0,1,0,.67,1.29,1.29,0,0,1-1.17,0,.36.36,0,0,1,0-.67A1.29,1.29,0,0,1,31.71,91.44Z"/><path id="_Path_42" data-name="&lt;Path&gt;" class="cls-2" d="M34.79,89.7a.36.36,0,0,1,0,.67,1.29,1.29,0,0,1-1.17,0,.36.36,0,0,1,0-.67A1.29,1.29,0,0,1,34.79,89.7Z"/><path id="_Path_43" data-name="&lt;Path&gt;" class="cls-2" d="M37.86,88a.36.36,0,0,1,0,.67,1.29,1.29,0,0,1-1.17,0,.36.36,0,0,1,0-.67A1.29,1.29,0,0,1,37.86,88Z"/><path id="_Path_44" data-name="&lt;Path&gt;" class="cls-2" d="M40.93,86.23a.36.36,0,0,1,0,.67,1.29,1.29,0,0,1-1.17,0,.36.36,0,0,1,0-.67A1.29,1.29,0,0,1,40.93,86.23Z"/><path id="_Path_45" data-name="&lt;Path&gt;" class="cls-2" d="M44,84.49a.36.36,0,0,1,0,.67,1.29,1.29,0,0,1-1.17,0,.36.36,0,0,1,0-.67A1.29,1.29,0,0,1,44,84.49Z"/><path id="_Path_46" data-name="&lt;Path&gt;" class="cls-2" d="M47.08,82.76a.36.36,0,0,1,0,.68,1.29,1.29,0,0,1-1.17,0,.36.36,0,0,1,0-.68A1.29,1.29,0,0,1,47.08,82.76Z"/><path id="_Path_47" data-name="&lt;Path&gt;" class="cls-2" d="M50.15,81a.36.36,0,0,1,0,.67,1.29,1.29,0,0,1-1.17,0A.36.36,0,0,1,49,81,1.29,1.29,0,0,1,50.15,81Z"/><path id="_Path_48" data-name="&lt;Path&gt;" class="cls-2" d="M53.22,79.29a.36.36,0,0,1,0,.67A1.29,1.29,0,0,1,52,80a.36.36,0,0,1,0-.67A1.29,1.29,0,0,1,53.22,79.29Z"/><path id="_Path_49" data-name="&lt;Path&gt;" class="cls-2" d="M28.67,89.64a.36.36,0,0,1,0,.67,1.29,1.29,0,0,1-1.17,0,.36.36,0,0,1,0-.67A1.29,1.29,0,0,1,28.67,89.64Z"/><path id="_Path_50" data-name="&lt;Path&gt;" class="cls-2" d="M31.75,87.91a.36.36,0,0,1,0,.67,1.29,1.29,0,0,1-1.17,0,.36.36,0,0,1,0-.67A1.29,1.29,0,0,1,31.75,87.91Z"/><path id="_Path_51" data-name="&lt;Path&gt;" class="cls-2" d="M34.82,86.17a.36.36,0,0,1,0,.67,1.29,1.29,0,0,1-1.17,0,.36.36,0,0,1,0-.67A1.29,1.29,0,0,1,34.82,86.17Z"/><path id="_Path_52" data-name="&lt;Path&gt;" class="cls-2" d="M37.89,84.44a.36.36,0,0,1,0,.67,1.29,1.29,0,0,1-1.17,0,.36.36,0,0,1,0-.67A1.29,1.29,0,0,1,37.89,84.44Z"/><path id="_Path_53" data-name="&lt;Path&gt;" class="cls-2" d="M41,82.7a.36.36,0,0,1,0,.68,1.29,1.29,0,0,1-1.17,0,.36.36,0,0,1,0-.68A1.29,1.29,0,0,1,41,82.7Z"/><path id="_Path_54" data-name="&lt;Path&gt;" class="cls-2" d="M44,81a.36.36,0,0,1,0,.67,1.29,1.29,0,0,1-1.17,0,.36.36,0,0,1,0-.67A1.29,1.29,0,0,1,44,81Z"/><path id="_Path_55" data-name="&lt;Path&gt;" class="cls-2" d="M47.11,79.23a.36.36,0,0,1,0,.67,1.29,1.29,0,0,1-1.17,0,.36.36,0,0,1,0-.67A1.29,1.29,0,0,1,47.11,79.23Z"/><path id="_Path_56" data-name="&lt;Path&gt;" class="cls-2" d="M50.19,77.5a.36.36,0,0,1,0,.67,1.29,1.29,0,0,1-1.17,0,.36.36,0,0,1,0-.67A1.29,1.29,0,0,1,50.19,77.5Z"/><path id="_Path_57" data-name="&lt;Path&gt;" class="cls-2" d="M25.63,87.85a.36.36,0,0,1,0,.67,1.29,1.29,0,0,1-1.17,0,.36.36,0,0,1,0-.67A1.29,1.29,0,0,1,25.63,87.85Z"/><path id="_Path_58" data-name="&lt;Path&gt;" class="cls-2" d="M28.71,86.11a.36.36,0,0,1,0,.67,1.29,1.29,0,0,1-1.17,0,.36.36,0,0,1,0-.67A1.29,1.29,0,0,1,28.71,86.11Z"/><path id="_Path_59" data-name="&lt;Path&gt;" class="cls-2" d="M31.78,84.38a.36.36,0,0,1,0,.68,1.29,1.29,0,0,1-1.17,0,.36.36,0,0,1,0-.68A1.29,1.29,0,0,1,31.78,84.38Z"/><path id="_Path_60" data-name="&lt;Path&gt;" class="cls-2" d="M34.85,82.64a.36.36,0,0,1,0,.67,1.29,1.29,0,0,1-1.17,0,.36.36,0,0,1,0-.67A1.29,1.29,0,0,1,34.85,82.64Z"/><path id="_Path_61" data-name="&lt;Path&gt;" class="cls-2" d="M37.93,80.91a.36.36,0,0,1,0,.67,1.29,1.29,0,0,1-1.17,0,.36.36,0,0,1,0-.67A1.29,1.29,0,0,1,37.93,80.91Z"/><path id="_Path_62" data-name="&lt;Path&gt;" class="cls-2" d="M41,79.17a.36.36,0,0,1,0,.67,1.29,1.29,0,0,1-1.17,0,.36.36,0,0,1,0-.67A1.29,1.29,0,0,1,41,79.17Z"/><path id="_Path_63" data-name="&lt;Path&gt;" class="cls-2" d="M44.07,77.44a.36.36,0,0,1,0,.67,1.29,1.29,0,0,1-1.17,0,.36.36,0,0,1,0-.67A1.29,1.29,0,0,1,44.07,77.44Z"/><path id="_Path_64" data-name="&lt;Path&gt;" class="cls-2" d="M47.15,75.7a.36.36,0,0,1,0,.67,1.29,1.29,0,0,1-1.17,0,.36.36,0,0,1,0-.67A1.29,1.29,0,0,1,47.15,75.7Z"/><path id="_Path_65" data-name="&lt;Path&gt;" class="cls-2" d="M22.59,86.05a.36.36,0,0,1,0,.67,1.29,1.29,0,0,1-1.17,0,.36.36,0,0,1,0-.67A1.29,1.29,0,0,1,22.59,86.05Z"/><path id="_Path_66" data-name="&lt;Path&gt;" class="cls-2" d="M25.67,84.32a.36.36,0,0,1,0,.68,1.29,1.29,0,0,1-1.17,0,.36.36,0,0,1,0-.68A1.29,1.29,0,0,1,25.67,84.32Z"/><path id="_Path_67" data-name="&lt;Path&gt;" class="cls-2" d="M28.74,82.58a.36.36,0,0,1,0,.67,1.29,1.29,0,0,1-1.17,0,.36.36,0,0,1,0-.67A1.29,1.29,0,0,1,28.74,82.58Z"/><path id="_Path_68" data-name="&lt;Path&gt;" class="cls-2" d="M31.81,80.85a.36.36,0,0,1,0,.67,1.29,1.29,0,0,1-1.17,0,.36.36,0,0,1,0-.67A1.29,1.29,0,0,1,31.81,80.85Z"/><path id="_Path_69" data-name="&lt;Path&gt;" class="cls-2" d="M34.89,79.11a.36.36,0,0,1,0,.67,1.29,1.29,0,0,1-1.17,0,.36.36,0,0,1,0-.67A1.29,1.29,0,0,1,34.89,79.11Z"/><path id="_Path_70" data-name="&lt;Path&gt;" class="cls-2" d="M38,77.38a.36.36,0,0,1,0,.67,1.29,1.29,0,0,1-1.17,0,.36.36,0,0,1,0-.67A1.29,1.29,0,0,1,38,77.38Z"/><path id="_Path_71" data-name="&lt;Path&gt;" class="cls-2" d="M41,75.64a.36.36,0,0,1,0,.67,1.29,1.29,0,0,1-1.17,0,.36.36,0,0,1,0-.67A1.29,1.29,0,0,1,41,75.64Z"/><path id="_Path_72" data-name="&lt;Path&gt;" class="cls-2" d="M44.11,73.91a.36.36,0,0,1,0,.67,1.29,1.29,0,0,1-1.17,0,.36.36,0,0,1,0-.67A1.29,1.29,0,0,1,44.11,73.91Z"/><path id="_Path_73" data-name="&lt;Path&gt;" class="cls-2" d="M19.55,84.26a.36.36,0,0,1,0,.67,1.29,1.29,0,0,1-1.17,0,.36.36,0,0,1,0-.67A1.29,1.29,0,0,1,19.55,84.26Z"/><path id="_Path_74" data-name="&lt;Path&gt;" class="cls-2" d="M22.63,82.52a.36.36,0,0,1,0,.67,1.29,1.29,0,0,1-1.17,0,.36.36,0,0,1,0-.67A1.29,1.29,0,0,1,22.63,82.52Z"/><path id="_Path_75" data-name="&lt;Path&gt;" class="cls-2" d="M25.7,80.79a.36.36,0,0,1,0,.67,1.29,1.29,0,0,1-1.17,0,.36.36,0,0,1,0-.67A1.29,1.29,0,0,1,25.7,80.79Z"/><path id="_Path_76" data-name="&lt;Path&gt;" class="cls-2" d="M28.77,79.05a.36.36,0,0,1,0,.67,1.29,1.29,0,0,1-1.17,0,.36.36,0,0,1,0-.67A1.29,1.29,0,0,1,28.77,79.05Z"/><path id="_Path_77" data-name="&lt;Path&gt;" class="cls-2" d="M31.85,77.32a.36.36,0,0,1,0,.67,1.29,1.29,0,0,1-1.17,0,.36.36,0,0,1,0-.67A1.29,1.29,0,0,1,31.85,77.32Z"/><path id="_Path_78" data-name="&lt;Path&gt;" class="cls-2" d="M34.92,75.58a.36.36,0,0,1,0,.67,1.29,1.29,0,0,1-1.17,0,.36.36,0,0,1,0-.67A1.29,1.29,0,0,1,34.92,75.58Z"/><path id="_Path_79" data-name="&lt;Path&gt;" class="cls-2" d="M38,73.85a.36.36,0,0,1,0,.67,1.29,1.29,0,0,1-1.17,0,.36.36,0,0,1,0-.67A1.29,1.29,0,0,1,38,73.85Z"/><path id="_Path_80" data-name="&lt;Path&gt;" class="cls-2" d="M41.07,72.11a.36.36,0,0,1,0,.67,1.29,1.29,0,0,1-1.17,0,.36.36,0,0,1,0-.67A1.29,1.29,0,0,1,41.07,72.11Z"/><path id="_Path_81" data-name="&lt;Path&gt;" class="cls-2" d="M16.51,82.47a.36.36,0,0,1,0,.67,1.29,1.29,0,0,1-1.17,0,.36.36,0,0,1,0-.67A1.29,1.29,0,0,1,16.51,82.47Z"/><path id="_Path_82" data-name="&lt;Path&gt;" class="cls-2" d="M19.59,80.73a.36.36,0,0,1,0,.67,1.29,1.29,0,0,1-1.17,0,.36.36,0,0,1,0-.67A1.29,1.29,0,0,1,19.59,80.73Z"/><path id="_Path_83" data-name="&lt;Path&gt;" class="cls-2" d="M22.66,79a.36.36,0,0,1,0,.67,1.29,1.29,0,0,1-1.17,0,.36.36,0,0,1,0-.67A1.29,1.29,0,0,1,22.66,79Z"/><path id="_Path_84" data-name="&lt;Path&gt;" class="cls-2" d="M25.73,77.26a.36.36,0,0,1,0,.67,1.29,1.29,0,0,1-1.17,0,.36.36,0,0,1,0-.67A1.29,1.29,0,0,1,25.73,77.26Z"/><path id="_Path_85" data-name="&lt;Path&gt;" class="cls-2" d="M28.81,75.53a.36.36,0,0,1,0,.67,1.29,1.29,0,0,1-1.17,0,.36.36,0,0,1,0-.67A1.29,1.29,0,0,1,28.81,75.53Z"/><path id="_Path_86" data-name="&lt;Path&gt;" class="cls-2" d="M31.88,73.79a.36.36,0,0,1,0,.67,1.29,1.29,0,0,1-1.17,0,.36.36,0,0,1,0-.67A1.29,1.29,0,0,1,31.88,73.79Z"/><path id="_Path_87" data-name="&lt;Path&gt;" class="cls-2" d="M35,72.05a.36.36,0,0,1,0,.67,1.29,1.29,0,0,1-1.17,0,.36.36,0,0,1,0-.67A1.29,1.29,0,0,1,35,72.05Z"/><path id="_Path_88" data-name="&lt;Path&gt;" class="cls-2" d="M38,70.32A.36.36,0,0,1,38,71a1.29,1.29,0,0,1-1.17,0,.36.36,0,0,1,0-.67A1.29,1.29,0,0,1,38,70.32Z"/><path id="_Path_89" data-name="&lt;Path&gt;" class="cls-2" d="M13.48,80.67a.36.36,0,0,1,0,.67,1.29,1.29,0,0,1-1.17,0,.36.36,0,0,1,0-.67A1.29,1.29,0,0,1,13.48,80.67Z"/><path id="_Path_90" data-name="&lt;Path&gt;" class="cls-2" d="M16.55,78.94a.36.36,0,0,1,0,.67,1.29,1.29,0,0,1-1.17,0,.36.36,0,0,1,0-.67A1.29,1.29,0,0,1,16.55,78.94Z"/><path id="_Path_91" data-name="&lt;Path&gt;" class="cls-2" d="M19.62,77.2a.36.36,0,0,1,0,.67,1.29,1.29,0,0,1-1.17,0,.36.36,0,0,1,0-.67A1.29,1.29,0,0,1,19.62,77.2Z"/><path id="_Path_92" data-name="&lt;Path&gt;" class="cls-2" d="M22.7,75.47a.36.36,0,0,1,0,.67,1.29,1.29,0,0,1-1.17,0,.36.36,0,0,1,0-.67A1.29,1.29,0,0,1,22.7,75.47Z"/><path id="_Path_93" data-name="&lt;Path&gt;" class="cls-2" d="M25.77,73.73a.36.36,0,0,1,0,.67,1.29,1.29,0,0,1-1.17,0,.36.36,0,0,1,0-.67A1.29,1.29,0,0,1,25.77,73.73Z"/><path id="_Path_94" data-name="&lt;Path&gt;" class="cls-2" d="M28.84,72a.36.36,0,0,1,0,.67,1.29,1.29,0,0,1-1.17,0,.36.36,0,0,1,0-.67A1.29,1.29,0,0,1,28.84,72Z"/><path id="_Path_95" data-name="&lt;Path&gt;" class="cls-2" d="M31.92,70.26a.36.36,0,0,1,0,.67,1.29,1.29,0,0,1-1.17,0,.36.36,0,0,1,0-.67A1.29,1.29,0,0,1,31.92,70.26Z"/><path id="_Path_96" data-name="&lt;Path&gt;" class="cls-2" d="M35,68.53a.36.36,0,0,1,0,.68,1.29,1.29,0,0,1-1.17,0,.36.36,0,0,1,0-.68A1.29,1.29,0,0,1,35,68.53Z"/><path id="_Path_97" data-name="&lt;Path&gt;" class="cls-2" d="M10.44,78.88a.36.36,0,0,1,0,.67,1.29,1.29,0,0,1-1.17,0,.36.36,0,0,1,0-.67A1.29,1.29,0,0,1,10.44,78.88Z"/><path id="_Path_98" data-name="&lt;Path&gt;" class="cls-2" d="M13.51,77.14a.36.36,0,0,1,0,.67,1.29,1.29,0,0,1-1.17,0,.36.36,0,0,1,0-.67A1.29,1.29,0,0,1,13.51,77.14Z"/><path id="_Path_99" data-name="&lt;Path&gt;" class="cls-2" d="M16.58,75.41a.36.36,0,0,1,0,.67,1.29,1.29,0,0,1-1.17,0,.36.36,0,0,1,0-.67A1.29,1.29,0,0,1,16.58,75.41Z"/><path id="_Path_100" data-name="&lt;Path&gt;" class="cls-2" d="M19.66,73.67a.36.36,0,0,1,0,.67,1.29,1.29,0,0,1-1.17,0,.36.36,0,0,1,0-.67A1.29,1.29,0,0,1,19.66,73.67Z"/><path id="_Path_101" data-name="&lt;Path&gt;" class="cls-2" d="M22.73,71.94a.36.36,0,0,1,0,.67,1.29,1.29,0,0,1-1.17,0,.36.36,0,0,1,0-.67A1.29,1.29,0,0,1,22.73,71.94Z"/><path id="_Path_102" data-name="&lt;Path&gt;" class="cls-2" d="M25.8,70.2a.36.36,0,0,1,0,.67,1.29,1.29,0,0,1-1.17,0,.36.36,0,0,1,0-.67A1.29,1.29,0,0,1,25.8,70.2Z"/><path id="_Path_103" data-name="&lt;Path&gt;" class="cls-2" d="M28.88,68.47a.36.36,0,0,1,0,.68,1.29,1.29,0,0,1-1.17,0,.36.36,0,0,1,0-.68A1.29,1.29,0,0,1,28.88,68.47Z"/><path id="_Path_104" data-name="&lt;Path&gt;" class="cls-2" d="M31.95,66.73a.36.36,0,0,1,0,.67,1.29,1.29,0,0,1-1.17,0,.36.36,0,0,1,0-.67A1.29,1.29,0,0,1,31.95,66.73Z"/><path id="_Path_105" data-name="&lt;Path&gt;" class="cls-2" d="M7.37,77.07a.36.36,0,0,1,0,.68,1.29,1.29,0,0,1-1.17,0,.36.36,0,0,1,0-.68A1.29,1.29,0,0,1,7.37,77.07Z"/><path id="_Path_106" data-name="&lt;Path&gt;" class="cls-2" d="M10.44,75.33a.36.36,0,0,1,0,.67,1.29,1.29,0,0,1-1.17,0,.36.36,0,0,1,0-.67A1.29,1.29,0,0,1,10.44,75.33Z"/><path id="_Path_107" data-name="&lt;Path&gt;" class="cls-2" d="M13.52,73.59a.36.36,0,0,1,0,.67,1.29,1.29,0,0,1-1.17,0,.36.36,0,0,1,0-.67A1.29,1.29,0,0,1,13.52,73.59Z"/><path id="_Path_108" data-name="&lt;Path&gt;" class="cls-2" d="M16.59,71.86a.36.36,0,0,1,0,.67,1.29,1.29,0,0,1-1.17,0,.36.36,0,0,1,0-.67A1.29,1.29,0,0,1,16.59,71.86Z"/><path id="_Path_109" data-name="&lt;Path&gt;" class="cls-2" d="M19.66,70.12a.36.36,0,0,1,0,.67,1.29,1.29,0,0,1-1.17,0,.36.36,0,0,1,0-.67A1.29,1.29,0,0,1,19.66,70.12Z"/><path id="_Path_110" data-name="&lt;Path&gt;" class="cls-2" d="M22.74,68.39a.36.36,0,0,1,0,.67,1.29,1.29,0,0,1-1.17,0,.36.36,0,0,1,0-.67A1.29,1.29,0,0,1,22.74,68.39Z"/><path id="_Path_111" data-name="&lt;Path&gt;" class="cls-2" d="M25.81,66.65a.36.36,0,0,1,0,.67,1.29,1.29,0,0,1-1.17,0,.36.36,0,0,1,0-.67A1.29,1.29,0,0,1,25.81,66.65Z"/><path id="_Path_112" data-name="&lt;Path&gt;" class="cls-2" d="M28.88,64.92a.36.36,0,0,1,0,.67,1.29,1.29,0,0,1-1.17,0,.36.36,0,0,1,0-.67A1.29,1.29,0,0,1,28.88,64.92Z"/><path id="_Path_113" data-name="&lt;Path&gt;" class="cls-2" d="M4.33,75.27a.36.36,0,0,1,0,.67,1.29,1.29,0,0,1-1.17,0,.36.36,0,0,1,0-.67A1.29,1.29,0,0,1,4.33,75.27Z"/><path id="_Path_114" data-name="&lt;Path&gt;" class="cls-2" d="M7.4,73.54a.36.36,0,0,1,0,.67,1.29,1.29,0,0,1-1.17,0,.36.36,0,0,1,0-.67A1.29,1.29,0,0,1,7.4,73.54Z"/><path id="_Path_115" data-name="&lt;Path&gt;" class="cls-2" d="M10.48,71.8a.36.36,0,0,1,0,.67,1.29,1.29,0,0,1-1.17,0,.36.36,0,0,1,0-.67A1.29,1.29,0,0,1,10.48,71.8Z"/><path id="_Path_116" data-name="&lt;Path&gt;" class="cls-2" d="M13.55,70.07a.36.36,0,0,1,0,.67,1.29,1.29,0,0,1-1.17,0,.36.36,0,0,1,0-.67A1.29,1.29,0,0,1,13.55,70.07Z"/><path id="_Path_117" data-name="&lt;Path&gt;" class="cls-2" d="M16.62,68.33a.36.36,0,0,1,0,.67,1.29,1.29,0,0,1-1.17,0,.36.36,0,0,1,0-.67A1.29,1.29,0,0,1,16.62,68.33Z"/><path id="_Path_118" data-name="&lt;Path&gt;" class="cls-2" d="M19.7,66.6a.36.36,0,0,1,0,.67,1.29,1.29,0,0,1-1.17,0,.36.36,0,0,1,0-.67A1.29,1.29,0,0,1,19.7,66.6Z"/><path id="_Path_119" data-name="&lt;Path&gt;" class="cls-2" d="M22.77,64.86a.36.36,0,0,1,0,.67,1.29,1.29,0,0,1-1.17,0,.36.36,0,0,1,0-.67A1.29,1.29,0,0,1,22.77,64.86Z"/><path id="_Path_120" data-name="&lt;Path&gt;" class="cls-2" d="M25.84,63.12a.36.36,0,0,1,0,.67,1.29,1.29,0,0,1-1.17,0,.36.36,0,0,1,0-.67A1.29,1.29,0,0,1,25.84,63.12Z"/><path id="_Path_121" data-name="&lt;Path&gt;" class="cls-2" d="M4.36,71.74a.36.36,0,0,1,0,.67,1.29,1.29,0,0,1-1.17,0,.36.36,0,0,1,0-.67A1.29,1.29,0,0,1,4.36,71.74Z"/><path id="_Path_122" data-name="&lt;Path&gt;" class="cls-2" d="M7.44,70a.36.36,0,0,1,0,.67,1.29,1.29,0,0,1-1.17,0,.36.36,0,0,1,0-.67A1.29,1.29,0,0,1,7.44,70Z"/><path id="_Path_123" data-name="&lt;Path&gt;" class="cls-2" d="M10.51,68.27a.36.36,0,0,1,0,.67,1.29,1.29,0,0,1-1.17,0,.36.36,0,0,1,0-.67A1.29,1.29,0,0,1,10.51,68.27Z"/><path id="_Path_124" data-name="&lt;Path&gt;" class="cls-2" d="M13.58,66.54a.36.36,0,0,1,0,.67,1.29,1.29,0,0,1-1.17,0,.36.36,0,0,1,0-.67A1.29,1.29,0,0,1,13.58,66.54Z"/><path id="_Path_125" data-name="&lt;Path&gt;" class="cls-2" d="M16.66,64.8a.36.36,0,0,1,0,.67,1.29,1.29,0,0,1-1.17,0,.36.36,0,0,1,0-.67A1.29,1.29,0,0,1,16.66,64.8Z"/><path id="_Path_126" data-name="&lt;Path&gt;" class="cls-2" d="M19.73,63.07a.36.36,0,0,1,0,.67,1.29,1.29,0,0,1-1.17,0,.36.36,0,0,1,0-.67A1.29,1.29,0,0,1,19.73,63.07Z"/><path id="_Path_127" data-name="&lt;Path&gt;" class="cls-2" d="M56.21,102a.36.36,0,0,1,0,.67,1.29,1.29,0,0,1-1.17,0,.36.36,0,0,1,0-.67A1.29,1.29,0,0,1,56.21,102Z"/><path id="_Path_128" data-name="&lt;Path&gt;" class="cls-2" d="M59.28,100.26a.36.36,0,0,1,0,.67,1.29,1.29,0,0,1-1.17,0,.36.36,0,0,1,0-.67A1.29,1.29,0,0,1,59.28,100.26Z"/><path id="_Path_129" data-name="&lt;Path&gt;" class="cls-2" d="M62.36,98.53a.36.36,0,0,1,0,.67,1.29,1.29,0,0,1-1.17,0,.36.36,0,0,1,0-.67A1.29,1.29,0,0,1,62.36,98.53Z"/><path id="_Path_130" data-name="&lt;Path&gt;" class="cls-2" d="M65.43,96.79a.36.36,0,0,1,0,.67,1.29,1.29,0,0,1-1.17,0,.36.36,0,0,1,0-.67A1.29,1.29,0,0,1,65.43,96.79Z"/><path id="_Path_131" data-name="&lt;Path&gt;" class="cls-2" d="M68.5,95.05a.36.36,0,0,1,0,.67,1.29,1.29,0,0,1-1.17,0,.36.36,0,0,1,0-.67A1.29,1.29,0,0,1,68.5,95.05Z"/><path id="_Path_132" data-name="&lt;Path&gt;" class="cls-2" d="M50.1,101.94a.36.36,0,0,1,0,.67,1.29,1.29,0,0,1-1.17,0,.36.36,0,0,1,0-.67A1.29,1.29,0,0,1,50.1,101.94Z"/><path id="_Path_133" data-name="&lt;Path&gt;" class="cls-2" d="M53.17,100.2a.36.36,0,0,1,0,.67,1.29,1.29,0,0,1-1.17,0,.36.36,0,0,1,0-.67A1.29,1.29,0,0,1,53.17,100.2Z"/><path id="_Path_134" data-name="&lt;Path&gt;" class="cls-2" d="M56.24,98.47a.36.36,0,0,1,0,.67,1.29,1.29,0,0,1-1.17,0,.36.36,0,0,1,0-.67A1.29,1.29,0,0,1,56.24,98.47Z"/><path id="_Path_135" data-name="&lt;Path&gt;" class="cls-2" d="M59.32,96.73a.36.36,0,0,1,0,.67,1.29,1.29,0,0,1-1.17,0,.36.36,0,0,1,0-.67A1.29,1.29,0,0,1,59.32,96.73Z"/><path id="_Path_136" data-name="&lt;Path&gt;" class="cls-2" d="M62.39,95a.36.36,0,0,1,0,.67,1.29,1.29,0,0,1-1.17,0,.36.36,0,0,1,0-.67A1.29,1.29,0,0,1,62.39,95Z"/><path id="_Path_137" data-name="&lt;Path&gt;" class="cls-2" d="M65.46,93.26a.36.36,0,0,1,0,.67,1.29,1.29,0,0,1-1.17,0,.36.36,0,0,1,0-.67A1.29,1.29,0,0,1,65.46,93.26Z"/><path id="_Path_138" data-name="&lt;Path&gt;" class="cls-2" d="M68.54,91.53a.36.36,0,0,1,0,.67,1.29,1.29,0,0,1-1.17,0,.36.36,0,0,1,0-.67A1.29,1.29,0,0,1,68.54,91.53Z"/><path id="_Path_139" data-name="&lt;Path&gt;" class="cls-2" d="M71.49,90.08a.36.36,0,0,1,0,.68,1.29,1.29,0,0,1-1.17,0,.36.36,0,0,1,0-.68A1.29,1.29,0,0,1,71.49,90.08Z"/><path id="_Path_140" data-name="&lt;Path&gt;" class="cls-2" d="M71.58,93.33a.36.36,0,0,1,0,.67,1.29,1.29,0,0,1-1.17,0,.36.36,0,0,1,0-.67A1.29,1.29,0,0,1,71.58,93.33Z"/></g><g id="_Group_2" data-name="&lt;Group&gt;"><path id="_Path_141" data-name="&lt;Path&gt;" class="cls-2" d="M92.68,127.14a.36.36,0,0,1,0,.67,1.29,1.29,0,0,1-1.17,0,.36.36,0,0,1,0-.67A1.29,1.29,0,0,1,92.68,127.14Z"/><path id="_Path_142" data-name="&lt;Path&gt;" class="cls-2" d="M95.75,125.4a.36.36,0,0,1,0,.67,1.29,1.29,0,0,1-1.17,0,.36.36,0,0,1,0-.67A1.29,1.29,0,0,1,95.75,125.4Z"/><path id="_Path_143" data-name="&lt;Path&gt;" class="cls-2" d="M98.82,123.67a.36.36,0,0,1,0,.67,1.29,1.29,0,0,1-1.17,0,.36.36,0,0,1,0-.67A1.29,1.29,0,0,1,98.82,123.67Z"/><path id="_Path_144" data-name="&lt;Path&gt;" class="cls-2" d="M101.9,121.93a.36.36,0,0,1,0,.67,1.29,1.29,0,0,1-1.17,0,.36.36,0,0,1,0-.67A1.29,1.29,0,0,1,101.9,121.93Z"/><path id="_Path_145" data-name="&lt;Path&gt;" class="cls-2" d="M105,120.2a.36.36,0,0,1,0,.67,1.29,1.29,0,0,1-1.17,0,.36.36,0,0,1,0-.67A1.29,1.29,0,0,1,105,120.2Z"/><path id="_Path_146" data-name="&lt;Path&gt;" class="cls-2" d="M108,118.46a.36.36,0,0,1,0,.67,1.29,1.29,0,0,1-1.17,0,.36.36,0,0,1,0-.67A1.29,1.29,0,0,1,108,118.46Z"/><path id="_Path_147" data-name="&lt;Path&gt;" class="cls-2" d="M111.12,116.73a.36.36,0,0,1,0,.68,1.29,1.29,0,0,1-1.17,0,.36.36,0,0,1,0-.68A1.29,1.29,0,0,1,111.12,116.73Z"/><path id="_Path_148" data-name="&lt;Path&gt;" class="cls-2" d="M114.19,115a.36.36,0,0,1,0,.67,1.29,1.29,0,0,1-1.17,0,.36.36,0,0,1,0-.67A1.29,1.29,0,0,1,114.19,115Z"/><path id="_Path_149" data-name="&lt;Path&gt;" class="cls-2" d="M89.64,125.35a.36.36,0,0,1,0,.67,1.29,1.29,0,0,1-1.17,0,.36.36,0,0,1,0-.67A1.29,1.29,0,0,1,89.64,125.35Z"/><path id="_Path_150" data-name="&lt;Path&gt;" class="cls-2" d="M92.71,123.61a.36.36,0,0,1,0,.67,1.29,1.29,0,0,1-1.17,0,.36.36,0,0,1,0-.67A1.29,1.29,0,0,1,92.71,123.61Z"/><path id="_Path_151" data-name="&lt;Path&gt;" class="cls-2" d="M95.78,121.88a.36.36,0,0,1,0,.67,1.29,1.29,0,0,1-1.17,0,.36.36,0,0,1,0-.67A1.29,1.29,0,0,1,95.78,121.88Z"/><path id="_Path_152" data-name="&lt;Path&gt;" class="cls-2" d="M98.86,120.14a.36.36,0,0,1,0,.67,1.29,1.29,0,0,1-1.17,0,.36.36,0,0,1,0-.67A1.29,1.29,0,0,1,98.86,120.14Z"/><path id="_Path_153" data-name="&lt;Path&gt;" class="cls-2" d="M101.93,118.41a.36.36,0,0,1,0,.67,1.29,1.29,0,0,1-1.17,0,.36.36,0,0,1,0-.68A1.29,1.29,0,0,1,101.93,118.41Z"/><path id="_Path_154" data-name="&lt;Path&gt;" class="cls-2" d="M105,116.67a.36.36,0,0,1,0,.68,1.29,1.29,0,0,1-1.17,0,.36.36,0,0,1,0-.67A1.29,1.29,0,0,1,105,116.67Z"/><path id="_Path_155" data-name="&lt;Path&gt;" class="cls-2" d="M108.08,114.93a.36.36,0,0,1,0,.67,1.29,1.29,0,0,1-1.17,0,.36.36,0,0,1,0-.67A1.29,1.29,0,0,1,108.08,114.93Z"/><path id="_Path_156" data-name="&lt;Path&gt;" class="cls-2" d="M111.15,113.2a.36.36,0,0,1,0,.67,1.29,1.29,0,0,1-1.17,0,.36.36,0,0,1,0-.67A1.29,1.29,0,0,1,111.15,113.2Z"/><path id="_Path_157" data-name="&lt;Path&gt;" class="cls-2" d="M86.6,123.55a.36.36,0,0,1,0,.67,1.29,1.29,0,0,1-1.17,0,.36.36,0,0,1,0-.67A1.29,1.29,0,0,1,86.6,123.55Z"/><path id="_Path_158" data-name="&lt;Path&gt;" class="cls-2" d="M89.67,121.82a.36.36,0,0,1,0,.67,1.29,1.29,0,0,1-1.17,0,.36.36,0,0,1,0-.67A1.29,1.29,0,0,1,89.67,121.82Z"/><path id="_Path_159" data-name="&lt;Path&gt;" class="cls-2" d="M92.74,120.08a.36.36,0,0,1,0,.67,1.29,1.29,0,0,1-1.17,0,.36.36,0,0,1,0-.67A1.29,1.29,0,0,1,92.74,120.08Z"/><path id="_Path_160" data-name="&lt;Path&gt;" class="cls-2" d="M95.82,118.35a.36.36,0,0,1,0,.68,1.29,1.29,0,0,1-1.17,0,.36.36,0,0,1,0-.68A1.29,1.29,0,0,1,95.82,118.35Z"/><path id="_Path_161" data-name="&lt;Path&gt;" class="cls-2" d="M98.89,116.61a.36.36,0,0,1,0,.67,1.29,1.29,0,0,1-1.17,0,.36.36,0,0,1,0-.67A1.29,1.29,0,0,1,98.89,116.61Z"/><path id="_Path_162" data-name="&lt;Path&gt;" class="cls-2" d="M102,114.88a.36.36,0,0,1,0,.67,1.29,1.29,0,0,1-1.17,0,.36.36,0,0,1,0-.67A1.29,1.29,0,0,1,102,114.88Z"/><path id="_Path_163" data-name="&lt;Path&gt;" class="cls-2" d="M105,113.14a.36.36,0,0,1,0,.67,1.29,1.29,0,0,1-1.17,0,.36.36,0,0,1,0-.67A1.29,1.29,0,0,1,105,113.14Z"/><path id="_Path_164" data-name="&lt;Path&gt;" class="cls-2" d="M108.11,111.41a.36.36,0,0,1,0,.67,1.29,1.29,0,0,1-1.17,0,.36.36,0,0,1,0-.67A1.29,1.29,0,0,1,108.11,111.41Z"/><path id="_Path_165" data-name="&lt;Path&gt;" class="cls-2" d="M83.56,121.76a.36.36,0,0,1,0,.67,1.29,1.29,0,0,1-1.17,0,.36.36,0,0,1,0-.67A1.29,1.29,0,0,1,83.56,121.76Z"/><path id="_Path_166" data-name="&lt;Path&gt;" class="cls-2" d="M86.63,120a.36.36,0,0,1,0,.67,1.29,1.29,0,0,1-1.17,0,.36.36,0,0,1,0-.67A1.29,1.29,0,0,1,86.63,120Z"/><path id="_Path_167" data-name="&lt;Path&gt;" class="cls-2" d="M89.7,118.29a.36.36,0,0,1,0,.68,1.29,1.29,0,0,1-1.17,0,.36.36,0,0,1,0-.68A1.29,1.29,0,0,1,89.7,118.29Z"/><path id="_Path_168" data-name="&lt;Path&gt;" class="cls-2" d="M92.78,116.55a.36.36,0,0,1,0,.67,1.29,1.29,0,0,1-1.17,0,.36.36,0,0,1,0-.67A1.29,1.29,0,0,1,92.78,116.55Z"/><path id="_Path_169" data-name="&lt;Path&gt;" class="cls-2" d="M95.85,114.82a.36.36,0,0,1,0,.67,1.29,1.29,0,0,1-1.17,0,.36.36,0,0,1,0-.67A1.29,1.29,0,0,1,95.85,114.82Z"/><path id="_Path_170" data-name="&lt;Path&gt;" class="cls-2" d="M98.92,113.08a.36.36,0,0,1,0,.67,1.29,1.29,0,0,1-1.17,0,.36.36,0,0,1,0-.67A1.29,1.29,0,0,1,98.92,113.08Z"/><path id="_Path_171" data-name="&lt;Path&gt;" class="cls-2" d="M102,111.35a.36.36,0,0,1,0,.67,1.29,1.29,0,0,1-1.17,0,.36.36,0,0,1,0-.67A1.29,1.29,0,0,1,102,111.35Z"/><path id="_Path_172" data-name="&lt;Path&gt;" class="cls-2" d="M105.07,109.61a.36.36,0,0,1,0,.67,1.29,1.29,0,0,1-1.17,0,.36.36,0,0,1,0-.67A1.29,1.29,0,0,1,105.07,109.61Z"/><path id="_Path_173" data-name="&lt;Path&gt;" class="cls-2" d="M80.52,120a.36.36,0,0,1,0,.68,1.29,1.29,0,0,1-1.17,0,.36.36,0,0,1,0-.68A1.29,1.29,0,0,1,80.52,120Z"/><path id="_Path_174" data-name="&lt;Path&gt;" class="cls-2" d="M83.59,118.23a.36.36,0,0,1,0,.67,1.29,1.29,0,0,1-1.17,0,.36.36,0,0,1,0-.67A1.29,1.29,0,0,1,83.59,118.23Z"/><path id="_Path_175" data-name="&lt;Path&gt;" class="cls-2" d="M86.67,116.49a.36.36,0,0,1,0,.67,1.29,1.29,0,0,1-1.17,0,.36.36,0,0,1,0-.67A1.29,1.29,0,0,1,86.67,116.49Z"/><path id="_Path_176" data-name="&lt;Path&gt;" class="cls-2" d="M89.74,114.76a.36.36,0,0,1,0,.67,1.29,1.29,0,0,1-1.17,0,.36.36,0,0,1,0-.67A1.29,1.29,0,0,1,89.74,114.76Z"/><path id="_Path_177" data-name="&lt;Path&gt;" class="cls-2" d="M92.81,113a.36.36,0,0,1,0,.67,1.29,1.29,0,0,1-1.17,0,.36.36,0,0,1,0-.67A1.29,1.29,0,0,1,92.81,113Z"/><path id="_Path_178" data-name="&lt;Path&gt;" class="cls-2" d="M95.88,111.29a.36.36,0,0,1,0,.67,1.29,1.29,0,0,1-1.17,0,.36.36,0,0,1,0-.67A1.29,1.29,0,0,1,95.88,111.29Z"/><path id="_Path_179" data-name="&lt;Path&gt;" class="cls-2" d="M99,109.55a.36.36,0,0,1,0,.67,1.29,1.29,0,0,1-1.17,0,.36.36,0,0,1,0-.67A1.29,1.29,0,0,1,99,109.55Z"/><path id="_Path_180" data-name="&lt;Path&gt;" class="cls-2" d="M102,107.82a.36.36,0,0,1,0,.67,1.29,1.29,0,0,1-1.17,0,.36.36,0,0,1,0-.67A1.29,1.29,0,0,1,102,107.82Z"/><path id="_Path_181" data-name="&lt;Path&gt;" class="cls-2" d="M77.45,118.15a.36.36,0,0,1,0,.67,1.29,1.29,0,0,1-1.17,0,.36.36,0,0,1,0-.67A1.29,1.29,0,0,1,77.45,118.15Z"/><path id="_Path_182" data-name="&lt;Path&gt;" class="cls-2" d="M80.53,116.42a.36.36,0,0,1,0,.67,1.29,1.29,0,0,1-1.17,0,.36.36,0,0,1,0-.67A1.29,1.29,0,0,1,80.53,116.42Z"/><path id="_Path_183" data-name="&lt;Path&gt;" class="cls-2" d="M83.6,114.68a.36.36,0,0,1,0,.67,1.29,1.29,0,0,1-1.17,0,.36.36,0,0,1,0-.67A1.29,1.29,0,0,1,83.6,114.68Z"/><path id="_Path_184" data-name="&lt;Path&gt;" class="cls-2" d="M86.67,112.95a.36.36,0,0,1,0,.67,1.29,1.29,0,0,1-1.17,0,.36.36,0,0,1,0-.67A1.29,1.29,0,0,1,86.67,112.95Z"/><path id="_Path_185" data-name="&lt;Path&gt;" class="cls-2" d="M89.75,111.21a.36.36,0,0,1,0,.67,1.29,1.29,0,0,1-1.17,0,.36.36,0,0,1,0-.67A1.29,1.29,0,0,1,89.75,111.21Z"/><path id="_Path_186" data-name="&lt;Path&gt;" class="cls-2" d="M92.82,109.48a.36.36,0,0,1,0,.68,1.29,1.29,0,0,1-1.17,0,.36.36,0,0,1,0-.68A1.29,1.29,0,0,1,92.82,109.48Z"/><path id="_Path_187" data-name="&lt;Path&gt;" class="cls-2" d="M95.89,107.74a.36.36,0,0,1,0,.67,1.29,1.29,0,0,1-1.17,0,.36.36,0,0,1,0-.67A1.29,1.29,0,0,1,95.89,107.74Z"/><path id="_Path_188" data-name="&lt;Path&gt;" class="cls-2" d="M99,106a.36.36,0,0,1,0,.67,1.29,1.29,0,0,1-1.17,0,.36.36,0,0,1,0-.67A1.29,1.29,0,0,1,99,106Z"/><path id="_Path_189" data-name="&lt;Path&gt;" class="cls-2" d="M74.41,116.36a.36.36,0,0,1,0,.67,1.29,1.29,0,0,1-1.17,0,.36.36,0,0,1,0-.67A1.29,1.29,0,0,1,74.41,116.36Z"/><path id="_Path_190" data-name="&lt;Path&gt;" class="cls-2" d="M77.49,114.62a.36.36,0,0,1,0,.67,1.29,1.29,0,0,1-1.17,0,.36.36,0,0,1,0-.67A1.29,1.29,0,0,1,77.49,114.62Z"/><path id="_Path_191" data-name="&lt;Path&gt;" class="cls-2" d="M80.56,112.89a.36.36,0,0,1,0,.67,1.29,1.29,0,0,1-1.17,0,.36.36,0,0,1,0-.67A1.29,1.29,0,0,1,80.56,112.89Z"/><path id="_Path_192" data-name="&lt;Path&gt;" class="cls-2" d="M83.63,111.15a.36.36,0,0,1,0,.67,1.29,1.29,0,0,1-1.17,0,.36.36,0,0,1,0-.67A1.29,1.29,0,0,1,83.63,111.15Z"/><path id="_Path_193" data-name="&lt;Path&gt;" class="cls-2" d="M86.71,109.42a.36.36,0,0,1,0,.68,1.29,1.29,0,0,1-1.17,0,.36.36,0,0,1,0-.68A1.29,1.29,0,0,1,86.71,109.42Z"/><path id="_Path_194" data-name="&lt;Path&gt;" class="cls-2" d="M89.78,107.68a.36.36,0,0,1,0,.67,1.29,1.29,0,0,1-1.17,0,.36.36,0,0,1,0-.67A1.29,1.29,0,0,1,89.78,107.68Z"/><path id="_Path_195" data-name="&lt;Path&gt;" class="cls-2" d="M92.85,105.95a.36.36,0,0,1,0,.67,1.29,1.29,0,0,1-1.17,0,.36.36,0,0,1,0-.67A1.29,1.29,0,0,1,92.85,105.95Z"/><path id="_Path_196" data-name="&lt;Path&gt;" class="cls-2" d="M95.93,104.21a.36.36,0,0,1,0,.67,1.29,1.29,0,0,1-1.17,0,.36.36,0,0,1,0-.67A1.29,1.29,0,0,1,95.93,104.21Z"/><path id="_Path_197" data-name="&lt;Path&gt;" class="cls-2" d="M71.37,114.56a.36.36,0,0,1,0,.67,1.29,1.29,0,0,1-1.17,0,.36.36,0,0,1,0-.67A1.29,1.29,0,0,1,71.37,114.56Z"/><path id="_Path_198" data-name="&lt;Path&gt;" class="cls-2" d="M74.45,112.83a.36.36,0,0,1,0,.67,1.29,1.29,0,0,1-1.17,0,.36.36,0,0,1,0-.67A1.29,1.29,0,0,1,74.45,112.83Z"/><path id="_Path_199" data-name="&lt;Path&gt;" class="cls-2" d="M77.52,111.09a.36.36,0,0,1,0,.68,1.29,1.29,0,0,1-1.17,0,.36.36,0,0,1,0-.68A1.29,1.29,0,0,1,77.52,111.09Z"/><path id="_Path_200" data-name="&lt;Path&gt;" class="cls-2" d="M80.59,109.36a.36.36,0,0,1,0,.67,1.29,1.29,0,0,1-1.17,0,.36.36,0,0,1,0-.67A1.29,1.29,0,0,1,80.59,109.36Z"/><path id="_Path_201" data-name="&lt;Path&gt;" class="cls-2" d="M83.67,107.62a.36.36,0,0,1,0,.67,1.29,1.29,0,0,1-1.17,0,.36.36,0,0,1,0-.67A1.29,1.29,0,0,1,83.67,107.62Z"/><path id="_Path_202" data-name="&lt;Path&gt;" class="cls-2" d="M86.74,105.89a.36.36,0,0,1,0,.67,1.29,1.29,0,0,1-1.17,0,.36.36,0,0,1,0-.67A1.29,1.29,0,0,1,86.74,105.89Z"/><path id="_Path_203" data-name="&lt;Path&gt;" class="cls-2" d="M89.81,104.15a.36.36,0,0,1,0,.67,1.29,1.29,0,0,1-1.17,0,.36.36,0,0,1,0-.67A1.29,1.29,0,0,1,89.81,104.15Z"/><path id="_Path_204" data-name="&lt;Path&gt;" class="cls-2" d="M92.89,102.42a.36.36,0,0,1,0,.67,1.29,1.29,0,0,1-1.17,0,.36.36,0,0,1,0-.67A1.29,1.29,0,0,1,92.89,102.42Z"/><path id="_Path_205" data-name="&lt;Path&gt;" class="cls-2" d="M68.33,112.77a.36.36,0,0,1,0,.67,1.29,1.29,0,0,1-1.17,0,.36.36,0,0,1,0-.67A1.29,1.29,0,0,1,68.33,112.77Z"/><path id="_Path_206" data-name="&lt;Path&gt;" class="cls-2" d="M71.41,111a.36.36,0,0,1,0,.68,1.29,1.29,0,0,1-1.17,0,.36.36,0,0,1,0-.68A1.29,1.29,0,0,1,71.41,111Z"/><path id="_Path_207" data-name="&lt;Path&gt;" class="cls-2" d="M74.48,109.3a.36.36,0,0,1,0,.67,1.29,1.29,0,0,1-1.17,0,.36.36,0,0,1,0-.67A1.29,1.29,0,0,1,74.48,109.3Z"/><path id="_Path_208" data-name="&lt;Path&gt;" class="cls-2" d="M77.55,107.56a.36.36,0,0,1,0,.67,1.29,1.29,0,0,1-1.17,0,.36.36,0,0,1,0-.67A1.29,1.29,0,0,1,77.55,107.56Z"/><path id="_Path_209" data-name="&lt;Path&gt;" class="cls-2" d="M80.63,105.83a.36.36,0,0,1,0,.67,1.29,1.29,0,0,1-1.17,0,.36.36,0,0,1,0-.67A1.29,1.29,0,0,1,80.63,105.83Z"/><path id="_Path_210" data-name="&lt;Path&gt;" class="cls-2" d="M83.7,104.09a.36.36,0,0,1,0,.67,1.29,1.29,0,0,1-1.17,0,.36.36,0,0,1,0-.67A1.29,1.29,0,0,1,83.7,104.09Z"/><path id="_Path_211" data-name="&lt;Path&gt;" class="cls-2" d="M86.77,102.36a.36.36,0,0,1,0,.67,1.29,1.29,0,0,1-1.17,0,.36.36,0,0,1,0-.67A1.29,1.29,0,0,1,86.77,102.36Z"/><path id="_Path_212" data-name="&lt;Path&gt;" class="cls-2" d="M89.85,100.62a.36.36,0,0,1,0,.67,1.29,1.29,0,0,1-1.17,0,.36.36,0,0,1,0-.67A1.29,1.29,0,0,1,89.85,100.62Z"/><path id="_Path_213" data-name="&lt;Path&gt;" class="cls-2" d="M65.3,111a.36.36,0,0,1,0,.67,1.29,1.29,0,0,1-1.17,0,.36.36,0,0,1,0-.67A1.29,1.29,0,0,1,65.3,111Z"/><path id="_Path_214" data-name="&lt;Path&gt;" class="cls-2" d="M68.37,109.24a.36.36,0,0,1,0,.67,1.29,1.29,0,0,1-1.17,0,.36.36,0,0,1,0-.67A1.29,1.29,0,0,1,68.37,109.24Z"/><path id="_Path_215" data-name="&lt;Path&gt;" class="cls-2" d="M71.44,107.51a.36.36,0,0,1,0,.67,1.29,1.29,0,0,1-1.17,0,.36.36,0,0,1,0-.67A1.29,1.29,0,0,1,71.44,107.51Z"/><path id="_Path_216" data-name="&lt;Path&gt;" class="cls-2" d="M74.52,105.77a.36.36,0,0,1,0,.67,1.29,1.29,0,0,1-1.17,0,.36.36,0,0,1,0-.67A1.29,1.29,0,0,1,74.52,105.77Z"/><path id="_Path_217" data-name="&lt;Path&gt;" class="cls-2" d="M77.59,104a.36.36,0,0,1,0,.67,1.29,1.29,0,0,1-1.17,0,.36.36,0,0,1,0-.67A1.29,1.29,0,0,1,77.59,104Z"/><path id="_Path_218" data-name="&lt;Path&gt;" class="cls-2" d="M80.66,102.3a.36.36,0,0,1,0,.67,1.29,1.29,0,0,1-1.17,0,.36.36,0,0,1,0-.67A1.29,1.29,0,0,1,80.66,102.3Z"/><path id="_Path_219" data-name="&lt;Path&gt;" class="cls-2" d="M83.74,100.56a.36.36,0,0,1,0,.67,1.29,1.29,0,0,1-1.17,0,.36.36,0,0,1,0-.67A1.29,1.29,0,0,1,83.74,100.56Z"/><path id="_Path_220" data-name="&lt;Path&gt;" class="cls-2" d="M86.81,98.83a.36.36,0,0,1,0,.67,1.29,1.29,0,0,1-1.17,0,.36.36,0,0,1,0-.67A1.29,1.29,0,0,1,86.81,98.83Z"/><path id="_Path_221" data-name="&lt;Path&gt;" class="cls-2" d="M62.26,109.18a.36.36,0,0,1,0,.67,1.29,1.29,0,0,1-1.17,0,.36.36,0,0,1,0-.67A1.29,1.29,0,0,1,62.26,109.18Z"/><path id="_Path_222" data-name="&lt;Path&gt;" class="cls-2" d="M65.33,107.45a.36.36,0,0,1,0,.67,1.29,1.29,0,0,1-1.17,0,.36.36,0,0,1,0-.67A1.29,1.29,0,0,1,65.33,107.45Z"/><path id="_Path_223" data-name="&lt;Path&gt;" class="cls-2" d="M68.4,105.71a.36.36,0,0,1,0,.67,1.29,1.29,0,0,1-1.17,0,.36.36,0,0,1,0-.67A1.29,1.29,0,0,1,68.4,105.71Z"/><path id="_Path_224" data-name="&lt;Path&gt;" class="cls-2" d="M71.48,104a.36.36,0,0,1,0,.67,1.29,1.29,0,0,1-1.17,0,.36.36,0,0,1,0-.67A1.29,1.29,0,0,1,71.48,104Z"/><path id="_Path_225" data-name="&lt;Path&gt;" class="cls-2" d="M74.55,102.24a.36.36,0,0,1,0,.67,1.29,1.29,0,0,1-1.17,0,.36.36,0,0,1,0-.67A1.29,1.29,0,0,1,74.55,102.24Z"/><path id="_Path_226" data-name="&lt;Path&gt;" class="cls-2" d="M77.62,100.51a.36.36,0,0,1,0,.67,1.29,1.29,0,0,1-1.17,0,.36.36,0,0,1,0-.67A1.29,1.29,0,0,1,77.62,100.51Z"/><path id="_Path_227" data-name="&lt;Path&gt;" class="cls-2" d="M80.7,98.77a.36.36,0,0,1,0,.67,1.29,1.29,0,0,1-1.17,0,.36.36,0,0,1,0-.67A1.29,1.29,0,0,1,80.7,98.77Z"/><path id="_Path_228" data-name="&lt;Path&gt;" class="cls-2" d="M83.77,97a.36.36,0,0,1,0,.67,1.29,1.29,0,0,1-1.17,0,.36.36,0,0,1,0-.67A1.29,1.29,0,0,1,83.77,97Z"/><path id="_Path_229" data-name="&lt;Path&gt;" class="cls-2" d="M59.22,107.39a.36.36,0,0,1,0,.67,1.29,1.29,0,0,1-1.17,0,.36.36,0,0,1,0-.67A1.29,1.29,0,0,1,59.22,107.39Z"/><path id="_Path_230" data-name="&lt;Path&gt;" class="cls-2" d="M62.29,105.65a.36.36,0,0,1,0,.67,1.29,1.29,0,0,1-1.17,0,.36.36,0,0,1,0-.67A1.29,1.29,0,0,1,62.29,105.65Z"/><path id="_Path_231" data-name="&lt;Path&gt;" class="cls-2" d="M65.36,103.92a.36.36,0,0,1,0,.67,1.29,1.29,0,0,1-1.17,0,.36.36,0,0,1,0-.67A1.29,1.29,0,0,1,65.36,103.92Z"/><path id="_Path_232" data-name="&lt;Path&gt;" class="cls-2" d="M68.44,102.18a.36.36,0,0,1,0,.67,1.29,1.29,0,0,1-1.17,0,.36.36,0,0,1,0-.67A1.29,1.29,0,0,1,68.44,102.18Z"/><path id="_Path_233" data-name="&lt;Path&gt;" class="cls-2" d="M71.51,100.45a.36.36,0,0,1,0,.67,1.29,1.29,0,0,1-1.17,0,.36.36,0,0,1,0-.67A1.29,1.29,0,0,1,71.51,100.45Z"/><path id="_Path_234" data-name="&lt;Path&gt;" class="cls-2" d="M74.58,98.71a.36.36,0,0,1,0,.67,1.29,1.29,0,0,1-1.17,0,.36.36,0,0,1,0-.67A1.29,1.29,0,0,1,74.58,98.71Z"/><path id="_Path_235" data-name="&lt;Path&gt;" class="cls-2" d="M77.66,97a.36.36,0,0,1,0,.67,1.29,1.29,0,0,1-1.17,0,.36.36,0,0,1,0-.67A1.29,1.29,0,0,1,77.66,97Z"/><path id="_Path_236" data-name="&lt;Path&gt;" class="cls-2" d="M80.73,95.24a.36.36,0,0,1,0,.68,1.29,1.29,0,0,1-1.17,0,.36.36,0,0,1,0-.68A1.29,1.29,0,0,1,80.73,95.24Z"/><path id="_Path_237" data-name="&lt;Path&gt;" class="cls-2" d="M56.18,105.59a.36.36,0,0,1,0,.67,1.29,1.29,0,0,1-1.17,0,.36.36,0,0,1,0-.67A1.29,1.29,0,0,1,56.18,105.59Z"/><path id="_Path_238" data-name="&lt;Path&gt;" class="cls-2" d="M59.25,103.86a.36.36,0,0,1,0,.67,1.29,1.29,0,0,1-1.17,0,.36.36,0,0,1,0-.67A1.29,1.29,0,0,1,59.25,103.86Z"/><path id="_Path_239" data-name="&lt;Path&gt;" class="cls-2" d="M62.32,102.12a.36.36,0,0,1,0,.67,1.29,1.29,0,0,1-1.17,0,.36.36,0,0,1,0-.67A1.29,1.29,0,0,1,62.32,102.12Z"/><path id="_Path_240" data-name="&lt;Path&gt;" class="cls-2" d="M65.4,100.39a.36.36,0,0,1,0,.67,1.29,1.29,0,0,1-1.17,0,.36.36,0,0,1,0-.67A1.29,1.29,0,0,1,65.4,100.39Z"/><path id="_Path_241" data-name="&lt;Path&gt;" class="cls-2" d="M68.47,98.65a.36.36,0,0,1,0,.67,1.29,1.29,0,0,1-1.17,0,.36.36,0,0,1,0-.67A1.29,1.29,0,0,1,68.47,98.65Z"/><path id="_Path_242" data-name="&lt;Path&gt;" class="cls-2" d="M71.54,96.92a.36.36,0,0,1,0,.67,1.29,1.29,0,0,1-1.17,0,.36.36,0,0,1,0-.67A1.29,1.29,0,0,1,71.54,96.92Z"/><path id="_Path_243" data-name="&lt;Path&gt;" class="cls-2" d="M74.62,95.18a.36.36,0,0,1,0,.68,1.29,1.29,0,0,1-1.17,0,.36.36,0,0,1,0-.68A1.29,1.29,0,0,1,74.62,95.18Z"/><path id="_Path_244" data-name="&lt;Path&gt;" class="cls-2" d="M77.69,93.45a.36.36,0,0,1,0,.67,1.29,1.29,0,0,1-1.17,0,.36.36,0,0,1,0-.67A1.29,1.29,0,0,1,77.69,93.45Z"/><path id="_Path_245" data-name="&lt;Path&gt;" class="cls-2" d="M53.11,103.78a.36.36,0,0,1,0,.68,1.29,1.29,0,0,1-1.17,0,.36.36,0,0,1,0-.68A1.29,1.29,0,0,1,53.11,103.78Z"/><path id="_Path_246" data-name="&lt;Path&gt;" class="cls-2" d="M56.18,102a.36.36,0,0,1,0,.67,1.29,1.29,0,0,1-1.17,0,.36.36,0,0,1,0-.67A1.29,1.29,0,0,1,56.18,102Z"/><path id="_Path_247" data-name="&lt;Path&gt;" class="cls-2" d="M59.26,100.31a.36.36,0,0,1,0,.67,1.29,1.29,0,0,1-1.17,0,.36.36,0,0,1,0-.67A1.29,1.29,0,0,1,59.26,100.31Z"/><path id="_Path_248" data-name="&lt;Path&gt;" class="cls-2" d="M62.33,98.58a.36.36,0,0,1,0,.67,1.29,1.29,0,0,1-1.17,0,.36.36,0,0,1,0-.67A1.29,1.29,0,0,1,62.33,98.58Z"/><path id="_Path_249" data-name="&lt;Path&gt;" class="cls-2" d="M65.4,96.84a.36.36,0,0,1,0,.67,1.29,1.29,0,0,1-1.17,0,.36.36,0,0,1,0-.67A1.29,1.29,0,0,1,65.4,96.84Z"/><path id="_Path_250" data-name="&lt;Path&gt;" class="cls-2" d="M68.48,95.11a.36.36,0,0,1,0,.67,1.29,1.29,0,0,1-1.17,0,.36.36,0,0,1,0-.67A1.29,1.29,0,0,1,68.48,95.11Z"/><path id="_Path_251" data-name="&lt;Path&gt;" class="cls-2" d="M71.55,93.37a.36.36,0,0,1,0,.67,1.29,1.29,0,0,1-1.17,0,.36.36,0,0,1,0-.67A1.29,1.29,0,0,1,71.55,93.37Z"/><path id="_Path_252" data-name="&lt;Path&gt;" class="cls-2" d="M74.62,91.63a.36.36,0,0,1,0,.67,1.29,1.29,0,0,1-1.17,0,.36.36,0,0,1,0-.67A1.29,1.29,0,0,1,74.62,91.63Z"/><path id="_Path_253" data-name="&lt;Path&gt;" class="cls-2" d="M50.07,102a.36.36,0,0,1,0,.67,1.29,1.29,0,0,1-1.17,0,.36.36,0,0,1,0-.67A1.29,1.29,0,0,1,50.07,102Z"/><path id="_Path_254" data-name="&lt;Path&gt;" class="cls-2" d="M53.15,100.25a.36.36,0,0,1,0,.67,1.29,1.29,0,0,1-1.17,0,.36.36,0,0,1,0-.67A1.29,1.29,0,0,1,53.15,100.25Z"/><path id="_Path_255" data-name="&lt;Path&gt;" class="cls-2" d="M56.22,98.52a.36.36,0,0,1,0,.67,1.29,1.29,0,0,1-1.17,0,.36.36,0,0,1,0-.67A1.29,1.29,0,0,1,56.22,98.52Z"/><path id="_Path_256" data-name="&lt;Path&gt;" class="cls-2" d="M59.29,96.78a.36.36,0,0,1,0,.67,1.29,1.29,0,0,1-1.17,0,.36.36,0,0,1,0-.67A1.29,1.29,0,0,1,59.29,96.78Z"/><path id="_Path_257" data-name="&lt;Path&gt;" class="cls-2" d="M62.37,95a.36.36,0,0,1,0,.67,1.29,1.29,0,0,1-1.17,0,.36.36,0,0,1,0-.67A1.29,1.29,0,0,1,62.37,95Z"/><path id="_Path_258" data-name="&lt;Path&gt;" class="cls-2" d="M65.44,93.31a.36.36,0,0,1,0,.67,1.29,1.29,0,0,1-1.17,0,.36.36,0,0,1,0-.67A1.29,1.29,0,0,1,65.44,93.31Z"/><path id="_Path_259" data-name="&lt;Path&gt;" class="cls-2" d="M68.51,91.58a.36.36,0,0,1,0,.67,1.29,1.29,0,0,1-1.17,0,.36.36,0,0,1,0-.67A1.29,1.29,0,0,1,68.51,91.58Z"/><path id="_Path_260" data-name="&lt;Path&gt;" class="cls-2" d="M71.59,89.84a.36.36,0,0,1,0,.67,1.29,1.29,0,0,1-1.17,0,.36.36,0,0,1,0-.67A1.29,1.29,0,0,1,71.59,89.84Z"/><path id="_Path_261" data-name="&lt;Path&gt;" class="cls-2" d="M50.11,98.46a.36.36,0,0,1,0,.67,1.29,1.29,0,0,1-1.17,0,.36.36,0,0,1,0-.67A1.29,1.29,0,0,1,50.11,98.46Z"/><path id="_Path_262" data-name="&lt;Path&gt;" class="cls-2" d="M53.18,96.72a.36.36,0,0,1,0,.67,1.29,1.29,0,0,1-1.17,0,.36.36,0,0,1,0-.67A1.29,1.29,0,0,1,53.18,96.72Z"/><path id="_Path_263" data-name="&lt;Path&gt;" class="cls-2" d="M56.25,95a.36.36,0,0,1,0,.67,1.29,1.29,0,0,1-1.17,0,.36.36,0,0,1,0-.67A1.29,1.29,0,0,1,56.25,95Z"/><path id="_Path_264" data-name="&lt;Path&gt;" class="cls-2" d="M59.33,93.25a.36.36,0,0,1,0,.67,1.29,1.29,0,0,1-1.17,0,.36.36,0,0,1,0-.67A1.29,1.29,0,0,1,59.33,93.25Z"/><path id="_Path_265" data-name="&lt;Path&gt;" class="cls-2" d="M62.4,91.52a.36.36,0,0,1,0,.67,1.29,1.29,0,0,1-1.17,0,.36.36,0,0,1,0-.67A1.29,1.29,0,0,1,62.4,91.52Z"/><path id="_Path_266" data-name="&lt;Path&gt;" class="cls-2" d="M65.47,89.78a.36.36,0,0,1,0,.67,1.29,1.29,0,0,1-1.17,0,.36.36,0,0,1,0-.67A1.29,1.29,0,0,1,65.47,89.78Z"/><path id="_Path_267" data-name="&lt;Path&gt;" class="cls-2" d="M102,128.71a.36.36,0,0,1,0,.67,1.29,1.29,0,0,1-1.17,0,.36.36,0,0,1,0-.67A1.29,1.29,0,0,1,102,128.71Z"/><path id="_Path_268" data-name="&lt;Path&gt;" class="cls-2" d="M105,127a.36.36,0,0,1,0,.67,1.29,1.29,0,0,1-1.17,0,.36.36,0,0,1,0-.67A1.29,1.29,0,0,1,105,127Z"/><path id="_Path_269" data-name="&lt;Path&gt;" class="cls-2" d="M108.1,125.24a.36.36,0,0,1,0,.67,1.29,1.29,0,0,1-1.17,0,.36.36,0,0,1,0-.67A1.29,1.29,0,0,1,108.1,125.24Z"/><path id="_Path_270" data-name="&lt;Path&gt;" class="cls-2" d="M111.17,123.51a.36.36,0,0,1,0,.67,1.29,1.29,0,0,1-1.17,0,.36.36,0,0,1,0-.67A1.29,1.29,0,0,1,111.17,123.51Z"/><path id="_Path_271" data-name="&lt;Path&gt;" class="cls-2" d="M114.24,121.77a.36.36,0,0,1,0,.67,1.29,1.29,0,0,1-1.17,0,.36.36,0,0,1,0-.67A1.29,1.29,0,0,1,114.24,121.77Z"/><path id="_Path_272" data-name="&lt;Path&gt;" class="cls-2" d="M95.84,128.65a.36.36,0,0,1,0,.67,1.29,1.29,0,0,1-1.17,0,.36.36,0,0,1,0-.67A1.29,1.29,0,0,1,95.84,128.65Z"/><path id="_Path_273" data-name="&lt;Path&gt;" class="cls-2" d="M98.91,126.92a.36.36,0,0,1,0,.67,1.29,1.29,0,0,1-1.17,0,.36.36,0,0,1,0-.67A1.29,1.29,0,0,1,98.91,126.92Z"/><path id="_Path_274" data-name="&lt;Path&gt;" class="cls-2" d="M102,125.18a.36.36,0,0,1,0,.67,1.29,1.29,0,0,1-1.17,0,.36.36,0,0,1,0-.67A1.29,1.29,0,0,1,102,125.18Z"/><path id="_Path_275" data-name="&lt;Path&gt;" class="cls-2" d="M105.06,123.45a.36.36,0,0,1,0,.67,1.29,1.29,0,0,1-1.17,0,.36.36,0,0,1,0-.67A1.29,1.29,0,0,1,105.06,123.45Z"/><path id="_Path_276" data-name="&lt;Path&gt;" class="cls-2" d="M108.13,121.71a.36.36,0,0,1,0,.67,1.29,1.29,0,0,1-1.17,0,.36.36,0,0,1,0-.67A1.29,1.29,0,0,1,108.13,121.71Z"/><path id="_Path_277" data-name="&lt;Path&gt;" class="cls-2" d="M111.2,120a.36.36,0,0,1,0,.67,1.29,1.29,0,0,1-1.17,0,.36.36,0,0,1,0-.67A1.29,1.29,0,0,1,111.2,120Z"/><path id="_Path_278" data-name="&lt;Path&gt;" class="cls-2" d="M114.28,118.24a.36.36,0,0,1,0,.67,1.29,1.29,0,0,1-1.17,0,.36.36,0,0,1,0-.67A1.29,1.29,0,0,1,114.28,118.24Z"/><path id="_Path_279" data-name="&lt;Path&gt;" class="cls-2" d="M117.23,116.8a.36.36,0,0,1,0,.68,1.29,1.29,0,0,1-1.17,0,.36.36,0,0,1,0-.68A1.29,1.29,0,0,1,117.23,116.8Z"/><path id="_Path_280" data-name="&lt;Path&gt;" class="cls-2" d="M117.32,120a.36.36,0,0,1,0,.67,1.29,1.29,0,0,1-1.17,0,.36.36,0,0,1,0-.67A1.29,1.29,0,0,1,117.32,120Z"/></g><g class="cls-3"><path d="M2.27,71.56l11.5-6.68a2.81,2.81,0,0,0,.2,1A5.36,5.36,0,0,0,14.57,67a7.15,7.15,0,0,0,2.25,2.12L5.32,75.82A7.15,7.15,0,0,1,3.07,73.7a5.36,5.36,0,0,1-.61-1.15A2.81,2.81,0,0,1,2.27,71.56Z"/><polygon points="2.42 18.73 13.92 12.05 13.77 64.88 2.27 71.56 2.42 18.73"/><polygon points="5.32 75.82 16.82 69.14 101.54 118.05 90.04 124.73 5.32 75.82"/><path d="M104.06,118.42l-11.5,6.68a1.47,1.47,0,0,1-.71.18,3.57,3.57,0,0,1-1.81-.56l11.5-6.68a3.57,3.57,0,0,0,1.81.56A1.47,1.47,0,0,0,104.06,118.42Z"/><polygon points="1.45 18.18 12.95 11.49 13.92 12.05 2.42 18.73 1.45 18.18"/><path d="M.77,15.89l11.5-6.68a.67.67,0,0,0-.28.62,2.12,2.12,0,0,0,1,1.67L1.45,18.18a2.12,2.12,0,0,1-1-1.67A.67.67,0,0,1,.77,15.89Z"/><path d="M.77,15.89l11.5-6.68a.68.68,0,0,1,.69.07L1.46,16A.68.68,0,0,0,.77,15.89Z"/><polygon points="1.46 15.96 12.96 9.28 13.92 9.84 2.42 16.52 1.46 15.96"/><polygon points="2.44 10.43 13.94 3.75 13.92 9.84 2.42 16.52 2.44 10.43"/><path d="M3,9.35,14.5,2.66a1,1,0,0,0-.36.34,1.34,1.34,0,0,0-.2.75L2.44,10.43a1.34,1.34,0,0,1,.2-.75A1,1,0,0,1,3,9.35Z"/><polygon class="cls-4" points="2.42 18.73 13.92 12.05 104.76 64.5 93.27 71.19 2.42 18.73"/><polygon points="2.42 16.52 13.92 9.84 104.77 62.29 93.27 68.97 2.42 16.52"/><path class="cls-5" d="M17.66,9.5a1.1,1.1,0,0,0,1.11.11L7.28,16.29a1.1,1.1,0,0,1-1.11-.11Z"/><path class="cls-5" d="M16.1,6.8a3.44,3.44,0,0,0,1.56,2.7L6.16,16.18a3.44,3.44,0,0,1-1.56-2.7,1.1,1.1,0,0,1,.46-1L16.56,5.8A1.1,1.1,0,0,0,16.1,6.8Z"/><path d="M18.77,9.61,7.28,16.29a1.09,1.09,0,0,0,.46-1l11.5-6.68A1.09,1.09,0,0,1,18.77,9.61Z"/><path d="M5.06,12.48,16.56,5.8a1.1,1.1,0,0,1,1.11.11L6.17,12.59A1.1,1.1,0,0,0,5.06,12.48Z"/><path d="M6.17,12.59l11.5-6.68a3.44,3.44,0,0,1,1.56,2.7L7.73,15.29A3.44,3.44,0,0,0,6.17,12.59Z"/><path class="cls-5" d="M15.21,2.48A3.56,3.56,0,0,1,17,3L5.52,9.72h0L17,3.06,5.51,9.72a3.56,3.56,0,0,0-1.81-.55A1.46,1.46,0,0,0,3,9.35L14.5,2.66A1.46,1.46,0,0,1,15.21,2.48Z"/><path class="cls-5" d="M22.35,12.21a1.11,1.11,0,0,0,1.11.11L12,19a1.11,1.11,0,0,1-1.11-.11Z"/><path d="M23.47,12.32,12,19a1.1,1.1,0,0,0,.46-1l11.5-6.68A1.1,1.1,0,0,1,23.47,12.32Z"/><path class="cls-5" d="M23.46,12.32h0L12,19h0Z"/><path class="cls-5" d="M20.79,9.51a3.44,3.44,0,0,0,1.56,2.7l-11.5,6.68a3.44,3.44,0,0,1-1.56-2.7,1.1,1.1,0,0,1,.46-1l11.5-6.68A1.1,1.1,0,0,0,20.79,9.51Z"/><path d="M9.75,15.19l11.5-6.68a1.1,1.1,0,0,1,1.11.11L10.87,15.3A1.1,1.1,0,0,0,9.75,15.19Z"/><path d="M10.87,15.3l11.5-6.68a3.44,3.44,0,0,1,1.56,2.7L12.42,18A3.44,3.44,0,0,0,10.87,15.3Z"/><path class="cls-5" d="M25.49,12.22A3.44,3.44,0,0,0,27,14.92L15.55,21.6A3.44,3.44,0,0,1,14,18.9Z"/><path class="cls-5" d="M25.52,11.9a1.79,1.79,0,0,0,0,.32L14,18.9a1.79,1.79,0,0,1,0-.32Z"/><path class="cls-5" d="M25.52,11.9,14,18.58a1.26,1.26,0,0,1,.1-.31l11.5-6.68A1.26,1.26,0,0,0,25.52,11.9Z"/><path class="cls-5" d="M25.73,11.41a.94.94,0,0,0-.12.19l-11.5,6.68a.94.94,0,0,1,.12-.19Z"/><path class="cls-5" d="M27,14.92a1.1,1.1,0,0,0,1.11.11l-11.5,6.68a1.1,1.1,0,0,1-1.11-.11Z"/><path class="cls-5" d="M25.73,11.41a3.83,3.83,0,0,1-.55.32l-.58.34-1.22.71L21,14.14l-6.79,3.95a.77.77,0,0,1,.22-.19l11.5-6.68A.77.77,0,0,0,25.73,11.41Z"/><path d="M28.16,15l-11.5,6.68a1.1,1.1,0,0,0,.46-1L28.62,14A1.1,1.1,0,0,1,28.16,15Z"/><path d="M14.45,17.9l11.5-6.68a1.1,1.1,0,0,1,1.11.11L15.56,18A1.1,1.1,0,0,0,14.45,17.9Z"/><path d="M15.56,18l11.5-6.68A3.44,3.44,0,0,1,28.62,14l-11.5,6.68A3.44,3.44,0,0,0,15.56,18Z"/><path class="cls-4" d="M104.41,118.08a1,1,0,0,1-.35.33l-11.5,6.68a1,1,0,0,0,.35-.33Z"/><path class="cls-4" d="M104.61,117.33a1.34,1.34,0,0,1-.2.75l-11.5,6.68h0l11.48-6.67-11.48,6.67a1.34,1.34,0,0,0,.2-.75Z"/><polygon class="cls-4" points="93.27 71.19 104.76 64.5 104.61 117.33 93.12 124.01 93.27 71.19"/><polygon points="93.27 71.19 104.76 64.5 105.73 65.06 94.23 71.74 93.27 71.19"/><path d="M106.41,65.13l-11.5,6.68a.68.68,0,0,1-.68-.07l11.5-6.68A.68.68,0,0,0,106.41,65.13Z"/><polygon points="95.2 71.19 106.69 64.51 106.54 118.44 95.05 125.13 95.2 71.19"/><path d="M106.41,65.13l-11.5,6.68a.68.68,0,0,0,.28-.62l11.5-6.68A.68.68,0,0,1,106.41,65.13Z"/><polygon points="93.27 68.97 104.77 62.29 105.73 62.84 94.24 69.53 93.27 68.97"/><polygon class="cls-5" points="93.29 62.88 104.79 56.2 104.77 62.29 93.27 68.97 93.29 62.88"/><polygon points="95.22 64 106.72 57.31 106.69 64.51 95.2 71.19 95.22 64"/><path d="M94.24,69.53l11.5-6.68a2.12,2.12,0,0,1,1,1.66L95.2,71.19A2.12,2.12,0,0,0,94.24,69.53Z"/><polygon class="cls-5" points="5.52 9.72 17.02 3.04 101.72 51.94 90.23 58.63 5.52 9.72"/><path class="cls-5" d="M104.59,55.22a2.81,2.81,0,0,1,.2,1l-11.5,6.68a2.81,2.81,0,0,0-.2-1l5.75-3.34Z"/><path class="cls-5" d="M101.72,51.94A7.16,7.16,0,0,1,104,54.07l-11.5,6.68a7.16,7.16,0,0,0-2.26-2.12Z"/><path class="cls-5" d="M104,54.07h0l-11.5,6.68h0L104,54.07Z"/><path class="cls-5" d="M104.59,55.22,93.09,61.9a5.46,5.46,0,0,0-.61-1.15L104,54.07A5.46,5.46,0,0,1,104.59,55.22Z"/><path d="M6.17,12.59a3.44,3.44,0,0,1,1.56,2.7c0,1-.71,1.39-1.57.89a3.44,3.44,0,0,1-1.56-2.7C4.6,12.49,5.31,12.09,6.17,12.59Z"/><path d="M10.87,15.3A3.44,3.44,0,0,1,12.42,18c0,1-.7,1.39-1.57.89a3.44,3.44,0,0,1-1.56-2.7C9.3,15.2,10,14.8,10.87,15.3Z"/><path d="M15.56,18a3.44,3.44,0,0,1,1.56,2.7c0,1-.7,1.39-1.57.89A3.44,3.44,0,0,1,14,18.9C14,17.91,14.69,17.51,15.56,18Z"/><path d="M105.42,120.77l-11.5,6.68a2,2,0,0,0,.68-.65,3,3,0,0,0,.44-1.68l11.5-6.68a3,3,0,0,1-.44,1.68A2,2,0,0,1,105.42,120.77Z"/><path d="M94.24,69.53a2.12,2.12,0,0,1,1,1.66c0,.61-.44.86-1,.55l-1-.56L2.42,18.73l-1-.56a2.12,2.12,0,0,1-1-1.67c0-.61.44-.86,1-.55l1,.56L93.27,69Z"/><path class="cls-5" d="M17,.82a4.48,4.48,0,0,0-3.45-.7,2.2,2.2,0,0,0-.45.2L1.63,7a2.19,2.19,0,0,1,.45-.2,4.48,4.48,0,0,1,3.45.7L90.23,56.41l11.5-6.68Z"/><path class="cls-6" d="M17,4.63a4.48,4.48,0,0,0-3.45-.7,2.2,2.2,0,0,0-.45.2L1.63,10.8a2.19,2.19,0,0,1,.45-.2,4.48,4.48,0,0,1,3.45.7L90.23,60.22l11.5-6.68Z"/><g class="cls-7"><path d="M14.4,1.63a3.9,3.9,0,0,1,1.8.6L98.5,49.75l-10,6L4.79,7l9.16-5.23.11,0a1.16,1.16,0,0,1,.34,0M14.4,0a2.78,2.78,0,0,0-.83.12,2.2,2.2,0,0,0-.45.2L0,7.8a2.2,2.2,0,0,1,.42-.18,2.78,2.78,0,0,1,.83-.12,5.4,5.4,0,0,1,2.62.82L88.47,57.61l13.26-7.88L17,.82A5.4,5.4,0,0,0,14.4,0ZM0,7.8l0,0,0,0Z"/></g><path d="M90.23,56.41l11.5-6.68a10.48,10.48,0,0,1,2.7,2.3,10.63,10.63,0,0,1,1.85,3.11,6.33,6.33,0,0,1,.43,2.18L95.22,64a6.33,6.33,0,0,0-.43-2.18,10.63,10.63,0,0,0-1.85-3.11A10.48,10.48,0,0,0,90.23,56.41Z"/><path class="cls-5" d="M93.09,61.9a2.81,2.81,0,0,1,.2,1l0,6.08L2.43,16.52l0-6.08a1.34,1.34,0,0,1,.2-.75,1.24,1.24,0,0,1,1.06-.52,3.56,3.56,0,0,1,1.81.55L90.23,58.62a7.16,7.16,0,0,1,2.26,2.12A5.46,5.46,0,0,1,93.09,61.9ZM6.16,16.18c.86.5,1.57.1,1.57-.89a3.44,3.44,0,0,0-1.56-2.7c-.86-.5-1.57-.1-1.57.9a3.44,3.44,0,0,0,1.56,2.7m4.69,2.71c.86.5,1.57.1,1.57-.89a3.44,3.44,0,0,0-1.56-2.7c-.86-.5-1.57-.1-1.57.9a3.44,3.44,0,0,0,1.56,2.7m4.69,2.71c.86.5,1.57.1,1.57-.89A3.44,3.44,0,0,0,15.56,18c-.86-.5-1.57-.1-1.57.9a3.44,3.44,0,0,0,1.56,2.7"/><path d="M90.23,56.41a10.48,10.48,0,0,1,2.7,2.3,10.63,10.63,0,0,1,1.85,3.11A6.33,6.33,0,0,1,95.22,64l0,7.19a2.12,2.12,0,0,0-1-1.66l-1-.56,0-6.08a2.81,2.81,0,0,0-.2-1,5.46,5.46,0,0,0-.61-1.15,7.15,7.15,0,0,0-2.25-2.12L5.52,9.72a3.57,3.57,0,0,0-1.81-.56,1.24,1.24,0,0,0-1.06.52,1.34,1.34,0,0,0-.2.75l0,6.08-1-.56c-.53-.31-1-.06-1,.55a2.12,2.12,0,0,0,1,1.67l1,.56L2.27,71.56a2.81,2.81,0,0,0,.2,1,5.36,5.36,0,0,0,.61,1.15,7.15,7.15,0,0,0,2.25,2.12L90,124.73a3.57,3.57,0,0,0,1.81.56,1.24,1.24,0,0,0,1.06-.52,1.34,1.34,0,0,0,.2-.75l.15-52.83,1,.56c.53.31,1,.06,1-.55L95,125.13a3,3,0,0,1-.44,1.68,2.05,2.05,0,0,1-1.12.84,4.48,4.48,0,0,1-3.45-.7L5.32,78a10.47,10.47,0,0,1-2.7-2.3A10.64,10.64,0,0,1,.77,72.63a6.35,6.35,0,0,1-.43-2.18L.51,9.32A3,3,0,0,1,1,7.64,2,2,0,0,1,2.08,6.8a4.48,4.48,0,0,1,3.45.7Z"/><path class="cls-4" d="M2.42,18.73,2.27,71.56a2.81,2.81,0,0,0,.2,1,5.36,5.36,0,0,0,.61,1.15,7.15,7.15,0,0,0,2.26,2.12L90,124.73a3.56,3.56,0,0,0,1.81.55,1.24,1.24,0,0,0,1.06-.52,1.34,1.34,0,0,0,.2-.75l.15-52.83Z"/><polygon points="9.76 41.63 9.71 60.1 7 58.53 7.06 40.07 9.76 41.63"/><polygon points="11.39 43.13 14.11 44.71 14.11 47.33 11.38 45.76 11.39 43.13"/><polygon points="11.34 61.03 11.37 47.84 14.09 49.41 14.05 62.6 11.34 61.03"/><polygon points="22.37 54.19 20.12 66.11 17.05 64.33 14.84 49.85 17.5 51.38 18.6 61.6 19.75 52.68 22.37 54.19"/><path d="M25.51,62.77v2.62c0,.15,0,.35,0,.57a3.41,3.41,0,0,0,.09.55,4,4,0,0,0,.17.46,1.43,1.43,0,0,0,.29.43,1.84,1.84,0,0,0,.4.3c.37.21.62.21.76,0a2.17,2.17,0,0,0,.22-1.15V65.8L30,67.28v.52c0,1.38-.3,2.24-.89,2.63s-1.48.24-2.65-.44a6.88,6.88,0,0,1-2.83-2.89,9.37,9.37,0,0,1-.85-4.18V59.19c0-1.62.29-2.69.89-3.18s1.52-.37,2.81.38a7.51,7.51,0,0,1,1.73,1.34,6,6,0,0,1,1.1,1.68,8.57,8.57,0,0,1,.55,1.94A14.86,14.86,0,0,1,30,63.66v1.72Zm0-2.42v.86l2,1.13V61.08a4.34,4.34,0,0,0-.22-1.57,1.7,1.7,0,0,0-.77-.87c-.38-.22-.63-.2-.77,0a4.28,4.28,0,0,0-.2,1.66"/><polygon points="45.83 67.74 43.97 79.88 41.68 78.55 40.44 69.57 39.09 77.06 36.75 75.71 35.02 61.5 37.26 62.79 38.22 71.91 39.47 64.07 41.46 65.22 42.59 74.48 43.68 66.5 45.83 67.74"/><path d="M53.76,79.08l-4.54-2.62v2c0,.28,0,.49,0,.64s0,.35,0,.57a2.69,2.69,0,0,0,.09.55,4,4,0,0,0,.17.46,1.43,1.43,0,0,0,.29.43,1.84,1.84,0,0,0,.4.3c.37.21.62.21.76,0a2.18,2.18,0,0,0,.22-1.15V79.5L53.75,81v.52c0,1.38-.3,2.24-.89,2.63s-1.48.24-2.65-.44a6.86,6.86,0,0,1-2.83-2.89,9.36,9.36,0,0,1-.85-4.18V72.89c0-1.62.29-2.69.88-3.18s1.53-.36,2.82.38A7.56,7.56,0,0,1,52,71.43a5.79,5.79,0,0,1,1.09,1.68A8.26,8.26,0,0,1,53.61,75a14.87,14.87,0,0,1,.15,2.31Zm-4.53-5v.86l2,1.13V74.77A4.35,4.35,0,0,0,51,73.21a1.7,1.7,0,0,0-.77-.87c-.38-.22-.63-.2-.77,0A4.2,4.2,0,0,0,49.23,74"/><path d="M62.57,80.57c0,.38.05.76.05,1.13V86a9.22,9.22,0,0,1-.15,1.76A3.8,3.8,0,0,1,62,89a1.14,1.14,0,0,1-.85.58,2,2,0,0,1-1.26-.34,6.61,6.61,0,0,1-2.14-2.42v1L55,86.26l.05-18.47,2.72,1.57,0,6.28a2.17,2.17,0,0,1,2.29.12,4.12,4.12,0,0,1,1.11,1,5.48,5.48,0,0,1,.74,1.21,7.28,7.28,0,0,1,.43,1.34A9.67,9.67,0,0,1,62.57,80.57Zm-2.67,4V80a7.89,7.89,0,0,0,0-.85,4.56,4.56,0,0,0-.14-.77,2.12,2.12,0,0,0-.31-.68,1.54,1.54,0,0,0-.47-.44l0,0a1.48,1.48,0,0,0-1.14-.14l0,8.27A4.08,4.08,0,0,0,59,86.5a.6.6,0,0,0,.5.09.54.54,0,0,0,.3-.39,3.52,3.52,0,0,0,.12-.7,9.09,9.09,0,0,0,0-.93"/><path d="M66.84,79.67A6,6,0,0,1,69,81.87,8.53,8.53,0,0,1,70.12,85l-1.79-.17c-.24-1.51-.7-2.46-1.37-2.86l0,0a.6.6,0,0,0-.64-.07.64.64,0,0,0-.26.6,5,5,0,0,0,1,2.12l1.57,2.54c.27.42.48.79.66,1.1s.36.68.54,1.09a6.14,6.14,0,0,1,.43,1.22,5.6,5.6,0,0,1,.14,1.21q0,1.66-1,2a3,3,0,0,1-2.48-.5A6.7,6.7,0,0,1,64.53,91a9.2,9.2,0,0,1-1.24-3.35l2.06.32a7.39,7.39,0,0,0,.59,2,2.42,2.42,0,0,0,.94,1.09l0,0a.68.68,0,0,0,.71.06.73.73,0,0,0,.25-.69A6.23,6.23,0,0,0,66.74,88l-1.53-2.41a8.34,8.34,0,0,1-1.63-4.38c0-1,.34-1.69.95-2A2.55,2.55,0,0,1,66.84,79.67Z"/><polygon points="71.3 77.72 74.02 79.29 74.01 81.92 71.29 80.35 71.3 77.72"/><polygon points="71.25 95.62 71.28 82.43 74 84 73.96 97.19 71.25 95.62"/><path d="M78.74,82.86v3.87l1.75,1V89.8l-1.75-1,0,7.61a2.18,2.18,0,0,0,.25,1.08,2.13,2.13,0,0,0,.79.74l.13.08a5.65,5.65,0,0,0,.7.34V101a14.49,14.49,0,0,1-1.65-.79l-.21-.13A5.44,5.44,0,0,1,77.37,99a4.56,4.56,0,0,1-.84-1.32,6.92,6.92,0,0,1-.43-1.46A9.19,9.19,0,0,1,76,94.63l0-7.41-1.13-.65V84.51l1.13.65V81.29Z"/><path d="M88.53,99.16,84,96.54v2c0,.28,0,.49,0,.64s0,.35,0,.57a2.71,2.71,0,0,0,.09.55,4,4,0,0,0,.17.46,1.34,1.34,0,0,0,.29.43,1.84,1.84,0,0,0,.4.3c.37.21.62.21.76,0a2.17,2.17,0,0,0,.22-1.15v-.76l2.56,1.48v.52c0,1.38-.3,2.24-.89,2.63s-1.48.24-2.65-.44a6.86,6.86,0,0,1-2.83-2.89,9.37,9.37,0,0,1-.85-4.18V93c0-1.62.29-2.69.88-3.18s1.52-.37,2.82.38a7.56,7.56,0,0,1,1.73,1.34,5.79,5.79,0,0,1,1.09,1.68,8.26,8.26,0,0,1,.56,1.95,14.86,14.86,0,0,1,.15,2.31Zm-4.53-5V95l2,1.13V94.85a4.53,4.53,0,0,0-.22-1.57,1.7,1.7,0,0,0-.77-.87c-.38-.22-.63-.2-.77,0A4.19,4.19,0,0,0,84,94.11"/></g></g></g></svg>