<svg xmlns="http://www.w3.org/2000/svg" viewBox="0 0 156.76 201.95"><defs><style>.cls-1{fill:#16110d;}.cls-2{isolation:isolate;}.cls-3{fill:#ffbe2e;}.cls-4{fill:#fec;}.cls-5{fill:none;}.cls-6{fill:#121212;}</style></defs><title>Button Linkedin</title><g id="Layer_2" data-name="Layer 2"><g id="Contact"><g id="_Group_" data-name="&lt;Group&gt;"><path id="_Path_" data-name="&lt;Path&gt;" class="cls-1" d="M121.16,199.26a.42.42,0,0,1,0,.79,1.52,1.52,0,0,1-1.37,0,.42.42,0,0,1,0-.79A1.51,1.51,0,0,1,121.16,199.26Z"/><path id="_Path_2" data-name="&lt;Path&gt;" class="cls-1" d="M124.74,197.19a.42.42,0,0,1,0,.79,1.51,1.51,0,0,1-1.37,0,.42.42,0,0,1,0-.79A1.52,1.52,0,0,1,124.74,197.19Z"/><path id="_Path_3" data-name="&lt;Path&gt;" class="cls-1" d="M128.32,195.12a.42.42,0,0,1,0,.79,1.51,1.51,0,0,1-1.37,0,.42.42,0,0,1,0-.79A1.51,1.51,0,0,1,128.32,195.12Z"/><path id="_Path_4" data-name="&lt;Path&gt;" class="cls-1" d="M131.91,193.05a.42.42,0,0,1,0,.79,1.51,1.51,0,0,1-1.37,0,.42.42,0,0,1,0-.79A1.51,1.51,0,0,1,131.91,193.05Z"/><path id="_Path_5" data-name="&lt;Path&gt;" class="cls-1" d="M135.49,191a.42.42,0,0,1,0,.79,1.51,1.51,0,0,1-1.37,0,.42.42,0,0,1,0-.79A1.51,1.51,0,0,1,135.49,191Z"/><path id="_Path_6" data-name="&lt;Path&gt;" class="cls-1" d="M139.07,188.92a.42.42,0,0,1,0,.79,1.51,1.51,0,0,1-1.37,0,.42.42,0,0,1,0-.79A1.52,1.52,0,0,1,139.07,188.92Z"/><path id="_Path_7" data-name="&lt;Path&gt;" class="cls-1" d="M142.65,186.85a.42.42,0,0,1,0,.79,1.52,1.52,0,0,1-1.37,0,.42.42,0,0,1,0-.79A1.52,1.52,0,0,1,142.65,186.85Z"/><path id="_Path_8" data-name="&lt;Path&gt;" class="cls-1" d="M146.24,184.78a.42.42,0,0,1,0,.79,1.52,1.52,0,0,1-1.37,0,.42.42,0,0,1,0-.79A1.51,1.51,0,0,1,146.24,184.78Z"/><path id="_Path_9" data-name="&lt;Path&gt;" class="cls-1" d="M117.58,197.19a.42.42,0,0,1,0,.79,1.51,1.51,0,0,1-1.37,0,.42.42,0,0,1,0-.79A1.52,1.52,0,0,1,117.58,197.19Z"/><path id="_Path_10" data-name="&lt;Path&gt;" class="cls-1" d="M121.16,195.12a.42.42,0,0,1,0,.79,1.51,1.51,0,0,1-1.37,0,.42.42,0,0,1,0-.79A1.52,1.52,0,0,1,121.16,195.12Z"/><path id="_Path_11" data-name="&lt;Path&gt;" class="cls-1" d="M124.74,193.05a.42.42,0,0,1,0,.79,1.51,1.51,0,0,1-1.37,0,.42.42,0,0,1,0-.79A1.51,1.51,0,0,1,124.74,193.05Z"/><path id="_Path_12" data-name="&lt;Path&gt;" class="cls-1" d="M128.32,191a.42.42,0,0,1,0,.79,1.51,1.51,0,0,1-1.37,0,.42.42,0,0,1,0-.79A1.51,1.51,0,0,1,128.32,191Z"/><path id="_Path_13" data-name="&lt;Path&gt;" class="cls-1" d="M131.91,188.92a.42.42,0,0,1,0,.79,1.51,1.51,0,0,1-1.37,0,.42.42,0,0,1,0-.79A1.52,1.52,0,0,1,131.91,188.92Z"/><path id="_Path_14" data-name="&lt;Path&gt;" class="cls-1" d="M135.49,186.85a.42.42,0,0,1,0,.79,1.52,1.52,0,0,1-1.37,0,.42.42,0,0,1,0-.79A1.51,1.51,0,0,1,135.49,186.85Z"/><path id="_Path_15" data-name="&lt;Path&gt;" class="cls-1" d="M139.07,184.78a.42.42,0,0,1,0,.79,1.51,1.51,0,0,1-1.37,0,.42.42,0,0,1,0-.79A1.51,1.51,0,0,1,139.07,184.78Z"/><path id="_Path_16" data-name="&lt;Path&gt;" class="cls-1" d="M142.66,182.71a.42.42,0,0,1,0,.79,1.51,1.51,0,0,1-1.37,0,.42.42,0,0,1,0-.79A1.51,1.51,0,0,1,142.66,182.71Z"/><path id="_Path_17" data-name="&lt;Path&gt;" class="cls-1" d="M114,195.12a.42.42,0,0,1,0,.79,1.51,1.51,0,0,1-1.37,0,.42.42,0,0,1,0-.79A1.52,1.52,0,0,1,114,195.12Z"/><path id="_Path_18" data-name="&lt;Path&gt;" class="cls-1" d="M117.58,193.05a.42.42,0,0,1,0,.79,1.51,1.51,0,0,1-1.37,0,.42.42,0,0,1,0-.79A1.51,1.51,0,0,1,117.58,193.05Z"/><path id="_Path_19" data-name="&lt;Path&gt;" class="cls-1" d="M121.16,191a.42.42,0,0,1,0,.79,1.51,1.51,0,0,1-1.37,0,.42.42,0,0,1,0-.79A1.51,1.51,0,0,1,121.16,191Z"/><path id="_Path_20" data-name="&lt;Path&gt;" class="cls-1" d="M124.74,188.92a.42.42,0,0,1,0,.79,1.52,1.52,0,0,1-1.37,0,.42.42,0,0,1,0-.79A1.52,1.52,0,0,1,124.74,188.92Z"/><path id="_Path_21" data-name="&lt;Path&gt;" class="cls-1" d="M128.32,186.85a.42.42,0,0,1,0,.79,1.52,1.52,0,0,1-1.37,0,.42.42,0,0,1,0-.79A1.51,1.51,0,0,1,128.32,186.85Z"/><path id="_Path_22" data-name="&lt;Path&gt;" class="cls-1" d="M131.91,184.78a.42.42,0,0,1,0,.79,1.51,1.51,0,0,1-1.37,0,.42.42,0,0,1,0-.79A1.51,1.51,0,0,1,131.91,184.78Z"/><path id="_Path_23" data-name="&lt;Path&gt;" class="cls-1" d="M135.49,182.71a.42.42,0,0,1,0,.79,1.51,1.51,0,0,1-1.37,0,.42.42,0,0,1,0-.79A1.51,1.51,0,0,1,135.49,182.71Z"/><path id="_Path_24" data-name="&lt;Path&gt;" class="cls-1" d="M139.07,180.64a.42.42,0,0,1,0,.79,1.52,1.52,0,0,1-1.37,0,.42.42,0,0,1,0-.79A1.51,1.51,0,0,1,139.07,180.64Z"/><path id="_Path_25" data-name="&lt;Path&gt;" class="cls-1" d="M110.41,193.05a.42.42,0,0,1,0,.79,1.51,1.51,0,0,1-1.37,0,.42.42,0,0,1,0-.79A1.51,1.51,0,0,1,110.41,193.05Z"/><path id="_Path_26" data-name="&lt;Path&gt;" class="cls-1" d="M114,191a.42.42,0,0,1,0,.79,1.51,1.51,0,0,1-1.37,0,.42.42,0,0,1,0-.79A1.52,1.52,0,0,1,114,191Z"/><path id="_Path_27" data-name="&lt;Path&gt;" class="cls-1" d="M117.58,188.92a.42.42,0,0,1,0,.79,1.52,1.52,0,0,1-1.37,0,.42.42,0,0,1,0-.79A1.52,1.52,0,0,1,117.58,188.92Z"/><path id="_Path_28" data-name="&lt;Path&gt;" class="cls-1" d="M121.16,186.85a.42.42,0,0,1,0,.79,1.51,1.51,0,0,1-1.37,0,.42.42,0,0,1,0-.79A1.51,1.51,0,0,1,121.16,186.85Z"/><path id="_Path_29" data-name="&lt;Path&gt;" class="cls-1" d="M124.74,184.78a.42.42,0,0,1,0,.79,1.51,1.51,0,0,1-1.37,0,.42.42,0,0,1,0-.79A1.51,1.51,0,0,1,124.74,184.78Z"/><path id="_Path_30" data-name="&lt;Path&gt;" class="cls-1" d="M128.32,182.71a.42.42,0,0,1,0,.79,1.52,1.52,0,0,1-1.37,0,.42.42,0,0,1,0-.79A1.51,1.51,0,0,1,128.32,182.71Z"/><path id="_Path_31" data-name="&lt;Path&gt;" class="cls-1" d="M131.91,180.64a.42.42,0,0,1,0,.79,1.52,1.52,0,0,1-1.37,0,.42.42,0,0,1,0-.79A1.51,1.51,0,0,1,131.91,180.64Z"/><path id="_Path_32" data-name="&lt;Path&gt;" class="cls-1" d="M135.49,178.57a.42.42,0,0,1,0,.79,1.51,1.51,0,0,1-1.37,0,.42.42,0,0,1,0-.79A1.51,1.51,0,0,1,135.49,178.57Z"/><path id="_Path_33" data-name="&lt;Path&gt;" class="cls-1" d="M106.83,191a.42.42,0,0,1,0,.79,1.52,1.52,0,0,1-1.37,0,.42.42,0,0,1,0-.79A1.52,1.52,0,0,1,106.83,191Z"/><path id="_Path_34" data-name="&lt;Path&gt;" class="cls-1" d="M110.41,188.92a.42.42,0,0,1,0,.79,1.52,1.52,0,0,1-1.37,0,.42.42,0,0,1,0-.79A1.51,1.51,0,0,1,110.41,188.92Z"/><path id="_Path_35" data-name="&lt;Path&gt;" class="cls-1" d="M114,186.85a.42.42,0,0,1,0,.79,1.51,1.51,0,0,1-1.37,0,.42.42,0,0,1,0-.79A1.51,1.51,0,0,1,114,186.85Z"/><path id="_Path_36" data-name="&lt;Path&gt;" class="cls-1" d="M117.58,184.78a.42.42,0,0,1,0,.79,1.51,1.51,0,0,1-1.37,0,.42.42,0,0,1,0-.79A1.51,1.51,0,0,1,117.58,184.78Z"/><path id="_Path_37" data-name="&lt;Path&gt;" class="cls-1" d="M121.16,182.71a.42.42,0,0,1,0,.79,1.51,1.51,0,0,1-1.37,0,.42.42,0,0,1,0-.79A1.51,1.51,0,0,1,121.16,182.71Z"/><path id="_Path_38" data-name="&lt;Path&gt;" class="cls-1" d="M124.74,180.64a.42.42,0,0,1,0,.79,1.51,1.51,0,0,1-1.37,0,.42.42,0,0,1,0-.79A1.51,1.51,0,0,1,124.74,180.64Z"/><path id="_Path_39" data-name="&lt;Path&gt;" class="cls-1" d="M128.32,178.57a.42.42,0,0,1,0,.79,1.51,1.51,0,0,1-1.37,0,.42.42,0,0,1,0-.79A1.52,1.52,0,0,1,128.32,178.57Z"/><path id="_Path_40" data-name="&lt;Path&gt;" class="cls-1" d="M131.91,176.51a.42.42,0,0,1,0,.79,1.51,1.51,0,0,1-1.37,0,.42.42,0,0,1,0-.79A1.52,1.52,0,0,1,131.91,176.51Z"/><path id="_Path_41" data-name="&lt;Path&gt;" class="cls-1" d="M103.22,188.89a.42.42,0,0,1,0,.79,1.51,1.51,0,0,1-1.37,0,.42.42,0,0,1,0-.79A1.52,1.52,0,0,1,103.22,188.89Z"/><path id="_Path_42" data-name="&lt;Path&gt;" class="cls-1" d="M106.8,186.83a.42.42,0,0,1,0,.79,1.51,1.51,0,0,1-1.37,0,.42.42,0,0,1,0-.79A1.52,1.52,0,0,1,106.8,186.83Z"/><path id="_Path_43" data-name="&lt;Path&gt;" class="cls-1" d="M110.38,184.76a.42.42,0,0,1,0,.79,1.51,1.51,0,0,1-1.37,0,.42.42,0,0,1,0-.79A1.51,1.51,0,0,1,110.38,184.76Z"/><path id="_Path_44" data-name="&lt;Path&gt;" class="cls-1" d="M114,182.69a.42.42,0,0,1,0,.79,1.51,1.51,0,0,1-1.37,0,.42.42,0,0,1,0-.79A1.51,1.51,0,0,1,114,182.69Z"/><path id="_Path_45" data-name="&lt;Path&gt;" class="cls-1" d="M117.55,180.62a.42.42,0,0,1,0,.79,1.51,1.51,0,0,1-1.37,0,.42.42,0,0,1,0-.79A1.51,1.51,0,0,1,117.55,180.62Z"/><path id="_Path_46" data-name="&lt;Path&gt;" class="cls-1" d="M121.13,178.55a.42.42,0,0,1,0,.79,1.52,1.52,0,0,1-1.37,0,.42.42,0,0,1,0-.79A1.52,1.52,0,0,1,121.13,178.55Z"/><path id="_Path_47" data-name="&lt;Path&gt;" class="cls-1" d="M124.71,176.48a.42.42,0,0,1,0,.79,1.52,1.52,0,0,1-1.37,0,.42.42,0,0,1,0-.79A1.51,1.51,0,0,1,124.71,176.48Z"/><path id="_Path_48" data-name="&lt;Path&gt;" class="cls-1" d="M128.29,174.42a.42.42,0,0,1,0,.79,1.51,1.51,0,0,1-1.37,0,.42.42,0,0,1,0-.79A1.51,1.51,0,0,1,128.29,174.42Z"/><path id="_Path_49" data-name="&lt;Path&gt;" class="cls-1" d="M99.63,186.83a.42.42,0,0,1,0,.79,1.51,1.51,0,0,1-1.37,0,.42.42,0,0,1,0-.79A1.51,1.51,0,0,1,99.63,186.83Z"/><path id="_Path_50" data-name="&lt;Path&gt;" class="cls-1" d="M103.22,184.76a.42.42,0,0,1,0,.79,1.51,1.51,0,0,1-1.37,0,.42.42,0,0,1,0-.79A1.51,1.51,0,0,1,103.22,184.76Z"/><path id="_Path_51" data-name="&lt;Path&gt;" class="cls-1" d="M106.8,182.69a.42.42,0,0,1,0,.79,1.51,1.51,0,0,1-1.37,0,.42.42,0,0,1,0-.79A1.51,1.51,0,0,1,106.8,182.69Z"/><path id="_Path_52" data-name="&lt;Path&gt;" class="cls-1" d="M110.38,180.62a.42.42,0,0,1,0,.79,1.51,1.51,0,0,1-1.37,0,.42.42,0,0,1,0-.79A1.51,1.51,0,0,1,110.38,180.62Z"/><path id="_Path_53" data-name="&lt;Path&gt;" class="cls-1" d="M114,178.55a.42.42,0,0,1,0,.79,1.52,1.52,0,0,1-1.37,0,.42.42,0,0,1,0-.79A1.51,1.51,0,0,1,114,178.55Z"/><path id="_Path_54" data-name="&lt;Path&gt;" class="cls-1" d="M117.55,176.48a.42.42,0,0,1,0,.79,1.51,1.51,0,0,1-1.37,0,.42.42,0,0,1,0-.79A1.51,1.51,0,0,1,117.55,176.48Z"/><path id="_Path_55" data-name="&lt;Path&gt;" class="cls-1" d="M121.13,174.42a.42.42,0,0,1,0,.79,1.51,1.51,0,0,1-1.37,0,.42.42,0,0,1,0-.79A1.51,1.51,0,0,1,121.13,174.42Z"/><path id="_Path_56" data-name="&lt;Path&gt;" class="cls-1" d="M124.71,172.35a.42.42,0,0,1,0,.79,1.52,1.52,0,0,1-1.37,0,.42.42,0,0,1,0-.79A1.51,1.51,0,0,1,124.71,172.35Z"/><path id="_Path_57" data-name="&lt;Path&gt;" class="cls-1" d="M96.05,184.76a.42.42,0,0,1,0,.79,1.51,1.51,0,0,1-1.37,0,.42.42,0,0,1,0-.79A1.51,1.51,0,0,1,96.05,184.76Z"/><path id="_Path_58" data-name="&lt;Path&gt;" class="cls-1" d="M99.63,182.69a.42.42,0,0,1,0,.79,1.51,1.51,0,0,1-1.37,0,.42.42,0,0,1,0-.79A1.51,1.51,0,0,1,99.63,182.69Z"/><path id="_Path_59" data-name="&lt;Path&gt;" class="cls-1" d="M103.22,180.62a.42.42,0,0,1,0,.79,1.51,1.51,0,0,1-1.37,0,.42.42,0,0,1,0-.79A1.51,1.51,0,0,1,103.22,180.62Z"/><path id="_Path_60" data-name="&lt;Path&gt;" class="cls-1" d="M106.8,178.55a.42.42,0,0,1,0,.79,1.52,1.52,0,0,1-1.37,0,.42.42,0,0,1,0-.79A1.51,1.51,0,0,1,106.8,178.55Z"/><path id="_Path_61" data-name="&lt;Path&gt;" class="cls-1" d="M110.38,176.48a.42.42,0,0,1,0,.79,1.51,1.51,0,0,1-1.37,0,.42.42,0,0,1,0-.79A1.51,1.51,0,0,1,110.38,176.48Z"/><path id="_Path_62" data-name="&lt;Path&gt;" class="cls-1" d="M114,174.42a.42.42,0,0,1,0,.79,1.51,1.51,0,0,1-1.37,0,.42.42,0,0,1,0-.79A1.51,1.51,0,0,1,114,174.42Z"/><path id="_Path_63" data-name="&lt;Path&gt;" class="cls-1" d="M117.55,172.35a.42.42,0,0,1,0,.79,1.51,1.51,0,0,1-1.37,0,.42.42,0,0,1,0-.79A1.51,1.51,0,0,1,117.55,172.35Z"/><path id="_Path_64" data-name="&lt;Path&gt;" class="cls-1" d="M121.13,170.28a.42.42,0,0,1,0,.79,1.52,1.52,0,0,1-1.37,0,.42.42,0,0,1,0-.79A1.51,1.51,0,0,1,121.13,170.28Z"/><path id="_Path_65" data-name="&lt;Path&gt;" class="cls-1" d="M92.47,182.69a.42.42,0,0,1,0,.79,1.51,1.51,0,0,1-1.37,0,.42.42,0,0,1,0-.79A1.52,1.52,0,0,1,92.47,182.69Z"/><path id="_Path_66" data-name="&lt;Path&gt;" class="cls-1" d="M96.05,180.62a.42.42,0,0,1,0,.79,1.51,1.51,0,0,1-1.37,0,.42.42,0,0,1,0-.79A1.51,1.51,0,0,1,96.05,180.62Z"/><path id="_Path_67" data-name="&lt;Path&gt;" class="cls-1" d="M99.63,178.55a.42.42,0,0,1,0,.79,1.51,1.51,0,0,1-1.37,0,.42.42,0,0,1,0-.79A1.51,1.51,0,0,1,99.63,178.55Z"/><path id="_Path_68" data-name="&lt;Path&gt;" class="cls-1" d="M103.22,176.48a.42.42,0,0,1,0,.79,1.51,1.51,0,0,1-1.37,0,.42.42,0,0,1,0-.79A1.51,1.51,0,0,1,103.22,176.48Z"/><path id="_Path_69" data-name="&lt;Path&gt;" class="cls-1" d="M106.8,174.42a.42.42,0,0,1,0,.79,1.52,1.52,0,0,1-1.37,0,.42.42,0,0,1,0-.79A1.51,1.51,0,0,1,106.8,174.42Z"/><path id="_Path_70" data-name="&lt;Path&gt;" class="cls-1" d="M110.38,172.35a.42.42,0,0,1,0,.79,1.51,1.51,0,0,1-1.37,0,.42.42,0,0,1,0-.79A1.51,1.51,0,0,1,110.38,172.35Z"/><path id="_Path_71" data-name="&lt;Path&gt;" class="cls-1" d="M114,170.28a.42.42,0,0,1,0,.79,1.51,1.51,0,0,1-1.37,0,.42.42,0,0,1,0-.79A1.51,1.51,0,0,1,114,170.28Z"/><path id="_Path_72" data-name="&lt;Path&gt;" class="cls-1" d="M117.55,168.21a.42.42,0,0,1,0,.79,1.51,1.51,0,0,1-1.37,0,.42.42,0,0,1,0-.79A1.52,1.52,0,0,1,117.55,168.21Z"/><path id="_Path_73" data-name="&lt;Path&gt;" class="cls-1" d="M88.89,180.62a.42.42,0,0,1,0,.79,1.51,1.51,0,0,1-1.37,0,.42.42,0,0,1,0-.79A1.51,1.51,0,0,1,88.89,180.62Z"/><path id="_Path_74" data-name="&lt;Path&gt;" class="cls-1" d="M92.47,178.55a.42.42,0,0,1,0,.79,1.51,1.51,0,0,1-1.37,0,.42.42,0,0,1,0-.79A1.51,1.51,0,0,1,92.47,178.55Z"/><path id="_Path_75" data-name="&lt;Path&gt;" class="cls-1" d="M96.05,176.48a.42.42,0,0,1,0,.79,1.51,1.51,0,0,1-1.37,0,.42.42,0,0,1,0-.79A1.51,1.51,0,0,1,96.05,176.48Z"/><path id="_Path_76" data-name="&lt;Path&gt;" class="cls-1" d="M99.63,174.42a.42.42,0,0,1,0,.79,1.51,1.51,0,0,1-1.37,0,.42.42,0,0,1,0-.79A1.51,1.51,0,0,1,99.63,174.42Z"/><path id="_Path_77" data-name="&lt;Path&gt;" class="cls-1" d="M103.22,172.35a.42.42,0,0,1,0,.79,1.51,1.51,0,0,1-1.37,0,.42.42,0,0,1,0-.79A1.51,1.51,0,0,1,103.22,172.35Z"/><path id="_Path_78" data-name="&lt;Path&gt;" class="cls-1" d="M106.8,170.28a.42.42,0,0,1,0,.79,1.51,1.51,0,0,1-1.37,0,.42.42,0,0,1,0-.79A1.51,1.51,0,0,1,106.8,170.28Z"/><path id="_Path_79" data-name="&lt;Path&gt;" class="cls-1" d="M110.38,168.21a.42.42,0,0,1,0,.79,1.51,1.51,0,0,1-1.37,0,.42.42,0,0,1,0-.79A1.51,1.51,0,0,1,110.38,168.21Z"/><path id="_Path_80" data-name="&lt;Path&gt;" class="cls-1" d="M114,166.14a.42.42,0,0,1,0,.79,1.51,1.51,0,0,1-1.37,0,.42.42,0,0,1,0-.79A1.51,1.51,0,0,1,114,166.14Z"/><path id="_Path_81" data-name="&lt;Path&gt;" class="cls-1" d="M85.3,178.55a.42.42,0,0,1,0,.79,1.51,1.51,0,0,1-1.37,0,.42.42,0,0,1,0-.79A1.51,1.51,0,0,1,85.3,178.55Z"/><path id="_Path_82" data-name="&lt;Path&gt;" class="cls-1" d="M88.89,176.48a.42.42,0,0,1,0,.79,1.51,1.51,0,0,1-1.37,0,.42.42,0,0,1,0-.79A1.51,1.51,0,0,1,88.89,176.48Z"/><path id="_Path_83" data-name="&lt;Path&gt;" class="cls-1" d="M92.47,174.42a.42.42,0,0,1,0,.79,1.52,1.52,0,0,1-1.37,0,.42.42,0,0,1,0-.79A1.51,1.51,0,0,1,92.47,174.42Z"/><path id="_Path_84" data-name="&lt;Path&gt;" class="cls-1" d="M96.05,172.35a.42.42,0,0,1,0,.79,1.51,1.51,0,0,1-1.37,0,.42.42,0,0,1,0-.79A1.51,1.51,0,0,1,96.05,172.35Z"/><path id="_Path_85" data-name="&lt;Path&gt;" class="cls-1" d="M99.63,170.28a.42.42,0,0,1,0,.79,1.51,1.51,0,0,1-1.37,0,.42.42,0,0,1,0-.79A1.51,1.51,0,0,1,99.63,170.28Z"/><path id="_Path_86" data-name="&lt;Path&gt;" class="cls-1" d="M103.22,168.21a.42.42,0,0,1,0,.79,1.51,1.51,0,0,1-1.37,0,.42.42,0,0,1,0-.79A1.51,1.51,0,0,1,103.22,168.21Z"/><path id="_Path_87" data-name="&lt;Path&gt;" class="cls-1" d="M106.8,166.14a.42.42,0,0,1,0,.79,1.51,1.51,0,0,1-1.37,0,.42.42,0,0,1,0-.79A1.51,1.51,0,0,1,106.8,166.14Z"/><path id="_Path_88" data-name="&lt;Path&gt;" class="cls-1" d="M110.38,164.07a.42.42,0,0,1,0,.79,1.51,1.51,0,0,1-1.37,0,.42.42,0,0,1,0-.79A1.51,1.51,0,0,1,110.38,164.07Z"/><path id="_Path_89" data-name="&lt;Path&gt;" class="cls-1" d="M81.72,176.48a.42.42,0,0,1,0,.79,1.51,1.51,0,0,1-1.37,0,.42.42,0,0,1,0-.79A1.51,1.51,0,0,1,81.72,176.48Z"/><path id="_Path_90" data-name="&lt;Path&gt;" class="cls-1" d="M85.3,174.42a.42.42,0,0,1,0,.79,1.52,1.52,0,0,1-1.37,0,.42.42,0,0,1,0-.79A1.51,1.51,0,0,1,85.3,174.42Z"/><path id="_Path_91" data-name="&lt;Path&gt;" class="cls-1" d="M88.89,172.35a.42.42,0,0,1,0,.79,1.51,1.51,0,0,1-1.37,0,.42.42,0,0,1,0-.79A1.51,1.51,0,0,1,88.89,172.35Z"/><path id="_Path_92" data-name="&lt;Path&gt;" class="cls-1" d="M92.47,170.28a.42.42,0,0,1,0,.79,1.51,1.51,0,0,1-1.37,0,.42.42,0,0,1,0-.79A1.52,1.52,0,0,1,92.47,170.28Z"/><path id="_Path_93" data-name="&lt;Path&gt;" class="cls-1" d="M96.05,168.21a.42.42,0,0,1,0,.79,1.51,1.51,0,0,1-1.37,0,.42.42,0,0,1,0-.79A1.51,1.51,0,0,1,96.05,168.21Z"/><path id="_Path_94" data-name="&lt;Path&gt;" class="cls-1" d="M99.63,166.14a.42.42,0,0,1,0,.79,1.51,1.51,0,0,1-1.37,0,.42.42,0,0,1,0-.79A1.51,1.51,0,0,1,99.63,166.14Z"/><path id="_Path_95" data-name="&lt;Path&gt;" class="cls-1" d="M103.22,164.07a.42.42,0,0,1,0,.79,1.51,1.51,0,0,1-1.37,0,.42.42,0,0,1,0-.79A1.51,1.51,0,0,1,103.22,164.07Z"/><path id="_Path_96" data-name="&lt;Path&gt;" class="cls-1" d="M106.8,162a.42.42,0,0,1,0,.79,1.52,1.52,0,0,1-1.37,0,.42.42,0,0,1,0-.79A1.52,1.52,0,0,1,106.8,162Z"/><path id="_Path_97" data-name="&lt;Path&gt;" class="cls-1" d="M78.14,174.42a.42.42,0,0,1,0,.79,1.52,1.52,0,0,1-1.37,0,.42.42,0,0,1,0-.79A1.51,1.51,0,0,1,78.14,174.42Z"/><path id="_Path_98" data-name="&lt;Path&gt;" class="cls-1" d="M81.72,172.35a.42.42,0,0,1,0,.79,1.51,1.51,0,0,1-1.37,0,.42.42,0,0,1,0-.79A1.51,1.51,0,0,1,81.72,172.35Z"/><path id="_Path_99" data-name="&lt;Path&gt;" class="cls-1" d="M85.3,170.28a.42.42,0,0,1,0,.79,1.51,1.51,0,0,1-1.37,0,.42.42,0,0,1,0-.79A1.52,1.52,0,0,1,85.3,170.28Z"/><path id="_Path_100" data-name="&lt;Path&gt;" class="cls-1" d="M88.89,168.21a.42.42,0,0,1,0,.79,1.51,1.51,0,0,1-1.37,0,.42.42,0,0,1,0-.79A1.51,1.51,0,0,1,88.89,168.21Z"/><path id="_Path_101" data-name="&lt;Path&gt;" class="cls-1" d="M92.47,166.14a.42.42,0,0,1,0,.79,1.51,1.51,0,0,1-1.37,0,.42.42,0,0,1,0-.79A1.51,1.51,0,0,1,92.47,166.14Z"/><path id="_Path_102" data-name="&lt;Path&gt;" class="cls-1" d="M96.05,164.07a.42.42,0,0,1,0,.79,1.51,1.51,0,0,1-1.37,0,.42.42,0,0,1,0-.79A1.51,1.51,0,0,1,96.05,164.07Z"/><path id="_Path_103" data-name="&lt;Path&gt;" class="cls-1" d="M99.63,162a.42.42,0,0,1,0,.79,1.52,1.52,0,0,1-1.37,0,.42.42,0,0,1,0-.79A1.52,1.52,0,0,1,99.63,162Z"/><path id="_Path_104" data-name="&lt;Path&gt;" class="cls-1" d="M103.22,159.94a.42.42,0,0,1,0,.79,1.52,1.52,0,0,1-1.37,0,.42.42,0,0,1,0-.79A1.51,1.51,0,0,1,103.22,159.94Z"/><path id="_Path_105" data-name="&lt;Path&gt;" class="cls-1" d="M74.52,172.33a.42.42,0,0,1,0,.79,1.52,1.52,0,0,1-1.37,0,.42.42,0,0,1,0-.79A1.52,1.52,0,0,1,74.52,172.33Z"/><path id="_Path_106" data-name="&lt;Path&gt;" class="cls-1" d="M78.11,170.26a.42.42,0,0,1,0,.79,1.51,1.51,0,0,1-1.37,0,.42.42,0,0,1,0-.79A1.51,1.51,0,0,1,78.11,170.26Z"/><path id="_Path_107" data-name="&lt;Path&gt;" class="cls-1" d="M81.69,168.19a.42.42,0,0,1,0,.79,1.51,1.51,0,0,1-1.37,0,.42.42,0,0,1,0-.79A1.51,1.51,0,0,1,81.69,168.19Z"/><path id="_Path_108" data-name="&lt;Path&gt;" class="cls-1" d="M85.27,166.12a.42.42,0,0,1,0,.79,1.52,1.52,0,0,1-1.37,0,.42.42,0,0,1,0-.79A1.51,1.51,0,0,1,85.27,166.12Z"/><path id="_Path_109" data-name="&lt;Path&gt;" class="cls-1" d="M88.85,164.05a.42.42,0,0,1,0,.79,1.51,1.51,0,0,1-1.37,0,.42.42,0,0,1,0-.79A1.51,1.51,0,0,1,88.85,164.05Z"/><path id="_Path_110" data-name="&lt;Path&gt;" class="cls-1" d="M92.44,162a.42.42,0,0,1,0,.79,1.51,1.51,0,0,1-1.37,0,.42.42,0,0,1,0-.79A1.51,1.51,0,0,1,92.44,162Z"/><path id="_Path_111" data-name="&lt;Path&gt;" class="cls-1" d="M96,159.92a.42.42,0,0,1,0,.79,1.51,1.51,0,0,1-1.37,0,.42.42,0,0,1,0-.79A1.52,1.52,0,0,1,96,159.92Z"/><path id="_Path_112" data-name="&lt;Path&gt;" class="cls-1" d="M99.6,157.85a.42.42,0,0,1,0,.79,1.51,1.51,0,0,1-1.37,0,.42.42,0,0,1,0-.79A1.52,1.52,0,0,1,99.6,157.85Z"/><path id="_Path_113" data-name="&lt;Path&gt;" class="cls-1" d="M70.94,170.26a.42.42,0,0,1,0,.79,1.51,1.51,0,0,1-1.37,0,.42.42,0,0,1,0-.79A1.51,1.51,0,0,1,70.94,170.26Z"/><path id="_Path_114" data-name="&lt;Path&gt;" class="cls-1" d="M74.52,168.19a.42.42,0,0,1,0,.79,1.51,1.51,0,0,1-1.37,0,.42.42,0,0,1,0-.79A1.51,1.51,0,0,1,74.52,168.19Z"/><path id="_Path_115" data-name="&lt;Path&gt;" class="cls-1" d="M78.11,166.12a.42.42,0,0,1,0,.79,1.52,1.52,0,0,1-1.37,0,.42.42,0,0,1,0-.79A1.51,1.51,0,0,1,78.11,166.12Z"/><path id="_Path_116" data-name="&lt;Path&gt;" class="cls-1" d="M81.69,164.05a.42.42,0,0,1,0,.79,1.52,1.52,0,0,1-1.37,0,.42.42,0,0,1,0-.79A1.51,1.51,0,0,1,81.69,164.05Z"/><path id="_Path_117" data-name="&lt;Path&gt;" class="cls-1" d="M85.27,162a.42.42,0,0,1,0,.79,1.51,1.51,0,0,1-1.37,0,.42.42,0,0,1,0-.79A1.51,1.51,0,0,1,85.27,162Z"/><path id="_Path_118" data-name="&lt;Path&gt;" class="cls-1" d="M88.85,159.92a.42.42,0,0,1,0,.79,1.51,1.51,0,0,1-1.37,0,.42.42,0,0,1,0-.79A1.52,1.52,0,0,1,88.85,159.92Z"/><path id="_Path_119" data-name="&lt;Path&gt;" class="cls-1" d="M92.44,157.85a.42.42,0,0,1,0,.79,1.51,1.51,0,0,1-1.37,0,.42.42,0,0,1,0-.79A1.51,1.51,0,0,1,92.44,157.85Z"/><path id="_Path_120" data-name="&lt;Path&gt;" class="cls-1" d="M96,155.78a.42.42,0,0,1,0,.79,1.51,1.51,0,0,1-1.37,0,.42.42,0,0,1,0-.79A1.51,1.51,0,0,1,96,155.78Z"/><path id="_Path_121" data-name="&lt;Path&gt;" class="cls-1" d="M70.94,166.12a.42.42,0,0,1,0,.79,1.51,1.51,0,0,1-1.37,0,.42.42,0,0,1,0-.79A1.51,1.51,0,0,1,70.94,166.12Z"/><path id="_Path_122" data-name="&lt;Path&gt;" class="cls-1" d="M74.52,164.05a.42.42,0,0,1,0,.79,1.52,1.52,0,0,1-1.37,0,.42.42,0,0,1,0-.79A1.51,1.51,0,0,1,74.52,164.05Z"/><path id="_Path_123" data-name="&lt;Path&gt;" class="cls-1" d="M78.11,162a.42.42,0,0,1,0,.79,1.51,1.51,0,0,1-1.37,0,.42.42,0,0,1,0-.79A1.52,1.52,0,0,1,78.11,162Z"/><path id="_Path_124" data-name="&lt;Path&gt;" class="cls-1" d="M81.69,159.92a.42.42,0,0,1,0,.79,1.51,1.51,0,0,1-1.37,0,.42.42,0,0,1,0-.79A1.51,1.51,0,0,1,81.69,159.92Z"/><path id="_Path_125" data-name="&lt;Path&gt;" class="cls-1" d="M85.27,157.85a.42.42,0,0,1,0,.79,1.51,1.51,0,0,1-1.37,0,.42.42,0,0,1,0-.79A1.51,1.51,0,0,1,85.27,157.85Z"/><path id="_Path_126" data-name="&lt;Path&gt;" class="cls-1" d="M88.85,155.78a.42.42,0,0,1,0,.79,1.51,1.51,0,0,1-1.37,0,.42.42,0,0,1,0-.79A1.51,1.51,0,0,1,88.85,155.78Z"/><path id="_Path_127" data-name="&lt;Path&gt;" class="cls-1" d="M132,201a.42.42,0,0,1,0,.79,1.52,1.52,0,0,1-1.37,0,.42.42,0,0,1,0-.79A1.51,1.51,0,0,1,132,201Z"/><path id="_Path_128" data-name="&lt;Path&gt;" class="cls-1" d="M135.63,198.93a.42.42,0,0,1,0,.79,1.51,1.51,0,0,1-1.37,0,.42.42,0,0,1,0-.79A1.51,1.51,0,0,1,135.63,198.93Z"/><path id="_Path_129" data-name="&lt;Path&gt;" class="cls-1" d="M139.21,196.86a.42.42,0,0,1,0,.79,1.52,1.52,0,0,1-1.37,0,.42.42,0,0,1,0-.79A1.51,1.51,0,0,1,139.21,196.86Z"/><path id="_Path_130" data-name="&lt;Path&gt;" class="cls-1" d="M142.8,194.79a.42.42,0,0,1,0,.79,1.51,1.51,0,0,1-1.37,0,.42.42,0,0,1,0-.79A1.51,1.51,0,0,1,142.8,194.79Z"/><path id="_Path_131" data-name="&lt;Path&gt;" class="cls-1" d="M146.38,192.72a.42.42,0,0,1,0,.79,1.51,1.51,0,0,1-1.37,0,.42.42,0,0,1,0-.79A1.51,1.51,0,0,1,146.38,192.72Z"/><path id="_Path_132" data-name="&lt;Path&gt;" class="cls-1" d="M124.88,201a.42.42,0,0,1,0,.79,1.51,1.51,0,0,1-1.37,0,.42.42,0,0,1,0-.79A1.51,1.51,0,0,1,124.88,201Z"/><path id="_Path_133" data-name="&lt;Path&gt;" class="cls-1" d="M128.46,198.93a.42.42,0,0,1,0,.79,1.51,1.51,0,0,1-1.37,0,.42.42,0,0,1,0-.79A1.51,1.51,0,0,1,128.46,198.93Z"/><path id="_Path_134" data-name="&lt;Path&gt;" class="cls-1" d="M132,196.86a.42.42,0,0,1,0,.79,1.52,1.52,0,0,1-1.37,0,.42.42,0,0,1,0-.79A1.51,1.51,0,0,1,132,196.86Z"/><path id="_Path_135" data-name="&lt;Path&gt;" class="cls-1" d="M135.63,194.79a.42.42,0,0,1,0,.79,1.51,1.51,0,0,1-1.37,0,.42.42,0,0,1,0-.79A1.51,1.51,0,0,1,135.63,194.79Z"/><path id="_Path_136" data-name="&lt;Path&gt;" class="cls-1" d="M139.21,192.72a.42.42,0,0,1,0,.79,1.51,1.51,0,0,1-1.37,0,.42.42,0,0,1,0-.79A1.52,1.52,0,0,1,139.21,192.72Z"/><path id="_Path_137" data-name="&lt;Path&gt;" class="cls-1" d="M142.8,190.65a.42.42,0,0,1,0,.79,1.51,1.51,0,0,1-1.37,0,.42.42,0,0,1,0-.79A1.51,1.51,0,0,1,142.8,190.65Z"/><path id="_Path_138" data-name="&lt;Path&gt;" class="cls-1" d="M146.38,188.59a.42.42,0,0,1,0,.79,1.51,1.51,0,0,1-1.37,0,.42.42,0,0,1,0-.79A1.51,1.51,0,0,1,146.38,188.59Z"/><path id="_Path_139" data-name="&lt;Path&gt;" class="cls-1" d="M149.82,186.86a.42.42,0,0,1,0,.79,1.52,1.52,0,0,1-1.37,0,.42.42,0,0,1,0-.79A1.52,1.52,0,0,1,149.82,186.86Z"/><path id="_Path_140" data-name="&lt;Path&gt;" class="cls-1" d="M142.71,186.83a.42.42,0,0,1,0,.79,1.51,1.51,0,0,1-1.37,0,.42.42,0,0,1,0-.79A1.52,1.52,0,0,1,142.71,186.83Z"/><path id="_Path_141" data-name="&lt;Path&gt;" class="cls-1" d="M146.29,184.76a.42.42,0,0,1,0,.79,1.52,1.52,0,0,1-1.37,0,.42.42,0,0,1,0-.79A1.52,1.52,0,0,1,146.29,184.76Z"/><path id="_Path_142" data-name="&lt;Path&gt;" class="cls-1" d="M149.87,182.69a.42.42,0,0,1,0,.79,1.52,1.52,0,0,1-1.37,0,.42.42,0,0,1,0-.79A1.51,1.51,0,0,1,149.87,182.69Z"/><path id="_Path_143" data-name="&lt;Path&gt;" class="cls-1" d="M146.43,188.57a.42.42,0,0,1,0,.79,1.51,1.51,0,0,1-1.37,0,.42.42,0,0,1,0-.79A1.51,1.51,0,0,1,146.43,188.57Z"/><path id="_Path_144" data-name="&lt;Path&gt;" class="cls-1" d="M153.45,184.77a.42.42,0,0,1,0,.79,1.52,1.52,0,0,1-1.37,0,.42.42,0,0,1,0-.79A1.52,1.52,0,0,1,153.45,184.77Z"/><path id="_Path_145" data-name="&lt;Path&gt;" class="cls-1" d="M150,190.67a.42.42,0,0,1,0,.79,1.51,1.51,0,0,1-1.37,0,.42.42,0,0,1,0-.79A1.51,1.51,0,0,1,150,190.67Z"/><path id="_Path_146" data-name="&lt;Path&gt;" class="cls-1" d="M153,188.71a.42.42,0,0,1,0,.79,1.51,1.51,0,0,1-1.37,0,.42.42,0,0,1,0-.79A1.51,1.51,0,0,1,153,188.71Z"/><path id="_Path_147" data-name="&lt;Path&gt;" class="cls-1" d="M156.47,186.6a.42.42,0,0,1,0,.79,1.51,1.51,0,0,1-1.37,0,.42.42,0,0,1,0-.79A1.51,1.51,0,0,1,156.47,186.6Z"/></g><g id="_Group_2" data-name="&lt;Group&gt;"><path id="_Path_148" data-name="&lt;Path&gt;" class="cls-1" d="M67.22,168.52a.42.42,0,0,1,0,.79,1.52,1.52,0,0,1-1.37,0,.42.42,0,0,1,0-.79A1.51,1.51,0,0,1,67.22,168.52Z"/><path id="_Path_149" data-name="&lt;Path&gt;" class="cls-1" d="M70.8,166.45a.42.42,0,0,1,0,.79,1.51,1.51,0,0,1-1.37,0,.42.42,0,0,1,0-.79A1.52,1.52,0,0,1,70.8,166.45Z"/><path id="_Path_150" data-name="&lt;Path&gt;" class="cls-1" d="M74.38,164.38a.42.42,0,0,1,0,.79,1.51,1.51,0,0,1-1.37,0,.42.42,0,0,1,0-.79A1.51,1.51,0,0,1,74.38,164.38Z"/><path id="_Path_151" data-name="&lt;Path&gt;" class="cls-1" d="M78,162.31a.42.42,0,0,1,0,.79,1.51,1.51,0,0,1-1.37,0,.42.42,0,0,1,0-.79A1.51,1.51,0,0,1,78,162.31Z"/><path id="_Path_152" data-name="&lt;Path&gt;" class="cls-1" d="M81.55,160.25a.42.42,0,0,1,0,.79,1.51,1.51,0,0,1-1.37,0,.42.42,0,0,1,0-.79A1.51,1.51,0,0,1,81.55,160.25Z"/><path id="_Path_153" data-name="&lt;Path&gt;" class="cls-1" d="M85.13,158.18a.42.42,0,0,1,0,.79,1.51,1.51,0,0,1-1.37,0,.42.42,0,0,1,0-.79A1.52,1.52,0,0,1,85.13,158.18Z"/><path id="_Path_154" data-name="&lt;Path&gt;" class="cls-1" d="M88.71,156.11a.42.42,0,0,1,0,.79,1.52,1.52,0,0,1-1.37,0,.42.42,0,0,1,0-.79A1.52,1.52,0,0,1,88.71,156.11Z"/><path id="_Path_155" data-name="&lt;Path&gt;" class="cls-1" d="M92.3,154a.42.42,0,0,1,0,.79,1.52,1.52,0,0,1-1.37,0,.42.42,0,0,1,0-.79A1.51,1.51,0,0,1,92.3,154Z"/><path id="_Path_156" data-name="&lt;Path&gt;" class="cls-1" d="M63.64,166.45a.42.42,0,0,1,0,.79,1.51,1.51,0,0,1-1.37,0,.42.42,0,0,1,0-.79A1.52,1.52,0,0,1,63.64,166.45Z"/><path id="_Path_157" data-name="&lt;Path&gt;" class="cls-1" d="M67.22,164.38a.42.42,0,0,1,0,.79,1.51,1.51,0,0,1-1.37,0,.42.42,0,0,1,0-.79A1.52,1.52,0,0,1,67.22,164.38Z"/><path id="_Path_158" data-name="&lt;Path&gt;" class="cls-1" d="M70.8,162.31a.42.42,0,0,1,0,.79,1.51,1.51,0,0,1-1.37,0,.42.42,0,0,1,0-.79A1.51,1.51,0,0,1,70.8,162.31Z"/><path id="_Path_159" data-name="&lt;Path&gt;" class="cls-1" d="M74.38,160.25a.42.42,0,0,1,0,.79A1.51,1.51,0,0,1,73,161a.42.42,0,0,1,0-.79A1.51,1.51,0,0,1,74.38,160.25Z"/><path id="_Path_160" data-name="&lt;Path&gt;" class="cls-1" d="M78,158.18a.42.42,0,0,1,0,.79,1.51,1.51,0,0,1-1.37,0,.42.42,0,0,1,0-.79A1.52,1.52,0,0,1,78,158.18Z"/><path id="_Path_161" data-name="&lt;Path&gt;" class="cls-1" d="M81.55,156.11a.42.42,0,0,1,0,.79,1.52,1.52,0,0,1-1.37,0,.42.42,0,0,1,0-.79A1.51,1.51,0,0,1,81.55,156.11Z"/><path id="_Path_162" data-name="&lt;Path&gt;" class="cls-1" d="M85.13,154a.42.42,0,0,1,0,.79,1.51,1.51,0,0,1-1.37,0,.42.42,0,0,1,0-.79A1.51,1.51,0,0,1,85.13,154Z"/><path id="_Path_163" data-name="&lt;Path&gt;" class="cls-1" d="M88.71,152a.42.42,0,0,1,0,.79,1.51,1.51,0,0,1-1.37,0,.42.42,0,0,1,0-.79A1.51,1.51,0,0,1,88.71,152Z"/><path id="_Path_164" data-name="&lt;Path&gt;" class="cls-1" d="M60.05,164.38a.42.42,0,0,1,0,.79,1.51,1.51,0,0,1-1.37,0,.42.42,0,0,1,0-.79A1.52,1.52,0,0,1,60.05,164.38Z"/><path id="_Path_165" data-name="&lt;Path&gt;" class="cls-1" d="M63.64,162.31a.42.42,0,0,1,0,.79,1.51,1.51,0,0,1-1.37,0,.42.42,0,0,1,0-.79A1.51,1.51,0,0,1,63.64,162.31Z"/><path id="_Path_166" data-name="&lt;Path&gt;" class="cls-1" d="M67.22,160.25a.42.42,0,0,1,0,.79,1.51,1.51,0,0,1-1.37,0,.42.42,0,0,1,0-.79A1.51,1.51,0,0,1,67.22,160.25Z"/><path id="_Path_167" data-name="&lt;Path&gt;" class="cls-1" d="M70.8,158.18a.42.42,0,0,1,0,.79,1.52,1.52,0,0,1-1.37,0,.42.42,0,0,1,0-.79A1.52,1.52,0,0,1,70.8,158.18Z"/><path id="_Path_168" data-name="&lt;Path&gt;" class="cls-1" d="M74.38,156.11a.42.42,0,0,1,0,.79,1.52,1.52,0,0,1-1.37,0,.42.42,0,0,1,0-.79A1.51,1.51,0,0,1,74.38,156.11Z"/><path id="_Path_169" data-name="&lt;Path&gt;" class="cls-1" d="M78,154a.42.42,0,0,1,0,.79,1.51,1.51,0,0,1-1.37,0,.42.42,0,0,1,0-.79A1.51,1.51,0,0,1,78,154Z"/><path id="_Path_170" data-name="&lt;Path&gt;" class="cls-1" d="M81.55,152a.42.42,0,0,1,0,.79,1.51,1.51,0,0,1-1.37,0,.42.42,0,0,1,0-.79A1.51,1.51,0,0,1,81.55,152Z"/><path id="_Path_171" data-name="&lt;Path&gt;" class="cls-1" d="M85.13,149.9a.42.42,0,0,1,0,.79,1.52,1.52,0,0,1-1.37,0,.42.42,0,0,1,0-.79A1.51,1.51,0,0,1,85.13,149.9Z"/><path id="_Path_172" data-name="&lt;Path&gt;" class="cls-1" d="M56.47,162.31a.42.42,0,0,1,0,.79,1.51,1.51,0,0,1-1.37,0,.42.42,0,0,1,0-.79A1.51,1.51,0,0,1,56.47,162.31Z"/><path id="_Path_173" data-name="&lt;Path&gt;" class="cls-1" d="M60.05,160.25a.42.42,0,0,1,0,.79,1.51,1.51,0,0,1-1.37,0,.42.42,0,0,1,0-.79A1.52,1.52,0,0,1,60.05,160.25Z"/><path id="_Path_174" data-name="&lt;Path&gt;" class="cls-1" d="M63.64,158.18a.42.42,0,0,1,0,.79,1.52,1.52,0,0,1-1.37,0,.42.42,0,0,1,0-.79A1.52,1.52,0,0,1,63.64,158.18Z"/><path id="_Path_175" data-name="&lt;Path&gt;" class="cls-1" d="M67.22,156.11a.42.42,0,0,1,0,.79,1.51,1.51,0,0,1-1.37,0,.42.42,0,0,1,0-.79A1.51,1.51,0,0,1,67.22,156.11Z"/><path id="_Path_176" data-name="&lt;Path&gt;" class="cls-1" d="M70.8,154a.42.42,0,0,1,0,.79,1.51,1.51,0,0,1-1.37,0,.42.42,0,0,1,0-.79A1.51,1.51,0,0,1,70.8,154Z"/><path id="_Path_177" data-name="&lt;Path&gt;" class="cls-1" d="M74.38,152a.42.42,0,0,1,0,.79,1.52,1.52,0,0,1-1.37,0,.42.42,0,0,1,0-.79A1.51,1.51,0,0,1,74.38,152Z"/><path id="_Path_178" data-name="&lt;Path&gt;" class="cls-1" d="M78,149.9a.42.42,0,0,1,0,.79,1.52,1.52,0,0,1-1.37,0,.42.42,0,0,1,0-.79A1.51,1.51,0,0,1,78,149.9Z"/><path id="_Path_179" data-name="&lt;Path&gt;" class="cls-1" d="M81.55,147.84a.42.42,0,0,1,0,.79,1.51,1.51,0,0,1-1.37,0,.42.42,0,0,1,0-.79A1.51,1.51,0,0,1,81.55,147.84Z"/><path id="_Path_180" data-name="&lt;Path&gt;" class="cls-1" d="M52.89,160.25a.42.42,0,0,1,0,.79,1.52,1.52,0,0,1-1.37,0,.42.42,0,0,1,0-.79A1.52,1.52,0,0,1,52.89,160.25Z"/><path id="_Path_181" data-name="&lt;Path&gt;" class="cls-1" d="M56.47,158.18a.42.42,0,0,1,0,.79,1.52,1.52,0,0,1-1.37,0,.42.42,0,0,1,0-.79A1.51,1.51,0,0,1,56.47,158.18Z"/><path id="_Path_182" data-name="&lt;Path&gt;" class="cls-1" d="M60.05,156.11a.42.42,0,0,1,0,.79,1.51,1.51,0,0,1-1.37,0,.42.42,0,0,1,0-.79A1.51,1.51,0,0,1,60.05,156.11Z"/><path id="_Path_183" data-name="&lt;Path&gt;" class="cls-1" d="M63.64,154a.42.42,0,0,1,0,.79,1.51,1.51,0,0,1-1.37,0,.42.42,0,0,1,0-.79A1.51,1.51,0,0,1,63.64,154Z"/><path id="_Path_184" data-name="&lt;Path&gt;" class="cls-1" d="M67.22,152a.42.42,0,0,1,0,.79,1.51,1.51,0,0,1-1.37,0,.42.42,0,0,1,0-.79A1.51,1.51,0,0,1,67.22,152Z"/><path id="_Path_185" data-name="&lt;Path&gt;" class="cls-1" d="M70.8,149.9a.42.42,0,0,1,0,.79,1.51,1.51,0,0,1-1.37,0,.42.42,0,0,1,0-.79A1.51,1.51,0,0,1,70.8,149.9Z"/><path id="_Path_186" data-name="&lt;Path&gt;" class="cls-1" d="M74.38,147.84a.42.42,0,0,1,0,.79,1.51,1.51,0,0,1-1.37,0,.42.42,0,0,1,0-.79A1.52,1.52,0,0,1,74.38,147.84Z"/><path id="_Path_187" data-name="&lt;Path&gt;" class="cls-1" d="M78,145.77a.42.42,0,0,1,0,.79,1.51,1.51,0,0,1-1.37,0,.42.42,0,0,1,0-.79A1.52,1.52,0,0,1,78,145.77Z"/><path id="_Path_188" data-name="&lt;Path&gt;" class="cls-1" d="M49.27,158.16a.42.42,0,0,1,0,.79,1.51,1.51,0,0,1-1.37,0,.42.42,0,0,1,0-.79A1.52,1.52,0,0,1,49.27,158.16Z"/><path id="_Path_189" data-name="&lt;Path&gt;" class="cls-1" d="M52.86,156.09a.42.42,0,0,1,0,.79,1.51,1.51,0,0,1-1.37,0,.42.42,0,0,1,0-.79A1.52,1.52,0,0,1,52.86,156.09Z"/><path id="_Path_190" data-name="&lt;Path&gt;" class="cls-1" d="M56.44,154a.42.42,0,0,1,0,.79,1.51,1.51,0,0,1-1.37,0,.42.42,0,0,1,0-.79A1.51,1.51,0,0,1,56.44,154Z"/><path id="_Path_191" data-name="&lt;Path&gt;" class="cls-1" d="M60,152a.42.42,0,0,1,0,.79,1.51,1.51,0,0,1-1.37,0,.42.42,0,0,1,0-.79A1.51,1.51,0,0,1,60,152Z"/><path id="_Path_192" data-name="&lt;Path&gt;" class="cls-1" d="M63.61,149.88a.42.42,0,0,1,0,.79,1.51,1.51,0,0,1-1.37,0,.42.42,0,0,1,0-.79A1.51,1.51,0,0,1,63.61,149.88Z"/><path id="_Path_193" data-name="&lt;Path&gt;" class="cls-1" d="M67.19,147.81a.42.42,0,0,1,0,.79,1.52,1.52,0,0,1-1.37,0,.42.42,0,0,1,0-.79A1.52,1.52,0,0,1,67.19,147.81Z"/><path id="_Path_194" data-name="&lt;Path&gt;" class="cls-1" d="M70.77,145.75a.42.42,0,0,1,0,.79,1.52,1.52,0,0,1-1.37,0,.42.42,0,0,1,0-.79A1.51,1.51,0,0,1,70.77,145.75Z"/><path id="_Path_195" data-name="&lt;Path&gt;" class="cls-1" d="M74.35,143.68a.42.42,0,0,1,0,.79,1.51,1.51,0,0,1-1.37,0,.42.42,0,0,1,0-.79A1.51,1.51,0,0,1,74.35,143.68Z"/><path id="_Path_196" data-name="&lt;Path&gt;" class="cls-1" d="M45.69,156.09a.42.42,0,0,1,0,.79,1.51,1.51,0,0,1-1.37,0,.42.42,0,0,1,0-.79A1.51,1.51,0,0,1,45.69,156.09Z"/><path id="_Path_197" data-name="&lt;Path&gt;" class="cls-1" d="M49.27,154a.42.42,0,0,1,0,.79,1.51,1.51,0,0,1-1.37,0,.42.42,0,0,1,0-.79A1.51,1.51,0,0,1,49.27,154Z"/><path id="_Path_198" data-name="&lt;Path&gt;" class="cls-1" d="M52.86,152a.42.42,0,0,1,0,.79,1.51,1.51,0,0,1-1.37,0,.42.42,0,0,1,0-.79A1.51,1.51,0,0,1,52.86,152Z"/><path id="_Path_199" data-name="&lt;Path&gt;" class="cls-1" d="M56.44,149.88a.42.42,0,0,1,0,.79,1.51,1.51,0,0,1-1.37,0,.42.42,0,0,1,0-.79A1.51,1.51,0,0,1,56.44,149.88Z"/><path id="_Path_200" data-name="&lt;Path&gt;" class="cls-1" d="M60,147.81a.42.42,0,0,1,0,.79,1.52,1.52,0,0,1-1.37,0,.42.42,0,0,1,0-.79A1.51,1.51,0,0,1,60,147.81Z"/><path id="_Path_201" data-name="&lt;Path&gt;" class="cls-1" d="M63.61,145.75a.42.42,0,0,1,0,.79,1.51,1.51,0,0,1-1.37,0,.42.42,0,0,1,0-.79A1.51,1.51,0,0,1,63.61,145.75Z"/><path id="_Path_202" data-name="&lt;Path&gt;" class="cls-1" d="M67.19,143.68a.42.42,0,0,1,0,.79,1.51,1.51,0,0,1-1.37,0,.42.42,0,0,1,0-.79A1.51,1.51,0,0,1,67.19,143.68Z"/><path id="_Path_203" data-name="&lt;Path&gt;" class="cls-1" d="M70.77,141.61a.42.42,0,0,1,0,.79,1.52,1.52,0,0,1-1.37,0,.42.42,0,0,1,0-.79A1.51,1.51,0,0,1,70.77,141.61Z"/><path id="_Path_204" data-name="&lt;Path&gt;" class="cls-1" d="M42.11,154a.42.42,0,0,1,0,.79,1.51,1.51,0,0,1-1.37,0,.42.42,0,0,1,0-.79A1.51,1.51,0,0,1,42.11,154Z"/><path id="_Path_205" data-name="&lt;Path&gt;" class="cls-1" d="M45.69,152a.42.42,0,0,1,0,.79,1.51,1.51,0,0,1-1.37,0,.42.42,0,0,1,0-.79A1.51,1.51,0,0,1,45.69,152Z"/><path id="_Path_206" data-name="&lt;Path&gt;" class="cls-1" d="M49.27,149.88a.42.42,0,0,1,0,.79,1.51,1.51,0,0,1-1.37,0,.42.42,0,0,1,0-.79A1.51,1.51,0,0,1,49.27,149.88Z"/><path id="_Path_207" data-name="&lt;Path&gt;" class="cls-1" d="M52.86,147.81a.42.42,0,0,1,0,.79,1.52,1.52,0,0,1-1.37,0,.42.42,0,0,1,0-.79A1.51,1.51,0,0,1,52.86,147.81Z"/><path id="_Path_208" data-name="&lt;Path&gt;" class="cls-1" d="M56.44,145.75a.42.42,0,0,1,0,.79,1.51,1.51,0,0,1-1.37,0,.42.42,0,0,1,0-.79A1.51,1.51,0,0,1,56.44,145.75Z"/><path id="_Path_209" data-name="&lt;Path&gt;" class="cls-1" d="M60,143.68a.42.42,0,0,1,0,.79,1.51,1.51,0,0,1-1.37,0,.42.42,0,0,1,0-.79A1.51,1.51,0,0,1,60,143.68Z"/><path id="_Path_210" data-name="&lt;Path&gt;" class="cls-1" d="M63.61,141.61a.42.42,0,0,1,0,.79,1.51,1.51,0,0,1-1.37,0,.42.42,0,0,1,0-.79A1.51,1.51,0,0,1,63.61,141.61Z"/><path id="_Path_211" data-name="&lt;Path&gt;" class="cls-1" d="M67.19,139.54a.42.42,0,0,1,0,.79,1.52,1.52,0,0,1-1.37,0,.42.42,0,0,1,0-.79A1.51,1.51,0,0,1,67.19,139.54Z"/><path id="_Path_212" data-name="&lt;Path&gt;" class="cls-1" d="M38.53,152a.42.42,0,0,1,0,.79,1.51,1.51,0,0,1-1.37,0,.42.42,0,0,1,0-.79A1.52,1.52,0,0,1,38.53,152Z"/><path id="_Path_213" data-name="&lt;Path&gt;" class="cls-1" d="M42.11,149.88a.42.42,0,0,1,0,.79,1.51,1.51,0,0,1-1.37,0,.42.42,0,0,1,0-.79A1.51,1.51,0,0,1,42.11,149.88Z"/><path id="_Path_214" data-name="&lt;Path&gt;" class="cls-1" d="M45.69,147.81a.42.42,0,0,1,0,.79,1.51,1.51,0,0,1-1.37,0,.42.42,0,0,1,0-.79A1.51,1.51,0,0,1,45.69,147.81Z"/><path id="_Path_215" data-name="&lt;Path&gt;" class="cls-1" d="M49.27,145.75a.42.42,0,0,1,0,.79,1.51,1.51,0,0,1-1.37,0,.42.42,0,0,1,0-.79A1.51,1.51,0,0,1,49.27,145.75Z"/><path id="_Path_216" data-name="&lt;Path&gt;" class="cls-1" d="M52.86,143.68a.42.42,0,0,1,0,.79,1.52,1.52,0,0,1-1.37,0,.42.42,0,0,1,0-.79A1.51,1.51,0,0,1,52.86,143.68Z"/><path id="_Path_217" data-name="&lt;Path&gt;" class="cls-1" d="M56.44,141.61a.42.42,0,0,1,0,.79,1.51,1.51,0,0,1-1.37,0,.42.42,0,0,1,0-.79A1.51,1.51,0,0,1,56.44,141.61Z"/><path id="_Path_218" data-name="&lt;Path&gt;" class="cls-1" d="M60,139.54a.42.42,0,0,1,0,.79,1.51,1.51,0,0,1-1.37,0,.42.42,0,0,1,0-.79A1.51,1.51,0,0,1,60,139.54Z"/><path id="_Path_219" data-name="&lt;Path&gt;" class="cls-1" d="M63.61,137.47a.42.42,0,0,1,0,.79,1.51,1.51,0,0,1-1.37,0,.42.42,0,0,1,0-.79A1.52,1.52,0,0,1,63.61,137.47Z"/><path id="_Path_220" data-name="&lt;Path&gt;" class="cls-1" d="M34.94,149.88a.42.42,0,0,1,0,.79,1.51,1.51,0,0,1-1.37,0,.42.42,0,0,1,0-.79A1.51,1.51,0,0,1,34.94,149.88Z"/><path id="_Path_221" data-name="&lt;Path&gt;" class="cls-1" d="M38.53,147.81a.42.42,0,0,1,0,.79,1.51,1.51,0,0,1-1.37,0,.42.42,0,0,1,0-.79A1.51,1.51,0,0,1,38.53,147.81Z"/><path id="_Path_222" data-name="&lt;Path&gt;" class="cls-1" d="M42.11,145.75a.42.42,0,0,1,0,.79,1.51,1.51,0,0,1-1.37,0,.42.42,0,0,1,0-.79A1.51,1.51,0,0,1,42.11,145.75Z"/><path id="_Path_223" data-name="&lt;Path&gt;" class="cls-1" d="M45.69,143.68a.42.42,0,0,1,0,.79,1.51,1.51,0,0,1-1.37,0,.42.42,0,0,1,0-.79A1.51,1.51,0,0,1,45.69,143.68Z"/><path id="_Path_224" data-name="&lt;Path&gt;" class="cls-1" d="M49.27,141.61a.42.42,0,0,1,0,.79,1.51,1.51,0,0,1-1.37,0,.42.42,0,0,1,0-.79A1.51,1.51,0,0,1,49.27,141.61Z"/><path id="_Path_225" data-name="&lt;Path&gt;" class="cls-1" d="M52.86,139.54a.42.42,0,0,1,0,.79,1.51,1.51,0,0,1-1.37,0,.42.42,0,0,1,0-.79A1.51,1.51,0,0,1,52.86,139.54Z"/><path id="_Path_226" data-name="&lt;Path&gt;" class="cls-1" d="M56.44,137.47a.42.42,0,0,1,0,.79,1.51,1.51,0,0,1-1.37,0,.42.42,0,0,1,0-.79A1.51,1.51,0,0,1,56.44,137.47Z"/><path id="_Path_227" data-name="&lt;Path&gt;" class="cls-1" d="M60,135.4a.42.42,0,0,1,0,.79,1.51,1.51,0,0,1-1.37,0,.42.42,0,0,1,0-.79A1.51,1.51,0,0,1,60,135.4Z"/><path id="_Path_228" data-name="&lt;Path&gt;" class="cls-1" d="M31.36,147.81a.42.42,0,0,1,0,.79,1.51,1.51,0,0,1-1.37,0,.42.42,0,0,1,0-.79A1.51,1.51,0,0,1,31.36,147.81Z"/><path id="_Path_229" data-name="&lt;Path&gt;" class="cls-1" d="M34.94,145.75a.42.42,0,0,1,0,.79,1.51,1.51,0,0,1-1.37,0,.42.42,0,0,1,0-.79A1.51,1.51,0,0,1,34.94,145.75Z"/><path id="_Path_230" data-name="&lt;Path&gt;" class="cls-1" d="M38.53,143.68a.42.42,0,0,1,0,.79,1.52,1.52,0,0,1-1.37,0,.42.42,0,0,1,0-.79A1.51,1.51,0,0,1,38.53,143.68Z"/><path id="_Path_231" data-name="&lt;Path&gt;" class="cls-1" d="M42.11,141.61a.42.42,0,0,1,0,.79,1.51,1.51,0,0,1-1.37,0,.42.42,0,0,1,0-.79A1.51,1.51,0,0,1,42.11,141.61Z"/><path id="_Path_232" data-name="&lt;Path&gt;" class="cls-1" d="M45.69,139.54a.42.42,0,0,1,0,.79,1.51,1.51,0,0,1-1.37,0,.42.42,0,0,1,0-.79A1.51,1.51,0,0,1,45.69,139.54Z"/><path id="_Path_233" data-name="&lt;Path&gt;" class="cls-1" d="M49.27,137.47a.42.42,0,0,1,0,.79,1.51,1.51,0,0,1-1.37,0,.42.42,0,0,1,0-.79A1.51,1.51,0,0,1,49.27,137.47Z"/><path id="_Path_234" data-name="&lt;Path&gt;" class="cls-1" d="M52.86,135.4a.42.42,0,0,1,0,.79,1.51,1.51,0,0,1-1.37,0,.42.42,0,0,1,0-.79A1.51,1.51,0,0,1,52.86,135.4Z"/><path id="_Path_235" data-name="&lt;Path&gt;" class="cls-1" d="M56.44,133.34a.42.42,0,0,1,0,.79,1.51,1.51,0,0,1-1.37,0,.42.42,0,0,1,0-.79A1.51,1.51,0,0,1,56.44,133.34Z"/><path id="_Path_236" data-name="&lt;Path&gt;" class="cls-1" d="M27.78,145.75a.42.42,0,0,1,0,.79,1.51,1.51,0,0,1-1.37,0,.42.42,0,0,1,0-.79A1.51,1.51,0,0,1,27.78,145.75Z"/><path id="_Path_237" data-name="&lt;Path&gt;" class="cls-1" d="M31.36,143.68a.42.42,0,0,1,0,.79,1.52,1.52,0,0,1-1.37,0,.42.42,0,0,1,0-.79A1.51,1.51,0,0,1,31.36,143.68Z"/><path id="_Path_238" data-name="&lt;Path&gt;" class="cls-1" d="M34.94,141.61a.42.42,0,0,1,0,.79,1.51,1.51,0,0,1-1.37,0,.42.42,0,0,1,0-.79A1.51,1.51,0,0,1,34.94,141.61Z"/><path id="_Path_239" data-name="&lt;Path&gt;" class="cls-1" d="M38.53,139.54a.42.42,0,0,1,0,.79,1.51,1.51,0,0,1-1.37,0,.42.42,0,0,1,0-.79A1.52,1.52,0,0,1,38.53,139.54Z"/><path id="_Path_240" data-name="&lt;Path&gt;" class="cls-1" d="M42.11,137.47a.42.42,0,0,1,0,.79,1.51,1.51,0,0,1-1.37,0,.42.42,0,0,1,0-.79A1.51,1.51,0,0,1,42.11,137.47Z"/><path id="_Path_241" data-name="&lt;Path&gt;" class="cls-1" d="M45.69,135.4a.42.42,0,0,1,0,.79,1.51,1.51,0,0,1-1.37,0,.42.42,0,0,1,0-.79A1.51,1.51,0,0,1,45.69,135.4Z"/><path id="_Path_242" data-name="&lt;Path&gt;" class="cls-1" d="M49.27,133.34a.42.42,0,0,1,0,.79,1.51,1.51,0,0,1-1.37,0,.42.42,0,0,1,0-.79A1.51,1.51,0,0,1,49.27,133.34Z"/><path id="_Path_243" data-name="&lt;Path&gt;" class="cls-1" d="M52.86,131.27a.42.42,0,0,1,0,.79,1.52,1.52,0,0,1-1.37,0,.42.42,0,0,1,0-.79A1.52,1.52,0,0,1,52.86,131.27Z"/><path id="_Path_244" data-name="&lt;Path&gt;" class="cls-1" d="M24.2,143.68a.42.42,0,0,1,0,.79,1.52,1.52,0,0,1-1.37,0,.42.42,0,0,1,0-.79A1.51,1.51,0,0,1,24.2,143.68Z"/><path id="_Path_245" data-name="&lt;Path&gt;" class="cls-1" d="M27.78,141.61a.42.42,0,0,1,0,.79,1.51,1.51,0,0,1-1.37,0,.42.42,0,0,1,0-.79A1.51,1.51,0,0,1,27.78,141.61Z"/><path id="_Path_246" data-name="&lt;Path&gt;" class="cls-1" d="M31.36,139.54a.42.42,0,0,1,0,.79,1.51,1.51,0,0,1-1.37,0,.42.42,0,0,1,0-.79A1.52,1.52,0,0,1,31.36,139.54Z"/><path id="_Path_247" data-name="&lt;Path&gt;" class="cls-1" d="M34.94,137.47a.42.42,0,0,1,0,.79,1.51,1.51,0,0,1-1.37,0,.42.42,0,0,1,0-.79A1.51,1.51,0,0,1,34.94,137.47Z"/><path id="_Path_248" data-name="&lt;Path&gt;" class="cls-1" d="M38.53,135.4a.42.42,0,0,1,0,.79,1.51,1.51,0,0,1-1.37,0,.42.42,0,0,1,0-.79A1.51,1.51,0,0,1,38.53,135.4Z"/><path id="_Path_249" data-name="&lt;Path&gt;" class="cls-1" d="M42.11,133.34a.42.42,0,0,1,0,.79,1.51,1.51,0,0,1-1.37,0,.42.42,0,0,1,0-.79A1.51,1.51,0,0,1,42.11,133.34Z"/><path id="_Path_250" data-name="&lt;Path&gt;" class="cls-1" d="M45.69,131.27a.42.42,0,0,1,0,.79,1.52,1.52,0,0,1-1.37,0,.42.42,0,0,1,0-.79A1.52,1.52,0,0,1,45.69,131.27Z"/><path id="_Path_251" data-name="&lt;Path&gt;" class="cls-1" d="M49.28,129.2a.42.42,0,0,1,0,.79,1.52,1.52,0,0,1-1.37,0,.42.42,0,0,1,0-.79A1.51,1.51,0,0,1,49.28,129.2Z"/><path id="_Path_252" data-name="&lt;Path&gt;" class="cls-1" d="M20.58,141.59a.42.42,0,0,1,0,.79,1.52,1.52,0,0,1-1.37,0,.42.42,0,0,1,0-.79A1.52,1.52,0,0,1,20.58,141.59Z"/><path id="_Path_253" data-name="&lt;Path&gt;" class="cls-1" d="M24.17,139.52a.42.42,0,0,1,0,.79,1.51,1.51,0,0,1-1.37,0,.42.42,0,0,1,0-.79A1.51,1.51,0,0,1,24.17,139.52Z"/><path id="_Path_254" data-name="&lt;Path&gt;" class="cls-1" d="M27.75,137.45a.42.42,0,0,1,0,.79,1.51,1.51,0,0,1-1.37,0,.42.42,0,0,1,0-.79A1.51,1.51,0,0,1,27.75,137.45Z"/><path id="_Path_255" data-name="&lt;Path&gt;" class="cls-1" d="M31.33,135.38a.42.42,0,0,1,0,.79,1.52,1.52,0,0,1-1.37,0,.42.42,0,0,1,0-.79A1.51,1.51,0,0,1,31.33,135.38Z"/><path id="_Path_256" data-name="&lt;Path&gt;" class="cls-1" d="M34.91,133.31a.42.42,0,0,1,0,.79,1.51,1.51,0,0,1-1.37,0,.42.42,0,0,1,0-.79A1.51,1.51,0,0,1,34.91,133.31Z"/><path id="_Path_257" data-name="&lt;Path&gt;" class="cls-1" d="M38.5,131.25a.42.42,0,0,1,0,.79,1.51,1.51,0,0,1-1.37,0,.42.42,0,0,1,0-.79A1.51,1.51,0,0,1,38.5,131.25Z"/><path id="_Path_258" data-name="&lt;Path&gt;" class="cls-1" d="M42.08,129.18a.42.42,0,0,1,0,.79,1.51,1.51,0,0,1-1.37,0,.42.42,0,0,1,0-.79A1.52,1.52,0,0,1,42.08,129.18Z"/><path id="_Path_259" data-name="&lt;Path&gt;" class="cls-1" d="M45.66,127.11a.42.42,0,0,1,0,.79,1.51,1.51,0,0,1-1.37,0,.42.42,0,0,1,0-.79A1.52,1.52,0,0,1,45.66,127.11Z"/><path id="_Path_260" data-name="&lt;Path&gt;" class="cls-1" d="M17,139.52a.42.42,0,0,1,0,.79,1.51,1.51,0,0,1-1.37,0,.42.42,0,0,1,0-.79A1.51,1.51,0,0,1,17,139.52Z"/><path id="_Path_261" data-name="&lt;Path&gt;" class="cls-1" d="M20.58,137.45a.42.42,0,0,1,0,.79,1.51,1.51,0,0,1-1.37,0,.42.42,0,0,1,0-.79A1.51,1.51,0,0,1,20.58,137.45Z"/><path id="_Path_262" data-name="&lt;Path&gt;" class="cls-1" d="M24.17,135.38a.42.42,0,0,1,0,.79,1.52,1.52,0,0,1-1.37,0,.42.42,0,0,1,0-.79A1.51,1.51,0,0,1,24.17,135.38Z"/><path id="_Path_263" data-name="&lt;Path&gt;" class="cls-1" d="M27.75,133.31a.42.42,0,0,1,0,.79,1.52,1.52,0,0,1-1.37,0,.42.42,0,0,1,0-.79A1.51,1.51,0,0,1,27.75,133.31Z"/><path id="_Path_264" data-name="&lt;Path&gt;" class="cls-1" d="M31.33,131.25a.42.42,0,0,1,0,.79A1.51,1.51,0,0,1,30,132a.42.42,0,0,1,0-.79A1.51,1.51,0,0,1,31.33,131.25Z"/><path id="_Path_265" data-name="&lt;Path&gt;" class="cls-1" d="M34.91,129.18a.42.42,0,0,1,0,.79,1.51,1.51,0,0,1-1.37,0,.42.42,0,0,1,0-.79A1.52,1.52,0,0,1,34.91,129.18Z"/><path id="_Path_266" data-name="&lt;Path&gt;" class="cls-1" d="M38.5,127.11a.42.42,0,0,1,0,.79,1.51,1.51,0,0,1-1.37,0,.42.42,0,0,1,0-.79A1.51,1.51,0,0,1,38.5,127.11Z"/><path id="_Path_267" data-name="&lt;Path&gt;" class="cls-1" d="M42.08,125a.42.42,0,0,1,0,.79,1.51,1.51,0,0,1-1.37,0,.42.42,0,0,1,0-.79A1.51,1.51,0,0,1,42.08,125Z"/><path id="_Path_268" data-name="&lt;Path&gt;" class="cls-1" d="M17,135.38a.42.42,0,0,1,0,.79,1.51,1.51,0,0,1-1.37,0,.42.42,0,0,1,0-.79A1.51,1.51,0,0,1,17,135.38Z"/><path id="_Path_269" data-name="&lt;Path&gt;" class="cls-1" d="M20.58,133.31a.42.42,0,0,1,0,.79,1.52,1.52,0,0,1-1.37,0,.42.42,0,0,1,0-.79A1.51,1.51,0,0,1,20.58,133.31Z"/><path id="_Path_270" data-name="&lt;Path&gt;" class="cls-1" d="M24.17,131.25a.42.42,0,0,1,0,.79,1.51,1.51,0,0,1-1.37,0,.42.42,0,0,1,0-.79A1.52,1.52,0,0,1,24.17,131.25Z"/><path id="_Path_271" data-name="&lt;Path&gt;" class="cls-1" d="M27.75,129.18a.42.42,0,0,1,0,.79,1.51,1.51,0,0,1-1.37,0,.42.42,0,0,1,0-.79A1.51,1.51,0,0,1,27.75,129.18Z"/><path id="_Path_272" data-name="&lt;Path&gt;" class="cls-1" d="M31.33,127.11a.42.42,0,0,1,0,.79,1.51,1.51,0,0,1-1.37,0,.42.42,0,0,1,0-.79A1.51,1.51,0,0,1,31.33,127.11Z"/><path id="_Path_273" data-name="&lt;Path&gt;" class="cls-1" d="M34.91,125a.42.42,0,0,1,0,.79,1.51,1.51,0,0,1-1.37,0,.42.42,0,0,1,0-.79A1.51,1.51,0,0,1,34.91,125Z"/><path id="_Path_274" data-name="&lt;Path&gt;" class="cls-1" d="M78.11,170.26a.42.42,0,0,1,0,.79,1.52,1.52,0,0,1-1.37,0,.42.42,0,0,1,0-.79A1.51,1.51,0,0,1,78.11,170.26Z"/><path id="_Path_275" data-name="&lt;Path&gt;" class="cls-1" d="M81.69,168.19a.42.42,0,0,1,0,.79,1.51,1.51,0,0,1-1.37,0,.42.42,0,0,1,0-.79A1.51,1.51,0,0,1,81.69,168.19Z"/><path id="_Path_276" data-name="&lt;Path&gt;" class="cls-1" d="M85.27,166.12a.42.42,0,0,1,0,.79,1.52,1.52,0,0,1-1.37,0,.42.42,0,0,1,0-.79A1.51,1.51,0,0,1,85.27,166.12Z"/><path id="_Path_277" data-name="&lt;Path&gt;" class="cls-1" d="M88.85,164.05a.42.42,0,0,1,0,.79,1.51,1.51,0,0,1-1.37,0,.42.42,0,0,1,0-.79A1.51,1.51,0,0,1,88.85,164.05Z"/><path id="_Path_278" data-name="&lt;Path&gt;" class="cls-1" d="M92.44,162a.42.42,0,0,1,0,.79,1.51,1.51,0,0,1-1.37,0,.42.42,0,0,1,0-.79A1.51,1.51,0,0,1,92.44,162Z"/><path id="_Path_279" data-name="&lt;Path&gt;" class="cls-1" d="M70.94,170.26a.42.42,0,0,1,0,.79,1.51,1.51,0,0,1-1.37,0,.42.42,0,0,1,0-.79A1.51,1.51,0,0,1,70.94,170.26Z"/><path id="_Path_280" data-name="&lt;Path&gt;" class="cls-1" d="M74.52,168.19a.42.42,0,0,1,0,.79,1.51,1.51,0,0,1-1.37,0,.42.42,0,0,1,0-.79A1.51,1.51,0,0,1,74.52,168.19Z"/><path id="_Path_281" data-name="&lt;Path&gt;" class="cls-1" d="M78.11,166.12a.42.42,0,0,1,0,.79,1.52,1.52,0,0,1-1.37,0,.42.42,0,0,1,0-.79A1.51,1.51,0,0,1,78.11,166.12Z"/><path id="_Path_282" data-name="&lt;Path&gt;" class="cls-1" d="M81.69,164.05a.42.42,0,0,1,0,.79,1.51,1.51,0,0,1-1.37,0,.42.42,0,0,1,0-.79A1.51,1.51,0,0,1,81.69,164.05Z"/><path id="_Path_283" data-name="&lt;Path&gt;" class="cls-1" d="M85.27,162a.42.42,0,0,1,0,.79,1.51,1.51,0,0,1-1.37,0,.42.42,0,0,1,0-.79A1.52,1.52,0,0,1,85.27,162Z"/><path id="_Path_284" data-name="&lt;Path&gt;" class="cls-1" d="M88.85,159.92a.42.42,0,0,1,0,.79,1.51,1.51,0,0,1-1.37,0,.42.42,0,0,1,0-.79A1.51,1.51,0,0,1,88.85,159.92Z"/><path id="_Path_285" data-name="&lt;Path&gt;" class="cls-1" d="M92.44,157.85a.42.42,0,0,1,0,.79,1.51,1.51,0,0,1-1.37,0,.42.42,0,0,1,0-.79A1.51,1.51,0,0,1,92.44,157.85Z"/><path id="_Path_286" data-name="&lt;Path&gt;" class="cls-1" d="M95.88,156.12a.42.42,0,0,1,0,.79,1.52,1.52,0,0,1-1.37,0,.42.42,0,0,1,0-.79A1.52,1.52,0,0,1,95.88,156.12Z"/><path id="_Path_287" data-name="&lt;Path&gt;" class="cls-1" d="M96,159.93a.42.42,0,0,1,0,.79,1.51,1.51,0,0,1-1.37,0,.42.42,0,0,1,0-.79A1.51,1.51,0,0,1,96,159.93Z"/></g><g id="_Group_3" data-name="&lt;Group&gt;"><path id="_Path_288" data-name="&lt;Path&gt;" class="cls-1" d="M60.05,164.38a.42.42,0,0,1,0,.79,1.52,1.52,0,0,1-1.37,0,.42.42,0,0,1,0-.79A1.51,1.51,0,0,1,60.05,164.38Z"/><path id="_Path_289" data-name="&lt;Path&gt;" class="cls-1" d="M63.64,162.31a.42.42,0,0,1,0,.79,1.51,1.51,0,0,1-1.37,0,.42.42,0,0,1,0-.79A1.52,1.52,0,0,1,63.64,162.31Z"/><path id="_Path_290" data-name="&lt;Path&gt;" class="cls-1" d="M67.22,160.25a.42.42,0,0,1,0,.79,1.51,1.51,0,0,1-1.37,0,.42.42,0,0,1,0-.79A1.51,1.51,0,0,1,67.22,160.25Z"/><path id="_Path_291" data-name="&lt;Path&gt;" class="cls-1" d="M70.8,158.18a.42.42,0,0,1,0,.79,1.51,1.51,0,0,1-1.37,0,.42.42,0,0,1,0-.79A1.51,1.51,0,0,1,70.8,158.18Z"/><path id="_Path_292" data-name="&lt;Path&gt;" class="cls-1" d="M74.38,156.11a.42.42,0,0,1,0,.79,1.51,1.51,0,0,1-1.37,0,.42.42,0,0,1,0-.79A1.51,1.51,0,0,1,74.38,156.11Z"/><path id="_Path_293" data-name="&lt;Path&gt;" class="cls-1" d="M78,154a.42.42,0,0,1,0,.79,1.51,1.51,0,0,1-1.37,0,.42.42,0,0,1,0-.79A1.52,1.52,0,0,1,78,154Z"/><path id="_Path_294" data-name="&lt;Path&gt;" class="cls-1" d="M81.55,152a.42.42,0,0,1,0,.79,1.52,1.52,0,0,1-1.37,0,.42.42,0,0,1,0-.79A1.52,1.52,0,0,1,81.55,152Z"/><path id="_Path_295" data-name="&lt;Path&gt;" class="cls-1" d="M85.13,149.9a.42.42,0,0,1,0,.79,1.52,1.52,0,0,1-1.37,0,.42.42,0,0,1,0-.79A1.51,1.51,0,0,1,85.13,149.9Z"/><path id="_Path_296" data-name="&lt;Path&gt;" class="cls-1" d="M56.47,162.31a.42.42,0,0,1,0,.79,1.51,1.51,0,0,1-1.37,0,.42.42,0,0,1,0-.79A1.52,1.52,0,0,1,56.47,162.31Z"/><path id="_Path_297" data-name="&lt;Path&gt;" class="cls-1" d="M60.05,160.25a.42.42,0,0,1,0,.79,1.51,1.51,0,0,1-1.37,0,.42.42,0,0,1,0-.79A1.52,1.52,0,0,1,60.05,160.25Z"/><path id="_Path_298" data-name="&lt;Path&gt;" class="cls-1" d="M63.64,158.18a.42.42,0,0,1,0,.79,1.51,1.51,0,0,1-1.37,0,.42.42,0,0,1,0-.79A1.51,1.51,0,0,1,63.64,158.18Z"/><path id="_Path_299" data-name="&lt;Path&gt;" class="cls-1" d="M67.22,156.11a.42.42,0,0,1,0,.79,1.51,1.51,0,0,1-1.37,0,.42.42,0,0,1,0-.79A1.51,1.51,0,0,1,67.22,156.11Z"/><path id="_Path_300" data-name="&lt;Path&gt;" class="cls-1" d="M70.8,154a.42.42,0,0,1,0,.79,1.51,1.51,0,0,1-1.37,0,.42.42,0,0,1,0-.79A1.52,1.52,0,0,1,70.8,154Z"/><path id="_Path_301" data-name="&lt;Path&gt;" class="cls-1" d="M74.38,152a.42.42,0,0,1,0,.79,1.52,1.52,0,0,1-1.37,0,.42.42,0,0,1,0-.79A1.51,1.51,0,0,1,74.38,152Z"/><path id="_Path_302" data-name="&lt;Path&gt;" class="cls-1" d="M78,149.9a.42.42,0,0,1,0,.79,1.51,1.51,0,0,1-1.37,0,.42.42,0,0,1,0-.79A1.51,1.51,0,0,1,78,149.9Z"/><path id="_Path_303" data-name="&lt;Path&gt;" class="cls-1" d="M81.55,147.84a.42.42,0,0,1,0,.79,1.51,1.51,0,0,1-1.37,0,.42.42,0,0,1,0-.79A1.51,1.51,0,0,1,81.55,147.84Z"/><path id="_Path_304" data-name="&lt;Path&gt;" class="cls-1" d="M52.89,160.25a.42.42,0,0,1,0,.79,1.51,1.51,0,0,1-1.37,0,.42.42,0,0,1,0-.79A1.52,1.52,0,0,1,52.89,160.25Z"/><path id="_Path_305" data-name="&lt;Path&gt;" class="cls-1" d="M56.47,158.18a.42.42,0,0,1,0,.79,1.51,1.51,0,0,1-1.37,0,.42.42,0,0,1,0-.79A1.51,1.51,0,0,1,56.47,158.18Z"/><path id="_Path_306" data-name="&lt;Path&gt;" class="cls-1" d="M60.05,156.11a.42.42,0,0,1,0,.79,1.51,1.51,0,0,1-1.37,0,.42.42,0,0,1,0-.79A1.51,1.51,0,0,1,60.05,156.11Z"/><path id="_Path_307" data-name="&lt;Path&gt;" class="cls-1" d="M63.64,154a.42.42,0,0,1,0,.79,1.52,1.52,0,0,1-1.37,0,.42.42,0,0,1,0-.79A1.52,1.52,0,0,1,63.64,154Z"/><path id="_Path_308" data-name="&lt;Path&gt;" class="cls-1" d="M67.22,152a.42.42,0,0,1,0,.79,1.52,1.52,0,0,1-1.37,0,.42.42,0,0,1,0-.79A1.51,1.51,0,0,1,67.22,152Z"/><path id="_Path_309" data-name="&lt;Path&gt;" class="cls-1" d="M70.8,149.9a.42.42,0,0,1,0,.79,1.51,1.51,0,0,1-1.37,0,.42.42,0,0,1,0-.79A1.51,1.51,0,0,1,70.8,149.9Z"/><path id="_Path_310" data-name="&lt;Path&gt;" class="cls-1" d="M74.38,147.84a.42.42,0,0,1,0,.79,1.51,1.51,0,0,1-1.37,0,.42.42,0,0,1,0-.79A1.51,1.51,0,0,1,74.38,147.84Z"/><path id="_Path_311" data-name="&lt;Path&gt;" class="cls-1" d="M78,145.77a.42.42,0,0,1,0,.79,1.52,1.52,0,0,1-1.37,0,.42.42,0,0,1,0-.79A1.51,1.51,0,0,1,78,145.77Z"/><path id="_Path_312" data-name="&lt;Path&gt;" class="cls-1" d="M49.31,158.18a.42.42,0,0,1,0,.79,1.51,1.51,0,0,1-1.37,0,.42.42,0,0,1,0-.79A1.51,1.51,0,0,1,49.31,158.18Z"/><path id="_Path_313" data-name="&lt;Path&gt;" class="cls-1" d="M52.89,156.11a.42.42,0,0,1,0,.79,1.51,1.51,0,0,1-1.37,0,.42.42,0,0,1,0-.79A1.52,1.52,0,0,1,52.89,156.11Z"/><path id="_Path_314" data-name="&lt;Path&gt;" class="cls-1" d="M56.47,154a.42.42,0,0,1,0,.79,1.52,1.52,0,0,1-1.37,0,.42.42,0,0,1,0-.79A1.52,1.52,0,0,1,56.47,154Z"/><path id="_Path_315" data-name="&lt;Path&gt;" class="cls-1" d="M60.05,152a.42.42,0,0,1,0,.79,1.51,1.51,0,0,1-1.37,0,.42.42,0,0,1,0-.79A1.51,1.51,0,0,1,60.05,152Z"/><path id="_Path_316" data-name="&lt;Path&gt;" class="cls-1" d="M63.64,149.9a.42.42,0,0,1,0,.79,1.51,1.51,0,0,1-1.37,0,.42.42,0,0,1,0-.79A1.51,1.51,0,0,1,63.64,149.9Z"/><path id="_Path_317" data-name="&lt;Path&gt;" class="cls-1" d="M67.22,147.84a.42.42,0,0,1,0,.79,1.52,1.52,0,0,1-1.37,0,.42.42,0,0,1,0-.79A1.51,1.51,0,0,1,67.22,147.84Z"/><path id="_Path_318" data-name="&lt;Path&gt;" class="cls-1" d="M70.8,145.77a.42.42,0,0,1,0,.79,1.52,1.52,0,0,1-1.37,0,.42.42,0,0,1,0-.79A1.51,1.51,0,0,1,70.8,145.77Z"/><path id="_Path_319" data-name="&lt;Path&gt;" class="cls-1" d="M74.38,143.7a.42.42,0,0,1,0,.79,1.51,1.51,0,0,1-1.37,0,.42.42,0,0,1,0-.79A1.51,1.51,0,0,1,74.38,143.7Z"/><path id="_Path_320" data-name="&lt;Path&gt;" class="cls-1" d="M45.72,156.11a.42.42,0,0,1,0,.79,1.52,1.52,0,0,1-1.37,0,.42.42,0,0,1,0-.79A1.52,1.52,0,0,1,45.72,156.11Z"/><path id="_Path_321" data-name="&lt;Path&gt;" class="cls-1" d="M49.31,154a.42.42,0,0,1,0,.79,1.52,1.52,0,0,1-1.37,0,.42.42,0,0,1,0-.79A1.51,1.51,0,0,1,49.31,154Z"/><path id="_Path_322" data-name="&lt;Path&gt;" class="cls-1" d="M52.89,152a.42.42,0,0,1,0,.79,1.51,1.51,0,0,1-1.37,0,.42.42,0,0,1,0-.79A1.51,1.51,0,0,1,52.89,152Z"/><path id="_Path_323" data-name="&lt;Path&gt;" class="cls-1" d="M56.47,149.9a.42.42,0,0,1,0,.79,1.51,1.51,0,0,1-1.37,0,.42.42,0,0,1,0-.79A1.51,1.51,0,0,1,56.47,149.9Z"/><path id="_Path_324" data-name="&lt;Path&gt;" class="cls-1" d="M60.05,147.84a.42.42,0,0,1,0,.79,1.51,1.51,0,0,1-1.37,0,.42.42,0,0,1,0-.79A1.51,1.51,0,0,1,60.05,147.84Z"/><path id="_Path_325" data-name="&lt;Path&gt;" class="cls-1" d="M63.64,145.77a.42.42,0,0,1,0,.79,1.51,1.51,0,0,1-1.37,0,.42.42,0,0,1,0-.79A1.51,1.51,0,0,1,63.64,145.77Z"/><path id="_Path_326" data-name="&lt;Path&gt;" class="cls-1" d="M67.22,143.7a.42.42,0,0,1,0,.79,1.51,1.51,0,0,1-1.37,0,.42.42,0,0,1,0-.79A1.52,1.52,0,0,1,67.22,143.7Z"/><path id="_Path_327" data-name="&lt;Path&gt;" class="cls-1" d="M70.8,141.63a.42.42,0,0,1,0,.79,1.51,1.51,0,0,1-1.37,0,.42.42,0,0,1,0-.79A1.52,1.52,0,0,1,70.8,141.63Z"/><path id="_Path_328" data-name="&lt;Path&gt;" class="cls-1" d="M42.11,154a.42.42,0,0,1,0,.79,1.51,1.51,0,0,1-1.37,0,.42.42,0,0,1,0-.79A1.52,1.52,0,0,1,42.11,154Z"/><path id="_Path_329" data-name="&lt;Path&gt;" class="cls-1" d="M45.69,152a.42.42,0,0,1,0,.79,1.51,1.51,0,0,1-1.37,0,.42.42,0,0,1,0-.79A1.52,1.52,0,0,1,45.69,152Z"/><path id="_Path_330" data-name="&lt;Path&gt;" class="cls-1" d="M49.27,149.88a.42.42,0,0,1,0,.79,1.51,1.51,0,0,1-1.37,0,.42.42,0,0,1,0-.79A1.51,1.51,0,0,1,49.27,149.88Z"/><path id="_Path_331" data-name="&lt;Path&gt;" class="cls-1" d="M52.86,147.81a.42.42,0,0,1,0,.79,1.51,1.51,0,0,1-1.37,0,.42.42,0,0,1,0-.79A1.51,1.51,0,0,1,52.86,147.81Z"/><path id="_Path_332" data-name="&lt;Path&gt;" class="cls-1" d="M56.44,145.75a.42.42,0,0,1,0,.79,1.51,1.51,0,0,1-1.37,0,.42.42,0,0,1,0-.79A1.51,1.51,0,0,1,56.44,145.75Z"/><path id="_Path_333" data-name="&lt;Path&gt;" class="cls-1" d="M60,143.68a.42.42,0,0,1,0,.79,1.52,1.52,0,0,1-1.37,0,.42.42,0,0,1,0-.79A1.52,1.52,0,0,1,60,143.68Z"/><path id="_Path_334" data-name="&lt;Path&gt;" class="cls-1" d="M63.61,141.61a.42.42,0,0,1,0,.79,1.52,1.52,0,0,1-1.37,0,.42.42,0,0,1,0-.79A1.51,1.51,0,0,1,63.61,141.61Z"/><path id="_Path_335" data-name="&lt;Path&gt;" class="cls-1" d="M67.19,139.54a.42.42,0,0,1,0,.79,1.51,1.51,0,0,1-1.37,0,.42.42,0,0,1,0-.79A1.51,1.51,0,0,1,67.19,139.54Z"/><path id="_Path_336" data-name="&lt;Path&gt;" class="cls-1" d="M38.53,152a.42.42,0,0,1,0,.79,1.51,1.51,0,0,1-1.37,0,.42.42,0,0,1,0-.79A1.51,1.51,0,0,1,38.53,152Z"/><path id="_Path_337" data-name="&lt;Path&gt;" class="cls-1" d="M42.11,149.88a.42.42,0,0,1,0,.79,1.51,1.51,0,0,1-1.37,0,.42.42,0,0,1,0-.79A1.51,1.51,0,0,1,42.11,149.88Z"/><path id="_Path_338" data-name="&lt;Path&gt;" class="cls-1" d="M45.69,147.81a.42.42,0,0,1,0,.79,1.51,1.51,0,0,1-1.37,0,.42.42,0,0,1,0-.79A1.51,1.51,0,0,1,45.69,147.81Z"/><path id="_Path_339" data-name="&lt;Path&gt;" class="cls-1" d="M49.27,145.75a.42.42,0,0,1,0,.79,1.51,1.51,0,0,1-1.37,0,.42.42,0,0,1,0-.79A1.51,1.51,0,0,1,49.27,145.75Z"/><path id="_Path_340" data-name="&lt;Path&gt;" class="cls-1" d="M52.86,143.68a.42.42,0,0,1,0,.79,1.52,1.52,0,0,1-1.37,0,.42.42,0,0,1,0-.79A1.51,1.51,0,0,1,52.86,143.68Z"/><path id="_Path_341" data-name="&lt;Path&gt;" class="cls-1" d="M56.44,141.61a.42.42,0,0,1,0,.79,1.51,1.51,0,0,1-1.37,0,.42.42,0,0,1,0-.79A1.51,1.51,0,0,1,56.44,141.61Z"/><path id="_Path_342" data-name="&lt;Path&gt;" class="cls-1" d="M60,139.54a.42.42,0,0,1,0,.79,1.51,1.51,0,0,1-1.37,0,.42.42,0,0,1,0-.79A1.51,1.51,0,0,1,60,139.54Z"/><path id="_Path_343" data-name="&lt;Path&gt;" class="cls-1" d="M63.61,137.47a.42.42,0,0,1,0,.79,1.52,1.52,0,0,1-1.37,0,.42.42,0,0,1,0-.79A1.51,1.51,0,0,1,63.61,137.47Z"/><path id="_Path_344" data-name="&lt;Path&gt;" class="cls-1" d="M34.94,149.88a.42.42,0,0,1,0,.79,1.51,1.51,0,0,1-1.37,0,.42.42,0,0,1,0-.79A1.51,1.51,0,0,1,34.94,149.88Z"/><path id="_Path_345" data-name="&lt;Path&gt;" class="cls-1" d="M38.53,147.81a.42.42,0,0,1,0,.79,1.51,1.51,0,0,1-1.37,0,.42.42,0,0,1,0-.79A1.51,1.51,0,0,1,38.53,147.81Z"/><path id="_Path_346" data-name="&lt;Path&gt;" class="cls-1" d="M42.11,145.75a.42.42,0,0,1,0,.79,1.51,1.51,0,0,1-1.37,0,.42.42,0,0,1,0-.79A1.51,1.51,0,0,1,42.11,145.75Z"/><path id="_Path_347" data-name="&lt;Path&gt;" class="cls-1" d="M45.69,143.68a.42.42,0,0,1,0,.79,1.52,1.52,0,0,1-1.37,0,.42.42,0,0,1,0-.79A1.51,1.51,0,0,1,45.69,143.68Z"/><path id="_Path_348" data-name="&lt;Path&gt;" class="cls-1" d="M49.27,141.61a.42.42,0,0,1,0,.79,1.51,1.51,0,0,1-1.37,0,.42.42,0,0,1,0-.79A1.51,1.51,0,0,1,49.27,141.61Z"/><path id="_Path_349" data-name="&lt;Path&gt;" class="cls-1" d="M52.86,139.54a.42.42,0,0,1,0,.79,1.51,1.51,0,0,1-1.37,0,.42.42,0,0,1,0-.79A1.51,1.51,0,0,1,52.86,139.54Z"/><path id="_Path_350" data-name="&lt;Path&gt;" class="cls-1" d="M56.44,137.47a.42.42,0,0,1,0,.79,1.51,1.51,0,0,1-1.37,0,.42.42,0,0,1,0-.79A1.51,1.51,0,0,1,56.44,137.47Z"/><path id="_Path_351" data-name="&lt;Path&gt;" class="cls-1" d="M60,135.4a.42.42,0,0,1,0,.79,1.52,1.52,0,0,1-1.37,0,.42.42,0,0,1,0-.79A1.51,1.51,0,0,1,60,135.4Z"/><path id="_Path_352" data-name="&lt;Path&gt;" class="cls-1" d="M31.36,147.81a.42.42,0,0,1,0,.79,1.51,1.51,0,0,1-1.37,0,.42.42,0,0,1,0-.79A1.52,1.52,0,0,1,31.36,147.81Z"/><path id="_Path_353" data-name="&lt;Path&gt;" class="cls-1" d="M34.94,145.75a.42.42,0,0,1,0,.79,1.51,1.51,0,0,1-1.37,0,.42.42,0,0,1,0-.79A1.51,1.51,0,0,1,34.94,145.75Z"/><path id="_Path_354" data-name="&lt;Path&gt;" class="cls-1" d="M38.53,143.68a.42.42,0,0,1,0,.79,1.51,1.51,0,0,1-1.37,0,.42.42,0,0,1,0-.79A1.51,1.51,0,0,1,38.53,143.68Z"/><path id="_Path_355" data-name="&lt;Path&gt;" class="cls-1" d="M42.11,141.61a.42.42,0,0,1,0,.79,1.51,1.51,0,0,1-1.37,0,.42.42,0,0,1,0-.79A1.51,1.51,0,0,1,42.11,141.61Z"/><path id="_Path_356" data-name="&lt;Path&gt;" class="cls-1" d="M45.69,139.54a.42.42,0,0,1,0,.79,1.52,1.52,0,0,1-1.37,0,.42.42,0,0,1,0-.79A1.51,1.51,0,0,1,45.69,139.54Z"/><path id="_Path_357" data-name="&lt;Path&gt;" class="cls-1" d="M49.27,137.47a.42.42,0,0,1,0,.79,1.51,1.51,0,0,1-1.37,0,.42.42,0,0,1,0-.79A1.51,1.51,0,0,1,49.27,137.47Z"/><path id="_Path_358" data-name="&lt;Path&gt;" class="cls-1" d="M52.86,135.4a.42.42,0,0,1,0,.79,1.51,1.51,0,0,1-1.37,0,.42.42,0,0,1,0-.79A1.51,1.51,0,0,1,52.86,135.4Z"/><path id="_Path_359" data-name="&lt;Path&gt;" class="cls-1" d="M56.44,133.34a.42.42,0,0,1,0,.79,1.51,1.51,0,0,1-1.37,0,.42.42,0,0,1,0-.79A1.52,1.52,0,0,1,56.44,133.34Z"/><path id="_Path_360" data-name="&lt;Path&gt;" class="cls-1" d="M27.78,145.75a.42.42,0,0,1,0,.79,1.51,1.51,0,0,1-1.37,0,.42.42,0,0,1,0-.79A1.51,1.51,0,0,1,27.78,145.75Z"/><path id="_Path_361" data-name="&lt;Path&gt;" class="cls-1" d="M31.36,143.68a.42.42,0,0,1,0,.79,1.51,1.51,0,0,1-1.37,0,.42.42,0,0,1,0-.79A1.51,1.51,0,0,1,31.36,143.68Z"/><path id="_Path_362" data-name="&lt;Path&gt;" class="cls-1" d="M34.94,141.61a.42.42,0,0,1,0,.79,1.51,1.51,0,0,1-1.37,0,.42.42,0,0,1,0-.79A1.51,1.51,0,0,1,34.94,141.61Z"/><path id="_Path_363" data-name="&lt;Path&gt;" class="cls-1" d="M38.53,139.54a.42.42,0,0,1,0,.79,1.51,1.51,0,0,1-1.37,0,.42.42,0,0,1,0-.79A1.51,1.51,0,0,1,38.53,139.54Z"/><path id="_Path_364" data-name="&lt;Path&gt;" class="cls-1" d="M42.11,137.47a.42.42,0,0,1,0,.79,1.51,1.51,0,0,1-1.37,0,.42.42,0,0,1,0-.79A1.51,1.51,0,0,1,42.11,137.47Z"/><path id="_Path_365" data-name="&lt;Path&gt;" class="cls-1" d="M45.69,135.4a.42.42,0,0,1,0,.79,1.51,1.51,0,0,1-1.37,0,.42.42,0,0,1,0-.79A1.51,1.51,0,0,1,45.69,135.4Z"/><path id="_Path_366" data-name="&lt;Path&gt;" class="cls-1" d="M49.27,133.34a.42.42,0,0,1,0,.79,1.51,1.51,0,0,1-1.37,0,.42.42,0,0,1,0-.79A1.51,1.51,0,0,1,49.27,133.34Z"/><path id="_Path_367" data-name="&lt;Path&gt;" class="cls-1" d="M52.86,131.27a.42.42,0,0,1,0,.79,1.51,1.51,0,0,1-1.37,0,.42.42,0,0,1,0-.79A1.51,1.51,0,0,1,52.86,131.27Z"/><path id="_Path_368" data-name="&lt;Path&gt;" class="cls-1" d="M24.2,143.68a.42.42,0,0,1,0,.79,1.51,1.51,0,0,1-1.37,0,.42.42,0,0,1,0-.79A1.51,1.51,0,0,1,24.2,143.68Z"/><path id="_Path_369" data-name="&lt;Path&gt;" class="cls-1" d="M27.78,141.61a.42.42,0,0,1,0,.79,1.51,1.51,0,0,1-1.37,0,.42.42,0,0,1,0-.79A1.51,1.51,0,0,1,27.78,141.61Z"/><path id="_Path_370" data-name="&lt;Path&gt;" class="cls-1" d="M31.36,139.54a.42.42,0,0,1,0,.79,1.52,1.52,0,0,1-1.37,0,.42.42,0,0,1,0-.79A1.51,1.51,0,0,1,31.36,139.54Z"/><path id="_Path_371" data-name="&lt;Path&gt;" class="cls-1" d="M34.94,137.47a.42.42,0,0,1,0,.79,1.51,1.51,0,0,1-1.37,0,.42.42,0,0,1,0-.79A1.51,1.51,0,0,1,34.94,137.47Z"/><path id="_Path_372" data-name="&lt;Path&gt;" class="cls-1" d="M38.53,135.4a.42.42,0,0,1,0,.79,1.51,1.51,0,0,1-1.37,0,.42.42,0,0,1,0-.79A1.51,1.51,0,0,1,38.53,135.4Z"/><path id="_Path_373" data-name="&lt;Path&gt;" class="cls-1" d="M42.11,133.34a.42.42,0,0,1,0,.79,1.51,1.51,0,0,1-1.37,0,.42.42,0,0,1,0-.79A1.51,1.51,0,0,1,42.11,133.34Z"/><path id="_Path_374" data-name="&lt;Path&gt;" class="cls-1" d="M45.69,131.27a.42.42,0,0,1,0,.79,1.51,1.51,0,0,1-1.37,0,.42.42,0,0,1,0-.79A1.51,1.51,0,0,1,45.69,131.27Z"/><path id="_Path_375" data-name="&lt;Path&gt;" class="cls-1" d="M49.28,129.2a.42.42,0,0,1,0,.79,1.51,1.51,0,0,1-1.37,0,.42.42,0,0,1,0-.79A1.51,1.51,0,0,1,49.28,129.2Z"/><path id="_Path_376" data-name="&lt;Path&gt;" class="cls-1" d="M20.61,141.61a.42.42,0,0,1,0,.79,1.51,1.51,0,0,1-1.37,0,.42.42,0,0,1,0-.79A1.51,1.51,0,0,1,20.61,141.61Z"/><path id="_Path_377" data-name="&lt;Path&gt;" class="cls-1" d="M24.2,139.54a.42.42,0,0,1,0,.79,1.52,1.52,0,0,1-1.37,0,.42.42,0,0,1,0-.79A1.51,1.51,0,0,1,24.2,139.54Z"/><path id="_Path_378" data-name="&lt;Path&gt;" class="cls-1" d="M27.78,137.47a.42.42,0,0,1,0,.79,1.51,1.51,0,0,1-1.37,0,.42.42,0,0,1,0-.79A1.51,1.51,0,0,1,27.78,137.47Z"/><path id="_Path_379" data-name="&lt;Path&gt;" class="cls-1" d="M31.36,135.4a.42.42,0,0,1,0,.79,1.51,1.51,0,0,1-1.37,0,.42.42,0,0,1,0-.79A1.52,1.52,0,0,1,31.36,135.4Z"/><path id="_Path_380" data-name="&lt;Path&gt;" class="cls-1" d="M34.94,133.34a.42.42,0,0,1,0,.79,1.51,1.51,0,0,1-1.37,0,.42.42,0,0,1,0-.79A1.51,1.51,0,0,1,34.94,133.34Z"/><path id="_Path_381" data-name="&lt;Path&gt;" class="cls-1" d="M38.53,131.27a.42.42,0,0,1,0,.79,1.51,1.51,0,0,1-1.37,0,.42.42,0,0,1,0-.79A1.51,1.51,0,0,1,38.53,131.27Z"/><path id="_Path_382" data-name="&lt;Path&gt;" class="cls-1" d="M42.11,129.2a.42.42,0,0,1,0,.79,1.51,1.51,0,0,1-1.37,0,.42.42,0,0,1,0-.79A1.51,1.51,0,0,1,42.11,129.2Z"/><path id="_Path_383" data-name="&lt;Path&gt;" class="cls-1" d="M45.69,127.13a.42.42,0,0,1,0,.79,1.52,1.52,0,0,1-1.37,0,.42.42,0,0,1,0-.79A1.52,1.52,0,0,1,45.69,127.13Z"/><path id="_Path_384" data-name="&lt;Path&gt;" class="cls-1" d="M17,139.54a.42.42,0,0,1,0,.79,1.52,1.52,0,0,1-1.37,0,.42.42,0,0,1,0-.79A1.51,1.51,0,0,1,17,139.54Z"/><path id="_Path_385" data-name="&lt;Path&gt;" class="cls-1" d="M20.61,137.47a.42.42,0,0,1,0,.79,1.51,1.51,0,0,1-1.37,0,.42.42,0,0,1,0-.79A1.51,1.51,0,0,1,20.61,137.47Z"/><path id="_Path_386" data-name="&lt;Path&gt;" class="cls-1" d="M24.2,135.4a.42.42,0,0,1,0,.79,1.51,1.51,0,0,1-1.37,0,.42.42,0,0,1,0-.79A1.52,1.52,0,0,1,24.2,135.4Z"/><path id="_Path_387" data-name="&lt;Path&gt;" class="cls-1" d="M27.78,133.34a.42.42,0,0,1,0,.79,1.51,1.51,0,0,1-1.37,0,.42.42,0,0,1,0-.79A1.51,1.51,0,0,1,27.78,133.34Z"/><path id="_Path_388" data-name="&lt;Path&gt;" class="cls-1" d="M31.36,131.27a.42.42,0,0,1,0,.79,1.51,1.51,0,0,1-1.37,0,.42.42,0,0,1,0-.79A1.51,1.51,0,0,1,31.36,131.27Z"/><path id="_Path_389" data-name="&lt;Path&gt;" class="cls-1" d="M34.94,129.2a.42.42,0,0,1,0,.79,1.51,1.51,0,0,1-1.37,0,.42.42,0,0,1,0-.79A1.51,1.51,0,0,1,34.94,129.2Z"/><path id="_Path_390" data-name="&lt;Path&gt;" class="cls-1" d="M38.53,127.13a.42.42,0,0,1,0,.79,1.52,1.52,0,0,1-1.37,0,.42.42,0,0,1,0-.79A1.52,1.52,0,0,1,38.53,127.13Z"/><path id="_Path_391" data-name="&lt;Path&gt;" class="cls-1" d="M42.11,125.06a.42.42,0,0,1,0,.79,1.52,1.52,0,0,1-1.37,0,.42.42,0,0,1,0-.79A1.51,1.51,0,0,1,42.11,125.06Z"/><path id="_Path_392" data-name="&lt;Path&gt;" class="cls-1" d="M13.42,137.45a.42.42,0,0,1,0,.79,1.52,1.52,0,0,1-1.37,0,.42.42,0,0,1,0-.79A1.52,1.52,0,0,1,13.42,137.45Z"/><path id="_Path_393" data-name="&lt;Path&gt;" class="cls-1" d="M17,135.38a.42.42,0,0,1,0,.79,1.51,1.51,0,0,1-1.37,0,.42.42,0,0,1,0-.79A1.51,1.51,0,0,1,17,135.38Z"/><path id="_Path_394" data-name="&lt;Path&gt;" class="cls-1" d="M20.58,133.31a.42.42,0,0,1,0,.79,1.51,1.51,0,0,1-1.37,0,.42.42,0,0,1,0-.79A1.51,1.51,0,0,1,20.58,133.31Z"/><path id="_Path_395" data-name="&lt;Path&gt;" class="cls-1" d="M24.17,131.25a.42.42,0,0,1,0,.79,1.52,1.52,0,0,1-1.37,0,.42.42,0,0,1,0-.79A1.51,1.51,0,0,1,24.17,131.25Z"/><path id="_Path_396" data-name="&lt;Path&gt;" class="cls-1" d="M27.75,129.18a.42.42,0,0,1,0,.79,1.51,1.51,0,0,1-1.37,0,.42.42,0,0,1,0-.79A1.51,1.51,0,0,1,27.75,129.18Z"/><path id="_Path_397" data-name="&lt;Path&gt;" class="cls-1" d="M31.33,127.11a.42.42,0,0,1,0,.79,1.51,1.51,0,0,1-1.37,0,.42.42,0,0,1,0-.79A1.51,1.51,0,0,1,31.33,127.11Z"/><path id="_Path_398" data-name="&lt;Path&gt;" class="cls-1" d="M34.91,125a.42.42,0,0,1,0,.79,1.51,1.51,0,0,1-1.37,0,.42.42,0,0,1,0-.79A1.52,1.52,0,0,1,34.91,125Z"/><path id="_Path_399" data-name="&lt;Path&gt;" class="cls-1" d="M38.5,123a.42.42,0,0,1,0,.79,1.51,1.51,0,0,1-1.37,0,.42.42,0,0,1,0-.79A1.52,1.52,0,0,1,38.5,123Z"/><path id="_Path_400" data-name="&lt;Path&gt;" class="cls-1" d="M9.84,135.38a.42.42,0,0,1,0,.79,1.51,1.51,0,0,1-1.37,0,.42.42,0,0,1,0-.79A1.51,1.51,0,0,1,9.84,135.38Z"/><path id="_Path_401" data-name="&lt;Path&gt;" class="cls-1" d="M13.42,133.31a.42.42,0,0,1,0,.79,1.51,1.51,0,0,1-1.37,0,.42.42,0,0,1,0-.79A1.51,1.51,0,0,1,13.42,133.31Z"/><path id="_Path_402" data-name="&lt;Path&gt;" class="cls-1" d="M17,131.25a.42.42,0,0,1,0,.79,1.52,1.52,0,0,1-1.37,0,.42.42,0,0,1,0-.79A1.51,1.51,0,0,1,17,131.25Z"/><path id="_Path_403" data-name="&lt;Path&gt;" class="cls-1" d="M20.58,129.18a.42.42,0,0,1,0,.79,1.52,1.52,0,0,1-1.37,0,.42.42,0,0,1,0-.79A1.51,1.51,0,0,1,20.58,129.18Z"/><path id="_Path_404" data-name="&lt;Path&gt;" class="cls-1" d="M24.17,127.11a.42.42,0,0,1,0,.79,1.51,1.51,0,0,1-1.37,0,.42.42,0,0,1,0-.79A1.51,1.51,0,0,1,24.17,127.11Z"/><path id="_Path_405" data-name="&lt;Path&gt;" class="cls-1" d="M27.75,125a.42.42,0,0,1,0,.79,1.51,1.51,0,0,1-1.37,0,.42.42,0,0,1,0-.79A1.52,1.52,0,0,1,27.75,125Z"/><path id="_Path_406" data-name="&lt;Path&gt;" class="cls-1" d="M31.33,123a.42.42,0,0,1,0,.79,1.51,1.51,0,0,1-1.37,0,.42.42,0,0,1,0-.79A1.51,1.51,0,0,1,31.33,123Z"/><path id="_Path_407" data-name="&lt;Path&gt;" class="cls-1" d="M34.91,120.9a.42.42,0,0,1,0,.79,1.51,1.51,0,0,1-1.37,0,.42.42,0,0,1,0-.79A1.51,1.51,0,0,1,34.91,120.9Z"/><path id="_Path_408" data-name="&lt;Path&gt;" class="cls-1" d="M9.84,131.25a.42.42,0,0,1,0,.79,1.51,1.51,0,0,1-1.37,0,.42.42,0,0,1,0-.79A1.51,1.51,0,0,1,9.84,131.25Z"/><path id="_Path_409" data-name="&lt;Path&gt;" class="cls-1" d="M13.42,129.18a.42.42,0,0,1,0,.79A1.52,1.52,0,0,1,12,130a.42.42,0,0,1,0-.79A1.51,1.51,0,0,1,13.42,129.18Z"/><path id="_Path_410" data-name="&lt;Path&gt;" class="cls-1" d="M17,127.11a.42.42,0,0,1,0,.79,1.51,1.51,0,0,1-1.37,0,.42.42,0,0,1,0-.79A1.52,1.52,0,0,1,17,127.11Z"/><path id="_Path_411" data-name="&lt;Path&gt;" class="cls-1" d="M20.58,125a.42.42,0,0,1,0,.79,1.51,1.51,0,0,1-1.37,0,.42.42,0,0,1,0-.79A1.51,1.51,0,0,1,20.58,125Z"/><path id="_Path_412" data-name="&lt;Path&gt;" class="cls-1" d="M24.17,123a.42.42,0,0,1,0,.79,1.51,1.51,0,0,1-1.37,0,.42.42,0,0,1,0-.79A1.51,1.51,0,0,1,24.17,123Z"/><path id="_Path_413" data-name="&lt;Path&gt;" class="cls-1" d="M27.75,120.9a.42.42,0,0,1,0,.79,1.51,1.51,0,0,1-1.37,0,.42.42,0,0,1,0-.79A1.51,1.51,0,0,1,27.75,120.9Z"/><path id="_Path_414" data-name="&lt;Path&gt;" class="cls-1" d="M70.94,166.12a.42.42,0,0,1,0,.79,1.52,1.52,0,0,1-1.37,0,.42.42,0,0,1,0-.79A1.51,1.51,0,0,1,70.94,166.12Z"/><path id="_Path_415" data-name="&lt;Path&gt;" class="cls-1" d="M74.52,164.05a.42.42,0,0,1,0,.79,1.51,1.51,0,0,1-1.37,0,.42.42,0,0,1,0-.79A1.51,1.51,0,0,1,74.52,164.05Z"/><path id="_Path_416" data-name="&lt;Path&gt;" class="cls-1" d="M78.11,162a.42.42,0,0,1,0,.79,1.52,1.52,0,0,1-1.37,0,.42.42,0,0,1,0-.79A1.51,1.51,0,0,1,78.11,162Z"/><path id="_Path_417" data-name="&lt;Path&gt;" class="cls-1" d="M81.69,159.92a.42.42,0,0,1,0,.79,1.51,1.51,0,0,1-1.37,0,.42.42,0,0,1,0-.79A1.51,1.51,0,0,1,81.69,159.92Z"/><path id="_Path_418" data-name="&lt;Path&gt;" class="cls-1" d="M85.27,157.85a.42.42,0,0,1,0,.79,1.51,1.51,0,0,1-1.37,0,.42.42,0,0,1,0-.79A1.51,1.51,0,0,1,85.27,157.85Z"/><path id="_Path_419" data-name="&lt;Path&gt;" class="cls-1" d="M63.78,166.12a.42.42,0,0,1,0,.79,1.51,1.51,0,0,1-1.37,0,.42.42,0,0,1,0-.79A1.51,1.51,0,0,1,63.78,166.12Z"/><path id="_Path_420" data-name="&lt;Path&gt;" class="cls-1" d="M67.36,164.05a.42.42,0,0,1,0,.79,1.51,1.51,0,0,1-1.37,0,.42.42,0,0,1,0-.79A1.51,1.51,0,0,1,67.36,164.05Z"/><path id="_Path_421" data-name="&lt;Path&gt;" class="cls-1" d="M70.94,162a.42.42,0,0,1,0,.79,1.52,1.52,0,0,1-1.37,0,.42.42,0,0,1,0-.79A1.51,1.51,0,0,1,70.94,162Z"/><path id="_Path_422" data-name="&lt;Path&gt;" class="cls-1" d="M74.52,159.92a.42.42,0,0,1,0,.79,1.51,1.51,0,0,1-1.37,0,.42.42,0,0,1,0-.79A1.51,1.51,0,0,1,74.52,159.92Z"/><path id="_Path_423" data-name="&lt;Path&gt;" class="cls-1" d="M78.11,157.85a.42.42,0,0,1,0,.79,1.51,1.51,0,0,1-1.37,0,.42.42,0,0,1,0-.79A1.52,1.52,0,0,1,78.11,157.85Z"/><path id="_Path_424" data-name="&lt;Path&gt;" class="cls-1" d="M81.69,155.78a.42.42,0,0,1,0,.79,1.51,1.51,0,0,1-1.37,0,.42.42,0,0,1,0-.79A1.51,1.51,0,0,1,81.69,155.78Z"/><path id="_Path_425" data-name="&lt;Path&gt;" class="cls-1" d="M85.27,153.71a.42.42,0,0,1,0,.79,1.51,1.51,0,0,1-1.37,0,.42.42,0,0,1,0-.79A1.51,1.51,0,0,1,85.27,153.71Z"/><path id="_Path_426" data-name="&lt;Path&gt;" class="cls-1" d="M88.71,152a.42.42,0,0,1,0,.79,1.52,1.52,0,0,1-1.37,0,.42.42,0,0,1,0-.79A1.52,1.52,0,0,1,88.71,152Z"/><path id="_Path_427" data-name="&lt;Path&gt;" class="cls-1" d="M88.85,155.79a.42.42,0,0,1,0,.79,1.51,1.51,0,0,1-1.37,0,.42.42,0,0,1,0-.79A1.51,1.51,0,0,1,88.85,155.79Z"/></g><g class="cls-2"><polygon class="cls-3" points="15.37 128.55 15.61 43.09 38.85 56.51 38.61 141.97 15.37 128.55"/><polygon class="cls-3" points="15.61 43.09 37.21 30.54 60.45 43.96 38.85 56.51 15.61 43.09"/><polygon class="cls-4" points="15.61 48.04 37.21 35.49 60.45 48.91 38.85 61.46 15.61 48.04"/><path d="M16.83,45.21l20.79,12-.23,82.63-20.79-12,.23-82.63m-1.22-2.12-.24,85.46L38.61,142l.24-85.46L15.61,43.09Z"/><polygon class="cls-5" points="0 53.58 20.79 65.58 37.62 55.8 16.83 43.79 0 53.58"/><polygon class="cls-5" points="58 43.96 37.21 31.96 20.38 41.74 41.17 53.74 58 43.96"/><polygon class="cls-5" points="19.16 42.45 18.06 43.09 38.84 55.09 39.94 54.45 19.16 42.45"/><polygon points="37.21 30.54 19.15 41.03 15.61 43.09 16.83 43.79 19.15 42.45 19.16 42.45 20.38 41.74 37.21 31.96 58 43.96 41.17 53.74 38.85 55.09 38.84 55.09 37.62 55.8 38.85 56.5 38.85 56.51 60.45 43.96 37.21 30.54"/><polygon points="38.85 56.51 60.45 43.96 60.2 129.42 38.61 141.97 38.85 56.51"/></g><g class="cls-2"><polygon points="75.84 118.53 97.44 105.98 97.31 150.84 75.72 163.39 75.84 118.53"/><path d="M80.63,106.52,102.22,94c-2.84,1.65-4.76,5.5-4.78,12L75.84,118.53C75.86,112,77.79,108.16,80.63,106.52Z"/><path d="M80.63,106.52,102.22,94c-2.84,1.65-4.76,5.5-4.78,12L75.84,118.53C75.86,112,77.79,108.16,80.63,106.52Z"/><polygon points="127.08 138.84 148.67 126.29 148.52 180.41 126.92 192.96 127.08 138.84"/><path class="cls-3" d="M121.55,76.6c-7.91-4.57-15.76-5.74-20.75-2.84L79.21,86.31c5-2.9,12.84-1.73,20.75,2.84,13.51,7.8,27.19,25.49,27.12,49.69l21.59-12.55C148.74,102.09,135.05,84.4,121.55,76.6Z"/><path d="M107.32,73.4c4,0,8.86,1.51,13.62,4.26,12.16,7,26.31,23.75,26.51,47.93l-19.17,11.14c-.73-24.47-15.22-41.43-27.71-48.64a31.26,31.26,0,0,0-14.11-4.57l15-8.7a11.61,11.61,0,0,1,5.9-1.41m0-1.23a12.86,12.86,0,0,0-6.52,1.58L79.21,86.31a12.86,12.86,0,0,1,6.52-1.58c4.25,0,9.23,1.53,14.23,4.42,13.51,7.8,27.19,25.49,27.12,49.69l21.59-12.55c.07-24.2-13.62-41.9-27.12-49.69-5-2.89-10-4.42-14.23-4.42Z"/><path class="cls-3" d="M93.29,83.39c-7.91-4.57-3.3-2.13-8.29.77l-5.8,2.14c5-2.9,12.84-1.73,20.75,2.84,13.51,7.8,27.18,24,27.11,48.17l3.28-1.83C130.41,111.29,106.8,91.19,93.29,83.39Z"/><path class="cls-3" d="M99.94,89.14c13.51,7.8,27.19,25.49,27.12,49.69l-.15,54.11-23.18-13.39.13-44.86c0-13.23-6.68-23.37-13.54-27.33-7.14-4.12-14.44-1.56-14.48,11.15l-.13,44.86L52.6,150l.24-85.46L75.94,77.92l0,11.51C80.07,83,90,83.37,99.94,89.14Z"/><polygon class="cls-3" points="52.86 64.59 74.45 52.05 97.55 65.38 75.95 77.93 52.86 64.59"/><path id="_Path_428" data-name="&lt;Path&gt;" class="cls-4" d="M139.53,99.69a67.6,67.6,0,0,0-18.19-15.06c-10.17-5.87-18.06-7.36-23.72-4.57l-.07,0-1,.59-.12.06,0,0L76.55,92q8.35-3.12,22.62,5.11a67.55,67.55,0,0,1,18.29,15.18Z"/><polygon class="cls-4" points="52.86 69.55 74.45 57 97.55 70.33 75.95 82.88 52.86 69.55"/><path d="M54.07,66.7,74.71,78.63l0,10.8v4.16l2.27-3.49c2.23-3.43,6-4.16,8.77-4.16,4,0,8.86,1.51,13.62,4.26,12.27,7.09,26.58,24.07,26.51,48.63l-.15,52-20.74-12,.13-44.15c0-13.95-7.08-24.31-14.16-28.39a13.5,13.5,0,0,0-6.63-2c-6,0-9.67,5.3-9.69,14.19l-.12,42.74L53.83,149.34l.23-82.63m-1.22-2.12L52.6,150l23.1,13.34.13-44.86c0-9.06,3.74-13,8.47-13a12.24,12.24,0,0,1,6,1.82c6.87,4,13.58,14.1,13.54,27.33l-.13,44.86,23.18,13.39.15-54.11c.07-24.2-13.62-41.9-27.12-49.69-5-2.89-10-4.42-14.23-4.42s-7.72,1.51-9.8,4.71l0-11.51L52.85,64.59Z"/><polygon points="75.95 77.93 97.55 65.38 97.52 76.89 75.92 89.44 75.95 77.93"/><polygon points="124.02 120.95 145.81 109.77 147.26 116.41 125.79 127.94 124.02 120.95"/><polygon points="74.31 51.97 56.25 62.46 52.71 64.51 53.93 65.22 56.25 63.87 56.26 63.87 57.48 63.16 74.31 53.38 95.1 65.39 78.27 75.17 75.95 76.51 75.95 76.51 74.72 77.22 75.95 77.93 75.95 77.93 97.55 65.38 74.31 51.97"/></g><g id="_Group_4" data-name="&lt;Group&gt;"><g id="_Group_5" data-name="&lt;Group&gt;"><path id="_Path_429" data-name="&lt;Path&gt;" class="cls-3" d="M40.38,1.36Q43,0,48,2.87a21.82,21.82,0,0,1,7.93,7.47,18.41,18.41,0,0,1,2.73,9.79q0,5.26-2.85,6.5L34.1,38.5,18.68,13.24Z"/><path id="_Compound_Path_" data-name="&lt;Compound Path&gt;" class="cls-6" d="M17.39,12.89,39.93.56h0C42-.52,44.82,0,48.45,2.07a22.82,22.82,0,0,1,8.26,7.79,19.4,19.4,0,0,1,2.86,10.27c0,3.89-1.15,6.36-3.33,7.31L33.77,39.73ZM40.81,2.18,20,13.58,34.43,37.27l21-11.49c1.53-.66,2.3-2.57,2.3-5.66a17.6,17.6,0,0,0-2.59-9.31,21,21,0,0,0-7.61-7.15,11.17,11.17,0,0,0-5.19-1.82A3.32,3.32,0,0,0,40.81,2.18Z"/><path id="_Path_430" data-name="&lt;Path&gt;" class="cls-3" d="M18.26,12.42c2.09-1.07,4.87-.57,8.49,1.53A22.82,22.82,0,0,1,35,21.73,19.4,19.4,0,0,1,37.88,32c0,3.89-1.15,6.36-3.41,7.35a5.68,5.68,0,0,1-2.3.46,13.2,13.2,0,0,1-6.34-2.12A21.79,21.79,0,0,1,18,30.09a19.33,19.33,0,0,1-2.86-10.17C15.11,16,16.17,13.49,18.26,12.42Z"/><path id="_Path_431" data-name="&lt;Path&gt;" class="cls-4" d="M47.66,5.76a21.82,21.82,0,0,1,7.93,7.47c.11.17.18.36.28.53L29.35,28.12c-.15-8.58-11-12-11-12L40,4.26Q42.7,2.9,47.66,5.76Z"/><path id="_Path_432" data-name="&lt;Path&gt;" d="M55.92,10.34a18.41,18.41,0,0,1,2.73,9.79q0,5.26-2.85,6.5l-19,10.3L34.93,22.59"/></g><g id="_Group_6" data-name="&lt;Group&gt;"><path class="cls-6" d="M20.64,13.71h0a11.2,11.2,0,0,1,5.2,1.82,21,21,0,0,1,7.61,7.16A17.59,17.59,0,0,1,36,32c0,3.09-.77,5-2.3,5.66a3.84,3.84,0,0,1-1.56.31,11.61,11.61,0,0,1-5.42-1.88,20,20,0,0,1-7.21-7,17.51,17.51,0,0,1-2.6-9.22c0-3.16.73-5.13,2.15-5.86a3.31,3.31,0,0,1,1.54-.34m0-1.84a5.14,5.14,0,0,0-2.38.55c-2.09,1.07-3.15,3.6-3.15,7.5A19.33,19.33,0,0,0,18,30.09a21.79,21.79,0,0,0,7.86,7.59,13.2,13.2,0,0,0,6.34,2.12,5.68,5.68,0,0,0,2.3-.46c2.26-1,3.41-3.45,3.41-7.35A19.4,19.4,0,0,0,35,21.73a22.83,22.83,0,0,0-8.26-7.79,12.77,12.77,0,0,0-6.11-2.07Z"/></g></g></g></g></svg>