<svg xmlns="http://www.w3.org/2000/svg" viewBox="0 0 87.04 54.4"><defs><style>.cls-1{fill:#271f3b;}</style></defs><title>Button Behance_1</title><g id="Layer_2" data-name="Layer 2"><g id="Contact_New" data-name="Contact New"><path class="cls-1" d="M79.78,7.25H54.4V0H79.78ZM86,43.52c-1.6,4.7-7.36,10.88-18.5,10.88S47.37,48.13,47.37,33.82,55.8,12.35,67.19,12.35c11.18,0,18,6.46,19.49,16.05A48.56,48.56,0,0,1,87,36.16H57.91c.47,11.64,12.63,12,16.64,7.36ZM58.17,29h18c-.38-5.61-4.12-8-9-8C61.87,21,58.93,23.75,58.17,29ZM23.45,54.35H0V.08H25.21c19.86.29,20.24,19.74,9.86,25C47.63,29.69,48.05,54.35,23.45,54.35ZM10.88,21.76h13c9.1,0,10.54-10.88-1.13-10.88H10.88Zm12.3,10.88H10.88V43.58H23C34.07,43.58,33.4,32.64,23.18,32.64Z"/></g></g></svg>