<svg xmlns="http://www.w3.org/2000/svg" viewBox="0 0 182 237.52"><defs><style>.cls-1{fill:#ffbe2e;}.cls-2{fill:#0d1858;}.cls-3{fill:#16110d;}.cls-4{fill:#f4e3cc;}</style></defs><title>Button Behance_1</title><g id="Layer_2" data-name="Layer 2"><g id="Contact"><g id="_Group_" data-name="&lt;Group&gt;"><g id="_Group_2" data-name="&lt;Group&gt;"><g id="_Group_3" data-name="&lt;Group&gt;"><g id="_Group_4" data-name="&lt;Group&gt;"><g id="_Group_5" data-name="&lt;Group&gt;"><g id="_Group_6" data-name="&lt;Group&gt;"><g id="_Group_7" data-name="&lt;Group&gt;"><path id="_Path_" data-name="&lt;Path&gt;" class="cls-1" d="M10.31,18.05,37.57,3.88c.24-.15.49-.27.74-.41l.75-.41,0,0C45,.38,52.72,1.11,61.25,6l86.08,49c18.3,10.57,33.13,36.26,33.13,57.39v65.13c0,10.45-3.64,17.81-9.52,21.32v0l-.1.06-.27.15-35.93,18.46c-.22,1.53-.53,2.36-1.51,2.8l-.33.21-.08,0-5.78,3.15-20.52,11.46s-15.54-49.6-15.54-50.38,11.34-14.27,11.34-14.27l22.77,25-17.7-26.86c-5.53-8.4-12.45-15.23-19.58-19.35L46.26,125.43C28,114.86,39,104.79,39,83.65V35.37Z"/></g></g></g></g></g><g id="_Group_8" data-name="&lt;Group&gt;"><g id="_Group_9" data-name="&lt;Group&gt;"><g id="_Group_10" data-name="&lt;Group&gt;"><g id="_Group_11" data-name="&lt;Group&gt;"><g id="_Group_12" data-name="&lt;Group&gt;"><g id="_Group_13" data-name="&lt;Group&gt;"><polygon id="_Path_2" data-name="&lt;Path&gt;" class="cls-2" points="16.69 20.11 13.45 18.16 13.88 17.93 16.69 20.11"/></g></g></g></g></g><g id="_Group_14" data-name="&lt;Group&gt;"><g id="_Group_15" data-name="&lt;Group&gt;"><g id="_Group_16" data-name="&lt;Group&gt;"><g id="_Group_17" data-name="&lt;Group&gt;"><g id="_Group_18" data-name="&lt;Group&gt;"><path id="_Path_3" data-name="&lt;Path&gt;" class="cls-3" d="M40.52,83.65c0,20.61-11.34,30.14,6.51,40.44L88.49,148c7.31,4.22,14.45,11.26,20.1,19.84l17.7,26.86-2.42,1.88-21.58-23.7c-4.33,5.18-8.7,10.57-9.76,12.14,1.09,3.94,9.09,29.64,14.81,47.9l.47-.26V209.48l5.08-3.91L128,214l6.82,1.73,14.35-7.37,4.75-10.05.73-70.39-3.07-15.7,25.12-14.75c-4.73-16.6-16.43-33.22-30.1-41.11l-86.08-49C52.76,2.9,45.4,1.88,39.76,4.49l-.86.41-.62.34L13.89,17.93l-2.67-2.08L36.78,2.56c.23-.13.45-.26.8-.44l1.68-.86.08.06C45.76-1.24,53.77-.06,62,4.7l86.08,49C166.79,64.5,182,90.84,182,112.43v65.13c0,10.29-3.41,18.15-9.61,22.23l-.83.52-.19.1-.1.06-.15.07-35.09,18a3.87,3.87,0,0,1-2.08,3.08l-1,.57c-3.27,1.78-4.64,2.53-5.29,2.84l0,0L106,237.21,105,235.67c-15.61-49.83-15.61-50.53-15.61-50.83,0-.65,0-1.33,11.7-15.26l1.13-1.35L112.9,180,106,169.56c-5.39-8.18-12.16-14.88-19.07-18.86L45.49,126.76c-18.69-10.79-8-21.52-8-43.1V36.24L16.69,20.11,40.52,34.5Z"/></g></g></g></g></g></g><g id="_Group_19" data-name="&lt;Group&gt;"><g id="_Group_20" data-name="&lt;Group&gt;"><g id="_Group_21" data-name="&lt;Group&gt;"><g id="_Group_22" data-name="&lt;Group&gt;"><g id="_Group_23" data-name="&lt;Group&gt;"><path id="_Path_4" data-name="&lt;Path&gt;" class="cls-4" d="M34.67,19.79l86.08,49c18.3,10.57,33.14,36.26,33.14,57.39v65.13c0,21.13-14.83,29.7-33.14,19.13l-5.52-3.18c-4.27-2.46-7.73-.47-7.73,4.46v20c0,5.82-5.85,5.65-9.75-.28L69.86,189.1c-5.53-8.4-12.45-15.23-19.58-19.35l-15.6-8.32C16.37,150.87,1.54,125.18,1.54,104V38.92C1.54,17.79,16.37,9.22,34.67,19.79Z"/></g></g></g></g></g><g id="_Group_24" data-name="&lt;Group&gt;"><g id="_Group_25" data-name="&lt;Group&gt;"><g id="_Group_26" data-name="&lt;Group&gt;"><path id="_Path_5" data-name="&lt;Path&gt;" class="cls-1" d="M120.24,68.1l-86.08-49A32.28,32.28,0,0,0,22,14.77C15.57,18,11.5,25.58,11.5,36.62v65.13c0,21.13,14.83,46.83,33.13,57.39l15.6,8.32c7.14,4.12,14.05,11,19.58,19.35L107,228.06V211c0-4.93,3.46-6.93,7.73-4.46l2.85,1.65a86.09,86.09,0,0,0,8.81,6.21h10.14c4.28,2.47,2.54-2.42,6.3-2,6.48-3.24,10.55-10.81,10.55-21.85V125.49C153.38,104.36,138.54,78.66,120.24,68.1Z"/></g></g></g><g id="_Group_27" data-name="&lt;Group&gt;"><g id="_Group_28" data-name="&lt;Group&gt;"><g id="_Group_29" data-name="&lt;Group&gt;"><g id="_Group_30" data-name="&lt;Group&gt;"><g id="_Group_31" data-name="&lt;Group&gt;"><path id="_Path_6" data-name="&lt;Path&gt;" class="cls-4" d="M33.87,28.77c-8.1-4.68-15.51-5.59-21.26-3.34L38.26,12l0,0c5.87-2.71,13.61-2,22.14,2.93l86.08,49A61.92,61.92,0,0,1,164.1,80L138.3,94.78a62.65,62.65,0,0,0-18.35-17Z"/></g></g></g></g></g><g id="_Group_32" data-name="&lt;Group&gt;"><g id="_Group_33" data-name="&lt;Group&gt;"><g id="_Group_34" data-name="&lt;Group&gt;"><g id="_Group_35" data-name="&lt;Group&gt;"><g id="_Group_36" data-name="&lt;Group&gt;"><path id="_Compound_Path_" data-name="&lt;Compound Path&gt;" class="cls-3" d="M96.47,232.29l-27.9-42.34c-5.38-8.17-12.16-14.87-19.07-18.86l-15.6-8.32C15.21,152,0,125.63,0,104V38.92C0,28.13,3.72,20,10.47,16.14s15.63-3.07,25,2.32l86.08,49c18.7,10.79,33.9,37.14,33.9,58.72v65.13c0,10.79-3.72,18.88-10.47,22.78s-15.63,3.07-25-2.32l-5.52-3.18c-1.55-.89-3-1.09-3.93-.54s-1.5,1.89-1.5,3.67v20c0,2.86-1.28,5-3.43,5.6a4.85,4.85,0,0,1-1.4.2C101.59,237.52,98.63,235.57,96.47,232.29ZM116,205.93l5.52,3.18c8.35,4.82,16.13,5.65,21.89,2.32s8.94-10.47,8.94-20.12V126.19c0-20.61-14.52-45.76-32.37-56.06l-86.08-49C25.55,16.29,17.77,15.48,12,18.8S3.08,29.27,3.08,38.92V104c0,20.61,14.52,45.76,32.37,56.06L51,168.42c7.32,4.22,14.46,11.27,20.1,19.84L99,230.59c2,3,4.39,4.17,5.69,3.78,1.08-.32,1.24-1.8,1.24-2.66v-20c0-3,1.08-5.2,3-6.33a5.49,5.49,0,0,1,2.78-.73A8.54,8.54,0,0,1,116,205.93Z"/></g></g></g></g></g></g></g><path d="M69,110.61c13.09,13,13.45,42.9-12.24,28.06L32.28,124.54l.18-65.12,26.33,15.2C79.52,86.94,79.85,110.5,69,110.61ZM57.32,99.83c9.5,5.48,11-6.7-1.15-13.73L43.79,78.94l0,13.05,13.57,7.84m-1,25.64c11.57,6.68,10.9-6.85.23-13L43.71,105l0,13.12,12.65,7.3"/><path d="M122.87,145.65a71.37,71.37,0,0,1,.33,9.52L92.81,137.62c.28,8.9,5.34,15.27,10.12,18,2.88,1.66,5.65,2,7.23.82l12,6.93c-1.69,4.68-7.72,8.61-19.35,1.9a41.88,41.88,0,0,1-21-36.85c0-17,8.88-20.67,20.77-13.81A41.66,41.66,0,0,1,122.87,145.65ZM93.1,129.2l18.8,10.86A18.26,18.26,0,0,0,102.55,125c-5.55-3.2-8.63-1.63-9.45,4.22"/><polygon points="115.77 107.42 115.74 116.13 89.24 100.82 89.26 92.12 115.77 107.42"/></g></g></svg>