<svg xmlns="http://www.w3.org/2000/svg" viewBox="0 0 134.18 162.69"><defs><style>.cls-1{fill:#16110d;}.cls-2{isolation:isolate;}.cls-3{fill:none;}.cls-3,.cls-4{stroke:#000;stroke-linejoin:round;stroke-width:1.69px;}.cls-5{fill:#ffbe2e;}.cls-6{fill:#fec;}</style></defs><title>Button Github</title><g id="Layer_2" data-name="Layer 2"><g id="Contact"><g id="_Group_" data-name="&lt;Group&gt;"><path id="_Path_" data-name="&lt;Path&gt;" class="cls-1" d="M100.06,161.79a.39.39,0,0,1,0,.75,1.43,1.43,0,0,1-1.3,0,.39.39,0,0,1,0-.75A1.43,1.43,0,0,1,100.06,161.79Z"/><path id="_Path_2" data-name="&lt;Path&gt;" class="cls-1" d="M103.45,159.83a.39.39,0,0,1,0,.75,1.43,1.43,0,0,1-1.3,0,.39.39,0,0,1,0-.75A1.43,1.43,0,0,1,103.45,159.83Z"/><path id="_Path_3" data-name="&lt;Path&gt;" class="cls-1" d="M106.84,157.88a.39.39,0,0,1,0,.75,1.43,1.43,0,0,1-1.3,0,.39.39,0,0,1,0-.75A1.43,1.43,0,0,1,106.84,157.88Z"/><path id="_Path_4" data-name="&lt;Path&gt;" class="cls-1" d="M110.23,155.92a.39.39,0,0,1,0,.75,1.43,1.43,0,0,1-1.3,0,.4.4,0,0,1,0-.75A1.43,1.43,0,0,1,110.23,155.92Z"/><path id="_Path_5" data-name="&lt;Path&gt;" class="cls-1" d="M113.61,154a.39.39,0,0,1,0,.75,1.43,1.43,0,0,1-1.3,0,.39.39,0,0,1,0-.75A1.43,1.43,0,0,1,113.61,154Z"/><path id="_Path_6" data-name="&lt;Path&gt;" class="cls-1" d="M117,152a.39.39,0,0,1,0,.75,1.43,1.43,0,0,1-1.3,0,.39.39,0,0,1,0-.75A1.43,1.43,0,0,1,117,152Z"/><path id="_Path_7" data-name="&lt;Path&gt;" class="cls-1" d="M120.39,150.05a.39.39,0,0,1,0,.75,1.43,1.43,0,0,1-1.3,0,.39.39,0,0,1,0-.75A1.43,1.43,0,0,1,120.39,150.05Z"/><path id="_Path_8" data-name="&lt;Path&gt;" class="cls-1" d="M123.78,148.1a.39.39,0,0,1,0,.75,1.43,1.43,0,0,1-1.3,0,.39.39,0,0,1,0-.75A1.43,1.43,0,0,1,123.78,148.1Z"/><path id="_Path_9" data-name="&lt;Path&gt;" class="cls-1" d="M96.67,159.83a.39.39,0,0,1,0,.75,1.43,1.43,0,0,1-1.3,0,.39.39,0,0,1,0-.75A1.43,1.43,0,0,1,96.67,159.83Z"/><path id="_Path_10" data-name="&lt;Path&gt;" class="cls-1" d="M100.06,157.88a.39.39,0,0,1,0,.75,1.43,1.43,0,0,1-1.3,0,.39.39,0,0,1,0-.75A1.43,1.43,0,0,1,100.06,157.88Z"/><path id="_Path_11" data-name="&lt;Path&gt;" class="cls-1" d="M103.45,155.92a.4.4,0,0,1,0,.75,1.43,1.43,0,0,1-1.3,0,.4.4,0,0,1,0-.75A1.43,1.43,0,0,1,103.45,155.92Z"/><path id="_Path_12" data-name="&lt;Path&gt;" class="cls-1" d="M106.84,154a.39.39,0,0,1,0,.75,1.43,1.43,0,0,1-1.3,0,.39.39,0,0,1,0-.75A1.43,1.43,0,0,1,106.84,154Z"/><path id="_Path_13" data-name="&lt;Path&gt;" class="cls-1" d="M110.23,152a.39.39,0,0,1,0,.75,1.43,1.43,0,0,1-1.3,0,.39.39,0,0,1,0-.75A1.43,1.43,0,0,1,110.23,152Z"/><path id="_Path_14" data-name="&lt;Path&gt;" class="cls-1" d="M113.61,150.05a.39.39,0,0,1,0,.75,1.43,1.43,0,0,1-1.3,0,.39.39,0,0,1,0-.75A1.43,1.43,0,0,1,113.61,150.05Z"/><path id="_Path_15" data-name="&lt;Path&gt;" class="cls-1" d="M117,148.1a.39.39,0,0,1,0,.75,1.43,1.43,0,0,1-1.3,0,.39.39,0,0,1,0-.75A1.43,1.43,0,0,1,117,148.1Z"/><path id="_Path_16" data-name="&lt;Path&gt;" class="cls-1" d="M120.39,146.14a.39.39,0,0,1,0,.75,1.43,1.43,0,0,1-1.3,0,.39.39,0,0,1,0-.75A1.43,1.43,0,0,1,120.39,146.14Z"/><path id="_Path_17" data-name="&lt;Path&gt;" class="cls-1" d="M93.29,157.88a.4.4,0,0,1,0,.75,1.43,1.43,0,0,1-1.3,0,.4.4,0,0,1,0-.75A1.43,1.43,0,0,1,93.29,157.88Z"/><path id="_Path_18" data-name="&lt;Path&gt;" class="cls-1" d="M96.67,155.92a.39.39,0,0,1,0,.75,1.43,1.43,0,0,1-1.3,0,.39.39,0,0,1,0-.75A1.43,1.43,0,0,1,96.67,155.92Z"/><path id="_Path_19" data-name="&lt;Path&gt;" class="cls-1" d="M100.06,154a.39.39,0,0,1,0,.75,1.43,1.43,0,0,1-1.3,0,.39.39,0,0,1,0-.75A1.43,1.43,0,0,1,100.06,154Z"/><path id="_Path_20" data-name="&lt;Path&gt;" class="cls-1" d="M103.45,152a.39.39,0,0,1,0,.75,1.43,1.43,0,0,1-1.3,0,.39.39,0,0,1,0-.75A1.43,1.43,0,0,1,103.45,152Z"/><path id="_Path_21" data-name="&lt;Path&gt;" class="cls-1" d="M106.84,150.05a.39.39,0,0,1,0,.75,1.43,1.43,0,0,1-1.3,0,.39.39,0,0,1,0-.75A1.43,1.43,0,0,1,106.84,150.05Z"/><path id="_Path_22" data-name="&lt;Path&gt;" class="cls-1" d="M110.23,148.1a.39.39,0,0,1,0,.75,1.43,1.43,0,0,1-1.3,0,.39.39,0,0,1,0-.75A1.43,1.43,0,0,1,110.23,148.1Z"/><path id="_Path_23" data-name="&lt;Path&gt;" class="cls-1" d="M113.61,146.14a.39.39,0,0,1,0,.75,1.43,1.43,0,0,1-1.3,0,.39.39,0,0,1,0-.75A1.43,1.43,0,0,1,113.61,146.14Z"/><path id="_Path_24" data-name="&lt;Path&gt;" class="cls-1" d="M117,144.19a.39.39,0,0,1,0,.75,1.43,1.43,0,0,1-1.3,0,.39.39,0,0,1,0-.75A1.43,1.43,0,0,1,117,144.19Z"/><path id="_Path_25" data-name="&lt;Path&gt;" class="cls-1" d="M89.87,155.9a.39.39,0,0,1,0,.75,1.43,1.43,0,0,1-1.3,0,.39.39,0,0,1,0-.75A1.43,1.43,0,0,1,89.87,155.9Z"/><path id="_Path_26" data-name="&lt;Path&gt;" class="cls-1" d="M93.26,153.94a.39.39,0,0,1,0,.75,1.43,1.43,0,0,1-1.3,0,.39.39,0,0,1,0-.75A1.43,1.43,0,0,1,93.26,153.94Z"/><path id="_Path_27" data-name="&lt;Path&gt;" class="cls-1" d="M96.64,152a.39.39,0,0,1,0,.75,1.43,1.43,0,0,1-1.3,0,.39.39,0,0,1,0-.75A1.43,1.43,0,0,1,96.64,152Z"/><path id="_Path_28" data-name="&lt;Path&gt;" class="cls-1" d="M100,150a.39.39,0,0,1,0,.75,1.43,1.43,0,0,1-1.3,0,.39.39,0,0,1,0-.75A1.43,1.43,0,0,1,100,150Z"/><path id="_Path_29" data-name="&lt;Path&gt;" class="cls-1" d="M103.42,148.08a.39.39,0,0,1,0,.75,1.43,1.43,0,0,1-1.3,0,.39.39,0,0,1,0-.75A1.43,1.43,0,0,1,103.42,148.08Z"/><path id="_Path_30" data-name="&lt;Path&gt;" class="cls-1" d="M106.81,146.12a.39.39,0,0,1,0,.75,1.43,1.43,0,0,1-1.3,0,.39.39,0,0,1,0-.75A1.43,1.43,0,0,1,106.81,146.12Z"/><path id="_Path_31" data-name="&lt;Path&gt;" class="cls-1" d="M110.2,144.16a.39.39,0,0,1,0,.75,1.43,1.43,0,0,1-1.3,0,.39.39,0,0,1,0-.75A1.43,1.43,0,0,1,110.2,144.16Z"/><path id="_Path_32" data-name="&lt;Path&gt;" class="cls-1" d="M113.58,142.21a.39.39,0,0,1,0,.75,1.43,1.43,0,0,1-1.3,0,.39.39,0,0,1,0-.75A1.43,1.43,0,0,1,113.58,142.21Z"/><path id="_Path_33" data-name="&lt;Path&gt;" class="cls-1" d="M86.48,153.94a.39.39,0,0,1,0,.75,1.43,1.43,0,0,1-1.3,0,.39.39,0,0,1,0-.75A1.43,1.43,0,0,1,86.48,153.94Z"/><path id="_Path_34" data-name="&lt;Path&gt;" class="cls-1" d="M89.87,152a.39.39,0,0,1,0,.75,1.43,1.43,0,0,1-1.3,0,.39.39,0,0,1,0-.75A1.43,1.43,0,0,1,89.87,152Z"/><path id="_Path_35" data-name="&lt;Path&gt;" class="cls-1" d="M93.26,150a.39.39,0,0,1,0,.75,1.43,1.43,0,0,1-1.3,0,.39.39,0,0,1,0-.75A1.43,1.43,0,0,1,93.26,150Z"/><path id="_Path_36" data-name="&lt;Path&gt;" class="cls-1" d="M96.64,148.08a.39.39,0,0,1,0,.75,1.43,1.43,0,0,1-1.3,0,.39.39,0,0,1,0-.75A1.43,1.43,0,0,1,96.64,148.08Z"/><path id="_Path_37" data-name="&lt;Path&gt;" class="cls-1" d="M100,146.12a.39.39,0,0,1,0,.75,1.43,1.43,0,0,1-1.3,0,.39.39,0,0,1,0-.75A1.43,1.43,0,0,1,100,146.12Z"/><path id="_Path_38" data-name="&lt;Path&gt;" class="cls-1" d="M103.42,144.16a.39.39,0,0,1,0,.75,1.43,1.43,0,0,1-1.3,0,.39.39,0,0,1,0-.75A1.43,1.43,0,0,1,103.42,144.16Z"/><path id="_Path_39" data-name="&lt;Path&gt;" class="cls-1" d="M106.81,142.21a.39.39,0,0,1,0,.75,1.43,1.43,0,0,1-1.3,0,.39.39,0,0,1,0-.75A1.43,1.43,0,0,1,106.81,142.21Z"/><path id="_Path_40" data-name="&lt;Path&gt;" class="cls-1" d="M110.2,140.25a.39.39,0,0,1,0,.75,1.43,1.43,0,0,1-1.3,0,.39.39,0,0,1,0-.75A1.43,1.43,0,0,1,110.2,140.25Z"/><path id="_Path_41" data-name="&lt;Path&gt;" class="cls-1" d="M83.09,152a.39.39,0,0,1,0,.75,1.43,1.43,0,0,1-1.3,0,.39.39,0,0,1,0-.75A1.43,1.43,0,0,1,83.09,152Z"/><path id="_Path_42" data-name="&lt;Path&gt;" class="cls-1" d="M86.48,150a.39.39,0,0,1,0,.75,1.43,1.43,0,0,1-1.3,0,.39.39,0,0,1,0-.75A1.43,1.43,0,0,1,86.48,150Z"/><path id="_Path_43" data-name="&lt;Path&gt;" class="cls-1" d="M89.87,148.08a.4.4,0,0,1,0,.75,1.43,1.43,0,0,1-1.3,0,.39.39,0,0,1,0-.75A1.43,1.43,0,0,1,89.87,148.08Z"/><path id="_Path_44" data-name="&lt;Path&gt;" class="cls-1" d="M93.26,146.12a.39.39,0,0,1,0,.75,1.43,1.43,0,0,1-1.3,0,.39.39,0,0,1,0-.75A1.43,1.43,0,0,1,93.26,146.12Z"/><path id="_Path_45" data-name="&lt;Path&gt;" class="cls-1" d="M96.64,144.16a.39.39,0,0,1,0,.75,1.43,1.43,0,0,1-1.3,0,.39.39,0,0,1,0-.75A1.43,1.43,0,0,1,96.64,144.16Z"/><path id="_Path_46" data-name="&lt;Path&gt;" class="cls-1" d="M100,142.21a.39.39,0,0,1,0,.75,1.43,1.43,0,0,1-1.3,0,.39.39,0,0,1,0-.75A1.43,1.43,0,0,1,100,142.21Z"/><path id="_Path_47" data-name="&lt;Path&gt;" class="cls-1" d="M103.42,140.25a.39.39,0,0,1,0,.75,1.43,1.43,0,0,1-1.3,0,.39.39,0,0,1,0-.75A1.43,1.43,0,0,1,103.42,140.25Z"/><path id="_Path_48" data-name="&lt;Path&gt;" class="cls-1" d="M106.81,138.3a.39.39,0,0,1,0,.75,1.43,1.43,0,0,1-1.3,0,.39.39,0,0,1,0-.75A1.43,1.43,0,0,1,106.81,138.3Z"/><path id="_Path_49" data-name="&lt;Path&gt;" class="cls-1" d="M79.71,150a.39.39,0,0,1,0,.75,1.43,1.43,0,0,1-1.3,0,.39.39,0,0,1,0-.75A1.43,1.43,0,0,1,79.71,150Z"/><path id="_Path_50" data-name="&lt;Path&gt;" class="cls-1" d="M83.09,148.08a.39.39,0,0,1,0,.75,1.43,1.43,0,0,1-1.3,0,.4.4,0,0,1,0-.75A1.43,1.43,0,0,1,83.09,148.08Z"/><path id="_Path_51" data-name="&lt;Path&gt;" class="cls-1" d="M86.48,146.12a.39.39,0,0,1,0,.75,1.43,1.43,0,0,1-1.3,0,.39.39,0,0,1,0-.75A1.43,1.43,0,0,1,86.48,146.12Z"/><path id="_Path_52" data-name="&lt;Path&gt;" class="cls-1" d="M89.87,144.16a.39.39,0,0,1,0,.75,1.43,1.43,0,0,1-1.3,0,.39.39,0,0,1,0-.75A1.43,1.43,0,0,1,89.87,144.16Z"/><path id="_Path_53" data-name="&lt;Path&gt;" class="cls-1" d="M93.26,142.21a.39.39,0,0,1,0,.75,1.43,1.43,0,0,1-1.3,0,.39.39,0,0,1,0-.75A1.43,1.43,0,0,1,93.26,142.21Z"/><path id="_Path_54" data-name="&lt;Path&gt;" class="cls-1" d="M96.64,140.25a.39.39,0,0,1,0,.75,1.43,1.43,0,0,1-1.3,0,.39.39,0,0,1,0-.75A1.43,1.43,0,0,1,96.64,140.25Z"/><path id="_Path_55" data-name="&lt;Path&gt;" class="cls-1" d="M100,138.3a.39.39,0,0,1,0,.75,1.43,1.43,0,0,1-1.3,0,.39.39,0,0,1,0-.75A1.43,1.43,0,0,1,100,138.3Z"/><path id="_Path_56" data-name="&lt;Path&gt;" class="cls-1" d="M103.42,136.34a.39.39,0,0,1,0,.75,1.43,1.43,0,0,1-1.3,0,.39.39,0,0,1,0-.75A1.43,1.43,0,0,1,103.42,136.34Z"/><path id="_Path_57" data-name="&lt;Path&gt;" class="cls-1" d="M76.32,148.08a.39.39,0,0,1,0,.75,1.43,1.43,0,0,1-1.3,0,.39.39,0,0,1,0-.75A1.43,1.43,0,0,1,76.32,148.08Z"/><path id="_Path_58" data-name="&lt;Path&gt;" class="cls-1" d="M79.71,146.12a.39.39,0,0,1,0,.75,1.43,1.43,0,0,1-1.3,0,.39.39,0,0,1,0-.75A1.43,1.43,0,0,1,79.71,146.12Z"/><path id="_Path_59" data-name="&lt;Path&gt;" class="cls-1" d="M83.09,144.16a.39.39,0,0,1,0,.75,1.43,1.43,0,0,1-1.3,0,.39.39,0,0,1,0-.75A1.43,1.43,0,0,1,83.09,144.16Z"/><path id="_Path_60" data-name="&lt;Path&gt;" class="cls-1" d="M86.48,142.21a.39.39,0,0,1,0,.75,1.43,1.43,0,0,1-1.3,0,.39.39,0,0,1,0-.75A1.43,1.43,0,0,1,86.48,142.21Z"/><path id="_Path_61" data-name="&lt;Path&gt;" class="cls-1" d="M89.87,140.25a.39.39,0,0,1,0,.75,1.43,1.43,0,0,1-1.3,0,.39.39,0,0,1,0-.75A1.43,1.43,0,0,1,89.87,140.25Z"/><path id="_Path_62" data-name="&lt;Path&gt;" class="cls-1" d="M93.26,138.3a.39.39,0,0,1,0,.75,1.43,1.43,0,0,1-1.3,0,.39.39,0,0,1,0-.75A1.43,1.43,0,0,1,93.26,138.3Z"/><path id="_Path_63" data-name="&lt;Path&gt;" class="cls-1" d="M96.64,136.34a.39.39,0,0,1,0,.75,1.43,1.43,0,0,1-1.3,0,.39.39,0,0,1,0-.75A1.43,1.43,0,0,1,96.64,136.34Z"/><path id="_Path_64" data-name="&lt;Path&gt;" class="cls-1" d="M100,134.38a.39.39,0,0,1,0,.75,1.43,1.43,0,0,1-1.3,0,.39.39,0,0,1,0-.75A1.43,1.43,0,0,1,100,134.38Z"/><path id="_Path_65" data-name="&lt;Path&gt;" class="cls-1" d="M72.93,146.12a.39.39,0,0,1,0,.75,1.43,1.43,0,0,1-1.3,0,.39.39,0,0,1,0-.75A1.43,1.43,0,0,1,72.93,146.12Z"/><path id="_Path_66" data-name="&lt;Path&gt;" class="cls-1" d="M76.32,144.16a.39.39,0,0,1,0,.75,1.43,1.43,0,0,1-1.3,0,.39.39,0,0,1,0-.75A1.43,1.43,0,0,1,76.32,144.16Z"/><path id="_Path_67" data-name="&lt;Path&gt;" class="cls-1" d="M79.71,142.21a.39.39,0,0,1,0,.75,1.43,1.43,0,0,1-1.3,0,.39.39,0,0,1,0-.75A1.43,1.43,0,0,1,79.71,142.21Z"/><path id="_Path_68" data-name="&lt;Path&gt;" class="cls-1" d="M83.09,140.25a.39.39,0,0,1,0,.75,1.43,1.43,0,0,1-1.3,0,.39.39,0,0,1,0-.75A1.43,1.43,0,0,1,83.09,140.25Z"/><path id="_Path_69" data-name="&lt;Path&gt;" class="cls-1" d="M86.48,138.3a.39.39,0,0,1,0,.75,1.43,1.43,0,0,1-1.3,0,.39.39,0,0,1,0-.75A1.43,1.43,0,0,1,86.48,138.3Z"/><path id="_Path_70" data-name="&lt;Path&gt;" class="cls-1" d="M89.87,136.34a.39.39,0,0,1,0,.75,1.43,1.43,0,0,1-1.3,0,.39.39,0,0,1,0-.75A1.43,1.43,0,0,1,89.87,136.34Z"/><path id="_Path_71" data-name="&lt;Path&gt;" class="cls-1" d="M93.26,134.38a.39.39,0,0,1,0,.75,1.43,1.43,0,0,1-1.3,0,.39.39,0,0,1,0-.75A1.43,1.43,0,0,1,93.26,134.38Z"/><path id="_Path_72" data-name="&lt;Path&gt;" class="cls-1" d="M96.64,132.43a.39.39,0,0,1,0,.75,1.43,1.43,0,0,1-1.3,0,.39.39,0,0,1,0-.75A1.43,1.43,0,0,1,96.64,132.43Z"/><path id="_Path_73" data-name="&lt;Path&gt;" class="cls-1" d="M69.54,144.16a.39.39,0,0,1,0,.75,1.43,1.43,0,0,1-1.3,0,.39.39,0,0,1,0-.75A1.43,1.43,0,0,1,69.54,144.16Z"/><path id="_Path_74" data-name="&lt;Path&gt;" class="cls-1" d="M72.93,142.21a.39.39,0,0,1,0,.75,1.43,1.43,0,0,1-1.3,0,.39.39,0,0,1,0-.75A1.43,1.43,0,0,1,72.93,142.21Z"/><path id="_Path_75" data-name="&lt;Path&gt;" class="cls-1" d="M76.32,140.25a.39.39,0,0,1,0,.75,1.43,1.43,0,0,1-1.3,0,.39.39,0,0,1,0-.75A1.43,1.43,0,0,1,76.32,140.25Z"/><path id="_Path_76" data-name="&lt;Path&gt;" class="cls-1" d="M79.71,138.3a.39.39,0,0,1,0,.75,1.43,1.43,0,0,1-1.3,0,.39.39,0,0,1,0-.75A1.43,1.43,0,0,1,79.71,138.3Z"/><path id="_Path_77" data-name="&lt;Path&gt;" class="cls-1" d="M83.09,136.34a.39.39,0,0,1,0,.75,1.43,1.43,0,0,1-1.3,0,.39.39,0,0,1,0-.75A1.43,1.43,0,0,1,83.09,136.34Z"/><path id="_Path_78" data-name="&lt;Path&gt;" class="cls-1" d="M86.48,134.38a.39.39,0,0,1,0,.75,1.43,1.43,0,0,1-1.3,0,.39.39,0,0,1,0-.75A1.43,1.43,0,0,1,86.48,134.38Z"/><path id="_Path_79" data-name="&lt;Path&gt;" class="cls-1" d="M89.87,132.43a.39.39,0,0,1,0,.75,1.43,1.43,0,0,1-1.3,0,.39.39,0,0,1,0-.75A1.43,1.43,0,0,1,89.87,132.43Z"/><path id="_Path_80" data-name="&lt;Path&gt;" class="cls-1" d="M93.26,130.47a.4.4,0,0,1,0,.75,1.43,1.43,0,0,1-1.3,0,.4.4,0,0,1,0-.75A1.43,1.43,0,0,1,93.26,130.47Z"/><path id="_Path_81" data-name="&lt;Path&gt;" class="cls-1" d="M66.15,142.21a.39.39,0,0,1,0,.75,1.43,1.43,0,0,1-1.3,0,.39.39,0,0,1,0-.75A1.43,1.43,0,0,1,66.15,142.21Z"/><path id="_Path_82" data-name="&lt;Path&gt;" class="cls-1" d="M69.54,140.25a.39.39,0,0,1,0,.75,1.43,1.43,0,0,1-1.3,0,.39.39,0,0,1,0-.75A1.43,1.43,0,0,1,69.54,140.25Z"/><path id="_Path_83" data-name="&lt;Path&gt;" class="cls-1" d="M72.93,138.3a.39.39,0,0,1,0,.75,1.43,1.43,0,0,1-1.3,0,.39.39,0,0,1,0-.75A1.43,1.43,0,0,1,72.93,138.3Z"/><path id="_Path_84" data-name="&lt;Path&gt;" class="cls-1" d="M76.32,136.34a.39.39,0,0,1,0,.75,1.43,1.43,0,0,1-1.3,0,.39.39,0,0,1,0-.75A1.43,1.43,0,0,1,76.32,136.34Z"/><path id="_Path_85" data-name="&lt;Path&gt;" class="cls-1" d="M79.71,134.38a.39.39,0,0,1,0,.75,1.43,1.43,0,0,1-1.3,0,.39.39,0,0,1,0-.75A1.43,1.43,0,0,1,79.71,134.38Z"/><path id="_Path_86" data-name="&lt;Path&gt;" class="cls-1" d="M83.09,132.43a.39.39,0,0,1,0,.75,1.43,1.43,0,0,1-1.3,0,.39.39,0,0,1,0-.75A1.43,1.43,0,0,1,83.09,132.43Z"/><path id="_Path_87" data-name="&lt;Path&gt;" class="cls-1" d="M86.48,130.47a.4.4,0,0,1,0,.75,1.43,1.43,0,0,1-1.3,0,.4.4,0,0,1,0-.75A1.43,1.43,0,0,1,86.48,130.47Z"/><path id="_Path_88" data-name="&lt;Path&gt;" class="cls-1" d="M89.87,128.52a.39.39,0,0,1,0,.75,1.43,1.43,0,0,1-1.3,0,.39.39,0,0,1,0-.75A1.43,1.43,0,0,1,89.87,128.52Z"/><path id="_Path_89" data-name="&lt;Path&gt;" class="cls-1" d="M62.74,140.23a.4.4,0,0,1,0,.75,1.43,1.43,0,0,1-1.3,0,.39.39,0,0,1,0-.75A1.43,1.43,0,0,1,62.74,140.23Z"/><path id="_Path_90" data-name="&lt;Path&gt;" class="cls-1" d="M66.12,138.28a.39.39,0,0,1,0,.75,1.43,1.43,0,0,1-1.3,0,.39.39,0,0,1,0-.75A1.43,1.43,0,0,1,66.12,138.28Z"/><path id="_Path_91" data-name="&lt;Path&gt;" class="cls-1" d="M69.51,136.32a.39.39,0,0,1,0,.75,1.43,1.43,0,0,1-1.3,0,.39.39,0,0,1,0-.75A1.43,1.43,0,0,1,69.51,136.32Z"/><path id="_Path_92" data-name="&lt;Path&gt;" class="cls-1" d="M72.9,134.36a.39.39,0,0,1,0,.75,1.43,1.43,0,0,1-1.3,0,.39.39,0,0,1,0-.75A1.43,1.43,0,0,1,72.9,134.36Z"/><path id="_Path_93" data-name="&lt;Path&gt;" class="cls-1" d="M76.29,132.41a.39.39,0,0,1,0,.75,1.43,1.43,0,0,1-1.3,0,.39.39,0,0,1,0-.75A1.43,1.43,0,0,1,76.29,132.41Z"/><path id="_Path_94" data-name="&lt;Path&gt;" class="cls-1" d="M79.68,130.45a.39.39,0,0,1,0,.75,1.43,1.43,0,0,1-1.3,0,.39.39,0,0,1,0-.75A1.43,1.43,0,0,1,79.68,130.45Z"/><path id="_Path_95" data-name="&lt;Path&gt;" class="cls-1" d="M83.06,128.5a.39.39,0,0,1,0,.75,1.43,1.43,0,0,1-1.3,0,.39.39,0,0,1,0-.75A1.43,1.43,0,0,1,83.06,128.5Z"/><path id="_Path_96" data-name="&lt;Path&gt;" class="cls-1" d="M86.45,126.54a.39.39,0,0,1,0,.75,1.43,1.43,0,0,1-1.3,0,.39.39,0,0,1,0-.75A1.43,1.43,0,0,1,86.45,126.54Z"/><path id="_Path_97" data-name="&lt;Path&gt;" class="cls-1" d="M59.35,138.28a.39.39,0,0,1,0,.75,1.43,1.43,0,0,1-1.3,0,.39.39,0,0,1,0-.75A1.43,1.43,0,0,1,59.35,138.28Z"/><path id="_Path_98" data-name="&lt;Path&gt;" class="cls-1" d="M62.74,136.32a.39.39,0,0,1,0,.75,1.43,1.43,0,0,1-1.3,0,.39.39,0,0,1,0-.75A1.43,1.43,0,0,1,62.74,136.32Z"/><path id="_Path_99" data-name="&lt;Path&gt;" class="cls-1" d="M66.12,134.36a.39.39,0,0,1,0,.75,1.43,1.43,0,0,1-1.3,0,.39.39,0,0,1,0-.75A1.43,1.43,0,0,1,66.12,134.36Z"/><path id="_Path_100" data-name="&lt;Path&gt;" class="cls-1" d="M69.51,132.41a.39.39,0,0,1,0,.75,1.43,1.43,0,0,1-1.3,0,.39.39,0,0,1,0-.75A1.43,1.43,0,0,1,69.51,132.41Z"/><path id="_Path_101" data-name="&lt;Path&gt;" class="cls-1" d="M72.9,130.45a.39.39,0,0,1,0,.75,1.43,1.43,0,0,1-1.3,0,.39.39,0,0,1,0-.75A1.43,1.43,0,0,1,72.9,130.45Z"/><path id="_Path_102" data-name="&lt;Path&gt;" class="cls-1" d="M76.29,128.5a.39.39,0,0,1,0,.75,1.43,1.43,0,0,1-1.3,0,.39.39,0,0,1,0-.75A1.43,1.43,0,0,1,76.29,128.5Z"/><path id="_Path_103" data-name="&lt;Path&gt;" class="cls-1" d="M79.68,126.54a.39.39,0,0,1,0,.75,1.43,1.43,0,0,1-1.3,0,.39.39,0,0,1,0-.75A1.43,1.43,0,0,1,79.68,126.54Z"/><path id="_Path_104" data-name="&lt;Path&gt;" class="cls-1" d="M83.06,124.58a.39.39,0,0,1,0,.75,1.43,1.43,0,0,1-1.3,0,.39.39,0,0,1,0-.75A1.43,1.43,0,0,1,83.06,124.58Z"/><path id="_Path_105" data-name="&lt;Path&gt;" class="cls-1" d="M59.35,134.36a.39.39,0,0,1,0,.75,1.43,1.43,0,0,1-1.3,0,.39.39,0,0,1,0-.75A1.43,1.43,0,0,1,59.35,134.36Z"/><path id="_Path_106" data-name="&lt;Path&gt;" class="cls-1" d="M62.74,132.41a.39.39,0,0,1,0,.75,1.43,1.43,0,0,1-1.3,0,.39.39,0,0,1,0-.75A1.43,1.43,0,0,1,62.74,132.41Z"/><path id="_Path_107" data-name="&lt;Path&gt;" class="cls-1" d="M66.12,130.45a.39.39,0,0,1,0,.75,1.43,1.43,0,0,1-1.3,0,.39.39,0,0,1,0-.75A1.43,1.43,0,0,1,66.12,130.45Z"/><path id="_Path_108" data-name="&lt;Path&gt;" class="cls-1" d="M69.51,128.5a.39.39,0,0,1,0,.75,1.43,1.43,0,0,1-1.3,0,.39.39,0,0,1,0-.75A1.43,1.43,0,0,1,69.51,128.5Z"/><path id="_Path_109" data-name="&lt;Path&gt;" class="cls-1" d="M72.9,126.54a.39.39,0,0,1,0,.75,1.43,1.43,0,0,1-1.3,0,.39.39,0,0,1,0-.75A1.43,1.43,0,0,1,72.9,126.54Z"/><path id="_Path_110" data-name="&lt;Path&gt;" class="cls-1" d="M76.29,124.58a.39.39,0,0,1,0,.75,1.43,1.43,0,0,1-1.3,0,.39.39,0,0,1,0-.75A1.43,1.43,0,0,1,76.29,124.58Z"/></g><g id="_Group_2" data-name="&lt;Group&gt;"><path id="_Path_111" data-name="&lt;Path&gt;" class="cls-1" d="M110.2,155.91a.39.39,0,0,1,0,.75,1.43,1.43,0,0,1-1.3,0,.39.39,0,0,1,0-.75A1.43,1.43,0,0,1,110.2,155.91Z"/><path id="_Path_112" data-name="&lt;Path&gt;" class="cls-1" d="M113.59,154a.39.39,0,0,1,0,.75,1.43,1.43,0,0,1-1.3,0,.39.39,0,0,1,0-.75A1.43,1.43,0,0,1,113.59,154Z"/><path id="_Path_113" data-name="&lt;Path&gt;" class="cls-1" d="M117,152a.39.39,0,0,1,0,.75,1.43,1.43,0,0,1-1.3,0,.39.39,0,0,1,0-.75A1.43,1.43,0,0,1,117,152Z"/><path id="_Path_114" data-name="&lt;Path&gt;" class="cls-1" d="M120.36,150a.39.39,0,0,1,0,.75,1.43,1.43,0,0,1-1.3,0,.4.4,0,0,1,0-.75A1.43,1.43,0,0,1,120.36,150Z"/><path id="_Path_115" data-name="&lt;Path&gt;" class="cls-1" d="M123.75,148.09a.39.39,0,0,1,0,.75,1.43,1.43,0,0,1-1.3,0,.39.39,0,0,1,0-.75A1.43,1.43,0,0,1,123.75,148.09Z"/><path id="_Path_116" data-name="&lt;Path&gt;" class="cls-1" d="M127.14,146.13a.39.39,0,0,1,0,.75,1.43,1.43,0,0,1-1.3,0,.39.39,0,0,1,0-.75A1.43,1.43,0,0,1,127.14,146.13Z"/><path id="_Path_117" data-name="&lt;Path&gt;" class="cls-1" d="M130.53,144.18a.39.39,0,0,1,0,.75,1.43,1.43,0,0,1-1.3,0,.39.39,0,0,1,0-.75A1.43,1.43,0,0,1,130.53,144.18Z"/><path id="_Path_118" data-name="&lt;Path&gt;" class="cls-1" d="M133.91,142.22a.39.39,0,0,1,0,.75,1.43,1.43,0,0,1-1.3,0,.39.39,0,0,1,0-.75A1.43,1.43,0,0,1,133.91,142.22Z"/><path id="_Path_119" data-name="&lt;Path&gt;" class="cls-1" d="M106.81,154a.39.39,0,0,1,0,.75,1.43,1.43,0,0,1-1.3,0,.39.39,0,0,1,0-.75A1.43,1.43,0,0,1,106.81,154Z"/><path id="_Path_120" data-name="&lt;Path&gt;" class="cls-1" d="M110.2,152a.39.39,0,0,1,0,.75,1.43,1.43,0,0,1-1.3,0,.39.39,0,0,1,0-.75A1.43,1.43,0,0,1,110.2,152Z"/><path id="_Path_121" data-name="&lt;Path&gt;" class="cls-1" d="M113.59,150a.4.4,0,0,1,0,.75,1.43,1.43,0,0,1-1.3,0,.4.4,0,0,1,0-.75A1.43,1.43,0,0,1,113.59,150Z"/><path id="_Path_122" data-name="&lt;Path&gt;" class="cls-1" d="M117,148.09a.39.39,0,0,1,0,.75,1.43,1.43,0,0,1-1.3,0,.39.39,0,0,1,0-.75A1.43,1.43,0,0,1,117,148.09Z"/><path id="_Path_123" data-name="&lt;Path&gt;" class="cls-1" d="M120.36,146.13a.39.39,0,0,1,0,.75,1.43,1.43,0,0,1-1.3,0,.39.39,0,0,1,0-.75A1.43,1.43,0,0,1,120.36,146.13Z"/><path id="_Path_124" data-name="&lt;Path&gt;" class="cls-1" d="M123.75,144.18a.39.39,0,0,1,0,.75,1.43,1.43,0,0,1-1.3,0,.39.39,0,0,1,0-.75A1.43,1.43,0,0,1,123.75,144.18Z"/><path id="_Path_125" data-name="&lt;Path&gt;" class="cls-1" d="M127.14,142.22a.39.39,0,0,1,0,.75,1.43,1.43,0,0,1-1.3,0,.39.39,0,0,1,0-.75A1.43,1.43,0,0,1,127.14,142.22Z"/><path id="_Path_126" data-name="&lt;Path&gt;" class="cls-1" d="M130.53,140.26a.39.39,0,0,1,0,.75,1.43,1.43,0,0,1-1.3,0,.39.39,0,0,1,0-.75A1.43,1.43,0,0,1,130.53,140.26Z"/><path id="_Path_127" data-name="&lt;Path&gt;" class="cls-1" d="M103.42,152a.4.4,0,0,1,0,.75,1.43,1.43,0,0,1-1.3,0,.4.4,0,0,1,0-.75A1.43,1.43,0,0,1,103.42,152Z"/><path id="_Path_128" data-name="&lt;Path&gt;" class="cls-1" d="M106.81,150a.39.39,0,0,1,0,.75,1.43,1.43,0,0,1-1.3,0,.39.39,0,0,1,0-.75A1.43,1.43,0,0,1,106.81,150Z"/><path id="_Path_129" data-name="&lt;Path&gt;" class="cls-1" d="M110.2,148.09a.39.39,0,0,1,0,.75,1.43,1.43,0,0,1-1.3,0,.39.39,0,0,1,0-.75A1.43,1.43,0,0,1,110.2,148.09Z"/><path id="_Path_130" data-name="&lt;Path&gt;" class="cls-1" d="M113.59,146.13a.39.39,0,0,1,0,.75,1.43,1.43,0,0,1-1.3,0,.39.39,0,0,1,0-.75A1.43,1.43,0,0,1,113.59,146.13Z"/><path id="_Path_131" data-name="&lt;Path&gt;" class="cls-1" d="M117,144.18a.39.39,0,0,1,0,.75,1.43,1.43,0,0,1-1.3,0,.39.39,0,0,1,0-.75A1.43,1.43,0,0,1,117,144.18Z"/><path id="_Path_132" data-name="&lt;Path&gt;" class="cls-1" d="M120.36,142.22a.39.39,0,0,1,0,.75,1.43,1.43,0,0,1-1.3,0,.39.39,0,0,1,0-.75A1.43,1.43,0,0,1,120.36,142.22Z"/><path id="_Path_133" data-name="&lt;Path&gt;" class="cls-1" d="M123.75,140.26a.39.39,0,0,1,0,.75,1.43,1.43,0,0,1-1.3,0,.39.39,0,0,1,0-.75A1.43,1.43,0,0,1,123.75,140.26Z"/><path id="_Path_134" data-name="&lt;Path&gt;" class="cls-1" d="M127.14,138.31a.39.39,0,0,1,0,.75,1.43,1.43,0,0,1-1.3,0,.39.39,0,0,1,0-.75A1.43,1.43,0,0,1,127.14,138.31Z"/><path id="_Path_135" data-name="&lt;Path&gt;" class="cls-1" d="M100,150a.39.39,0,0,1,0,.75,1.43,1.43,0,0,1-1.3,0,.39.39,0,0,1,0-.75A1.43,1.43,0,0,1,100,150Z"/><path id="_Path_136" data-name="&lt;Path&gt;" class="cls-1" d="M103.39,148.07a.39.39,0,0,1,0,.75,1.43,1.43,0,0,1-1.3,0,.39.39,0,0,1,0-.75A1.43,1.43,0,0,1,103.39,148.07Z"/><path id="_Path_137" data-name="&lt;Path&gt;" class="cls-1" d="M106.78,146.11a.39.39,0,0,1,0,.75,1.43,1.43,0,0,1-1.3,0,.39.39,0,0,1,0-.75A1.43,1.43,0,0,1,106.78,146.11Z"/><path id="_Path_138" data-name="&lt;Path&gt;" class="cls-1" d="M110.17,144.16a.39.39,0,0,1,0,.75,1.43,1.43,0,0,1-1.3,0,.39.39,0,0,1,0-.75A1.43,1.43,0,0,1,110.17,144.16Z"/><path id="_Path_139" data-name="&lt;Path&gt;" class="cls-1" d="M113.56,142.2a.39.39,0,0,1,0,.75,1.43,1.43,0,0,1-1.3,0,.39.39,0,0,1,0-.75A1.43,1.43,0,0,1,113.56,142.2Z"/><path id="_Path_140" data-name="&lt;Path&gt;" class="cls-1" d="M116.95,140.24a.39.39,0,0,1,0,.75,1.43,1.43,0,0,1-1.3,0,.39.39,0,0,1,0-.75A1.43,1.43,0,0,1,116.95,140.24Z"/><path id="_Path_141" data-name="&lt;Path&gt;" class="cls-1" d="M120.33,138.29a.39.39,0,0,1,0,.75,1.43,1.43,0,0,1-1.3,0,.39.39,0,0,1,0-.75A1.43,1.43,0,0,1,120.33,138.29Z"/><path id="_Path_142" data-name="&lt;Path&gt;" class="cls-1" d="M123.72,136.33a.39.39,0,0,1,0,.75,1.43,1.43,0,0,1-1.3,0,.39.39,0,0,1,0-.75A1.43,1.43,0,0,1,123.72,136.33Z"/><path id="_Path_143" data-name="&lt;Path&gt;" class="cls-1" d="M96.62,148.07a.39.39,0,0,1,0,.75,1.43,1.43,0,0,1-1.3,0,.39.39,0,0,1,0-.75A1.43,1.43,0,0,1,96.62,148.07Z"/><path id="_Path_144" data-name="&lt;Path&gt;" class="cls-1" d="M100,146.11a.39.39,0,0,1,0,.75,1.43,1.43,0,0,1-1.3,0,.39.39,0,0,1,0-.75A1.43,1.43,0,0,1,100,146.11Z"/><path id="_Path_145" data-name="&lt;Path&gt;" class="cls-1" d="M103.39,144.16a.39.39,0,0,1,0,.75,1.43,1.43,0,0,1-1.3,0,.39.39,0,0,1,0-.75A1.43,1.43,0,0,1,103.39,144.16Z"/><path id="_Path_146" data-name="&lt;Path&gt;" class="cls-1" d="M106.78,142.2a.39.39,0,0,1,0,.75,1.43,1.43,0,0,1-1.3,0,.39.39,0,0,1,0-.75A1.43,1.43,0,0,1,106.78,142.2Z"/><path id="_Path_147" data-name="&lt;Path&gt;" class="cls-1" d="M110.17,140.24a.39.39,0,0,1,0,.75,1.43,1.43,0,0,1-1.3,0,.39.39,0,0,1,0-.75A1.43,1.43,0,0,1,110.17,140.24Z"/><path id="_Path_148" data-name="&lt;Path&gt;" class="cls-1" d="M113.56,138.29a.39.39,0,0,1,0,.75,1.43,1.43,0,0,1-1.3,0,.39.39,0,0,1,0-.75A1.43,1.43,0,0,1,113.56,138.29Z"/><path id="_Path_149" data-name="&lt;Path&gt;" class="cls-1" d="M116.95,136.33a.39.39,0,0,1,0,.75,1.43,1.43,0,0,1-1.3,0,.39.39,0,0,1,0-.75A1.43,1.43,0,0,1,116.95,136.33Z"/><path id="_Path_150" data-name="&lt;Path&gt;" class="cls-1" d="M120.33,134.38a.39.39,0,0,1,0,.75,1.43,1.43,0,0,1-1.3,0,.39.39,0,0,1,0-.75A1.43,1.43,0,0,1,120.33,134.38Z"/><path id="_Path_151" data-name="&lt;Path&gt;" class="cls-1" d="M93.23,146.11a.39.39,0,0,1,0,.75,1.43,1.43,0,0,1-1.3,0,.39.39,0,0,1,0-.75A1.43,1.43,0,0,1,93.23,146.11Z"/><path id="_Path_152" data-name="&lt;Path&gt;" class="cls-1" d="M96.62,144.16a.39.39,0,0,1,0,.75,1.43,1.43,0,0,1-1.3,0,.39.39,0,0,1,0-.75A1.43,1.43,0,0,1,96.62,144.16Z"/><path id="_Path_153" data-name="&lt;Path&gt;" class="cls-1" d="M100,142.2a.4.4,0,0,1,0,.75,1.43,1.43,0,0,1-1.3,0,.39.39,0,0,1,0-.75A1.43,1.43,0,0,1,100,142.2Z"/><path id="_Path_154" data-name="&lt;Path&gt;" class="cls-1" d="M103.39,140.24a.39.39,0,0,1,0,.75,1.43,1.43,0,0,1-1.3,0,.39.39,0,0,1,0-.75A1.43,1.43,0,0,1,103.39,140.24Z"/><path id="_Path_155" data-name="&lt;Path&gt;" class="cls-1" d="M106.78,138.29a.39.39,0,0,1,0,.75,1.43,1.43,0,0,1-1.3,0,.39.39,0,0,1,0-.75A1.43,1.43,0,0,1,106.78,138.29Z"/><path id="_Path_156" data-name="&lt;Path&gt;" class="cls-1" d="M110.17,136.33a.39.39,0,0,1,0,.75,1.43,1.43,0,0,1-1.3,0,.39.39,0,0,1,0-.75A1.43,1.43,0,0,1,110.17,136.33Z"/><path id="_Path_157" data-name="&lt;Path&gt;" class="cls-1" d="M113.56,134.38a.39.39,0,0,1,0,.75,1.43,1.43,0,0,1-1.3,0,.39.39,0,0,1,0-.75A1.43,1.43,0,0,1,113.56,134.38Z"/><path id="_Path_158" data-name="&lt;Path&gt;" class="cls-1" d="M116.95,132.42a.39.39,0,0,1,0,.75,1.43,1.43,0,0,1-1.3,0,.39.39,0,0,1,0-.75A1.43,1.43,0,0,1,116.95,132.42Z"/><path id="_Path_159" data-name="&lt;Path&gt;" class="cls-1" d="M89.84,144.16a.39.39,0,0,1,0,.75,1.43,1.43,0,0,1-1.3,0,.39.39,0,0,1,0-.75A1.43,1.43,0,0,1,89.84,144.16Z"/><path id="_Path_160" data-name="&lt;Path&gt;" class="cls-1" d="M93.23,142.2a.39.39,0,0,1,0,.75,1.43,1.43,0,0,1-1.3,0,.4.4,0,0,1,0-.75A1.43,1.43,0,0,1,93.23,142.2Z"/><path id="_Path_161" data-name="&lt;Path&gt;" class="cls-1" d="M96.62,140.24a.39.39,0,0,1,0,.75,1.43,1.43,0,0,1-1.3,0,.39.39,0,0,1,0-.75A1.43,1.43,0,0,1,96.62,140.24Z"/><path id="_Path_162" data-name="&lt;Path&gt;" class="cls-1" d="M100,138.29a.39.39,0,0,1,0,.75,1.43,1.43,0,0,1-1.3,0,.39.39,0,0,1,0-.75A1.43,1.43,0,0,1,100,138.29Z"/><path id="_Path_163" data-name="&lt;Path&gt;" class="cls-1" d="M103.39,136.33a.39.39,0,0,1,0,.75,1.43,1.43,0,0,1-1.3,0,.39.39,0,0,1,0-.75A1.43,1.43,0,0,1,103.39,136.33Z"/><path id="_Path_164" data-name="&lt;Path&gt;" class="cls-1" d="M106.78,134.38a.39.39,0,0,1,0,.75,1.43,1.43,0,0,1-1.3,0,.39.39,0,0,1,0-.75A1.43,1.43,0,0,1,106.78,134.38Z"/><path id="_Path_165" data-name="&lt;Path&gt;" class="cls-1" d="M110.17,132.42a.39.39,0,0,1,0,.75,1.43,1.43,0,0,1-1.3,0,.39.39,0,0,1,0-.75A1.43,1.43,0,0,1,110.17,132.42Z"/><path id="_Path_166" data-name="&lt;Path&gt;" class="cls-1" d="M113.56,130.46a.39.39,0,0,1,0,.75,1.43,1.43,0,0,1-1.3,0,.39.39,0,0,1,0-.75A1.43,1.43,0,0,1,113.56,130.46Z"/><path id="_Path_167" data-name="&lt;Path&gt;" class="cls-1" d="M86.45,142.2a.39.39,0,0,1,0,.75,1.43,1.43,0,0,1-1.3,0,.39.39,0,0,1,0-.75A1.43,1.43,0,0,1,86.45,142.2Z"/><path id="_Path_168" data-name="&lt;Path&gt;" class="cls-1" d="M89.84,140.24a.39.39,0,0,1,0,.75,1.43,1.43,0,0,1-1.3,0,.39.39,0,0,1,0-.75A1.43,1.43,0,0,1,89.84,140.24Z"/><path id="_Path_169" data-name="&lt;Path&gt;" class="cls-1" d="M93.23,138.29a.39.39,0,0,1,0,.75,1.43,1.43,0,0,1-1.3,0,.39.39,0,0,1,0-.75A1.43,1.43,0,0,1,93.23,138.29Z"/><path id="_Path_170" data-name="&lt;Path&gt;" class="cls-1" d="M96.62,136.33a.39.39,0,0,1,0,.75,1.43,1.43,0,0,1-1.3,0,.39.39,0,0,1,0-.75A1.43,1.43,0,0,1,96.62,136.33Z"/><path id="_Path_171" data-name="&lt;Path&gt;" class="cls-1" d="M100,134.38a.39.39,0,0,1,0,.75,1.43,1.43,0,0,1-1.3,0,.39.39,0,0,1,0-.75A1.43,1.43,0,0,1,100,134.38Z"/><path id="_Path_172" data-name="&lt;Path&gt;" class="cls-1" d="M103.39,132.42a.39.39,0,0,1,0,.75,1.43,1.43,0,0,1-1.3,0,.39.39,0,0,1,0-.75A1.43,1.43,0,0,1,103.39,132.42Z"/><path id="_Path_173" data-name="&lt;Path&gt;" class="cls-1" d="M106.78,130.46a.39.39,0,0,1,0,.75,1.43,1.43,0,0,1-1.3,0,.39.39,0,0,1,0-.75A1.43,1.43,0,0,1,106.78,130.46Z"/><path id="_Path_174" data-name="&lt;Path&gt;" class="cls-1" d="M110.17,128.51a.39.39,0,0,1,0,.75,1.43,1.43,0,0,1-1.3,0,.39.39,0,0,1,0-.75A1.43,1.43,0,0,1,110.17,128.51Z"/><path id="_Path_175" data-name="&lt;Path&gt;" class="cls-1" d="M83.07,140.24a.39.39,0,0,1,0,.75,1.43,1.43,0,0,1-1.3,0,.39.39,0,0,1,0-.75A1.43,1.43,0,0,1,83.07,140.24Z"/><path id="_Path_176" data-name="&lt;Path&gt;" class="cls-1" d="M86.45,138.29a.39.39,0,0,1,0,.75,1.43,1.43,0,0,1-1.3,0,.39.39,0,0,1,0-.75A1.43,1.43,0,0,1,86.45,138.29Z"/><path id="_Path_177" data-name="&lt;Path&gt;" class="cls-1" d="M89.84,136.33a.39.39,0,0,1,0,.75,1.43,1.43,0,0,1-1.3,0,.39.39,0,0,1,0-.75A1.43,1.43,0,0,1,89.84,136.33Z"/><path id="_Path_178" data-name="&lt;Path&gt;" class="cls-1" d="M93.23,134.38a.39.39,0,0,1,0,.75,1.43,1.43,0,0,1-1.3,0,.39.39,0,0,1,0-.75A1.43,1.43,0,0,1,93.23,134.38Z"/><path id="_Path_179" data-name="&lt;Path&gt;" class="cls-1" d="M96.62,132.42a.39.39,0,0,1,0,.75,1.43,1.43,0,0,1-1.3,0,.39.39,0,0,1,0-.75A1.43,1.43,0,0,1,96.62,132.42Z"/><path id="_Path_180" data-name="&lt;Path&gt;" class="cls-1" d="M100,130.46a.39.39,0,0,1,0,.75,1.43,1.43,0,0,1-1.3,0,.39.39,0,0,1,0-.75A1.43,1.43,0,0,1,100,130.46Z"/><path id="_Path_181" data-name="&lt;Path&gt;" class="cls-1" d="M103.39,128.51a.39.39,0,0,1,0,.75,1.43,1.43,0,0,1-1.3,0,.39.39,0,0,1,0-.75A1.43,1.43,0,0,1,103.39,128.51Z"/><path id="_Path_182" data-name="&lt;Path&gt;" class="cls-1" d="M106.78,126.55a.39.39,0,0,1,0,.75,1.43,1.43,0,0,1-1.3,0,.39.39,0,0,1,0-.75A1.43,1.43,0,0,1,106.78,126.55Z"/><path id="_Path_183" data-name="&lt;Path&gt;" class="cls-1" d="M79.68,138.29a.39.39,0,0,1,0,.75,1.43,1.43,0,0,1-1.3,0,.39.39,0,0,1,0-.75A1.43,1.43,0,0,1,79.68,138.29Z"/><path id="_Path_184" data-name="&lt;Path&gt;" class="cls-1" d="M83.07,136.33a.39.39,0,0,1,0,.75,1.43,1.43,0,0,1-1.3,0,.39.39,0,0,1,0-.75A1.43,1.43,0,0,1,83.07,136.33Z"/><path id="_Path_185" data-name="&lt;Path&gt;" class="cls-1" d="M86.46,134.38a.39.39,0,0,1,0,.75,1.43,1.43,0,0,1-1.3,0,.39.39,0,0,1,0-.75A1.43,1.43,0,0,1,86.46,134.38Z"/><path id="_Path_186" data-name="&lt;Path&gt;" class="cls-1" d="M89.84,132.42a.39.39,0,0,1,0,.75,1.43,1.43,0,0,1-1.3,0,.39.39,0,0,1,0-.75A1.43,1.43,0,0,1,89.84,132.42Z"/><path id="_Path_187" data-name="&lt;Path&gt;" class="cls-1" d="M93.23,130.46a.39.39,0,0,1,0,.75,1.43,1.43,0,0,1-1.3,0,.39.39,0,0,1,0-.75A1.43,1.43,0,0,1,93.23,130.46Z"/><path id="_Path_188" data-name="&lt;Path&gt;" class="cls-1" d="M96.62,128.51a.39.39,0,0,1,0,.75,1.43,1.43,0,0,1-1.3,0,.39.39,0,0,1,0-.75A1.43,1.43,0,0,1,96.62,128.51Z"/><path id="_Path_189" data-name="&lt;Path&gt;" class="cls-1" d="M100,126.55a.39.39,0,0,1,0,.75,1.43,1.43,0,0,1-1.3,0,.39.39,0,0,1,0-.75A1.43,1.43,0,0,1,100,126.55Z"/><path id="_Path_190" data-name="&lt;Path&gt;" class="cls-1" d="M103.39,124.6a.4.4,0,0,1,0,.75,1.43,1.43,0,0,1-1.3,0,.4.4,0,0,1,0-.75A1.43,1.43,0,0,1,103.39,124.6Z"/><path id="_Path_191" data-name="&lt;Path&gt;" class="cls-1" d="M76.29,136.33a.39.39,0,0,1,0,.75,1.43,1.43,0,0,1-1.3,0,.39.39,0,0,1,0-.75A1.43,1.43,0,0,1,76.29,136.33Z"/><path id="_Path_192" data-name="&lt;Path&gt;" class="cls-1" d="M79.68,134.38a.39.39,0,0,1,0,.75,1.43,1.43,0,0,1-1.3,0,.39.39,0,0,1,0-.75A1.43,1.43,0,0,1,79.68,134.38Z"/><path id="_Path_193" data-name="&lt;Path&gt;" class="cls-1" d="M83.07,132.42a.39.39,0,0,1,0,.75,1.43,1.43,0,0,1-1.3,0,.39.39,0,0,1,0-.75A1.43,1.43,0,0,1,83.07,132.42Z"/><path id="_Path_194" data-name="&lt;Path&gt;" class="cls-1" d="M86.46,130.46a.39.39,0,0,1,0,.75,1.43,1.43,0,0,1-1.3,0,.39.39,0,0,1,0-.75A1.43,1.43,0,0,1,86.46,130.46Z"/><path id="_Path_195" data-name="&lt;Path&gt;" class="cls-1" d="M89.84,128.51a.39.39,0,0,1,0,.75,1.43,1.43,0,0,1-1.3,0,.39.39,0,0,1,0-.75A1.43,1.43,0,0,1,89.84,128.51Z"/><path id="_Path_196" data-name="&lt;Path&gt;" class="cls-1" d="M93.23,126.55a.39.39,0,0,1,0,.75,1.43,1.43,0,0,1-1.3,0,.39.39,0,0,1,0-.75A1.43,1.43,0,0,1,93.23,126.55Z"/><path id="_Path_197" data-name="&lt;Path&gt;" class="cls-1" d="M96.62,124.6a.4.4,0,0,1,0,.75,1.43,1.43,0,0,1-1.3,0,.4.4,0,0,1,0-.75A1.43,1.43,0,0,1,96.62,124.6Z"/><path id="_Path_198" data-name="&lt;Path&gt;" class="cls-1" d="M100,122.64a.39.39,0,0,1,0,.75,1.43,1.43,0,0,1-1.3,0,.39.39,0,0,1,0-.75A1.43,1.43,0,0,1,100,122.64Z"/><path id="_Path_199" data-name="&lt;Path&gt;" class="cls-1" d="M72.87,134.36a.4.4,0,0,1,0,.75,1.43,1.43,0,0,1-1.3,0,.39.39,0,0,1,0-.75A1.43,1.43,0,0,1,72.87,134.36Z"/><path id="_Path_200" data-name="&lt;Path&gt;" class="cls-1" d="M76.26,132.4a.39.39,0,0,1,0,.75,1.43,1.43,0,0,1-1.3,0,.39.39,0,0,1,0-.75A1.43,1.43,0,0,1,76.26,132.4Z"/><path id="_Path_201" data-name="&lt;Path&gt;" class="cls-1" d="M79.65,130.44a.39.39,0,0,1,0,.75,1.43,1.43,0,0,1-1.3,0,.39.39,0,0,1,0-.75A1.43,1.43,0,0,1,79.65,130.44Z"/><path id="_Path_202" data-name="&lt;Path&gt;" class="cls-1" d="M83,128.49a.39.39,0,0,1,0,.75,1.43,1.43,0,0,1-1.3,0,.39.39,0,0,1,0-.75A1.43,1.43,0,0,1,83,128.49Z"/><path id="_Path_203" data-name="&lt;Path&gt;" class="cls-1" d="M86.43,126.53a.39.39,0,0,1,0,.75,1.43,1.43,0,0,1-1.3,0,.39.39,0,0,1,0-.75A1.43,1.43,0,0,1,86.43,126.53Z"/><path id="_Path_204" data-name="&lt;Path&gt;" class="cls-1" d="M89.81,124.58a.39.39,0,0,1,0,.75,1.43,1.43,0,0,1-1.3,0,.39.39,0,0,1,0-.75A1.43,1.43,0,0,1,89.81,124.58Z"/><path id="_Path_205" data-name="&lt;Path&gt;" class="cls-1" d="M93.2,122.62a.39.39,0,0,1,0,.75,1.43,1.43,0,0,1-1.3,0,.39.39,0,0,1,0-.75A1.43,1.43,0,0,1,93.2,122.62Z"/><path id="_Path_206" data-name="&lt;Path&gt;" class="cls-1" d="M96.59,120.66a.39.39,0,0,1,0,.75,1.43,1.43,0,0,1-1.3,0,.39.39,0,0,1,0-.75A1.43,1.43,0,0,1,96.59,120.66Z"/><path id="_Path_207" data-name="&lt;Path&gt;" class="cls-1" d="M69.49,132.4a.39.39,0,0,1,0,.75,1.43,1.43,0,0,1-1.3,0,.39.39,0,0,1,0-.75A1.43,1.43,0,0,1,69.49,132.4Z"/><path id="_Path_208" data-name="&lt;Path&gt;" class="cls-1" d="M72.87,130.44a.39.39,0,0,1,0,.75,1.43,1.43,0,0,1-1.3,0,.39.39,0,0,1,0-.75A1.43,1.43,0,0,1,72.87,130.44Z"/><path id="_Path_209" data-name="&lt;Path&gt;" class="cls-1" d="M76.26,128.49a.39.39,0,0,1,0,.75,1.43,1.43,0,0,1-1.3,0,.39.39,0,0,1,0-.75A1.43,1.43,0,0,1,76.26,128.49Z"/><path id="_Path_210" data-name="&lt;Path&gt;" class="cls-1" d="M79.65,126.53a.39.39,0,0,1,0,.75,1.43,1.43,0,0,1-1.3,0,.39.39,0,0,1,0-.75A1.43,1.43,0,0,1,79.65,126.53Z"/><path id="_Path_211" data-name="&lt;Path&gt;" class="cls-1" d="M83,124.58a.39.39,0,0,1,0,.75,1.43,1.43,0,0,1-1.3,0,.39.39,0,0,1,0-.75A1.43,1.43,0,0,1,83,124.58Z"/><path id="_Path_212" data-name="&lt;Path&gt;" class="cls-1" d="M86.43,122.62a.39.39,0,0,1,0,.75,1.43,1.43,0,0,1-1.3,0,.39.39,0,0,1,0-.75A1.43,1.43,0,0,1,86.43,122.62Z"/><path id="_Path_213" data-name="&lt;Path&gt;" class="cls-1" d="M89.81,120.66a.39.39,0,0,1,0,.75,1.43,1.43,0,0,1-1.3,0,.39.39,0,0,1,0-.75A1.43,1.43,0,0,1,89.81,120.66Z"/><path id="_Path_214" data-name="&lt;Path&gt;" class="cls-1" d="M93.2,118.71a.39.39,0,0,1,0,.75,1.43,1.43,0,0,1-1.3,0,.39.39,0,0,1,0-.75A1.43,1.43,0,0,1,93.2,118.71Z"/><path id="_Path_215" data-name="&lt;Path&gt;" class="cls-1" d="M69.49,128.49a.39.39,0,0,1,0,.75,1.43,1.43,0,0,1-1.3,0,.39.39,0,0,1,0-.75A1.43,1.43,0,0,1,69.49,128.49Z"/><path id="_Path_216" data-name="&lt;Path&gt;" class="cls-1" d="M72.87,126.53a.39.39,0,0,1,0,.75,1.43,1.43,0,0,1-1.3,0,.39.39,0,0,1,0-.75A1.43,1.43,0,0,1,72.87,126.53Z"/><path id="_Path_217" data-name="&lt;Path&gt;" class="cls-1" d="M76.26,124.58a.39.39,0,0,1,0,.75,1.43,1.43,0,0,1-1.3,0,.39.39,0,0,1,0-.75A1.43,1.43,0,0,1,76.26,124.58Z"/><path id="_Path_218" data-name="&lt;Path&gt;" class="cls-1" d="M79.65,122.62a.39.39,0,0,1,0,.75,1.43,1.43,0,0,1-1.3,0,.39.39,0,0,1,0-.75A1.43,1.43,0,0,1,79.65,122.62Z"/><path id="_Path_219" data-name="&lt;Path&gt;" class="cls-1" d="M83,120.66a.39.39,0,0,1,0,.75,1.43,1.43,0,0,1-1.3,0,.39.39,0,0,1,0-.75A1.43,1.43,0,0,1,83,120.66Z"/><path id="_Path_220" data-name="&lt;Path&gt;" class="cls-1" d="M86.43,118.71a.39.39,0,0,1,0,.75,1.43,1.43,0,0,1-1.3,0,.39.39,0,0,1,0-.75A1.43,1.43,0,0,1,86.43,118.71Z"/></g><g id="_Group_3" data-name="&lt;Group&gt;"><path id="_Path_221" data-name="&lt;Path&gt;" class="cls-1" d="M55.83,136.63a.39.39,0,0,1,0,.75,1.43,1.43,0,0,1-1.3,0,.39.39,0,0,1,0-.75A1.43,1.43,0,0,1,55.83,136.63Z"/><path id="_Path_222" data-name="&lt;Path&gt;" class="cls-1" d="M59.22,134.68a.39.39,0,0,1,0,.75,1.43,1.43,0,0,1-1.3,0,.39.39,0,0,1,0-.75A1.43,1.43,0,0,1,59.22,134.68Z"/><path id="_Path_223" data-name="&lt;Path&gt;" class="cls-1" d="M62.6,132.72a.39.39,0,0,1,0,.75,1.43,1.43,0,0,1-1.3,0,.39.39,0,0,1,0-.75A1.43,1.43,0,0,1,62.6,132.72Z"/><path id="_Path_224" data-name="&lt;Path&gt;" class="cls-1" d="M66,130.77a.39.39,0,0,1,0,.75,1.43,1.43,0,0,1-1.3,0,.39.39,0,0,1,0-.75A1.43,1.43,0,0,1,66,130.77Z"/><path id="_Path_225" data-name="&lt;Path&gt;" class="cls-1" d="M69.38,128.81a.39.39,0,0,1,0,.75,1.43,1.43,0,0,1-1.3,0,.39.39,0,0,1,0-.75A1.43,1.43,0,0,1,69.38,128.81Z"/><path id="_Path_226" data-name="&lt;Path&gt;" class="cls-1" d="M72.77,126.85a.39.39,0,0,1,0,.75,1.43,1.43,0,0,1-1.3,0,.39.39,0,0,1,0-.75A1.43,1.43,0,0,1,72.77,126.85Z"/><path id="_Path_227" data-name="&lt;Path&gt;" class="cls-1" d="M76.16,124.9a.39.39,0,0,1,0,.75,1.43,1.43,0,0,1-1.3,0,.4.4,0,0,1,0-.75A1.43,1.43,0,0,1,76.16,124.9Z"/><path id="_Path_228" data-name="&lt;Path&gt;" class="cls-1" d="M79.54,122.94a.39.39,0,0,1,0,.75,1.43,1.43,0,0,1-1.3,0,.39.39,0,0,1,0-.75A1.43,1.43,0,0,1,79.54,122.94Z"/><path id="_Path_229" data-name="&lt;Path&gt;" class="cls-1" d="M52.44,134.68a.39.39,0,0,1,0,.75,1.43,1.43,0,0,1-1.3,0,.39.39,0,0,1,0-.75A1.43,1.43,0,0,1,52.44,134.68Z"/><path id="_Path_230" data-name="&lt;Path&gt;" class="cls-1" d="M55.83,132.72a.39.39,0,0,1,0,.75,1.43,1.43,0,0,1-1.3,0,.39.39,0,0,1,0-.75A1.43,1.43,0,0,1,55.83,132.72Z"/><path id="_Path_231" data-name="&lt;Path&gt;" class="cls-1" d="M59.22,130.77a.39.39,0,0,1,0,.75,1.43,1.43,0,0,1-1.3,0,.39.39,0,0,1,0-.75A1.43,1.43,0,0,1,59.22,130.77Z"/><path id="_Path_232" data-name="&lt;Path&gt;" class="cls-1" d="M62.6,128.81a.39.39,0,0,1,0,.75,1.43,1.43,0,0,1-1.3,0,.39.39,0,0,1,0-.75A1.43,1.43,0,0,1,62.6,128.81Z"/><path id="_Path_233" data-name="&lt;Path&gt;" class="cls-1" d="M66,126.85a.39.39,0,0,1,0,.75,1.43,1.43,0,0,1-1.3,0,.4.4,0,0,1,0-.75A1.43,1.43,0,0,1,66,126.85Z"/><path id="_Path_234" data-name="&lt;Path&gt;" class="cls-1" d="M69.38,124.9a.4.4,0,0,1,0,.75,1.43,1.43,0,0,1-1.3,0,.39.39,0,0,1,0-.75A1.43,1.43,0,0,1,69.38,124.9Z"/><path id="_Path_235" data-name="&lt;Path&gt;" class="cls-1" d="M72.77,122.94a.39.39,0,0,1,0,.75,1.43,1.43,0,0,1-1.3,0,.39.39,0,0,1,0-.75A1.43,1.43,0,0,1,72.77,122.94Z"/><path id="_Path_236" data-name="&lt;Path&gt;" class="cls-1" d="M76.16,121a.39.39,0,0,1,0,.75,1.43,1.43,0,0,1-1.3,0,.39.39,0,0,1,0-.75A1.43,1.43,0,0,1,76.16,121Z"/><path id="_Path_237" data-name="&lt;Path&gt;" class="cls-1" d="M49.05,132.72a.39.39,0,0,1,0,.75,1.43,1.43,0,0,1-1.3,0,.39.39,0,0,1,0-.75A1.43,1.43,0,0,1,49.05,132.72Z"/><path id="_Path_238" data-name="&lt;Path&gt;" class="cls-1" d="M52.44,130.77a.39.39,0,0,1,0,.75,1.43,1.43,0,0,1-1.3,0,.39.39,0,0,1,0-.75A1.43,1.43,0,0,1,52.44,130.77Z"/><path id="_Path_239" data-name="&lt;Path&gt;" class="cls-1" d="M55.83,128.81a.39.39,0,0,1,0,.75,1.43,1.43,0,0,1-1.3,0,.39.39,0,0,1,0-.75A1.43,1.43,0,0,1,55.83,128.81Z"/><path id="_Path_240" data-name="&lt;Path&gt;" class="cls-1" d="M59.22,126.85a.39.39,0,0,1,0,.75,1.43,1.43,0,0,1-1.3,0,.4.4,0,0,1,0-.75A1.43,1.43,0,0,1,59.22,126.85Z"/><path id="_Path_241" data-name="&lt;Path&gt;" class="cls-1" d="M62.6,124.9a.39.39,0,0,1,0,.75,1.43,1.43,0,0,1-1.3,0,.39.39,0,0,1,0-.75A1.43,1.43,0,0,1,62.6,124.9Z"/><path id="_Path_242" data-name="&lt;Path&gt;" class="cls-1" d="M66,122.94a.39.39,0,0,1,0,.75,1.43,1.43,0,0,1-1.3,0,.39.39,0,0,1,0-.75A1.43,1.43,0,0,1,66,122.94Z"/><path id="_Path_243" data-name="&lt;Path&gt;" class="cls-1" d="M69.38,121a.39.39,0,0,1,0,.75,1.43,1.43,0,0,1-1.3,0,.39.39,0,0,1,0-.75A1.43,1.43,0,0,1,69.38,121Z"/><path id="_Path_244" data-name="&lt;Path&gt;" class="cls-1" d="M72.77,119a.39.39,0,0,1,0,.75,1.43,1.43,0,0,1-1.3,0,.39.39,0,0,1,0-.75A1.43,1.43,0,0,1,72.77,119Z"/><path id="_Path_245" data-name="&lt;Path&gt;" class="cls-1" d="M45.66,130.77a.39.39,0,0,1,0,.75,1.43,1.43,0,0,1-1.3,0,.39.39,0,0,1,0-.75A1.43,1.43,0,0,1,45.66,130.77Z"/><path id="_Path_246" data-name="&lt;Path&gt;" class="cls-1" d="M49.05,128.81a.39.39,0,0,1,0,.75,1.43,1.43,0,0,1-1.3,0,.39.39,0,0,1,0-.75A1.43,1.43,0,0,1,49.05,128.81Z"/><path id="_Path_247" data-name="&lt;Path&gt;" class="cls-1" d="M52.44,126.85a.4.4,0,0,1,0,.75,1.43,1.43,0,0,1-1.3,0,.4.4,0,0,1,0-.75A1.43,1.43,0,0,1,52.44,126.85Z"/><path id="_Path_248" data-name="&lt;Path&gt;" class="cls-1" d="M55.83,124.9a.39.39,0,0,1,0,.75,1.43,1.43,0,0,1-1.3,0,.39.39,0,0,1,0-.75A1.43,1.43,0,0,1,55.83,124.9Z"/><path id="_Path_249" data-name="&lt;Path&gt;" class="cls-1" d="M59.22,122.94a.39.39,0,0,1,0,.75,1.43,1.43,0,0,1-1.3,0,.39.39,0,0,1,0-.75A1.43,1.43,0,0,1,59.22,122.94Z"/><path id="_Path_250" data-name="&lt;Path&gt;" class="cls-1" d="M62.6,121a.39.39,0,0,1,0,.75,1.43,1.43,0,0,1-1.3,0,.39.39,0,0,1,0-.75A1.43,1.43,0,0,1,62.6,121Z"/><path id="_Path_251" data-name="&lt;Path&gt;" class="cls-1" d="M66,119a.39.39,0,0,1,0,.75,1.43,1.43,0,0,1-1.3,0,.39.39,0,0,1,0-.75A1.43,1.43,0,0,1,66,119Z"/><path id="_Path_252" data-name="&lt;Path&gt;" class="cls-1" d="M69.38,117.07a.39.39,0,0,1,0,.75,1.43,1.43,0,0,1-1.3,0,.39.39,0,0,1,0-.75A1.43,1.43,0,0,1,69.38,117.07Z"/><path id="_Path_253" data-name="&lt;Path&gt;" class="cls-1" d="M42.28,128.81a.4.4,0,0,1,0,.75,1.43,1.43,0,0,1-1.3,0,.4.4,0,0,1,0-.75A1.43,1.43,0,0,1,42.28,128.81Z"/><path id="_Path_254" data-name="&lt;Path&gt;" class="cls-1" d="M45.66,126.85a.39.39,0,0,1,0,.75,1.43,1.43,0,0,1-1.3,0,.39.39,0,0,1,0-.75A1.43,1.43,0,0,1,45.66,126.85Z"/><path id="_Path_255" data-name="&lt;Path&gt;" class="cls-1" d="M49.05,124.9a.39.39,0,0,1,0,.75,1.43,1.43,0,0,1-1.3,0,.39.39,0,0,1,0-.75A1.43,1.43,0,0,1,49.05,124.9Z"/><path id="_Path_256" data-name="&lt;Path&gt;" class="cls-1" d="M52.44,122.94a.39.39,0,0,1,0,.75,1.43,1.43,0,0,1-1.3,0,.39.39,0,0,1,0-.75A1.43,1.43,0,0,1,52.44,122.94Z"/><path id="_Path_257" data-name="&lt;Path&gt;" class="cls-1" d="M55.83,121a.39.39,0,0,1,0,.75,1.43,1.43,0,0,1-1.3,0,.39.39,0,0,1,0-.75A1.43,1.43,0,0,1,55.83,121Z"/><path id="_Path_258" data-name="&lt;Path&gt;" class="cls-1" d="M59.22,119a.39.39,0,0,1,0,.75,1.43,1.43,0,0,1-1.3,0,.39.39,0,0,1,0-.75A1.43,1.43,0,0,1,59.22,119Z"/><path id="_Path_259" data-name="&lt;Path&gt;" class="cls-1" d="M62.6,117.07a.39.39,0,0,1,0,.75,1.43,1.43,0,0,1-1.3,0,.39.39,0,0,1,0-.75A1.43,1.43,0,0,1,62.6,117.07Z"/><path id="_Path_260" data-name="&lt;Path&gt;" class="cls-1" d="M66,115.12a.39.39,0,0,1,0,.75,1.43,1.43,0,0,1-1.3,0,.39.39,0,0,1,0-.75A1.43,1.43,0,0,1,66,115.12Z"/><path id="_Path_261" data-name="&lt;Path&gt;" class="cls-1" d="M38.86,126.83a.39.39,0,0,1,0,.75,1.43,1.43,0,0,1-1.3,0,.39.39,0,0,1,0-.75A1.43,1.43,0,0,1,38.86,126.83Z"/><path id="_Path_262" data-name="&lt;Path&gt;" class="cls-1" d="M42.25,124.88a.39.39,0,0,1,0,.75,1.43,1.43,0,0,1-1.3,0,.39.39,0,0,1,0-.75A1.43,1.43,0,0,1,42.25,124.88Z"/><path id="_Path_263" data-name="&lt;Path&gt;" class="cls-1" d="M45.64,122.92a.39.39,0,0,1,0,.75,1.43,1.43,0,0,1-1.3,0,.39.39,0,0,1,0-.75A1.43,1.43,0,0,1,45.64,122.92Z"/><path id="_Path_264" data-name="&lt;Path&gt;" class="cls-1" d="M49,121a.39.39,0,0,1,0,.75,1.43,1.43,0,0,1-1.3,0,.39.39,0,0,1,0-.75A1.43,1.43,0,0,1,49,121Z"/><path id="_Path_265" data-name="&lt;Path&gt;" class="cls-1" d="M52.41,119a.39.39,0,0,1,0,.75,1.43,1.43,0,0,1-1.3,0,.39.39,0,0,1,0-.75A1.43,1.43,0,0,1,52.41,119Z"/><path id="_Path_266" data-name="&lt;Path&gt;" class="cls-1" d="M55.8,117.05a.39.39,0,0,1,0,.75,1.43,1.43,0,0,1-1.3,0,.39.39,0,0,1,0-.75A1.43,1.43,0,0,1,55.8,117.05Z"/><path id="_Path_267" data-name="&lt;Path&gt;" class="cls-1" d="M59.19,115.1a.39.39,0,0,1,0,.75,1.43,1.43,0,0,1-1.3,0,.39.39,0,0,1,0-.75A1.43,1.43,0,0,1,59.19,115.1Z"/><path id="_Path_268" data-name="&lt;Path&gt;" class="cls-1" d="M62.57,113.14a.39.39,0,0,1,0,.75,1.43,1.43,0,0,1-1.3,0,.39.39,0,0,1,0-.75A1.43,1.43,0,0,1,62.57,113.14Z"/><path id="_Path_269" data-name="&lt;Path&gt;" class="cls-1" d="M35.47,124.88a.39.39,0,0,1,0,.75,1.43,1.43,0,0,1-1.3,0,.39.39,0,0,1,0-.75A1.43,1.43,0,0,1,35.47,124.88Z"/><path id="_Path_270" data-name="&lt;Path&gt;" class="cls-1" d="M38.86,122.92a.39.39,0,0,1,0,.75,1.43,1.43,0,0,1-1.3,0,.39.39,0,0,1,0-.75A1.43,1.43,0,0,1,38.86,122.92Z"/><path id="_Path_271" data-name="&lt;Path&gt;" class="cls-1" d="M42.25,121a.39.39,0,0,1,0,.75,1.43,1.43,0,0,1-1.3,0,.39.39,0,0,1,0-.75A1.43,1.43,0,0,1,42.25,121Z"/><path id="_Path_272" data-name="&lt;Path&gt;" class="cls-1" d="M45.64,119a.39.39,0,0,1,0,.75,1.43,1.43,0,0,1-1.3,0,.39.39,0,0,1,0-.75A1.43,1.43,0,0,1,45.64,119Z"/><path id="_Path_273" data-name="&lt;Path&gt;" class="cls-1" d="M49,117.05a.39.39,0,0,1,0,.75,1.43,1.43,0,0,1-1.3,0,.39.39,0,0,1,0-.75A1.43,1.43,0,0,1,49,117.05Z"/><path id="_Path_274" data-name="&lt;Path&gt;" class="cls-1" d="M52.41,115.1a.39.39,0,0,1,0,.75,1.43,1.43,0,0,1-1.3,0,.39.39,0,0,1,0-.75A1.43,1.43,0,0,1,52.41,115.1Z"/><path id="_Path_275" data-name="&lt;Path&gt;" class="cls-1" d="M55.8,113.14a.39.39,0,0,1,0,.75,1.43,1.43,0,0,1-1.3,0,.39.39,0,0,1,0-.75A1.43,1.43,0,0,1,55.8,113.14Z"/><path id="_Path_276" data-name="&lt;Path&gt;" class="cls-1" d="M59.19,111.18a.39.39,0,0,1,0,.75,1.43,1.43,0,0,1-1.3,0,.39.39,0,0,1,0-.75A1.43,1.43,0,0,1,59.19,111.18Z"/><path id="_Path_277" data-name="&lt;Path&gt;" class="cls-1" d="M32.08,122.92a.39.39,0,0,1,0,.75,1.43,1.43,0,0,1-1.3,0,.39.39,0,0,1,0-.75A1.43,1.43,0,0,1,32.08,122.92Z"/><path id="_Path_278" data-name="&lt;Path&gt;" class="cls-1" d="M35.47,121a.39.39,0,0,1,0,.75,1.43,1.43,0,0,1-1.3,0,.39.39,0,0,1,0-.75A1.43,1.43,0,0,1,35.47,121Z"/><path id="_Path_279" data-name="&lt;Path&gt;" class="cls-1" d="M38.86,119a.4.4,0,0,1,0,.75,1.43,1.43,0,0,1-1.3,0,.39.39,0,0,1,0-.75A1.43,1.43,0,0,1,38.86,119Z"/><path id="_Path_280" data-name="&lt;Path&gt;" class="cls-1" d="M42.25,117.05a.39.39,0,0,1,0,.75,1.43,1.43,0,0,1-1.3,0,.39.39,0,0,1,0-.75A1.43,1.43,0,0,1,42.25,117.05Z"/><path id="_Path_281" data-name="&lt;Path&gt;" class="cls-1" d="M45.64,115.1a.39.39,0,0,1,0,.75,1.43,1.43,0,0,1-1.3,0,.39.39,0,0,1,0-.75A1.43,1.43,0,0,1,45.64,115.1Z"/><path id="_Path_282" data-name="&lt;Path&gt;" class="cls-1" d="M49,113.14a.39.39,0,0,1,0,.75,1.43,1.43,0,0,1-1.3,0,.39.39,0,0,1,0-.75A1.43,1.43,0,0,1,49,113.14Z"/><path id="_Path_283" data-name="&lt;Path&gt;" class="cls-1" d="M52.41,111.18a.39.39,0,0,1,0,.75,1.43,1.43,0,0,1-1.3,0,.39.39,0,0,1,0-.75A1.43,1.43,0,0,1,52.41,111.18Z"/><path id="_Path_284" data-name="&lt;Path&gt;" class="cls-1" d="M55.8,109.23a.39.39,0,0,1,0,.75,1.43,1.43,0,0,1-1.3,0,.39.39,0,0,1,0-.75A1.43,1.43,0,0,1,55.8,109.23Z"/><path id="_Path_285" data-name="&lt;Path&gt;" class="cls-1" d="M28.7,121a.39.39,0,0,1,0,.75,1.43,1.43,0,0,1-1.3,0,.39.39,0,0,1,0-.75A1.43,1.43,0,0,1,28.7,121Z"/><path id="_Path_286" data-name="&lt;Path&gt;" class="cls-1" d="M32.08,119a.39.39,0,0,1,0,.75,1.43,1.43,0,0,1-1.3,0,.4.4,0,0,1,0-.75A1.43,1.43,0,0,1,32.08,119Z"/><path id="_Path_287" data-name="&lt;Path&gt;" class="cls-1" d="M35.47,117.05a.39.39,0,0,1,0,.75,1.43,1.43,0,0,1-1.3,0,.39.39,0,0,1,0-.75A1.43,1.43,0,0,1,35.47,117.05Z"/><path id="_Path_288" data-name="&lt;Path&gt;" class="cls-1" d="M38.86,115.1a.39.39,0,0,1,0,.75,1.43,1.43,0,0,1-1.3,0,.39.39,0,0,1,0-.75A1.43,1.43,0,0,1,38.86,115.1Z"/><path id="_Path_289" data-name="&lt;Path&gt;" class="cls-1" d="M42.25,113.14a.39.39,0,0,1,0,.75,1.43,1.43,0,0,1-1.3,0,.39.39,0,0,1,0-.75A1.43,1.43,0,0,1,42.25,113.14Z"/><path id="_Path_290" data-name="&lt;Path&gt;" class="cls-1" d="M45.64,111.19a.39.39,0,0,1,0,.75,1.43,1.43,0,0,1-1.3,0,.39.39,0,0,1,0-.75A1.43,1.43,0,0,1,45.64,111.19Z"/><path id="_Path_291" data-name="&lt;Path&gt;" class="cls-1" d="M49,109.23a.39.39,0,0,1,0,.75,1.43,1.43,0,0,1-1.3,0,.39.39,0,0,1,0-.75A1.43,1.43,0,0,1,49,109.23Z"/><path id="_Path_292" data-name="&lt;Path&gt;" class="cls-1" d="M52.41,107.27a.39.39,0,0,1,0,.75,1.43,1.43,0,0,1-1.3,0,.39.39,0,0,1,0-.75A1.43,1.43,0,0,1,52.41,107.27Z"/><path id="_Path_293" data-name="&lt;Path&gt;" class="cls-1" d="M25.31,119a.39.39,0,0,1,0,.75,1.43,1.43,0,0,1-1.3,0,.39.39,0,0,1,0-.75A1.43,1.43,0,0,1,25.31,119Z"/><path id="_Path_294" data-name="&lt;Path&gt;" class="cls-1" d="M28.7,117.05a.39.39,0,0,1,0,.75,1.43,1.43,0,0,1-1.3,0,.39.39,0,0,1,0-.75A1.43,1.43,0,0,1,28.7,117.05Z"/><path id="_Path_295" data-name="&lt;Path&gt;" class="cls-1" d="M32.08,115.1a.39.39,0,0,1,0,.75,1.43,1.43,0,0,1-1.3,0,.39.39,0,0,1,0-.75A1.43,1.43,0,0,1,32.08,115.1Z"/><path id="_Path_296" data-name="&lt;Path&gt;" class="cls-1" d="M35.47,113.14a.39.39,0,0,1,0,.75,1.43,1.43,0,0,1-1.3,0,.39.39,0,0,1,0-.75A1.43,1.43,0,0,1,35.47,113.14Z"/><path id="_Path_297" data-name="&lt;Path&gt;" class="cls-1" d="M38.86,111.19a.39.39,0,0,1,0,.75,1.43,1.43,0,0,1-1.3,0,.39.39,0,0,1,0-.75A1.43,1.43,0,0,1,38.86,111.19Z"/><path id="_Path_298" data-name="&lt;Path&gt;" class="cls-1" d="M42.25,109.23a.39.39,0,0,1,0,.75,1.43,1.43,0,0,1-1.3,0,.39.39,0,0,1,0-.75A1.43,1.43,0,0,1,42.25,109.23Z"/><path id="_Path_299" data-name="&lt;Path&gt;" class="cls-1" d="M45.64,107.27a.39.39,0,0,1,0,.75,1.43,1.43,0,0,1-1.3,0,.39.39,0,0,1,0-.75A1.43,1.43,0,0,1,45.64,107.27Z"/><path id="_Path_300" data-name="&lt;Path&gt;" class="cls-1" d="M49,105.32a.39.39,0,0,1,0,.75,1.43,1.43,0,0,1-1.3,0,.39.39,0,0,1,0-.75A1.43,1.43,0,0,1,49,105.32Z"/><path id="_Path_301" data-name="&lt;Path&gt;" class="cls-1" d="M21.92,117.05a.39.39,0,0,1,0,.75,1.43,1.43,0,0,1-1.3,0,.39.39,0,0,1,0-.75A1.43,1.43,0,0,1,21.92,117.05Z"/><path id="_Path_302" data-name="&lt;Path&gt;" class="cls-1" d="M25.31,115.1a.39.39,0,0,1,0,.75,1.43,1.43,0,0,1-1.3,0,.39.39,0,0,1,0-.75A1.43,1.43,0,0,1,25.31,115.1Z"/><path id="_Path_303" data-name="&lt;Path&gt;" class="cls-1" d="M28.7,113.14a.39.39,0,0,1,0,.75,1.43,1.43,0,0,1-1.3,0,.39.39,0,0,1,0-.75A1.43,1.43,0,0,1,28.7,113.14Z"/><path id="_Path_304" data-name="&lt;Path&gt;" class="cls-1" d="M32.08,111.19a.39.39,0,0,1,0,.75,1.43,1.43,0,0,1-1.3,0,.39.39,0,0,1,0-.75A1.43,1.43,0,0,1,32.08,111.19Z"/><path id="_Path_305" data-name="&lt;Path&gt;" class="cls-1" d="M35.47,109.23a.39.39,0,0,1,0,.75,1.43,1.43,0,0,1-1.3,0,.39.39,0,0,1,0-.75A1.43,1.43,0,0,1,35.47,109.23Z"/><path id="_Path_306" data-name="&lt;Path&gt;" class="cls-1" d="M38.86,107.27a.39.39,0,0,1,0,.75,1.43,1.43,0,0,1-1.3,0,.39.39,0,0,1,0-.75A1.43,1.43,0,0,1,38.86,107.27Z"/><path id="_Path_307" data-name="&lt;Path&gt;" class="cls-1" d="M42.25,105.32a.39.39,0,0,1,0,.75,1.43,1.43,0,0,1-1.3,0,.39.39,0,0,1,0-.75A1.43,1.43,0,0,1,42.25,105.32Z"/><path id="_Path_308" data-name="&lt;Path&gt;" class="cls-1" d="M45.64,103.36a.39.39,0,0,1,0,.75,1.43,1.43,0,0,1-1.3,0,.39.39,0,0,1,0-.75A1.43,1.43,0,0,1,45.64,103.36Z"/><path id="_Path_309" data-name="&lt;Path&gt;" class="cls-1" d="M18.53,115.1a.39.39,0,0,1,0,.75,1.43,1.43,0,0,1-1.3,0,.39.39,0,0,1,0-.75A1.43,1.43,0,0,1,18.53,115.1Z"/><path id="_Path_310" data-name="&lt;Path&gt;" class="cls-1" d="M21.92,113.14a.39.39,0,0,1,0,.75,1.43,1.43,0,0,1-1.3,0,.39.39,0,0,1,0-.75A1.43,1.43,0,0,1,21.92,113.14Z"/><path id="_Path_311" data-name="&lt;Path&gt;" class="cls-1" d="M25.31,111.19a.39.39,0,0,1,0,.75,1.43,1.43,0,0,1-1.3,0,.39.39,0,0,1,0-.75A1.43,1.43,0,0,1,25.31,111.19Z"/><path id="_Path_312" data-name="&lt;Path&gt;" class="cls-1" d="M28.7,109.23a.39.39,0,0,1,0,.75,1.43,1.43,0,0,1-1.3,0,.39.39,0,0,1,0-.75A1.43,1.43,0,0,1,28.7,109.23Z"/><path id="_Path_313" data-name="&lt;Path&gt;" class="cls-1" d="M32.08,107.27a.39.39,0,0,1,0,.75,1.43,1.43,0,0,1-1.3,0,.39.39,0,0,1,0-.75A1.43,1.43,0,0,1,32.08,107.27Z"/><path id="_Path_314" data-name="&lt;Path&gt;" class="cls-1" d="M35.47,105.32a.39.39,0,0,1,0,.75,1.43,1.43,0,0,1-1.3,0,.39.39,0,0,1,0-.75A1.43,1.43,0,0,1,35.47,105.32Z"/><path id="_Path_315" data-name="&lt;Path&gt;" class="cls-1" d="M38.86,103.36a.39.39,0,0,1,0,.75,1.43,1.43,0,0,1-1.3,0,.39.39,0,0,1,0-.75A1.43,1.43,0,0,1,38.86,103.36Z"/><path id="_Path_316" data-name="&lt;Path&gt;" class="cls-1" d="M42.25,101.4a.4.4,0,0,1,0,.75,1.43,1.43,0,0,1-1.3,0,.4.4,0,0,1,0-.75A1.43,1.43,0,0,1,42.25,101.4Z"/><path id="_Path_317" data-name="&lt;Path&gt;" class="cls-1" d="M15.14,113.14a.39.39,0,0,1,0,.75,1.43,1.43,0,0,1-1.3,0,.39.39,0,0,1,0-.75A1.43,1.43,0,0,1,15.14,113.14Z"/><path id="_Path_318" data-name="&lt;Path&gt;" class="cls-1" d="M18.53,111.19a.39.39,0,0,1,0,.75,1.43,1.43,0,0,1-1.3,0,.39.39,0,0,1,0-.75A1.43,1.43,0,0,1,18.53,111.19Z"/><path id="_Path_319" data-name="&lt;Path&gt;" class="cls-1" d="M21.92,109.23a.39.39,0,0,1,0,.75,1.43,1.43,0,0,1-1.3,0,.39.39,0,0,1,0-.75A1.43,1.43,0,0,1,21.92,109.23Z"/><path id="_Path_320" data-name="&lt;Path&gt;" class="cls-1" d="M25.31,107.27a.39.39,0,0,1,0,.75,1.43,1.43,0,0,1-1.3,0,.39.39,0,0,1,0-.75A1.43,1.43,0,0,1,25.31,107.27Z"/><path id="_Path_321" data-name="&lt;Path&gt;" class="cls-1" d="M28.7,105.32a.39.39,0,0,1,0,.75,1.43,1.43,0,0,1-1.3,0,.39.39,0,0,1,0-.75A1.43,1.43,0,0,1,28.7,105.32Z"/><path id="_Path_322" data-name="&lt;Path&gt;" class="cls-1" d="M32.08,103.36a.39.39,0,0,1,0,.75,1.43,1.43,0,0,1-1.3,0,.39.39,0,0,1,0-.75A1.43,1.43,0,0,1,32.08,103.36Z"/><path id="_Path_323" data-name="&lt;Path&gt;" class="cls-1" d="M35.47,101.4a.4.4,0,0,1,0,.75,1.43,1.43,0,0,1-1.3,0,.4.4,0,0,1,0-.75A1.43,1.43,0,0,1,35.47,101.4Z"/><path id="_Path_324" data-name="&lt;Path&gt;" class="cls-1" d="M38.86,99.45a.39.39,0,0,1,0,.75,1.43,1.43,0,0,1-1.3,0,.39.39,0,0,1,0-.75A1.43,1.43,0,0,1,38.86,99.45Z"/><path id="_Path_325" data-name="&lt;Path&gt;" class="cls-1" d="M11.73,111.16a.4.4,0,0,1,0,.75,1.43,1.43,0,0,1-1.3,0,.39.39,0,0,1,0-.75A1.43,1.43,0,0,1,11.73,111.16Z"/><path id="_Path_326" data-name="&lt;Path&gt;" class="cls-1" d="M15.12,109.21a.39.39,0,0,1,0,.75,1.43,1.43,0,0,1-1.3,0,.39.39,0,0,1,0-.75A1.43,1.43,0,0,1,15.12,109.21Z"/><path id="_Path_327" data-name="&lt;Path&gt;" class="cls-1" d="M18.5,107.25a.39.39,0,0,1,0,.75,1.43,1.43,0,0,1-1.3,0,.39.39,0,0,1,0-.75A1.43,1.43,0,0,1,18.5,107.25Z"/><path id="_Path_328" data-name="&lt;Path&gt;" class="cls-1" d="M21.89,105.3a.39.39,0,0,1,0,.75,1.43,1.43,0,0,1-1.3,0,.39.39,0,0,1,0-.75A1.43,1.43,0,0,1,21.89,105.3Z"/><path id="_Path_329" data-name="&lt;Path&gt;" class="cls-1" d="M25.28,103.34a.39.39,0,0,1,0,.75,1.43,1.43,0,0,1-1.3,0,.39.39,0,0,1,0-.75A1.43,1.43,0,0,1,25.28,103.34Z"/><path id="_Path_330" data-name="&lt;Path&gt;" class="cls-1" d="M28.67,101.38a.39.39,0,0,1,0,.75,1.43,1.43,0,0,1-1.3,0,.39.39,0,0,1,0-.75A1.43,1.43,0,0,1,28.67,101.38Z"/><path id="_Path_331" data-name="&lt;Path&gt;" class="cls-1" d="M32.05,99.43a.39.39,0,0,1,0,.75,1.43,1.43,0,0,1-1.3,0,.39.39,0,0,1,0-.75A1.43,1.43,0,0,1,32.05,99.43Z"/><path id="_Path_332" data-name="&lt;Path&gt;" class="cls-1" d="M35.44,97.47a.39.39,0,0,1,0,.75,1.43,1.43,0,0,1-1.3,0,.39.39,0,0,1,0-.75A1.43,1.43,0,0,1,35.44,97.47Z"/><path id="_Path_333" data-name="&lt;Path&gt;" class="cls-1" d="M8.34,109.21a.39.39,0,0,1,0,.75A1.43,1.43,0,0,1,7,110a.39.39,0,0,1,0-.75A1.43,1.43,0,0,1,8.34,109.21Z"/><path id="_Path_334" data-name="&lt;Path&gt;" class="cls-1" d="M11.73,107.25a.39.39,0,0,1,0,.75,1.43,1.43,0,0,1-1.3,0,.39.39,0,0,1,0-.75A1.43,1.43,0,0,1,11.73,107.25Z"/><path id="_Path_335" data-name="&lt;Path&gt;" class="cls-1" d="M15.12,105.3a.39.39,0,0,1,0,.75,1.43,1.43,0,0,1-1.3,0,.39.39,0,0,1,0-.75A1.43,1.43,0,0,1,15.12,105.3Z"/><path id="_Path_336" data-name="&lt;Path&gt;" class="cls-1" d="M18.5,103.34a.39.39,0,0,1,0,.75,1.43,1.43,0,0,1-1.3,0,.39.39,0,0,1,0-.75A1.43,1.43,0,0,1,18.5,103.34Z"/><path id="_Path_337" data-name="&lt;Path&gt;" class="cls-1" d="M21.89,101.38a.39.39,0,0,1,0,.75,1.43,1.43,0,0,1-1.3,0,.39.39,0,0,1,0-.75A1.43,1.43,0,0,1,21.89,101.38Z"/><path id="_Path_338" data-name="&lt;Path&gt;" class="cls-1" d="M25.28,99.43a.39.39,0,0,1,0,.75,1.43,1.43,0,0,1-1.3,0,.39.39,0,0,1,0-.75A1.43,1.43,0,0,1,25.28,99.43Z"/><path id="_Path_339" data-name="&lt;Path&gt;" class="cls-1" d="M28.67,97.47a.39.39,0,0,1,0,.75,1.43,1.43,0,0,1-1.3,0,.39.39,0,0,1,0-.75A1.43,1.43,0,0,1,28.67,97.47Z"/><path id="_Path_340" data-name="&lt;Path&gt;" class="cls-1" d="M32.05,95.52a.39.39,0,0,1,0,.75,1.43,1.43,0,0,1-1.3,0,.39.39,0,0,1,0-.75A1.43,1.43,0,0,1,32.05,95.52Z"/><path id="_Path_341" data-name="&lt;Path&gt;" class="cls-1" d="M8.34,105.3a.39.39,0,0,1,0,.75A1.43,1.43,0,0,1,7,106a.39.39,0,0,1,0-.75A1.43,1.43,0,0,1,8.34,105.3Z"/><path id="_Path_342" data-name="&lt;Path&gt;" class="cls-1" d="M11.73,103.34a.39.39,0,0,1,0,.75,1.43,1.43,0,0,1-1.3,0,.39.39,0,0,1,0-.75A1.43,1.43,0,0,1,11.73,103.34Z"/><path id="_Path_343" data-name="&lt;Path&gt;" class="cls-1" d="M15.12,101.38a.39.39,0,0,1,0,.75,1.43,1.43,0,0,1-1.3,0,.39.39,0,0,1,0-.75A1.43,1.43,0,0,1,15.12,101.38Z"/><path id="_Path_344" data-name="&lt;Path&gt;" class="cls-1" d="M18.5,99.43a.39.39,0,0,1,0,.75,1.43,1.43,0,0,1-1.3,0,.39.39,0,0,1,0-.75A1.43,1.43,0,0,1,18.5,99.43Z"/><path id="_Path_345" data-name="&lt;Path&gt;" class="cls-1" d="M21.89,97.47a.39.39,0,0,1,0,.75,1.43,1.43,0,0,1-1.3,0,.39.39,0,0,1,0-.75A1.43,1.43,0,0,1,21.89,97.47Z"/><path id="_Path_346" data-name="&lt;Path&gt;" class="cls-1" d="M25.28,95.52a.39.39,0,0,1,0,.75,1.43,1.43,0,0,1-1.3,0,.39.39,0,0,1,0-.75A1.43,1.43,0,0,1,25.28,95.52Z"/><path id="_Path_347" data-name="&lt;Path&gt;" class="cls-1" d="M66.12,138.28a.39.39,0,0,1,0,.75,1.43,1.43,0,0,1-1.3,0,.39.39,0,0,1,0-.75A1.43,1.43,0,0,1,66.12,138.28Z"/><path id="_Path_348" data-name="&lt;Path&gt;" class="cls-1" d="M69.51,136.32a.39.39,0,0,1,0,.75,1.43,1.43,0,0,1-1.3,0,.39.39,0,0,1,0-.75A1.43,1.43,0,0,1,69.51,136.32Z"/><path id="_Path_349" data-name="&lt;Path&gt;" class="cls-1" d="M72.9,134.36a.39.39,0,0,1,0,.75,1.43,1.43,0,0,1-1.3,0,.39.39,0,0,1,0-.75A1.43,1.43,0,0,1,72.9,134.36Z"/><path id="_Path_350" data-name="&lt;Path&gt;" class="cls-1" d="M76.29,132.41a.39.39,0,0,1,0,.75,1.43,1.43,0,0,1-1.3,0,.39.39,0,0,1,0-.75A1.43,1.43,0,0,1,76.29,132.41Z"/><path id="_Path_351" data-name="&lt;Path&gt;" class="cls-1" d="M79.68,130.45a.39.39,0,0,1,0,.75,1.43,1.43,0,0,1-1.3,0,.39.39,0,0,1,0-.75A1.43,1.43,0,0,1,79.68,130.45Z"/><path id="_Path_352" data-name="&lt;Path&gt;" class="cls-1" d="M59.35,138.28a.39.39,0,0,1,0,.75,1.43,1.43,0,0,1-1.3,0,.39.39,0,0,1,0-.75A1.43,1.43,0,0,1,59.35,138.28Z"/><path id="_Path_353" data-name="&lt;Path&gt;" class="cls-1" d="M62.74,136.32a.39.39,0,0,1,0,.75,1.43,1.43,0,0,1-1.3,0,.39.39,0,0,1,0-.75A1.43,1.43,0,0,1,62.74,136.32Z"/><path id="_Path_354" data-name="&lt;Path&gt;" class="cls-1" d="M66.12,134.36a.39.39,0,0,1,0,.75,1.43,1.43,0,0,1-1.3,0,.39.39,0,0,1,0-.75A1.43,1.43,0,0,1,66.12,134.36Z"/><path id="_Path_355" data-name="&lt;Path&gt;" class="cls-1" d="M69.51,132.41a.39.39,0,0,1,0,.75,1.43,1.43,0,0,1-1.3,0,.39.39,0,0,1,0-.75A1.43,1.43,0,0,1,69.51,132.41Z"/><path id="_Path_356" data-name="&lt;Path&gt;" class="cls-1" d="M72.9,130.45a.39.39,0,0,1,0,.75,1.43,1.43,0,0,1-1.3,0,.39.39,0,0,1,0-.75A1.43,1.43,0,0,1,72.9,130.45Z"/><path id="_Path_357" data-name="&lt;Path&gt;" class="cls-1" d="M76.29,128.5a.39.39,0,0,1,0,.75,1.43,1.43,0,0,1-1.3,0,.39.39,0,0,1,0-.75A1.43,1.43,0,0,1,76.29,128.5Z"/><path id="_Path_358" data-name="&lt;Path&gt;" class="cls-1" d="M79.68,126.54a.39.39,0,0,1,0,.75,1.43,1.43,0,0,1-1.3,0,.39.39,0,0,1,0-.75A1.43,1.43,0,0,1,79.68,126.54Z"/><path id="_Path_359" data-name="&lt;Path&gt;" class="cls-1" d="M82.93,124.91a.39.39,0,0,1,0,.75,1.43,1.43,0,0,1-1.3,0,.4.4,0,0,1,0-.75A1.43,1.43,0,0,1,82.93,124.91Z"/><path id="_Path_360" data-name="&lt;Path&gt;" class="cls-1" d="M83.06,128.51a.39.39,0,0,1,0,.75,1.43,1.43,0,0,1-1.3,0,.39.39,0,0,1,0-.75A1.43,1.43,0,0,1,83.06,128.51Z"/></g><g id="_Group_4" data-name="&lt;Group&gt;"><path id="_Path_361" data-name="&lt;Path&gt;" class="cls-1" d="M49.05,132.72a.39.39,0,0,1,0,.75,1.43,1.43,0,0,1-1.3,0,.39.39,0,0,1,0-.75A1.43,1.43,0,0,1,49.05,132.72Z"/><path id="_Path_362" data-name="&lt;Path&gt;" class="cls-1" d="M52.44,130.77a.39.39,0,0,1,0,.75,1.43,1.43,0,0,1-1.3,0,.39.39,0,0,1,0-.75A1.43,1.43,0,0,1,52.44,130.77Z"/><path id="_Path_363" data-name="&lt;Path&gt;" class="cls-1" d="M55.83,128.81a.39.39,0,0,1,0,.75,1.43,1.43,0,0,1-1.3,0,.39.39,0,0,1,0-.75A1.43,1.43,0,0,1,55.83,128.81Z"/><path id="_Path_364" data-name="&lt;Path&gt;" class="cls-1" d="M59.22,126.85a.39.39,0,0,1,0,.75,1.43,1.43,0,0,1-1.3,0,.39.39,0,0,1,0-.75A1.43,1.43,0,0,1,59.22,126.85Z"/><path id="_Path_365" data-name="&lt;Path&gt;" class="cls-1" d="M62.6,124.9a.39.39,0,0,1,0,.75,1.43,1.43,0,0,1-1.3,0,.39.39,0,0,1,0-.75A1.43,1.43,0,0,1,62.6,124.9Z"/><path id="_Path_366" data-name="&lt;Path&gt;" class="cls-1" d="M66,122.94a.39.39,0,0,1,0,.75,1.43,1.43,0,0,1-1.3,0,.39.39,0,0,1,0-.75A1.43,1.43,0,0,1,66,122.94Z"/><path id="_Path_367" data-name="&lt;Path&gt;" class="cls-1" d="M69.38,121a.39.39,0,0,1,0,.75,1.43,1.43,0,0,1-1.3,0,.4.4,0,0,1,0-.75A1.43,1.43,0,0,1,69.38,121Z"/><path id="_Path_368" data-name="&lt;Path&gt;" class="cls-1" d="M72.77,119a.39.39,0,0,1,0,.75,1.43,1.43,0,0,1-1.3,0,.39.39,0,0,1,0-.75A1.43,1.43,0,0,1,72.77,119Z"/><path id="_Path_369" data-name="&lt;Path&gt;" class="cls-1" d="M45.66,130.77a.39.39,0,0,1,0,.75,1.43,1.43,0,0,1-1.3,0,.39.39,0,0,1,0-.75A1.43,1.43,0,0,1,45.66,130.77Z"/><path id="_Path_370" data-name="&lt;Path&gt;" class="cls-1" d="M49.05,128.81a.39.39,0,0,1,0,.75,1.43,1.43,0,0,1-1.3,0,.39.39,0,0,1,0-.75A1.43,1.43,0,0,1,49.05,128.81Z"/><path id="_Path_371" data-name="&lt;Path&gt;" class="cls-1" d="M52.44,126.85a.39.39,0,0,1,0,.75,1.43,1.43,0,0,1-1.3,0,.39.39,0,0,1,0-.75A1.43,1.43,0,0,1,52.44,126.85Z"/><path id="_Path_372" data-name="&lt;Path&gt;" class="cls-1" d="M55.83,124.9a.39.39,0,0,1,0,.75,1.43,1.43,0,0,1-1.3,0,.39.39,0,0,1,0-.75A1.43,1.43,0,0,1,55.83,124.9Z"/><path id="_Path_373" data-name="&lt;Path&gt;" class="cls-1" d="M59.22,122.94a.39.39,0,0,1,0,.75,1.43,1.43,0,0,1-1.3,0,.4.4,0,0,1,0-.75A1.43,1.43,0,0,1,59.22,122.94Z"/><path id="_Path_374" data-name="&lt;Path&gt;" class="cls-1" d="M62.6,121a.4.4,0,0,1,0,.75,1.43,1.43,0,0,1-1.3,0,.39.39,0,0,1,0-.75A1.43,1.43,0,0,1,62.6,121Z"/><path id="_Path_375" data-name="&lt;Path&gt;" class="cls-1" d="M66,119a.39.39,0,0,1,0,.75,1.43,1.43,0,0,1-1.3,0,.39.39,0,0,1,0-.75A1.43,1.43,0,0,1,66,119Z"/><path id="_Path_376" data-name="&lt;Path&gt;" class="cls-1" d="M69.38,117.07a.39.39,0,0,1,0,.75,1.43,1.43,0,0,1-1.3,0,.39.39,0,0,1,0-.75A1.43,1.43,0,0,1,69.38,117.07Z"/><path id="_Path_377" data-name="&lt;Path&gt;" class="cls-1" d="M42.28,128.81a.39.39,0,0,1,0,.75,1.43,1.43,0,0,1-1.3,0,.39.39,0,0,1,0-.75A1.43,1.43,0,0,1,42.28,128.81Z"/><path id="_Path_378" data-name="&lt;Path&gt;" class="cls-1" d="M45.66,126.85a.39.39,0,0,1,0,.75,1.43,1.43,0,0,1-1.3,0,.39.39,0,0,1,0-.75A1.43,1.43,0,0,1,45.66,126.85Z"/><path id="_Path_379" data-name="&lt;Path&gt;" class="cls-1" d="M49.05,124.9a.39.39,0,0,1,0,.75,1.43,1.43,0,0,1-1.3,0,.39.39,0,0,1,0-.75A1.43,1.43,0,0,1,49.05,124.9Z"/><path id="_Path_380" data-name="&lt;Path&gt;" class="cls-1" d="M52.44,122.94a.39.39,0,0,1,0,.75,1.43,1.43,0,0,1-1.3,0,.4.4,0,0,1,0-.75A1.43,1.43,0,0,1,52.44,122.94Z"/><path id="_Path_381" data-name="&lt;Path&gt;" class="cls-1" d="M55.83,121a.39.39,0,0,1,0,.75,1.43,1.43,0,0,1-1.3,0,.39.39,0,0,1,0-.75A1.43,1.43,0,0,1,55.83,121Z"/><path id="_Path_382" data-name="&lt;Path&gt;" class="cls-1" d="M59.22,119a.39.39,0,0,1,0,.75,1.43,1.43,0,0,1-1.3,0,.39.39,0,0,1,0-.75A1.43,1.43,0,0,1,59.22,119Z"/><path id="_Path_383" data-name="&lt;Path&gt;" class="cls-1" d="M62.6,117.07a.39.39,0,0,1,0,.75,1.43,1.43,0,0,1-1.3,0,.39.39,0,0,1,0-.75A1.43,1.43,0,0,1,62.6,117.07Z"/><path id="_Path_384" data-name="&lt;Path&gt;" class="cls-1" d="M66,115.12a.39.39,0,0,1,0,.75,1.43,1.43,0,0,1-1.3,0,.39.39,0,0,1,0-.75A1.43,1.43,0,0,1,66,115.12Z"/><path id="_Path_385" data-name="&lt;Path&gt;" class="cls-1" d="M38.89,126.85a.39.39,0,0,1,0,.75,1.43,1.43,0,0,1-1.3,0,.39.39,0,0,1,0-.75A1.43,1.43,0,0,1,38.89,126.85Z"/><path id="_Path_386" data-name="&lt;Path&gt;" class="cls-1" d="M42.28,124.9a.39.39,0,0,1,0,.75,1.43,1.43,0,0,1-1.3,0,.39.39,0,0,1,0-.75A1.43,1.43,0,0,1,42.28,124.9Z"/><path id="_Path_387" data-name="&lt;Path&gt;" class="cls-1" d="M45.66,122.94a.4.4,0,0,1,0,.75,1.43,1.43,0,0,1-1.3,0,.4.4,0,0,1,0-.75A1.43,1.43,0,0,1,45.66,122.94Z"/><path id="_Path_388" data-name="&lt;Path&gt;" class="cls-1" d="M49.05,121a.39.39,0,0,1,0,.75,1.43,1.43,0,0,1-1.3,0,.39.39,0,0,1,0-.75A1.43,1.43,0,0,1,49.05,121Z"/><path id="_Path_389" data-name="&lt;Path&gt;" class="cls-1" d="M52.44,119a.39.39,0,0,1,0,.75,1.43,1.43,0,0,1-1.3,0,.39.39,0,0,1,0-.75A1.43,1.43,0,0,1,52.44,119Z"/><path id="_Path_390" data-name="&lt;Path&gt;" class="cls-1" d="M55.83,117.07a.39.39,0,0,1,0,.75,1.43,1.43,0,0,1-1.3,0,.39.39,0,0,1,0-.75A1.43,1.43,0,0,1,55.83,117.07Z"/><path id="_Path_391" data-name="&lt;Path&gt;" class="cls-1" d="M59.22,115.12a.39.39,0,0,1,0,.75,1.43,1.43,0,0,1-1.3,0,.39.39,0,0,1,0-.75A1.43,1.43,0,0,1,59.22,115.12Z"/><path id="_Path_392" data-name="&lt;Path&gt;" class="cls-1" d="M62.6,113.16a.39.39,0,0,1,0,.75,1.43,1.43,0,0,1-1.3,0,.39.39,0,0,1,0-.75A1.43,1.43,0,0,1,62.6,113.16Z"/><path id="_Path_393" data-name="&lt;Path&gt;" class="cls-1" d="M35.5,124.9a.4.4,0,0,1,0,.75,1.43,1.43,0,0,1-1.3,0,.4.4,0,0,1,0-.75A1.43,1.43,0,0,1,35.5,124.9Z"/><path id="_Path_394" data-name="&lt;Path&gt;" class="cls-1" d="M38.89,122.94a.39.39,0,0,1,0,.75,1.43,1.43,0,0,1-1.3,0,.39.39,0,0,1,0-.75A1.43,1.43,0,0,1,38.89,122.94Z"/><path id="_Path_395" data-name="&lt;Path&gt;" class="cls-1" d="M42.28,121a.39.39,0,0,1,0,.75,1.43,1.43,0,0,1-1.3,0,.39.39,0,0,1,0-.75A1.43,1.43,0,0,1,42.28,121Z"/><path id="_Path_396" data-name="&lt;Path&gt;" class="cls-1" d="M45.66,119a.39.39,0,0,1,0,.75,1.43,1.43,0,0,1-1.3,0,.39.39,0,0,1,0-.75A1.43,1.43,0,0,1,45.66,119Z"/><path id="_Path_397" data-name="&lt;Path&gt;" class="cls-1" d="M49.05,117.07a.39.39,0,0,1,0,.75,1.43,1.43,0,0,1-1.3,0,.39.39,0,0,1,0-.75A1.43,1.43,0,0,1,49.05,117.07Z"/><path id="_Path_398" data-name="&lt;Path&gt;" class="cls-1" d="M52.44,115.12a.39.39,0,0,1,0,.75,1.43,1.43,0,0,1-1.3,0,.39.39,0,0,1,0-.75A1.43,1.43,0,0,1,52.44,115.12Z"/><path id="_Path_399" data-name="&lt;Path&gt;" class="cls-1" d="M55.83,113.16a.39.39,0,0,1,0,.75,1.43,1.43,0,0,1-1.3,0,.39.39,0,0,1,0-.75A1.43,1.43,0,0,1,55.83,113.16Z"/><path id="_Path_400" data-name="&lt;Path&gt;" class="cls-1" d="M59.22,111.21a.39.39,0,0,1,0,.75,1.43,1.43,0,0,1-1.3,0,.39.39,0,0,1,0-.75A1.43,1.43,0,0,1,59.22,111.21Z"/><path id="_Path_401" data-name="&lt;Path&gt;" class="cls-1" d="M32.08,122.92a.39.39,0,0,1,0,.75,1.43,1.43,0,0,1-1.3,0,.39.39,0,0,1,0-.75A1.43,1.43,0,0,1,32.08,122.92Z"/><path id="_Path_402" data-name="&lt;Path&gt;" class="cls-1" d="M35.47,121a.39.39,0,0,1,0,.75,1.43,1.43,0,0,1-1.3,0,.39.39,0,0,1,0-.75A1.43,1.43,0,0,1,35.47,121Z"/><path id="_Path_403" data-name="&lt;Path&gt;" class="cls-1" d="M38.86,119a.39.39,0,0,1,0,.75,1.43,1.43,0,0,1-1.3,0,.39.39,0,0,1,0-.75A1.43,1.43,0,0,1,38.86,119Z"/><path id="_Path_404" data-name="&lt;Path&gt;" class="cls-1" d="M42.25,117.05a.39.39,0,0,1,0,.75,1.43,1.43,0,0,1-1.3,0,.39.39,0,0,1,0-.75A1.43,1.43,0,0,1,42.25,117.05Z"/><path id="_Path_405" data-name="&lt;Path&gt;" class="cls-1" d="M45.64,115.1a.39.39,0,0,1,0,.75,1.43,1.43,0,0,1-1.3,0,.39.39,0,0,1,0-.75A1.43,1.43,0,0,1,45.64,115.1Z"/><path id="_Path_406" data-name="&lt;Path&gt;" class="cls-1" d="M49,113.14a.39.39,0,0,1,0,.75,1.43,1.43,0,0,1-1.3,0,.39.39,0,0,1,0-.75A1.43,1.43,0,0,1,49,113.14Z"/><path id="_Path_407" data-name="&lt;Path&gt;" class="cls-1" d="M52.41,111.18a.39.39,0,0,1,0,.75,1.43,1.43,0,0,1-1.3,0,.39.39,0,0,1,0-.75A1.43,1.43,0,0,1,52.41,111.18Z"/><path id="_Path_408" data-name="&lt;Path&gt;" class="cls-1" d="M55.8,109.23a.39.39,0,0,1,0,.75,1.43,1.43,0,0,1-1.3,0,.39.39,0,0,1,0-.75A1.43,1.43,0,0,1,55.8,109.23Z"/><path id="_Path_409" data-name="&lt;Path&gt;" class="cls-1" d="M28.7,121a.39.39,0,0,1,0,.75,1.43,1.43,0,0,1-1.3,0,.39.39,0,0,1,0-.75A1.43,1.43,0,0,1,28.7,121Z"/><path id="_Path_410" data-name="&lt;Path&gt;" class="cls-1" d="M32.08,119a.39.39,0,0,1,0,.75,1.43,1.43,0,0,1-1.3,0,.39.39,0,0,1,0-.75A1.43,1.43,0,0,1,32.08,119Z"/><path id="_Path_411" data-name="&lt;Path&gt;" class="cls-1" d="M35.47,117.05a.39.39,0,0,1,0,.75,1.43,1.43,0,0,1-1.3,0,.39.39,0,0,1,0-.75A1.43,1.43,0,0,1,35.47,117.05Z"/><path id="_Path_412" data-name="&lt;Path&gt;" class="cls-1" d="M38.86,115.1a.39.39,0,0,1,0,.75,1.43,1.43,0,0,1-1.3,0,.39.39,0,0,1,0-.75A1.43,1.43,0,0,1,38.86,115.1Z"/><path id="_Path_413" data-name="&lt;Path&gt;" class="cls-1" d="M42.25,113.14a.39.39,0,0,1,0,.75,1.43,1.43,0,0,1-1.3,0,.39.39,0,0,1,0-.75A1.43,1.43,0,0,1,42.25,113.14Z"/><path id="_Path_414" data-name="&lt;Path&gt;" class="cls-1" d="M45.64,111.18a.39.39,0,0,1,0,.75,1.43,1.43,0,0,1-1.3,0,.39.39,0,0,1,0-.75A1.43,1.43,0,0,1,45.64,111.18Z"/><path id="_Path_415" data-name="&lt;Path&gt;" class="cls-1" d="M49,109.23a.39.39,0,0,1,0,.75,1.43,1.43,0,0,1-1.3,0,.39.39,0,0,1,0-.75A1.43,1.43,0,0,1,49,109.23Z"/><path id="_Path_416" data-name="&lt;Path&gt;" class="cls-1" d="M52.41,107.27a.39.39,0,0,1,0,.75,1.43,1.43,0,0,1-1.3,0,.39.39,0,0,1,0-.75A1.43,1.43,0,0,1,52.41,107.27Z"/><path id="_Path_417" data-name="&lt;Path&gt;" class="cls-1" d="M25.31,119a.39.39,0,0,1,0,.75,1.43,1.43,0,0,1-1.3,0,.39.39,0,0,1,0-.75A1.43,1.43,0,0,1,25.31,119Z"/><path id="_Path_418" data-name="&lt;Path&gt;" class="cls-1" d="M28.7,117.05a.39.39,0,0,1,0,.75,1.43,1.43,0,0,1-1.3,0,.39.39,0,0,1,0-.75A1.43,1.43,0,0,1,28.7,117.05Z"/><path id="_Path_419" data-name="&lt;Path&gt;" class="cls-1" d="M32.08,115.1a.4.4,0,0,1,0,.75,1.43,1.43,0,0,1-1.3,0,.39.39,0,0,1,0-.75A1.43,1.43,0,0,1,32.08,115.1Z"/><path id="_Path_420" data-name="&lt;Path&gt;" class="cls-1" d="M35.47,113.14a.39.39,0,0,1,0,.75,1.43,1.43,0,0,1-1.3,0,.39.39,0,0,1,0-.75A1.43,1.43,0,0,1,35.47,113.14Z"/><path id="_Path_421" data-name="&lt;Path&gt;" class="cls-1" d="M38.86,111.18a.39.39,0,0,1,0,.75,1.43,1.43,0,0,1-1.3,0,.39.39,0,0,1,0-.75A1.43,1.43,0,0,1,38.86,111.18Z"/><path id="_Path_422" data-name="&lt;Path&gt;" class="cls-1" d="M42.25,109.23a.39.39,0,0,1,0,.75,1.43,1.43,0,0,1-1.3,0,.39.39,0,0,1,0-.75A1.43,1.43,0,0,1,42.25,109.23Z"/><path id="_Path_423" data-name="&lt;Path&gt;" class="cls-1" d="M45.64,107.27a.39.39,0,0,1,0,.75,1.43,1.43,0,0,1-1.3,0,.39.39,0,0,1,0-.75A1.43,1.43,0,0,1,45.64,107.27Z"/><path id="_Path_424" data-name="&lt;Path&gt;" class="cls-1" d="M49,105.32a.39.39,0,0,1,0,.75,1.43,1.43,0,0,1-1.3,0,.39.39,0,0,1,0-.75A1.43,1.43,0,0,1,49,105.32Z"/><path id="_Path_425" data-name="&lt;Path&gt;" class="cls-1" d="M21.92,117.05a.39.39,0,0,1,0,.75,1.43,1.43,0,0,1-1.3,0,.39.39,0,0,1,0-.75A1.43,1.43,0,0,1,21.92,117.05Z"/><path id="_Path_426" data-name="&lt;Path&gt;" class="cls-1" d="M25.31,115.1a.39.39,0,0,1,0,.75,1.43,1.43,0,0,1-1.3,0,.4.4,0,0,1,0-.75A1.43,1.43,0,0,1,25.31,115.1Z"/><path id="_Path_427" data-name="&lt;Path&gt;" class="cls-1" d="M28.7,113.14a.39.39,0,0,1,0,.75,1.43,1.43,0,0,1-1.3,0,.39.39,0,0,1,0-.75A1.43,1.43,0,0,1,28.7,113.14Z"/><path id="_Path_428" data-name="&lt;Path&gt;" class="cls-1" d="M32.08,111.18a.39.39,0,0,1,0,.75,1.43,1.43,0,0,1-1.3,0,.39.39,0,0,1,0-.75A1.43,1.43,0,0,1,32.08,111.18Z"/><path id="_Path_429" data-name="&lt;Path&gt;" class="cls-1" d="M35.47,109.23a.39.39,0,0,1,0,.75,1.43,1.43,0,0,1-1.3,0,.39.39,0,0,1,0-.75A1.43,1.43,0,0,1,35.47,109.23Z"/><path id="_Path_430" data-name="&lt;Path&gt;" class="cls-1" d="M38.86,107.27a.39.39,0,0,1,0,.75,1.43,1.43,0,0,1-1.3,0,.39.39,0,0,1,0-.75A1.43,1.43,0,0,1,38.86,107.27Z"/><path id="_Path_431" data-name="&lt;Path&gt;" class="cls-1" d="M42.25,105.32a.39.39,0,0,1,0,.75,1.43,1.43,0,0,1-1.3,0,.39.39,0,0,1,0-.75A1.43,1.43,0,0,1,42.25,105.32Z"/><path id="_Path_432" data-name="&lt;Path&gt;" class="cls-1" d="M45.64,103.36a.39.39,0,0,1,0,.75,1.43,1.43,0,0,1-1.3,0,.39.39,0,0,1,0-.75A1.43,1.43,0,0,1,45.64,103.36Z"/><path id="_Path_433" data-name="&lt;Path&gt;" class="cls-1" d="M18.53,115.1a.39.39,0,0,1,0,.75,1.43,1.43,0,0,1-1.3,0,.39.39,0,0,1,0-.75A1.43,1.43,0,0,1,18.53,115.1Z"/><path id="_Path_434" data-name="&lt;Path&gt;" class="cls-1" d="M21.92,113.14a.39.39,0,0,1,0,.75,1.43,1.43,0,0,1-1.3,0,.39.39,0,0,1,0-.75A1.43,1.43,0,0,1,21.92,113.14Z"/><path id="_Path_435" data-name="&lt;Path&gt;" class="cls-1" d="M25.31,111.18a.39.39,0,0,1,0,.75,1.43,1.43,0,0,1-1.3,0,.39.39,0,0,1,0-.75A1.43,1.43,0,0,1,25.31,111.18Z"/><path id="_Path_436" data-name="&lt;Path&gt;" class="cls-1" d="M28.7,109.23a.39.39,0,0,1,0,.75,1.43,1.43,0,0,1-1.3,0,.39.39,0,0,1,0-.75A1.43,1.43,0,0,1,28.7,109.23Z"/><path id="_Path_437" data-name="&lt;Path&gt;" class="cls-1" d="M32.08,107.27a.39.39,0,0,1,0,.75,1.43,1.43,0,0,1-1.3,0,.39.39,0,0,1,0-.75A1.43,1.43,0,0,1,32.08,107.27Z"/><path id="_Path_438" data-name="&lt;Path&gt;" class="cls-1" d="M35.47,105.32a.39.39,0,0,1,0,.75,1.43,1.43,0,0,1-1.3,0,.39.39,0,0,1,0-.75A1.43,1.43,0,0,1,35.47,105.32Z"/><path id="_Path_439" data-name="&lt;Path&gt;" class="cls-1" d="M38.86,103.36a.39.39,0,0,1,0,.75,1.43,1.43,0,0,1-1.3,0,.39.39,0,0,1,0-.75A1.43,1.43,0,0,1,38.86,103.36Z"/><path id="_Path_440" data-name="&lt;Path&gt;" class="cls-1" d="M42.25,101.4a.39.39,0,0,1,0,.75,1.43,1.43,0,0,1-1.3,0,.39.39,0,0,1,0-.75A1.43,1.43,0,0,1,42.25,101.4Z"/><path id="_Path_441" data-name="&lt;Path&gt;" class="cls-1" d="M15.14,113.14a.39.39,0,0,1,0,.75,1.43,1.43,0,0,1-1.3,0,.39.39,0,0,1,0-.75A1.43,1.43,0,0,1,15.14,113.14Z"/><path id="_Path_442" data-name="&lt;Path&gt;" class="cls-1" d="M18.53,111.18a.39.39,0,0,1,0,.75,1.43,1.43,0,0,1-1.3,0,.39.39,0,0,1,0-.75A1.43,1.43,0,0,1,18.53,111.18Z"/><path id="_Path_443" data-name="&lt;Path&gt;" class="cls-1" d="M21.92,109.23a.39.39,0,0,1,0,.75,1.43,1.43,0,0,1-1.3,0,.39.39,0,0,1,0-.75A1.43,1.43,0,0,1,21.92,109.23Z"/><path id="_Path_444" data-name="&lt;Path&gt;" class="cls-1" d="M25.31,107.27a.39.39,0,0,1,0,.75,1.43,1.43,0,0,1-1.3,0,.39.39,0,0,1,0-.75A1.43,1.43,0,0,1,25.31,107.27Z"/><path id="_Path_445" data-name="&lt;Path&gt;" class="cls-1" d="M28.7,105.32a.39.39,0,0,1,0,.75,1.43,1.43,0,0,1-1.3,0,.39.39,0,0,1,0-.75A1.43,1.43,0,0,1,28.7,105.32Z"/><path id="_Path_446" data-name="&lt;Path&gt;" class="cls-1" d="M32.08,103.36a.39.39,0,0,1,0,.75,1.43,1.43,0,0,1-1.3,0,.39.39,0,0,1,0-.75A1.43,1.43,0,0,1,32.08,103.36Z"/><path id="_Path_447" data-name="&lt;Path&gt;" class="cls-1" d="M35.47,101.4a.39.39,0,0,1,0,.75,1.43,1.43,0,0,1-1.3,0,.39.39,0,0,1,0-.75A1.43,1.43,0,0,1,35.47,101.4Z"/><path id="_Path_448" data-name="&lt;Path&gt;" class="cls-1" d="M38.86,99.45a.39.39,0,0,1,0,.75,1.43,1.43,0,0,1-1.3,0,.39.39,0,0,1,0-.75A1.43,1.43,0,0,1,38.86,99.45Z"/><path id="_Path_449" data-name="&lt;Path&gt;" class="cls-1" d="M11.76,111.18a.39.39,0,0,1,0,.75,1.43,1.43,0,0,1-1.3,0,.39.39,0,0,1,0-.75A1.43,1.43,0,0,1,11.76,111.18Z"/><path id="_Path_450" data-name="&lt;Path&gt;" class="cls-1" d="M15.14,109.23a.39.39,0,0,1,0,.75,1.43,1.43,0,0,1-1.3,0,.39.39,0,0,1,0-.75A1.43,1.43,0,0,1,15.14,109.23Z"/><path id="_Path_451" data-name="&lt;Path&gt;" class="cls-1" d="M18.53,107.27a.39.39,0,0,1,0,.75,1.43,1.43,0,0,1-1.3,0,.39.39,0,0,1,0-.75A1.43,1.43,0,0,1,18.53,107.27Z"/><path id="_Path_452" data-name="&lt;Path&gt;" class="cls-1" d="M21.92,105.32a.39.39,0,0,1,0,.75,1.43,1.43,0,0,1-1.3,0,.39.39,0,0,1,0-.75A1.43,1.43,0,0,1,21.92,105.32Z"/><path id="_Path_453" data-name="&lt;Path&gt;" class="cls-1" d="M25.31,103.36a.39.39,0,0,1,0,.75,1.43,1.43,0,0,1-1.3,0,.39.39,0,0,1,0-.75A1.43,1.43,0,0,1,25.31,103.36Z"/><path id="_Path_454" data-name="&lt;Path&gt;" class="cls-1" d="M28.7,101.4a.39.39,0,0,1,0,.75,1.43,1.43,0,0,1-1.3,0,.39.39,0,0,1,0-.75A1.43,1.43,0,0,1,28.7,101.4Z"/><path id="_Path_455" data-name="&lt;Path&gt;" class="cls-1" d="M32.08,99.45a.39.39,0,0,1,0,.75,1.43,1.43,0,0,1-1.3,0,.39.39,0,0,1,0-.75A1.43,1.43,0,0,1,32.08,99.45Z"/><path id="_Path_456" data-name="&lt;Path&gt;" class="cls-1" d="M35.47,97.49a.4.4,0,0,1,0,.75,1.43,1.43,0,0,1-1.3,0,.4.4,0,0,1,0-.75A1.43,1.43,0,0,1,35.47,97.49Z"/><path id="_Path_457" data-name="&lt;Path&gt;" class="cls-1" d="M8.37,109.23a.39.39,0,0,1,0,.75,1.43,1.43,0,0,1-1.3,0,.39.39,0,0,1,0-.75A1.43,1.43,0,0,1,8.37,109.23Z"/><path id="_Path_458" data-name="&lt;Path&gt;" class="cls-1" d="M11.76,107.27a.39.39,0,0,1,0,.75,1.43,1.43,0,0,1-1.3,0,.39.39,0,0,1,0-.75A1.43,1.43,0,0,1,11.76,107.27Z"/><path id="_Path_459" data-name="&lt;Path&gt;" class="cls-1" d="M15.14,105.32a.39.39,0,0,1,0,.75,1.43,1.43,0,0,1-1.3,0,.39.39,0,0,1,0-.75A1.43,1.43,0,0,1,15.14,105.32Z"/><path id="_Path_460" data-name="&lt;Path&gt;" class="cls-1" d="M18.53,103.36a.39.39,0,0,1,0,.75,1.43,1.43,0,0,1-1.3,0,.39.39,0,0,1,0-.75A1.43,1.43,0,0,1,18.53,103.36Z"/><path id="_Path_461" data-name="&lt;Path&gt;" class="cls-1" d="M21.92,101.4a.39.39,0,0,1,0,.75,1.43,1.43,0,0,1-1.3,0,.39.39,0,0,1,0-.75A1.43,1.43,0,0,1,21.92,101.4Z"/><path id="_Path_462" data-name="&lt;Path&gt;" class="cls-1" d="M25.31,99.45a.39.39,0,0,1,0,.75,1.43,1.43,0,0,1-1.3,0,.39.39,0,0,1,0-.75A1.43,1.43,0,0,1,25.31,99.45Z"/><path id="_Path_463" data-name="&lt;Path&gt;" class="cls-1" d="M28.7,97.49a.4.4,0,0,1,0,.75,1.43,1.43,0,0,1-1.3,0,.4.4,0,0,1,0-.75A1.43,1.43,0,0,1,28.7,97.49Z"/><path id="_Path_464" data-name="&lt;Path&gt;" class="cls-1" d="M32.08,95.54a.39.39,0,0,1,0,.75,1.43,1.43,0,0,1-1.3,0,.39.39,0,0,1,0-.75A1.43,1.43,0,0,1,32.08,95.54Z"/><path id="_Path_465" data-name="&lt;Path&gt;" class="cls-1" d="M5,107.25A.4.4,0,0,1,5,108a1.43,1.43,0,0,1-1.3,0,.39.39,0,0,1,0-.75A1.43,1.43,0,0,1,5,107.25Z"/><path id="_Path_466" data-name="&lt;Path&gt;" class="cls-1" d="M8.34,105.3a.39.39,0,0,1,0,.75A1.43,1.43,0,0,1,7,106a.39.39,0,0,1,0-.75A1.43,1.43,0,0,1,8.34,105.3Z"/><path id="_Path_467" data-name="&lt;Path&gt;" class="cls-1" d="M11.73,103.34a.39.39,0,0,1,0,.75,1.43,1.43,0,0,1-1.3,0,.39.39,0,0,1,0-.75A1.43,1.43,0,0,1,11.73,103.34Z"/><path id="_Path_468" data-name="&lt;Path&gt;" class="cls-1" d="M15.12,101.38a.39.39,0,0,1,0,.75,1.43,1.43,0,0,1-1.3,0,.39.39,0,0,1,0-.75A1.43,1.43,0,0,1,15.12,101.38Z"/><path id="_Path_469" data-name="&lt;Path&gt;" class="cls-1" d="M18.5,99.43a.39.39,0,0,1,0,.75,1.43,1.43,0,0,1-1.3,0,.39.39,0,0,1,0-.75A1.43,1.43,0,0,1,18.5,99.43Z"/><path id="_Path_470" data-name="&lt;Path&gt;" class="cls-1" d="M21.89,97.47a.39.39,0,0,1,0,.75,1.43,1.43,0,0,1-1.3,0,.39.39,0,0,1,0-.75A1.43,1.43,0,0,1,21.89,97.47Z"/><path id="_Path_471" data-name="&lt;Path&gt;" class="cls-1" d="M25.28,95.52a.39.39,0,0,1,0,.75,1.43,1.43,0,0,1-1.3,0,.39.39,0,0,1,0-.75A1.43,1.43,0,0,1,25.28,95.52Z"/><path id="_Path_472" data-name="&lt;Path&gt;" class="cls-1" d="M28.67,93.56a.39.39,0,0,1,0,.75,1.43,1.43,0,0,1-1.3,0,.39.39,0,0,1,0-.75A1.43,1.43,0,0,1,28.67,93.56Z"/><path id="_Path_473" data-name="&lt;Path&gt;" class="cls-1" d="M1.56,105.3a.39.39,0,0,1,0,.75,1.43,1.43,0,0,1-1.3,0,.39.39,0,0,1,0-.75A1.43,1.43,0,0,1,1.56,105.3Z"/><path id="_Path_474" data-name="&lt;Path&gt;" class="cls-1" d="M5,103.34a.39.39,0,0,1,0,.75,1.43,1.43,0,0,1-1.3,0,.39.39,0,0,1,0-.75A1.43,1.43,0,0,1,5,103.34Z"/><path id="_Path_475" data-name="&lt;Path&gt;" class="cls-1" d="M8.34,101.38a.39.39,0,0,1,0,.75,1.43,1.43,0,0,1-1.3,0,.39.39,0,0,1,0-.75A1.43,1.43,0,0,1,8.34,101.38Z"/><path id="_Path_476" data-name="&lt;Path&gt;" class="cls-1" d="M11.73,99.43a.39.39,0,0,1,0,.75,1.43,1.43,0,0,1-1.3,0,.39.39,0,0,1,0-.75A1.43,1.43,0,0,1,11.73,99.43Z"/><path id="_Path_477" data-name="&lt;Path&gt;" class="cls-1" d="M15.12,97.47a.39.39,0,0,1,0,.75,1.43,1.43,0,0,1-1.3,0,.39.39,0,0,1,0-.75A1.43,1.43,0,0,1,15.12,97.47Z"/><path id="_Path_478" data-name="&lt;Path&gt;" class="cls-1" d="M18.5,95.52a.39.39,0,0,1,0,.75,1.43,1.43,0,0,1-1.3,0,.39.39,0,0,1,0-.75A1.43,1.43,0,0,1,18.5,95.52Z"/><path id="_Path_479" data-name="&lt;Path&gt;" class="cls-1" d="M21.89,93.56a.39.39,0,0,1,0,.75,1.43,1.43,0,0,1-1.3,0,.39.39,0,0,1,0-.75A1.43,1.43,0,0,1,21.89,93.56Z"/><path id="_Path_480" data-name="&lt;Path&gt;" class="cls-1" d="M25.28,91.6a.39.39,0,0,1,0,.75,1.43,1.43,0,0,1-1.3,0,.39.39,0,0,1,0-.75A1.43,1.43,0,0,1,25.28,91.6Z"/><path id="_Path_481" data-name="&lt;Path&gt;" class="cls-1" d="M1.56,101.38a.39.39,0,0,1,0,.75,1.43,1.43,0,0,1-1.3,0,.39.39,0,0,1,0-.75A1.43,1.43,0,0,1,1.56,101.38Z"/><path id="_Path_482" data-name="&lt;Path&gt;" class="cls-1" d="M5,99.43a.39.39,0,0,1,0,.75,1.43,1.43,0,0,1-1.3,0,.39.39,0,0,1,0-.75A1.43,1.43,0,0,1,5,99.43Z"/><path id="_Path_483" data-name="&lt;Path&gt;" class="cls-1" d="M8.34,97.47a.39.39,0,0,1,0,.75,1.43,1.43,0,0,1-1.3,0,.39.39,0,0,1,0-.75A1.43,1.43,0,0,1,8.34,97.47Z"/><path id="_Path_484" data-name="&lt;Path&gt;" class="cls-1" d="M11.73,95.52a.39.39,0,0,1,0,.75,1.43,1.43,0,0,1-1.3,0,.39.39,0,0,1,0-.75A1.43,1.43,0,0,1,11.73,95.52Z"/><path id="_Path_485" data-name="&lt;Path&gt;" class="cls-1" d="M15.12,93.56a.39.39,0,0,1,0,.75,1.43,1.43,0,0,1-1.3,0,.39.39,0,0,1,0-.75A1.43,1.43,0,0,1,15.12,93.56Z"/><path id="_Path_486" data-name="&lt;Path&gt;" class="cls-1" d="M18.5,91.6a.39.39,0,0,1,0,.75,1.43,1.43,0,0,1-1.3,0,.39.39,0,0,1,0-.75A1.43,1.43,0,0,1,18.5,91.6Z"/><path id="_Path_487" data-name="&lt;Path&gt;" class="cls-1" d="M59.35,134.36a.39.39,0,0,1,0,.75,1.43,1.43,0,0,1-1.3,0,.39.39,0,0,1,0-.75A1.43,1.43,0,0,1,59.35,134.36Z"/><path id="_Path_488" data-name="&lt;Path&gt;" class="cls-1" d="M62.74,132.41a.39.39,0,0,1,0,.75,1.43,1.43,0,0,1-1.3,0,.39.39,0,0,1,0-.75A1.43,1.43,0,0,1,62.74,132.41Z"/><path id="_Path_489" data-name="&lt;Path&gt;" class="cls-1" d="M66.12,130.45a.39.39,0,0,1,0,.75,1.43,1.43,0,0,1-1.3,0,.39.39,0,0,1,0-.75A1.43,1.43,0,0,1,66.12,130.45Z"/><path id="_Path_490" data-name="&lt;Path&gt;" class="cls-1" d="M69.51,128.5a.39.39,0,0,1,0,.75,1.43,1.43,0,0,1-1.3,0,.39.39,0,0,1,0-.75A1.43,1.43,0,0,1,69.51,128.5Z"/><path id="_Path_491" data-name="&lt;Path&gt;" class="cls-1" d="M72.9,126.54a.39.39,0,0,1,0,.75,1.43,1.43,0,0,1-1.3,0,.39.39,0,0,1,0-.75A1.43,1.43,0,0,1,72.9,126.54Z"/><path id="_Path_492" data-name="&lt;Path&gt;" class="cls-1" d="M52.57,134.36a.39.39,0,0,1,0,.75,1.43,1.43,0,0,1-1.3,0,.39.39,0,0,1,0-.75A1.43,1.43,0,0,1,52.57,134.36Z"/><path id="_Path_493" data-name="&lt;Path&gt;" class="cls-1" d="M56,132.41a.39.39,0,0,1,0,.75,1.43,1.43,0,0,1-1.3,0,.39.39,0,0,1,0-.75A1.43,1.43,0,0,1,56,132.41Z"/><path id="_Path_494" data-name="&lt;Path&gt;" class="cls-1" d="M59.35,130.45a.39.39,0,0,1,0,.75,1.43,1.43,0,0,1-1.3,0,.39.39,0,0,1,0-.75A1.43,1.43,0,0,1,59.35,130.45Z"/><path id="_Path_495" data-name="&lt;Path&gt;" class="cls-1" d="M62.74,128.5a.39.39,0,0,1,0,.75,1.43,1.43,0,0,1-1.3,0,.39.39,0,0,1,0-.75A1.43,1.43,0,0,1,62.74,128.5Z"/><path id="_Path_496" data-name="&lt;Path&gt;" class="cls-1" d="M66.12,126.54a.39.39,0,0,1,0,.75,1.43,1.43,0,0,1-1.3,0,.39.39,0,0,1,0-.75A1.43,1.43,0,0,1,66.12,126.54Z"/><path id="_Path_497" data-name="&lt;Path&gt;" class="cls-1" d="M69.51,124.58a.39.39,0,0,1,0,.75,1.43,1.43,0,0,1-1.3,0,.39.39,0,0,1,0-.75A1.43,1.43,0,0,1,69.51,124.58Z"/><path id="_Path_498" data-name="&lt;Path&gt;" class="cls-1" d="M72.9,122.63a.39.39,0,0,1,0,.75,1.43,1.43,0,0,1-1.3,0,.39.39,0,0,1,0-.75A1.43,1.43,0,0,1,72.9,122.63Z"/><path id="_Path_499" data-name="&lt;Path&gt;" class="cls-1" d="M76.16,121a.39.39,0,0,1,0,.75,1.43,1.43,0,0,1-1.3,0,.4.4,0,0,1,0-.75A1.43,1.43,0,0,1,76.16,121Z"/><path id="_Path_500" data-name="&lt;Path&gt;" class="cls-1" d="M76.29,124.6a.39.39,0,0,1,0,.75,1.43,1.43,0,0,1-1.3,0,.39.39,0,0,1,0-.75A1.43,1.43,0,0,1,76.29,124.6Z"/></g><g class="cls-2"><path class="cls-3" d="M71.27,105.77,41.58,123a1.83,1.83,0,0,0,.65-1.62l29.69-17.25A1.83,1.83,0,0,1,71.27,105.77Z"/><path class="cls-4" d="M19.43,80.88,49.12,63.62c-.39.23-.21,1.15,1.66,3.7L21.08,84.58C19.21,82,19,81.11,19.43,80.88Z"/><path class="cls-5" d="M26.33,95.61,56,78.35c.1.41,2,8.27,10.82,13.38A27,27,0,0,0,71.95,94L42.26,111.25a27,27,0,0,1-5.1-2.26C28.32,103.88,26.43,96,26.33,95.61Z"/><path class="cls-3" d="M26.33,95.61,56,78.35c.1.41,2,8.27,10.82,13.38A27,27,0,0,0,71.95,94L42.26,111.25a27,27,0,0,1-5.1-2.26C28.32,103.88,26.43,96,26.33,95.61Z"/><path class="cls-4" d="M21.08,84.58,50.77,67.33c.16.17,3.1,3.47,5.25,11L26.33,95.61C24.19,88.05,21.24,84.76,21.08,84.58Z"/><path class="cls-4" d="M29.39,32.83,59.08,15.57c-2.6,6-1,12.5-.5,14.16L28.89,47C28.4,45.33,26.79,38.84,29.39,32.83Z"/><path class="cls-5" d="M108.44,92.78,78.75,110c-4.21,2.45-10.18.73-16-1.88L92.46,90.9C98.26,93.51,104.23,95.23,108.44,92.78Z"/><path class="cls-6" d="M108.44,98.74,78.75,116c-4.21,2.45-10.18.73-16-1.88L92.46,96.86C98.26,99.47,104.23,101.19,108.44,98.74Z"/><path class="cls-3" d="M108.44,92.78,78.75,110c-4.21,2.45-10.18.73-16-1.88L92.46,90.9C98.26,93.51,104.23,95.23,108.44,92.78Z"/><path class="cls-5" d="M20.63,21.3,50.32,4c8.63-5,20.57-4.31,33.76,3.3L54.38,24.6C41.2,17,29.25,16.29,20.63,21.3Z"/><path class="cls-3" d="M20.63,21.3,50.32,4c8.63-5,20.57-4.31,33.76,3.3L54.38,24.6C41.2,17,29.25,16.29,20.63,21.3Z"/><path class="cls-5" d="M84.07,7.35,54.38,24.6C73.72,35.77,90.31,58.68,97.65,82L127,63.77C119.53,40.77,103.14,18.35,84.07,7.35Z"/><path class="cls-3" d="M84.07,7.35,54.38,24.6C73.72,35.77,90.31,58.68,97.65,82L127,63.77C119.53,40.77,103.14,18.35,84.07,7.35Z"/><path class="cls-6" d="M26.33,99.88,56,82.63c.1.41,2,8.27,10.82,13.38a27,27,0,0,0,5.1,2.26L42.26,115.52a27,27,0,0,1-5.1-2.26C28.32,108.16,26.43,100.3,26.33,99.88Z"/><polygon class="cls-4" points="42.26 111.25 71.95 93.99 71.92 104.14 42.23 121.4 42.26 111.25"/><path class="cls-4" d="M45.15,98.4,74.84,81.15c-1.22.71-2.29,2.38-2.68,5.37L42.47,103.78C42.86,100.79,43.93,99.11,45.15,98.4Z"/><path class="cls-4" d="M28.89,47,58.58,29.73c-3,2.07-4.91,5.86-4.93,11.82-.06,20.89,11,32,21.54,39.42L45.5,98.23C35,90.76,23.9,79.69,24,58.81,24,52.85,25.85,49.06,28.89,47Z"/><path class="cls-5" d="M54.38,24.6c26.2,15.13,47.38,51.81,47.3,81.92-.07,24.08-13.71,36.67-32.57,33a5.12,5.12,0,0,1-.85-.39A4.68,4.68,0,0,1,66,135.09l0-15a22.63,22.63,0,0,0-3.23-12c10.57,4.75,21.69,6.55,21.74-14.39a36.55,36.55,0,0,0-4.84-17.46c.49-1.09,2.13-5.7-.43-14.7a5.9,5.9,0,0,0-1.05-.74c-1.72-1-5.58-2.49-12-1.2A72.82,72.82,0,0,0,54.31,51a48.89,48.89,0,0,0-11.88-5c-6.39-8.68-10.26-11.65-12-12.64a4.09,4.09,0,0,0-1.06-.48c-2.6,6-1,12.5-.5,14.16-3,2.07-4.91,5.86-4.93,11.82-.06,20.89,11,32,21.54,39.42-1.36.58-2.6,2.28-3,5.55A12.49,12.49,0,0,1,37,102.07c-2.82-1.63-6-4.78-8.36-10.8-.12-.33-2.49-6.68-7.26-9.82C21,81.24,17,79,21.08,84.58c.16.17,3.1,3.47,5.25,11,.1.41,2,8.27,10.82,13.38a27,27,0,0,0,5.1,2.26l0,10.15c0,1.26-.6,2.37-2.34,1.36a6.78,6.78,0,0,1-.8-.55C20.25,104.11,6.71,75.82,6.78,51.74,6.87,21.63,28.19,9.48,54.38,24.6Z"/><path class="cls-6" d="M20.63,27.17,50.32,9.92c8.63-5,20.57-4.31,33.76,3.3L54.38,30.48C41.2,22.87,29.25,22.16,20.63,27.17Z"/><path class="cls-6" d="M84.07,13.25,54.38,30.5C73.72,41.67,90.31,64.58,97.65,87.92L127,69.66C119.53,46.67,103.14,24.25,84.07,13.25Z"/><path class="cls-4" d="M97.65,82a81.79,81.79,0,0,1,4,24.51c0,15-5.32,25.49-13.84,30.44l29.69-17.25c8.52-4.95,13.8-15.47,13.84-30.44A82.49,82.49,0,0,0,127,63.77Z"/><path class="cls-3" d="M54.38,24.6c26.2,15.13,47.38,51.81,47.3,81.92-.07,24.08-13.71,36.67-32.57,33a5.11,5.11,0,0,1-.85-.39A4.68,4.68,0,0,1,66,135.09l0-15a22.63,22.63,0,0,0-3.23-12c10.57,4.75,21.69,6.55,21.74-14.39a36.55,36.55,0,0,0-4.84-17.46c.49-1.09,2.13-5.7-.43-14.7a5.89,5.89,0,0,0-1.05-.74c-1.72-1-5.58-2.49-12-1.2A72.82,72.82,0,0,0,54.31,51a48.88,48.88,0,0,0-11.88-5c-6.39-8.68-10.26-11.65-12-12.64a4.08,4.08,0,0,0-1.06-.48c-2.6,6-1,12.5-.5,14.16-3,2.07-4.91,5.86-4.93,11.82-.06,20.89,11,32,21.54,39.42-1.36.58-2.6,2.28-3,5.55A12.49,12.49,0,0,1,37,102.07c-2.82-1.63-6-4.78-8.36-10.8-.12-.33-2.49-6.68-7.26-9.82C21,81.24,17,79,21.08,84.58c.16.17,3.1,3.47,5.25,11,.1.41,2,8.27,10.82,13.38a27,27,0,0,0,5.1,2.26l0,10.15c0,1.26-.6,2.37-2.34,1.36a6.78,6.78,0,0,1-.8-.55C20.25,104.11,6.71,75.82,6.78,51.74,6.87,21.63,28.19,9.48,54.38,24.6Z"/></g><polygon points="54.26 24.23 83.23 6.5 87.83 9.38 59.13 26.84 54.26 24.23"/><polygon points="59.32 28.45 88.29 10.72 92.89 13.6 64.19 31.06 59.32 28.45"/></g></g></svg>