<svg xmlns="http://www.w3.org/2000/svg" xmlns:xlink="http://www.w3.org/1999/xlink" viewBox="0 0 240.37 266.1"><defs><style>.cls-1{fill:none;}.cls-2{fill:#16110d;}.cls-3{isolation:isolate;}.cls-4{fill:#fff;}.cls-5{fill:#ffbe2e;}.cls-6{fill:#fec;}.cls-7{clip-path:url(#clip-path);}</style><clipPath id="clip-path"><path class="cls-1" d="M35.24,1.7C32.51.13,30-.35,28.1.25a4.54,4.54,0,0,0-.92.4L3.38,14.48a4.54,4.54,0,0,1,.92-.4c1.91-.59,4.41-.12,7.13,1.45L186.81,116.78,210.62,103Z"/></clipPath></defs><title>Code Tv Quase</title><g id="Layer_2" data-name="Layer 2"><g id="Code"><g id="_Group_" data-name="&lt;Group&gt;"><path id="_Path_" data-name="&lt;Path&gt;" class="cls-2" d="M94.16,205.86a.74.74,0,0,1,0,1.4,2.68,2.68,0,0,1-2.42,0,.74.74,0,0,1,0-1.4A2.67,2.67,0,0,1,94.16,205.86Z"/><path id="_Path_2" data-name="&lt;Path&gt;" class="cls-2" d="M100.52,202.27a.74.74,0,0,1,0,1.4,2.67,2.67,0,0,1-2.42,0,.74.74,0,0,1,0-1.4A2.68,2.68,0,0,1,100.52,202.27Z"/><path id="_Path_3" data-name="&lt;Path&gt;" class="cls-2" d="M106.88,198.67a.74.74,0,0,1,0,1.4,2.67,2.67,0,0,1-2.42,0,.74.74,0,0,1,0-1.4A2.68,2.68,0,0,1,106.88,198.67Z"/><path id="_Path_4" data-name="&lt;Path&gt;" class="cls-2" d="M113.25,195.08a.74.74,0,0,1,0,1.4,2.67,2.67,0,0,1-2.42,0,.74.74,0,0,1,0-1.4A2.67,2.67,0,0,1,113.25,195.08Z"/><path id="_Path_5" data-name="&lt;Path&gt;" class="cls-2" d="M119.61,191.49a.74.74,0,0,1,0,1.4,2.67,2.67,0,0,1-2.42,0,.74.74,0,0,1,0-1.4A2.67,2.67,0,0,1,119.61,191.49Z"/><path id="_Path_6" data-name="&lt;Path&gt;" class="cls-2" d="M126,187.9a.74.74,0,0,1,0,1.4,2.67,2.67,0,0,1-2.42,0,.74.74,0,0,1,0-1.4A2.68,2.68,0,0,1,126,187.9Z"/><path id="_Path_7" data-name="&lt;Path&gt;" class="cls-2" d="M132.33,184.3a.74.74,0,0,1,0,1.4,2.68,2.68,0,0,1-2.42,0,.74.74,0,0,1,0-1.4A2.68,2.68,0,0,1,132.33,184.3Z"/><path id="_Path_8" data-name="&lt;Path&gt;" class="cls-2" d="M138.7,180.71a.74.74,0,0,1,0,1.4,2.68,2.68,0,0,1-2.42,0,.74.74,0,0,1,0-1.4A2.67,2.67,0,0,1,138.7,180.71Z"/><path id="_Path_9" data-name="&lt;Path&gt;" class="cls-2" d="M87.87,202.14a.74.74,0,0,1,0,1.4,2.67,2.67,0,0,1-2.42,0,.74.74,0,0,1,0-1.4A2.68,2.68,0,0,1,87.87,202.14Z"/><path id="_Path_10" data-name="&lt;Path&gt;" class="cls-2" d="M94.23,198.55a.74.74,0,0,1,0,1.4,2.67,2.67,0,0,1-2.42,0,.74.74,0,0,1,0-1.4A2.68,2.68,0,0,1,94.23,198.55Z"/><path id="_Path_11" data-name="&lt;Path&gt;" class="cls-2" d="M100.59,195a.74.74,0,0,1,0,1.4,2.67,2.67,0,0,1-2.42,0,.74.74,0,0,1,0-1.4A2.67,2.67,0,0,1,100.59,195Z"/><path id="_Path_12" data-name="&lt;Path&gt;" class="cls-2" d="M107,191.37a.74.74,0,0,1,0,1.4,2.67,2.67,0,0,1-2.42,0,.74.74,0,0,1,0-1.4A2.67,2.67,0,0,1,107,191.37Z"/><path id="_Path_13" data-name="&lt;Path&gt;" class="cls-2" d="M113.32,187.77a.74.74,0,0,1,0,1.4,2.67,2.67,0,0,1-2.42,0,.74.74,0,0,1,0-1.4A2.68,2.68,0,0,1,113.32,187.77Z"/><path id="_Path_14" data-name="&lt;Path&gt;" class="cls-2" d="M119.68,184.18a.74.74,0,0,1,0,1.4,2.68,2.68,0,0,1-2.42,0,.74.74,0,0,1,0-1.4A2.67,2.67,0,0,1,119.68,184.18Z"/><path id="_Path_15" data-name="&lt;Path&gt;" class="cls-2" d="M126,180.59a.74.74,0,0,1,0,1.4,2.67,2.67,0,0,1-2.42,0,.74.74,0,0,1,0-1.4A2.67,2.67,0,0,1,126,180.59Z"/><path id="_Path_16" data-name="&lt;Path&gt;" class="cls-2" d="M132.4,177a.74.74,0,0,1,0,1.4,2.67,2.67,0,0,1-2.42,0,.74.74,0,0,1,0-1.4A2.67,2.67,0,0,1,132.4,177Z"/><path id="_Path_17" data-name="&lt;Path&gt;" class="cls-2" d="M81.57,198.43a.74.74,0,0,1,0,1.4,2.67,2.67,0,0,1-2.42,0,.74.74,0,0,1,0-1.4A2.68,2.68,0,0,1,81.57,198.43Z"/><path id="_Path_18" data-name="&lt;Path&gt;" class="cls-2" d="M87.94,194.84a.74.74,0,0,1,0,1.4,2.67,2.67,0,0,1-2.42,0,.74.74,0,0,1,0-1.4A2.67,2.67,0,0,1,87.94,194.84Z"/><path id="_Path_19" data-name="&lt;Path&gt;" class="cls-2" d="M94.3,191.24a.74.74,0,0,1,0,1.4,2.67,2.67,0,0,1-2.42,0,.74.74,0,0,1,0-1.4A2.68,2.68,0,0,1,94.3,191.24Z"/><path id="_Path_20" data-name="&lt;Path&gt;" class="cls-2" d="M100.66,187.65a.74.74,0,0,1,0,1.4,2.68,2.68,0,0,1-2.42,0,.74.74,0,0,1,0-1.4A2.68,2.68,0,0,1,100.66,187.65Z"/><path id="_Path_21" data-name="&lt;Path&gt;" class="cls-2" d="M107,184.06a.74.74,0,0,1,0,1.4,2.68,2.68,0,0,1-2.42,0,.74.74,0,0,1,0-1.4A2.67,2.67,0,0,1,107,184.06Z"/><path id="_Path_22" data-name="&lt;Path&gt;" class="cls-2" d="M113.39,180.47a.74.74,0,0,1,0,1.4,2.67,2.67,0,0,1-2.42,0,.74.74,0,0,1,0-1.4A2.67,2.67,0,0,1,113.39,180.47Z"/><path id="_Path_23" data-name="&lt;Path&gt;" class="cls-2" d="M119.75,176.88a.74.74,0,0,1,0,1.4,2.67,2.67,0,0,1-2.42,0,.74.74,0,0,1,0-1.4A2.67,2.67,0,0,1,119.75,176.88Z"/><path id="_Path_24" data-name="&lt;Path&gt;" class="cls-2" d="M126.11,173.28a.74.74,0,0,1,0,1.4,2.68,2.68,0,0,1-2.42,0,.74.74,0,0,1,0-1.4A2.67,2.67,0,0,1,126.11,173.28Z"/><path id="_Path_25" data-name="&lt;Path&gt;" class="cls-2" d="M75.28,194.72a.74.74,0,0,1,0,1.4,2.67,2.67,0,0,1-2.42,0,.74.74,0,0,1,0-1.4A2.67,2.67,0,0,1,75.28,194.72Z"/><path id="_Path_26" data-name="&lt;Path&gt;" class="cls-2" d="M81.64,191.12a.74.74,0,0,1,0,1.4,2.67,2.67,0,0,1-2.42,0,.74.74,0,0,1,0-1.4A2.68,2.68,0,0,1,81.64,191.12Z"/><path id="_Path_27" data-name="&lt;Path&gt;" class="cls-2" d="M88,187.53a.74.74,0,0,1,0,1.4,2.68,2.68,0,0,1-2.42,0,.74.74,0,0,1,0-1.4A2.68,2.68,0,0,1,88,187.53Z"/><path id="_Path_28" data-name="&lt;Path&gt;" class="cls-2" d="M94.37,183.94a.74.74,0,0,1,0,1.4,2.68,2.68,0,0,1-2.42,0,.74.74,0,0,1,0-1.4A2.67,2.67,0,0,1,94.37,183.94Z"/><path id="_Path_29" data-name="&lt;Path&gt;" class="cls-2" d="M100.73,180.35a.74.74,0,0,1,0,1.4,2.67,2.67,0,0,1-2.42,0,.74.74,0,0,1,0-1.4A2.67,2.67,0,0,1,100.73,180.35Z"/><path id="_Path_30" data-name="&lt;Path&gt;" class="cls-2" d="M107.09,176.75a.74.74,0,0,1,0,1.4,2.68,2.68,0,0,1-2.42,0,.74.74,0,0,1,0-1.4A2.67,2.67,0,0,1,107.09,176.75Z"/><path id="_Path_31" data-name="&lt;Path&gt;" class="cls-2" d="M113.46,173.16a.74.74,0,0,1,0,1.4,2.68,2.68,0,0,1-2.42,0,.74.74,0,0,1,0-1.4A2.67,2.67,0,0,1,113.46,173.16Z"/><path id="_Path_32" data-name="&lt;Path&gt;" class="cls-2" d="M119.82,169.57a.74.74,0,0,1,0,1.4,2.67,2.67,0,0,1-2.42,0,.74.74,0,0,1,0-1.4A2.67,2.67,0,0,1,119.82,169.57Z"/><path id="_Path_33" data-name="&lt;Path&gt;" class="cls-2" d="M69,191a.74.74,0,0,1,0,1.4,2.68,2.68,0,0,1-2.42,0,.74.74,0,0,1,0-1.4A2.68,2.68,0,0,1,69,191Z"/><path id="_Path_34" data-name="&lt;Path&gt;" class="cls-2" d="M75.35,187.41a.74.74,0,0,1,0,1.4,2.68,2.68,0,0,1-2.42,0,.74.74,0,0,1,0-1.4A2.67,2.67,0,0,1,75.35,187.41Z"/><path id="_Path_35" data-name="&lt;Path&gt;" class="cls-2" d="M81.71,183.82a.74.74,0,0,1,0,1.4,2.67,2.67,0,0,1-2.42,0,.74.74,0,0,1,0-1.4A2.67,2.67,0,0,1,81.71,183.82Z"/><path id="_Path_36" data-name="&lt;Path&gt;" class="cls-2" d="M88.08,180.22a.74.74,0,0,1,0,1.4,2.67,2.67,0,0,1-2.42,0,.74.74,0,0,1,0-1.4A2.67,2.67,0,0,1,88.08,180.22Z"/><path id="_Path_37" data-name="&lt;Path&gt;" class="cls-2" d="M94.44,176.63a.74.74,0,0,1,0,1.4A2.68,2.68,0,0,1,92,178a.74.74,0,0,1,0-1.4A2.67,2.67,0,0,1,94.44,176.63Z"/><path id="_Path_38" data-name="&lt;Path&gt;" class="cls-2" d="M100.8,173a.74.74,0,0,1,0,1.4,2.68,2.68,0,0,1-2.42,0,.74.74,0,0,1,0-1.4A2.67,2.67,0,0,1,100.8,173Z"/><path id="_Path_39" data-name="&lt;Path&gt;" class="cls-2" d="M107.16,169.45a.74.74,0,0,1,0,1.4,2.67,2.67,0,0,1-2.42,0,.74.74,0,0,1,0-1.4A2.68,2.68,0,0,1,107.16,169.45Z"/><path id="_Path_40" data-name="&lt;Path&gt;" class="cls-2" d="M113.53,165.85a.74.74,0,0,1,0,1.4,2.67,2.67,0,0,1-2.42,0,.74.74,0,0,1,0-1.4A2.68,2.68,0,0,1,113.53,165.85Z"/><path id="_Path_41" data-name="&lt;Path&gt;" class="cls-2" d="M62.64,187.25a.74.74,0,0,1,0,1.4,2.67,2.67,0,0,1-2.42,0,.74.74,0,0,1,0-1.4A2.68,2.68,0,0,1,62.64,187.25Z"/><path id="_Path_42" data-name="&lt;Path&gt;" class="cls-2" d="M69,183.66a.74.74,0,0,1,0,1.4,2.67,2.67,0,0,1-2.42,0,.74.74,0,0,1,0-1.4A2.68,2.68,0,0,1,69,183.66Z"/><path id="_Path_43" data-name="&lt;Path&gt;" class="cls-2" d="M75.37,180.06a.74.74,0,0,1,0,1.4,2.67,2.67,0,0,1-2.42,0,.74.74,0,0,1,0-1.4A2.67,2.67,0,0,1,75.37,180.06Z"/><path id="_Path_44" data-name="&lt;Path&gt;" class="cls-2" d="M81.73,176.47a.74.74,0,0,1,0,1.4,2.67,2.67,0,0,1-2.42,0,.74.74,0,0,1,0-1.4A2.67,2.67,0,0,1,81.73,176.47Z"/><path id="_Path_45" data-name="&lt;Path&gt;" class="cls-2" d="M88.09,172.88a.74.74,0,0,1,0,1.4,2.67,2.67,0,0,1-2.42,0,.74.74,0,0,1,0-1.4A2.68,2.68,0,0,1,88.09,172.88Z"/><path id="_Path_46" data-name="&lt;Path&gt;" class="cls-2" d="M94.45,169.29a.74.74,0,0,1,0,1.4,2.68,2.68,0,0,1-2.42,0,.74.74,0,0,1,0-1.4A2.68,2.68,0,0,1,94.45,169.29Z"/><path id="_Path_47" data-name="&lt;Path&gt;" class="cls-2" d="M100.82,165.69a.74.74,0,0,1,0,1.4,2.68,2.68,0,0,1-2.42,0,.74.74,0,0,1,0-1.4A2.67,2.67,0,0,1,100.82,165.69Z"/><path id="_Path_48" data-name="&lt;Path&gt;" class="cls-2" d="M107.18,162.1a.74.74,0,0,1,0,1.4,2.67,2.67,0,0,1-2.42,0,.74.74,0,0,1,0-1.4A2.67,2.67,0,0,1,107.18,162.1Z"/><path id="_Path_49" data-name="&lt;Path&gt;" class="cls-2" d="M56.35,183.53a.74.74,0,0,1,0,1.4,2.67,2.67,0,0,1-2.42,0,.74.74,0,0,1,0-1.4A2.68,2.68,0,0,1,56.35,183.53Z"/><path id="_Path_50" data-name="&lt;Path&gt;" class="cls-2" d="M62.71,179.94a.74.74,0,0,1,0,1.4,2.67,2.67,0,0,1-2.42,0,.74.74,0,0,1,0-1.4A2.67,2.67,0,0,1,62.71,179.94Z"/><path id="_Path_51" data-name="&lt;Path&gt;" class="cls-2" d="M69.07,176.35a.74.74,0,0,1,0,1.4,2.67,2.67,0,0,1-2.42,0,.74.74,0,0,1,0-1.4A2.67,2.67,0,0,1,69.07,176.35Z"/><path id="_Path_52" data-name="&lt;Path&gt;" class="cls-2" d="M75.44,172.76a.74.74,0,0,1,0,1.4,2.67,2.67,0,0,1-2.42,0,.74.74,0,0,1,0-1.4A2.68,2.68,0,0,1,75.44,172.76Z"/><path id="_Path_53" data-name="&lt;Path&gt;" class="cls-2" d="M81.8,169.16a.74.74,0,0,1,0,1.4,2.68,2.68,0,0,1-2.42,0,.74.74,0,0,1,0-1.4A2.68,2.68,0,0,1,81.8,169.16Z"/><path id="_Path_54" data-name="&lt;Path&gt;" class="cls-2" d="M88.16,165.57a.74.74,0,0,1,0,1.4,2.68,2.68,0,0,1-2.42,0,.74.74,0,0,1,0-1.4A2.67,2.67,0,0,1,88.16,165.57Z"/><path id="_Path_55" data-name="&lt;Path&gt;" class="cls-2" d="M94.52,162a.74.74,0,0,1,0,1.4,2.67,2.67,0,0,1-2.42,0,.74.74,0,0,1,0-1.4A2.67,2.67,0,0,1,94.52,162Z"/><path id="_Path_56" data-name="&lt;Path&gt;" class="cls-2" d="M100.89,158.39a.74.74,0,0,1,0,1.4,2.68,2.68,0,0,1-2.42,0,.74.74,0,0,1,0-1.4A2.67,2.67,0,0,1,100.89,158.39Z"/><path id="_Path_57" data-name="&lt;Path&gt;" class="cls-2" d="M50.06,179.82a.74.74,0,0,1,0,1.4,2.67,2.67,0,0,1-2.42,0,.74.74,0,0,1,0-1.4A2.67,2.67,0,0,1,50.06,179.82Z"/><path id="_Path_58" data-name="&lt;Path&gt;" class="cls-2" d="M56.42,176.23a.74.74,0,0,1,0,1.4,2.67,2.67,0,0,1-2.42,0,.74.74,0,0,1,0-1.4A2.68,2.68,0,0,1,56.42,176.23Z"/><path id="_Path_59" data-name="&lt;Path&gt;" class="cls-2" d="M62.78,172.64a.74.74,0,0,1,0,1.4,2.68,2.68,0,0,1-2.42,0,.74.74,0,0,1,0-1.4A2.68,2.68,0,0,1,62.78,172.64Z"/><path id="_Path_60" data-name="&lt;Path&gt;" class="cls-2" d="M69.14,169a.74.74,0,0,1,0,1.4,2.68,2.68,0,0,1-2.42,0,.74.74,0,0,1,0-1.4A2.67,2.67,0,0,1,69.14,169Z"/><path id="_Path_61" data-name="&lt;Path&gt;" class="cls-2" d="M75.51,165.45a.74.74,0,0,1,0,1.4,2.67,2.67,0,0,1-2.42,0,.74.74,0,0,1,0-1.4A2.67,2.67,0,0,1,75.51,165.45Z"/><path id="_Path_62" data-name="&lt;Path&gt;" class="cls-2" d="M81.87,161.86a.74.74,0,0,1,0,1.4,2.67,2.67,0,0,1-2.42,0,.74.74,0,0,1,0-1.4A2.67,2.67,0,0,1,81.87,161.86Z"/><path id="_Path_63" data-name="&lt;Path&gt;" class="cls-2" d="M88.23,158.27a.74.74,0,0,1,0,1.4,2.68,2.68,0,0,1-2.42,0,.74.74,0,0,1,0-1.4A2.67,2.67,0,0,1,88.23,158.27Z"/><path id="_Path_64" data-name="&lt;Path&gt;" class="cls-2" d="M94.59,154.67a.74.74,0,0,1,0,1.4,2.68,2.68,0,0,1-2.42,0,.74.74,0,0,1,0-1.4A2.67,2.67,0,0,1,94.59,154.67Z"/><path id="_Path_65" data-name="&lt;Path&gt;" class="cls-2" d="M43.76,176.11a.74.74,0,0,1,0,1.4,2.67,2.67,0,0,1-2.42,0,.74.74,0,0,1,0-1.4A2.68,2.68,0,0,1,43.76,176.11Z"/><path id="_Path_66" data-name="&lt;Path&gt;" class="cls-2" d="M50.13,172.51a.74.74,0,0,1,0,1.4,2.68,2.68,0,0,1-2.42,0,.74.74,0,0,1,0-1.4A2.68,2.68,0,0,1,50.13,172.51Z"/><path id="_Path_67" data-name="&lt;Path&gt;" class="cls-2" d="M56.49,168.92a.74.74,0,0,1,0,1.4,2.68,2.68,0,0,1-2.42,0,.74.74,0,0,1,0-1.4A2.67,2.67,0,0,1,56.49,168.92Z"/><path id="_Path_68" data-name="&lt;Path&gt;" class="cls-2" d="M62.85,165.33a.74.74,0,0,1,0,1.4,2.67,2.67,0,0,1-2.42,0,.74.74,0,0,1,0-1.4A2.67,2.67,0,0,1,62.85,165.33Z"/><path id="_Path_69" data-name="&lt;Path&gt;" class="cls-2" d="M69.21,161.74a.74.74,0,0,1,0,1.4,2.68,2.68,0,0,1-2.42,0,.74.74,0,0,1,0-1.4A2.67,2.67,0,0,1,69.21,161.74Z"/><path id="_Path_70" data-name="&lt;Path&gt;" class="cls-2" d="M75.58,158.14a.74.74,0,0,1,0,1.4,2.68,2.68,0,0,1-2.42,0,.74.74,0,0,1,0-1.4A2.67,2.67,0,0,1,75.58,158.14Z"/><path id="_Path_71" data-name="&lt;Path&gt;" class="cls-2" d="M81.94,154.55a.74.74,0,0,1,0,1.4,2.67,2.67,0,0,1-2.42,0,.74.74,0,0,1,0-1.4A2.67,2.67,0,0,1,81.94,154.55Z"/><path id="_Path_72" data-name="&lt;Path&gt;" class="cls-2" d="M88.3,151a.74.74,0,0,1,0,1.4,2.67,2.67,0,0,1-2.42,0,.74.74,0,0,1,0-1.4A2.68,2.68,0,0,1,88.3,151Z"/><path id="_Path_73" data-name="&lt;Path&gt;" class="cls-2" d="M37.47,172.39a.74.74,0,0,1,0,1.4,2.68,2.68,0,0,1-2.42,0,.74.74,0,0,1,0-1.4A2.67,2.67,0,0,1,37.47,172.39Z"/><path id="_Path_74" data-name="&lt;Path&gt;" class="cls-2" d="M43.83,168.8a.74.74,0,0,1,0,1.4,2.67,2.67,0,0,1-2.42,0,.74.74,0,0,1,0-1.4A2.67,2.67,0,0,1,43.83,168.8Z"/><path id="_Path_75" data-name="&lt;Path&gt;" class="cls-2" d="M50.2,165.21a.74.74,0,0,1,0,1.4,2.67,2.67,0,0,1-2.42,0,.74.74,0,0,1,0-1.4A2.67,2.67,0,0,1,50.2,165.21Z"/><path id="_Path_76" data-name="&lt;Path&gt;" class="cls-2" d="M56.56,161.62a.74.74,0,0,1,0,1.4,2.68,2.68,0,0,1-2.42,0,.74.74,0,0,1,0-1.4A2.67,2.67,0,0,1,56.56,161.62Z"/><path id="_Path_77" data-name="&lt;Path&gt;" class="cls-2" d="M62.92,158a.74.74,0,0,1,0,1.4,2.68,2.68,0,0,1-2.42,0,.74.74,0,0,1,0-1.4A2.67,2.67,0,0,1,62.92,158Z"/><path id="_Path_78" data-name="&lt;Path&gt;" class="cls-2" d="M69.28,154.43a.74.74,0,0,1,0,1.4,2.67,2.67,0,0,1-2.42,0,.74.74,0,0,1,0-1.4A2.67,2.67,0,0,1,69.28,154.43Z"/><path id="_Path_79" data-name="&lt;Path&gt;" class="cls-2" d="M75.65,150.84a.74.74,0,0,1,0,1.4,2.67,2.67,0,0,1-2.42,0,.74.74,0,0,1,0-1.4A2.68,2.68,0,0,1,75.65,150.84Z"/><path id="_Path_80" data-name="&lt;Path&gt;" class="cls-2" d="M82,147.25a.74.74,0,0,1,0,1.4,2.67,2.67,0,0,1-2.42,0,.74.74,0,0,1,0-1.4A2.68,2.68,0,0,1,82,147.25Z"/><path id="_Path_81" data-name="&lt;Path&gt;" class="cls-2" d="M31.18,168.68a.74.74,0,0,1,0,1.4,2.67,2.67,0,0,1-2.42,0,.74.74,0,0,1,0-1.4A2.67,2.67,0,0,1,31.18,168.68Z"/><path id="_Path_82" data-name="&lt;Path&gt;" class="cls-2" d="M37.54,165.09a.74.74,0,0,1,0,1.4,2.67,2.67,0,0,1-2.42,0,.74.74,0,0,1,0-1.4A2.67,2.67,0,0,1,37.54,165.09Z"/><path id="_Path_83" data-name="&lt;Path&gt;" class="cls-2" d="M43.9,161.49a.74.74,0,0,1,0,1.4,2.68,2.68,0,0,1-2.42,0,.74.74,0,0,1,0-1.4A2.67,2.67,0,0,1,43.9,161.49Z"/><path id="_Path_84" data-name="&lt;Path&gt;" class="cls-2" d="M50.27,157.9a.74.74,0,0,1,0,1.4,2.67,2.67,0,0,1-2.42,0,.74.74,0,0,1,0-1.4A2.67,2.67,0,0,1,50.27,157.9Z"/><path id="_Path_85" data-name="&lt;Path&gt;" class="cls-2" d="M56.63,154.31a.74.74,0,0,1,0,1.4,2.67,2.67,0,0,1-2.42,0,.74.74,0,0,1,0-1.4A2.68,2.68,0,0,1,56.63,154.31Z"/><path id="_Path_86" data-name="&lt;Path&gt;" class="cls-2" d="M63,150.72a.74.74,0,0,1,0,1.4,2.67,2.67,0,0,1-2.42,0,.74.74,0,0,1,0-1.4A2.68,2.68,0,0,1,63,150.72Z"/><path id="_Path_87" data-name="&lt;Path&gt;" class="cls-2" d="M69.35,147.12a.74.74,0,0,1,0,1.4,2.67,2.67,0,0,1-2.42,0,.74.74,0,0,1,0-1.4A2.67,2.67,0,0,1,69.35,147.12Z"/><path id="_Path_88" data-name="&lt;Path&gt;" class="cls-2" d="M75.72,143.53a.74.74,0,0,1,0,1.4,2.67,2.67,0,0,1-2.42,0,.74.74,0,0,1,0-1.4A2.67,2.67,0,0,1,75.72,143.53Z"/><path id="_Path_89" data-name="&lt;Path&gt;" class="cls-2" d="M24.89,165a.74.74,0,0,1,0,1.4,2.68,2.68,0,0,1-2.42,0,.74.74,0,0,1,0-1.4A2.67,2.67,0,0,1,24.89,165Z"/><path id="_Path_90" data-name="&lt;Path&gt;" class="cls-2" d="M31.25,161.37a.74.74,0,0,1,0,1.4,2.68,2.68,0,0,1-2.42,0,.74.74,0,0,1,0-1.4A2.67,2.67,0,0,1,31.25,161.37Z"/><path id="_Path_91" data-name="&lt;Path&gt;" class="cls-2" d="M37.61,157.78a.74.74,0,0,1,0,1.4,2.67,2.67,0,0,1-2.42,0,.74.74,0,0,1,0-1.4A2.67,2.67,0,0,1,37.61,157.78Z"/><path id="_Path_92" data-name="&lt;Path&gt;" class="cls-2" d="M44,154.19a.74.74,0,0,1,0,1.4,2.67,2.67,0,0,1-2.42,0,.74.74,0,0,1,0-1.4A2.68,2.68,0,0,1,44,154.19Z"/><path id="_Path_93" data-name="&lt;Path&gt;" class="cls-2" d="M50.34,150.59a.74.74,0,0,1,0,1.4,2.67,2.67,0,0,1-2.42,0,.74.74,0,0,1,0-1.4A2.68,2.68,0,0,1,50.34,150.59Z"/><path id="_Path_94" data-name="&lt;Path&gt;" class="cls-2" d="M56.7,147a.74.74,0,0,1,0,1.4,2.67,2.67,0,0,1-2.42,0,.74.74,0,0,1,0-1.4A2.67,2.67,0,0,1,56.7,147Z"/><path id="_Path_95" data-name="&lt;Path&gt;" class="cls-2" d="M63.06,143.41a.74.74,0,0,1,0,1.4,2.67,2.67,0,0,1-2.42,0,.74.74,0,0,1,0-1.4A2.68,2.68,0,0,1,63.06,143.41Z"/><path id="_Path_96" data-name="&lt;Path&gt;" class="cls-2" d="M69.42,139.82a.74.74,0,0,1,0,1.4,2.68,2.68,0,0,1-2.42,0,.74.74,0,0,1,0-1.4A2.68,2.68,0,0,1,69.42,139.82Z"/><path id="_Path_97" data-name="&lt;Path&gt;" class="cls-2" d="M18.59,161.25a.74.74,0,0,1,0,1.4,2.68,2.68,0,0,1-2.42,0,.74.74,0,0,1,0-1.4A2.67,2.67,0,0,1,18.59,161.25Z"/><path id="_Path_98" data-name="&lt;Path&gt;" class="cls-2" d="M25,157.66a.74.74,0,0,1,0,1.4,2.67,2.67,0,0,1-2.42,0,.74.74,0,0,1,0-1.4A2.68,2.68,0,0,1,25,157.66Z"/><path id="_Path_99" data-name="&lt;Path&gt;" class="cls-2" d="M31.32,154.07a.74.74,0,0,1,0,1.4,2.67,2.67,0,0,1-2.42,0,.74.74,0,0,1,0-1.4A2.68,2.68,0,0,1,31.32,154.07Z"/><path id="_Path_100" data-name="&lt;Path&gt;" class="cls-2" d="M37.68,150.47a.74.74,0,0,1,0,1.4,2.67,2.67,0,0,1-2.42,0,.74.74,0,0,1,0-1.4A2.67,2.67,0,0,1,37.68,150.47Z"/><path id="_Path_101" data-name="&lt;Path&gt;" class="cls-2" d="M44,146.88a.74.74,0,0,1,0,1.4,2.67,2.67,0,0,1-2.42,0,.74.74,0,0,1,0-1.4A2.67,2.67,0,0,1,44,146.88Z"/><path id="_Path_102" data-name="&lt;Path&gt;" class="cls-2" d="M50.41,143.29a.74.74,0,0,1,0,1.4,2.67,2.67,0,0,1-2.42,0,.74.74,0,0,1,0-1.4A2.68,2.68,0,0,1,50.41,143.29Z"/><path id="_Path_103" data-name="&lt;Path&gt;" class="cls-2" d="M56.77,139.7a.74.74,0,0,1,0,1.4,2.68,2.68,0,0,1-2.42,0,.74.74,0,0,1,0-1.4A2.68,2.68,0,0,1,56.77,139.7Z"/><path id="_Path_104" data-name="&lt;Path&gt;" class="cls-2" d="M63.13,136.1a.74.74,0,0,1,0,1.4,2.68,2.68,0,0,1-2.42,0,.74.74,0,0,1,0-1.4A2.67,2.67,0,0,1,63.13,136.1Z"/><path id="_Path_105" data-name="&lt;Path&gt;" class="cls-2" d="M12.25,157.5a.74.74,0,0,1,0,1.4,2.68,2.68,0,0,1-2.42,0,.74.74,0,0,1,0-1.4A2.68,2.68,0,0,1,12.25,157.5Z"/><path id="_Path_106" data-name="&lt;Path&gt;" class="cls-2" d="M18.61,153.91a.74.74,0,0,1,0,1.4,2.68,2.68,0,0,1-2.42,0,.74.74,0,0,1,0-1.4A2.67,2.67,0,0,1,18.61,153.91Z"/><path id="_Path_107" data-name="&lt;Path&gt;" class="cls-2" d="M25,150.31a.74.74,0,0,1,0,1.4,2.67,2.67,0,0,1-2.42,0,.74.74,0,0,1,0-1.4A2.67,2.67,0,0,1,25,150.31Z"/><path id="_Path_108" data-name="&lt;Path&gt;" class="cls-2" d="M31.33,146.72a.74.74,0,0,1,0,1.4,2.68,2.68,0,0,1-2.42,0,.74.74,0,0,1,0-1.4A2.67,2.67,0,0,1,31.33,146.72Z"/><path id="_Path_109" data-name="&lt;Path&gt;" class="cls-2" d="M37.7,143.13a.74.74,0,0,1,0,1.4,2.68,2.68,0,0,1-2.42,0,.74.74,0,0,1,0-1.4A2.67,2.67,0,0,1,37.7,143.13Z"/><path id="_Path_110" data-name="&lt;Path&gt;" class="cls-2" d="M44.06,139.54a.74.74,0,0,1,0,1.4,2.67,2.67,0,0,1-2.42,0,.74.74,0,0,1,0-1.4A2.67,2.67,0,0,1,44.06,139.54Z"/><path id="_Path_111" data-name="&lt;Path&gt;" class="cls-2" d="M50.42,135.94a.74.74,0,0,1,0,1.4,2.67,2.67,0,0,1-2.42,0,.74.74,0,0,1,0-1.4A2.68,2.68,0,0,1,50.42,135.94Z"/><path id="_Path_112" data-name="&lt;Path&gt;" class="cls-2" d="M56.79,132.35a.74.74,0,0,1,0,1.4,2.67,2.67,0,0,1-2.42,0,.74.74,0,0,1,0-1.4A2.68,2.68,0,0,1,56.79,132.35Z"/><path id="_Path_113" data-name="&lt;Path&gt;" class="cls-2" d="M6,153.78a.74.74,0,0,1,0,1.4,2.67,2.67,0,0,1-2.42,0,.74.74,0,0,1,0-1.4A2.67,2.67,0,0,1,6,153.78Z"/><path id="_Path_114" data-name="&lt;Path&gt;" class="cls-2" d="M12.32,150.19a.74.74,0,0,1,0,1.4,2.67,2.67,0,0,1-2.42,0,.74.74,0,0,1,0-1.4A2.67,2.67,0,0,1,12.32,150.19Z"/><path id="_Path_115" data-name="&lt;Path&gt;" class="cls-2" d="M18.68,146.6a.74.74,0,0,1,0,1.4,2.68,2.68,0,0,1-2.42,0,.74.74,0,0,1,0-1.4A2.67,2.67,0,0,1,18.68,146.6Z"/><path id="_Path_116" data-name="&lt;Path&gt;" class="cls-2" d="M25,143a.74.74,0,0,1,0,1.4,2.68,2.68,0,0,1-2.42,0,.74.74,0,0,1,0-1.4A2.67,2.67,0,0,1,25,143Z"/><path id="_Path_117" data-name="&lt;Path&gt;" class="cls-2" d="M31.4,139.41a.74.74,0,0,1,0,1.4,2.67,2.67,0,0,1-2.42,0,.74.74,0,0,1,0-1.4A2.67,2.67,0,0,1,31.4,139.41Z"/><path id="_Path_118" data-name="&lt;Path&gt;" class="cls-2" d="M37.77,135.82a.74.74,0,0,1,0,1.4,2.67,2.67,0,0,1-2.42,0,.74.74,0,0,1,0-1.4A2.68,2.68,0,0,1,37.77,135.82Z"/><path id="_Path_119" data-name="&lt;Path&gt;" class="cls-2" d="M44.13,132.23a.74.74,0,0,1,0,1.4,2.67,2.67,0,0,1-2.42,0,.74.74,0,0,1,0-1.4A2.68,2.68,0,0,1,44.13,132.23Z"/><path id="_Path_120" data-name="&lt;Path&gt;" class="cls-2" d="M50.49,128.64a.74.74,0,0,1,0,1.4,2.67,2.67,0,0,1-2.42,0,.74.74,0,0,1,0-1.4A2.67,2.67,0,0,1,50.49,128.64Z"/><path id="_Path_121" data-name="&lt;Path&gt;" class="cls-2" d="M6,146.48a.74.74,0,0,1,0,1.4,2.68,2.68,0,0,1-2.42,0,.74.74,0,0,1,0-1.4A2.67,2.67,0,0,1,6,146.48Z"/><path id="_Path_122" data-name="&lt;Path&gt;" class="cls-2" d="M12.39,142.88a.74.74,0,0,1,0,1.4,2.68,2.68,0,0,1-2.42,0,.74.74,0,0,1,0-1.4A2.67,2.67,0,0,1,12.39,142.88Z"/><path id="_Path_123" data-name="&lt;Path&gt;" class="cls-2" d="M18.75,139.29a.74.74,0,0,1,0,1.4,2.67,2.67,0,0,1-2.42,0,.74.74,0,0,1,0-1.4A2.68,2.68,0,0,1,18.75,139.29Z"/><path id="_Path_124" data-name="&lt;Path&gt;" class="cls-2" d="M25.11,135.7a.74.74,0,0,1,0,1.4,2.67,2.67,0,0,1-2.42,0,.74.74,0,0,1,0-1.4A2.68,2.68,0,0,1,25.11,135.7Z"/><path id="_Path_125" data-name="&lt;Path&gt;" class="cls-2" d="M31.47,132.11a.74.74,0,0,1,0,1.4,2.67,2.67,0,0,1-2.42,0,.74.74,0,0,1,0-1.4A2.67,2.67,0,0,1,31.47,132.11Z"/><path id="_Path_126" data-name="&lt;Path&gt;" class="cls-2" d="M37.84,128.51a.74.74,0,0,1,0,1.4,2.67,2.67,0,0,1-2.42,0,.74.74,0,0,1,0-1.4A2.67,2.67,0,0,1,37.84,128.51Z"/><path id="_Path_127" data-name="&lt;Path&gt;" class="cls-2" d="M113.36,209.11a.74.74,0,0,1,0,1.4,2.68,2.68,0,0,1-2.42,0,.74.74,0,0,1,0-1.4A2.67,2.67,0,0,1,113.36,209.11Z"/><path id="_Path_128" data-name="&lt;Path&gt;" class="cls-2" d="M119.72,205.52a.74.74,0,0,1,0,1.4,2.67,2.67,0,0,1-2.42,0,.74.74,0,0,1,0-1.4A2.67,2.67,0,0,1,119.72,205.52Z"/><path id="_Path_129" data-name="&lt;Path&gt;" class="cls-2" d="M126.08,201.93a.74.74,0,0,1,0,1.4,2.68,2.68,0,0,1-2.42,0,.74.74,0,0,1,0-1.4A2.67,2.67,0,0,1,126.08,201.93Z"/><path id="_Path_130" data-name="&lt;Path&gt;" class="cls-2" d="M132.45,198.33a.74.74,0,0,1,0,1.4,2.68,2.68,0,0,1-2.42,0,.74.74,0,0,1,0-1.4A2.67,2.67,0,0,1,132.45,198.33Z"/><path id="_Path_131" data-name="&lt;Path&gt;" class="cls-2" d="M138.81,194.74a.74.74,0,0,1,0,1.4,2.67,2.67,0,0,1-2.42,0,.74.74,0,0,1,0-1.4A2.67,2.67,0,0,1,138.81,194.74Z"/><path id="_Path_132" data-name="&lt;Path&gt;" class="cls-2" d="M100.7,209a.74.74,0,0,1,0,1.4,2.67,2.67,0,0,1-2.42,0,.74.74,0,0,1,0-1.4A2.67,2.67,0,0,1,100.7,209Z"/><path id="_Path_133" data-name="&lt;Path&gt;" class="cls-2" d="M107.07,205.4a.74.74,0,0,1,0,1.4,2.67,2.67,0,0,1-2.42,0,.74.74,0,0,1,0-1.4A2.67,2.67,0,0,1,107.07,205.4Z"/><path id="_Path_134" data-name="&lt;Path&gt;" class="cls-2" d="M113.43,201.8a.74.74,0,0,1,0,1.4,2.68,2.68,0,0,1-2.42,0,.74.74,0,0,1,0-1.4A2.67,2.67,0,0,1,113.43,201.8Z"/><path id="_Path_135" data-name="&lt;Path&gt;" class="cls-2" d="M119.79,198.21a.74.74,0,0,1,0,1.4,2.68,2.68,0,0,1-2.42,0,.74.74,0,0,1,0-1.4A2.67,2.67,0,0,1,119.79,198.21Z"/><path id="_Path_136" data-name="&lt;Path&gt;" class="cls-2" d="M126.15,194.62a.74.74,0,0,1,0,1.4,2.67,2.67,0,0,1-2.42,0,.74.74,0,0,1,0-1.4A2.68,2.68,0,0,1,126.15,194.62Z"/><path id="_Path_137" data-name="&lt;Path&gt;" class="cls-2" d="M132.52,191a.74.74,0,0,1,0,1.4,2.67,2.67,0,0,1-2.42,0,.74.74,0,0,1,0-1.4A2.68,2.68,0,0,1,132.52,191Z"/><path id="_Path_138" data-name="&lt;Path&gt;" class="cls-2" d="M138.88,187.44a.74.74,0,0,1,0,1.4,2.67,2.67,0,0,1-2.42,0,.74.74,0,0,1,0-1.4A2.67,2.67,0,0,1,138.88,187.44Z"/><path id="_Path_139" data-name="&lt;Path&gt;" class="cls-2" d="M145,184.45a.74.74,0,0,1,0,1.4,2.68,2.68,0,0,1-2.42,0,.74.74,0,0,1,0-1.4A2.68,2.68,0,0,1,145,184.45Z"/><path id="_Path_140" data-name="&lt;Path&gt;" class="cls-2" d="M145.17,191.17a.74.74,0,0,1,0,1.4,2.67,2.67,0,0,1-2.42,0,.74.74,0,0,1,0-1.4A2.68,2.68,0,0,1,145.17,191.17Z"/></g><g id="_Group_2" data-name="&lt;Group&gt;"><path id="_Path_141" data-name="&lt;Path&gt;" class="cls-2" d="M188.86,261.17a.74.74,0,0,1,0,1.4,2.68,2.68,0,0,1-2.42,0,.74.74,0,0,1,0-1.4A2.67,2.67,0,0,1,188.86,261.17Z"/><path id="_Path_142" data-name="&lt;Path&gt;" class="cls-2" d="M195.22,257.58a.74.74,0,0,1,0,1.4,2.67,2.67,0,0,1-2.42,0,.74.74,0,0,1,0-1.4A2.68,2.68,0,0,1,195.22,257.58Z"/><path id="_Path_143" data-name="&lt;Path&gt;" class="cls-2" d="M201.58,254a.74.74,0,0,1,0,1.4,2.67,2.67,0,0,1-2.42,0,.74.74,0,0,1,0-1.4A2.68,2.68,0,0,1,201.58,254Z"/><path id="_Path_144" data-name="&lt;Path&gt;" class="cls-2" d="M207.94,250.39a.74.74,0,0,1,0,1.4,2.67,2.67,0,0,1-2.42,0,.74.74,0,0,1,0-1.4A2.67,2.67,0,0,1,207.94,250.39Z"/><path id="_Path_145" data-name="&lt;Path&gt;" class="cls-2" d="M214.31,246.8a.74.74,0,0,1,0,1.4,2.67,2.67,0,0,1-2.42,0,.74.74,0,0,1,0-1.4A2.67,2.67,0,0,1,214.31,246.8Z"/><path id="_Path_146" data-name="&lt;Path&gt;" class="cls-2" d="M220.67,243.21a.74.74,0,0,1,0,1.4,2.67,2.67,0,0,1-2.42,0,.74.74,0,0,1,0-1.4A2.68,2.68,0,0,1,220.67,243.21Z"/><path id="_Path_147" data-name="&lt;Path&gt;" class="cls-2" d="M227,239.61a.74.74,0,0,1,0,1.4,2.68,2.68,0,0,1-2.42,0,.74.74,0,0,1,0-1.4A2.68,2.68,0,0,1,227,239.61Z"/><path id="_Path_148" data-name="&lt;Path&gt;" class="cls-2" d="M233.4,236a.74.74,0,0,1,0,1.4,2.68,2.68,0,0,1-2.42,0,.74.74,0,0,1,0-1.4A2.67,2.67,0,0,1,233.4,236Z"/><path id="_Path_149" data-name="&lt;Path&gt;" class="cls-2" d="M182.56,257.45a.74.74,0,0,1,0,1.4,2.67,2.67,0,0,1-2.42,0,.74.74,0,0,1,0-1.4A2.68,2.68,0,0,1,182.56,257.45Z"/><path id="_Path_150" data-name="&lt;Path&gt;" class="cls-2" d="M188.93,253.86a.74.74,0,0,1,0,1.4,2.67,2.67,0,0,1-2.42,0,.74.74,0,0,1,0-1.4A2.68,2.68,0,0,1,188.93,253.86Z"/><path id="_Path_151" data-name="&lt;Path&gt;" class="cls-2" d="M195.29,250.27a.74.74,0,0,1,0,1.4,2.67,2.67,0,0,1-2.42,0,.74.74,0,0,1,0-1.4A2.67,2.67,0,0,1,195.29,250.27Z"/><path id="_Path_152" data-name="&lt;Path&gt;" class="cls-2" d="M201.65,246.68a.74.74,0,0,1,0,1.4,2.67,2.67,0,0,1-2.42,0,.74.74,0,0,1,0-1.4A2.67,2.67,0,0,1,201.65,246.68Z"/><path id="_Path_153" data-name="&lt;Path&gt;" class="cls-2" d="M208,243.08a.74.74,0,0,1,0,1.4,2.67,2.67,0,0,1-2.42,0,.74.74,0,0,1,0-1.4A2.68,2.68,0,0,1,208,243.08Z"/><path id="_Path_154" data-name="&lt;Path&gt;" class="cls-2" d="M214.38,239.49a.74.74,0,0,1,0,1.4,2.68,2.68,0,0,1-2.42,0,.74.74,0,0,1,0-1.4A2.67,2.67,0,0,1,214.38,239.49Z"/><path id="_Path_155" data-name="&lt;Path&gt;" class="cls-2" d="M220.74,235.9a.74.74,0,0,1,0,1.4,2.67,2.67,0,0,1-2.42,0,.74.74,0,0,1,0-1.4A2.67,2.67,0,0,1,220.74,235.9Z"/><path id="_Path_156" data-name="&lt;Path&gt;" class="cls-2" d="M227.1,232.31a.74.74,0,0,1,0,1.4,2.67,2.67,0,0,1-2.42,0,.74.74,0,0,1,0-1.4A2.67,2.67,0,0,1,227.1,232.31Z"/><path id="_Path_157" data-name="&lt;Path&gt;" class="cls-2" d="M176.27,253.74a.74.74,0,0,1,0,1.4,2.67,2.67,0,0,1-2.42,0,.74.74,0,0,1,0-1.4A2.68,2.68,0,0,1,176.27,253.74Z"/><path id="_Path_158" data-name="&lt;Path&gt;" class="cls-2" d="M182.63,250.15a.74.74,0,0,1,0,1.4,2.67,2.67,0,0,1-2.42,0,.74.74,0,0,1,0-1.4A2.67,2.67,0,0,1,182.63,250.15Z"/><path id="_Path_159" data-name="&lt;Path&gt;" class="cls-2" d="M189,246.56a.74.74,0,0,1,0,1.4,2.67,2.67,0,0,1-2.42,0,.74.74,0,0,1,0-1.4A2.68,2.68,0,0,1,189,246.56Z"/><path id="_Path_160" data-name="&lt;Path&gt;" class="cls-2" d="M195.36,243a.74.74,0,0,1,0,1.4,2.68,2.68,0,0,1-2.42,0,.74.74,0,0,1,0-1.4A2.68,2.68,0,0,1,195.36,243Z"/><path id="_Path_161" data-name="&lt;Path&gt;" class="cls-2" d="M201.72,239.37a.74.74,0,0,1,0,1.4,2.68,2.68,0,0,1-2.42,0,.74.74,0,0,1,0-1.4A2.67,2.67,0,0,1,201.72,239.37Z"/><path id="_Path_162" data-name="&lt;Path&gt;" class="cls-2" d="M208.09,235.78a.74.74,0,0,1,0,1.4,2.67,2.67,0,0,1-2.42,0,.74.74,0,0,1,0-1.4A2.67,2.67,0,0,1,208.09,235.78Z"/><path id="_Path_163" data-name="&lt;Path&gt;" class="cls-2" d="M214.45,232.19a.74.74,0,0,1,0,1.4,2.67,2.67,0,0,1-2.42,0,.74.74,0,0,1,0-1.4A2.67,2.67,0,0,1,214.45,232.19Z"/><path id="_Path_164" data-name="&lt;Path&gt;" class="cls-2" d="M220.81,228.59a.74.74,0,0,1,0,1.4,2.68,2.68,0,0,1-2.42,0,.74.74,0,0,1,0-1.4A2.67,2.67,0,0,1,220.81,228.59Z"/><path id="_Path_165" data-name="&lt;Path&gt;" class="cls-2" d="M170,250a.74.74,0,0,1,0,1.4,2.67,2.67,0,0,1-2.42,0,.74.74,0,0,1,0-1.4A2.67,2.67,0,0,1,170,250Z"/><path id="_Path_166" data-name="&lt;Path&gt;" class="cls-2" d="M176.34,246.43a.74.74,0,0,1,0,1.4,2.67,2.67,0,0,1-2.42,0,.74.74,0,0,1,0-1.4A2.68,2.68,0,0,1,176.34,246.43Z"/><path id="_Path_167" data-name="&lt;Path&gt;" class="cls-2" d="M182.7,242.84a.74.74,0,0,1,0,1.4,2.68,2.68,0,0,1-2.42,0,.74.74,0,0,1,0-1.4A2.68,2.68,0,0,1,182.7,242.84Z"/><path id="_Path_168" data-name="&lt;Path&gt;" class="cls-2" d="M189.07,239.25a.74.74,0,0,1,0,1.4,2.68,2.68,0,0,1-2.42,0,.74.74,0,0,1,0-1.4A2.67,2.67,0,0,1,189.07,239.25Z"/><path id="_Path_169" data-name="&lt;Path&gt;" class="cls-2" d="M195.43,235.66a.74.74,0,0,1,0,1.4,2.67,2.67,0,0,1-2.42,0,.74.74,0,0,1,0-1.4A2.67,2.67,0,0,1,195.43,235.66Z"/><path id="_Path_170" data-name="&lt;Path&gt;" class="cls-2" d="M201.79,232.06a.74.74,0,0,1,0,1.4,2.68,2.68,0,0,1-2.42,0,.74.74,0,0,1,0-1.4A2.67,2.67,0,0,1,201.79,232.06Z"/><path id="_Path_171" data-name="&lt;Path&gt;" class="cls-2" d="M208.16,228.47a.74.74,0,0,1,0,1.4,2.68,2.68,0,0,1-2.42,0,.74.74,0,0,1,0-1.4A2.67,2.67,0,0,1,208.16,228.47Z"/><path id="_Path_172" data-name="&lt;Path&gt;" class="cls-2" d="M214.52,224.88a.74.74,0,0,1,0,1.4,2.67,2.67,0,0,1-2.42,0,.74.74,0,0,1,0-1.4A2.67,2.67,0,0,1,214.52,224.88Z"/><path id="_Path_173" data-name="&lt;Path&gt;" class="cls-2" d="M163.69,246.31a.74.74,0,0,1,0,1.4,2.68,2.68,0,0,1-2.42,0,.74.74,0,0,1,0-1.4A2.68,2.68,0,0,1,163.69,246.31Z"/><path id="_Path_174" data-name="&lt;Path&gt;" class="cls-2" d="M170,242.72a.74.74,0,0,1,0,1.4,2.68,2.68,0,0,1-2.42,0,.74.74,0,0,1,0-1.4A2.67,2.67,0,0,1,170,242.72Z"/><path id="_Path_175" data-name="&lt;Path&gt;" class="cls-2" d="M176.41,239.13a.74.74,0,0,1,0,1.4,2.67,2.67,0,0,1-2.42,0,.74.74,0,0,1,0-1.4A2.67,2.67,0,0,1,176.41,239.13Z"/><path id="_Path_176" data-name="&lt;Path&gt;" class="cls-2" d="M182.77,235.54a.74.74,0,0,1,0,1.4,2.67,2.67,0,0,1-2.42,0,.74.74,0,0,1,0-1.4A2.67,2.67,0,0,1,182.77,235.54Z"/><path id="_Path_177" data-name="&lt;Path&gt;" class="cls-2" d="M189.14,231.94a.74.74,0,0,1,0,1.4,2.68,2.68,0,0,1-2.42,0,.74.74,0,0,1,0-1.4A2.67,2.67,0,0,1,189.14,231.94Z"/><path id="_Path_178" data-name="&lt;Path&gt;" class="cls-2" d="M195.5,228.35a.74.74,0,0,1,0,1.4,2.68,2.68,0,0,1-2.42,0,.74.74,0,0,1,0-1.4A2.67,2.67,0,0,1,195.5,228.35Z"/><path id="_Path_179" data-name="&lt;Path&gt;" class="cls-2" d="M201.86,224.76a.74.74,0,0,1,0,1.4,2.67,2.67,0,0,1-2.42,0,.74.74,0,0,1,0-1.4A2.68,2.68,0,0,1,201.86,224.76Z"/><path id="_Path_180" data-name="&lt;Path&gt;" class="cls-2" d="M208.23,221.17a.74.74,0,0,1,0,1.4,2.67,2.67,0,0,1-2.42,0,.74.74,0,0,1,0-1.4A2.68,2.68,0,0,1,208.23,221.17Z"/><path id="_Path_181" data-name="&lt;Path&gt;" class="cls-2" d="M157.34,242.56a.74.74,0,0,1,0,1.4,2.67,2.67,0,0,1-2.42,0,.74.74,0,0,1,0-1.4A2.68,2.68,0,0,1,157.34,242.56Z"/><path id="_Path_182" data-name="&lt;Path&gt;" class="cls-2" d="M163.7,239a.74.74,0,0,1,0,1.4,2.67,2.67,0,0,1-2.42,0,.74.74,0,0,1,0-1.4A2.68,2.68,0,0,1,163.7,239Z"/><path id="_Path_183" data-name="&lt;Path&gt;" class="cls-2" d="M170.06,235.37a.74.74,0,0,1,0,1.4,2.67,2.67,0,0,1-2.42,0,.74.74,0,0,1,0-1.4A2.67,2.67,0,0,1,170.06,235.37Z"/><path id="_Path_184" data-name="&lt;Path&gt;" class="cls-2" d="M176.43,231.78a.74.74,0,0,1,0,1.4,2.67,2.67,0,0,1-2.42,0,.74.74,0,0,1,0-1.4A2.67,2.67,0,0,1,176.43,231.78Z"/><path id="_Path_185" data-name="&lt;Path&gt;" class="cls-2" d="M182.79,228.19a.74.74,0,0,1,0,1.4,2.67,2.67,0,0,1-2.42,0,.74.74,0,0,1,0-1.4A2.68,2.68,0,0,1,182.79,228.19Z"/><path id="_Path_186" data-name="&lt;Path&gt;" class="cls-2" d="M189.15,224.6a.74.74,0,0,1,0,1.4,2.68,2.68,0,0,1-2.42,0,.74.74,0,0,1,0-1.4A2.68,2.68,0,0,1,189.15,224.6Z"/><path id="_Path_187" data-name="&lt;Path&gt;" class="cls-2" d="M195.52,221a.74.74,0,0,1,0,1.4,2.68,2.68,0,0,1-2.42,0,.74.74,0,0,1,0-1.4A2.67,2.67,0,0,1,195.52,221Z"/><path id="_Path_188" data-name="&lt;Path&gt;" class="cls-2" d="M201.88,217.41a.74.74,0,0,1,0,1.4,2.67,2.67,0,0,1-2.42,0,.74.74,0,0,1,0-1.4A2.67,2.67,0,0,1,201.88,217.41Z"/><path id="_Path_189" data-name="&lt;Path&gt;" class="cls-2" d="M151,238.85a.74.74,0,0,1,0,1.4,2.67,2.67,0,0,1-2.42,0,.74.74,0,0,1,0-1.4A2.68,2.68,0,0,1,151,238.85Z"/><path id="_Path_190" data-name="&lt;Path&gt;" class="cls-2" d="M157.41,235.25a.74.74,0,0,1,0,1.4,2.67,2.67,0,0,1-2.42,0,.74.74,0,0,1,0-1.4A2.67,2.67,0,0,1,157.41,235.25Z"/><path id="_Path_191" data-name="&lt;Path&gt;" class="cls-2" d="M163.77,231.66a.74.74,0,0,1,0,1.4,2.67,2.67,0,0,1-2.42,0,.74.74,0,0,1,0-1.4A2.67,2.67,0,0,1,163.77,231.66Z"/><path id="_Path_192" data-name="&lt;Path&gt;" class="cls-2" d="M170.14,228.07a.74.74,0,0,1,0,1.4,2.67,2.67,0,0,1-2.42,0,.74.74,0,0,1,0-1.4A2.68,2.68,0,0,1,170.14,228.07Z"/><path id="_Path_193" data-name="&lt;Path&gt;" class="cls-2" d="M176.5,224.48a.74.74,0,0,1,0,1.4,2.68,2.68,0,0,1-2.42,0,.74.74,0,0,1,0-1.4A2.68,2.68,0,0,1,176.5,224.48Z"/><path id="_Path_194" data-name="&lt;Path&gt;" class="cls-2" d="M182.86,220.88a.74.74,0,0,1,0,1.4,2.68,2.68,0,0,1-2.42,0,.74.74,0,0,1,0-1.4A2.67,2.67,0,0,1,182.86,220.88Z"/><path id="_Path_195" data-name="&lt;Path&gt;" class="cls-2" d="M189.22,217.29a.74.74,0,0,1,0,1.4,2.67,2.67,0,0,1-2.42,0,.74.74,0,0,1,0-1.4A2.67,2.67,0,0,1,189.22,217.29Z"/><path id="_Path_196" data-name="&lt;Path&gt;" class="cls-2" d="M195.59,213.7a.74.74,0,0,1,0,1.4,2.68,2.68,0,0,1-2.42,0,.74.74,0,0,1,0-1.4A2.67,2.67,0,0,1,195.59,213.7Z"/><path id="_Path_197" data-name="&lt;Path&gt;" class="cls-2" d="M144.75,235.13a.74.74,0,0,1,0,1.4,2.67,2.67,0,0,1-2.42,0,.74.74,0,0,1,0-1.4A2.67,2.67,0,0,1,144.75,235.13Z"/><path id="_Path_198" data-name="&lt;Path&gt;" class="cls-2" d="M151.12,231.54a.74.74,0,0,1,0,1.4,2.67,2.67,0,0,1-2.42,0,.74.74,0,0,1,0-1.4A2.68,2.68,0,0,1,151.12,231.54Z"/><path id="_Path_199" data-name="&lt;Path&gt;" class="cls-2" d="M157.48,227.95a.74.74,0,0,1,0,1.4,2.68,2.68,0,0,1-2.42,0,.74.74,0,0,1,0-1.4A2.68,2.68,0,0,1,157.48,227.95Z"/><path id="_Path_200" data-name="&lt;Path&gt;" class="cls-2" d="M163.84,224.35a.74.74,0,0,1,0,1.4,2.68,2.68,0,0,1-2.42,0,.74.74,0,0,1,0-1.4A2.67,2.67,0,0,1,163.84,224.35Z"/><path id="_Path_201" data-name="&lt;Path&gt;" class="cls-2" d="M170.21,220.76a.74.74,0,0,1,0,1.4,2.67,2.67,0,0,1-2.42,0,.74.74,0,0,1,0-1.4A2.67,2.67,0,0,1,170.21,220.76Z"/><path id="_Path_202" data-name="&lt;Path&gt;" class="cls-2" d="M176.57,217.17a.74.74,0,0,1,0,1.4,2.67,2.67,0,0,1-2.42,0,.74.74,0,0,1,0-1.4A2.67,2.67,0,0,1,176.57,217.17Z"/><path id="_Path_203" data-name="&lt;Path&gt;" class="cls-2" d="M182.93,213.58a.74.74,0,0,1,0,1.4,2.68,2.68,0,0,1-2.42,0,.74.74,0,0,1,0-1.4A2.67,2.67,0,0,1,182.93,213.58Z"/><path id="_Path_204" data-name="&lt;Path&gt;" class="cls-2" d="M189.29,210a.74.74,0,0,1,0,1.4,2.68,2.68,0,0,1-2.42,0,.74.74,0,0,1,0-1.4A2.67,2.67,0,0,1,189.29,210Z"/><path id="_Path_205" data-name="&lt;Path&gt;" class="cls-2" d="M138.46,231.42a.74.74,0,0,1,0,1.4,2.67,2.67,0,0,1-2.42,0,.74.74,0,0,1,0-1.4A2.68,2.68,0,0,1,138.46,231.42Z"/><path id="_Path_206" data-name="&lt;Path&gt;" class="cls-2" d="M144.82,227.82a.74.74,0,0,1,0,1.4,2.68,2.68,0,0,1-2.42,0,.74.74,0,0,1,0-1.4A2.68,2.68,0,0,1,144.82,227.82Z"/><path id="_Path_207" data-name="&lt;Path&gt;" class="cls-2" d="M151.19,224.23a.74.74,0,0,1,0,1.4,2.68,2.68,0,0,1-2.42,0,.74.74,0,0,1,0-1.4A2.67,2.67,0,0,1,151.19,224.23Z"/><path id="_Path_208" data-name="&lt;Path&gt;" class="cls-2" d="M157.55,220.64a.74.74,0,0,1,0,1.4,2.67,2.67,0,0,1-2.42,0,.74.74,0,0,1,0-1.4A2.67,2.67,0,0,1,157.55,220.64Z"/><path id="_Path_209" data-name="&lt;Path&gt;" class="cls-2" d="M163.91,217a.74.74,0,0,1,0,1.4,2.68,2.68,0,0,1-2.42,0,.74.74,0,0,1,0-1.4A2.67,2.67,0,0,1,163.91,217Z"/><path id="_Path_210" data-name="&lt;Path&gt;" class="cls-2" d="M170.28,213.46a.74.74,0,0,1,0,1.4,2.68,2.68,0,0,1-2.42,0,.74.74,0,0,1,0-1.4A2.67,2.67,0,0,1,170.28,213.46Z"/><path id="_Path_211" data-name="&lt;Path&gt;" class="cls-2" d="M176.64,209.86a.74.74,0,0,1,0,1.4,2.67,2.67,0,0,1-2.42,0,.74.74,0,0,1,0-1.4A2.67,2.67,0,0,1,176.64,209.86Z"/><path id="_Path_212" data-name="&lt;Path&gt;" class="cls-2" d="M183,206.27a.74.74,0,0,1,0,1.4,2.67,2.67,0,0,1-2.42,0,.74.74,0,0,1,0-1.4A2.68,2.68,0,0,1,183,206.27Z"/><path id="_Path_213" data-name="&lt;Path&gt;" class="cls-2" d="M132.17,227.7a.74.74,0,0,1,0,1.4,2.68,2.68,0,0,1-2.42,0,.74.74,0,0,1,0-1.4A2.67,2.67,0,0,1,132.17,227.7Z"/><path id="_Path_214" data-name="&lt;Path&gt;" class="cls-2" d="M138.53,224.11a.74.74,0,0,1,0,1.4,2.67,2.67,0,0,1-2.42,0,.74.74,0,0,1,0-1.4A2.67,2.67,0,0,1,138.53,224.11Z"/><path id="_Path_215" data-name="&lt;Path&gt;" class="cls-2" d="M144.9,220.52a.74.74,0,0,1,0,1.4,2.67,2.67,0,0,1-2.42,0,.74.74,0,0,1,0-1.4A2.67,2.67,0,0,1,144.9,220.52Z"/><path id="_Path_216" data-name="&lt;Path&gt;" class="cls-2" d="M151.26,216.93a.74.74,0,0,1,0,1.4,2.68,2.68,0,0,1-2.42,0,.74.74,0,0,1,0-1.4A2.67,2.67,0,0,1,151.26,216.93Z"/><path id="_Path_217" data-name="&lt;Path&gt;" class="cls-2" d="M157.62,213.33a.74.74,0,0,1,0,1.4,2.68,2.68,0,0,1-2.42,0,.74.74,0,0,1,0-1.4A2.67,2.67,0,0,1,157.62,213.33Z"/><path id="_Path_218" data-name="&lt;Path&gt;" class="cls-2" d="M164,209.74a.74.74,0,0,1,0,1.4,2.67,2.67,0,0,1-2.42,0,.74.74,0,0,1,0-1.4A2.67,2.67,0,0,1,164,209.74Z"/><path id="_Path_219" data-name="&lt;Path&gt;" class="cls-2" d="M170.35,206.15a.74.74,0,0,1,0,1.4,2.67,2.67,0,0,1-2.42,0,.74.74,0,0,1,0-1.4A2.68,2.68,0,0,1,170.35,206.15Z"/><path id="_Path_220" data-name="&lt;Path&gt;" class="cls-2" d="M176.71,202.56a.74.74,0,0,1,0,1.4,2.67,2.67,0,0,1-2.42,0,.74.74,0,0,1,0-1.4A2.68,2.68,0,0,1,176.71,202.56Z"/><path id="_Path_221" data-name="&lt;Path&gt;" class="cls-2" d="M125.88,224a.74.74,0,0,1,0,1.4,2.67,2.67,0,0,1-2.42,0,.74.74,0,0,1,0-1.4A2.67,2.67,0,0,1,125.88,224Z"/><path id="_Path_222" data-name="&lt;Path&gt;" class="cls-2" d="M132.24,220.4a.74.74,0,0,1,0,1.4,2.67,2.67,0,0,1-2.42,0,.74.74,0,0,1,0-1.4A2.67,2.67,0,0,1,132.24,220.4Z"/><path id="_Path_223" data-name="&lt;Path&gt;" class="cls-2" d="M138.6,216.8a.74.74,0,0,1,0,1.4,2.68,2.68,0,0,1-2.42,0,.74.74,0,0,1,0-1.4A2.67,2.67,0,0,1,138.6,216.8Z"/><path id="_Path_224" data-name="&lt;Path&gt;" class="cls-2" d="M145,213.21a.74.74,0,0,1,0,1.4,2.67,2.67,0,0,1-2.42,0,.74.74,0,0,1,0-1.4A2.67,2.67,0,0,1,145,213.21Z"/><path id="_Path_225" data-name="&lt;Path&gt;" class="cls-2" d="M151.33,209.62a.74.74,0,0,1,0,1.4,2.67,2.67,0,0,1-2.42,0,.74.74,0,0,1,0-1.4A2.68,2.68,0,0,1,151.33,209.62Z"/><path id="_Path_226" data-name="&lt;Path&gt;" class="cls-2" d="M157.69,206a.74.74,0,0,1,0,1.4,2.67,2.67,0,0,1-2.42,0,.74.74,0,0,1,0-1.4A2.68,2.68,0,0,1,157.69,206Z"/><path id="_Path_227" data-name="&lt;Path&gt;" class="cls-2" d="M164.05,202.43a.74.74,0,0,1,0,1.4,2.67,2.67,0,0,1-2.42,0,.74.74,0,0,1,0-1.4A2.67,2.67,0,0,1,164.05,202.43Z"/><path id="_Path_228" data-name="&lt;Path&gt;" class="cls-2" d="M170.42,198.84a.74.74,0,0,1,0,1.4,2.67,2.67,0,0,1-2.42,0,.74.74,0,0,1,0-1.4A2.67,2.67,0,0,1,170.42,198.84Z"/><path id="_Path_229" data-name="&lt;Path&gt;" class="cls-2" d="M119.58,220.28a.74.74,0,0,1,0,1.4,2.68,2.68,0,0,1-2.42,0,.74.74,0,0,1,0-1.4A2.67,2.67,0,0,1,119.58,220.28Z"/><path id="_Path_230" data-name="&lt;Path&gt;" class="cls-2" d="M125.95,216.68a.74.74,0,0,1,0,1.4,2.68,2.68,0,0,1-2.42,0,.74.74,0,0,1,0-1.4A2.67,2.67,0,0,1,125.95,216.68Z"/><path id="_Path_231" data-name="&lt;Path&gt;" class="cls-2" d="M132.31,213.09a.74.74,0,0,1,0,1.4,2.67,2.67,0,0,1-2.42,0,.74.74,0,0,1,0-1.4A2.67,2.67,0,0,1,132.31,213.09Z"/><path id="_Path_232" data-name="&lt;Path&gt;" class="cls-2" d="M138.67,209.5a.74.74,0,0,1,0,1.4,2.67,2.67,0,0,1-2.42,0,.74.74,0,0,1,0-1.4A2.68,2.68,0,0,1,138.67,209.5Z"/><path id="_Path_233" data-name="&lt;Path&gt;" class="cls-2" d="M145,205.91a.74.74,0,0,1,0,1.4,2.67,2.67,0,0,1-2.42,0,.74.74,0,0,1,0-1.4A2.68,2.68,0,0,1,145,205.91Z"/><path id="_Path_234" data-name="&lt;Path&gt;" class="cls-2" d="M151.4,202.31a.74.74,0,0,1,0,1.4,2.67,2.67,0,0,1-2.42,0,.74.74,0,0,1,0-1.4A2.67,2.67,0,0,1,151.4,202.31Z"/><path id="_Path_235" data-name="&lt;Path&gt;" class="cls-2" d="M157.76,198.72a.74.74,0,0,1,0,1.4,2.67,2.67,0,0,1-2.42,0,.74.74,0,0,1,0-1.4A2.68,2.68,0,0,1,157.76,198.72Z"/><path id="_Path_236" data-name="&lt;Path&gt;" class="cls-2" d="M164.12,195.13a.74.74,0,0,1,0,1.4,2.68,2.68,0,0,1-2.42,0,.74.74,0,0,1,0-1.4A2.68,2.68,0,0,1,164.12,195.13Z"/><path id="_Path_237" data-name="&lt;Path&gt;" class="cls-2" d="M113.29,216.56a.74.74,0,0,1,0,1.4,2.68,2.68,0,0,1-2.42,0,.74.74,0,0,1,0-1.4A2.67,2.67,0,0,1,113.29,216.56Z"/><path id="_Path_238" data-name="&lt;Path&gt;" class="cls-2" d="M119.65,213a.74.74,0,0,1,0,1.4,2.67,2.67,0,0,1-2.42,0,.74.74,0,0,1,0-1.4A2.68,2.68,0,0,1,119.65,213Z"/><path id="_Path_239" data-name="&lt;Path&gt;" class="cls-2" d="M126,209.38a.74.74,0,0,1,0,1.4,2.67,2.67,0,0,1-2.42,0,.74.74,0,0,1,0-1.4A2.68,2.68,0,0,1,126,209.38Z"/><path id="_Path_240" data-name="&lt;Path&gt;" class="cls-2" d="M132.38,205.78a.74.74,0,0,1,0,1.4,2.67,2.67,0,0,1-2.42,0,.74.74,0,0,1,0-1.4A2.67,2.67,0,0,1,132.38,205.78Z"/><path id="_Path_241" data-name="&lt;Path&gt;" class="cls-2" d="M138.74,202.19a.74.74,0,0,1,0,1.4,2.67,2.67,0,0,1-2.42,0,.74.74,0,0,1,0-1.4A2.67,2.67,0,0,1,138.74,202.19Z"/><path id="_Path_242" data-name="&lt;Path&gt;" class="cls-2" d="M145.11,198.6a.74.74,0,0,1,0,1.4,2.67,2.67,0,0,1-2.42,0,.74.74,0,0,1,0-1.4A2.68,2.68,0,0,1,145.11,198.6Z"/><path id="_Path_243" data-name="&lt;Path&gt;" class="cls-2" d="M151.47,195a.74.74,0,0,1,0,1.4,2.68,2.68,0,0,1-2.42,0,.74.74,0,0,1,0-1.4A2.68,2.68,0,0,1,151.47,195Z"/><path id="_Path_244" data-name="&lt;Path&gt;" class="cls-2" d="M157.83,191.41a.74.74,0,0,1,0,1.4,2.68,2.68,0,0,1-2.42,0,.74.74,0,0,1,0-1.4A2.67,2.67,0,0,1,157.83,191.41Z"/><path id="_Path_245" data-name="&lt;Path&gt;" class="cls-2" d="M106.95,212.81a.74.74,0,0,1,0,1.4,2.68,2.68,0,0,1-2.42,0,.74.74,0,0,1,0-1.4A2.68,2.68,0,0,1,106.95,212.81Z"/><path id="_Path_246" data-name="&lt;Path&gt;" class="cls-2" d="M113.31,209.22a.74.74,0,0,1,0,1.4,2.68,2.68,0,0,1-2.42,0,.74.74,0,0,1,0-1.4A2.67,2.67,0,0,1,113.31,209.22Z"/><path id="_Path_247" data-name="&lt;Path&gt;" class="cls-2" d="M119.67,205.62a.74.74,0,0,1,0,1.4,2.67,2.67,0,0,1-2.42,0,.74.74,0,0,1,0-1.4A2.67,2.67,0,0,1,119.67,205.62Z"/><path id="_Path_248" data-name="&lt;Path&gt;" class="cls-2" d="M126,202a.74.74,0,0,1,0,1.4,2.68,2.68,0,0,1-2.42,0,.74.74,0,0,1,0-1.4A2.67,2.67,0,0,1,126,202Z"/><path id="_Path_249" data-name="&lt;Path&gt;" class="cls-2" d="M132.4,198.44a.74.74,0,0,1,0,1.4,2.68,2.68,0,0,1-2.42,0,.74.74,0,0,1,0-1.4A2.67,2.67,0,0,1,132.4,198.44Z"/><path id="_Path_250" data-name="&lt;Path&gt;" class="cls-2" d="M138.76,194.85a.74.74,0,0,1,0,1.4,2.67,2.67,0,0,1-2.42,0,.74.74,0,0,1,0-1.4A2.67,2.67,0,0,1,138.76,194.85Z"/><path id="_Path_251" data-name="&lt;Path&gt;" class="cls-2" d="M145.12,191.25a.74.74,0,0,1,0,1.4,2.67,2.67,0,0,1-2.42,0,.74.74,0,0,1,0-1.4A2.68,2.68,0,0,1,145.12,191.25Z"/><path id="_Path_252" data-name="&lt;Path&gt;" class="cls-2" d="M151.48,187.66a.74.74,0,0,1,0,1.4,2.67,2.67,0,0,1-2.42,0,.74.74,0,0,1,0-1.4A2.68,2.68,0,0,1,151.48,187.66Z"/><path id="_Path_253" data-name="&lt;Path&gt;" class="cls-2" d="M100.65,209.09a.74.74,0,0,1,0,1.4,2.67,2.67,0,0,1-2.42,0,.74.74,0,0,1,0-1.4A2.67,2.67,0,0,1,100.65,209.09Z"/><path id="_Path_254" data-name="&lt;Path&gt;" class="cls-2" d="M107,205.5a.74.74,0,0,1,0,1.4,2.67,2.67,0,0,1-2.42,0,.74.74,0,0,1,0-1.4A2.67,2.67,0,0,1,107,205.5Z"/><path id="_Path_255" data-name="&lt;Path&gt;" class="cls-2" d="M113.38,201.91a.74.74,0,0,1,0,1.4,2.68,2.68,0,0,1-2.42,0,.74.74,0,0,1,0-1.4A2.67,2.67,0,0,1,113.38,201.91Z"/><path id="_Path_256" data-name="&lt;Path&gt;" class="cls-2" d="M119.74,198.32a.74.74,0,0,1,0,1.4,2.68,2.68,0,0,1-2.42,0,.74.74,0,0,1,0-1.4A2.67,2.67,0,0,1,119.74,198.32Z"/><path id="_Path_257" data-name="&lt;Path&gt;" class="cls-2" d="M126.1,194.72a.74.74,0,0,1,0,1.4,2.67,2.67,0,0,1-2.42,0,.74.74,0,0,1,0-1.4A2.67,2.67,0,0,1,126.1,194.72Z"/><path id="_Path_258" data-name="&lt;Path&gt;" class="cls-2" d="M132.47,191.13a.74.74,0,0,1,0,1.4,2.67,2.67,0,0,1-2.42,0,.74.74,0,0,1,0-1.4A2.68,2.68,0,0,1,132.47,191.13Z"/><path id="_Path_259" data-name="&lt;Path&gt;" class="cls-2" d="M138.83,187.54a.74.74,0,0,1,0,1.4,2.67,2.67,0,0,1-2.42,0,.74.74,0,0,1,0-1.4A2.68,2.68,0,0,1,138.83,187.54Z"/><path id="_Path_260" data-name="&lt;Path&gt;" class="cls-2" d="M145.19,183.95a.74.74,0,0,1,0,1.4,2.67,2.67,0,0,1-2.42,0,.74.74,0,0,1,0-1.4A2.67,2.67,0,0,1,145.19,183.95Z"/><path id="_Path_261" data-name="&lt;Path&gt;" class="cls-2" d="M100.72,201.79a.74.74,0,0,1,0,1.4,2.68,2.68,0,0,1-2.42,0,.74.74,0,0,1,0-1.4A2.67,2.67,0,0,1,100.72,201.79Z"/><path id="_Path_262" data-name="&lt;Path&gt;" class="cls-2" d="M107.09,198.2a.74.74,0,0,1,0,1.4,2.68,2.68,0,0,1-2.42,0,.74.74,0,0,1,0-1.4A2.67,2.67,0,0,1,107.09,198.2Z"/><path id="_Path_263" data-name="&lt;Path&gt;" class="cls-2" d="M113.45,194.6a.74.74,0,0,1,0,1.4,2.67,2.67,0,0,1-2.42,0,.74.74,0,0,1,0-1.4A2.68,2.68,0,0,1,113.45,194.6Z"/><path id="_Path_264" data-name="&lt;Path&gt;" class="cls-2" d="M119.81,191a.74.74,0,0,1,0,1.4,2.67,2.67,0,0,1-2.42,0,.74.74,0,0,1,0-1.4A2.68,2.68,0,0,1,119.81,191Z"/><path id="_Path_265" data-name="&lt;Path&gt;" class="cls-2" d="M126.17,187.42a.74.74,0,0,1,0,1.4,2.67,2.67,0,0,1-2.42,0,.74.74,0,0,1,0-1.4A2.67,2.67,0,0,1,126.17,187.42Z"/><path id="_Path_266" data-name="&lt;Path&gt;" class="cls-2" d="M132.54,183.83a.74.74,0,0,1,0,1.4,2.67,2.67,0,0,1-2.42,0,.74.74,0,0,1,0-1.4A2.67,2.67,0,0,1,132.54,183.83Z"/><path id="_Path_267" data-name="&lt;Path&gt;" class="cls-2" d="M208.06,264.42a.74.74,0,0,1,0,1.4,2.68,2.68,0,0,1-2.42,0,.74.74,0,0,1,0-1.4A2.67,2.67,0,0,1,208.06,264.42Z"/><path id="_Path_268" data-name="&lt;Path&gt;" class="cls-2" d="M214.42,260.83a.74.74,0,0,1,0,1.4,2.67,2.67,0,0,1-2.42,0,.74.74,0,0,1,0-1.4A2.67,2.67,0,0,1,214.42,260.83Z"/><path id="_Path_269" data-name="&lt;Path&gt;" class="cls-2" d="M220.78,257.24a.74.74,0,0,1,0,1.4,2.68,2.68,0,0,1-2.42,0,.74.74,0,0,1,0-1.4A2.67,2.67,0,0,1,220.78,257.24Z"/><path id="_Path_270" data-name="&lt;Path&gt;" class="cls-2" d="M227.15,253.64a.74.74,0,0,1,0,1.4,2.68,2.68,0,0,1-2.42,0,.74.74,0,0,1,0-1.4A2.67,2.67,0,0,1,227.15,253.64Z"/><path id="_Path_271" data-name="&lt;Path&gt;" class="cls-2" d="M233.51,250.05a.74.74,0,0,1,0,1.4,2.67,2.67,0,0,1-2.42,0,.74.74,0,0,1,0-1.4A2.67,2.67,0,0,1,233.51,250.05Z"/><path id="_Path_272" data-name="&lt;Path&gt;" class="cls-2" d="M195.4,264.3a.74.74,0,0,1,0,1.4,2.67,2.67,0,0,1-2.42,0,.74.74,0,0,1,0-1.4A2.67,2.67,0,0,1,195.4,264.3Z"/><path id="_Path_273" data-name="&lt;Path&gt;" class="cls-2" d="M201.76,260.71a.74.74,0,0,1,0,1.4,2.67,2.67,0,0,1-2.42,0,.74.74,0,0,1,0-1.4A2.67,2.67,0,0,1,201.76,260.71Z"/><path id="_Path_274" data-name="&lt;Path&gt;" class="cls-2" d="M208.13,257.12a.74.74,0,0,1,0,1.4,2.68,2.68,0,0,1-2.42,0,.74.74,0,0,1,0-1.4A2.67,2.67,0,0,1,208.13,257.12Z"/><path id="_Path_275" data-name="&lt;Path&gt;" class="cls-2" d="M214.49,253.52a.74.74,0,0,1,0,1.4,2.68,2.68,0,0,1-2.42,0,.74.74,0,0,1,0-1.4A2.67,2.67,0,0,1,214.49,253.52Z"/><path id="_Path_276" data-name="&lt;Path&gt;" class="cls-2" d="M220.85,249.93a.74.74,0,0,1,0,1.4,2.67,2.67,0,0,1-2.42,0,.74.74,0,0,1,0-1.4A2.68,2.68,0,0,1,220.85,249.93Z"/><path id="_Path_277" data-name="&lt;Path&gt;" class="cls-2" d="M227.22,246.34a.74.74,0,0,1,0,1.4,2.67,2.67,0,0,1-2.42,0,.74.74,0,0,1,0-1.4A2.68,2.68,0,0,1,227.22,246.34Z"/><path id="_Path_278" data-name="&lt;Path&gt;" class="cls-2" d="M233.58,242.75a.74.74,0,0,1,0,1.4,2.67,2.67,0,0,1-2.42,0,.74.74,0,0,1,0-1.4A2.67,2.67,0,0,1,233.58,242.75Z"/><path id="_Path_279" data-name="&lt;Path&gt;" class="cls-2" d="M239.69,239.76a.74.74,0,0,1,0,1.4,2.68,2.68,0,0,1-2.42,0,.74.74,0,0,1,0-1.4A2.68,2.68,0,0,1,239.69,239.76Z"/><path id="_Path_280" data-name="&lt;Path&gt;" class="cls-2" d="M239.87,246.48a.74.74,0,0,1,0,1.4,2.67,2.67,0,0,1-2.42,0,.74.74,0,0,1,0-1.4A2.68,2.68,0,0,1,239.87,246.48Z"/></g><g class="cls-3"><path d="M4.7,148.16l23.8-13.83a5.82,5.82,0,0,0,.41,2,11.09,11.09,0,0,0,1.26,2.38,14.8,14.8,0,0,0,4.66,4.39L11,157a14.8,14.8,0,0,1-4.66-4.39,11.09,11.09,0,0,1-1.26-2.38A5.82,5.82,0,0,1,4.7,148.16Z"/><polygon points="5.01 38.79 28.81 24.95 28.5 134.32 4.7 148.16 5.01 38.79"/><polygon class="cls-4" points="17.42 102.36 41.23 88.53 55.01 107.59 31.21 121.42 17.42 102.36"/><polygon class="cls-4" points="17.44 95.91 41.25 82.07 41.23 88.53 17.42 102.36 17.44 95.91"/><polygon points="22.08 101.76 45.88 87.93 55.03 100.8 31.23 114.63 22.08 101.76"/><polygon points="31.23 114.63 55.03 100.8 55.01 107.59 31.21 121.42 31.23 114.63"/><path class="cls-4" d="M75.78,122.79c-7.94,4.61-13.19,13.83-23.8,13.83a36.62,36.62,0,0,1-4-1.92l-.36-.22a13.21,13.21,0,0,1-3.11-2.5,10.64,10.64,0,0,1-2-3.08,16.06,16.06,0,0,1-1-3.4,22.33,22.33,0,0,1-.3-3.82l23.8-13.83a22.33,22.33,0,0,0,.3,3.82,16.06,16.06,0,0,0,1,3.4,10.64,10.64,0,0,0,2,3.08,13.21,13.21,0,0,0,3.11,2.5l.36.22A36.62,36.62,0,0,0,75.78,122.79Z"/><polygon class="cls-4" points="22.08 101.76 45.88 87.93 55.07 85.73 31.27 99.56 22.08 101.76"/><polygon points="51.99 131.05 75.8 117.22 75.78 122.79 51.98 136.62 51.99 131.05"/><path d="M47.65,125.83,71.45,112a4.93,4.93,0,0,0,.57,2.51,5,5,0,0,0,1.85,1.76l.22.13a13.09,13.09,0,0,0,1.7.82L52,131.05a13.09,13.09,0,0,1-1.7-.82l-.22-.13a5,5,0,0,1-1.85-1.76A4.93,4.93,0,0,1,47.65,125.83Z"/><polygon points="31.29 92.74 55.09 78.91 55.07 85.73 31.27 99.56 31.29 92.74"/><polygon class="cls-4" points="55.27 138.47 79.07 124.63 86.25 128.78 62.45 142.61 55.27 138.47"/><polygon class="cls-4" points="38.69 102.85 62.49 89.02 65.14 90.55 41.34 104.38 38.69 102.85"/><polygon class="cls-4" points="41.34 104.38 65.14 90.55 65.09 107.86 41.29 121.69 41.34 104.38"/><polygon class="cls-4" points="38.7 98.04 62.51 84.2 62.49 89.02 38.69 102.85 38.7 98.04"/><polygon class="cls-4" points="41.38 90.51 65.18 76.67 65.15 85.73 41.35 99.56 41.38 90.51"/><polygon points="38.7 98.04 62.51 84.2 65.15 85.73 41.35 99.57 38.7 98.04"/><polygon points="47.7 108.06 71.5 94.22 71.45 112 47.65 125.83 47.7 108.06"/><polygon class="cls-4" points="50.92 109.92 74.73 96.08 79.07 124.63 55.27 138.47 50.92 109.92"/><polygon points="50.12 104.63 73.92 90.8 74.73 96.08 50.92 109.92 50.12 104.63"/><polygon class="cls-4" points="47.7 108.06 71.5 94.22 74.73 96.08 50.92 109.92 47.7 108.06"/><polygon points="47.71 103.24 71.52 89.41 73.92 90.8 50.12 104.63 47.71 103.24"/><path d="M47.74,94.18l0,9.06,2.4,1.39.8,5.29-3.22-1.86-.05,17.78a4.93,4.93,0,0,0,.57,2.51,5,5,0,0,0,1.85,1.76l.22.13a13.09,13.09,0,0,0,1.7.82l0,5.57a36.62,36.62,0,0,1-4-1.92l-.36-.22a13.21,13.21,0,0,1-3.11-2.5,10.64,10.64,0,0,1-2-3.08,16.05,16.05,0,0,1-1-3.4,22.31,22.31,0,0,1-.3-3.82l0-17.31-2.65-1.53V98l2.65,1.53,0-9.06Z"/><polygon points="47.74 94.18 71.55 80.35 71.52 89.41 47.71 103.24 47.74 94.18"/><polygon points="41.38 90.51 65.18 76.67 71.55 80.35 47.74 94.18 41.38 90.51"/><polygon class="cls-4" points="85.28 165.96 109.08 152.13 115.43 155.79 91.62 169.63 85.28 165.96"/><polygon points="56.33 108.21 80.13 94.38 82.72 118.27 58.91 132.1 56.33 108.21"/><polygon points="50.12 104.63 73.92 90.8 80.13 94.38 56.33 108.21 50.12 104.63"/><path class="cls-4" d="M109,139.89l-23.8,13.83a4.35,4.35,0,0,1-4.6-.14,11.7,11.7,0,0,1-4.92-5.52,23.29,23.29,0,0,1-1.59-9.45l23.8-13.83a23.29,23.29,0,0,0,1.59,9.45,11.7,11.7,0,0,0,4.92,5.52A4.35,4.35,0,0,0,109,139.89Z"/><polygon class="cls-4" points="85.31 153.65 109.12 139.82 109.08 152.13 85.28 165.96 85.31 153.65"/><path d="M109,139.89l-23.8,13.83.12-.07,23.8-13.83Z"/><polygon class="cls-4" points="61.61 111.26 85.41 97.43 82.72 118.27 58.91 132.1 61.61 111.26"/><path d="M80.42,142.82,104.22,129a20.32,20.32,0,0,0,.16,2.85,7.27,7.27,0,0,0,.73,2.33,3.89,3.89,0,0,0,1.54,1.69,4.38,4.38,0,0,0,2.47.57l-23.8,13.83a4.38,4.38,0,0,1-2.47-.57A3.89,3.89,0,0,1,81.32,148a7.27,7.27,0,0,1-.73-2.33A20.32,20.32,0,0,1,80.42,142.82Z"/><polygon points="67.72 114.79 91.52 100.96 86.25 128.78 62.45 142.61 67.72 114.79"/><polygon class="cls-4" points="74.11 129.66 97.91 115.83 97.89 124.78 74.08 138.62 74.11 129.66"/><polygon points="67.72 114.79 62.45 142.61 55.26 138.47 50.92 109.92 50.12 104.63 56.33 108.21 58.91 132.1 61.6 111.26 67.72 114.79"/><polygon points="61.6 111.26 85.41 97.43 91.52 100.96 67.72 114.79 61.6 111.26"/><polygon points="80.45 131.53 104.25 117.69 104.22 128.99 80.42 142.82 80.45 131.53"/><path class="cls-4" d="M98.11,112.31a29.22,29.22,0,0,0-.2,3.52l-23.8,13.83a29.22,29.22,0,0,1,.2-3.52,12.38,12.38,0,0,1,.67-2.78,4.63,4.63,0,0,1,1.2-1.88L100,107.65a4.63,4.63,0,0,0-1.2,1.88A12.38,12.38,0,0,0,98.11,112.31Z"/><path class="cls-4" d="M100,107.65h0l-23.8,13.83h0l23.78-13.82L76.17,121.48a2.31,2.31,0,0,1,.36-.26l23.8-13.83A2.31,2.31,0,0,0,100,107.65Z"/><path d="M81.45,128l23.8-13.83a1.18,1.18,0,0,0-.42.45,6.39,6.39,0,0,0-.58,3.05l-23.8,13.83a6.39,6.39,0,0,1,.58-3.05A1.18,1.18,0,0,1,81.45,128Z"/><path class="cls-4" d="M105.25,114.19a1.42,1.42,0,0,1,1.44.2l-23.8,13.83a1.42,1.42,0,0,0-1.44-.2Z"/><path class="cls-4" d="M106.69,114.39h0l-23.8,13.83h0l23.8-13.83Z"/><polygon class="cls-4" points="103.44 163.39 127.24 149.56 127.24 152.44 103.43 166.28 103.44 163.39"/><polygon class="cls-4" points="85.38 130.62 109.18 116.79 109.13 136.41 85.32 150.25 85.38 130.62"/><polygon points="91.74 128.66 115.54 114.82 115.43 155.79 91.62 169.63 91.74 128.66"/><path class="cls-4" d="M92.6,153.82,116.4,140a13.76,13.76,0,0,0,1,5.34,7.73,7.73,0,0,0,3.34,3.86,6.61,6.61,0,0,0,6.46.37l-23.8,13.83A6.61,6.61,0,0,1,97,163a7.73,7.73,0,0,1-3.34-3.86A13.76,13.76,0,0,1,92.6,153.82Z"/><path class="cls-4" d="M106.7,114.39a8.87,8.87,0,0,1,2.49,2.4l-23.8,13.83a8.87,8.87,0,0,0-2.49-2.4Z"/><path class="cls-4" d="M81,128.47q.57-1,1.86-.25a8.87,8.87,0,0,1,2.49,2.4l-.06,19.63a4.38,4.38,0,0,1-2.47-.57A3.89,3.89,0,0,1,81.32,148a7.28,7.28,0,0,1-.73-2.32,20.31,20.31,0,0,1-.16-2.85l0-11.3A6.38,6.38,0,0,1,81,128.47Z"/><path d="M98.92,156l23.8-13.83a6.15,6.15,0,0,0,.38,2.36,3,3,0,0,0,1.35,1.46,3.69,3.69,0,0,0,2.79.31l-23.8,13.83a3.69,3.69,0,0,1-2.79-.31,3,3,0,0,1-1.35-1.46A6.15,6.15,0,0,1,98.92,156Z"/><polygon class="cls-4" points="103.43 166.28 127.24 152.44 133.55 156.09 109.75 169.92 103.43 166.28"/><polygon class="cls-4" points="85.39 125 109.2 111.16 109.19 113.14 85.39 126.97 85.39 125"/><path d="M76.53,121.22l23.8-13.83a2.74,2.74,0,0,1,1.49-.34,5.65,5.65,0,0,1,2.57.87,14.25,14.25,0,0,1,4.79,5.22L85.39,127a14.25,14.25,0,0,0-4.79-5.22,5.65,5.65,0,0,0-2.57-.87A2.74,2.74,0,0,0,76.53,121.22Z"/><polygon points="85.39 125 109.2 111.16 115.54 114.82 91.74 128.66 85.39 125"/><path d="M85.39,125l6.34,3.66-.12,41L85.28,166l0-12.31a4.34,4.34,0,0,1-4.72-.06,11.7,11.7,0,0,1-4.92-5.53,23.29,23.29,0,0,1-1.59-9.45l0-9a29.24,29.24,0,0,1,.2-3.52,12.39,12.39,0,0,1,.67-2.78,4.62,4.62,0,0,1,1.2-1.88,2.58,2.58,0,0,1,1.85-.6,5.65,5.65,0,0,1,2.57.87A14.25,14.25,0,0,1,85.39,127Zm-.07,25.25.06-19.62a8.87,8.87,0,0,0-2.49-2.4q-1.29-.75-1.86.25a6.39,6.39,0,0,0-.58,3.05l0,11.3a20.32,20.32,0,0,0,.16,2.85,7.27,7.27,0,0,0,.73,2.33,3.89,3.89,0,0,0,1.54,1.69,4.38,4.38,0,0,0,2.47.57"/><polygon class="cls-4" points="92.67 129.19 116.47 115.36 116.4 139.98 92.6 153.82 92.67 129.19"/><polygon points="98.99 132.84 122.79 119.01 122.73 142.15 98.92 155.98 98.99 132.84"/><polygon class="cls-4" points="103.52 135.46 127.32 121.63 127.25 146.28 103.45 160.11 103.52 135.46"/><polygon points="109.84 139.11 133.64 125.27 133.55 156.09 109.75 169.92 109.84 139.11"/><path class="cls-4" d="M143.31,160.77l.16-.09-23.8,13.83-.16.09c-.88.45-2,.28-3.41-.52a11,11,0,0,1-4.15-4.68,13.32,13.32,0,0,1-1.6-6,9.7,9.7,0,0,1,.78-4.24l23.8-13.83a9.7,9.7,0,0,0-.78,4.24,13.32,13.32,0,0,0,1.6,6,11,11,0,0,0,4.15,4.68C141.29,161.05,142.43,161.23,143.31,160.77Z"/><path class="cls-4" d="M134.93,145.31h0l-23.8,13.83h0Z"/><path class="cls-4" d="M136.35,143.77a3.58,3.58,0,0,0-1.42,1.54l-23.8,13.83a3.58,3.58,0,0,1,1.42-1.54Z"/><path d="M143.47,160.69l-23.8,13.83a4,4,0,0,0,1.74-2.4l23.8-13.83A4,4,0,0,1,143.47,160.69Z"/><path class="cls-4" d="M121.41,172.12l23.8-13.83c.09,1.06.3,2.69.64,4.9L122.05,177C121.71,174.82,121.5,173.18,121.41,172.12Z"/><polygon points="92.67 129.19 116.47 115.36 122.79 119.01 98.99 132.84 92.67 129.19"/><path d="M118.16,161.71,142,147.87a3.54,3.54,0,0,0-1.74,3.31,7.32,7.32,0,0,0,.55,2.95,3.79,3.79,0,0,0,1.57,1.87,1.76,1.76,0,0,0,1.44.21,3.31,3.31,0,0,0,.73-.31l-23.8,13.83a3.31,3.31,0,0,1-.73.31,1.76,1.76,0,0,1-1.44-.21A3.79,3.79,0,0,1,117,168a7.32,7.32,0,0,1-.55-2.95A3.54,3.54,0,0,1,118.16,161.71Z"/><path class="cls-4" d="M144.93,155.59a2.36,2.36,0,0,1-.42.31l-23.8,13.83a2.36,2.36,0,0,0,.42-.31Z"/><polygon class="cls-4" points="122.05 177.03 145.86 163.19 151.59 166.5 127.78 180.34 122.05 177.03"/><path class="cls-4" d="M110.75,148.55l23.8-13.83q0,.13,0,.54c0,.27,0,.46,0,.57l-23.8,13.83c0-.1,0-.29,0-.57S110.75,148.64,110.75,148.55Z"/><path d="M151.14,160.49q.09,2.76.45,6l-23.8,13.83q-.36-3.25-.45-6Z"/><polygon class="cls-4" points="121.15 160.94 144.95 147.11 144.93 155.59 121.12 169.43 121.15 160.94"/><polygon points="127.35 158.24 151.15 144.41 151.11 158.23 127.31 172.06 127.35 158.24"/><polygon points="126.81 171.98 150.62 158.15 151.11 158.23 127.31 172.06 126.81 171.98"/><path class="cls-4" d="M159,171.26q3.51,2,5.77,1.18l-23.8,13.83q-2.26.85-5.77-1.18a15.59,15.59,0,0,1-5.45-5.29,20.25,20.25,0,0,1-2.38-5.48l23.8-13.83a20.25,20.25,0,0,0,2.38,5.48A15.59,15.59,0,0,0,159,171.26Z"/><path class="cls-4" d="M145,147.11l-23.8,13.83a6.71,6.71,0,0,0-3,.76L142,147.87A6.71,6.71,0,0,1,145,147.11Z"/><polygon class="cls-4" points="110.72 149.66 134.52 135.82 140.59 139.59 116.79 153.42 110.72 149.66"/><polygon points="116.89 151.54 140.69 137.71 140.59 139.59 116.79 153.42 116.89 151.54"/><path d="M112.54,157.6l23.8-13.83a4.08,4.08,0,0,1,1.12-.44,12.17,12.17,0,0,1,2.92-.4,33.29,33.29,0,0,1,3.56.33l1,.12-23.8,13.83-1-.12a33.29,33.29,0,0,0-3.56-.33,12.17,12.17,0,0,0-2.92.4A4.08,4.08,0,0,0,112.54,157.6Z"/><path class="cls-4" d="M136.8,129.19q-2,1.14-2.25,5.53l-23.8,13.83Q111,144.16,113,143Z"/><path d="M117.63,149.19l23.8-13.83q-.71.41-.74,2.35l-23.8,13.83Q116.92,149.61,117.63,149.19Z"/><polygon class="cls-4" points="121.17 154.64 144.97 140.81 144.96 143.39 121.16 157.22 121.17 154.64"/><path class="cls-4" d="M141.44,135.36a1.41,1.41,0,0,1,1.41.21L119,149.4a1.41,1.41,0,0,0-1.41-.21Z"/><path class="cls-4" d="M142.85,135.57h0L119,149.4h0l23.8-13.83Z"/><path class="cls-4" d="M144.56,137.52a10.32,10.32,0,0,1,.41,3.29L133,147.74l-11.88,6.91a10.32,10.32,0,0,0-.41-3.29Z"/><path class="cls-4" d="M144.56,137.52h0l-23.8,13.83h0l23.8-13.83Z"/><path class="cls-4" d="M142.85,135.57a3.62,3.62,0,0,1,1.71,1.95l-23.8,13.83A3.62,3.62,0,0,0,119,149.4Z"/><path d="M127.34,174.33q.09,2.76.45,6L122.05,177c-.34-2.21-.55-3.85-.64-4.9a4,4,0,0,1-1.9,2.48c-.88.45-2,.28-3.41-.52a11,11,0,0,1-4.15-4.68,13.32,13.32,0,0,1-1.6-6,9.7,9.7,0,0,1,.78-4.24,3.63,3.63,0,0,1,2.54-2,12.17,12.17,0,0,1,2.92-.4,33.29,33.29,0,0,1,3.56.33l1,.12v-2.58a10.31,10.31,0,0,0-.41-3.29A3.62,3.62,0,0,0,119,149.4q-2.1-1.21-2.16,2.14l-.1,1.87-6.07-3.76c0-.1,0-.3,0-.57s0-.45,0-.54q.3-4.68,2.52-5.66t6.31,1.38a14.86,14.86,0,0,1,5.87,5.87,16.85,16.85,0,0,1,1.89,8.1l0,13.82-.49-.08Q127,173.2,127.34,174.33Zm-6.22-4.9,0-8.48q-4.72.27-4.73,4.07A7.32,7.32,0,0,0,117,168a3.79,3.79,0,0,0,1.57,1.87A1.76,1.76,0,0,0,120,170a2.84,2.84,0,0,0,1.15-.61"/><polygon points="127.31 172.06 151.11 158.23 155.43 158.92 131.62 172.75 127.31 172.06"/><path class="cls-4" d="M116.42,165q0-3.8,4.73-4.07l0,8.48A2.84,2.84,0,0,1,120,170a1.76,1.76,0,0,1-1.44-.21A3.79,3.79,0,0,1,117,168,7.32,7.32,0,0,1,116.42,165Z"/><polygon points="103.52 135.46 127.32 121.63 133.64 125.27 109.84 139.11 103.52 135.46"/><path d="M109.84,139.11l-.09,30.82-6.32-3.65v-2.89A6.61,6.61,0,0,1,97,163a7.73,7.73,0,0,1-3.34-3.86,13.77,13.77,0,0,1-1-5.34l.07-24.62L99,132.84,98.92,156a6.15,6.15,0,0,0,.38,2.36,3,3,0,0,0,1.35,1.46,3.69,3.69,0,0,0,2.79.31l.07-24.65Z"/><path d="M160.68,166.32l-23.8,13.83a1.58,1.58,0,0,1-1.6-.16l-.11-.06a5.64,5.64,0,0,1-2.15-2.51,17.41,17.41,0,0,1-1.39-4.67l23.8-13.83a17.41,17.41,0,0,0,1.39,4.67A5.64,5.64,0,0,0,159,166.1l.11.06A1.58,1.58,0,0,0,160.68,166.32Z"/><path class="cls-4" d="M160.73,166.29l0,0-23.8,13.83,0,0Z"/><path class="cls-4" d="M160.73,166.29h0l-23.8,13.83h0Z"/><path class="cls-4" d="M164.74,172.44h0l-23.8,13.83h0l23.8-13.83Z"/><path class="cls-4" d="M164.74,172.44a3,3,0,0,0,.46-.22l-23.8,13.83a3,3,0,0,1-.46.22l1.37-.79,12.09-7,1.55-.9,1.54-.9,3-1.75,1.46-.85C162.8,173.57,163.87,172.86,164.74,172.44Z"/><path class="cls-4" d="M161.33,164.7a1.7,1.7,0,0,1-.61,1.59l-23.8,13.83a1.7,1.7,0,0,0,.61-1.59Z"/><polygon class="cls-4" points="131.3 167.19 155.1 153.36 158.69 158.97 134.89 172.81 131.3 167.19"/><path class="cls-4" d="M161.33,164.7c-7.94,4.61-13.19,13.83-23.8,13.83q-.09-1.72-2.64-5.72L158.69,159Q161.25,163,161.33,164.7Z"/><polygon points="11.02 156.97 34.83 143.13 210.22 244.39 186.41 258.23 11.02 156.97"/><path d="M165.2,172.23l-23.8,13.83A3.65,3.65,0,0,0,143,183.5l23.8-13.83A3.65,3.65,0,0,1,165.2,172.23Z"/><path d="M113,143l23.8-13.83.27-.14q2.22-1,6.31,1.38a14.86,14.86,0,0,1,5.87,5.87,16.85,16.85,0,0,1,1.89,8.1l-23.8,13.83a16.85,16.85,0,0,0-1.89-8.1,14.86,14.86,0,0,0-5.87-5.87q-4.1-2.37-6.31-1.38Z"/><path d="M166.83,169.67,161.1,173l-4.61,2.68L143,183.5a25.69,25.69,0,0,1-.59-5.76l23.8-13.83A25.69,25.69,0,0,0,166.83,169.67Z"/><polygon points="142.43 177.15 166.24 163.32 166.24 163.91 142.43 177.74 142.43 177.15"/><path class="cls-4" d="M151.32,143.12q-.1,4.14,3.78,10.24l-23.8,13.83q-3.89-6.1-3.78-10.24.08-3.42,1.94-4.49l23.8-13.83Q151.39,139.71,151.32,143.12Z"/><polygon points="135.43 164.78 159.24 150.95 162.9 156.89 139.09 170.73 135.43 164.78"/><path d="M139.09,170.73l23.8-13.83q.92,1.47,1.54,2.57t1.27,2.55q.3.66.53,1.31l-23.8,13.83q-.23-.65-.53-1.31-.67-1.46-1.27-2.55T139.09,170.73Z"/><path d="M133.2,159.82,157,146q0,1.39,2.23,5l-23.8,13.83Q133.17,161.21,133.2,159.82Z"/><path d="M215.43,245.16,191.63,259a3,3,0,0,1-1.47.38,7.38,7.38,0,0,1-3.75-1.15l23.8-13.83a7.38,7.38,0,0,0,3.75,1.15A3,3,0,0,0,215.43,245.16Z"/><path d="M133.84,158.4l23.8-13.83,0,0A1.53,1.53,0,0,0,157,146l-23.8,13.83a1.53,1.53,0,0,1,.61-1.4Z"/><path class="cls-4" d="M174.83,180.42q4,2.3,6.07,1.1l-23.8,13.83q-2.07,1.21-6.07-1.1a16,16,0,0,1-6.6-6.73,18.16,18.16,0,0,1-1.4-4l23.8-13.83a18.16,18.16,0,0,0,1.4,4A16,16,0,0,0,174.83,180.42Z"/><path d="M176.32,175.36l-23.8,13.83c-.35.2-.84.11-1.49-.26a4.31,4.31,0,0,1-1-.73,3.23,3.23,0,0,1-.66-1,8.87,8.87,0,0,1-.39-1.07,6.89,6.89,0,0,1-.21-1.29c0-.53-.07-1-.08-1.33s0-.86,0-1.51l23.8-13.83q0,1,0,1.51c0,.36,0,.81.08,1.33a6.89,6.89,0,0,0,.21,1.29,8.87,8.87,0,0,0,.39,1.07,3.23,3.23,0,0,0,.66,1,4.31,4.31,0,0,0,1,.73C175.47,175.47,176,175.56,176.32,175.36Z"/><path class="cls-4" d="M176.59,175.09a.85.85,0,0,1-.28.27l-23.8,13.83a.85.85,0,0,0,.28-.27Z"/><path class="cls-4" d="M176.6,175.09h0l-23.8,13.83h0Z"/><path class="cls-4" d="M159.12,144.76l-23.8,13.83a1.47,1.47,0,0,0-1.48-.19l23.8-13.83A1.47,1.47,0,0,1,159.12,144.76Z"/><path class="cls-4" d="M159.14,144.77l.07,0-23.8,13.83-.07,0h0l23.8-13.83Z"/><polygon class="cls-4" points="142.46 169.02 166.26 155.19 166.24 163.32 142.43 177.15 142.46 169.02"/><path class="cls-4" d="M135.41,158.64l23.8-13.83q2.35,1.38,3.2,6.67l-23.8,13.83Q137.76,160,135.41,158.64Z"/><path class="cls-4" d="M177.1,172.4a5.12,5.12,0,0,1-.51,2.69l-23.8,13.83a5.12,5.12,0,0,0,.51-2.69Z"/><polygon points="148.74 177.37 172.54 163.54 172.53 168.17 148.73 182 148.74 177.37"/><path d="M129.45,152.46l23.8-13.83.27-.14q2.12-1,5.41.92l-23.8,13.83q-3.29-1.9-5.41-.92Z"/><polygon class="cls-4" points="153.3 184.46 177.11 170.63 177.1 172.4 153.3 186.23 153.3 184.46"/><path class="cls-4" d="M166.26,155.19,142.46,169a22.28,22.28,0,0,1,.23-3.32l23.8-13.83A22.28,22.28,0,0,0,166.26,155.19Z"/><path class="cls-4" d="M135.41,158.64q2.35,1.38,3.2,6.67l4.08.39a22.28,22.28,0,0,0-.23,3.32l0,8.13q-.23-.65-.53-1.31-.67-1.46-1.27-2.55t-1.54-2.57l-3.66-5.94q-2.26-3.57-2.23-5a1.53,1.53,0,0,1,.61-1.4,1.45,1.45,0,0,1,1.54.18Z"/><polygon class="cls-4" points="138.6 165.31 162.41 151.48 166.49 151.87 142.69 165.7 138.6 165.31"/><path d="M166.49,151.87h0l-23.8,13.83h0Z"/><path d="M166.49,151.87l-23.8,13.83,0-.28,23.8-13.83Z"/><path d="M135.13,153.24l23.8-13.83a14.05,14.05,0,0,1,5.11,5.14,19.79,19.79,0,0,1,2.5,7l-23.8,13.83a19.79,19.79,0,0,0-2.5-7A14.05,14.05,0,0,0,135.13,153.24Z"/><path d="M135.13,153.24a14.05,14.05,0,0,1,5.11,5.14,19.79,19.79,0,0,1,2.5,7l0,.29-4.08-.39q-.84-5.28-3.2-6.67c-.7-.41-1.21-.47-1.6-.22a1.53,1.53,0,0,0-.61,1.4q0,1.39,2.23,5l3.66,5.94q.92,1.47,1.54,2.57t1.27,2.55q.3.66.53,1.31v.59a25.69,25.69,0,0,0,.59,5.76,3.45,3.45,0,0,1-2.08,2.78q-2.26.85-5.77-1.18a15.58,15.58,0,0,1-5.45-5.28,20.25,20.25,0,0,1-2.38-5.48q-.31-1.13-.52-2.35l.49.08,4.31.69a17.41,17.41,0,0,0,1.39,4.67,5.64,5.64,0,0,0,2.15,2.51l.11.06a1.55,1.55,0,0,0,1.64.13,1.7,1.7,0,0,0,.61-1.59q-.09-1.72-2.64-5.72l-3.59-5.62q-3.89-6.1-3.78-10.24c.05-2.44.79-4,2.21-4.63S132.93,152,135.13,153.24Z"/><polygon points="148.76 171.72 172.56 157.89 172.56 159.89 148.75 173.72 148.76 171.72"/><path d="M180.9,181.52l-23.8,13.83.11-.07q2.08-1.34,2.09-6.13l23.8-13.83q0,4.79-2.09,6.13Z"/><polygon points="153.3 184.46 177.11 170.63 183.11 174.09 159.31 187.92 153.3 184.46"/><polygon points="159.31 187.92 183.11 174.09 183.11 175.31 159.3 189.15 159.31 187.92"/><polygon class="cls-4" points="148.74 177.37 172.54 163.54 183.14 169.66 159.34 183.49 148.74 177.37"/><polygon points="148.75 173.72 172.56 159.89 177.13 162.53 153.33 176.37 148.75 173.72"/><path class="cls-4" d="M168.32,147.75a6.32,6.32,0,0,0-1.78,3.83l-23.8,13.83a6.32,6.32,0,0,1,1.78-3.83,2.82,2.82,0,0,1,.41-.29l23.8-13.83A2.82,2.82,0,0,0,168.32,147.75Z"/><path d="M149.58,167.47l23.8-13.83a.91.91,0,0,0-.33.36,9.87,9.87,0,0,0-.49,3.89l-23.8,13.83a9.87,9.87,0,0,1,.49-3.89A.91.91,0,0,1,149.58,167.47Z"/><polygon class="cls-4" points="153.34 173.42 177.14 159.59 177.13 162.53 153.33 176.37 153.34 173.42"/><path class="cls-4" d="M174.84,153.88l-10.34,6L151,167.72q-.95-.55-1.46-.25l23.8-13.83Q173.9,153.34,174.84,153.88Z"/><path class="cls-4" d="M170.91,159.27l-18.07,10.5h0Z"/><path class="cls-4" d="M176.64,155.94a10.34,10.34,0,0,1,.5,3.65l-23.8,13.83a10.34,10.34,0,0,0-.5-3.65h0l18.07-10.5,5.73-3.33-23.8,13.83a4,4,0,0,0-1.8-2.06l23.8-13.83A4,4,0,0,1,176.64,155.94Z"/><path class="cls-4" d="M151,167.72a4,4,0,0,1,1.8,2.06,10.34,10.34,0,0,1,.5,3.65v2.94l-4.58-2.64v-2a9.87,9.87,0,0,1,.49-3.89Q149.72,167,151,167.72Z"/><polygon points="159.35 179.45 183.16 165.62 183.14 169.66 159.34 183.49 159.35 179.45"/><polygon class="cls-4" points="167.74 193.45 191.54 179.61 191.52 186.41 167.72 200.24 167.74 193.45"/><path d="M159.34,183.49l-10.6-6.12V182q0,1,0,1.51c0,.36,0,.81.08,1.33a6.89,6.89,0,0,0,.21,1.29,8.87,8.87,0,0,0,.39,1.07,3.23,3.23,0,0,0,.66,1,4.31,4.31,0,0,0,1,.73c.84.49,1.43.49,1.77,0a5.12,5.12,0,0,0,.51-2.69v-1.77l6,3.47v1.22q0,4.79-2.09,6.13t-6.18-1a16,16,0,0,1-6.6-6.73,18.15,18.15,0,0,1-1.4-4,25.69,25.69,0,0,1-.59-5.76v-.59l0-8.13a22.24,22.24,0,0,1,.23-3.32l0-.29a6.32,6.32,0,0,1,1.78-3.83q2-1.74,6.58.88a17.39,17.39,0,0,1,4,3.14,13.27,13.27,0,0,1,2.55,3.93,19.56,19.56,0,0,1,1.29,4.54,33.5,33.5,0,0,1,.37,5.39Zm-10.58-11.77v2l4.58,2.64v-2.94a10.35,10.35,0,0,0-.5-3.65,4,4,0,0,0-1.8-2.06q-1.32-.76-1.79.11a9.87,9.87,0,0,0-.49,3.89"/><path d="M144.93,161.29l23.8-13.83q2.07-1.2,6.17,1.17a17.39,17.39,0,0,1,4,3.14,13.27,13.27,0,0,1,2.55,3.93,19.56,19.56,0,0,1,1.29,4.54,33.5,33.5,0,0,1,.37,5.39l-23.8,13.83a33.5,33.5,0,0,0-.37-5.39,19.56,19.56,0,0,0-1.29-4.54,13.27,13.27,0,0,0-2.55-3.93,17.39,17.39,0,0,0-4-3.14Q147,160.09,144.93,161.29Z"/><polygon points="167.74 193.45 191.54 179.61 200.76 177.35 176.95 191.18 167.74 193.45"/><polygon class="cls-4" points="167.78 178.38 191.59 164.54 200.76 177.35 176.95 191.18 167.78 178.38"/><polygon class="cls-4" points="167.72 200.24 191.52 186.41 205.42 183.32 181.61 197.16 167.72 200.24"/><polygon class="cls-4" points="167.8 171.56 191.6 157.72 191.59 164.54 167.78 178.38 167.8 171.56"/><polygon points="167.8 171.56 181.63 190.7 181.61 197.16 167.72 200.24 167.74 193.45 176.95 191.18 167.78 178.38 167.8 171.56"/><polygon points="181.63 190.7 205.44 176.87 205.42 183.32 181.61 197.16 181.63 190.7"/><polygon points="167.8 171.56 191.6 157.72 205.44 176.87 181.63 190.7 167.8 171.56"/><polygon points="3.01 37.63 26.81 23.8 28.81 24.95 5.01 38.79 3.01 37.63"/><path d="M1.6,32.91l23.8-13.83a1.4,1.4,0,0,0-.58,1.28,4.39,4.39,0,0,0,2,3.45L3,37.63a4.39,4.39,0,0,1-2-3.45A1.4,1.4,0,0,1,1.6,32.91Z"/><path d="M1.6,32.91l23.8-13.83a1.41,1.41,0,0,1,1.42.14L3,33A1.41,1.41,0,0,0,1.6,32.91Z"/><polygon points="3.02 33.04 26.83 19.21 28.82 20.36 5.02 34.2 3.02 33.04"/><polygon points="5.06 21.6 28.86 7.77 28.82 20.36 5.02 34.2 5.06 21.6"/><path d="M6.21,19.35,30,5.51a2.17,2.17,0,0,0-.74.7,2.77,2.77,0,0,0-.42,1.56L5.06,21.6A2.77,2.77,0,0,1,5.48,20,2.17,2.17,0,0,1,6.21,19.35Z"/><polygon class="cls-4" points="5.01 38.79 28.81 24.95 216.9 133.54 193.09 147.38 5.01 38.79"/><polygon points="5.02 34.2 28.82 20.36 216.91 128.95 193.1 142.79 5.02 34.2"/><path class="cls-5" d="M36.56,19.67a2.29,2.29,0,0,0,2.31.23L15.06,33.73a2.29,2.29,0,0,1-2.31-.23Z"/><path class="cls-5" d="M33.33,14.08a7.11,7.11,0,0,0,3.23,5.59L12.76,33.51a7.11,7.11,0,0,1-3.23-5.59,2.27,2.27,0,0,1,.95-2.08L34.28,12A2.27,2.27,0,0,0,33.33,14.08Z"/><path d="M38.87,19.9,15.06,33.73A2.26,2.26,0,0,0,16,31.66l23.8-13.83A2.26,2.26,0,0,1,38.87,19.9Z"/><path d="M10.47,25.83,34.28,12a2.28,2.28,0,0,1,2.3.23L12.78,26.06A2.28,2.28,0,0,0,10.47,25.83Z"/><path d="M12.78,26.06l23.8-13.83a7.12,7.12,0,0,1,3.23,5.6L16,31.66A7.12,7.12,0,0,0,12.78,26.06Z"/><path class="cls-5" d="M31.48,5.14a7.38,7.38,0,0,1,3.74,1.15L11.42,20.12h0L35.13,6.33,11.42,20.12A7.37,7.37,0,0,0,7.68,19a3,3,0,0,0-1.46.38L30,5.51A3,3,0,0,1,31.48,5.14Z"/><path class="cls-5" d="M46.28,25.28a2.29,2.29,0,0,0,2.29.23L24.77,39.35a2.29,2.29,0,0,1-2.29-.23Z"/><path d="M48.58,25.51,24.78,39.34a2.27,2.27,0,0,0,.94-2.08l23.8-13.83A2.27,2.27,0,0,1,48.58,25.51Z"/><path class="cls-5" d="M48.57,25.51h0L24.78,39.34h0Z"/><path class="cls-5" d="M43.05,19.69a7.11,7.11,0,0,0,3.23,5.59L22.47,39.12a7.11,7.11,0,0,1-3.23-5.59,2.27,2.27,0,0,1,.95-2.08L44,17.61A2.27,2.27,0,0,0,43.05,19.69Z"/><path d="M20.19,31.44,44,17.61a2.28,2.28,0,0,1,2.3.23L22.49,31.67A2.28,2.28,0,0,0,20.19,31.44Z"/><path d="M22.49,31.67,46.3,17.84a7.12,7.12,0,0,1,3.23,5.59L25.72,37.26A7.12,7.12,0,0,0,22.49,31.67Z"/><path class="cls-5" d="M52.77,25.3A7.12,7.12,0,0,0,56,30.89L32.19,44.73A7.12,7.12,0,0,1,29,39.14Z"/><path class="cls-5" d="M52.83,24.63a3.71,3.71,0,0,0-.06.67L29,39.14a3.71,3.71,0,0,1,.06-.67Z"/><path class="cls-5" d="M52.83,24.63,29,38.46a2.61,2.61,0,0,1,.2-.63L53,24A2.61,2.61,0,0,0,52.83,24.63Z"/><path class="cls-5" d="M53.27,23.61A2,2,0,0,0,53,24L29.22,37.83a2,2,0,0,1,.24-.39Z"/><path class="cls-5" d="M56,30.89a2.28,2.28,0,0,0,2.3.23L34.5,45a2.28,2.28,0,0,1-2.3-.23Z"/><path class="cls-5" d="M53.27,23.61a7.93,7.93,0,0,1-1.14.66l-1.21.7-2.53,1.47-4.87,2.83L29.46,37.45a1.6,1.6,0,0,1,.45-.39l23.8-13.83A1.6,1.6,0,0,0,53.27,23.61Z"/><path d="M58.3,31.12,34.5,45a2.27,2.27,0,0,0,.94-2.08L59.25,29A2.27,2.27,0,0,1,58.3,31.12Z"/><path d="M29.91,37.06l23.8-13.83a2.28,2.28,0,0,1,2.3.23L32.21,37.28A2.28,2.28,0,0,0,29.91,37.06Z"/><path d="M32.21,37.28,56,23.45A7.12,7.12,0,0,1,59.25,29L35.44,42.88A7.12,7.12,0,0,0,32.21,37.28Z"/><path class="cls-4" d="M216.17,244.47a2.16,2.16,0,0,1-.73.69L191.63,259a2.16,2.16,0,0,0,.73-.69Z"/><path class="cls-4" d="M216.58,242.91a2.78,2.78,0,0,1-.42,1.56l-23.8,13.83h0l23.77-13.81-23.77,13.81a2.78,2.78,0,0,0,.42-1.56Z"/><polygon class="cls-4" points="193.09 147.38 216.9 133.54 216.59 242.91 192.78 256.75 193.09 147.38"/><polygon points="193.09 147.38 216.9 133.54 218.89 134.7 195.09 148.53 193.09 147.38"/><path d="M220.31,134.83l-23.8,13.83a1.41,1.41,0,0,1-1.42-.14l23.8-13.83A1.41,1.41,0,0,0,220.31,134.83Z"/><polygon points="197.09 147.38 220.89 133.55 220.58 245.22 196.77 259.05 197.09 147.38"/><path d="M220.31,134.83l-23.8,13.83a1.4,1.4,0,0,0,.58-1.28l23.8-13.83A1.4,1.4,0,0,1,220.31,134.83Z"/><polygon points="193.1 142.79 216.91 128.95 218.91 130.11 195.1 143.94 193.1 142.79"/><polygon class="cls-5" points="193.14 130.19 216.94 116.36 216.91 128.95 193.1 142.79 193.14 130.19"/><polygon points="197.13 132.49 220.94 118.66 220.89 133.55 197.09 147.38 197.13 132.49"/><path d="M195.1,143.94l23.8-13.83a4.39,4.39,0,0,1,2,3.44l-23.8,13.83A4.39,4.39,0,0,0,195.1,143.94Z"/><polygon points="17.44 95.91 41.25 82.07 55.09 78.91 31.29 92.74 17.44 95.91"/><polygon class="cls-5" points="11.42 20.12 35.23 6.29 210.6 107.54 186.8 121.37 11.42 20.12"/><path class="cls-5" d="M216.54,114.32a5.82,5.82,0,0,1,.41,2l-23.8,13.83a5.82,5.82,0,0,0-.41-2l11.9-6.91Z"/><path class="cls-5" d="M210.6,107.54a14.81,14.81,0,0,1,4.67,4.4l-23.8,13.83a14.81,14.81,0,0,0-4.67-4.4Z"/><path class="cls-5" d="M215.28,111.94h0l-23.8,13.83h0l23.8-13.83Z"/><path class="cls-5" d="M216.54,114.32l-23.8,13.83a11.31,11.31,0,0,0-1.26-2.38l23.8-13.83A11.31,11.31,0,0,1,216.54,114.32Z"/><path class="cls-4" d="M5,38.79,4.7,148.16a5.81,5.81,0,0,0,.41,2,11.09,11.09,0,0,0,1.26,2.38A14.81,14.81,0,0,0,11,157L186.42,258.23a7.38,7.38,0,0,0,3.74,1.15,2.57,2.57,0,0,0,2.2-1.07,2.78,2.78,0,0,0,.42-1.56l.31-109.37ZM62.45,142.61l-7.18-4.15-4.34-28.55-3.22-1.86-.05,17.78a4.93,4.93,0,0,0,.57,2.51,5,5,0,0,0,1.85,1.76l.22.13a13,13,0,0,0,1.7.82l0,5.57a36.64,36.64,0,0,1-4-1.92l-.36-.22a13.2,13.2,0,0,1-3.11-2.5,10.64,10.64,0,0,1-2-3.08,16,16,0,0,1-1-3.4,22.35,22.35,0,0,1-.3-3.82l0-17.31-2.65-1.53V98l2.65,1.53,0-9.06,6.36,3.67,0,9.06,2.4,1.39,6.21,3.58,2.59,23.89,2.69-20.84,6.11,3.53-5.27,27.82m29.18,27L85.28,166l0-12.31a4.34,4.34,0,0,1-4.72-.07,11.71,11.71,0,0,1-4.92-5.52,23.29,23.29,0,0,1-1.59-9.45l0-9a29.25,29.25,0,0,1,.2-3.52,12.38,12.38,0,0,1,.67-2.78,4.63,4.63,0,0,1,1.2-1.88,2.58,2.58,0,0,1,1.85-.6,5.65,5.65,0,0,1,2.57.87A14.26,14.26,0,0,1,85.39,127v-2l6.34,3.66-.12,41m18.13.3-6.32-3.65v-2.89A6.61,6.61,0,0,1,97,163a7.73,7.73,0,0,1-3.34-3.86,13.76,13.76,0,0,1-1-5.34l.07-24.62L99,132.84,98.92,156a6.15,6.15,0,0,0,.38,2.36,3.11,3.11,0,0,0,1.43,1.5,3.66,3.66,0,0,0,2.72.27l.07-24.65,6.32,3.65-.09,30.82m49.59,13.57-10.6-6.12V182q0,1,0,1.51c0,.36,0,.81.08,1.33a6.87,6.87,0,0,0,.21,1.29,8.84,8.84,0,0,0,.39,1.07,3.23,3.23,0,0,0,.66,1,4.3,4.3,0,0,0,1,.73c.84.49,1.43.49,1.77,0a5.12,5.12,0,0,0,.51-2.69v-1.77l6,3.47v1.22q0,4.79-2.09,6.13t-6.18-1a16,16,0,0,1-6.6-6.73,18.17,18.17,0,0,1-1.4-4,3.45,3.45,0,0,1-2.08,2.78q-2.26.85-5.77-1.18a15.58,15.58,0,0,1-5.45-5.29,20.24,20.24,0,0,1-2.38-5.48q.09,2.76.45,6L122.05,177c-.34-2.21-.55-3.85-.64-4.9a4,4,0,0,1-1.9,2.48c-.88.45-2,.28-3.41-.52a11,11,0,0,1-4.15-4.68,13.32,13.32,0,0,1-1.6-6,9.7,9.7,0,0,1,.78-4.24,3.63,3.63,0,0,1,2.54-2,12.18,12.18,0,0,1,2.92-.4,33.36,33.36,0,0,1,3.56.33l1,.12v-2.58a10.32,10.32,0,0,0-.41-3.29,3.62,3.62,0,0,0-1.71-2q-2.1-1.21-2.16,2.14l-.1,1.87-6.07-3.76c0-.1,0-.3,0-.57s0-.45,0-.54q.31-4.68,2.52-5.66t6.31,1.38a14.86,14.86,0,0,1,5.87,5.87,16.86,16.86,0,0,1,1.89,8.1l0,13.82,4.31.69a17.42,17.42,0,0,0,1.39,4.67,5.69,5.69,0,0,0,2.26,2.57,1.55,1.55,0,0,0,1.64.13,1.7,1.7,0,0,0,.61-1.59q-.09-1.72-2.64-5.72l-3.59-5.62q-3.89-6.1-3.78-10.24c.05-2.44.79-4,2.21-4.63s3.22-.34,5.41.92a14,14,0,0,1,5.11,5.14,19.79,19.79,0,0,1,2.5,7,6.32,6.32,0,0,1,1.78-3.83q2-1.74,6.58.88a17.37,17.37,0,0,1,4,3.14,13.26,13.26,0,0,1,2.55,3.93,19.53,19.53,0,0,1,1.29,4.54,33.45,33.45,0,0,1,.37,5.39v4m22.27,13.67-13.89,3.09,0-6.79,9.21-2.27-9.17-12.8,0-6.82,13.83,19.14,0,6.45"/><polygon points="17.42 102.36 31.21 121.43 31.23 114.63 22.08 101.76 31.27 99.56 31.29 92.74 17.44 95.91 17.42 102.36"/><path d="M12.78,26.06A7.12,7.12,0,0,1,16,31.66c0,2.05-1.46,2.88-3.25,1.85a7.11,7.11,0,0,1-3.23-5.59C9.53,25.86,11,25,12.78,26.06Z"/><path d="M22.49,31.67a7.12,7.12,0,0,1,3.23,5.59c0,2.05-1.46,2.88-3.25,1.85a7.11,7.11,0,0,1-3.23-5.59C19.25,31.47,20.7,30.64,22.49,31.67Z"/><path d="M32.21,37.28a7.12,7.12,0,0,1,3.23,5.59c0,2.05-1.46,2.88-3.25,1.85A7.11,7.11,0,0,1,29,39.14C29,37.08,30.42,36.25,32.21,37.28Z"/><path d="M218.26,250l-23.8,13.83a4.21,4.21,0,0,0,1.41-1.34,6.31,6.31,0,0,0,.91-3.47l23.8-13.83a6.31,6.31,0,0,1-.91,3.47A4.21,4.21,0,0,1,218.26,250Z"/><path d="M195.1,143.94a4.39,4.39,0,0,1,2,3.44c0,1.27-.9,1.78-2,1.14l-2-1.15L5,38.79,3,37.63a4.39,4.39,0,0,1-2-3.45c0-1.26.9-1.78,2-1.14L5,34.2,193.1,142.79Z"/><path class="cls-5" d="M35.24,1.7C32.51.13,30-.35,28.1.25a4.54,4.54,0,0,0-.92.4L3.38,14.48a4.54,4.54,0,0,1,.92-.4c1.91-.59,4.41-.12,7.13,1.45L186.81,116.78,210.62,103Z"/><path class="cls-6" d="M35.24,9.58C32.51,8,30,7.54,28.1,8.13a4.54,4.54,0,0,0-.92.4L3.38,22.36A4.54,4.54,0,0,1,4.3,22c1.91-.59,4.41-.12,7.13,1.45L186.81,124.67l23.8-13.83Z"/><g class="cls-7"><path d="M29.82,3.38a8.07,8.07,0,0,1,3.74,1.24L203.93,103l-20.8,12.36L9.92,14.4l19-10.83.23-.1a2.41,2.41,0,0,1,.71-.09m0-3.38A5.76,5.76,0,0,0,28.1.25a4.55,4.55,0,0,0-.92.4L.06,16.14a4.56,4.56,0,0,1,.87-.37,5.76,5.76,0,0,1,1.71-.25,11.17,11.17,0,0,1,5.42,1.7l175.1,102.05L210.62,103,35.24,1.7A11.17,11.17,0,0,0,29.82,0ZM.06,16.14l-.06,0,.06,0Z"/></g><path d="M186.81,116.78,210.62,103a21.69,21.69,0,0,1,5.59,4.76,22,22,0,0,1,3.84,6.43,13.1,13.1,0,0,1,.89,4.51l-23.8,13.83a13.1,13.1,0,0,0-.89-4.51,22,22,0,0,0-3.84-6.43A21.69,21.69,0,0,0,186.81,116.78Z"/><path class="cls-5" d="M192.73,128.15a5.82,5.82,0,0,1,.41,2l0,12.6L5,34.2l0-12.6A2.77,2.77,0,0,1,5.48,20,2.57,2.57,0,0,1,7.68,19a7.38,7.38,0,0,1,3.74,1.15L186.8,121.37a14.81,14.81,0,0,1,4.67,4.4A11.31,11.31,0,0,1,192.73,128.15Zm-180-94.65c1.79,1,3.25.2,3.25-1.85a7.12,7.12,0,0,0-3.23-5.6c-1.79-1-3.24-.2-3.25,1.86a7.11,7.11,0,0,0,3.23,5.59m9.72,5.61c1.79,1,3.24.2,3.25-1.85a7.12,7.12,0,0,0-3.23-5.59c-1.79-1-3.24-.2-3.25,1.86a7.11,7.11,0,0,0,3.23,5.59m9.72,5.61c1.79,1,3.24.2,3.25-1.85a7.12,7.12,0,0,0-3.23-5.59c-1.79-1-3.24-.2-3.25,1.86a7.12,7.12,0,0,0,3.23,5.59"/><path d="M186.81,116.78a21.69,21.69,0,0,1,5.59,4.76,22,22,0,0,1,3.84,6.43,13.1,13.1,0,0,1,.89,4.51l0,14.89a4.39,4.39,0,0,0-2-3.44l-2-1.15,0-12.6a5.82,5.82,0,0,0-.41-2,11.31,11.31,0,0,0-1.26-2.38,14.8,14.8,0,0,0-4.66-4.39L11.43,20.12A7.38,7.38,0,0,0,7.68,19,2.57,2.57,0,0,0,5.48,20a2.77,2.77,0,0,0-.42,1.56L5,34.2,3,33c-1.1-.63-2-.12-2,1.14a4.39,4.39,0,0,0,2,3.45l2,1.15L4.7,148.16a5.82,5.82,0,0,0,.41,2,11.09,11.09,0,0,0,1.26,2.38A14.8,14.8,0,0,0,11,157L186.41,258.23a7.38,7.38,0,0,0,3.75,1.15,2.57,2.57,0,0,0,2.2-1.07,2.78,2.78,0,0,0,.42-1.56l.31-109.37,2,1.15c1.1.63,2,.12,2-1.14l-.32,111.67a6.31,6.31,0,0,1-.91,3.47,4.24,4.24,0,0,1-2.33,1.74c-1.91.59-4.41.12-7.13-1.45L11,161.56a21.67,21.67,0,0,1-5.59-4.76,22,22,0,0,1-3.84-6.43,13.14,13.14,0,0,1-.89-4.51L1.06,19.3A6.28,6.28,0,0,1,2,15.82,4.22,4.22,0,0,1,4.3,14.08c1.91-.59,4.41-.12,7.13,1.45Z"/></g></g></g></svg>