<svg xmlns="http://www.w3.org/2000/svg" xmlns:xlink="http://www.w3.org/1999/xlink" viewBox="0 0 243.38 268.15"><defs><style>.cls-1{fill:none;}.cls-2{fill:#16110d;}.cls-3{isolation:isolate;}.cls-4{fill:#fff;}.cls-5{fill:#ffbe2e;}.cls-6{fill:#fec;}.cls-7{clip-path:url(#clip-path);}</style><clipPath id="clip-path"><path class="cls-1" d="M35.24,1.7C32.51.13,30-.35,28.1.25a4.54,4.54,0,0,0-.92.4L3.38,14.48a4.54,4.54,0,0,1,.92-.4c1.91-.59,4.41-.12,7.13,1.45L186.81,116.78,210.62,103Z"/></clipPath></defs><title>Code Portfolio</title><g id="Layer_2" data-name="Layer 2"><g id="Code"><g id="_Group_" data-name="&lt;Group&gt;"><path id="_Path_" data-name="&lt;Path&gt;" class="cls-2" d="M97.17,207.91a.74.74,0,0,1,0,1.4,2.68,2.68,0,0,1-2.42,0,.74.74,0,0,1,0-1.4A2.67,2.67,0,0,1,97.17,207.91Z"/><path id="_Path_2" data-name="&lt;Path&gt;" class="cls-2" d="M103.53,204.32a.74.74,0,0,1,0,1.4,2.67,2.67,0,0,1-2.42,0,.74.74,0,0,1,0-1.4A2.68,2.68,0,0,1,103.53,204.32Z"/><path id="_Path_3" data-name="&lt;Path&gt;" class="cls-2" d="M109.9,200.73a.74.74,0,0,1,0,1.4,2.67,2.67,0,0,1-2.42,0,.74.74,0,0,1,0-1.4A2.68,2.68,0,0,1,109.9,200.73Z"/><path id="_Path_4" data-name="&lt;Path&gt;" class="cls-2" d="M116.26,197.13a.74.74,0,0,1,0,1.4,2.67,2.67,0,0,1-2.42,0,.74.74,0,0,1,0-1.4A2.67,2.67,0,0,1,116.26,197.13Z"/><path id="_Path_5" data-name="&lt;Path&gt;" class="cls-2" d="M122.62,193.54a.74.74,0,0,1,0,1.4,2.67,2.67,0,0,1-2.42,0,.74.74,0,0,1,0-1.4A2.67,2.67,0,0,1,122.62,193.54Z"/><path id="_Path_6" data-name="&lt;Path&gt;" class="cls-2" d="M129,189.95a.74.74,0,0,1,0,1.4,2.67,2.67,0,0,1-2.42,0,.74.74,0,0,1,0-1.4A2.68,2.68,0,0,1,129,189.95Z"/><path id="_Path_7" data-name="&lt;Path&gt;" class="cls-2" d="M135.35,186.36a.74.74,0,0,1,0,1.4,2.68,2.68,0,0,1-2.42,0,.74.74,0,0,1,0-1.4A2.68,2.68,0,0,1,135.35,186.36Z"/><path id="_Path_8" data-name="&lt;Path&gt;" class="cls-2" d="M141.71,182.76a.74.74,0,0,1,0,1.4,2.68,2.68,0,0,1-2.42,0,.74.74,0,0,1,0-1.4A2.67,2.67,0,0,1,141.71,182.76Z"/><path id="_Path_9" data-name="&lt;Path&gt;" class="cls-2" d="M90.88,204.2a.74.74,0,0,1,0,1.4,2.67,2.67,0,0,1-2.42,0,.74.74,0,0,1,0-1.4A2.68,2.68,0,0,1,90.88,204.2Z"/><path id="_Path_10" data-name="&lt;Path&gt;" class="cls-2" d="M97.24,200.6a.74.74,0,0,1,0,1.4,2.67,2.67,0,0,1-2.42,0,.74.74,0,0,1,0-1.4A2.68,2.68,0,0,1,97.24,200.6Z"/><path id="_Path_11" data-name="&lt;Path&gt;" class="cls-2" d="M103.6,197a.74.74,0,0,1,0,1.4,2.67,2.67,0,0,1-2.42,0,.74.74,0,0,1,0-1.4A2.67,2.67,0,0,1,103.6,197Z"/><path id="_Path_12" data-name="&lt;Path&gt;" class="cls-2" d="M110,193.42a.74.74,0,0,1,0,1.4,2.67,2.67,0,0,1-2.42,0,.74.74,0,0,1,0-1.4A2.67,2.67,0,0,1,110,193.42Z"/><path id="_Path_13" data-name="&lt;Path&gt;" class="cls-2" d="M116.33,189.83a.74.74,0,0,1,0,1.4,2.67,2.67,0,0,1-2.42,0,.74.74,0,0,1,0-1.4A2.68,2.68,0,0,1,116.33,189.83Z"/><path id="_Path_14" data-name="&lt;Path&gt;" class="cls-2" d="M122.69,186.23a.74.74,0,0,1,0,1.4,2.68,2.68,0,0,1-2.42,0,.74.74,0,0,1,0-1.4A2.67,2.67,0,0,1,122.69,186.23Z"/><path id="_Path_15" data-name="&lt;Path&gt;" class="cls-2" d="M129.05,182.64a.74.74,0,0,1,0,1.4,2.67,2.67,0,0,1-2.42,0,.74.74,0,0,1,0-1.4A2.67,2.67,0,0,1,129.05,182.64Z"/><path id="_Path_16" data-name="&lt;Path&gt;" class="cls-2" d="M135.42,179a.74.74,0,0,1,0,1.4,2.67,2.67,0,0,1-2.42,0,.74.74,0,0,1,0-1.4A2.67,2.67,0,0,1,135.42,179Z"/><path id="_Path_17" data-name="&lt;Path&gt;" class="cls-2" d="M84.59,200.48a.74.74,0,0,1,0,1.4,2.67,2.67,0,0,1-2.42,0,.74.74,0,0,1,0-1.4A2.68,2.68,0,0,1,84.59,200.48Z"/><path id="_Path_18" data-name="&lt;Path&gt;" class="cls-2" d="M90.95,196.89a.74.74,0,0,1,0,1.4,2.67,2.67,0,0,1-2.42,0,.74.74,0,0,1,0-1.4A2.67,2.67,0,0,1,90.95,196.89Z"/><path id="_Path_19" data-name="&lt;Path&gt;" class="cls-2" d="M97.31,193.3a.74.74,0,0,1,0,1.4,2.67,2.67,0,0,1-2.42,0,.74.74,0,0,1,0-1.4A2.68,2.68,0,0,1,97.31,193.3Z"/><path id="_Path_20" data-name="&lt;Path&gt;" class="cls-2" d="M103.67,189.71a.74.74,0,0,1,0,1.4,2.68,2.68,0,0,1-2.42,0,.74.74,0,0,1,0-1.4A2.68,2.68,0,0,1,103.67,189.71Z"/><path id="_Path_21" data-name="&lt;Path&gt;" class="cls-2" d="M110,186.11a.74.74,0,0,1,0,1.4,2.68,2.68,0,0,1-2.42,0,.74.74,0,0,1,0-1.4A2.67,2.67,0,0,1,110,186.11Z"/><path id="_Path_22" data-name="&lt;Path&gt;" class="cls-2" d="M116.4,182.52a.74.74,0,0,1,0,1.4,2.67,2.67,0,0,1-2.42,0,.74.74,0,0,1,0-1.4A2.67,2.67,0,0,1,116.4,182.52Z"/><path id="_Path_23" data-name="&lt;Path&gt;" class="cls-2" d="M122.76,178.93a.74.74,0,0,1,0,1.4,2.67,2.67,0,0,1-2.42,0,.74.74,0,0,1,0-1.4A2.67,2.67,0,0,1,122.76,178.93Z"/><path id="_Path_24" data-name="&lt;Path&gt;" class="cls-2" d="M129.12,175.34a.74.74,0,0,1,0,1.4,2.68,2.68,0,0,1-2.42,0,.74.74,0,0,1,0-1.4A2.67,2.67,0,0,1,129.12,175.34Z"/><path id="_Path_25" data-name="&lt;Path&gt;" class="cls-2" d="M78.29,196.77a.74.74,0,0,1,0,1.4,2.67,2.67,0,0,1-2.42,0,.74.74,0,0,1,0-1.4A2.67,2.67,0,0,1,78.29,196.77Z"/><path id="_Path_26" data-name="&lt;Path&gt;" class="cls-2" d="M84.66,193.18a.74.74,0,0,1,0,1.4,2.67,2.67,0,0,1-2.42,0,.74.74,0,0,1,0-1.4A2.68,2.68,0,0,1,84.66,193.18Z"/><path id="_Path_27" data-name="&lt;Path&gt;" class="cls-2" d="M91,189.58a.74.74,0,0,1,0,1.4,2.68,2.68,0,0,1-2.42,0,.74.74,0,0,1,0-1.4A2.68,2.68,0,0,1,91,189.58Z"/><path id="_Path_28" data-name="&lt;Path&gt;" class="cls-2" d="M97.38,186a.74.74,0,0,1,0,1.4,2.68,2.68,0,0,1-2.42,0,.74.74,0,0,1,0-1.4A2.67,2.67,0,0,1,97.38,186Z"/><path id="_Path_29" data-name="&lt;Path&gt;" class="cls-2" d="M103.74,182.4a.74.74,0,0,1,0,1.4,2.67,2.67,0,0,1-2.42,0,.74.74,0,0,1,0-1.4A2.67,2.67,0,0,1,103.74,182.4Z"/><path id="_Path_30" data-name="&lt;Path&gt;" class="cls-2" d="M110.11,178.81a.74.74,0,0,1,0,1.4,2.68,2.68,0,0,1-2.42,0,.74.74,0,0,1,0-1.4A2.67,2.67,0,0,1,110.11,178.81Z"/><path id="_Path_31" data-name="&lt;Path&gt;" class="cls-2" d="M116.47,175.21a.74.74,0,0,1,0,1.4,2.68,2.68,0,0,1-2.42,0,.74.74,0,0,1,0-1.4A2.67,2.67,0,0,1,116.47,175.21Z"/><path id="_Path_32" data-name="&lt;Path&gt;" class="cls-2" d="M122.83,171.62a.74.74,0,0,1,0,1.4,2.67,2.67,0,0,1-2.42,0,.74.74,0,0,1,0-1.4A2.67,2.67,0,0,1,122.83,171.62Z"/><path id="_Path_33" data-name="&lt;Path&gt;" class="cls-2" d="M72,193.05a.74.74,0,0,1,0,1.4,2.68,2.68,0,0,1-2.42,0,.74.74,0,0,1,0-1.4A2.68,2.68,0,0,1,72,193.05Z"/><path id="_Path_34" data-name="&lt;Path&gt;" class="cls-2" d="M78.36,189.46a.74.74,0,0,1,0,1.4,2.68,2.68,0,0,1-2.42,0,.74.74,0,0,1,0-1.4A2.67,2.67,0,0,1,78.36,189.46Z"/><path id="_Path_35" data-name="&lt;Path&gt;" class="cls-2" d="M84.73,185.87a.74.74,0,0,1,0,1.4,2.67,2.67,0,0,1-2.42,0,.74.74,0,0,1,0-1.4A2.67,2.67,0,0,1,84.73,185.87Z"/><path id="_Path_36" data-name="&lt;Path&gt;" class="cls-2" d="M91.09,182.28a.74.74,0,0,1,0,1.4,2.67,2.67,0,0,1-2.42,0,.74.74,0,0,1,0-1.4A2.67,2.67,0,0,1,91.09,182.28Z"/><path id="_Path_37" data-name="&lt;Path&gt;" class="cls-2" d="M97.45,178.68a.74.74,0,0,1,0,1.4,2.68,2.68,0,0,1-2.42,0,.74.74,0,0,1,0-1.4A2.67,2.67,0,0,1,97.45,178.68Z"/><path id="_Path_38" data-name="&lt;Path&gt;" class="cls-2" d="M103.81,175.09a.74.74,0,0,1,0,1.4,2.68,2.68,0,0,1-2.42,0,.74.74,0,0,1,0-1.4A2.67,2.67,0,0,1,103.81,175.09Z"/><path id="_Path_39" data-name="&lt;Path&gt;" class="cls-2" d="M110.18,171.5a.74.74,0,0,1,0,1.4,2.67,2.67,0,0,1-2.42,0,.74.74,0,0,1,0-1.4A2.68,2.68,0,0,1,110.18,171.5Z"/><path id="_Path_40" data-name="&lt;Path&gt;" class="cls-2" d="M116.54,167.91a.74.74,0,0,1,0,1.4,2.67,2.67,0,0,1-2.42,0,.74.74,0,0,1,0-1.4A2.68,2.68,0,0,1,116.54,167.91Z"/><path id="_Path_41" data-name="&lt;Path&gt;" class="cls-2" d="M65.65,189.3a.74.74,0,0,1,0,1.4,2.67,2.67,0,0,1-2.42,0,.74.74,0,0,1,0-1.4A2.68,2.68,0,0,1,65.65,189.3Z"/><path id="_Path_42" data-name="&lt;Path&gt;" class="cls-2" d="M72,185.71a.74.74,0,0,1,0,1.4,2.67,2.67,0,0,1-2.42,0,.74.74,0,0,1,0-1.4A2.68,2.68,0,0,1,72,185.71Z"/><path id="_Path_43" data-name="&lt;Path&gt;" class="cls-2" d="M78.38,182.12a.74.74,0,0,1,0,1.4,2.67,2.67,0,0,1-2.42,0,.74.74,0,0,1,0-1.4A2.67,2.67,0,0,1,78.38,182.12Z"/><path id="_Path_44" data-name="&lt;Path&gt;" class="cls-2" d="M84.74,178.52a.74.74,0,0,1,0,1.4,2.67,2.67,0,0,1-2.42,0,.74.74,0,0,1,0-1.4A2.67,2.67,0,0,1,84.74,178.52Z"/><path id="_Path_45" data-name="&lt;Path&gt;" class="cls-2" d="M91.1,174.93a.74.74,0,0,1,0,1.4,2.67,2.67,0,0,1-2.42,0,.74.74,0,0,1,0-1.4A2.68,2.68,0,0,1,91.1,174.93Z"/><path id="_Path_46" data-name="&lt;Path&gt;" class="cls-2" d="M97.47,171.34a.74.74,0,0,1,0,1.4,2.68,2.68,0,0,1-2.42,0,.74.74,0,0,1,0-1.4A2.68,2.68,0,0,1,97.47,171.34Z"/><path id="_Path_47" data-name="&lt;Path&gt;" class="cls-2" d="M103.83,167.75a.74.74,0,0,1,0,1.4,2.68,2.68,0,0,1-2.42,0,.74.74,0,0,1,0-1.4A2.67,2.67,0,0,1,103.83,167.75Z"/><path id="_Path_48" data-name="&lt;Path&gt;" class="cls-2" d="M110.19,164.15a.74.74,0,0,1,0,1.4,2.67,2.67,0,0,1-2.42,0,.74.74,0,0,1,0-1.4A2.67,2.67,0,0,1,110.19,164.15Z"/><path id="_Path_49" data-name="&lt;Path&gt;" class="cls-2" d="M59.36,185.59a.74.74,0,0,1,0,1.4,2.67,2.67,0,0,1-2.42,0,.74.74,0,0,1,0-1.4A2.68,2.68,0,0,1,59.36,185.59Z"/><path id="_Path_50" data-name="&lt;Path&gt;" class="cls-2" d="M65.72,182a.74.74,0,0,1,0,1.4,2.67,2.67,0,0,1-2.42,0,.74.74,0,0,1,0-1.4A2.67,2.67,0,0,1,65.72,182Z"/><path id="_Path_51" data-name="&lt;Path&gt;" class="cls-2" d="M72.09,178.4a.74.74,0,0,1,0,1.4,2.67,2.67,0,0,1-2.42,0,.74.74,0,0,1,0-1.4A2.67,2.67,0,0,1,72.09,178.4Z"/><path id="_Path_52" data-name="&lt;Path&gt;" class="cls-2" d="M78.45,174.81a.74.74,0,0,1,0,1.4,2.67,2.67,0,0,1-2.42,0,.74.74,0,0,1,0-1.4A2.68,2.68,0,0,1,78.45,174.81Z"/><path id="_Path_53" data-name="&lt;Path&gt;" class="cls-2" d="M84.81,171.22a.74.74,0,0,1,0,1.4,2.68,2.68,0,0,1-2.42,0,.74.74,0,0,1,0-1.4A2.68,2.68,0,0,1,84.81,171.22Z"/><path id="_Path_54" data-name="&lt;Path&gt;" class="cls-2" d="M91.17,167.63a.74.74,0,0,1,0,1.4,2.68,2.68,0,0,1-2.42,0,.74.74,0,0,1,0-1.4A2.67,2.67,0,0,1,91.17,167.63Z"/><path id="_Path_55" data-name="&lt;Path&gt;" class="cls-2" d="M97.54,164a.74.74,0,0,1,0,1.4,2.67,2.67,0,0,1-2.42,0,.74.74,0,0,1,0-1.4A2.67,2.67,0,0,1,97.54,164Z"/><path id="_Path_56" data-name="&lt;Path&gt;" class="cls-2" d="M103.9,160.44a.74.74,0,0,1,0,1.4,2.68,2.68,0,0,1-2.42,0,.74.74,0,0,1,0-1.4A2.67,2.67,0,0,1,103.9,160.44Z"/><path id="_Path_57" data-name="&lt;Path&gt;" class="cls-2" d="M53.07,181.87a.74.74,0,0,1,0,1.4,2.67,2.67,0,0,1-2.42,0,.74.74,0,0,1,0-1.4A2.67,2.67,0,0,1,53.07,181.87Z"/><path id="_Path_58" data-name="&lt;Path&gt;" class="cls-2" d="M59.43,178.28a.74.74,0,0,1,0,1.4,2.67,2.67,0,0,1-2.42,0,.74.74,0,0,1,0-1.4A2.68,2.68,0,0,1,59.43,178.28Z"/><path id="_Path_59" data-name="&lt;Path&gt;" class="cls-2" d="M65.79,174.69a.74.74,0,0,1,0,1.4,2.68,2.68,0,0,1-2.42,0,.74.74,0,0,1,0-1.4A2.68,2.68,0,0,1,65.79,174.69Z"/><path id="_Path_60" data-name="&lt;Path&gt;" class="cls-2" d="M72.16,171.1a.74.74,0,0,1,0,1.4,2.68,2.68,0,0,1-2.42,0,.74.74,0,0,1,0-1.4A2.67,2.67,0,0,1,72.16,171.1Z"/><path id="_Path_61" data-name="&lt;Path&gt;" class="cls-2" d="M78.52,167.5a.74.74,0,0,1,0,1.4,2.67,2.67,0,0,1-2.42,0,.74.74,0,0,1,0-1.4A2.67,2.67,0,0,1,78.52,167.5Z"/><path id="_Path_62" data-name="&lt;Path&gt;" class="cls-2" d="M84.88,163.91a.74.74,0,0,1,0,1.4,2.67,2.67,0,0,1-2.42,0,.74.74,0,0,1,0-1.4A2.67,2.67,0,0,1,84.88,163.91Z"/><path id="_Path_63" data-name="&lt;Path&gt;" class="cls-2" d="M91.24,160.32a.74.74,0,0,1,0,1.4,2.68,2.68,0,0,1-2.42,0,.74.74,0,0,1,0-1.4A2.67,2.67,0,0,1,91.24,160.32Z"/><path id="_Path_64" data-name="&lt;Path&gt;" class="cls-2" d="M97.61,156.73a.74.74,0,0,1,0,1.4,2.68,2.68,0,0,1-2.42,0,.74.74,0,0,1,0-1.4A2.67,2.67,0,0,1,97.61,156.73Z"/><path id="_Path_65" data-name="&lt;Path&gt;" class="cls-2" d="M46.78,178.16a.74.74,0,0,1,0,1.4,2.67,2.67,0,0,1-2.42,0,.74.74,0,0,1,0-1.4A2.68,2.68,0,0,1,46.78,178.16Z"/><path id="_Path_66" data-name="&lt;Path&gt;" class="cls-2" d="M53.14,174.57a.74.74,0,0,1,0,1.4,2.68,2.68,0,0,1-2.42,0,.74.74,0,0,1,0-1.4A2.68,2.68,0,0,1,53.14,174.57Z"/><path id="_Path_67" data-name="&lt;Path&gt;" class="cls-2" d="M59.5,171a.74.74,0,0,1,0,1.4,2.68,2.68,0,0,1-2.42,0,.74.74,0,0,1,0-1.4A2.67,2.67,0,0,1,59.5,171Z"/><path id="_Path_68" data-name="&lt;Path&gt;" class="cls-2" d="M65.86,167.38a.74.74,0,0,1,0,1.4,2.67,2.67,0,0,1-2.42,0,.74.74,0,0,1,0-1.4A2.67,2.67,0,0,1,65.86,167.38Z"/><path id="_Path_69" data-name="&lt;Path&gt;" class="cls-2" d="M72.23,163.79a.74.74,0,0,1,0,1.4,2.68,2.68,0,0,1-2.42,0,.74.74,0,0,1,0-1.4A2.67,2.67,0,0,1,72.23,163.79Z"/><path id="_Path_70" data-name="&lt;Path&gt;" class="cls-2" d="M78.59,160.2a.74.74,0,0,1,0,1.4,2.68,2.68,0,0,1-2.42,0,.74.74,0,0,1,0-1.4A2.67,2.67,0,0,1,78.59,160.2Z"/><path id="_Path_71" data-name="&lt;Path&gt;" class="cls-2" d="M85,156.6a.74.74,0,0,1,0,1.4,2.67,2.67,0,0,1-2.42,0,.74.74,0,0,1,0-1.4A2.67,2.67,0,0,1,85,156.6Z"/><path id="_Path_72" data-name="&lt;Path&gt;" class="cls-2" d="M91.32,153a.74.74,0,0,1,0,1.4,2.67,2.67,0,0,1-2.42,0,.74.74,0,0,1,0-1.4A2.68,2.68,0,0,1,91.32,153Z"/><path id="_Path_73" data-name="&lt;Path&gt;" class="cls-2" d="M40.48,174.45a.74.74,0,0,1,0,1.4,2.68,2.68,0,0,1-2.42,0,.74.74,0,0,1,0-1.4A2.67,2.67,0,0,1,40.48,174.45Z"/><path id="_Path_74" data-name="&lt;Path&gt;" class="cls-2" d="M46.85,170.85a.74.74,0,0,1,0,1.4,2.67,2.67,0,0,1-2.42,0,.74.74,0,0,1,0-1.4A2.67,2.67,0,0,1,46.85,170.85Z"/><path id="_Path_75" data-name="&lt;Path&gt;" class="cls-2" d="M53.21,167.26a.74.74,0,0,1,0,1.4,2.67,2.67,0,0,1-2.42,0,.74.74,0,0,1,0-1.4A2.67,2.67,0,0,1,53.21,167.26Z"/><path id="_Path_76" data-name="&lt;Path&gt;" class="cls-2" d="M59.57,163.67a.74.74,0,0,1,0,1.4,2.68,2.68,0,0,1-2.42,0,.74.74,0,0,1,0-1.4A2.67,2.67,0,0,1,59.57,163.67Z"/><path id="_Path_77" data-name="&lt;Path&gt;" class="cls-2" d="M65.93,160.08a.74.74,0,0,1,0,1.4,2.68,2.68,0,0,1-2.42,0,.74.74,0,0,1,0-1.4A2.67,2.67,0,0,1,65.93,160.08Z"/><path id="_Path_78" data-name="&lt;Path&gt;" class="cls-2" d="M72.3,156.48a.74.74,0,0,1,0,1.4,2.67,2.67,0,0,1-2.42,0,.74.74,0,0,1,0-1.4A2.67,2.67,0,0,1,72.3,156.48Z"/><path id="_Path_79" data-name="&lt;Path&gt;" class="cls-2" d="M78.66,152.89a.74.74,0,0,1,0,1.4,2.67,2.67,0,0,1-2.42,0,.74.74,0,0,1,0-1.4A2.68,2.68,0,0,1,78.66,152.89Z"/><path id="_Path_80" data-name="&lt;Path&gt;" class="cls-2" d="M85,149.3a.74.74,0,0,1,0,1.4,2.67,2.67,0,0,1-2.42,0,.74.74,0,0,1,0-1.4A2.68,2.68,0,0,1,85,149.3Z"/><path id="_Path_81" data-name="&lt;Path&gt;" class="cls-2" d="M34.19,170.73a.74.74,0,0,1,0,1.4,2.67,2.67,0,0,1-2.42,0,.74.74,0,0,1,0-1.4A2.67,2.67,0,0,1,34.19,170.73Z"/><path id="_Path_82" data-name="&lt;Path&gt;" class="cls-2" d="M40.55,167.14a.74.74,0,0,1,0,1.4,2.67,2.67,0,0,1-2.42,0,.74.74,0,0,1,0-1.4A2.67,2.67,0,0,1,40.55,167.14Z"/><path id="_Path_83" data-name="&lt;Path&gt;" class="cls-2" d="M46.92,163.55a.74.74,0,0,1,0,1.4,2.68,2.68,0,0,1-2.42,0,.74.74,0,0,1,0-1.4A2.67,2.67,0,0,1,46.92,163.55Z"/><path id="_Path_84" data-name="&lt;Path&gt;" class="cls-2" d="M53.28,160a.74.74,0,0,1,0,1.4,2.67,2.67,0,0,1-2.42,0,.74.74,0,0,1,0-1.4A2.67,2.67,0,0,1,53.28,160Z"/><path id="_Path_85" data-name="&lt;Path&gt;" class="cls-2" d="M59.64,156.36a.74.74,0,0,1,0,1.4,2.67,2.67,0,0,1-2.42,0,.74.74,0,0,1,0-1.4A2.68,2.68,0,0,1,59.64,156.36Z"/><path id="_Path_86" data-name="&lt;Path&gt;" class="cls-2" d="M66,152.77a.74.74,0,0,1,0,1.4,2.67,2.67,0,0,1-2.42,0,.74.74,0,0,1,0-1.4A2.68,2.68,0,0,1,66,152.77Z"/><path id="_Path_87" data-name="&lt;Path&gt;" class="cls-2" d="M72.37,149.18a.74.74,0,0,1,0,1.4,2.67,2.67,0,0,1-2.42,0,.74.74,0,0,1,0-1.4A2.67,2.67,0,0,1,72.37,149.18Z"/><path id="_Path_88" data-name="&lt;Path&gt;" class="cls-2" d="M78.73,145.58a.74.74,0,0,1,0,1.4,2.67,2.67,0,0,1-2.42,0,.74.74,0,0,1,0-1.4A2.67,2.67,0,0,1,78.73,145.58Z"/><path id="_Path_89" data-name="&lt;Path&gt;" class="cls-2" d="M27.9,167a.74.74,0,0,1,0,1.4,2.68,2.68,0,0,1-2.42,0,.74.74,0,0,1,0-1.4A2.67,2.67,0,0,1,27.9,167Z"/><path id="_Path_90" data-name="&lt;Path&gt;" class="cls-2" d="M34.26,163.42a.74.74,0,0,1,0,1.4,2.68,2.68,0,0,1-2.42,0,.74.74,0,0,1,0-1.4A2.67,2.67,0,0,1,34.26,163.42Z"/><path id="_Path_91" data-name="&lt;Path&gt;" class="cls-2" d="M40.62,159.83a.74.74,0,0,1,0,1.4,2.67,2.67,0,0,1-2.42,0,.74.74,0,0,1,0-1.4A2.67,2.67,0,0,1,40.62,159.83Z"/><path id="_Path_92" data-name="&lt;Path&gt;" class="cls-2" d="M47,156.24a.74.74,0,0,1,0,1.4,2.67,2.67,0,0,1-2.42,0,.74.74,0,0,1,0-1.4A2.68,2.68,0,0,1,47,156.24Z"/><path id="_Path_93" data-name="&lt;Path&gt;" class="cls-2" d="M53.35,152.65a.74.74,0,0,1,0,1.4,2.67,2.67,0,0,1-2.42,0,.74.74,0,0,1,0-1.4A2.68,2.68,0,0,1,53.35,152.65Z"/><path id="_Path_94" data-name="&lt;Path&gt;" class="cls-2" d="M59.71,149.06a.74.74,0,0,1,0,1.4,2.67,2.67,0,0,1-2.42,0,.74.74,0,0,1,0-1.4A2.67,2.67,0,0,1,59.71,149.06Z"/><path id="_Path_95" data-name="&lt;Path&gt;" class="cls-2" d="M66.08,145.46a.74.74,0,0,1,0,1.4,2.67,2.67,0,0,1-2.42,0,.74.74,0,0,1,0-1.4A2.68,2.68,0,0,1,66.08,145.46Z"/><path id="_Path_96" data-name="&lt;Path&gt;" class="cls-2" d="M72.44,141.87a.74.74,0,0,1,0,1.4,2.68,2.68,0,0,1-2.42,0,.74.74,0,0,1,0-1.4A2.68,2.68,0,0,1,72.44,141.87Z"/><path id="_Path_97" data-name="&lt;Path&gt;" class="cls-2" d="M21.61,163.3a.74.74,0,0,1,0,1.4,2.68,2.68,0,0,1-2.42,0,.74.74,0,0,1,0-1.4A2.67,2.67,0,0,1,21.61,163.3Z"/><path id="_Path_98" data-name="&lt;Path&gt;" class="cls-2" d="M28,159.71a.74.74,0,0,1,0,1.4,2.67,2.67,0,0,1-2.42,0,.74.74,0,0,1,0-1.4A2.68,2.68,0,0,1,28,159.71Z"/><path id="_Path_99" data-name="&lt;Path&gt;" class="cls-2" d="M34.33,156.12a.74.74,0,0,1,0,1.4,2.67,2.67,0,0,1-2.42,0,.74.74,0,0,1,0-1.4A2.68,2.68,0,0,1,34.33,156.12Z"/><path id="_Path_100" data-name="&lt;Path&gt;" class="cls-2" d="M40.69,152.53a.74.74,0,0,1,0,1.4,2.67,2.67,0,0,1-2.42,0,.74.74,0,0,1,0-1.4A2.67,2.67,0,0,1,40.69,152.53Z"/><path id="_Path_101" data-name="&lt;Path&gt;" class="cls-2" d="M47.06,148.93a.74.74,0,0,1,0,1.4,2.67,2.67,0,0,1-2.42,0,.74.74,0,0,1,0-1.4A2.67,2.67,0,0,1,47.06,148.93Z"/><path id="_Path_102" data-name="&lt;Path&gt;" class="cls-2" d="M53.42,145.34a.74.74,0,0,1,0,1.4,2.67,2.67,0,0,1-2.42,0,.74.74,0,0,1,0-1.4A2.68,2.68,0,0,1,53.42,145.34Z"/><path id="_Path_103" data-name="&lt;Path&gt;" class="cls-2" d="M59.78,141.75a.74.74,0,0,1,0,1.4,2.68,2.68,0,0,1-2.42,0,.74.74,0,0,1,0-1.4A2.68,2.68,0,0,1,59.78,141.75Z"/><path id="_Path_104" data-name="&lt;Path&gt;" class="cls-2" d="M66.15,138.16a.74.74,0,0,1,0,1.4,2.68,2.68,0,0,1-2.42,0,.74.74,0,0,1,0-1.4A2.67,2.67,0,0,1,66.15,138.16Z"/><path id="_Path_105" data-name="&lt;Path&gt;" class="cls-2" d="M15.26,159.55a.74.74,0,0,1,0,1.4,2.68,2.68,0,0,1-2.42,0,.74.74,0,0,1,0-1.4A2.68,2.68,0,0,1,15.26,159.55Z"/><path id="_Path_106" data-name="&lt;Path&gt;" class="cls-2" d="M21.62,156a.74.74,0,0,1,0,1.4,2.68,2.68,0,0,1-2.42,0,.74.74,0,0,1,0-1.4A2.67,2.67,0,0,1,21.62,156Z"/><path id="_Path_107" data-name="&lt;Path&gt;" class="cls-2" d="M28,152.37a.74.74,0,0,1,0,1.4,2.67,2.67,0,0,1-2.42,0,.74.74,0,0,1,0-1.4A2.67,2.67,0,0,1,28,152.37Z"/><path id="_Path_108" data-name="&lt;Path&gt;" class="cls-2" d="M34.35,148.77a.74.74,0,0,1,0,1.4,2.68,2.68,0,0,1-2.42,0,.74.74,0,0,1,0-1.4A2.67,2.67,0,0,1,34.35,148.77Z"/><path id="_Path_109" data-name="&lt;Path&gt;" class="cls-2" d="M40.71,145.18a.74.74,0,0,1,0,1.4,2.68,2.68,0,0,1-2.42,0,.74.74,0,0,1,0-1.4A2.67,2.67,0,0,1,40.71,145.18Z"/><path id="_Path_110" data-name="&lt;Path&gt;" class="cls-2" d="M47.07,141.59a.74.74,0,0,1,0,1.4,2.67,2.67,0,0,1-2.42,0,.74.74,0,0,1,0-1.4A2.67,2.67,0,0,1,47.07,141.59Z"/><path id="_Path_111" data-name="&lt;Path&gt;" class="cls-2" d="M53.44,138a.74.74,0,0,1,0,1.4,2.67,2.67,0,0,1-2.42,0,.74.74,0,0,1,0-1.4A2.68,2.68,0,0,1,53.44,138Z"/><path id="_Path_112" data-name="&lt;Path&gt;" class="cls-2" d="M59.8,134.4a.74.74,0,0,1,0,1.4,2.67,2.67,0,0,1-2.42,0,.74.74,0,0,1,0-1.4A2.68,2.68,0,0,1,59.8,134.4Z"/><path id="_Path_113" data-name="&lt;Path&gt;" class="cls-2" d="M9,155.84a.74.74,0,0,1,0,1.4,2.67,2.67,0,0,1-2.42,0,.74.74,0,0,1,0-1.4A2.67,2.67,0,0,1,9,155.84Z"/><path id="_Path_114" data-name="&lt;Path&gt;" class="cls-2" d="M15.33,152.24a.74.74,0,0,1,0,1.4,2.67,2.67,0,0,1-2.42,0,.74.74,0,0,1,0-1.4A2.67,2.67,0,0,1,15.33,152.24Z"/><path id="_Path_115" data-name="&lt;Path&gt;" class="cls-2" d="M21.69,148.65a.74.74,0,0,1,0,1.4,2.68,2.68,0,0,1-2.42,0,.74.74,0,0,1,0-1.4A2.67,2.67,0,0,1,21.69,148.65Z"/><path id="_Path_116" data-name="&lt;Path&gt;" class="cls-2" d="M28.05,145.06a.74.74,0,0,1,0,1.4,2.68,2.68,0,0,1-2.42,0,.74.74,0,0,1,0-1.4A2.67,2.67,0,0,1,28.05,145.06Z"/><path id="_Path_117" data-name="&lt;Path&gt;" class="cls-2" d="M34.42,141.47a.74.74,0,0,1,0,1.4,2.67,2.67,0,0,1-2.42,0,.74.74,0,0,1,0-1.4A2.67,2.67,0,0,1,34.42,141.47Z"/><path id="_Path_118" data-name="&lt;Path&gt;" class="cls-2" d="M40.78,137.87a.74.74,0,0,1,0,1.4,2.67,2.67,0,0,1-2.42,0,.74.74,0,0,1,0-1.4A2.68,2.68,0,0,1,40.78,137.87Z"/><path id="_Path_119" data-name="&lt;Path&gt;" class="cls-2" d="M47.14,134.28a.74.74,0,0,1,0,1.4,2.67,2.67,0,0,1-2.42,0,.74.74,0,0,1,0-1.4A2.68,2.68,0,0,1,47.14,134.28Z"/><path id="_Path_120" data-name="&lt;Path&gt;" class="cls-2" d="M53.51,130.69a.74.74,0,0,1,0,1.4,2.67,2.67,0,0,1-2.42,0,.74.74,0,0,1,0-1.4A2.67,2.67,0,0,1,53.51,130.69Z"/><path id="_Path_121" data-name="&lt;Path&gt;" class="cls-2" d="M9,148.53a.74.74,0,0,1,0,1.4,2.68,2.68,0,0,1-2.42,0,.74.74,0,0,1,0-1.4A2.67,2.67,0,0,1,9,148.53Z"/><path id="_Path_122" data-name="&lt;Path&gt;" class="cls-2" d="M15.4,144.94a.74.74,0,0,1,0,1.4,2.68,2.68,0,0,1-2.42,0,.74.74,0,0,1,0-1.4A2.67,2.67,0,0,1,15.4,144.94Z"/><path id="_Path_123" data-name="&lt;Path&gt;" class="cls-2" d="M21.76,141.34a.74.74,0,0,1,0,1.4,2.67,2.67,0,0,1-2.42,0,.74.74,0,0,1,0-1.4A2.68,2.68,0,0,1,21.76,141.34Z"/><path id="_Path_124" data-name="&lt;Path&gt;" class="cls-2" d="M28.13,137.75a.74.74,0,0,1,0,1.4,2.67,2.67,0,0,1-2.42,0,.74.74,0,0,1,0-1.4A2.68,2.68,0,0,1,28.13,137.75Z"/><path id="_Path_125" data-name="&lt;Path&gt;" class="cls-2" d="M34.49,134.16a.74.74,0,0,1,0,1.4,2.67,2.67,0,0,1-2.42,0,.74.74,0,0,1,0-1.4A2.67,2.67,0,0,1,34.49,134.16Z"/><path id="_Path_126" data-name="&lt;Path&gt;" class="cls-2" d="M40.85,130.57a.74.74,0,0,1,0,1.4,2.67,2.67,0,0,1-2.42,0,.74.74,0,0,1,0-1.4A2.67,2.67,0,0,1,40.85,130.57Z"/><path id="_Path_127" data-name="&lt;Path&gt;" class="cls-2" d="M116.37,211.16a.74.74,0,0,1,0,1.4,2.68,2.68,0,0,1-2.42,0,.74.74,0,0,1,0-1.4A2.67,2.67,0,0,1,116.37,211.16Z"/><path id="_Path_128" data-name="&lt;Path&gt;" class="cls-2" d="M122.73,207.57a.74.74,0,0,1,0,1.4,2.67,2.67,0,0,1-2.42,0,.74.74,0,0,1,0-1.4A2.67,2.67,0,0,1,122.73,207.57Z"/><path id="_Path_129" data-name="&lt;Path&gt;" class="cls-2" d="M129.1,204a.74.74,0,0,1,0,1.4,2.68,2.68,0,0,1-2.42,0,.74.74,0,0,1,0-1.4A2.67,2.67,0,0,1,129.1,204Z"/><path id="_Path_130" data-name="&lt;Path&gt;" class="cls-2" d="M135.46,200.39a.74.74,0,0,1,0,1.4,2.68,2.68,0,0,1-2.42,0,.74.74,0,0,1,0-1.4A2.67,2.67,0,0,1,135.46,200.39Z"/><path id="_Path_131" data-name="&lt;Path&gt;" class="cls-2" d="M141.82,196.79a.74.74,0,0,1,0,1.4,2.67,2.67,0,0,1-2.42,0,.74.74,0,0,1,0-1.4A2.67,2.67,0,0,1,141.82,196.79Z"/><path id="_Path_132" data-name="&lt;Path&gt;" class="cls-2" d="M103.72,211a.74.74,0,0,1,0,1.4,2.67,2.67,0,0,1-2.42,0,.74.74,0,0,1,0-1.4A2.67,2.67,0,0,1,103.72,211Z"/><path id="_Path_133" data-name="&lt;Path&gt;" class="cls-2" d="M110.08,207.45a.74.74,0,0,1,0,1.4,2.67,2.67,0,0,1-2.42,0,.74.74,0,0,1,0-1.4A2.67,2.67,0,0,1,110.08,207.45Z"/><path id="_Path_134" data-name="&lt;Path&gt;" class="cls-2" d="M116.44,203.86a.74.74,0,0,1,0,1.4,2.68,2.68,0,0,1-2.42,0,.74.74,0,0,1,0-1.4A2.67,2.67,0,0,1,116.44,203.86Z"/><path id="_Path_135" data-name="&lt;Path&gt;" class="cls-2" d="M122.8,200.27a.74.74,0,0,1,0,1.4,2.68,2.68,0,0,1-2.42,0,.74.74,0,0,1,0-1.4A2.67,2.67,0,0,1,122.8,200.27Z"/><path id="_Path_136" data-name="&lt;Path&gt;" class="cls-2" d="M129.17,196.67a.74.74,0,0,1,0,1.4,2.67,2.67,0,0,1-2.42,0,.74.74,0,0,1,0-1.4A2.68,2.68,0,0,1,129.17,196.67Z"/><path id="_Path_137" data-name="&lt;Path&gt;" class="cls-2" d="M135.53,193.08a.74.74,0,0,1,0,1.4,2.67,2.67,0,0,1-2.42,0,.74.74,0,0,1,0-1.4A2.68,2.68,0,0,1,135.53,193.08Z"/><path id="_Path_138" data-name="&lt;Path&gt;" class="cls-2" d="M141.89,189.49a.74.74,0,0,1,0,1.4,2.67,2.67,0,0,1-2.42,0,.74.74,0,0,1,0-1.4A2.67,2.67,0,0,1,141.89,189.49Z"/><path id="_Path_139" data-name="&lt;Path&gt;" class="cls-2" d="M148,186.5a.74.74,0,0,1,0,1.4,2.68,2.68,0,0,1-2.42,0,.74.74,0,0,1,0-1.4A2.68,2.68,0,0,1,148,186.5Z"/><path id="_Path_140" data-name="&lt;Path&gt;" class="cls-2" d="M148.18,193.22a.74.74,0,0,1,0,1.4,2.67,2.67,0,0,1-2.42,0,.74.74,0,0,1,0-1.4A2.68,2.68,0,0,1,148.18,193.22Z"/></g><g id="_Group_2" data-name="&lt;Group&gt;"><path id="_Path_141" data-name="&lt;Path&gt;" class="cls-2" d="M191.87,263.22a.74.74,0,0,1,0,1.4,2.68,2.68,0,0,1-2.42,0,.74.74,0,0,1,0-1.4A2.67,2.67,0,0,1,191.87,263.22Z"/><path id="_Path_142" data-name="&lt;Path&gt;" class="cls-2" d="M198.23,259.63a.74.74,0,0,1,0,1.4,2.67,2.67,0,0,1-2.42,0,.74.74,0,0,1,0-1.4A2.68,2.68,0,0,1,198.23,259.63Z"/><path id="_Path_143" data-name="&lt;Path&gt;" class="cls-2" d="M204.59,256a.74.74,0,0,1,0,1.4,2.67,2.67,0,0,1-2.42,0,.74.74,0,0,1,0-1.4A2.68,2.68,0,0,1,204.59,256Z"/><path id="_Path_144" data-name="&lt;Path&gt;" class="cls-2" d="M211,252.44a.74.74,0,0,1,0,1.4,2.67,2.67,0,0,1-2.42,0,.74.74,0,0,1,0-1.4A2.67,2.67,0,0,1,211,252.44Z"/><path id="_Path_145" data-name="&lt;Path&gt;" class="cls-2" d="M217.32,248.85a.74.74,0,0,1,0,1.4,2.67,2.67,0,0,1-2.42,0,.74.74,0,0,1,0-1.4A2.67,2.67,0,0,1,217.32,248.85Z"/><path id="_Path_146" data-name="&lt;Path&gt;" class="cls-2" d="M223.68,245.26a.74.74,0,0,1,0,1.4,2.67,2.67,0,0,1-2.42,0,.74.74,0,0,1,0-1.4A2.68,2.68,0,0,1,223.68,245.26Z"/><path id="_Path_147" data-name="&lt;Path&gt;" class="cls-2" d="M230,241.67a.74.74,0,0,1,0,1.4,2.68,2.68,0,0,1-2.42,0,.74.74,0,0,1,0-1.4A2.68,2.68,0,0,1,230,241.67Z"/><path id="_Path_148" data-name="&lt;Path&gt;" class="cls-2" d="M236.41,238.07a.74.74,0,0,1,0,1.4,2.68,2.68,0,0,1-2.42,0,.74.74,0,0,1,0-1.4A2.67,2.67,0,0,1,236.41,238.07Z"/><path id="_Path_149" data-name="&lt;Path&gt;" class="cls-2" d="M185.58,259.51a.74.74,0,0,1,0,1.4,2.67,2.67,0,0,1-2.42,0,.74.74,0,0,1,0-1.4A2.68,2.68,0,0,1,185.58,259.51Z"/><path id="_Path_150" data-name="&lt;Path&gt;" class="cls-2" d="M191.94,255.91a.74.74,0,0,1,0,1.4,2.67,2.67,0,0,1-2.42,0,.74.74,0,0,1,0-1.4A2.68,2.68,0,0,1,191.94,255.91Z"/><path id="_Path_151" data-name="&lt;Path&gt;" class="cls-2" d="M198.3,252.32a.74.74,0,0,1,0,1.4,2.67,2.67,0,0,1-2.42,0,.74.74,0,0,1,0-1.4A2.67,2.67,0,0,1,198.3,252.32Z"/><path id="_Path_152" data-name="&lt;Path&gt;" class="cls-2" d="M204.67,248.73a.74.74,0,0,1,0,1.4,2.67,2.67,0,0,1-2.42,0,.74.74,0,0,1,0-1.4A2.67,2.67,0,0,1,204.67,248.73Z"/><path id="_Path_153" data-name="&lt;Path&gt;" class="cls-2" d="M211,245.14a.74.74,0,0,1,0,1.4,2.67,2.67,0,0,1-2.42,0,.74.74,0,0,1,0-1.4A2.68,2.68,0,0,1,211,245.14Z"/><path id="_Path_154" data-name="&lt;Path&gt;" class="cls-2" d="M217.39,241.54a.74.74,0,0,1,0,1.4,2.68,2.68,0,0,1-2.42,0,.74.74,0,0,1,0-1.4A2.67,2.67,0,0,1,217.39,241.54Z"/><path id="_Path_155" data-name="&lt;Path&gt;" class="cls-2" d="M223.75,238a.74.74,0,0,1,0,1.4,2.67,2.67,0,0,1-2.42,0,.74.74,0,0,1,0-1.4A2.67,2.67,0,0,1,223.75,238Z"/><path id="_Path_156" data-name="&lt;Path&gt;" class="cls-2" d="M230.12,234.36a.74.74,0,0,1,0,1.4,2.67,2.67,0,0,1-2.42,0,.74.74,0,0,1,0-1.4A2.67,2.67,0,0,1,230.12,234.36Z"/><path id="_Path_157" data-name="&lt;Path&gt;" class="cls-2" d="M179.28,255.79a.74.74,0,0,1,0,1.4,2.67,2.67,0,0,1-2.42,0,.74.74,0,0,1,0-1.4A2.68,2.68,0,0,1,179.28,255.79Z"/><path id="_Path_158" data-name="&lt;Path&gt;" class="cls-2" d="M185.65,252.2a.74.74,0,0,1,0,1.4,2.67,2.67,0,0,1-2.42,0,.74.74,0,0,1,0-1.4A2.67,2.67,0,0,1,185.65,252.2Z"/><path id="_Path_159" data-name="&lt;Path&gt;" class="cls-2" d="M192,248.61a.74.74,0,0,1,0,1.4,2.67,2.67,0,0,1-2.42,0,.74.74,0,0,1,0-1.4A2.68,2.68,0,0,1,192,248.61Z"/><path id="_Path_160" data-name="&lt;Path&gt;" class="cls-2" d="M198.37,245a.74.74,0,0,1,0,1.4,2.68,2.68,0,0,1-2.42,0,.74.74,0,0,1,0-1.4A2.68,2.68,0,0,1,198.37,245Z"/><path id="_Path_161" data-name="&lt;Path&gt;" class="cls-2" d="M204.74,241.42a.74.74,0,0,1,0,1.4,2.68,2.68,0,0,1-2.42,0,.74.74,0,0,1,0-1.4A2.67,2.67,0,0,1,204.74,241.42Z"/><path id="_Path_162" data-name="&lt;Path&gt;" class="cls-2" d="M211.1,237.83a.74.74,0,0,1,0,1.4,2.67,2.67,0,0,1-2.42,0,.74.74,0,0,1,0-1.4A2.67,2.67,0,0,1,211.1,237.83Z"/><path id="_Path_163" data-name="&lt;Path&gt;" class="cls-2" d="M217.46,234.24a.74.74,0,0,1,0,1.4,2.67,2.67,0,0,1-2.42,0,.74.74,0,0,1,0-1.4A2.67,2.67,0,0,1,217.46,234.24Z"/><path id="_Path_164" data-name="&lt;Path&gt;" class="cls-2" d="M223.82,230.65a.74.74,0,0,1,0,1.4,2.68,2.68,0,0,1-2.42,0,.74.74,0,0,1,0-1.4A2.67,2.67,0,0,1,223.82,230.65Z"/><path id="_Path_165" data-name="&lt;Path&gt;" class="cls-2" d="M173,252.08a.74.74,0,0,1,0,1.4,2.67,2.67,0,0,1-2.42,0,.74.74,0,0,1,0-1.4A2.67,2.67,0,0,1,173,252.08Z"/><path id="_Path_166" data-name="&lt;Path&gt;" class="cls-2" d="M179.35,248.49a.74.74,0,0,1,0,1.4,2.67,2.67,0,0,1-2.42,0,.74.74,0,0,1,0-1.4A2.68,2.68,0,0,1,179.35,248.49Z"/><path id="_Path_167" data-name="&lt;Path&gt;" class="cls-2" d="M185.72,244.89a.74.74,0,0,1,0,1.4,2.68,2.68,0,0,1-2.42,0,.74.74,0,0,1,0-1.4A2.68,2.68,0,0,1,185.72,244.89Z"/><path id="_Path_168" data-name="&lt;Path&gt;" class="cls-2" d="M192.08,241.3a.74.74,0,0,1,0,1.4,2.68,2.68,0,0,1-2.42,0,.74.74,0,0,1,0-1.4A2.67,2.67,0,0,1,192.08,241.3Z"/><path id="_Path_169" data-name="&lt;Path&gt;" class="cls-2" d="M198.44,237.71a.74.74,0,0,1,0,1.4,2.67,2.67,0,0,1-2.42,0,.74.74,0,0,1,0-1.4A2.67,2.67,0,0,1,198.44,237.71Z"/><path id="_Path_170" data-name="&lt;Path&gt;" class="cls-2" d="M204.81,234.12a.74.74,0,0,1,0,1.4,2.68,2.68,0,0,1-2.42,0,.74.74,0,0,1,0-1.4A2.67,2.67,0,0,1,204.81,234.12Z"/><path id="_Path_171" data-name="&lt;Path&gt;" class="cls-2" d="M211.17,230.52a.74.74,0,0,1,0,1.4,2.68,2.68,0,0,1-2.42,0,.74.74,0,0,1,0-1.4A2.67,2.67,0,0,1,211.17,230.52Z"/><path id="_Path_172" data-name="&lt;Path&gt;" class="cls-2" d="M217.53,226.93a.74.74,0,0,1,0,1.4,2.67,2.67,0,0,1-2.42,0,.74.74,0,0,1,0-1.4A2.67,2.67,0,0,1,217.53,226.93Z"/><path id="_Path_173" data-name="&lt;Path&gt;" class="cls-2" d="M166.7,248.36a.74.74,0,0,1,0,1.4,2.68,2.68,0,0,1-2.42,0,.74.74,0,0,1,0-1.4A2.68,2.68,0,0,1,166.7,248.36Z"/><path id="_Path_174" data-name="&lt;Path&gt;" class="cls-2" d="M173.06,244.77a.74.74,0,0,1,0,1.4,2.68,2.68,0,0,1-2.42,0,.74.74,0,0,1,0-1.4A2.67,2.67,0,0,1,173.06,244.77Z"/><path id="_Path_175" data-name="&lt;Path&gt;" class="cls-2" d="M179.42,241.18a.74.74,0,0,1,0,1.4,2.67,2.67,0,0,1-2.42,0,.74.74,0,0,1,0-1.4A2.67,2.67,0,0,1,179.42,241.18Z"/><path id="_Path_176" data-name="&lt;Path&gt;" class="cls-2" d="M185.79,237.59a.74.74,0,0,1,0,1.4,2.67,2.67,0,0,1-2.42,0,.74.74,0,0,1,0-1.4A2.67,2.67,0,0,1,185.79,237.59Z"/><path id="_Path_177" data-name="&lt;Path&gt;" class="cls-2" d="M192.15,234a.74.74,0,0,1,0,1.4,2.68,2.68,0,0,1-2.42,0,.74.74,0,0,1,0-1.4A2.67,2.67,0,0,1,192.15,234Z"/><path id="_Path_178" data-name="&lt;Path&gt;" class="cls-2" d="M198.51,230.4a.74.74,0,0,1,0,1.4,2.68,2.68,0,0,1-2.42,0,.74.74,0,0,1,0-1.4A2.67,2.67,0,0,1,198.51,230.4Z"/><path id="_Path_179" data-name="&lt;Path&gt;" class="cls-2" d="M204.88,226.81a.74.74,0,0,1,0,1.4,2.67,2.67,0,0,1-2.42,0,.74.74,0,0,1,0-1.4A2.68,2.68,0,0,1,204.88,226.81Z"/><path id="_Path_180" data-name="&lt;Path&gt;" class="cls-2" d="M211.24,223.22a.74.74,0,0,1,0,1.4,2.67,2.67,0,0,1-2.42,0,.74.74,0,0,1,0-1.4A2.68,2.68,0,0,1,211.24,223.22Z"/><path id="_Path_181" data-name="&lt;Path&gt;" class="cls-2" d="M160.35,244.61a.74.74,0,0,1,0,1.4,2.67,2.67,0,0,1-2.42,0,.74.74,0,0,1,0-1.4A2.68,2.68,0,0,1,160.35,244.61Z"/><path id="_Path_182" data-name="&lt;Path&gt;" class="cls-2" d="M166.72,241a.74.74,0,0,1,0,1.4,2.67,2.67,0,0,1-2.42,0,.74.74,0,0,1,0-1.4A2.68,2.68,0,0,1,166.72,241Z"/><path id="_Path_183" data-name="&lt;Path&gt;" class="cls-2" d="M173.08,237.43a.74.74,0,0,1,0,1.4,2.67,2.67,0,0,1-2.42,0,.74.74,0,0,1,0-1.4A2.67,2.67,0,0,1,173.08,237.43Z"/><path id="_Path_184" data-name="&lt;Path&gt;" class="cls-2" d="M179.44,233.83a.74.74,0,0,1,0,1.4,2.67,2.67,0,0,1-2.42,0,.74.74,0,0,1,0-1.4A2.67,2.67,0,0,1,179.44,233.83Z"/><path id="_Path_185" data-name="&lt;Path&gt;" class="cls-2" d="M185.8,230.24a.74.74,0,0,1,0,1.4,2.67,2.67,0,0,1-2.42,0,.74.74,0,0,1,0-1.4A2.68,2.68,0,0,1,185.8,230.24Z"/><path id="_Path_186" data-name="&lt;Path&gt;" class="cls-2" d="M192.17,226.65a.74.74,0,0,1,0,1.4,2.68,2.68,0,0,1-2.42,0,.74.74,0,0,1,0-1.4A2.68,2.68,0,0,1,192.17,226.65Z"/><path id="_Path_187" data-name="&lt;Path&gt;" class="cls-2" d="M198.53,223.06a.74.74,0,0,1,0,1.4,2.68,2.68,0,0,1-2.42,0,.74.74,0,0,1,0-1.4A2.67,2.67,0,0,1,198.53,223.06Z"/><path id="_Path_188" data-name="&lt;Path&gt;" class="cls-2" d="M204.89,219.46a.74.74,0,0,1,0,1.4,2.67,2.67,0,0,1-2.42,0,.74.74,0,0,1,0-1.4A2.67,2.67,0,0,1,204.89,219.46Z"/><path id="_Path_189" data-name="&lt;Path&gt;" class="cls-2" d="M154.06,240.9a.74.74,0,0,1,0,1.4,2.67,2.67,0,0,1-2.42,0,.74.74,0,0,1,0-1.4A2.68,2.68,0,0,1,154.06,240.9Z"/><path id="_Path_190" data-name="&lt;Path&gt;" class="cls-2" d="M160.42,237.31a.74.74,0,0,1,0,1.4,2.67,2.67,0,0,1-2.42,0,.74.74,0,0,1,0-1.4A2.67,2.67,0,0,1,160.42,237.31Z"/><path id="_Path_191" data-name="&lt;Path&gt;" class="cls-2" d="M166.79,233.71a.74.74,0,0,1,0,1.4,2.67,2.67,0,0,1-2.42,0,.74.74,0,0,1,0-1.4A2.67,2.67,0,0,1,166.79,233.71Z"/><path id="_Path_192" data-name="&lt;Path&gt;" class="cls-2" d="M173.15,230.12a.74.74,0,0,1,0,1.4,2.67,2.67,0,0,1-2.42,0,.74.74,0,0,1,0-1.4A2.68,2.68,0,0,1,173.15,230.12Z"/><path id="_Path_193" data-name="&lt;Path&gt;" class="cls-2" d="M179.51,226.53a.74.74,0,0,1,0,1.4,2.68,2.68,0,0,1-2.42,0,.74.74,0,0,1,0-1.4A2.68,2.68,0,0,1,179.51,226.53Z"/><path id="_Path_194" data-name="&lt;Path&gt;" class="cls-2" d="M185.87,222.94a.74.74,0,0,1,0,1.4,2.68,2.68,0,0,1-2.42,0,.74.74,0,0,1,0-1.4A2.67,2.67,0,0,1,185.87,222.94Z"/><path id="_Path_195" data-name="&lt;Path&gt;" class="cls-2" d="M192.24,219.34a.74.74,0,0,1,0,1.4,2.67,2.67,0,0,1-2.42,0,.74.74,0,0,1,0-1.4A2.67,2.67,0,0,1,192.24,219.34Z"/><path id="_Path_196" data-name="&lt;Path&gt;" class="cls-2" d="M198.6,215.75a.74.74,0,0,1,0,1.4,2.68,2.68,0,0,1-2.42,0,.74.74,0,0,1,0-1.4A2.67,2.67,0,0,1,198.6,215.75Z"/><path id="_Path_197" data-name="&lt;Path&gt;" class="cls-2" d="M147.77,237.18a.74.74,0,0,1,0,1.4,2.67,2.67,0,0,1-2.42,0,.74.74,0,0,1,0-1.4A2.67,2.67,0,0,1,147.77,237.18Z"/><path id="_Path_198" data-name="&lt;Path&gt;" class="cls-2" d="M154.13,233.59a.74.74,0,0,1,0,1.4,2.67,2.67,0,0,1-2.42,0,.74.74,0,0,1,0-1.4A2.68,2.68,0,0,1,154.13,233.59Z"/><path id="_Path_199" data-name="&lt;Path&gt;" class="cls-2" d="M160.49,230a.74.74,0,0,1,0,1.4,2.68,2.68,0,0,1-2.42,0,.74.74,0,0,1,0-1.4A2.68,2.68,0,0,1,160.49,230Z"/><path id="_Path_200" data-name="&lt;Path&gt;" class="cls-2" d="M166.86,226.41a.74.74,0,0,1,0,1.4,2.68,2.68,0,0,1-2.42,0,.74.74,0,0,1,0-1.4A2.67,2.67,0,0,1,166.86,226.41Z"/><path id="_Path_201" data-name="&lt;Path&gt;" class="cls-2" d="M173.22,222.81a.74.74,0,0,1,0,1.4,2.67,2.67,0,0,1-2.42,0,.74.74,0,0,1,0-1.4A2.67,2.67,0,0,1,173.22,222.81Z"/><path id="_Path_202" data-name="&lt;Path&gt;" class="cls-2" d="M179.58,219.22a.74.74,0,0,1,0,1.4,2.67,2.67,0,0,1-2.42,0,.74.74,0,0,1,0-1.4A2.67,2.67,0,0,1,179.58,219.22Z"/><path id="_Path_203" data-name="&lt;Path&gt;" class="cls-2" d="M185.94,215.63a.74.74,0,0,1,0,1.4,2.68,2.68,0,0,1-2.42,0,.74.74,0,0,1,0-1.4A2.67,2.67,0,0,1,185.94,215.63Z"/><path id="_Path_204" data-name="&lt;Path&gt;" class="cls-2" d="M192.31,212a.74.74,0,0,1,0,1.4,2.68,2.68,0,0,1-2.42,0,.74.74,0,0,1,0-1.4A2.67,2.67,0,0,1,192.31,212Z"/><path id="_Path_205" data-name="&lt;Path&gt;" class="cls-2" d="M141.48,233.47a.74.74,0,0,1,0,1.4,2.67,2.67,0,0,1-2.42,0,.74.74,0,0,1,0-1.4A2.68,2.68,0,0,1,141.48,233.47Z"/><path id="_Path_206" data-name="&lt;Path&gt;" class="cls-2" d="M147.84,229.88a.74.74,0,0,1,0,1.4,2.68,2.68,0,0,1-2.42,0,.74.74,0,0,1,0-1.4A2.68,2.68,0,0,1,147.84,229.88Z"/><path id="_Path_207" data-name="&lt;Path&gt;" class="cls-2" d="M154.2,226.29a.74.74,0,0,1,0,1.4,2.68,2.68,0,0,1-2.42,0,.74.74,0,0,1,0-1.4A2.67,2.67,0,0,1,154.2,226.29Z"/><path id="_Path_208" data-name="&lt;Path&gt;" class="cls-2" d="M160.56,222.69a.74.74,0,0,1,0,1.4,2.67,2.67,0,0,1-2.42,0,.74.74,0,0,1,0-1.4A2.67,2.67,0,0,1,160.56,222.69Z"/><path id="_Path_209" data-name="&lt;Path&gt;" class="cls-2" d="M166.93,219.1a.74.74,0,0,1,0,1.4,2.68,2.68,0,0,1-2.42,0,.74.74,0,0,1,0-1.4A2.67,2.67,0,0,1,166.93,219.1Z"/><path id="_Path_210" data-name="&lt;Path&gt;" class="cls-2" d="M173.29,215.51a.74.74,0,0,1,0,1.4,2.68,2.68,0,0,1-2.42,0,.74.74,0,0,1,0-1.4A2.67,2.67,0,0,1,173.29,215.51Z"/><path id="_Path_211" data-name="&lt;Path&gt;" class="cls-2" d="M179.65,211.92a.74.74,0,0,1,0,1.4,2.67,2.67,0,0,1-2.42,0,.74.74,0,0,1,0-1.4A2.67,2.67,0,0,1,179.65,211.92Z"/><path id="_Path_212" data-name="&lt;Path&gt;" class="cls-2" d="M186,208.32a.74.74,0,0,1,0,1.4,2.67,2.67,0,0,1-2.42,0,.74.74,0,0,1,0-1.4A2.68,2.68,0,0,1,186,208.32Z"/><path id="_Path_213" data-name="&lt;Path&gt;" class="cls-2" d="M135.18,229.76a.74.74,0,0,1,0,1.4,2.68,2.68,0,0,1-2.42,0,.74.74,0,0,1,0-1.4A2.67,2.67,0,0,1,135.18,229.76Z"/><path id="_Path_214" data-name="&lt;Path&gt;" class="cls-2" d="M141.55,226.16a.74.74,0,0,1,0,1.4,2.67,2.67,0,0,1-2.42,0,.74.74,0,0,1,0-1.4A2.67,2.67,0,0,1,141.55,226.16Z"/><path id="_Path_215" data-name="&lt;Path&gt;" class="cls-2" d="M147.91,222.57a.74.74,0,0,1,0,1.4,2.67,2.67,0,0,1-2.42,0,.74.74,0,0,1,0-1.4A2.67,2.67,0,0,1,147.91,222.57Z"/><path id="_Path_216" data-name="&lt;Path&gt;" class="cls-2" d="M154.27,219a.74.74,0,0,1,0,1.4,2.68,2.68,0,0,1-2.42,0,.74.74,0,0,1,0-1.4A2.67,2.67,0,0,1,154.27,219Z"/><path id="_Path_217" data-name="&lt;Path&gt;" class="cls-2" d="M160.63,215.39a.74.74,0,0,1,0,1.4,2.68,2.68,0,0,1-2.42,0,.74.74,0,0,1,0-1.4A2.67,2.67,0,0,1,160.63,215.39Z"/><path id="_Path_218" data-name="&lt;Path&gt;" class="cls-2" d="M167,211.79a.74.74,0,0,1,0,1.4,2.67,2.67,0,0,1-2.42,0,.74.74,0,0,1,0-1.4A2.67,2.67,0,0,1,167,211.79Z"/><path id="_Path_219" data-name="&lt;Path&gt;" class="cls-2" d="M173.36,208.2a.74.74,0,0,1,0,1.4,2.67,2.67,0,0,1-2.42,0,.74.74,0,0,1,0-1.4A2.68,2.68,0,0,1,173.36,208.2Z"/><path id="_Path_220" data-name="&lt;Path&gt;" class="cls-2" d="M179.72,204.61a.74.74,0,0,1,0,1.4,2.67,2.67,0,0,1-2.42,0,.74.74,0,0,1,0-1.4A2.68,2.68,0,0,1,179.72,204.61Z"/><path id="_Path_221" data-name="&lt;Path&gt;" class="cls-2" d="M128.89,226a.74.74,0,0,1,0,1.4,2.67,2.67,0,0,1-2.42,0,.74.74,0,0,1,0-1.4A2.67,2.67,0,0,1,128.89,226Z"/><path id="_Path_222" data-name="&lt;Path&gt;" class="cls-2" d="M135.25,222.45a.74.74,0,0,1,0,1.4,2.67,2.67,0,0,1-2.42,0,.74.74,0,0,1,0-1.4A2.67,2.67,0,0,1,135.25,222.45Z"/><path id="_Path_223" data-name="&lt;Path&gt;" class="cls-2" d="M141.62,218.86a.74.74,0,0,1,0,1.4,2.68,2.68,0,0,1-2.42,0,.74.74,0,0,1,0-1.4A2.67,2.67,0,0,1,141.62,218.86Z"/><path id="_Path_224" data-name="&lt;Path&gt;" class="cls-2" d="M148,215.26a.74.74,0,0,1,0,1.4,2.67,2.67,0,0,1-2.42,0,.74.74,0,0,1,0-1.4A2.67,2.67,0,0,1,148,215.26Z"/><path id="_Path_225" data-name="&lt;Path&gt;" class="cls-2" d="M154.34,211.67a.74.74,0,0,1,0,1.4,2.67,2.67,0,0,1-2.42,0,.74.74,0,0,1,0-1.4A2.68,2.68,0,0,1,154.34,211.67Z"/><path id="_Path_226" data-name="&lt;Path&gt;" class="cls-2" d="M160.7,208.08a.74.74,0,0,1,0,1.4,2.67,2.67,0,0,1-2.42,0,.74.74,0,0,1,0-1.4A2.68,2.68,0,0,1,160.7,208.08Z"/><path id="_Path_227" data-name="&lt;Path&gt;" class="cls-2" d="M167.07,204.49a.74.74,0,0,1,0,1.4,2.67,2.67,0,0,1-2.42,0,.74.74,0,0,1,0-1.4A2.67,2.67,0,0,1,167.07,204.49Z"/><path id="_Path_228" data-name="&lt;Path&gt;" class="cls-2" d="M173.43,200.89a.74.74,0,0,1,0,1.4,2.67,2.67,0,0,1-2.42,0,.74.74,0,0,1,0-1.4A2.67,2.67,0,0,1,173.43,200.89Z"/><path id="_Path_229" data-name="&lt;Path&gt;" class="cls-2" d="M122.6,222.33a.74.74,0,0,1,0,1.4,2.68,2.68,0,0,1-2.42,0,.74.74,0,0,1,0-1.4A2.67,2.67,0,0,1,122.6,222.33Z"/><path id="_Path_230" data-name="&lt;Path&gt;" class="cls-2" d="M129,218.74a.74.74,0,0,1,0,1.4,2.68,2.68,0,0,1-2.42,0,.74.74,0,0,1,0-1.4A2.67,2.67,0,0,1,129,218.74Z"/><path id="_Path_231" data-name="&lt;Path&gt;" class="cls-2" d="M135.32,215.14a.74.74,0,0,1,0,1.4,2.67,2.67,0,0,1-2.42,0,.74.74,0,0,1,0-1.4A2.67,2.67,0,0,1,135.32,215.14Z"/><path id="_Path_232" data-name="&lt;Path&gt;" class="cls-2" d="M141.69,211.55a.74.74,0,0,1,0,1.4,2.67,2.67,0,0,1-2.42,0,.74.74,0,0,1,0-1.4A2.68,2.68,0,0,1,141.69,211.55Z"/><path id="_Path_233" data-name="&lt;Path&gt;" class="cls-2" d="M148,208a.74.74,0,0,1,0,1.4,2.67,2.67,0,0,1-2.42,0,.74.74,0,0,1,0-1.4A2.68,2.68,0,0,1,148,208Z"/><path id="_Path_234" data-name="&lt;Path&gt;" class="cls-2" d="M154.41,204.37a.74.74,0,0,1,0,1.4,2.67,2.67,0,0,1-2.42,0,.74.74,0,0,1,0-1.4A2.67,2.67,0,0,1,154.41,204.37Z"/><path id="_Path_235" data-name="&lt;Path&gt;" class="cls-2" d="M160.77,200.77a.74.74,0,0,1,0,1.4,2.67,2.67,0,0,1-2.42,0,.74.74,0,0,1,0-1.4A2.68,2.68,0,0,1,160.77,200.77Z"/><path id="_Path_236" data-name="&lt;Path&gt;" class="cls-2" d="M167.14,197.18a.74.74,0,0,1,0,1.4,2.68,2.68,0,0,1-2.42,0,.74.74,0,0,1,0-1.4A2.68,2.68,0,0,1,167.14,197.18Z"/><path id="_Path_237" data-name="&lt;Path&gt;" class="cls-2" d="M116.31,218.61a.74.74,0,0,1,0,1.4,2.68,2.68,0,0,1-2.42,0,.74.74,0,0,1,0-1.4A2.67,2.67,0,0,1,116.31,218.61Z"/><path id="_Path_238" data-name="&lt;Path&gt;" class="cls-2" d="M122.67,215a.74.74,0,0,1,0,1.4,2.67,2.67,0,0,1-2.42,0,.74.74,0,0,1,0-1.4A2.68,2.68,0,0,1,122.67,215Z"/><path id="_Path_239" data-name="&lt;Path&gt;" class="cls-2" d="M129,211.43a.74.74,0,0,1,0,1.4,2.67,2.67,0,0,1-2.42,0,.74.74,0,0,1,0-1.4A2.68,2.68,0,0,1,129,211.43Z"/><path id="_Path_240" data-name="&lt;Path&gt;" class="cls-2" d="M135.39,207.84a.74.74,0,0,1,0,1.4,2.67,2.67,0,0,1-2.42,0,.74.74,0,0,1,0-1.4A2.67,2.67,0,0,1,135.39,207.84Z"/><path id="_Path_241" data-name="&lt;Path&gt;" class="cls-2" d="M141.76,204.24a.74.74,0,0,1,0,1.4,2.67,2.67,0,0,1-2.42,0,.74.74,0,0,1,0-1.4A2.67,2.67,0,0,1,141.76,204.24Z"/><path id="_Path_242" data-name="&lt;Path&gt;" class="cls-2" d="M148.12,200.65a.74.74,0,0,1,0,1.4,2.67,2.67,0,0,1-2.42,0,.74.74,0,0,1,0-1.4A2.68,2.68,0,0,1,148.12,200.65Z"/><path id="_Path_243" data-name="&lt;Path&gt;" class="cls-2" d="M154.48,197.06a.74.74,0,0,1,0,1.4,2.68,2.68,0,0,1-2.42,0,.74.74,0,0,1,0-1.4A2.68,2.68,0,0,1,154.48,197.06Z"/><path id="_Path_244" data-name="&lt;Path&gt;" class="cls-2" d="M160.84,193.47a.74.74,0,0,1,0,1.4,2.68,2.68,0,0,1-2.42,0,.74.74,0,0,1,0-1.4A2.67,2.67,0,0,1,160.84,193.47Z"/><path id="_Path_245" data-name="&lt;Path&gt;" class="cls-2" d="M110,214.86a.74.74,0,0,1,0,1.4,2.68,2.68,0,0,1-2.42,0,.74.74,0,0,1,0-1.4A2.68,2.68,0,0,1,110,214.86Z"/><path id="_Path_246" data-name="&lt;Path&gt;" class="cls-2" d="M116.32,211.27a.74.74,0,0,1,0,1.4,2.68,2.68,0,0,1-2.42,0,.74.74,0,0,1,0-1.4A2.67,2.67,0,0,1,116.32,211.27Z"/><path id="_Path_247" data-name="&lt;Path&gt;" class="cls-2" d="M122.68,207.68a.74.74,0,0,1,0,1.4,2.67,2.67,0,0,1-2.42,0,.74.74,0,0,1,0-1.4A2.67,2.67,0,0,1,122.68,207.68Z"/><path id="_Path_248" data-name="&lt;Path&gt;" class="cls-2" d="M129,204.08a.74.74,0,0,1,0,1.4,2.68,2.68,0,0,1-2.42,0,.74.74,0,0,1,0-1.4A2.67,2.67,0,0,1,129,204.08Z"/><path id="_Path_249" data-name="&lt;Path&gt;" class="cls-2" d="M135.41,200.49a.74.74,0,0,1,0,1.4,2.68,2.68,0,0,1-2.42,0,.74.74,0,0,1,0-1.4A2.67,2.67,0,0,1,135.41,200.49Z"/><path id="_Path_250" data-name="&lt;Path&gt;" class="cls-2" d="M141.77,196.9a.74.74,0,0,1,0,1.4,2.67,2.67,0,0,1-2.42,0,.74.74,0,0,1,0-1.4A2.67,2.67,0,0,1,141.77,196.9Z"/><path id="_Path_251" data-name="&lt;Path&gt;" class="cls-2" d="M148.13,193.31a.74.74,0,0,1,0,1.4,2.67,2.67,0,0,1-2.42,0,.74.74,0,0,1,0-1.4A2.68,2.68,0,0,1,148.13,193.31Z"/><path id="_Path_252" data-name="&lt;Path&gt;" class="cls-2" d="M154.5,189.71a.74.74,0,0,1,0,1.4,2.67,2.67,0,0,1-2.42,0,.74.74,0,0,1,0-1.4A2.68,2.68,0,0,1,154.5,189.71Z"/><path id="_Path_253" data-name="&lt;Path&gt;" class="cls-2" d="M103.67,211.15a.74.74,0,0,1,0,1.4,2.67,2.67,0,0,1-2.42,0,.74.74,0,0,1,0-1.4A2.67,2.67,0,0,1,103.67,211.15Z"/><path id="_Path_254" data-name="&lt;Path&gt;" class="cls-2" d="M110,207.55a.74.74,0,0,1,0,1.4,2.67,2.67,0,0,1-2.42,0,.74.74,0,0,1,0-1.4A2.67,2.67,0,0,1,110,207.55Z"/><path id="_Path_255" data-name="&lt;Path&gt;" class="cls-2" d="M116.39,204a.74.74,0,0,1,0,1.4,2.68,2.68,0,0,1-2.42,0,.74.74,0,0,1,0-1.4A2.67,2.67,0,0,1,116.39,204Z"/><path id="_Path_256" data-name="&lt;Path&gt;" class="cls-2" d="M122.75,200.37a.74.74,0,0,1,0,1.4,2.68,2.68,0,0,1-2.42,0,.74.74,0,0,1,0-1.4A2.67,2.67,0,0,1,122.75,200.37Z"/><path id="_Path_257" data-name="&lt;Path&gt;" class="cls-2" d="M129.12,196.78a.74.74,0,0,1,0,1.4,2.67,2.67,0,0,1-2.42,0,.74.74,0,0,1,0-1.4A2.67,2.67,0,0,1,129.12,196.78Z"/><path id="_Path_258" data-name="&lt;Path&gt;" class="cls-2" d="M135.48,193.18a.74.74,0,0,1,0,1.4,2.67,2.67,0,0,1-2.42,0,.74.74,0,0,1,0-1.4A2.68,2.68,0,0,1,135.48,193.18Z"/><path id="_Path_259" data-name="&lt;Path&gt;" class="cls-2" d="M141.84,189.59a.74.74,0,0,1,0,1.4,2.67,2.67,0,0,1-2.42,0,.74.74,0,0,1,0-1.4A2.68,2.68,0,0,1,141.84,189.59Z"/><path id="_Path_260" data-name="&lt;Path&gt;" class="cls-2" d="M148.2,186a.74.74,0,0,1,0,1.4,2.67,2.67,0,0,1-2.42,0,.74.74,0,0,1,0-1.4A2.67,2.67,0,0,1,148.2,186Z"/><path id="_Path_261" data-name="&lt;Path&gt;" class="cls-2" d="M103.74,203.84a.74.74,0,0,1,0,1.4,2.68,2.68,0,0,1-2.42,0,.74.74,0,0,1,0-1.4A2.67,2.67,0,0,1,103.74,203.84Z"/><path id="_Path_262" data-name="&lt;Path&gt;" class="cls-2" d="M110.1,200.25a.74.74,0,0,1,0,1.4,2.68,2.68,0,0,1-2.42,0,.74.74,0,0,1,0-1.4A2.67,2.67,0,0,1,110.1,200.25Z"/><path id="_Path_263" data-name="&lt;Path&gt;" class="cls-2" d="M116.46,196.66a.74.74,0,0,1,0,1.4,2.67,2.67,0,0,1-2.42,0,.74.74,0,0,1,0-1.4A2.68,2.68,0,0,1,116.46,196.66Z"/><path id="_Path_264" data-name="&lt;Path&gt;" class="cls-2" d="M122.82,193.06a.74.74,0,0,1,0,1.4,2.67,2.67,0,0,1-2.42,0,.74.74,0,0,1,0-1.4A2.68,2.68,0,0,1,122.82,193.06Z"/><path id="_Path_265" data-name="&lt;Path&gt;" class="cls-2" d="M129.19,189.47a.74.74,0,0,1,0,1.4,2.67,2.67,0,0,1-2.42,0,.74.74,0,0,1,0-1.4A2.67,2.67,0,0,1,129.19,189.47Z"/><path id="_Path_266" data-name="&lt;Path&gt;" class="cls-2" d="M135.55,185.88a.74.74,0,0,1,0,1.4,2.67,2.67,0,0,1-2.42,0,.74.74,0,0,1,0-1.4A2.67,2.67,0,0,1,135.55,185.88Z"/><path id="_Path_267" data-name="&lt;Path&gt;" class="cls-2" d="M211.07,266.47a.74.74,0,0,1,0,1.4,2.68,2.68,0,0,1-2.42,0,.74.74,0,0,1,0-1.4A2.67,2.67,0,0,1,211.07,266.47Z"/><path id="_Path_268" data-name="&lt;Path&gt;" class="cls-2" d="M217.43,262.88a.74.74,0,0,1,0,1.4,2.67,2.67,0,0,1-2.42,0,.74.74,0,0,1,0-1.4A2.67,2.67,0,0,1,217.43,262.88Z"/><path id="_Path_269" data-name="&lt;Path&gt;" class="cls-2" d="M223.8,259.29a.74.74,0,0,1,0,1.4,2.68,2.68,0,0,1-2.42,0,.74.74,0,0,1,0-1.4A2.67,2.67,0,0,1,223.8,259.29Z"/><path id="_Path_270" data-name="&lt;Path&gt;" class="cls-2" d="M230.16,255.7a.74.74,0,0,1,0,1.4,2.68,2.68,0,0,1-2.42,0,.74.74,0,0,1,0-1.4A2.67,2.67,0,0,1,230.16,255.7Z"/><path id="_Path_271" data-name="&lt;Path&gt;" class="cls-2" d="M236.52,252.1a.74.74,0,0,1,0,1.4,2.67,2.67,0,0,1-2.42,0,.74.74,0,0,1,0-1.4A2.67,2.67,0,0,1,236.52,252.1Z"/><path id="_Path_272" data-name="&lt;Path&gt;" class="cls-2" d="M198.42,266.35a.74.74,0,0,1,0,1.4,2.67,2.67,0,0,1-2.42,0,.74.74,0,0,1,0-1.4A2.67,2.67,0,0,1,198.42,266.35Z"/><path id="_Path_273" data-name="&lt;Path&gt;" class="cls-2" d="M204.78,262.76a.74.74,0,0,1,0,1.4,2.67,2.67,0,0,1-2.42,0,.74.74,0,0,1,0-1.4A2.67,2.67,0,0,1,204.78,262.76Z"/><path id="_Path_274" data-name="&lt;Path&gt;" class="cls-2" d="M211.14,259.17a.74.74,0,0,1,0,1.4,2.68,2.68,0,0,1-2.42,0,.74.74,0,0,1,0-1.4A2.67,2.67,0,0,1,211.14,259.17Z"/><path id="_Path_275" data-name="&lt;Path&gt;" class="cls-2" d="M217.5,255.58a.74.74,0,0,1,0,1.4,2.68,2.68,0,0,1-2.42,0,.74.74,0,0,1,0-1.4A2.67,2.67,0,0,1,217.5,255.58Z"/><path id="_Path_276" data-name="&lt;Path&gt;" class="cls-2" d="M223.87,252a.74.74,0,0,1,0,1.4,2.67,2.67,0,0,1-2.42,0,.74.74,0,0,1,0-1.4A2.68,2.68,0,0,1,223.87,252Z"/><path id="_Path_277" data-name="&lt;Path&gt;" class="cls-2" d="M230.23,248.39a.74.74,0,0,1,0,1.4,2.67,2.67,0,0,1-2.42,0,.74.74,0,0,1,0-1.4A2.68,2.68,0,0,1,230.23,248.39Z"/><path id="_Path_278" data-name="&lt;Path&gt;" class="cls-2" d="M236.59,244.8a.74.74,0,0,1,0,1.4,2.67,2.67,0,0,1-2.42,0,.74.74,0,0,1,0-1.4A2.67,2.67,0,0,1,236.59,244.8Z"/><path id="_Path_279" data-name="&lt;Path&gt;" class="cls-2" d="M242.7,241.81a.74.74,0,0,1,0,1.4,2.68,2.68,0,0,1-2.42,0,.74.74,0,0,1,0-1.4A2.68,2.68,0,0,1,242.7,241.81Z"/><path id="_Path_280" data-name="&lt;Path&gt;" class="cls-2" d="M242.88,248.53a.74.74,0,0,1,0,1.4,2.67,2.67,0,0,1-2.42,0,.74.74,0,0,1,0-1.4A2.68,2.68,0,0,1,242.88,248.53Z"/></g><g class="cls-3"><path d="M4.7,148.16l23.8-13.83a5.82,5.82,0,0,0,.41,2,11.09,11.09,0,0,0,1.26,2.38,14.8,14.8,0,0,0,4.66,4.39L11,157a14.8,14.8,0,0,1-4.66-4.39,11.09,11.09,0,0,1-1.26-2.38A5.82,5.82,0,0,1,4.7,148.16Z"/><polygon points="5.01 38.79 28.81 24.95 28.5 134.32 4.7 148.16 5.01 38.79"/><polygon points="11.02 156.97 34.83 143.13 210.22 244.39 186.41 258.23 11.02 156.97"/><path d="M215.43,245.16,191.63,259a3,3,0,0,1-1.47.38,7.38,7.38,0,0,1-3.75-1.15l23.8-13.83a7.38,7.38,0,0,0,3.75,1.15A3,3,0,0,0,215.43,245.16Z"/><polygon points="3.01 37.63 26.81 23.8 28.81 24.95 5.01 38.79 3.01 37.63"/><path d="M1.6,32.91l23.8-13.83a1.4,1.4,0,0,0-.58,1.28,4.39,4.39,0,0,0,2,3.45L3,37.63a4.39,4.39,0,0,1-2-3.45A1.4,1.4,0,0,1,1.6,32.91Z"/><path d="M1.6,32.91l23.8-13.83a1.41,1.41,0,0,1,1.42.14L3,33A1.41,1.41,0,0,0,1.6,32.91Z"/><polygon points="3.02 33.04 26.83 19.21 28.82 20.36 5.02 34.2 3.02 33.04"/><polygon points="5.06 21.6 28.86 7.77 28.82 20.36 5.02 34.2 5.06 21.6"/><path d="M6.21,19.35,30,5.51a2.17,2.17,0,0,0-.74.7,2.77,2.77,0,0,0-.42,1.56L5.06,21.6A2.77,2.77,0,0,1,5.47,20,2.17,2.17,0,0,1,6.21,19.35Z"/><polygon class="cls-4" points="5.01 38.79 28.81 24.95 216.9 133.54 193.09 147.38 5.01 38.79"/><polygon points="5.02 34.2 28.82 20.36 216.91 128.95 193.1 142.79 5.02 34.2"/><path class="cls-5" d="M36.56,19.67a2.29,2.29,0,0,0,2.31.23L15.06,33.73a2.29,2.29,0,0,1-2.31-.23Z"/><path class="cls-5" d="M33.33,14.08a7.11,7.11,0,0,0,3.23,5.59L12.76,33.51a7.11,7.11,0,0,1-3.23-5.59,2.27,2.27,0,0,1,.95-2.08L34.28,12A2.27,2.27,0,0,0,33.33,14.08Z"/><path d="M38.87,19.9,15.06,33.73A2.26,2.26,0,0,0,16,31.66l23.8-13.83A2.26,2.26,0,0,1,38.87,19.9Z"/><path d="M10.47,25.83,34.28,12a2.28,2.28,0,0,1,2.3.23L12.78,26.06A2.28,2.28,0,0,0,10.47,25.83Z"/><path d="M12.78,26.06l23.8-13.83a7.12,7.12,0,0,1,3.23,5.6L16,31.66A7.12,7.12,0,0,0,12.78,26.06Z"/><path class="cls-5" d="M31.48,5.14a7.38,7.38,0,0,1,3.74,1.15L11.42,20.12h0L35.13,6.33,11.42,20.12A7.37,7.37,0,0,0,7.68,19a3,3,0,0,0-1.46.38L30,5.51A3,3,0,0,1,31.48,5.14Z"/><path class="cls-5" d="M46.28,25.28a2.29,2.29,0,0,0,2.29.23L24.77,39.35a2.29,2.29,0,0,1-2.29-.23Z"/><path d="M48.58,25.51,24.78,39.34a2.27,2.27,0,0,0,.94-2.08l23.8-13.83A2.27,2.27,0,0,1,48.58,25.51Z"/><path class="cls-5" d="M48.57,25.51h0L24.78,39.34h0Z"/><path class="cls-5" d="M43.05,19.69a7.11,7.11,0,0,0,3.23,5.59L22.47,39.12a7.11,7.11,0,0,1-3.23-5.59,2.27,2.27,0,0,1,.95-2.08L44,17.61A2.27,2.27,0,0,0,43.05,19.69Z"/><path d="M20.19,31.44,44,17.61a2.28,2.28,0,0,1,2.3.23L22.49,31.67A2.28,2.28,0,0,0,20.19,31.44Z"/><path d="M22.49,31.67,46.3,17.84a7.12,7.12,0,0,1,3.23,5.59L25.72,37.26A7.12,7.12,0,0,0,22.49,31.67Z"/><path class="cls-5" d="M52.77,25.3A7.12,7.12,0,0,0,56,30.89L32.19,44.73A7.12,7.12,0,0,1,29,39.14Z"/><path class="cls-5" d="M52.83,24.63a3.71,3.71,0,0,0-.06.67L29,39.14a3.71,3.71,0,0,1,.06-.67Z"/><path class="cls-5" d="M52.83,24.63,29,38.46a2.61,2.61,0,0,1,.2-.63L53,24A2.61,2.61,0,0,0,52.83,24.63Z"/><path class="cls-5" d="M53.27,23.61A2,2,0,0,0,53,24L29.22,37.83a2,2,0,0,1,.24-.39Z"/><path class="cls-5" d="M56,30.89a2.28,2.28,0,0,0,2.3.23L34.5,45a2.28,2.28,0,0,1-2.3-.23Z"/><path class="cls-5" d="M53.27,23.61a7.93,7.93,0,0,1-1.14.66l-1.21.7-2.53,1.47-4.87,2.83L29.46,37.45a1.6,1.6,0,0,1,.45-.39l23.8-13.83A1.6,1.6,0,0,0,53.27,23.61Z"/><path d="M58.3,31.12,34.5,45a2.27,2.27,0,0,0,.94-2.08L59.25,29A2.27,2.27,0,0,1,58.3,31.12Z"/><path d="M29.91,37.06l23.8-13.83a2.28,2.28,0,0,1,2.3.23L32.21,37.28A2.28,2.28,0,0,0,29.91,37.06Z"/><path d="M32.21,37.28,56,23.45A7.12,7.12,0,0,1,59.25,29L35.44,42.88A7.12,7.12,0,0,0,32.21,37.28Z"/><path class="cls-4" d="M216.17,244.47a2.16,2.16,0,0,1-.73.69L191.63,259a2.16,2.16,0,0,0,.73-.69Z"/><path class="cls-4" d="M216.58,242.91a2.78,2.78,0,0,1-.42,1.56l-23.8,13.83h0l23.77-13.81-23.77,13.81a2.78,2.78,0,0,0,.42-1.56Z"/><polygon class="cls-4" points="193.09 147.38 216.9 133.54 216.59 242.91 192.78 256.75 193.09 147.38"/><polygon points="193.09 147.38 216.9 133.54 218.89 134.7 195.09 148.53 193.09 147.38"/><path d="M220.31,134.83l-23.8,13.83a1.41,1.41,0,0,1-1.42-.14l23.8-13.83A1.41,1.41,0,0,0,220.31,134.83Z"/><polygon points="197.09 147.38 220.89 133.55 220.58 245.22 196.77 259.05 197.09 147.38"/><path d="M220.31,134.83l-23.8,13.83a1.4,1.4,0,0,0,.58-1.28l23.8-13.83A1.4,1.4,0,0,1,220.31,134.83Z"/><polygon points="193.1 142.79 216.91 128.95 218.91 130.11 195.1 143.94 193.1 142.79"/><polygon class="cls-5" points="193.14 130.19 216.94 116.36 216.91 128.95 193.1 142.79 193.14 130.19"/><polygon points="197.13 132.49 220.94 118.66 220.89 133.55 197.09 147.38 197.13 132.49"/><path d="M195.1,143.94l23.8-13.83a4.39,4.39,0,0,1,2,3.44l-23.8,13.83A4.39,4.39,0,0,0,195.1,143.94Z"/><polygon class="cls-5" points="11.42 20.12 35.23 6.29 210.6 107.54 186.8 121.37 11.42 20.12"/><path class="cls-5" d="M216.54,114.32a5.82,5.82,0,0,1,.41,2l-23.8,13.83a5.82,5.82,0,0,0-.41-2l11.9-6.91Z"/><path class="cls-5" d="M210.6,107.54a14.81,14.81,0,0,1,4.67,4.4l-23.8,13.83a14.81,14.81,0,0,0-4.67-4.4Z"/><path class="cls-5" d="M215.28,111.94h0l-23.8,13.83h0l23.8-13.83Z"/><path class="cls-5" d="M216.54,114.32l-23.8,13.83a11.31,11.31,0,0,0-1.26-2.38l23.8-13.83A11.31,11.31,0,0,1,216.54,114.32Z"/><path d="M12.78,26.06A7.12,7.12,0,0,1,16,31.66c0,2.05-1.46,2.88-3.25,1.85a7.11,7.11,0,0,1-3.23-5.59C9.53,25.86,11,25,12.78,26.06Z"/><path d="M22.49,31.67a7.12,7.12,0,0,1,3.23,5.59c0,2.05-1.46,2.88-3.25,1.85a7.11,7.11,0,0,1-3.23-5.59C19.25,31.47,20.7,30.64,22.49,31.67Z"/><path d="M32.21,37.28a7.12,7.12,0,0,1,3.23,5.59c0,2.05-1.46,2.88-3.25,1.85A7.11,7.11,0,0,1,29,39.14C29,37.08,30.42,36.25,32.21,37.28Z"/><path d="M218.26,250l-23.8,13.83a4.21,4.21,0,0,0,1.41-1.34,6.31,6.31,0,0,0,.91-3.47l23.8-13.83a6.31,6.31,0,0,1-.91,3.47A4.21,4.21,0,0,1,218.26,250Z"/><path d="M195.1,143.94a4.39,4.39,0,0,1,2,3.44c0,1.27-.9,1.78-2,1.14l-2-1.15L5,38.79,3,37.63a4.39,4.39,0,0,1-2-3.45c0-1.26.9-1.78,2-1.14L5,34.2,193.1,142.79Z"/><path class="cls-5" d="M35.24,1.7C32.51.13,30-.35,28.1.25a4.54,4.54,0,0,0-.92.4L3.38,14.48a4.54,4.54,0,0,1,.92-.4c1.91-.59,4.41-.12,7.13,1.45L186.81,116.78,210.62,103Z"/><path class="cls-6" d="M35.24,9.58C32.51,8,30,7.54,28.1,8.13a4.54,4.54,0,0,0-.92.4L3.38,22.36A4.54,4.54,0,0,1,4.3,22c1.91-.59,4.41-.12,7.13,1.45L186.81,124.67l23.8-13.83Z"/><g class="cls-7"><path d="M29.82,3.38a8.07,8.07,0,0,1,3.74,1.24L203.93,103l-20.8,12.36L9.92,14.4l19-10.83.23-.1a2.41,2.41,0,0,1,.71-.09m0-3.38A5.76,5.76,0,0,0,28.1.25a4.55,4.55,0,0,0-.92.4L.06,16.14a4.56,4.56,0,0,1,.87-.37,5.76,5.76,0,0,1,1.71-.25,11.17,11.17,0,0,1,5.42,1.7l175.1,102.05L210.62,103,35.24,1.7A11.17,11.17,0,0,0,29.82,0ZM.06,16.14l-.06,0,.06,0Z"/></g><path d="M186.81,116.78,210.62,103a21.69,21.69,0,0,1,5.59,4.76,22,22,0,0,1,3.84,6.43,13.1,13.1,0,0,1,.89,4.51l-23.8,13.83a13.1,13.1,0,0,0-.89-4.51,22,22,0,0,0-3.84-6.43A21.69,21.69,0,0,0,186.81,116.78Z"/><path class="cls-5" d="M192.73,128.15a5.82,5.82,0,0,1,.41,2l0,12.6L5,34.2l0-12.6A2.77,2.77,0,0,1,5.47,20,2.57,2.57,0,0,1,7.68,19a7.38,7.38,0,0,1,3.74,1.15L186.8,121.37a14.81,14.81,0,0,1,4.67,4.4A11.31,11.31,0,0,1,192.73,128.15Zm-180-94.65c1.79,1,3.25.2,3.25-1.85a7.12,7.12,0,0,0-3.23-5.6c-1.79-1-3.24-.2-3.25,1.86a7.11,7.11,0,0,0,3.23,5.59m9.72,5.61c1.79,1,3.24.2,3.25-1.85a7.12,7.12,0,0,0-3.23-5.59c-1.79-1-3.24-.2-3.25,1.86a7.11,7.11,0,0,0,3.23,5.59m9.72,5.61c1.79,1,3.24.2,3.25-1.85a7.12,7.12,0,0,0-3.23-5.59c-1.79-1-3.24-.2-3.25,1.86a7.12,7.12,0,0,0,3.23,5.59"/><path d="M186.81,116.78a21.69,21.69,0,0,1,5.59,4.76,22,22,0,0,1,3.84,6.43,13.1,13.1,0,0,1,.89,4.51l0,14.89a4.39,4.39,0,0,0-2-3.44l-2-1.15,0-12.6a5.82,5.82,0,0,0-.41-2,11.31,11.31,0,0,0-1.26-2.38,14.8,14.8,0,0,0-4.66-4.39L11.43,20.12A7.38,7.38,0,0,0,7.68,19,2.57,2.57,0,0,0,5.47,20a2.77,2.77,0,0,0-.42,1.56L5,34.2,3,33c-1.1-.63-2-.12-2,1.14a4.39,4.39,0,0,0,2,3.45l2,1.15L4.7,148.16a5.82,5.82,0,0,0,.41,2,11.09,11.09,0,0,0,1.26,2.38A14.8,14.8,0,0,0,11,157L186.41,258.23a7.38,7.38,0,0,0,3.75,1.15,2.57,2.57,0,0,0,2.2-1.07,2.78,2.78,0,0,0,.42-1.56l.31-109.37,2,1.15c1.1.63,2,.12,2-1.14l-.32,111.67a6.31,6.31,0,0,1-.91,3.47,4.24,4.24,0,0,1-2.33,1.74c-1.91.59-4.41.12-7.13-1.45L11,161.56a21.67,21.67,0,0,1-5.59-4.76,22,22,0,0,1-3.84-6.43,13.14,13.14,0,0,1-.89-4.51L1.06,19.3A6.28,6.28,0,0,1,2,15.82,4.22,4.22,0,0,1,4.3,14.08c1.91-.59,4.41-.12,7.13,1.45Z"/><path class="cls-4" d="M5,38.79,4.7,148.16a5.81,5.81,0,0,0,.41,2,11.09,11.09,0,0,0,1.26,2.38A14.8,14.8,0,0,0,11,157L186.42,258.23a7.38,7.38,0,0,0,3.74,1.15,2.57,2.57,0,0,0,2.2-1.07,2.78,2.78,0,0,0,.42-1.56l.31-109.37Z"/><polygon points="19.25 85.58 19.23 92.41 10.04 94.61 19.19 107.48 19.17 114.27 5.38 95.21 5.4 88.75 19.25 85.58"/><path d="M45.76,109.3a26.36,26.36,0,0,1,.13,2.64l0,10.1a22,22,0,0,1-.35,4.11,8.84,8.84,0,0,1-1.07,2.95,2.69,2.69,0,0,1-2,1.35,4.77,4.77,0,0,1-3-.81q-2.5-1.44-5-5.67l0,12.44-6.34-3.66.12-41,6.34,3.66v2.37a5.1,5.1,0,0,1,5.37.26,9.44,9.44,0,0,1,2.57,2.24,12.05,12.05,0,0,1,1.72,2.8,18.35,18.35,0,0,1,1,3.14A24.66,24.66,0,0,1,45.76,109.3Zm-6.22,9.33,0-10.62a17.6,17.6,0,0,0-.1-2,12.14,12.14,0,0,0-.35-1.82,5,5,0,0,0-.74-1.6,3.6,3.6,0,0,0-1.12-1l-.08,0a3.32,3.32,0,0,0-2.63-.29l-.05,19.31a9.93,9.93,0,0,0,2.78,2.57,1.4,1.4,0,0,0,1.18.23,1.29,1.29,0,0,0,.69-.93,8.69,8.69,0,0,0,.3-1.62c.06-.59.08-1.31.09-2.18"/><path d="M63.48,114.48a19.36,19.36,0,0,1,2.12,9.24l0,10.18q0,5.21-2.16,6.77t-6.5-.95a16.15,16.15,0,0,1-6.44-6.52,19.43,19.43,0,0,1-2.1-9.23l0-10.18q0-5.2,2.14-6.78t6.45.92A16.36,16.36,0,0,1,63.48,114.48Zm-4.21,16.28,0-11.16c0-.64,0-1.18,0-1.62s-.07-.93-.15-1.48a5.63,5.63,0,0,0-.37-1.4,5.17,5.17,0,0,0-.68-1.12A3.67,3.67,0,0,0,57,113a1.78,1.78,0,0,0-1.26-.32,1.07,1.07,0,0,0-.7.82,7.06,7.06,0,0,0-.29,1.42c0,.49-.07,1.14-.07,2l0,11.16c0,.64,0,1.18,0,1.62a14.71,14.71,0,0,0,.15,1.47,5.46,5.46,0,0,0,.37,1.38,5,5,0,0,0,.68,1.12,3.67,3.67,0,0,0,1.06.91,1.86,1.86,0,0,0,1.26.34,1,1,0,0,0,.7-.81,7.14,7.14,0,0,0,.29-1.43c0-.49.07-1.13.07-2"/><path d="M80.66,121.67a6.4,6.4,0,0,1,.95.68l0,7.21a10.3,10.3,0,0,0-2.19-1.74,4,4,0,0,0-2.39-.6,3.29,3.29,0,0,0-2,1.26l-.06,21.13L68.59,146l.09-30.82L75,118.8v4.74a5.45,5.45,0,0,1,2.72-2.36A3.65,3.65,0,0,1,80.66,121.67Z"/><path d="M90.76,118.82l0,9.06,4.08,2.36V135l-4.08-2.36-.05,17.78a4.93,4.93,0,0,0,.57,2.51,5,5,0,0,0,1.85,1.76l.22.13a13.18,13.18,0,0,0,1.71.82l0,5.57a36.67,36.67,0,0,1-4-1.92l-.36-.22a13.25,13.25,0,0,1-3.11-2.5,10.64,10.64,0,0,1-2-3.08,15.81,15.81,0,0,1-1-3.4,22,22,0,0,1-.3-3.82l0-17.31-2.65-1.53v-4.82l2.65,1.53,0-9.06Z"/><path d="M105.25,125.23q1.29.75,3.46,2.29l0,5.41-.79-.6a10.3,10.3,0,0,0-.93-.66c-.75-.44-1.28-.46-1.59-.09a3.54,3.54,0,0,0-.46,2.12v2.37l3.76,2.17v5.18l-3.76-2.17-.07,25.64-6.32-3.65.07-25.64-2.9-1.67v-5.18l2.9,1.67v-1.64a29.39,29.39,0,0,1,.15-3.12,8.8,8.8,0,0,1,.54-2.25,2.26,2.26,0,0,1,1.13-1.34,3.19,3.19,0,0,1,1.93-.07A10.18,10.18,0,0,1,105.25,125.23Z"/><path d="M124.58,149.75A19.36,19.36,0,0,1,126.7,159l0,10.18q0,5.21-2.16,6.77T118,175a16.17,16.17,0,0,1-6.44-6.52,19.45,19.45,0,0,1-2.09-9.23l0-10.18q0-5.2,2.14-6.78t6.45.92A16.36,16.36,0,0,1,124.58,149.75ZM120.37,166l0-11.16c0-.64,0-1.19,0-1.62s-.07-.93-.15-1.48a5.63,5.63,0,0,0-.37-1.4,5.17,5.17,0,0,0-.68-1.12,3.68,3.68,0,0,0-1.06-.91,1.78,1.78,0,0,0-1.26-.32,1.07,1.07,0,0,0-.7.82,6.79,6.79,0,0,0-.29,1.42c0,.49-.07,1.14-.07,2l0,11.16c0,.64,0,1.18,0,1.62a14.79,14.79,0,0,0,.16,1.47,5.57,5.57,0,0,0,.37,1.38A5.1,5.1,0,0,0,117,169a3.65,3.65,0,0,0,1.06.91,1.86,1.86,0,0,0,1.26.34,1,1,0,0,0,.7-.81,7.15,7.15,0,0,0,.29-1.43c0-.49.07-1.13.07-2"/><polygon points="136.47 141.93 136.35 185.08 130 181.41 130.13 138.26 136.47 141.93"/><polygon points="140.26 145.44 146.63 149.12 146.61 155.26 140.25 151.59 140.26 145.44"/><polygon points="140.14 187.27 140.23 156.45 146.57 160.11 146.48 190.93 140.14 187.27"/><path d="M164.71,172.92a19.35,19.35,0,0,1,2.12,9.24l0,10.18q0,5.21-2.16,6.77t-6.5-.95a16.17,16.17,0,0,1-6.44-6.52,19.42,19.42,0,0,1-2.09-9.23l0-10.18q0-5.2,2.14-6.78t6.45.92A16.36,16.36,0,0,1,164.71,172.92Zm-4.21,16.27,0-11.16c0-.64,0-1.18,0-1.62s-.07-.93-.15-1.48a5.63,5.63,0,0,0-.37-1.4,5.37,5.37,0,0,0-.68-1.12,3.69,3.69,0,0,0-1.07-.91,1.77,1.77,0,0,0-1.26-.32,1.06,1.06,0,0,0-.71.82,7.05,7.05,0,0,0-.29,1.42q-.07.73-.07,2l0,11.16c0,.64,0,1.18,0,1.62a14.66,14.66,0,0,0,.15,1.47,5.58,5.58,0,0,0,.37,1.38,5,5,0,0,0,.68,1.12,3.68,3.68,0,0,0,1.06.91,1.85,1.85,0,0,0,1.26.34c.33-.07.56-.34.71-.8a7.17,7.17,0,0,0,.28-1.43c0-.49.07-1.13.07-2"/><polygon points="177.61 177.02 191.44 196.16 191.42 202.62 177.53 205.7 177.55 198.91 186.77 196.64 177.59 183.84 177.61 177.02"/></g></g></g></svg>