<svg xmlns="http://www.w3.org/2000/svg" xmlns:xlink="http://www.w3.org/1999/xlink" viewBox="0 0 243.66 267.57"><defs><style>.cls-1{fill:none;}.cls-2{fill:#16110d;}.cls-3{isolation:isolate;}.cls-4{fill:#fff;}.cls-5{fill:#ffbe2e;}.cls-6{fill:#fec;}.cls-7{clip-path:url(#clip-path);}</style><clipPath id="clip-path"><path class="cls-1" d="M35.24,1.7C32.51.13,30-.35,28.1.25a4.54,4.54,0,0,0-.92.4L3.38,14.48a4.54,4.54,0,0,1,.92-.4c1.91-.59,4.41-.12,7.13,1.45L186.81,116.78,210.62,103Z"/></clipPath></defs><title>Code Trckr</title><g id="Layer_2" data-name="Layer 2"><g id="Code"><g id="_Group_" data-name="&lt;Group&gt;"><path id="_Path_" data-name="&lt;Path&gt;" class="cls-2" d="M97.45,207.33a.74.74,0,0,1,0,1.4,2.68,2.68,0,0,1-2.42,0,.74.74,0,0,1,0-1.4A2.67,2.67,0,0,1,97.45,207.33Z"/><path id="_Path_2" data-name="&lt;Path&gt;" class="cls-2" d="M103.81,203.74a.74.74,0,0,1,0,1.4,2.67,2.67,0,0,1-2.42,0,.74.74,0,0,1,0-1.4A2.68,2.68,0,0,1,103.81,203.74Z"/><path id="_Path_3" data-name="&lt;Path&gt;" class="cls-2" d="M110.18,200.15a.74.74,0,0,1,0,1.4,2.67,2.67,0,0,1-2.42,0,.74.74,0,0,1,0-1.4A2.68,2.68,0,0,1,110.18,200.15Z"/><path id="_Path_4" data-name="&lt;Path&gt;" class="cls-2" d="M116.54,196.56a.74.74,0,0,1,0,1.4,2.67,2.67,0,0,1-2.42,0,.74.74,0,0,1,0-1.4A2.67,2.67,0,0,1,116.54,196.56Z"/><path id="_Path_5" data-name="&lt;Path&gt;" class="cls-2" d="M122.9,193a.74.74,0,0,1,0,1.4,2.67,2.67,0,0,1-2.42,0,.74.74,0,0,1,0-1.4A2.67,2.67,0,0,1,122.9,193Z"/><path id="_Path_6" data-name="&lt;Path&gt;" class="cls-2" d="M129.26,189.37a.74.74,0,0,1,0,1.4,2.67,2.67,0,0,1-2.42,0,.74.74,0,0,1,0-1.4A2.68,2.68,0,0,1,129.26,189.37Z"/><path id="_Path_7" data-name="&lt;Path&gt;" class="cls-2" d="M135.63,185.78a.74.74,0,0,1,0,1.4,2.68,2.68,0,0,1-2.42,0,.74.74,0,0,1,0-1.4A2.68,2.68,0,0,1,135.63,185.78Z"/><path id="_Path_8" data-name="&lt;Path&gt;" class="cls-2" d="M142,182.19a.74.74,0,0,1,0,1.4,2.68,2.68,0,0,1-2.42,0,.74.74,0,0,1,0-1.4A2.67,2.67,0,0,1,142,182.19Z"/><path id="_Path_9" data-name="&lt;Path&gt;" class="cls-2" d="M91.16,203.62a.74.74,0,0,1,0,1.4,2.67,2.67,0,0,1-2.42,0,.74.74,0,0,1,0-1.4A2.68,2.68,0,0,1,91.16,203.62Z"/><path id="_Path_10" data-name="&lt;Path&gt;" class="cls-2" d="M97.52,200a.74.74,0,0,1,0,1.4,2.67,2.67,0,0,1-2.42,0,.74.74,0,0,1,0-1.4A2.68,2.68,0,0,1,97.52,200Z"/><path id="_Path_11" data-name="&lt;Path&gt;" class="cls-2" d="M103.88,196.44a.74.74,0,0,1,0,1.4,2.67,2.67,0,0,1-2.42,0,.74.74,0,0,1,0-1.4A2.67,2.67,0,0,1,103.88,196.44Z"/><path id="_Path_12" data-name="&lt;Path&gt;" class="cls-2" d="M110.25,192.84a.74.74,0,0,1,0,1.4,2.67,2.67,0,0,1-2.42,0,.74.74,0,0,1,0-1.4A2.67,2.67,0,0,1,110.25,192.84Z"/><path id="_Path_13" data-name="&lt;Path&gt;" class="cls-2" d="M116.61,189.25a.74.74,0,0,1,0,1.4,2.67,2.67,0,0,1-2.42,0,.74.74,0,0,1,0-1.4A2.68,2.68,0,0,1,116.61,189.25Z"/><path id="_Path_14" data-name="&lt;Path&gt;" class="cls-2" d="M123,185.66a.74.74,0,0,1,0,1.4,2.68,2.68,0,0,1-2.42,0,.74.74,0,0,1,0-1.4A2.67,2.67,0,0,1,123,185.66Z"/><path id="_Path_15" data-name="&lt;Path&gt;" class="cls-2" d="M129.33,182.07a.74.74,0,0,1,0,1.4,2.67,2.67,0,0,1-2.42,0,.74.74,0,0,1,0-1.4A2.67,2.67,0,0,1,129.33,182.07Z"/><path id="_Path_16" data-name="&lt;Path&gt;" class="cls-2" d="M135.7,178.47a.74.74,0,0,1,0,1.4,2.67,2.67,0,0,1-2.42,0,.74.74,0,0,1,0-1.4A2.67,2.67,0,0,1,135.7,178.47Z"/><path id="_Path_17" data-name="&lt;Path&gt;" class="cls-2" d="M84.86,199.91a.74.74,0,0,1,0,1.4,2.67,2.67,0,0,1-2.42,0,.74.74,0,0,1,0-1.4A2.68,2.68,0,0,1,84.86,199.91Z"/><path id="_Path_18" data-name="&lt;Path&gt;" class="cls-2" d="M91.23,196.31a.74.74,0,0,1,0,1.4,2.67,2.67,0,0,1-2.42,0,.74.74,0,0,1,0-1.4A2.67,2.67,0,0,1,91.23,196.31Z"/><path id="_Path_19" data-name="&lt;Path&gt;" class="cls-2" d="M97.59,192.72a.74.74,0,0,1,0,1.4,2.67,2.67,0,0,1-2.42,0,.74.74,0,0,1,0-1.4A2.68,2.68,0,0,1,97.59,192.72Z"/><path id="_Path_20" data-name="&lt;Path&gt;" class="cls-2" d="M104,189.13a.74.74,0,0,1,0,1.4,2.68,2.68,0,0,1-2.42,0,.74.74,0,0,1,0-1.4A2.68,2.68,0,0,1,104,189.13Z"/><path id="_Path_21" data-name="&lt;Path&gt;" class="cls-2" d="M110.32,185.54a.74.74,0,0,1,0,1.4,2.68,2.68,0,0,1-2.42,0,.74.74,0,0,1,0-1.4A2.67,2.67,0,0,1,110.32,185.54Z"/><path id="_Path_22" data-name="&lt;Path&gt;" class="cls-2" d="M116.68,181.94a.74.74,0,0,1,0,1.4,2.67,2.67,0,0,1-2.42,0,.74.74,0,0,1,0-1.4A2.67,2.67,0,0,1,116.68,181.94Z"/><path id="_Path_23" data-name="&lt;Path&gt;" class="cls-2" d="M123,178.35a.74.74,0,0,1,0,1.4,2.67,2.67,0,0,1-2.42,0,.74.74,0,0,1,0-1.4A2.67,2.67,0,0,1,123,178.35Z"/><path id="_Path_24" data-name="&lt;Path&gt;" class="cls-2" d="M129.4,174.76a.74.74,0,0,1,0,1.4,2.68,2.68,0,0,1-2.42,0,.74.74,0,0,1,0-1.4A2.67,2.67,0,0,1,129.4,174.76Z"/><path id="_Path_25" data-name="&lt;Path&gt;" class="cls-2" d="M78.57,196.19a.74.74,0,0,1,0,1.4,2.67,2.67,0,0,1-2.42,0,.74.74,0,0,1,0-1.4A2.67,2.67,0,0,1,78.57,196.19Z"/><path id="_Path_26" data-name="&lt;Path&gt;" class="cls-2" d="M84.93,192.6a.74.74,0,0,1,0,1.4,2.67,2.67,0,0,1-2.42,0,.74.74,0,0,1,0-1.4A2.68,2.68,0,0,1,84.93,192.6Z"/><path id="_Path_27" data-name="&lt;Path&gt;" class="cls-2" d="M91.3,189a.74.74,0,0,1,0,1.4,2.68,2.68,0,0,1-2.42,0,.74.74,0,0,1,0-1.4A2.68,2.68,0,0,1,91.3,189Z"/><path id="_Path_28" data-name="&lt;Path&gt;" class="cls-2" d="M97.66,185.42a.74.74,0,0,1,0,1.4,2.68,2.68,0,0,1-2.42,0,.74.74,0,0,1,0-1.4A2.67,2.67,0,0,1,97.66,185.42Z"/><path id="_Path_29" data-name="&lt;Path&gt;" class="cls-2" d="M104,181.82a.74.74,0,0,1,0,1.4,2.67,2.67,0,0,1-2.42,0,.74.74,0,0,1,0-1.4A2.67,2.67,0,0,1,104,181.82Z"/><path id="_Path_30" data-name="&lt;Path&gt;" class="cls-2" d="M110.39,178.23a.74.74,0,0,1,0,1.4,2.68,2.68,0,0,1-2.42,0,.74.74,0,0,1,0-1.4A2.67,2.67,0,0,1,110.39,178.23Z"/><path id="_Path_31" data-name="&lt;Path&gt;" class="cls-2" d="M116.75,174.64a.74.74,0,0,1,0,1.4,2.68,2.68,0,0,1-2.42,0,.74.74,0,0,1,0-1.4A2.67,2.67,0,0,1,116.75,174.64Z"/><path id="_Path_32" data-name="&lt;Path&gt;" class="cls-2" d="M123.11,171a.74.74,0,0,1,0,1.4,2.67,2.67,0,0,1-2.42,0,.74.74,0,0,1,0-1.4A2.67,2.67,0,0,1,123.11,171Z"/><path id="_Path_33" data-name="&lt;Path&gt;" class="cls-2" d="M72.28,192.48a.74.74,0,0,1,0,1.4,2.68,2.68,0,0,1-2.42,0,.74.74,0,0,1,0-1.4A2.68,2.68,0,0,1,72.28,192.48Z"/><path id="_Path_34" data-name="&lt;Path&gt;" class="cls-2" d="M78.64,188.89a.74.74,0,0,1,0,1.4,2.68,2.68,0,0,1-2.42,0,.74.74,0,0,1,0-1.4A2.67,2.67,0,0,1,78.64,188.89Z"/><path id="_Path_35" data-name="&lt;Path&gt;" class="cls-2" d="M85,185.29a.74.74,0,0,1,0,1.4,2.67,2.67,0,0,1-2.42,0,.74.74,0,0,1,0-1.4A2.67,2.67,0,0,1,85,185.29Z"/><path id="_Path_36" data-name="&lt;Path&gt;" class="cls-2" d="M91.37,181.7a.74.74,0,0,1,0,1.4,2.67,2.67,0,0,1-2.42,0,.74.74,0,0,1,0-1.4A2.67,2.67,0,0,1,91.37,181.7Z"/><path id="_Path_37" data-name="&lt;Path&gt;" class="cls-2" d="M97.73,178.11a.74.74,0,0,1,0,1.4,2.68,2.68,0,0,1-2.42,0,.74.74,0,0,1,0-1.4A2.67,2.67,0,0,1,97.73,178.11Z"/><path id="_Path_38" data-name="&lt;Path&gt;" class="cls-2" d="M104.09,174.52a.74.74,0,0,1,0,1.4,2.68,2.68,0,0,1-2.42,0,.74.74,0,0,1,0-1.4A2.67,2.67,0,0,1,104.09,174.52Z"/><path id="_Path_39" data-name="&lt;Path&gt;" class="cls-2" d="M110.46,170.92a.74.74,0,0,1,0,1.4,2.67,2.67,0,0,1-2.42,0,.74.74,0,0,1,0-1.4A2.68,2.68,0,0,1,110.46,170.92Z"/><path id="_Path_40" data-name="&lt;Path&gt;" class="cls-2" d="M116.82,167.33a.74.74,0,0,1,0,1.4,2.67,2.67,0,0,1-2.42,0,.74.74,0,0,1,0-1.4A2.68,2.68,0,0,1,116.82,167.33Z"/><path id="_Path_41" data-name="&lt;Path&gt;" class="cls-2" d="M65.93,188.73a.74.74,0,0,1,0,1.4,2.67,2.67,0,0,1-2.42,0,.74.74,0,0,1,0-1.4A2.68,2.68,0,0,1,65.93,188.73Z"/><path id="_Path_42" data-name="&lt;Path&gt;" class="cls-2" d="M72.3,185.13a.74.74,0,0,1,0,1.4,2.67,2.67,0,0,1-2.42,0,.74.74,0,0,1,0-1.4A2.68,2.68,0,0,1,72.3,185.13Z"/><path id="_Path_43" data-name="&lt;Path&gt;" class="cls-2" d="M78.66,181.54a.74.74,0,0,1,0,1.4,2.67,2.67,0,0,1-2.42,0,.74.74,0,0,1,0-1.4A2.67,2.67,0,0,1,78.66,181.54Z"/><path id="_Path_44" data-name="&lt;Path&gt;" class="cls-2" d="M85,177.95a.74.74,0,0,1,0,1.4,2.67,2.67,0,0,1-2.42,0,.74.74,0,0,1,0-1.4A2.67,2.67,0,0,1,85,177.95Z"/><path id="_Path_45" data-name="&lt;Path&gt;" class="cls-2" d="M91.38,174.36a.74.74,0,0,1,0,1.4,2.67,2.67,0,0,1-2.42,0,.74.74,0,0,1,0-1.4A2.68,2.68,0,0,1,91.38,174.36Z"/><path id="_Path_46" data-name="&lt;Path&gt;" class="cls-2" d="M97.75,170.76a.74.74,0,0,1,0,1.4,2.68,2.68,0,0,1-2.42,0,.74.74,0,0,1,0-1.4A2.68,2.68,0,0,1,97.75,170.76Z"/><path id="_Path_47" data-name="&lt;Path&gt;" class="cls-2" d="M104.11,167.17a.74.74,0,0,1,0,1.4,2.68,2.68,0,0,1-2.42,0,.74.74,0,0,1,0-1.4A2.67,2.67,0,0,1,104.11,167.17Z"/><path id="_Path_48" data-name="&lt;Path&gt;" class="cls-2" d="M110.47,163.58a.74.74,0,0,1,0,1.4,2.67,2.67,0,0,1-2.42,0,.74.74,0,0,1,0-1.4A2.67,2.67,0,0,1,110.47,163.58Z"/><path id="_Path_49" data-name="&lt;Path&gt;" class="cls-2" d="M59.64,185a.74.74,0,0,1,0,1.4,2.67,2.67,0,0,1-2.42,0,.74.74,0,0,1,0-1.4A2.68,2.68,0,0,1,59.64,185Z"/><path id="_Path_50" data-name="&lt;Path&gt;" class="cls-2" d="M66,181.42a.74.74,0,0,1,0,1.4,2.67,2.67,0,0,1-2.42,0,.74.74,0,0,1,0-1.4A2.67,2.67,0,0,1,66,181.42Z"/><path id="_Path_51" data-name="&lt;Path&gt;" class="cls-2" d="M72.37,177.83a.74.74,0,0,1,0,1.4,2.67,2.67,0,0,1-2.42,0,.74.74,0,0,1,0-1.4A2.67,2.67,0,0,1,72.37,177.83Z"/><path id="_Path_52" data-name="&lt;Path&gt;" class="cls-2" d="M78.73,174.23a.74.74,0,0,1,0,1.4,2.67,2.67,0,0,1-2.42,0,.74.74,0,0,1,0-1.4A2.68,2.68,0,0,1,78.73,174.23Z"/><path id="_Path_53" data-name="&lt;Path&gt;" class="cls-2" d="M85.09,170.64a.74.74,0,0,1,0,1.4,2.68,2.68,0,0,1-2.42,0,.74.74,0,0,1,0-1.4A2.68,2.68,0,0,1,85.09,170.64Z"/><path id="_Path_54" data-name="&lt;Path&gt;" class="cls-2" d="M91.45,167a.74.74,0,0,1,0,1.4,2.68,2.68,0,0,1-2.42,0,.74.74,0,0,1,0-1.4A2.67,2.67,0,0,1,91.45,167Z"/><path id="_Path_55" data-name="&lt;Path&gt;" class="cls-2" d="M97.82,163.46a.74.74,0,0,1,0,1.4,2.67,2.67,0,0,1-2.42,0,.74.74,0,0,1,0-1.4A2.67,2.67,0,0,1,97.82,163.46Z"/><path id="_Path_56" data-name="&lt;Path&gt;" class="cls-2" d="M104.18,159.86a.74.74,0,0,1,0,1.4,2.68,2.68,0,0,1-2.42,0,.74.74,0,0,1,0-1.4A2.67,2.67,0,0,1,104.18,159.86Z"/><path id="_Path_57" data-name="&lt;Path&gt;" class="cls-2" d="M53.35,181.3a.74.74,0,0,1,0,1.4,2.67,2.67,0,0,1-2.42,0,.74.74,0,0,1,0-1.4A2.67,2.67,0,0,1,53.35,181.3Z"/><path id="_Path_58" data-name="&lt;Path&gt;" class="cls-2" d="M59.71,177.7a.74.74,0,0,1,0,1.4,2.67,2.67,0,0,1-2.42,0,.74.74,0,0,1,0-1.4A2.68,2.68,0,0,1,59.71,177.7Z"/><path id="_Path_59" data-name="&lt;Path&gt;" class="cls-2" d="M66.07,174.11a.74.74,0,0,1,0,1.4,2.68,2.68,0,0,1-2.42,0,.74.74,0,0,1,0-1.4A2.68,2.68,0,0,1,66.07,174.11Z"/><path id="_Path_60" data-name="&lt;Path&gt;" class="cls-2" d="M72.44,170.52a.74.74,0,0,1,0,1.4,2.68,2.68,0,0,1-2.42,0,.74.74,0,0,1,0-1.4A2.67,2.67,0,0,1,72.44,170.52Z"/><path id="_Path_61" data-name="&lt;Path&gt;" class="cls-2" d="M78.8,166.93a.74.74,0,0,1,0,1.4,2.67,2.67,0,0,1-2.42,0,.74.74,0,0,1,0-1.4A2.67,2.67,0,0,1,78.8,166.93Z"/><path id="_Path_62" data-name="&lt;Path&gt;" class="cls-2" d="M85.16,163.34a.74.74,0,0,1,0,1.4,2.67,2.67,0,0,1-2.42,0,.74.74,0,0,1,0-1.4A2.67,2.67,0,0,1,85.16,163.34Z"/><path id="_Path_63" data-name="&lt;Path&gt;" class="cls-2" d="M91.52,159.74a.74.74,0,0,1,0,1.4,2.68,2.68,0,0,1-2.42,0,.74.74,0,0,1,0-1.4A2.67,2.67,0,0,1,91.52,159.74Z"/><path id="_Path_64" data-name="&lt;Path&gt;" class="cls-2" d="M97.89,156.15a.74.74,0,0,1,0,1.4,2.68,2.68,0,0,1-2.42,0,.74.74,0,0,1,0-1.4A2.67,2.67,0,0,1,97.89,156.15Z"/><path id="_Path_65" data-name="&lt;Path&gt;" class="cls-2" d="M47.06,177.58a.74.74,0,0,1,0,1.4,2.67,2.67,0,0,1-2.42,0,.74.74,0,0,1,0-1.4A2.68,2.68,0,0,1,47.06,177.58Z"/><path id="_Path_66" data-name="&lt;Path&gt;" class="cls-2" d="M53.42,174a.74.74,0,0,1,0,1.4,2.68,2.68,0,0,1-2.42,0,.74.74,0,0,1,0-1.4A2.68,2.68,0,0,1,53.42,174Z"/><path id="_Path_67" data-name="&lt;Path&gt;" class="cls-2" d="M59.78,170.4a.74.74,0,0,1,0,1.4,2.68,2.68,0,0,1-2.42,0,.74.74,0,0,1,0-1.4A2.67,2.67,0,0,1,59.78,170.4Z"/><path id="_Path_68" data-name="&lt;Path&gt;" class="cls-2" d="M66.14,166.81a.74.74,0,0,1,0,1.4,2.67,2.67,0,0,1-2.42,0,.74.74,0,0,1,0-1.4A2.67,2.67,0,0,1,66.14,166.81Z"/><path id="_Path_69" data-name="&lt;Path&gt;" class="cls-2" d="M72.51,163.21a.74.74,0,0,1,0,1.4,2.68,2.68,0,0,1-2.42,0,.74.74,0,0,1,0-1.4A2.67,2.67,0,0,1,72.51,163.21Z"/><path id="_Path_70" data-name="&lt;Path&gt;" class="cls-2" d="M78.87,159.62a.74.74,0,0,1,0,1.4,2.68,2.68,0,0,1-2.42,0,.74.74,0,0,1,0-1.4A2.67,2.67,0,0,1,78.87,159.62Z"/><path id="_Path_71" data-name="&lt;Path&gt;" class="cls-2" d="M85.23,156a.74.74,0,0,1,0,1.4,2.67,2.67,0,0,1-2.42,0,.74.74,0,0,1,0-1.4A2.67,2.67,0,0,1,85.23,156Z"/><path id="_Path_72" data-name="&lt;Path&gt;" class="cls-2" d="M91.59,152.44a.74.74,0,0,1,0,1.4,2.67,2.67,0,0,1-2.42,0,.74.74,0,0,1,0-1.4A2.68,2.68,0,0,1,91.59,152.44Z"/><path id="_Path_73" data-name="&lt;Path&gt;" class="cls-2" d="M40.76,173.87a.74.74,0,0,1,0,1.4,2.68,2.68,0,0,1-2.42,0,.74.74,0,0,1,0-1.4A2.67,2.67,0,0,1,40.76,173.87Z"/><path id="_Path_74" data-name="&lt;Path&gt;" class="cls-2" d="M47.13,170.28a.74.74,0,0,1,0,1.4,2.67,2.67,0,0,1-2.42,0,.74.74,0,0,1,0-1.4A2.67,2.67,0,0,1,47.13,170.28Z"/><path id="_Path_75" data-name="&lt;Path&gt;" class="cls-2" d="M53.49,166.68a.74.74,0,0,1,0,1.4,2.67,2.67,0,0,1-2.42,0,.74.74,0,0,1,0-1.4A2.67,2.67,0,0,1,53.49,166.68Z"/><path id="_Path_76" data-name="&lt;Path&gt;" class="cls-2" d="M59.85,163.09a.74.74,0,0,1,0,1.4,2.68,2.68,0,0,1-2.42,0,.74.74,0,0,1,0-1.4A2.67,2.67,0,0,1,59.85,163.09Z"/><path id="_Path_77" data-name="&lt;Path&gt;" class="cls-2" d="M66.21,159.5a.74.74,0,0,1,0,1.4,2.68,2.68,0,0,1-2.42,0,.74.74,0,0,1,0-1.4A2.67,2.67,0,0,1,66.21,159.5Z"/><path id="_Path_78" data-name="&lt;Path&gt;" class="cls-2" d="M72.58,155.91a.74.74,0,0,1,0,1.4,2.67,2.67,0,0,1-2.42,0,.74.74,0,0,1,0-1.4A2.67,2.67,0,0,1,72.58,155.91Z"/><path id="_Path_79" data-name="&lt;Path&gt;" class="cls-2" d="M78.94,152.31a.74.74,0,0,1,0,1.4,2.67,2.67,0,0,1-2.42,0,.74.74,0,0,1,0-1.4A2.68,2.68,0,0,1,78.94,152.31Z"/><path id="_Path_80" data-name="&lt;Path&gt;" class="cls-2" d="M85.3,148.72a.74.74,0,0,1,0,1.4,2.67,2.67,0,0,1-2.42,0,.74.74,0,0,1,0-1.4A2.68,2.68,0,0,1,85.3,148.72Z"/><path id="_Path_81" data-name="&lt;Path&gt;" class="cls-2" d="M34.47,170.16a.74.74,0,0,1,0,1.4,2.67,2.67,0,0,1-2.42,0,.74.74,0,0,1,0-1.4A2.67,2.67,0,0,1,34.47,170.16Z"/><path id="_Path_82" data-name="&lt;Path&gt;" class="cls-2" d="M40.83,166.56a.74.74,0,0,1,0,1.4,2.67,2.67,0,0,1-2.42,0,.74.74,0,0,1,0-1.4A2.67,2.67,0,0,1,40.83,166.56Z"/><path id="_Path_83" data-name="&lt;Path&gt;" class="cls-2" d="M47.2,163a.74.74,0,0,1,0,1.4,2.68,2.68,0,0,1-2.42,0,.74.74,0,0,1,0-1.4A2.67,2.67,0,0,1,47.2,163Z"/><path id="_Path_84" data-name="&lt;Path&gt;" class="cls-2" d="M53.56,159.38a.74.74,0,0,1,0,1.4,2.67,2.67,0,0,1-2.42,0,.74.74,0,0,1,0-1.4A2.67,2.67,0,0,1,53.56,159.38Z"/><path id="_Path_85" data-name="&lt;Path&gt;" class="cls-2" d="M59.92,155.79a.74.74,0,0,1,0,1.4,2.67,2.67,0,0,1-2.42,0,.74.74,0,0,1,0-1.4A2.68,2.68,0,0,1,59.92,155.79Z"/><path id="_Path_86" data-name="&lt;Path&gt;" class="cls-2" d="M66.28,152.19a.74.74,0,0,1,0,1.4,2.67,2.67,0,0,1-2.42,0,.74.74,0,0,1,0-1.4A2.68,2.68,0,0,1,66.28,152.19Z"/><path id="_Path_87" data-name="&lt;Path&gt;" class="cls-2" d="M72.65,148.6a.74.74,0,0,1,0,1.4,2.67,2.67,0,0,1-2.42,0,.74.74,0,0,1,0-1.4A2.67,2.67,0,0,1,72.65,148.6Z"/><path id="_Path_88" data-name="&lt;Path&gt;" class="cls-2" d="M79,145a.74.74,0,0,1,0,1.4,2.67,2.67,0,0,1-2.42,0,.74.74,0,0,1,0-1.4A2.67,2.67,0,0,1,79,145Z"/><path id="_Path_89" data-name="&lt;Path&gt;" class="cls-2" d="M28.18,166.44a.74.74,0,0,1,0,1.4,2.68,2.68,0,0,1-2.42,0,.74.74,0,0,1,0-1.4A2.67,2.67,0,0,1,28.18,166.44Z"/><path id="_Path_90" data-name="&lt;Path&gt;" class="cls-2" d="M34.54,162.85a.74.74,0,0,1,0,1.4,2.68,2.68,0,0,1-2.42,0,.74.74,0,0,1,0-1.4A2.67,2.67,0,0,1,34.54,162.85Z"/><path id="_Path_91" data-name="&lt;Path&gt;" class="cls-2" d="M40.9,159.26a.74.74,0,0,1,0,1.4,2.67,2.67,0,0,1-2.42,0,.74.74,0,0,1,0-1.4A2.67,2.67,0,0,1,40.9,159.26Z"/><path id="_Path_92" data-name="&lt;Path&gt;" class="cls-2" d="M47.27,155.66a.74.74,0,0,1,0,1.4,2.67,2.67,0,0,1-2.42,0,.74.74,0,0,1,0-1.4A2.68,2.68,0,0,1,47.27,155.66Z"/><path id="_Path_93" data-name="&lt;Path&gt;" class="cls-2" d="M53.63,152.07a.74.74,0,0,1,0,1.4,2.67,2.67,0,0,1-2.42,0,.74.74,0,0,1,0-1.4A2.68,2.68,0,0,1,53.63,152.07Z"/><path id="_Path_94" data-name="&lt;Path&gt;" class="cls-2" d="M60,148.48a.74.74,0,0,1,0,1.4,2.67,2.67,0,0,1-2.42,0,.74.74,0,0,1,0-1.4A2.67,2.67,0,0,1,60,148.48Z"/><path id="_Path_95" data-name="&lt;Path&gt;" class="cls-2" d="M66.35,144.89a.74.74,0,0,1,0,1.4,2.67,2.67,0,0,1-2.42,0,.74.74,0,0,1,0-1.4A2.68,2.68,0,0,1,66.35,144.89Z"/><path id="_Path_96" data-name="&lt;Path&gt;" class="cls-2" d="M72.72,141.29a.74.74,0,0,1,0,1.4,2.68,2.68,0,0,1-2.42,0,.74.74,0,0,1,0-1.4A2.68,2.68,0,0,1,72.72,141.29Z"/><path id="_Path_97" data-name="&lt;Path&gt;" class="cls-2" d="M21.89,162.73a.74.74,0,0,1,0,1.4,2.68,2.68,0,0,1-2.42,0,.74.74,0,0,1,0-1.4A2.67,2.67,0,0,1,21.89,162.73Z"/><path id="_Path_98" data-name="&lt;Path&gt;" class="cls-2" d="M28.25,159.13a.74.74,0,0,1,0,1.4,2.67,2.67,0,0,1-2.42,0,.74.74,0,0,1,0-1.4A2.68,2.68,0,0,1,28.25,159.13Z"/><path id="_Path_99" data-name="&lt;Path&gt;" class="cls-2" d="M34.61,155.54a.74.74,0,0,1,0,1.4,2.67,2.67,0,0,1-2.42,0,.74.74,0,0,1,0-1.4A2.68,2.68,0,0,1,34.61,155.54Z"/><path id="_Path_100" data-name="&lt;Path&gt;" class="cls-2" d="M41,151.95a.74.74,0,0,1,0,1.4,2.67,2.67,0,0,1-2.42,0,.74.74,0,0,1,0-1.4A2.67,2.67,0,0,1,41,151.95Z"/><path id="_Path_101" data-name="&lt;Path&gt;" class="cls-2" d="M47.34,148.36a.74.74,0,0,1,0,1.4,2.67,2.67,0,0,1-2.42,0,.74.74,0,0,1,0-1.4A2.67,2.67,0,0,1,47.34,148.36Z"/><path id="_Path_102" data-name="&lt;Path&gt;" class="cls-2" d="M53.7,144.76a.74.74,0,0,1,0,1.4,2.67,2.67,0,0,1-2.42,0,.74.74,0,0,1,0-1.4A2.68,2.68,0,0,1,53.7,144.76Z"/><path id="_Path_103" data-name="&lt;Path&gt;" class="cls-2" d="M60.06,141.17a.74.74,0,0,1,0,1.4,2.68,2.68,0,0,1-2.42,0,.74.74,0,0,1,0-1.4A2.68,2.68,0,0,1,60.06,141.17Z"/><path id="_Path_104" data-name="&lt;Path&gt;" class="cls-2" d="M66.42,137.58a.74.74,0,0,1,0,1.4A2.68,2.68,0,0,1,64,139a.74.74,0,0,1,0-1.4A2.67,2.67,0,0,1,66.42,137.58Z"/><path id="_Path_105" data-name="&lt;Path&gt;" class="cls-2" d="M15.54,159a.74.74,0,0,1,0,1.4,2.68,2.68,0,0,1-2.42,0,.74.74,0,0,1,0-1.4A2.68,2.68,0,0,1,15.54,159Z"/><path id="_Path_106" data-name="&lt;Path&gt;" class="cls-2" d="M21.9,155.38a.74.74,0,0,1,0,1.4,2.68,2.68,0,0,1-2.42,0,.74.74,0,0,1,0-1.4A2.67,2.67,0,0,1,21.9,155.38Z"/><path id="_Path_107" data-name="&lt;Path&gt;" class="cls-2" d="M28.26,151.79a.74.74,0,0,1,0,1.4,2.67,2.67,0,0,1-2.42,0,.74.74,0,0,1,0-1.4A2.67,2.67,0,0,1,28.26,151.79Z"/><path id="_Path_108" data-name="&lt;Path&gt;" class="cls-2" d="M34.63,148.2a.74.74,0,0,1,0,1.4,2.68,2.68,0,0,1-2.42,0,.74.74,0,0,1,0-1.4A2.67,2.67,0,0,1,34.63,148.2Z"/><path id="_Path_109" data-name="&lt;Path&gt;" class="cls-2" d="M41,144.6a.74.74,0,0,1,0,1.4,2.68,2.68,0,0,1-2.42,0,.74.74,0,0,1,0-1.4A2.67,2.67,0,0,1,41,144.6Z"/><path id="_Path_110" data-name="&lt;Path&gt;" class="cls-2" d="M47.35,141a.74.74,0,0,1,0,1.4,2.67,2.67,0,0,1-2.42,0,.74.74,0,0,1,0-1.4A2.67,2.67,0,0,1,47.35,141Z"/><path id="_Path_111" data-name="&lt;Path&gt;" class="cls-2" d="M53.72,137.42a.74.74,0,0,1,0,1.4,2.67,2.67,0,0,1-2.42,0,.74.74,0,0,1,0-1.4A2.68,2.68,0,0,1,53.72,137.42Z"/><path id="_Path_112" data-name="&lt;Path&gt;" class="cls-2" d="M60.08,133.83a.74.74,0,0,1,0,1.4,2.67,2.67,0,0,1-2.42,0,.74.74,0,0,1,0-1.4A2.68,2.68,0,0,1,60.08,133.83Z"/><path id="_Path_113" data-name="&lt;Path&gt;" class="cls-2" d="M9.25,155.26a.74.74,0,0,1,0,1.4,2.67,2.67,0,0,1-2.42,0,.74.74,0,0,1,0-1.4A2.67,2.67,0,0,1,9.25,155.26Z"/><path id="_Path_114" data-name="&lt;Path&gt;" class="cls-2" d="M15.61,151.67a.74.74,0,0,1,0,1.4,2.67,2.67,0,0,1-2.42,0,.74.74,0,0,1,0-1.4A2.67,2.67,0,0,1,15.61,151.67Z"/><path id="_Path_115" data-name="&lt;Path&gt;" class="cls-2" d="M22,148.08a.74.74,0,0,1,0,1.4,2.68,2.68,0,0,1-2.42,0,.74.74,0,0,1,0-1.4A2.67,2.67,0,0,1,22,148.08Z"/><path id="_Path_116" data-name="&lt;Path&gt;" class="cls-2" d="M28.33,144.48a.74.74,0,0,1,0,1.4,2.68,2.68,0,0,1-2.42,0,.74.74,0,0,1,0-1.4A2.67,2.67,0,0,1,28.33,144.48Z"/><path id="_Path_117" data-name="&lt;Path&gt;" class="cls-2" d="M34.7,140.89a.74.74,0,0,1,0,1.4,2.67,2.67,0,0,1-2.42,0,.74.74,0,0,1,0-1.4A2.67,2.67,0,0,1,34.7,140.89Z"/><path id="_Path_118" data-name="&lt;Path&gt;" class="cls-2" d="M41.06,137.3a.74.74,0,0,1,0,1.4,2.67,2.67,0,0,1-2.42,0,.74.74,0,0,1,0-1.4A2.68,2.68,0,0,1,41.06,137.3Z"/><path id="_Path_119" data-name="&lt;Path&gt;" class="cls-2" d="M47.42,133.71a.74.74,0,0,1,0,1.4,2.67,2.67,0,0,1-2.42,0,.74.74,0,0,1,0-1.4A2.68,2.68,0,0,1,47.42,133.71Z"/><path id="_Path_120" data-name="&lt;Path&gt;" class="cls-2" d="M53.79,130.11a.74.74,0,0,1,0,1.4,2.67,2.67,0,0,1-2.42,0,.74.74,0,0,1,0-1.4A2.67,2.67,0,0,1,53.79,130.11Z"/><path id="_Path_121" data-name="&lt;Path&gt;" class="cls-2" d="M9.32,148a.74.74,0,0,1,0,1.4,2.68,2.68,0,0,1-2.42,0,.74.74,0,0,1,0-1.4A2.67,2.67,0,0,1,9.32,148Z"/><path id="_Path_122" data-name="&lt;Path&gt;" class="cls-2" d="M15.68,144.36a.74.74,0,0,1,0,1.4,2.68,2.68,0,0,1-2.42,0,.74.74,0,0,1,0-1.4A2.67,2.67,0,0,1,15.68,144.36Z"/><path id="_Path_123" data-name="&lt;Path&gt;" class="cls-2" d="M22,140.77a.74.74,0,0,1,0,1.4,2.67,2.67,0,0,1-2.42,0,.74.74,0,0,1,0-1.4A2.68,2.68,0,0,1,22,140.77Z"/><path id="_Path_124" data-name="&lt;Path&gt;" class="cls-2" d="M28.4,137.18a.74.74,0,0,1,0,1.4,2.67,2.67,0,0,1-2.42,0,.74.74,0,0,1,0-1.4A2.68,2.68,0,0,1,28.4,137.18Z"/><path id="_Path_125" data-name="&lt;Path&gt;" class="cls-2" d="M34.77,133.58a.74.74,0,0,1,0,1.4,2.67,2.67,0,0,1-2.42,0,.74.74,0,0,1,0-1.4A2.67,2.67,0,0,1,34.77,133.58Z"/><path id="_Path_126" data-name="&lt;Path&gt;" class="cls-2" d="M41.13,130a.74.74,0,0,1,0,1.4,2.67,2.67,0,0,1-2.42,0,.74.74,0,0,1,0-1.4A2.67,2.67,0,0,1,41.13,130Z"/><path id="_Path_127" data-name="&lt;Path&gt;" class="cls-2" d="M116.65,210.59a.74.74,0,0,1,0,1.4,2.68,2.68,0,0,1-2.42,0,.74.74,0,0,1,0-1.4A2.67,2.67,0,0,1,116.65,210.59Z"/><path id="_Path_128" data-name="&lt;Path&gt;" class="cls-2" d="M123,207a.74.74,0,0,1,0,1.4,2.67,2.67,0,0,1-2.42,0,.74.74,0,0,1,0-1.4A2.67,2.67,0,0,1,123,207Z"/><path id="_Path_129" data-name="&lt;Path&gt;" class="cls-2" d="M129.38,203.4a.74.74,0,0,1,0,1.4,2.68,2.68,0,0,1-2.42,0,.74.74,0,0,1,0-1.4A2.67,2.67,0,0,1,129.38,203.4Z"/><path id="_Path_130" data-name="&lt;Path&gt;" class="cls-2" d="M135.74,199.81a.74.74,0,0,1,0,1.4,2.68,2.68,0,0,1-2.42,0,.74.74,0,0,1,0-1.4A2.67,2.67,0,0,1,135.74,199.81Z"/><path id="_Path_131" data-name="&lt;Path&gt;" class="cls-2" d="M142.1,196.22a.74.74,0,0,1,0,1.4,2.67,2.67,0,0,1-2.42,0,.74.74,0,0,1,0-1.4A2.67,2.67,0,0,1,142.1,196.22Z"/><path id="_Path_132" data-name="&lt;Path&gt;" class="cls-2" d="M104,210.47a.74.74,0,0,1,0,1.4,2.67,2.67,0,0,1-2.42,0,.74.74,0,0,1,0-1.4A2.67,2.67,0,0,1,104,210.47Z"/><path id="_Path_133" data-name="&lt;Path&gt;" class="cls-2" d="M110.36,206.87a.74.74,0,0,1,0,1.4,2.67,2.67,0,0,1-2.42,0,.74.74,0,0,1,0-1.4A2.67,2.67,0,0,1,110.36,206.87Z"/><path id="_Path_134" data-name="&lt;Path&gt;" class="cls-2" d="M116.72,203.28a.74.74,0,0,1,0,1.4,2.68,2.68,0,0,1-2.42,0,.74.74,0,0,1,0-1.4A2.67,2.67,0,0,1,116.72,203.28Z"/><path id="_Path_135" data-name="&lt;Path&gt;" class="cls-2" d="M123.08,199.69a.74.74,0,0,1,0,1.4,2.68,2.68,0,0,1-2.42,0,.74.74,0,0,1,0-1.4A2.67,2.67,0,0,1,123.08,199.69Z"/><path id="_Path_136" data-name="&lt;Path&gt;" class="cls-2" d="M129.45,196.1a.74.74,0,0,1,0,1.4,2.67,2.67,0,0,1-2.42,0,.74.74,0,0,1,0-1.4A2.68,2.68,0,0,1,129.45,196.1Z"/><path id="_Path_137" data-name="&lt;Path&gt;" class="cls-2" d="M135.81,192.5a.74.74,0,0,1,0,1.4,2.67,2.67,0,0,1-2.42,0,.74.74,0,0,1,0-1.4A2.68,2.68,0,0,1,135.81,192.5Z"/><path id="_Path_138" data-name="&lt;Path&gt;" class="cls-2" d="M142.17,188.91a.74.74,0,0,1,0,1.4,2.67,2.67,0,0,1-2.42,0,.74.74,0,0,1,0-1.4A2.67,2.67,0,0,1,142.17,188.91Z"/><path id="_Path_139" data-name="&lt;Path&gt;" class="cls-2" d="M148.28,185.92a.74.74,0,0,1,0,1.4,2.68,2.68,0,0,1-2.42,0,.74.74,0,0,1,0-1.4A2.68,2.68,0,0,1,148.28,185.92Z"/><path id="_Path_140" data-name="&lt;Path&gt;" class="cls-2" d="M148.46,192.65a.74.74,0,0,1,0,1.4,2.67,2.67,0,0,1-2.42,0,.74.74,0,0,1,0-1.4A2.68,2.68,0,0,1,148.46,192.65Z"/></g><g id="_Group_2" data-name="&lt;Group&gt;"><path id="_Path_141" data-name="&lt;Path&gt;" class="cls-2" d="M192.15,262.65a.74.74,0,0,1,0,1.4,2.68,2.68,0,0,1-2.42,0,.74.74,0,0,1,0-1.4A2.67,2.67,0,0,1,192.15,262.65Z"/><path id="_Path_142" data-name="&lt;Path&gt;" class="cls-2" d="M198.51,259.05a.74.74,0,0,1,0,1.4,2.67,2.67,0,0,1-2.42,0,.74.74,0,0,1,0-1.4A2.68,2.68,0,0,1,198.51,259.05Z"/><path id="_Path_143" data-name="&lt;Path&gt;" class="cls-2" d="M204.87,255.46a.74.74,0,0,1,0,1.4,2.67,2.67,0,0,1-2.42,0,.74.74,0,0,1,0-1.4A2.68,2.68,0,0,1,204.87,255.46Z"/><path id="_Path_144" data-name="&lt;Path&gt;" class="cls-2" d="M211.24,251.87a.74.74,0,0,1,0,1.4,2.67,2.67,0,0,1-2.42,0,.74.74,0,0,1,0-1.4A2.67,2.67,0,0,1,211.24,251.87Z"/><path id="_Path_145" data-name="&lt;Path&gt;" class="cls-2" d="M217.6,248.28a.74.74,0,0,1,0,1.4,2.67,2.67,0,0,1-2.42,0,.74.74,0,0,1,0-1.4A2.67,2.67,0,0,1,217.6,248.28Z"/><path id="_Path_146" data-name="&lt;Path&gt;" class="cls-2" d="M224,244.68a.74.74,0,0,1,0,1.4,2.67,2.67,0,0,1-2.42,0,.74.74,0,0,1,0-1.4A2.68,2.68,0,0,1,224,244.68Z"/><path id="_Path_147" data-name="&lt;Path&gt;" class="cls-2" d="M230.32,241.09a.74.74,0,0,1,0,1.4,2.68,2.68,0,0,1-2.42,0,.74.74,0,0,1,0-1.4A2.68,2.68,0,0,1,230.32,241.09Z"/><path id="_Path_148" data-name="&lt;Path&gt;" class="cls-2" d="M236.69,237.5a.74.74,0,0,1,0,1.4,2.68,2.68,0,0,1-2.42,0,.74.74,0,0,1,0-1.4A2.67,2.67,0,0,1,236.69,237.5Z"/><path id="_Path_149" data-name="&lt;Path&gt;" class="cls-2" d="M185.86,258.93a.74.74,0,0,1,0,1.4,2.67,2.67,0,0,1-2.42,0,.74.74,0,0,1,0-1.4A2.68,2.68,0,0,1,185.86,258.93Z"/><path id="_Path_150" data-name="&lt;Path&gt;" class="cls-2" d="M192.22,255.34a.74.74,0,0,1,0,1.4,2.67,2.67,0,0,1-2.42,0,.74.74,0,0,1,0-1.4A2.68,2.68,0,0,1,192.22,255.34Z"/><path id="_Path_151" data-name="&lt;Path&gt;" class="cls-2" d="M198.58,251.75a.74.74,0,0,1,0,1.4,2.67,2.67,0,0,1-2.42,0,.74.74,0,0,1,0-1.4A2.67,2.67,0,0,1,198.58,251.75Z"/><path id="_Path_152" data-name="&lt;Path&gt;" class="cls-2" d="M204.94,248.15a.74.74,0,0,1,0,1.4,2.67,2.67,0,0,1-2.42,0,.74.74,0,0,1,0-1.4A2.67,2.67,0,0,1,204.94,248.15Z"/><path id="_Path_153" data-name="&lt;Path&gt;" class="cls-2" d="M211.31,244.56a.74.74,0,0,1,0,1.4,2.67,2.67,0,0,1-2.42,0,.74.74,0,0,1,0-1.4A2.68,2.68,0,0,1,211.31,244.56Z"/><path id="_Path_154" data-name="&lt;Path&gt;" class="cls-2" d="M217.67,241a.74.74,0,0,1,0,1.4,2.68,2.68,0,0,1-2.42,0,.74.74,0,0,1,0-1.4A2.67,2.67,0,0,1,217.67,241Z"/><path id="_Path_155" data-name="&lt;Path&gt;" class="cls-2" d="M224,237.38a.74.74,0,0,1,0,1.4,2.67,2.67,0,0,1-2.42,0,.74.74,0,0,1,0-1.4A2.67,2.67,0,0,1,224,237.38Z"/><path id="_Path_156" data-name="&lt;Path&gt;" class="cls-2" d="M230.4,233.78a.74.74,0,0,1,0,1.4,2.67,2.67,0,0,1-2.42,0,.74.74,0,0,1,0-1.4A2.67,2.67,0,0,1,230.4,233.78Z"/><path id="_Path_157" data-name="&lt;Path&gt;" class="cls-2" d="M179.56,255.22a.74.74,0,0,1,0,1.4,2.67,2.67,0,0,1-2.42,0,.74.74,0,0,1,0-1.4A2.68,2.68,0,0,1,179.56,255.22Z"/><path id="_Path_158" data-name="&lt;Path&gt;" class="cls-2" d="M185.93,251.62a.74.74,0,0,1,0,1.4,2.67,2.67,0,0,1-2.42,0,.74.74,0,0,1,0-1.4A2.67,2.67,0,0,1,185.93,251.62Z"/><path id="_Path_159" data-name="&lt;Path&gt;" class="cls-2" d="M192.29,248a.74.74,0,0,1,0,1.4,2.67,2.67,0,0,1-2.42,0,.74.74,0,0,1,0-1.4A2.68,2.68,0,0,1,192.29,248Z"/><path id="_Path_160" data-name="&lt;Path&gt;" class="cls-2" d="M198.65,244.44a.74.74,0,0,1,0,1.4,2.68,2.68,0,0,1-2.42,0,.74.74,0,0,1,0-1.4A2.68,2.68,0,0,1,198.65,244.44Z"/><path id="_Path_161" data-name="&lt;Path&gt;" class="cls-2" d="M205,240.85a.74.74,0,0,1,0,1.4,2.68,2.68,0,0,1-2.42,0,.74.74,0,0,1,0-1.4A2.67,2.67,0,0,1,205,240.85Z"/><path id="_Path_162" data-name="&lt;Path&gt;" class="cls-2" d="M211.38,237.25a.74.74,0,0,1,0,1.4,2.67,2.67,0,0,1-2.42,0,.74.74,0,0,1,0-1.4A2.67,2.67,0,0,1,211.38,237.25Z"/><path id="_Path_163" data-name="&lt;Path&gt;" class="cls-2" d="M217.74,233.66a.74.74,0,0,1,0,1.4,2.67,2.67,0,0,1-2.42,0,.74.74,0,0,1,0-1.4A2.67,2.67,0,0,1,217.74,233.66Z"/><path id="_Path_164" data-name="&lt;Path&gt;" class="cls-2" d="M224.1,230.07a.74.74,0,0,1,0,1.4,2.68,2.68,0,0,1-2.42,0,.74.74,0,0,1,0-1.4A2.67,2.67,0,0,1,224.1,230.07Z"/><path id="_Path_165" data-name="&lt;Path&gt;" class="cls-2" d="M173.27,251.5a.74.74,0,0,1,0,1.4,2.67,2.67,0,0,1-2.42,0,.74.74,0,0,1,0-1.4A2.67,2.67,0,0,1,173.27,251.5Z"/><path id="_Path_166" data-name="&lt;Path&gt;" class="cls-2" d="M179.63,247.91a.74.74,0,0,1,0,1.4,2.67,2.67,0,0,1-2.42,0,.74.74,0,0,1,0-1.4A2.68,2.68,0,0,1,179.63,247.91Z"/><path id="_Path_167" data-name="&lt;Path&gt;" class="cls-2" d="M186,244.32a.74.74,0,0,1,0,1.4,2.68,2.68,0,0,1-2.42,0,.74.74,0,0,1,0-1.4A2.68,2.68,0,0,1,186,244.32Z"/><path id="_Path_168" data-name="&lt;Path&gt;" class="cls-2" d="M192.36,240.73a.74.74,0,0,1,0,1.4,2.68,2.68,0,0,1-2.42,0,.74.74,0,0,1,0-1.4A2.67,2.67,0,0,1,192.36,240.73Z"/><path id="_Path_169" data-name="&lt;Path&gt;" class="cls-2" d="M198.72,237.13a.74.74,0,0,1,0,1.4,2.67,2.67,0,0,1-2.42,0,.74.74,0,0,1,0-1.4A2.67,2.67,0,0,1,198.72,237.13Z"/><path id="_Path_170" data-name="&lt;Path&gt;" class="cls-2" d="M205.08,233.54a.74.74,0,0,1,0,1.4,2.68,2.68,0,0,1-2.42,0,.74.74,0,0,1,0-1.4A2.67,2.67,0,0,1,205.08,233.54Z"/><path id="_Path_171" data-name="&lt;Path&gt;" class="cls-2" d="M211.45,229.95a.74.74,0,0,1,0,1.4,2.68,2.68,0,0,1-2.42,0,.74.74,0,0,1,0-1.4A2.67,2.67,0,0,1,211.45,229.95Z"/><path id="_Path_172" data-name="&lt;Path&gt;" class="cls-2" d="M217.81,226.36a.74.74,0,0,1,0,1.4,2.67,2.67,0,0,1-2.42,0,.74.74,0,0,1,0-1.4A2.67,2.67,0,0,1,217.81,226.36Z"/><path id="_Path_173" data-name="&lt;Path&gt;" class="cls-2" d="M167,247.79a.74.74,0,0,1,0,1.4,2.68,2.68,0,0,1-2.42,0,.74.74,0,0,1,0-1.4A2.68,2.68,0,0,1,167,247.79Z"/><path id="_Path_174" data-name="&lt;Path&gt;" class="cls-2" d="M173.34,244.2a.74.74,0,0,1,0,1.4,2.68,2.68,0,0,1-2.42,0,.74.74,0,0,1,0-1.4A2.67,2.67,0,0,1,173.34,244.2Z"/><path id="_Path_175" data-name="&lt;Path&gt;" class="cls-2" d="M179.7,240.6a.74.74,0,0,1,0,1.4,2.67,2.67,0,0,1-2.42,0,.74.74,0,0,1,0-1.4A2.67,2.67,0,0,1,179.7,240.6Z"/><path id="_Path_176" data-name="&lt;Path&gt;" class="cls-2" d="M186.07,237a.74.74,0,0,1,0,1.4,2.67,2.67,0,0,1-2.42,0,.74.74,0,0,1,0-1.4A2.67,2.67,0,0,1,186.07,237Z"/><path id="_Path_177" data-name="&lt;Path&gt;" class="cls-2" d="M192.43,233.42a.74.74,0,0,1,0,1.4,2.68,2.68,0,0,1-2.42,0,.74.74,0,0,1,0-1.4A2.67,2.67,0,0,1,192.43,233.42Z"/><path id="_Path_178" data-name="&lt;Path&gt;" class="cls-2" d="M198.79,229.83a.74.74,0,0,1,0,1.4,2.68,2.68,0,0,1-2.42,0,.74.74,0,0,1,0-1.4A2.67,2.67,0,0,1,198.79,229.83Z"/><path id="_Path_179" data-name="&lt;Path&gt;" class="cls-2" d="M205.16,226.23a.74.74,0,0,1,0,1.4,2.67,2.67,0,0,1-2.42,0,.74.74,0,0,1,0-1.4A2.68,2.68,0,0,1,205.16,226.23Z"/><path id="_Path_180" data-name="&lt;Path&gt;" class="cls-2" d="M211.52,222.64a.74.74,0,0,1,0,1.4,2.67,2.67,0,0,1-2.42,0,.74.74,0,0,1,0-1.4A2.68,2.68,0,0,1,211.52,222.64Z"/><path id="_Path_181" data-name="&lt;Path&gt;" class="cls-2" d="M160.63,244a.74.74,0,0,1,0,1.4,2.67,2.67,0,0,1-2.42,0,.74.74,0,0,1,0-1.4A2.68,2.68,0,0,1,160.63,244Z"/><path id="_Path_182" data-name="&lt;Path&gt;" class="cls-2" d="M167,240.44a.74.74,0,0,1,0,1.4,2.67,2.67,0,0,1-2.42,0,.74.74,0,0,1,0-1.4A2.68,2.68,0,0,1,167,240.44Z"/><path id="_Path_183" data-name="&lt;Path&gt;" class="cls-2" d="M173.36,236.85a.74.74,0,0,1,0,1.4,2.67,2.67,0,0,1-2.42,0,.74.74,0,0,1,0-1.4A2.67,2.67,0,0,1,173.36,236.85Z"/><path id="_Path_184" data-name="&lt;Path&gt;" class="cls-2" d="M179.72,233.26a.74.74,0,0,1,0,1.4,2.67,2.67,0,0,1-2.42,0,.74.74,0,0,1,0-1.4A2.67,2.67,0,0,1,179.72,233.26Z"/><path id="_Path_185" data-name="&lt;Path&gt;" class="cls-2" d="M186.08,229.67a.74.74,0,0,1,0,1.4,2.67,2.67,0,0,1-2.42,0,.74.74,0,0,1,0-1.4A2.68,2.68,0,0,1,186.08,229.67Z"/><path id="_Path_186" data-name="&lt;Path&gt;" class="cls-2" d="M192.45,226.07a.74.74,0,0,1,0,1.4,2.68,2.68,0,0,1-2.42,0,.74.74,0,0,1,0-1.4A2.68,2.68,0,0,1,192.45,226.07Z"/><path id="_Path_187" data-name="&lt;Path&gt;" class="cls-2" d="M198.81,222.48a.74.74,0,0,1,0,1.4,2.68,2.68,0,0,1-2.42,0,.74.74,0,0,1,0-1.4A2.67,2.67,0,0,1,198.81,222.48Z"/><path id="_Path_188" data-name="&lt;Path&gt;" class="cls-2" d="M205.17,218.89a.74.74,0,0,1,0,1.4,2.67,2.67,0,0,1-2.42,0,.74.74,0,0,1,0-1.4A2.67,2.67,0,0,1,205.17,218.89Z"/><path id="_Path_189" data-name="&lt;Path&gt;" class="cls-2" d="M154.34,240.32a.74.74,0,0,1,0,1.4,2.67,2.67,0,0,1-2.42,0,.74.74,0,0,1,0-1.4A2.68,2.68,0,0,1,154.34,240.32Z"/><path id="_Path_190" data-name="&lt;Path&gt;" class="cls-2" d="M160.7,236.73a.74.74,0,0,1,0,1.4,2.67,2.67,0,0,1-2.42,0,.74.74,0,0,1,0-1.4A2.67,2.67,0,0,1,160.7,236.73Z"/><path id="_Path_191" data-name="&lt;Path&gt;" class="cls-2" d="M167.06,233.14a.74.74,0,0,1,0,1.4,2.67,2.67,0,0,1-2.42,0,.74.74,0,0,1,0-1.4A2.67,2.67,0,0,1,167.06,233.14Z"/><path id="_Path_192" data-name="&lt;Path&gt;" class="cls-2" d="M173.43,229.54a.74.74,0,0,1,0,1.4,2.67,2.67,0,0,1-2.42,0,.74.74,0,0,1,0-1.4A2.68,2.68,0,0,1,173.43,229.54Z"/><path id="_Path_193" data-name="&lt;Path&gt;" class="cls-2" d="M179.79,226a.74.74,0,0,1,0,1.4,2.68,2.68,0,0,1-2.42,0,.74.74,0,0,1,0-1.4A2.68,2.68,0,0,1,179.79,226Z"/><path id="_Path_194" data-name="&lt;Path&gt;" class="cls-2" d="M186.15,222.36a.74.74,0,0,1,0,1.4,2.68,2.68,0,0,1-2.42,0,.74.74,0,0,1,0-1.4A2.67,2.67,0,0,1,186.15,222.36Z"/><path id="_Path_195" data-name="&lt;Path&gt;" class="cls-2" d="M192.52,218.77a.74.74,0,0,1,0,1.4,2.67,2.67,0,0,1-2.42,0,.74.74,0,0,1,0-1.4A2.67,2.67,0,0,1,192.52,218.77Z"/><path id="_Path_196" data-name="&lt;Path&gt;" class="cls-2" d="M198.88,215.17a.74.74,0,0,1,0,1.4,2.68,2.68,0,0,1-2.42,0,.74.74,0,0,1,0-1.4A2.67,2.67,0,0,1,198.88,215.17Z"/><path id="_Path_197" data-name="&lt;Path&gt;" class="cls-2" d="M148,236.61a.74.74,0,0,1,0,1.4,2.67,2.67,0,0,1-2.42,0,.74.74,0,0,1,0-1.4A2.67,2.67,0,0,1,148,236.61Z"/><path id="_Path_198" data-name="&lt;Path&gt;" class="cls-2" d="M154.41,233a.74.74,0,0,1,0,1.4,2.67,2.67,0,0,1-2.42,0,.74.74,0,0,1,0-1.4A2.68,2.68,0,0,1,154.41,233Z"/><path id="_Path_199" data-name="&lt;Path&gt;" class="cls-2" d="M160.77,229.42a.74.74,0,0,1,0,1.4,2.68,2.68,0,0,1-2.42,0,.74.74,0,0,1,0-1.4A2.68,2.68,0,0,1,160.77,229.42Z"/><path id="_Path_200" data-name="&lt;Path&gt;" class="cls-2" d="M167.14,225.83a.74.74,0,0,1,0,1.4,2.68,2.68,0,0,1-2.42,0,.74.74,0,0,1,0-1.4A2.67,2.67,0,0,1,167.14,225.83Z"/><path id="_Path_201" data-name="&lt;Path&gt;" class="cls-2" d="M173.5,222.24a.74.74,0,0,1,0,1.4,2.67,2.67,0,0,1-2.42,0,.74.74,0,0,1,0-1.4A2.67,2.67,0,0,1,173.5,222.24Z"/><path id="_Path_202" data-name="&lt;Path&gt;" class="cls-2" d="M179.86,218.65a.74.74,0,0,1,0,1.4,2.67,2.67,0,0,1-2.42,0,.74.74,0,0,1,0-1.4A2.67,2.67,0,0,1,179.86,218.65Z"/><path id="_Path_203" data-name="&lt;Path&gt;" class="cls-2" d="M186.22,215.05a.74.74,0,0,1,0,1.4,2.68,2.68,0,0,1-2.42,0,.74.74,0,0,1,0-1.4A2.67,2.67,0,0,1,186.22,215.05Z"/><path id="_Path_204" data-name="&lt;Path&gt;" class="cls-2" d="M192.59,211.46a.74.74,0,0,1,0,1.4,2.68,2.68,0,0,1-2.42,0,.74.74,0,0,1,0-1.4A2.67,2.67,0,0,1,192.59,211.46Z"/><path id="_Path_205" data-name="&lt;Path&gt;" class="cls-2" d="M141.75,232.89a.74.74,0,0,1,0,1.4,2.67,2.67,0,0,1-2.42,0,.74.74,0,0,1,0-1.4A2.68,2.68,0,0,1,141.75,232.89Z"/><path id="_Path_206" data-name="&lt;Path&gt;" class="cls-2" d="M148.12,229.3a.74.74,0,0,1,0,1.4,2.68,2.68,0,0,1-2.42,0,.74.74,0,0,1,0-1.4A2.68,2.68,0,0,1,148.12,229.3Z"/><path id="_Path_207" data-name="&lt;Path&gt;" class="cls-2" d="M154.48,225.71a.74.74,0,0,1,0,1.4,2.68,2.68,0,0,1-2.42,0,.74.74,0,0,1,0-1.4A2.67,2.67,0,0,1,154.48,225.71Z"/><path id="_Path_208" data-name="&lt;Path&gt;" class="cls-2" d="M160.84,222.12a.74.74,0,0,1,0,1.4,2.67,2.67,0,0,1-2.42,0,.74.74,0,0,1,0-1.4A2.67,2.67,0,0,1,160.84,222.12Z"/><path id="_Path_209" data-name="&lt;Path&gt;" class="cls-2" d="M167.21,218.52a.74.74,0,0,1,0,1.4,2.68,2.68,0,0,1-2.42,0,.74.74,0,0,1,0-1.4A2.67,2.67,0,0,1,167.21,218.52Z"/><path id="_Path_210" data-name="&lt;Path&gt;" class="cls-2" d="M173.57,214.93a.74.74,0,0,1,0,1.4,2.68,2.68,0,0,1-2.42,0,.74.74,0,0,1,0-1.4A2.67,2.67,0,0,1,173.57,214.93Z"/><path id="_Path_211" data-name="&lt;Path&gt;" class="cls-2" d="M179.93,211.34a.74.74,0,0,1,0,1.4,2.67,2.67,0,0,1-2.42,0,.74.74,0,0,1,0-1.4A2.67,2.67,0,0,1,179.93,211.34Z"/><path id="_Path_212" data-name="&lt;Path&gt;" class="cls-2" d="M186.29,207.75a.74.74,0,0,1,0,1.4,2.67,2.67,0,0,1-2.42,0,.74.74,0,0,1,0-1.4A2.68,2.68,0,0,1,186.29,207.75Z"/><path id="_Path_213" data-name="&lt;Path&gt;" class="cls-2" d="M135.46,229.18a.74.74,0,0,1,0,1.4,2.68,2.68,0,0,1-2.42,0,.74.74,0,0,1,0-1.4A2.67,2.67,0,0,1,135.46,229.18Z"/><path id="_Path_214" data-name="&lt;Path&gt;" class="cls-2" d="M141.82,225.59a.74.74,0,0,1,0,1.4,2.67,2.67,0,0,1-2.42,0,.74.74,0,0,1,0-1.4A2.67,2.67,0,0,1,141.82,225.59Z"/><path id="_Path_215" data-name="&lt;Path&gt;" class="cls-2" d="M148.19,222a.74.74,0,0,1,0,1.4,2.67,2.67,0,0,1-2.42,0,.74.74,0,0,1,0-1.4A2.67,2.67,0,0,1,148.19,222Z"/><path id="_Path_216" data-name="&lt;Path&gt;" class="cls-2" d="M154.55,218.4a.74.74,0,0,1,0,1.4,2.68,2.68,0,0,1-2.42,0,.74.74,0,0,1,0-1.4A2.67,2.67,0,0,1,154.55,218.4Z"/><path id="_Path_217" data-name="&lt;Path&gt;" class="cls-2" d="M160.91,214.81a.74.74,0,0,1,0,1.4,2.68,2.68,0,0,1-2.42,0,.74.74,0,0,1,0-1.4A2.67,2.67,0,0,1,160.91,214.81Z"/><path id="_Path_218" data-name="&lt;Path&gt;" class="cls-2" d="M167.28,211.22a.74.74,0,0,1,0,1.4,2.67,2.67,0,0,1-2.42,0,.74.74,0,0,1,0-1.4A2.67,2.67,0,0,1,167.28,211.22Z"/><path id="_Path_219" data-name="&lt;Path&gt;" class="cls-2" d="M173.64,207.63a.74.74,0,0,1,0,1.4,2.67,2.67,0,0,1-2.42,0,.74.74,0,0,1,0-1.4A2.68,2.68,0,0,1,173.64,207.63Z"/><path id="_Path_220" data-name="&lt;Path&gt;" class="cls-2" d="M180,204a.74.74,0,0,1,0,1.4,2.67,2.67,0,0,1-2.42,0,.74.74,0,0,1,0-1.4A2.68,2.68,0,0,1,180,204Z"/><path id="_Path_221" data-name="&lt;Path&gt;" class="cls-2" d="M129.17,225.47a.74.74,0,0,1,0,1.4,2.67,2.67,0,0,1-2.42,0,.74.74,0,0,1,0-1.4A2.67,2.67,0,0,1,129.17,225.47Z"/><path id="_Path_222" data-name="&lt;Path&gt;" class="cls-2" d="M135.53,221.87a.74.74,0,0,1,0,1.4,2.67,2.67,0,0,1-2.42,0,.74.74,0,0,1,0-1.4A2.67,2.67,0,0,1,135.53,221.87Z"/><path id="_Path_223" data-name="&lt;Path&gt;" class="cls-2" d="M141.89,218.28a.74.74,0,0,1,0,1.4,2.68,2.68,0,0,1-2.42,0,.74.74,0,0,1,0-1.4A2.67,2.67,0,0,1,141.89,218.28Z"/><path id="_Path_224" data-name="&lt;Path&gt;" class="cls-2" d="M148.26,214.69a.74.74,0,0,1,0,1.4,2.67,2.67,0,0,1-2.42,0,.74.74,0,0,1,0-1.4A2.67,2.67,0,0,1,148.26,214.69Z"/><path id="_Path_225" data-name="&lt;Path&gt;" class="cls-2" d="M154.62,211.1a.74.74,0,0,1,0,1.4,2.67,2.67,0,0,1-2.42,0,.74.74,0,0,1,0-1.4A2.68,2.68,0,0,1,154.62,211.1Z"/><path id="_Path_226" data-name="&lt;Path&gt;" class="cls-2" d="M161,207.5a.74.74,0,0,1,0,1.4,2.67,2.67,0,0,1-2.42,0,.74.74,0,0,1,0-1.4A2.68,2.68,0,0,1,161,207.5Z"/><path id="_Path_227" data-name="&lt;Path&gt;" class="cls-2" d="M167.35,203.91a.74.74,0,0,1,0,1.4,2.67,2.67,0,0,1-2.42,0,.74.74,0,0,1,0-1.4A2.67,2.67,0,0,1,167.35,203.91Z"/><path id="_Path_228" data-name="&lt;Path&gt;" class="cls-2" d="M173.71,200.32a.74.74,0,0,1,0,1.4,2.67,2.67,0,0,1-2.42,0,.74.74,0,0,1,0-1.4A2.67,2.67,0,0,1,173.71,200.32Z"/><path id="_Path_229" data-name="&lt;Path&gt;" class="cls-2" d="M122.88,221.75a.74.74,0,0,1,0,1.4,2.68,2.68,0,0,1-2.42,0,.74.74,0,0,1,0-1.4A2.67,2.67,0,0,1,122.88,221.75Z"/><path id="_Path_230" data-name="&lt;Path&gt;" class="cls-2" d="M129.24,218.16a.74.74,0,0,1,0,1.4,2.68,2.68,0,0,1-2.42,0,.74.74,0,0,1,0-1.4A2.67,2.67,0,0,1,129.24,218.16Z"/><path id="_Path_231" data-name="&lt;Path&gt;" class="cls-2" d="M135.6,214.57a.74.74,0,0,1,0,1.4,2.67,2.67,0,0,1-2.42,0,.74.74,0,0,1,0-1.4A2.67,2.67,0,0,1,135.6,214.57Z"/><path id="_Path_232" data-name="&lt;Path&gt;" class="cls-2" d="M142,211a.74.74,0,0,1,0,1.4,2.67,2.67,0,0,1-2.42,0,.74.74,0,0,1,0-1.4A2.68,2.68,0,0,1,142,211Z"/><path id="_Path_233" data-name="&lt;Path&gt;" class="cls-2" d="M148.33,207.38a.74.74,0,0,1,0,1.4,2.67,2.67,0,0,1-2.42,0,.74.74,0,0,1,0-1.4A2.68,2.68,0,0,1,148.33,207.38Z"/><path id="_Path_234" data-name="&lt;Path&gt;" class="cls-2" d="M154.69,203.79a.74.74,0,0,1,0,1.4,2.67,2.67,0,0,1-2.42,0,.74.74,0,0,1,0-1.4A2.67,2.67,0,0,1,154.69,203.79Z"/><path id="_Path_235" data-name="&lt;Path&gt;" class="cls-2" d="M161.05,200.2a.74.74,0,0,1,0,1.4,2.67,2.67,0,0,1-2.42,0,.74.74,0,0,1,0-1.4A2.68,2.68,0,0,1,161.05,200.2Z"/><path id="_Path_236" data-name="&lt;Path&gt;" class="cls-2" d="M167.42,196.6a.74.74,0,0,1,0,1.4,2.68,2.68,0,0,1-2.42,0,.74.74,0,0,1,0-1.4A2.68,2.68,0,0,1,167.42,196.6Z"/><path id="_Path_237" data-name="&lt;Path&gt;" class="cls-2" d="M116.58,218a.74.74,0,0,1,0,1.4,2.68,2.68,0,0,1-2.42,0,.74.74,0,0,1,0-1.4A2.67,2.67,0,0,1,116.58,218Z"/><path id="_Path_238" data-name="&lt;Path&gt;" class="cls-2" d="M122.95,214.45a.74.74,0,0,1,0,1.4,2.67,2.67,0,0,1-2.42,0,.74.74,0,0,1,0-1.4A2.68,2.68,0,0,1,122.95,214.45Z"/><path id="_Path_239" data-name="&lt;Path&gt;" class="cls-2" d="M129.31,210.85a.74.74,0,0,1,0,1.4,2.67,2.67,0,0,1-2.42,0,.74.74,0,0,1,0-1.4A2.68,2.68,0,0,1,129.31,210.85Z"/><path id="_Path_240" data-name="&lt;Path&gt;" class="cls-2" d="M135.67,207.26a.74.74,0,0,1,0,1.4,2.67,2.67,0,0,1-2.42,0,.74.74,0,0,1,0-1.4A2.67,2.67,0,0,1,135.67,207.26Z"/><path id="_Path_241" data-name="&lt;Path&gt;" class="cls-2" d="M142,203.67a.74.74,0,0,1,0,1.4,2.67,2.67,0,0,1-2.42,0,.74.74,0,0,1,0-1.4A2.67,2.67,0,0,1,142,203.67Z"/><path id="_Path_242" data-name="&lt;Path&gt;" class="cls-2" d="M148.4,200.08a.74.74,0,0,1,0,1.4,2.67,2.67,0,0,1-2.42,0,.74.74,0,0,1,0-1.4A2.68,2.68,0,0,1,148.4,200.08Z"/><path id="_Path_243" data-name="&lt;Path&gt;" class="cls-2" d="M154.76,196.48a.74.74,0,0,1,0,1.4,2.68,2.68,0,0,1-2.42,0,.74.74,0,0,1,0-1.4A2.68,2.68,0,0,1,154.76,196.48Z"/><path id="_Path_244" data-name="&lt;Path&gt;" class="cls-2" d="M161.12,192.89a.74.74,0,0,1,0,1.4,2.68,2.68,0,0,1-2.42,0,.74.74,0,0,1,0-1.4A2.67,2.67,0,0,1,161.12,192.89Z"/><path id="_Path_245" data-name="&lt;Path&gt;" class="cls-2" d="M110.24,214.28a.74.74,0,0,1,0,1.4,2.68,2.68,0,0,1-2.42,0,.74.74,0,0,1,0-1.4A2.68,2.68,0,0,1,110.24,214.28Z"/><path id="_Path_246" data-name="&lt;Path&gt;" class="cls-2" d="M116.6,210.69a.74.74,0,0,1,0,1.4,2.68,2.68,0,0,1-2.42,0,.74.74,0,0,1,0-1.4A2.67,2.67,0,0,1,116.6,210.69Z"/><path id="_Path_247" data-name="&lt;Path&gt;" class="cls-2" d="M123,207.1a.74.74,0,0,1,0,1.4,2.67,2.67,0,0,1-2.42,0,.74.74,0,0,1,0-1.4A2.67,2.67,0,0,1,123,207.1Z"/><path id="_Path_248" data-name="&lt;Path&gt;" class="cls-2" d="M129.33,203.51a.74.74,0,0,1,0,1.4,2.68,2.68,0,0,1-2.42,0,.74.74,0,0,1,0-1.4A2.67,2.67,0,0,1,129.33,203.51Z"/><path id="_Path_249" data-name="&lt;Path&gt;" class="cls-2" d="M135.69,199.92a.74.74,0,0,1,0,1.4,2.68,2.68,0,0,1-2.42,0,.74.74,0,0,1,0-1.4A2.67,2.67,0,0,1,135.69,199.92Z"/><path id="_Path_250" data-name="&lt;Path&gt;" class="cls-2" d="M142.05,196.32a.74.74,0,0,1,0,1.4,2.67,2.67,0,0,1-2.42,0,.74.74,0,0,1,0-1.4A2.67,2.67,0,0,1,142.05,196.32Z"/><path id="_Path_251" data-name="&lt;Path&gt;" class="cls-2" d="M148.41,192.73a.74.74,0,0,1,0,1.4,2.67,2.67,0,0,1-2.42,0,.74.74,0,0,1,0-1.4A2.68,2.68,0,0,1,148.41,192.73Z"/><path id="_Path_252" data-name="&lt;Path&gt;" class="cls-2" d="M154.78,189.14a.74.74,0,0,1,0,1.4,2.67,2.67,0,0,1-2.42,0,.74.74,0,0,1,0-1.4A2.68,2.68,0,0,1,154.78,189.14Z"/><path id="_Path_253" data-name="&lt;Path&gt;" class="cls-2" d="M103.94,210.57a.74.74,0,0,1,0,1.4,2.67,2.67,0,0,1-2.42,0,.74.74,0,0,1,0-1.4A2.67,2.67,0,0,1,103.94,210.57Z"/><path id="_Path_254" data-name="&lt;Path&gt;" class="cls-2" d="M110.31,207a.74.74,0,0,1,0,1.4,2.67,2.67,0,0,1-2.42,0,.74.74,0,0,1,0-1.4A2.67,2.67,0,0,1,110.31,207Z"/><path id="_Path_255" data-name="&lt;Path&gt;" class="cls-2" d="M116.67,203.39a.74.74,0,0,1,0,1.4,2.68,2.68,0,0,1-2.42,0,.74.74,0,0,1,0-1.4A2.67,2.67,0,0,1,116.67,203.39Z"/><path id="_Path_256" data-name="&lt;Path&gt;" class="cls-2" d="M123,199.79a.74.74,0,0,1,0,1.4,2.68,2.68,0,0,1-2.42,0,.74.74,0,0,1,0-1.4A2.67,2.67,0,0,1,123,199.79Z"/><path id="_Path_257" data-name="&lt;Path&gt;" class="cls-2" d="M129.4,196.2a.74.74,0,0,1,0,1.4,2.67,2.67,0,0,1-2.42,0,.74.74,0,0,1,0-1.4A2.67,2.67,0,0,1,129.4,196.2Z"/><path id="_Path_258" data-name="&lt;Path&gt;" class="cls-2" d="M135.76,192.61a.74.74,0,0,1,0,1.4,2.67,2.67,0,0,1-2.42,0,.74.74,0,0,1,0-1.4A2.68,2.68,0,0,1,135.76,192.61Z"/><path id="_Path_259" data-name="&lt;Path&gt;" class="cls-2" d="M142.12,189a.74.74,0,0,1,0,1.4,2.67,2.67,0,0,1-2.42,0,.74.74,0,0,1,0-1.4A2.68,2.68,0,0,1,142.12,189Z"/><path id="_Path_260" data-name="&lt;Path&gt;" class="cls-2" d="M148.48,185.42a.74.74,0,0,1,0,1.4,2.67,2.67,0,0,1-2.42,0,.74.74,0,0,1,0-1.4A2.67,2.67,0,0,1,148.48,185.42Z"/><path id="_Path_261" data-name="&lt;Path&gt;" class="cls-2" d="M104,203.26a.74.74,0,0,1,0,1.4,2.68,2.68,0,0,1-2.42,0,.74.74,0,0,1,0-1.4A2.67,2.67,0,0,1,104,203.26Z"/><path id="_Path_262" data-name="&lt;Path&gt;" class="cls-2" d="M110.38,199.67a.74.74,0,0,1,0,1.4,2.68,2.68,0,0,1-2.42,0,.74.74,0,0,1,0-1.4A2.67,2.67,0,0,1,110.38,199.67Z"/><path id="_Path_263" data-name="&lt;Path&gt;" class="cls-2" d="M116.74,196.08a.74.74,0,0,1,0,1.4,2.67,2.67,0,0,1-2.42,0,.74.74,0,0,1,0-1.4A2.68,2.68,0,0,1,116.74,196.08Z"/><path id="_Path_264" data-name="&lt;Path&gt;" class="cls-2" d="M123.1,192.49a.74.74,0,0,1,0,1.4,2.67,2.67,0,0,1-2.42,0,.74.74,0,0,1,0-1.4A2.68,2.68,0,0,1,123.1,192.49Z"/><path id="_Path_265" data-name="&lt;Path&gt;" class="cls-2" d="M129.47,188.89a.74.74,0,0,1,0,1.4,2.67,2.67,0,0,1-2.42,0,.74.74,0,0,1,0-1.4A2.67,2.67,0,0,1,129.47,188.89Z"/><path id="_Path_266" data-name="&lt;Path&gt;" class="cls-2" d="M135.83,185.3a.74.74,0,0,1,0,1.4,2.67,2.67,0,0,1-2.42,0,.74.74,0,0,1,0-1.4A2.67,2.67,0,0,1,135.83,185.3Z"/><path id="_Path_267" data-name="&lt;Path&gt;" class="cls-2" d="M211.35,265.9a.74.74,0,0,1,0,1.4,2.68,2.68,0,0,1-2.42,0,.74.74,0,0,1,0-1.4A2.67,2.67,0,0,1,211.35,265.9Z"/><path id="_Path_268" data-name="&lt;Path&gt;" class="cls-2" d="M217.71,262.31a.74.74,0,0,1,0,1.4,2.67,2.67,0,0,1-2.42,0,.74.74,0,0,1,0-1.4A2.67,2.67,0,0,1,217.71,262.31Z"/><path id="_Path_269" data-name="&lt;Path&gt;" class="cls-2" d="M224.08,258.71a.74.74,0,0,1,0,1.4,2.68,2.68,0,0,1-2.42,0,.74.74,0,0,1,0-1.4A2.67,2.67,0,0,1,224.08,258.71Z"/><path id="_Path_270" data-name="&lt;Path&gt;" class="cls-2" d="M230.44,255.12a.74.74,0,0,1,0,1.4,2.68,2.68,0,0,1-2.42,0,.74.74,0,0,1,0-1.4A2.67,2.67,0,0,1,230.44,255.12Z"/><path id="_Path_271" data-name="&lt;Path&gt;" class="cls-2" d="M236.8,251.53a.74.74,0,0,1,0,1.4,2.67,2.67,0,0,1-2.42,0,.74.74,0,0,1,0-1.4A2.67,2.67,0,0,1,236.8,251.53Z"/><path id="_Path_272" data-name="&lt;Path&gt;" class="cls-2" d="M198.69,265.78a.74.74,0,0,1,0,1.4,2.67,2.67,0,0,1-2.42,0,.74.74,0,0,1,0-1.4A2.67,2.67,0,0,1,198.69,265.78Z"/><path id="_Path_273" data-name="&lt;Path&gt;" class="cls-2" d="M205.06,262.18a.74.74,0,0,1,0,1.4,2.67,2.67,0,0,1-2.42,0,.74.74,0,0,1,0-1.4A2.67,2.67,0,0,1,205.06,262.18Z"/><path id="_Path_274" data-name="&lt;Path&gt;" class="cls-2" d="M211.42,258.59a.74.74,0,0,1,0,1.4,2.68,2.68,0,0,1-2.42,0,.74.74,0,0,1,0-1.4A2.67,2.67,0,0,1,211.42,258.59Z"/><path id="_Path_275" data-name="&lt;Path&gt;" class="cls-2" d="M217.78,255a.74.74,0,0,1,0,1.4,2.68,2.68,0,0,1-2.42,0,.74.74,0,0,1,0-1.4A2.67,2.67,0,0,1,217.78,255Z"/><path id="_Path_276" data-name="&lt;Path&gt;" class="cls-2" d="M224.15,251.41a.74.74,0,0,1,0,1.4,2.67,2.67,0,0,1-2.42,0,.74.74,0,0,1,0-1.4A2.68,2.68,0,0,1,224.15,251.41Z"/><path id="_Path_277" data-name="&lt;Path&gt;" class="cls-2" d="M230.51,247.81a.74.74,0,0,1,0,1.4,2.67,2.67,0,0,1-2.42,0,.74.74,0,0,1,0-1.4A2.68,2.68,0,0,1,230.51,247.81Z"/><path id="_Path_278" data-name="&lt;Path&gt;" class="cls-2" d="M236.87,244.22a.74.74,0,0,1,0,1.4,2.67,2.67,0,0,1-2.42,0,.74.74,0,0,1,0-1.4A2.67,2.67,0,0,1,236.87,244.22Z"/><path id="_Path_279" data-name="&lt;Path&gt;" class="cls-2" d="M243,241.23a.74.74,0,0,1,0,1.4,2.68,2.68,0,0,1-2.42,0,.74.74,0,0,1,0-1.4A2.68,2.68,0,0,1,243,241.23Z"/><path id="_Path_280" data-name="&lt;Path&gt;" class="cls-2" d="M243.16,248a.74.74,0,0,1,0,1.4,2.67,2.67,0,0,1-2.42,0,.74.74,0,0,1,0-1.4A2.68,2.68,0,0,1,243.16,248Z"/></g><g class="cls-3"><path d="M4.7,148.16l23.8-13.83a5.82,5.82,0,0,0,.41,2,11.09,11.09,0,0,0,1.26,2.38,14.8,14.8,0,0,0,4.66,4.39L11,157a14.8,14.8,0,0,1-4.66-4.39,11.09,11.09,0,0,1-1.26-2.38A5.82,5.82,0,0,1,4.7,148.16Z"/><polygon points="5.01 38.79 28.81 24.95 28.5 134.32 4.7 148.16 5.01 38.79"/><polygon points="11.02 156.97 34.83 143.13 210.22 244.39 186.41 258.23 11.02 156.97"/><path d="M215.43,245.16,191.63,259a3,3,0,0,1-1.47.38,7.38,7.38,0,0,1-3.75-1.15l23.8-13.83a7.38,7.38,0,0,0,3.75,1.15A3,3,0,0,0,215.43,245.16Z"/><polygon points="3.01 37.63 26.81 23.8 28.81 24.95 5.01 38.79 3.01 37.63"/><path d="M1.6,32.91l23.8-13.83a1.4,1.4,0,0,0-.58,1.28,4.39,4.39,0,0,0,2,3.45L3,37.63a4.39,4.39,0,0,1-2-3.45A1.4,1.4,0,0,1,1.6,32.91Z"/><path d="M1.6,32.91l23.8-13.83a1.41,1.41,0,0,1,1.42.14L3,33A1.41,1.41,0,0,0,1.6,32.91Z"/><polygon points="3.02 33.04 26.83 19.21 28.82 20.36 5.02 34.2 3.02 33.04"/><polygon points="5.06 21.6 28.86 7.77 28.82 20.36 5.02 34.2 5.06 21.6"/><path d="M6.21,19.35,30,5.51a2.17,2.17,0,0,0-.74.7,2.77,2.77,0,0,0-.42,1.56L5.06,21.6A2.77,2.77,0,0,1,5.47,20,2.17,2.17,0,0,1,6.21,19.35Z"/><polygon class="cls-4" points="5.01 38.79 28.81 24.95 216.9 133.54 193.09 147.38 5.01 38.79"/><polygon points="5.02 34.2 28.82 20.36 216.91 128.95 193.1 142.79 5.02 34.2"/><path class="cls-5" d="M36.56,19.67a2.29,2.29,0,0,0,2.31.23L15.06,33.73a2.29,2.29,0,0,1-2.31-.23Z"/><path class="cls-5" d="M33.33,14.08a7.11,7.11,0,0,0,3.23,5.59L12.76,33.51a7.11,7.11,0,0,1-3.23-5.59,2.27,2.27,0,0,1,.95-2.08L34.28,12A2.27,2.27,0,0,0,33.33,14.08Z"/><path d="M38.87,19.9,15.06,33.73A2.26,2.26,0,0,0,16,31.66l23.8-13.83A2.26,2.26,0,0,1,38.87,19.9Z"/><path d="M10.47,25.83,34.28,12a2.28,2.28,0,0,1,2.3.23L12.78,26.06A2.28,2.28,0,0,0,10.47,25.83Z"/><path d="M12.78,26.06l23.8-13.83a7.12,7.12,0,0,1,3.23,5.6L16,31.66A7.12,7.12,0,0,0,12.78,26.06Z"/><path class="cls-5" d="M31.48,5.14a7.38,7.38,0,0,1,3.74,1.15L11.42,20.12h0L35.13,6.33,11.42,20.12A7.37,7.37,0,0,0,7.68,19a3,3,0,0,0-1.46.38L30,5.51A3,3,0,0,1,31.48,5.14Z"/><path class="cls-5" d="M46.28,25.28a2.29,2.29,0,0,0,2.29.23L24.77,39.35a2.29,2.29,0,0,1-2.29-.23Z"/><path d="M48.58,25.51,24.78,39.34a2.27,2.27,0,0,0,.94-2.08l23.8-13.83A2.27,2.27,0,0,1,48.58,25.51Z"/><path class="cls-5" d="M48.57,25.51h0L24.78,39.34h0Z"/><path class="cls-5" d="M43.05,19.69a7.11,7.11,0,0,0,3.23,5.59L22.47,39.12a7.11,7.11,0,0,1-3.23-5.59,2.27,2.27,0,0,1,.95-2.08L44,17.61A2.27,2.27,0,0,0,43.05,19.69Z"/><path d="M20.19,31.44,44,17.61a2.28,2.28,0,0,1,2.3.23L22.49,31.67A2.28,2.28,0,0,0,20.19,31.44Z"/><path d="M22.49,31.67,46.3,17.84a7.12,7.12,0,0,1,3.23,5.59L25.72,37.26A7.12,7.12,0,0,0,22.49,31.67Z"/><path class="cls-5" d="M52.77,25.3A7.12,7.12,0,0,0,56,30.89L32.19,44.73A7.12,7.12,0,0,1,29,39.14Z"/><path class="cls-5" d="M52.83,24.63a3.71,3.71,0,0,0-.06.67L29,39.14a3.71,3.71,0,0,1,.06-.67Z"/><path class="cls-5" d="M52.83,24.63,29,38.46a2.61,2.61,0,0,1,.2-.63L53,24A2.61,2.61,0,0,0,52.83,24.63Z"/><path class="cls-5" d="M53.27,23.61A2,2,0,0,0,53,24L29.22,37.83a2,2,0,0,1,.24-.39Z"/><path class="cls-5" d="M56,30.89a2.28,2.28,0,0,0,2.3.23L34.5,45a2.28,2.28,0,0,1-2.3-.23Z"/><path class="cls-5" d="M53.27,23.61a7.93,7.93,0,0,1-1.14.66l-1.21.7-2.53,1.47-4.87,2.83L29.46,37.45a1.6,1.6,0,0,1,.45-.39l23.8-13.83A1.6,1.6,0,0,0,53.27,23.61Z"/><path d="M58.3,31.12,34.5,45a2.27,2.27,0,0,0,.94-2.08L59.25,29A2.27,2.27,0,0,1,58.3,31.12Z"/><path d="M29.91,37.06l23.8-13.83a2.28,2.28,0,0,1,2.3.23L32.21,37.28A2.28,2.28,0,0,0,29.91,37.06Z"/><path d="M32.21,37.28,56,23.45A7.12,7.12,0,0,1,59.25,29L35.44,42.88A7.12,7.12,0,0,0,32.21,37.28Z"/><path class="cls-4" d="M216.17,244.47a2.16,2.16,0,0,1-.73.69L191.63,259a2.16,2.16,0,0,0,.73-.69Z"/><path class="cls-4" d="M216.58,242.91a2.78,2.78,0,0,1-.42,1.56l-23.8,13.83h0l23.77-13.81-23.77,13.81a2.78,2.78,0,0,0,.42-1.56Z"/><polygon class="cls-4" points="193.09 147.38 216.9 133.54 216.59 242.91 192.78 256.75 193.09 147.38"/><polygon points="193.09 147.38 216.9 133.54 218.89 134.7 195.09 148.53 193.09 147.38"/><path d="M220.31,134.83l-23.8,13.83a1.41,1.41,0,0,1-1.42-.14l23.8-13.83A1.41,1.41,0,0,0,220.31,134.83Z"/><polygon points="197.09 147.38 220.89 133.55 220.58 245.22 196.77 259.05 197.09 147.38"/><path d="M220.31,134.83l-23.8,13.83a1.4,1.4,0,0,0,.58-1.28l23.8-13.83A1.4,1.4,0,0,1,220.31,134.83Z"/><polygon points="193.1 142.79 216.91 128.95 218.91 130.11 195.1 143.94 193.1 142.79"/><polygon class="cls-5" points="193.14 130.19 216.94 116.36 216.91 128.95 193.1 142.79 193.14 130.19"/><polygon points="197.13 132.49 220.94 118.66 220.89 133.55 197.09 147.38 197.13 132.49"/><path d="M195.1,143.94l23.8-13.83a4.39,4.39,0,0,1,2,3.44l-23.8,13.83A4.39,4.39,0,0,0,195.1,143.94Z"/><polygon class="cls-5" points="11.42 20.12 35.23 6.29 210.6 107.54 186.8 121.37 11.42 20.12"/><path class="cls-5" d="M216.54,114.32a5.82,5.82,0,0,1,.41,2l-23.8,13.83a5.82,5.82,0,0,0-.41-2l11.9-6.91Z"/><path class="cls-5" d="M210.6,107.54a14.81,14.81,0,0,1,4.67,4.4l-23.8,13.83a14.81,14.81,0,0,0-4.67-4.4Z"/><path class="cls-5" d="M215.28,111.94h0l-23.8,13.83h0l23.8-13.83Z"/><path class="cls-5" d="M216.54,114.32l-23.8,13.83a11.31,11.31,0,0,0-1.26-2.38l23.8-13.83A11.31,11.31,0,0,1,216.54,114.32Z"/><path d="M12.78,26.06A7.12,7.12,0,0,1,16,31.66c0,2.05-1.46,2.88-3.25,1.85a7.11,7.11,0,0,1-3.23-5.59C9.53,25.86,11,25,12.78,26.06Z"/><path d="M22.49,31.67a7.12,7.12,0,0,1,3.23,5.59c0,2.05-1.46,2.88-3.25,1.85a7.11,7.11,0,0,1-3.23-5.59C19.25,31.47,20.7,30.64,22.49,31.67Z"/><path d="M32.21,37.28a7.12,7.12,0,0,1,3.23,5.59c0,2.05-1.46,2.88-3.25,1.85A7.11,7.11,0,0,1,29,39.14C29,37.08,30.42,36.25,32.21,37.28Z"/><path d="M218.26,250l-23.8,13.83a4.21,4.21,0,0,0,1.41-1.34,6.31,6.31,0,0,0,.91-3.47l23.8-13.83a6.31,6.31,0,0,1-.91,3.47A4.21,4.21,0,0,1,218.26,250Z"/><path d="M195.1,143.94a4.39,4.39,0,0,1,2,3.44c0,1.27-.9,1.78-2,1.14l-2-1.15L5,38.79,3,37.63a4.39,4.39,0,0,1-2-3.45c0-1.26.9-1.78,2-1.14L5,34.2,193.1,142.79Z"/><path class="cls-5" d="M35.24,1.7C32.51.13,30-.35,28.1.25a4.54,4.54,0,0,0-.92.4L3.38,14.48a4.54,4.54,0,0,1,.92-.4c1.91-.59,4.41-.12,7.13,1.45L186.81,116.78,210.62,103Z"/><path class="cls-6" d="M35.24,9.58C32.51,8,30,7.54,28.1,8.13a4.54,4.54,0,0,0-.92.4L3.38,22.36A4.54,4.54,0,0,1,4.3,22c1.91-.59,4.41-.12,7.13,1.45L186.81,124.67l23.8-13.83Z"/><g class="cls-7"><path d="M29.82,3.38a8.07,8.07,0,0,1,3.74,1.24L203.93,103l-20.8,12.36L9.92,14.4l19-10.83.23-.1a2.42,2.42,0,0,1,.71-.09m0-3.38A5.76,5.76,0,0,0,28.1.25a4.54,4.54,0,0,0-.92.4L.06,16.14a4.56,4.56,0,0,1,.87-.37,5.76,5.76,0,0,1,1.71-.25,11.17,11.17,0,0,1,5.42,1.7l175.1,102.05L210.62,103,35.24,1.7A11.17,11.17,0,0,0,29.82,0ZM.06,16.14l-.06,0,.06,0Z"/></g><path d="M186.81,116.78,210.62,103a21.69,21.69,0,0,1,5.59,4.76,22,22,0,0,1,3.84,6.43,13.1,13.1,0,0,1,.89,4.51l-23.8,13.83a13.1,13.1,0,0,0-.89-4.51,22,22,0,0,0-3.84-6.43A21.69,21.69,0,0,0,186.81,116.78Z"/><path class="cls-5" d="M192.73,128.15a5.82,5.82,0,0,1,.41,2l0,12.6L5,34.2l0-12.6A2.77,2.77,0,0,1,5.47,20,2.57,2.57,0,0,1,7.68,19a7.38,7.38,0,0,1,3.74,1.15L186.8,121.37a14.81,14.81,0,0,1,4.67,4.4A11.31,11.31,0,0,1,192.73,128.15Zm-180-94.65c1.79,1,3.25.2,3.25-1.85a7.12,7.12,0,0,0-3.23-5.6c-1.79-1-3.24-.2-3.25,1.86a7.11,7.11,0,0,0,3.23,5.59m9.72,5.61c1.79,1,3.24.2,3.25-1.85a7.12,7.12,0,0,0-3.23-5.59c-1.79-1-3.24-.2-3.25,1.86a7.11,7.11,0,0,0,3.23,5.59m9.72,5.61c1.79,1,3.24.2,3.25-1.85a7.12,7.12,0,0,0-3.23-5.59c-1.79-1-3.24-.2-3.25,1.86a7.12,7.12,0,0,0,3.23,5.59"/><path d="M186.81,116.78a21.69,21.69,0,0,1,5.59,4.76,22,22,0,0,1,3.84,6.43,13.1,13.1,0,0,1,.89,4.51l0,14.89a4.39,4.39,0,0,0-2-3.44l-2-1.15,0-12.6a5.82,5.82,0,0,0-.41-2,11.31,11.31,0,0,0-1.26-2.38,14.8,14.8,0,0,0-4.66-4.39L11.43,20.12A7.38,7.38,0,0,0,7.68,19,2.57,2.57,0,0,0,5.47,20a2.77,2.77,0,0,0-.42,1.56L5,34.2,3,33c-1.1-.63-2-.12-2,1.14a4.39,4.39,0,0,0,2,3.45l2,1.15L4.7,148.16a5.82,5.82,0,0,0,.41,2,11.09,11.09,0,0,0,1.26,2.38A14.8,14.8,0,0,0,11,157L186.41,258.23a7.38,7.38,0,0,0,3.75,1.15,2.57,2.57,0,0,0,2.2-1.07,2.78,2.78,0,0,0,.42-1.56l.31-109.37,2,1.15c1.1.63,2,.12,2-1.14l-.32,111.67a6.31,6.31,0,0,1-.91,3.47,4.24,4.24,0,0,1-2.33,1.74c-1.91.59-4.41.12-7.13-1.45L11,161.56a21.67,21.67,0,0,1-5.59-4.76,22,22,0,0,1-3.84-6.43,13.14,13.14,0,0,1-.89-4.51L1.06,19.3A6.28,6.28,0,0,1,2,15.82,4.22,4.22,0,0,1,4.3,14.08c1.91-.59,4.41-.12,7.13,1.45Z"/><path class="cls-4" d="M5,38.79,4.7,148.16a5.81,5.81,0,0,0,.41,2,11.09,11.09,0,0,0,1.26,2.38A14.8,14.8,0,0,0,11,157L186.42,258.23a7.38,7.38,0,0,0,3.74,1.15,2.57,2.57,0,0,0,2.2-1.07,2.78,2.78,0,0,0,.42-1.56l.31-109.37Z"/><polygon points="44.99 102.13 44.98 108.95 35.78 111.15 44.93 124.02 44.91 130.81 31.13 111.75 31.14 105.3 44.99 102.13"/><path d="M66.08,106.26l0,9.06,4.08,2.35v4.82L66,120.13,66,137.9a4.93,4.93,0,0,0,.57,2.51,5,5,0,0,0,1.85,1.76l.21.12a13.76,13.76,0,0,0,1.72.83l0,5.57a36.67,36.67,0,0,1-4-1.92l-.36-.22a13.35,13.35,0,0,1-3.11-2.5,10.7,10.7,0,0,1-2-3.08,16,16,0,0,1-1-3.4,22,22,0,0,1-.3-3.82l0-17.31L57,114.92v-4.82l2.65,1.53,0-9.06Z"/><path d="M84.69,125.68a6.4,6.4,0,0,1,.95.68l0,7.21a10.3,10.3,0,0,0-2.19-1.74,4.08,4.08,0,0,0-2.39-.6,3.33,3.33,0,0,0-2,1.26L79,153.63,72.62,150l.09-30.82L79,122.81v4.74a5.5,5.5,0,0,1,2.72-2.37A3.67,3.67,0,0,1,84.69,125.68Z"/><path d="M95.19,131.66a16.1,16.1,0,0,1,6.21,5.9,16.63,16.63,0,0,1,1.92,8.3v2.5L97.4,145v-2.63a9.94,9.94,0,0,0-.48-3.55,3.79,3.79,0,0,0-1.69-1.9q-1.34-.77-1.8.05a9.52,9.52,0,0,0-.48,3.8l0,11.24a12.79,12.79,0,0,0,.5,4.26,3.91,3.91,0,0,0,1.75,2q1.27.73,1.72,0a5.85,5.85,0,0,0,.46-2.77v-3.3l5.91,3.41v2.92q0,4.79-2,6.07t-6.18-1.14a15.69,15.69,0,0,1-6.54-6.72,21.74,21.74,0,0,1-2-9.66l0-8.93q0-5.57,2-7.34T95.19,131.66Z"/><polygon points="112.52 129.73 112.45 154.43 119.19 146.01 126.05 149.95 119.45 158.49 125.85 180.7 119.21 176.87 114.48 158.96 112.43 161.12 112.4 172.88 106.1 169.24 106.22 126.09 112.52 129.73"/><path d="M139.13,157.11a6.41,6.41,0,0,1,1,.68l0,7.21a10.3,10.3,0,0,0-2.19-1.74,4.08,4.08,0,0,0-2.39-.6,3.33,3.33,0,0,0-2,1.26l-.06,21.14-6.34-3.66.09-30.82,6.34,3.66V159a5.53,5.53,0,0,1,2.72-2.37A3.67,3.67,0,0,1,139.13,157.11Z"/><polygon points="151.87 163.84 165.7 182.98 165.68 189.44 151.79 192.52 151.81 185.72 161.03 183.46 151.85 170.66 151.87 163.84"/></g></g></g></svg>