<?xml version="1.0" encoding="utf-8"?>
<!-- Generator: Adobe Illustrator 20.1.0, SVG Export Plug-In . SVG Version: 6.00 Build 0)  -->
<svg version="1.1" id="Layer_1" xmlns="http://www.w3.org/2000/svg" xmlns:xlink="http://www.w3.org/1999/xlink" x="0px" y="0px"
	 viewBox="0 0 336.4 246" style="enable-background:new 0 0 336.4 246;" xml:space="preserve">
<style type="text/css">
	.st0{enable-background:new    ;}
	.st1{fill:#FFEECC;}
	.st2{fill:#FFFFFF;}
	.st3{fill:#16110D;}
	.st4{fill:#FFBE2E;}
	.st5{fill:#121212;}
</style>
<title>Code Portfolio 1</title>
<g id="Layer_2">
	<g id="Code">
		<g class="st0">
			<path d="M128.1,50l33-19l5.9,3.4l-1.9,1.1c3.1,0,5.5,0.5,7.3,1.6c0.9,0.5,1.4,1.1,1.7,1.7c0.3,0.6,0.3,1.2,0.1,1.8
				c-0.2,0.6-0.6,1.1-1.1,1.7c-0.5,0.6-1.1,1.1-1.7,1.5c-0.6,0.4-1.2,0.9-1.9,1.3l-8.1,4.7c-1.3,0.7-2.5,1.3-3.8,1.8
				c-1.3,0.5-2.6,0.8-3.9,1.1c-1.3,0.2-2.6,0.3-3.8,0.1c-1.3-0.2-2.4-0.6-3.5-1.2c-1.5-0.9-2.3-2.2-2.4-4l-10,5.8L128.1,50z
				 M148.6,47.9c0.4,0.2,0.9,0.4,1.5,0.4c0.5,0,1.1-0.1,1.7-0.2c0.6-0.2,1.2-0.4,1.7-0.7c0.5-0.3,1.2-0.6,1.9-1l8.5-4.9
				c0.6-0.3,1.1-0.6,1.4-0.9c0.4-0.3,0.7-0.6,1-0.9c0.3-0.3,0.3-0.6,0.3-0.9s-0.4-0.6-0.8-0.8c-0.8-0.4-1.9-0.7-3.4-0.8L146.7,46
				C147.1,46.8,147.7,47.4,148.6,47.9z"/>
			<path d="M163.8,61.5c-2.7-1.5-3.9-3.1-3.7-4.7c0.2-1.6,1.7-3.2,4.5-4.8l8.2-4.7c2.8-1.6,5.6-2.5,8.4-2.6c2.8-0.1,5.5,0.6,8.2,2.1
				c2.7,1.5,3.9,3.1,3.8,4.7c-0.2,1.6-1.7,3.2-4.5,4.8l-8.2,4.7c-2.8,1.6-5.6,2.5-8.4,2.6C169.2,63.8,166.5,63.1,163.8,61.5z
				 M168,59.2c0.5,0.3,1,0.4,1.5,0.5c0.5,0.1,1.1,0,1.6-0.2c0.6-0.2,1.1-0.4,1.5-0.6c0.5-0.2,1-0.5,1.7-0.9l9-5.2
				c0.5-0.3,0.9-0.5,1.3-0.8c0.3-0.2,0.6-0.5,1-0.7c0.3-0.3,0.5-0.5,0.6-0.7c0.1-0.2,0.1-0.5,0-0.7c-0.1-0.2-0.4-0.5-0.7-0.7
				c-0.5-0.3-1-0.4-1.5-0.5c-0.5,0-1.1,0-1.6,0.2c-0.6,0.2-1.1,0.4-1.5,0.6c-0.5,0.2-1,0.5-1.7,0.9l-9,5.2c-0.5,0.3-0.9,0.6-1.3,0.8
				c-0.3,0.2-0.6,0.4-1,0.7c-0.3,0.3-0.5,0.5-0.6,0.7c-0.1,0.2-0.1,0.5,0,0.7C167.3,58.7,167.6,58.9,168,59.2z"/>
			<path d="M176.3,68.2L201.1,54l5.9,3.4l-3.8,2.2c2.3-0.4,4.2-0.5,5.7-0.4c1.5,0.1,2.7,0.5,3.7,1c0.3,0.2,0.6,0.4,0.8,0.6l-5.8,3.3
				c-0.4-0.5-1-1-1.7-1.4c-0.9-0.5-1.8-0.8-2.8-0.9c-1-0.1-2.3-0.1-3.8,0.1l-17,9.8L176.3,68.2z"/>
			<path d="M197.7,80.9c-1.1-0.7-1.9-1.3-2.3-2c-0.4-0.7-0.5-1.3-0.3-1.9c0.3-0.6,0.7-1.2,1.4-1.8c0.6-0.6,1.5-1.2,2.7-1.8l13.9-8
				l-2.5-1.4l3.9-2.2l2.5,1.4l7.3-4.2l5.9,3.4l-7.3,4.2l3.8,2.2l-3.9,2.2l-3.8-2.2l-14.3,8.2c-0.8,0.5-1.2,0.9-1.2,1.3
				s0.4,0.8,1.2,1.3c0.5,0.3,1.2,0.6,1.9,1l-4.5,2.6C200.1,82.2,198.6,81.5,197.7,80.9z"/>
			<path d="M206.6,85.6l20.6-11.9l-2.7-1.5l4.2-2.4l2.7,1.5l1.3-0.8c1-0.6,1.9-1.1,2.7-1.4c0.8-0.4,1.6-0.7,2.5-0.9
				c0.9-0.2,1.8-0.4,2.6-0.3c0.8,0,1.8,0.2,2.7,0.5c1,0.3,2,0.7,3,1.3c0.8,0.5,1.8,1.1,3,2l-4.4,2.5c-0.1-0.1-0.3-0.2-0.6-0.5
				c-0.3-0.3-0.6-0.4-0.8-0.5c-0.7-0.4-1.4-0.6-2.1-0.5c-0.7,0.1-1.5,0.4-2.3,0.9l-1.9,1.1l3.5,2l-4.2,2.4l-3.5-2L212.4,89
				L206.6,85.6z"/>
			<path d="M225.5,97c-2.7-1.5-3.9-3.1-3.7-4.7c0.2-1.6,1.7-3.2,4.5-4.8l8.2-4.7c2.8-1.6,5.6-2.5,8.4-2.6c2.8-0.1,5.5,0.6,8.2,2.1
				c2.7,1.5,3.9,3.1,3.8,4.7c-0.2,1.6-1.7,3.2-4.5,4.8l-8.2,4.7c-2.8,1.6-5.6,2.5-8.4,2.6C230.9,99.2,228.2,98.5,225.5,97z
				 M229.6,94.6c0.5,0.3,1,0.4,1.5,0.5s1.1,0,1.6-0.2s1.1-0.4,1.5-0.6c0.5-0.2,1-0.5,1.7-0.9l9-5.2c0.5-0.3,0.9-0.5,1.3-0.8
				c0.3-0.2,0.6-0.5,1-0.7c0.3-0.3,0.5-0.5,0.6-0.7c0.1-0.2,0.1-0.5,0-0.7c-0.1-0.2-0.4-0.5-0.7-0.7c-0.5-0.3-1-0.4-1.5-0.5
				c-0.5,0-1.1,0-1.6,0.2c-0.6,0.2-1.1,0.4-1.5,0.6c-0.5,0.2-1,0.5-1.7,0.9l-9,5.2c-0.5,0.3-0.9,0.6-1.3,0.8c-0.3,0.2-0.6,0.4-1,0.7
				c-0.3,0.3-0.5,0.5-0.6,0.7c-0.1,0.2-0.1,0.5,0,0.7C229,94.2,229.2,94.4,229.6,94.6z"/>
			<path d="M238.3,103.9l34.7-20l5.9,3.4l-34.7,20L238.3,103.9z"/>
			<path d="M248.9,110l24.8-14.3l5.9,3.4l-24.8,14.3L248.9,110z M277.7,93.5l4.9-2.8l5.9,3.4l-4.9,2.8L277.7,93.5z"/>
			<path d="M266.5,120.5c-2.7-1.5-3.9-3.1-3.7-4.7c0.2-1.6,1.7-3.2,4.5-4.8l8.2-4.7c2.8-1.6,5.6-2.5,8.4-2.6
				c2.8-0.1,5.5,0.6,8.2,2.1c2.7,1.5,3.9,3.1,3.8,4.7c-0.2,1.6-1.7,3.2-4.5,4.8l-8.2,4.7c-2.8,1.6-5.6,2.5-8.4,2.6
				C271.9,122.8,269.2,122.1,266.5,120.5z M270.6,118.2c0.5,0.3,1,0.4,1.5,0.5c0.5,0.1,1.1,0,1.6-0.2c0.6-0.2,1.1-0.4,1.5-0.6
				c0.5-0.2,1-0.5,1.7-0.9l9-5.2c0.5-0.3,0.9-0.5,1.3-0.8c0.3-0.2,0.6-0.5,1-0.7c0.3-0.3,0.5-0.5,0.6-0.7c0.1-0.2,0.1-0.5,0-0.7
				s-0.4-0.5-0.7-0.7c-0.5-0.3-1-0.4-1.5-0.5c-0.5,0-1.1,0-1.6,0.2c-0.6,0.2-1.1,0.4-1.5,0.6c-0.5,0.2-1,0.5-1.7,0.9l-9,5.2
				c-0.5,0.3-0.9,0.6-1.3,0.8c-0.3,0.2-0.6,0.4-1,0.7c-0.3,0.3-0.5,0.5-0.6,0.7c-0.1,0.2-0.1,0.5,0,0.7
				C270,117.7,270.2,117.9,270.6,118.2z"/>
		</g>
		<g id="_2">
			<g id="_Group_">
				<g id="_Group_2">
					<path id="_Path_" class="st1" d="M208.3,232.4L21.7,124.8c-4.5-2.6-12.3-2.2-17.4,0.7l0,0c-5.2,3-5.7,7.5-1.2,10.1l186.6,107.7
						c4.5,2.6,12.3,2.2,17.4-0.7l0,0C212.2,239.5,212.8,235,208.3,232.4z"/>
				</g>
				<g id="_Group_3">
					<path id="_Path_2" class="st1" d="M224,126.8L121,67.4c-4.5-2.6-12.3-2.2-17.4,0.7l0,0c-5.2,3-5.7,7.5-1.2,10.1l103,59.4
						c4.5,2.6,12.3,2.2,17.4-0.7l0,0C227.9,133.9,228.5,129.4,224,126.8z"/>
				</g>
				<g id="_Group_4">
					<path id="_Path_3" class="st2" d="M257.9,146.4l-4.2-2.4c-4.5-2.6-12.3-2.2-17.4,0.7l0,0c-5.2,3-5.7,7.5-1.2,10.1l4.2,2.4
						c4.5,2.6,12.3,2.2,17.4-0.7l0,0C261.8,153.4,262.4,148.9,257.9,146.4z"/>
				</g>
				<g id="_Group_5">
					<path id="_Path_4" class="st1" d="M143.9,160.7l-92.4-53.3c-4.5-2.6-12.3-2.2-17.4,0.7l0,0c-5.2,3-5.7,7.5-1.2,10.1l92.4,53.3
						c4.5,2.6,12.3,2.2,17.4-0.7l0,0C147.8,167.8,148.4,163.3,143.9,160.7z"/>
				</g>
				<g id="_Group_6">
					<path id="_Path_5" class="st2" d="M179,181l-8.3-4.8c-4.5-2.6-12.3-2.2-17.4,0.7l0,0c-5.2,3-5.7,7.5-1.2,10.1l8.3,4.8
						c4.5,2.6,12.3,2.2,17.4-0.7l0,0C182.9,188,183.5,183.6,179,181z"/>
				</g>
				<g id="_Group_7">
					<path id="_Path_6" class="st1" d="M213.3,166.6l-61.1-35.3c-4.5-2.6-12.3-2.2-17.4,0.7l0,0c-5.2,3-5.7,7.5-1.2,10.1l61.1,35.3
						c4.5,2.6,12.3,2.2,17.4-0.7l0,0C217.2,173.6,217.8,169.1,213.3,166.6z"/>
				</g>
				<g id="_Group_8">
					<path id="_Path_7" class="st2" d="M125.7,116l-8.3-4.8c-4.5-2.6-12.3-2.2-17.4,0.7l0,0c-5.2,3-5.7,7.5-1.2,10.1l8.3,4.8
						c4.5,2.6,12.3,2.2,17.4-0.7l0,0C129.6,123.1,130.1,118.6,125.7,116z"/>
				</g>
			</g>
			<g id="_Group_9">
				<g id="_Group_10">
					<g id="_Group_11">
						<path id="_Compound_Path_" class="st3" d="M24.9,121.8c-3.6,0-7.2,0.9-10.4,2.6c-3.1,1.8-4.8,4.2-4.8,6.6c0,2.1,1.3,4,3.6,5.3
							l186.6,107.7c4.8,2.8,13,2.5,18.5-0.7c3.1-1.8,4.8-4.2,4.8-6.6c0-2.1-1.3-4-3.6-5.3L33,123.7
							C30.5,122.4,27.7,121.8,24.9,121.8z M208,243.8c-2.4,0.1-4.8-0.5-7-1.6L14.4,134.5c-1.1-0.6-2.5-1.8-2.5-3.4s1.4-3.4,3.7-4.7
							c4.9-2.8,12.2-3.1,16.3-0.7l186.6,107.7c1.1,0.6,2.5,1.8,2.5,3.4s-1.4,3.4-3.7,4.7C214.4,243,211.2,243.8,208,243.8z"/>
					</g>
				</g>
				<g id="_Group_12">
					<g id="_Group_13">
						<path id="_Compound_Path_2" class="st3" d="M124.2,64.4c-3.6,0-7.2,0.9-10.4,2.6c-3.1,1.8-4.8,4.2-4.8,6.6
							c0,2.1,1.3,4,3.6,5.3l103,59.4c4.9,2.8,13,2.5,18.5-0.7c3.1-1.8,4.8-4.2,4.8-6.6c0-2.1-1.3-4-3.6-5.3l-103-59.4
							C129.8,65,127,64.4,124.2,64.4z M223.7,138.1c-2.4,0.1-4.8-0.5-7-1.6l-103-59.4c-1.1-0.7-2.5-1.8-2.5-3.4s1.4-3.4,3.7-4.7
							c4.8-2.8,12.2-3.1,16.3-0.7l103,59.4c1.1,0.6,2.5,1.8,2.5,3.4s-1.4,3.4-3.7,4.7C230.2,137.4,227,138.2,223.7,138.1
							L223.7,138.1z"/>
					</g>
				</g>
				<g id="_Group_14">
					<g id="_Group_15">
						<path id="_Compound_Path_3" class="st3" d="M256.9,141c-3.6,0-7.2,0.9-10.4,2.6c-3.1,1.8-4.8,4.2-4.8,6.6c0,2.1,1.3,4,3.6,5.3
							l4.2,2.4c4.8,2.8,13,2.5,18.5-0.7c3.1-1.8,4.8-4.2,4.8-6.6c0-2.1-1.3-4-3.6-5.3l-4.2-2.4C262.6,141.6,259.8,140.9,256.9,141z
							 M257.6,157.7c-2.4,0.1-4.8-0.5-7-1.6l-4.2-2.4c-1.1-0.6-2.5-1.8-2.5-3.4s1.4-3.4,3.7-4.7c4.9-2.8,12.2-3.1,16.3-0.7l4.2,2.4
							c1.1,0.6,2.5,1.8,2.5,3.4s-1.4,3.4-3.7,4.7C264.1,156.9,260.9,157.7,257.6,157.7L257.6,157.7z"/>
					</g>
				</g>
				<g id="_Group_16">
					<g id="_Group_17">
						<path id="_Compound_Path_4" class="st3" d="M54.8,104.5c-3.6,0-7.2,0.9-10.4,2.6c-3.1,1.8-4.8,4.2-4.8,6.6
							c0,2.1,1.3,4,3.6,5.3l92.4,53.3c4.8,2.8,13,2.5,18.5-0.7c3.1-1.8,4.8-4.2,4.8-6.6c0-2.1-1.3-4-3.6-5.3l0,0l-92.4-53.3
							C60.4,105.1,57.6,104.4,54.8,104.5z M143.6,172.1c-2.4,0.1-4.8-0.5-7-1.6l-92.4-53.3c-1.1-0.7-2.5-1.8-2.5-3.4
							s1.4-3.4,3.7-4.7c4.8-2.8,12.2-3.1,16.3-0.7l92.4,53.3l0,0c1.1,0.6,2.5,1.8,2.5,3.4s-1.4,3.4-3.7,4.7
							C150.1,171.3,146.9,172.1,143.6,172.1L143.6,172.1z"/>
					</g>
				</g>
				<g id="_Group_18">
					<g id="_Group_19">
						<path id="_Compound_Path_5" class="st3" d="M173.9,173.3c-3.6,0-7.2,0.9-10.4,2.6c-3.1,1.8-4.8,4.2-4.8,6.6
							c0,2.1,1.3,4,3.6,5.3l8.3,4.8c4.8,2.8,13,2.5,18.5-0.7c3.1-1.8,4.8-4.2,4.8-6.6c0-2.1-1.3-4-3.6-5.3l-8.3-4.8
							C179.6,173.9,176.8,173.2,173.9,173.3z M178.7,192.3c-2.4,0.1-4.8-0.5-7-1.6l-8.3-4.8c-1.1-0.6-2.5-1.8-2.5-3.4
							s1.4-3.4,3.7-4.7c4.8-2.8,12.2-3.1,16.3-0.7l8.3,4.8c1.1,0.6,2.5,1.8,2.5,3.4s-1.4,3.4-3.7,4.7
							C185.2,191.5,182,192.3,178.7,192.3z"/>
					</g>
				</g>
				<g id="_Group_20">
					<g id="_Group_21">
						<path id="_Compound_Path_6" class="st3" d="M155.4,128.4c-3.6,0-7.2,0.9-10.4,2.6c-3.1,1.8-4.8,4.2-4.8,6.6
							c0,2.1,1.3,4,3.6,5.3l61.1,35.3c4.8,2.8,13,2.5,18.5-0.7c3.1-1.8,4.8-4.2,4.8-6.6c0-2.1-1.3-4-3.6-5.3l-61.1-35.3
							C161,129,158.2,128.3,155.4,128.4z M213,177.9c-2.4,0.1-4.8-0.5-7-1.6L144.9,141c-1.1-0.6-2.5-1.8-2.5-3.4s1.4-3.4,3.7-4.7
							c4.9-2.8,12.2-3.1,16.3-0.7l61.1,35.3c1.1,0.6,2.5,1.8,2.5,3.4s-1.4,3.4-3.7,4.7C219.5,177.1,216.3,177.9,213,177.9z"/>
					</g>
				</g>
				<g id="_Group_22">
					<g id="_Group_23">
						<path id="_Compound_Path_7" class="st3" d="M120.6,108.3c-3.6,0-7.2,0.9-10.4,2.6c-3.1,1.8-4.8,4.2-4.8,6.6
							c0,2.1,1.3,4,3.6,5.3l8.3,4.8c4.8,2.8,13,2.5,18.5-0.7c3.1-1.8,4.8-4.2,4.8-6.6c0-2.1-1.3-4-3.6-5.3l-8.3-4.8
							C126.2,108.9,123.4,108.2,120.6,108.3z M125.4,127.4c-2.4,0.1-4.8-0.5-7-1.6l-8.3-4.7c-1.1-0.7-2.5-1.8-2.5-3.4
							s1.4-3.4,3.7-4.7c4.8-2.8,12.2-3.1,16.3-0.7l8.3,4.8c1.1,0.7,2.5,1.8,2.5,3.4s-1.4,3.4-3.7,4.7
							C131.8,126.6,128.6,127.4,125.4,127.4z"/>
					</g>
				</g>
			</g>
		</g>
		<g id="_">
			<g id="_Group_24">
				<path id="_Path_8" class="st3" d="M309.7,146.9c0.1,0,0.2,0.2,0.2,0.3c0,0.1-0.1,0.1-0.2,0.2c-0.3,0.1-0.6,0.1-0.8,0
					c-0.1,0-0.2-0.2-0.2-0.3c0-0.1,0.1-0.1,0.2-0.2C309.2,146.8,309.5,146.8,309.7,146.9z"/>
				<path id="_Path_9" class="st3" d="M311.9,145.7c0.1,0,0.2,0.2,0.2,0.3c0,0.1-0.1,0.1-0.2,0.2c-0.3,0.1-0.6,0.1-0.8,0
					c-0.1,0-0.2-0.2-0.2-0.3c0-0.1,0.1-0.1,0.2-0.2C311.4,145.5,311.7,145.5,311.9,145.7z"/>
				<path id="_Path_10" class="st3" d="M314.1,144.4c0.1,0,0.2,0.2,0.2,0.3c0,0.1-0.1,0.1-0.2,0.2c-0.3,0.1-0.6,0.1-0.8,0
					c-0.1,0-0.2-0.2-0.2-0.3c0-0.1,0.1-0.1,0.2-0.2C313.6,144.3,313.9,144.3,314.1,144.4z"/>
				<path id="_Path_11" class="st3" d="M316.4,143.1c0.1,0,0.2,0.2,0.2,0.3c0,0.1-0.1,0.1-0.2,0.2c-0.3,0.1-0.6,0.1-0.8,0
					c-0.1,0-0.2-0.2-0.2-0.3c0-0.1,0.1-0.1,0.2-0.2C315.8,143,316.1,143,316.4,143.1z"/>
				<path id="_Path_12" class="st3" d="M318.5,141.9c0.1,0,0.2,0.2,0.2,0.3c0,0.1-0.1,0.1-0.2,0.2c-0.3,0.1-0.6,0.1-0.8,0
					c-0.1,0-0.2-0.2-0.2-0.3c0-0.1,0.1-0.1,0.2-0.2C318,141.7,318.3,141.7,318.5,141.9z"/>
				<path id="_Path_13" class="st3" d="M320.8,140.6c0.1,0,0.2,0.2,0.2,0.3c0,0.1-0.1,0.1-0.2,0.2c-0.3,0.1-0.6,0.1-0.8,0
					c-0.1,0-0.2-0.2-0.2-0.3c0-0.1,0.1-0.1,0.2-0.2C320.2,140.4,320.5,140.4,320.8,140.6z"/>
				<path id="_Path_14" class="st3" d="M323,139.3c0.1,0,0.2,0.2,0.2,0.3c0,0.1-0.1,0.1-0.2,0.2c-0.3,0.1-0.6,0.1-0.8,0
					c-0.1,0-0.2-0.2-0.2-0.3c0-0.1,0.1-0.1,0.2-0.2C322.4,139.2,322.7,139.2,323,139.3z"/>
				<path id="_Path_15" class="st3" d="M325.2,138c0.1,0,0.2,0.2,0.2,0.3c0,0.1-0.1,0.1-0.2,0.2c-0.3,0.1-0.6,0.1-0.8,0
					c-0.1,0-0.2-0.2-0.2-0.3c0-0.1,0.1-0.1,0.2-0.2C324.6,137.9,324.9,137.9,325.2,138z"/>
				<path id="_Path_16" class="st3" d="M300.9,149.5c0.1,0,0.2,0.2,0.2,0.3c0,0.1-0.1,0.1-0.2,0.2c-0.3,0.1-0.6,0.1-0.8,0
					c-0.1,0-0.2-0.2-0.2-0.3c0-0.1,0.1-0.1,0.2-0.2C300.3,149.4,300.7,149.4,300.9,149.5z"/>
				<path id="_Path_17" class="st3" d="M303.1,148.2c0.1,0,0.2,0.2,0.2,0.3c0,0.1-0.1,0.1-0.2,0.2c-0.3,0.1-0.6,0.1-0.8,0
					c-0.1,0-0.2-0.2-0.2-0.3c0-0.1,0.1-0.1,0.2-0.2C302.5,148.1,302.9,148.1,303.1,148.2z"/>
				<path id="_Path_18" class="st3" d="M305.3,146.9c0.1,0,0.2,0.2,0.2,0.3c0,0.1-0.1,0.1-0.2,0.2c-0.3,0.1-0.6,0.1-0.8,0
					c-0.1,0-0.2-0.2-0.2-0.3c0-0.1,0.1-0.1,0.2-0.2C304.8,146.8,305.1,146.8,305.3,146.9z"/>
				<path id="_Path_19" class="st3" d="M307.5,145.7c0.1,0,0.2,0.2,0.2,0.3c0,0.1-0.1,0.1-0.2,0.2c-0.3,0.1-0.6,0.1-0.8,0
					c-0.1,0-0.2-0.2-0.2-0.3c0-0.1,0.1-0.1,0.2-0.2C307,145.5,307.3,145.5,307.5,145.7z"/>
				<path id="_Path_20" class="st3" d="M309.7,144.4c0.1,0,0.2,0.2,0.2,0.3c0,0.1-0.1,0.1-0.2,0.2c-0.3,0.1-0.6,0.1-0.8,0
					c-0.1,0-0.2-0.2-0.2-0.3c0-0.1,0.1-0.1,0.2-0.2C309.2,144.3,309.5,144.3,309.7,144.4z"/>
				<path id="_Path_21" class="st3" d="M311.9,143.1c0.1,0,0.2,0.2,0.2,0.3c0,0.1-0.1,0.1-0.2,0.2c-0.3,0.1-0.6,0.1-0.8,0
					c-0.1,0-0.2-0.2-0.2-0.3c0-0.1,0.1-0.1,0.2-0.2C311.4,143,311.7,143,311.9,143.1z"/>
				<path id="_Path_22" class="st3" d="M314.1,141.9c0.1,0,0.2,0.2,0.2,0.3c0,0.1-0.1,0.1-0.2,0.2c-0.3,0.1-0.6,0.1-0.8,0
					c-0.1,0-0.2-0.2-0.2-0.3c0-0.1,0.1-0.1,0.2-0.2C313.6,141.7,313.9,141.7,314.1,141.9z"/>
				<path id="_Path_23" class="st3" d="M316.4,140.6c0.1,0,0.2,0.2,0.2,0.3c0,0.1-0.1,0.1-0.2,0.2c-0.3,0.1-0.6,0.1-0.8,0
					c-0.1,0-0.2-0.2-0.2-0.3c0-0.1,0.1-0.1,0.2-0.2C315.8,140.4,316.1,140.4,316.4,140.6z"/>
				<path id="_Path_24" class="st3" d="M318.5,139.3c0.1,0,0.2,0.2,0.2,0.3c0,0.1-0.1,0.1-0.2,0.2c-0.3,0.1-0.6,0.1-0.8,0
					c-0.1,0-0.2-0.2-0.2-0.3c0-0.1,0.1-0.1,0.2-0.2C318,139.2,318.3,139.2,318.5,139.3z"/>
				<path id="_Path_25" class="st3" d="M320.8,138c0.1,0,0.2,0.2,0.2,0.3c0,0.1-0.1,0.1-0.2,0.2c-0.3,0.1-0.6,0.1-0.8,0
					c-0.1,0-0.2-0.2-0.2-0.3c0-0.1,0.1-0.1,0.2-0.2C320.2,137.9,320.5,137.9,320.8,138z"/>
				<path id="_Path_26" class="st3" d="M323,136.8c0.1,0,0.2,0.2,0.2,0.3c0,0.1-0.1,0.1-0.2,0.2c-0.3,0.1-0.6,0.1-0.8,0
					c-0.1,0-0.2-0.2-0.2-0.3c0-0.1,0.1-0.1,0.2-0.2C322.4,136.6,322.7,136.6,323,136.8z"/>
				<path id="_Path_27" class="st3" d="M298.7,148.2c0.1,0,0.2,0.2,0.2,0.3c0,0.1-0.1,0.1-0.2,0.2c-0.3,0.1-0.6,0.1-0.8,0
					c-0.1,0-0.2-0.2-0.2-0.3c0-0.1,0.1-0.1,0.2-0.2C298.1,148.1,298.4,148.1,298.7,148.2z"/>
				<path id="_Path_28" class="st3" d="M300.9,146.9c0.1,0,0.2,0.2,0.2,0.3c0,0.1-0.1,0.1-0.2,0.2c-0.3,0.1-0.6,0.1-0.8,0
					c-0.1,0-0.2-0.2-0.2-0.3c0-0.1,0.1-0.1,0.2-0.2C300.3,146.8,300.7,146.8,300.9,146.9z"/>
				<path id="_Path_29" class="st3" d="M303.1,145.7c0.1,0,0.2,0.2,0.2,0.3c0,0.1-0.1,0.1-0.2,0.2c-0.3,0.1-0.6,0.1-0.8,0
					c-0.1,0-0.2-0.2-0.2-0.3c0-0.1,0.1-0.1,0.2-0.2C302.5,145.5,302.9,145.5,303.1,145.7z"/>
				<path id="_Path_30" class="st3" d="M305.3,144.4c0.1,0,0.2,0.2,0.2,0.3c0,0.1-0.1,0.1-0.2,0.2c-0.3,0.1-0.6,0.1-0.8,0
					c-0.1,0-0.2-0.2-0.2-0.3c0-0.1,0.1-0.1,0.2-0.2C304.8,144.3,305.1,144.3,305.3,144.4z"/>
				<path id="_Path_31" class="st3" d="M307.5,143.1c0.1,0,0.2,0.2,0.2,0.3c0,0.1-0.1,0.1-0.2,0.2c-0.3,0.1-0.6,0.1-0.8,0
					c-0.1,0-0.2-0.2-0.2-0.3c0-0.1,0.1-0.1,0.2-0.2C307,143,307.3,143,307.5,143.1z"/>
				<path id="_Path_32" class="st3" d="M309.7,141.9c0.1,0,0.2,0.2,0.2,0.3c0,0.1-0.1,0.1-0.2,0.2c-0.3,0.1-0.6,0.1-0.8,0
					c-0.1,0-0.2-0.2-0.2-0.3c0-0.1,0.1-0.1,0.2-0.2C309.2,141.7,309.5,141.7,309.7,141.9z"/>
				<path id="_Path_33" class="st3" d="M311.9,140.6c0.1,0,0.2,0.2,0.2,0.3c0,0.1-0.1,0.1-0.2,0.2c-0.3,0.1-0.6,0.1-0.8,0
					c-0.1,0-0.2-0.2-0.2-0.3c0-0.1,0.1-0.1,0.2-0.2C311.4,140.4,311.7,140.4,311.9,140.6z"/>
				<path id="_Path_34" class="st3" d="M314.1,139.3c0.1,0,0.2,0.2,0.2,0.3c0,0.1-0.1,0.1-0.2,0.2c-0.3,0.1-0.6,0.1-0.8,0
					c-0.1,0-0.2-0.2-0.2-0.3c0-0.1,0.1-0.1,0.2-0.2C313.6,139.2,313.9,139.2,314.1,139.3z"/>
				<path id="_Path_35" class="st3" d="M316.4,138c0.1,0,0.2,0.2,0.2,0.3c0,0.1-0.1,0.1-0.2,0.2c-0.3,0.1-0.6,0.1-0.8,0
					c-0.1,0-0.2-0.2-0.2-0.3c0-0.1,0.1-0.1,0.2-0.2C315.8,137.9,316.1,137.9,316.4,138z"/>
				<path id="_Path_36" class="st3" d="M318.5,136.8c0.1,0,0.2,0.2,0.2,0.3c0,0.1-0.1,0.1-0.2,0.2c-0.3,0.1-0.6,0.1-0.8,0
					c-0.1,0-0.2-0.2-0.2-0.3c0-0.1,0.1-0.1,0.2-0.2C318,136.6,318.3,136.6,318.5,136.8z"/>
				<path id="_Path_37" class="st3" d="M320.8,135.5c0.1,0,0.2,0.2,0.2,0.3c0,0.1-0.1,0.1-0.2,0.2c-0.3,0.1-0.6,0.1-0.8,0
					c-0.1,0-0.2-0.2-0.2-0.3c0-0.1,0.1-0.1,0.2-0.2C320.2,135.4,320.5,135.4,320.8,135.5z"/>
				<path id="_Path_38" class="st3" d="M292.1,149.5c0.1,0,0.2,0.2,0.2,0.3c0,0.1-0.1,0.1-0.2,0.2c-0.3,0.1-0.6,0.1-0.8,0
					c-0.1,0-0.2-0.2-0.2-0.3c0-0.1,0.1-0.1,0.2-0.2C291.5,149.4,291.8,149.4,292.1,149.5z"/>
				<path id="_Path_39" class="st3" d="M294.3,148.2c0.1,0,0.2,0.2,0.2,0.3c0,0.1-0.1,0.1-0.2,0.2c-0.3,0.1-0.6,0.1-0.8,0
					c-0.1,0-0.2-0.2-0.2-0.3c0-0.1,0.1-0.1,0.2-0.2C293.7,148.1,294,148.1,294.3,148.2z"/>
				<path id="_Path_40" class="st3" d="M296.5,146.9c0.1,0,0.2,0.2,0.2,0.3c0,0.1-0.1,0.1-0.2,0.2c-0.3,0.1-0.6,0.1-0.8,0
					c-0.1,0-0.2-0.2-0.2-0.3c0-0.1,0.1-0.1,0.2-0.2C295.9,146.8,296.2,146.8,296.5,146.9z"/>
				<path id="_Path_41" class="st3" d="M298.7,145.7c0.1,0,0.2,0.2,0.2,0.3c0,0.1-0.1,0.1-0.2,0.2c-0.3,0.1-0.6,0.1-0.8,0
					c-0.1,0-0.2-0.2-0.2-0.3c0-0.1,0.1-0.1,0.2-0.2C298.1,145.5,298.4,145.5,298.7,145.7z"/>
				<path id="_Path_42" class="st3" d="M300.9,144.4c0.1,0,0.2,0.2,0.2,0.3c0,0.1-0.1,0.1-0.2,0.2c-0.3,0.1-0.6,0.1-0.8,0
					c-0.1,0-0.2-0.2-0.2-0.3c0-0.1,0.1-0.1,0.2-0.2C300.3,144.3,300.7,144.3,300.9,144.4z"/>
				<path id="_Path_43" class="st3" d="M303.1,143.1c0.1,0,0.2,0.2,0.2,0.3c0,0.1-0.1,0.1-0.2,0.2c-0.3,0.1-0.6,0.1-0.8,0
					c-0.1,0-0.2-0.2-0.2-0.3c0-0.1,0.1-0.1,0.2-0.2C302.5,143,302.9,143,303.1,143.1z"/>
				<path id="_Path_44" class="st3" d="M305.3,141.9c0.1,0,0.2,0.2,0.2,0.3c0,0.1-0.1,0.1-0.2,0.2c-0.3,0.1-0.6,0.1-0.8,0
					c-0.1,0-0.2-0.2-0.2-0.3c0-0.1,0.1-0.1,0.2-0.2C304.8,141.7,305.1,141.7,305.3,141.9z"/>
				<path id="_Path_45" class="st3" d="M307.5,140.6c0.1,0,0.2,0.2,0.2,0.3c0,0.1-0.1,0.1-0.2,0.2c-0.3,0.1-0.6,0.1-0.8,0
					c-0.1,0-0.2-0.2-0.2-0.3c0-0.1,0.1-0.1,0.2-0.2C307,140.4,307.3,140.4,307.5,140.6z"/>
				<path id="_Path_46" class="st3" d="M309.7,139.3c0.1,0,0.2,0.2,0.2,0.3c0,0.1-0.1,0.1-0.2,0.2c-0.3,0.1-0.6,0.1-0.8,0
					c-0.1,0-0.2-0.2-0.2-0.3c0-0.1,0.1-0.1,0.2-0.2C309.2,139.2,309.5,139.2,309.7,139.3z"/>
				<path id="_Path_47" class="st3" d="M311.9,138c0.1,0,0.2,0.2,0.2,0.3c0,0.1-0.1,0.1-0.2,0.2c-0.3,0.1-0.6,0.1-0.8,0
					c-0.1,0-0.2-0.2-0.2-0.3c0-0.1,0.1-0.1,0.2-0.2C311.4,137.9,311.7,137.9,311.9,138z"/>
				<path id="_Path_48" class="st3" d="M314.1,136.8c0.1,0,0.2,0.2,0.2,0.3c0,0.1-0.1,0.1-0.2,0.2c-0.3,0.1-0.6,0.1-0.8,0
					c-0.1,0-0.2-0.2-0.2-0.3c0-0.1,0.1-0.1,0.2-0.2C313.6,136.6,313.9,136.6,314.1,136.8z"/>
				<path id="_Path_49" class="st3" d="M316.4,135.5c0.1,0,0.2,0.2,0.2,0.3c0,0.1-0.1,0.1-0.2,0.2c-0.3,0.1-0.6,0.1-0.8,0
					c-0.1,0-0.2-0.2-0.2-0.3c0-0.1,0.1-0.1,0.2-0.2C315.8,135.4,316.1,135.4,316.4,135.5z"/>
				<path id="_Path_50" class="st3" d="M318.5,134.2c0.1,0,0.2,0.2,0.2,0.3c0,0.1-0.1,0.1-0.2,0.2c-0.3,0.1-0.6,0.1-0.8,0
					c-0.1,0-0.2-0.2-0.2-0.3c0-0.1,0.1-0.1,0.2-0.2C318,134.1,318.3,134.1,318.5,134.2z"/>
				<path id="_Path_51" class="st3" d="M287.7,149.5c0.1,0,0.2,0.2,0.2,0.3c0,0.1-0.1,0.1-0.2,0.2c-0.3,0.1-0.6,0.1-0.8,0
					c-0.1,0-0.2-0.2-0.2-0.3c0-0.1,0.1-0.1,0.2-0.2C287.1,149.4,287.4,149.4,287.7,149.5z"/>
				<path id="_Path_52" class="st3" d="M289.9,148.2c0.1,0,0.2,0.2,0.2,0.3c0,0.1-0.1,0.1-0.2,0.2c-0.3,0.1-0.6,0.1-0.8,0
					c-0.1,0-0.2-0.2-0.2-0.3c0-0.1,0.1-0.1,0.2-0.2C289.3,148.1,289.6,148.1,289.9,148.2z"/>
				<path id="_Path_53" class="st3" d="M292.1,146.9c0.1,0,0.2,0.2,0.2,0.3c0,0.1-0.1,0.1-0.2,0.2c-0.3,0.1-0.6,0.1-0.8,0
					c-0.1,0-0.2-0.2-0.2-0.3c0-0.1,0.1-0.1,0.2-0.2C291.5,146.8,291.8,146.8,292.1,146.9z"/>
				<path id="_Path_54" class="st3" d="M294.3,145.7c0.1,0,0.2,0.2,0.2,0.3c0,0.1-0.1,0.1-0.2,0.2c-0.3,0.1-0.6,0.1-0.8,0
					c-0.1,0-0.2-0.2-0.2-0.3c0-0.1,0.1-0.1,0.2-0.2C293.7,145.5,294,145.5,294.3,145.7z"/>
				<path id="_Path_55" class="st3" d="M296.5,144.4c0.1,0,0.2,0.2,0.2,0.3c0,0.1-0.1,0.1-0.2,0.2c-0.3,0.1-0.6,0.1-0.8,0
					c-0.1,0-0.2-0.2-0.2-0.3c0-0.1,0.1-0.1,0.2-0.2C295.9,144.3,296.2,144.3,296.5,144.4z"/>
				<path id="_Path_56" class="st3" d="M298.7,143.1c0.1,0,0.2,0.2,0.2,0.3c0,0.1-0.1,0.1-0.2,0.2c-0.3,0.1-0.6,0.1-0.8,0
					c-0.1,0-0.2-0.2-0.2-0.3c0-0.1,0.1-0.1,0.2-0.2C298.1,143,298.4,143,298.7,143.1z"/>
				<path id="_Path_57" class="st3" d="M300.9,141.9c0.1,0,0.2,0.2,0.2,0.3c0,0.1-0.1,0.1-0.2,0.2c-0.3,0.1-0.6,0.1-0.8,0
					c-0.1,0-0.2-0.2-0.2-0.3c0-0.1,0.1-0.1,0.2-0.2C300.3,141.7,300.7,141.7,300.9,141.9z"/>
				<path id="_Path_58" class="st3" d="M303.1,140.6c0.1,0,0.2,0.2,0.2,0.3c0,0.1-0.1,0.1-0.2,0.2c-0.3,0.1-0.6,0.1-0.8,0
					c-0.1,0-0.2-0.2-0.2-0.3c0-0.1,0.1-0.1,0.2-0.2C302.5,140.4,302.9,140.4,303.1,140.6z"/>
				<path id="_Path_59" class="st3" d="M305.3,139.3c0.1,0,0.2,0.2,0.2,0.3c0,0.1-0.1,0.1-0.2,0.2c-0.3,0.1-0.6,0.1-0.8,0
					c-0.1,0-0.2-0.2-0.2-0.3c0-0.1,0.1-0.1,0.2-0.2C304.8,139.2,305.1,139.2,305.3,139.3z"/>
				<path id="_Path_60" class="st3" d="M307.5,138c0.1,0,0.2,0.2,0.2,0.3c0,0.1-0.1,0.1-0.2,0.2c-0.3,0.1-0.6,0.1-0.8,0
					c-0.1,0-0.2-0.2-0.2-0.3c0-0.1,0.1-0.1,0.2-0.2C307,137.9,307.3,137.9,307.5,138z"/>
				<path id="_Path_61" class="st3" d="M309.7,136.8c0.1,0,0.2,0.2,0.2,0.3c0,0.1-0.1,0.1-0.2,0.2c-0.3,0.1-0.6,0.1-0.8,0
					c-0.1,0-0.2-0.2-0.2-0.3c0-0.1,0.1-0.1,0.2-0.2C309.2,136.6,309.5,136.6,309.7,136.8z"/>
				<path id="_Path_62" class="st3" d="M311.9,135.5c0.1,0,0.2,0.2,0.2,0.3c0,0.1-0.1,0.1-0.2,0.2c-0.3,0.1-0.6,0.1-0.8,0
					c-0.1,0-0.2-0.2-0.2-0.3c0-0.1,0.1-0.1,0.2-0.2C311.4,135.4,311.7,135.4,311.9,135.5z"/>
				<path id="_Path_63" class="st3" d="M314.1,134.2c0.1,0,0.2,0.2,0.2,0.3c0,0.1-0.1,0.1-0.2,0.2c-0.3,0.1-0.6,0.1-0.8,0
					c-0.1,0-0.2-0.2-0.2-0.3c0-0.1,0.1-0.1,0.2-0.2C313.6,134.1,313.9,134.1,314.1,134.2z"/>
				<path id="_Path_64" class="st3" d="M316.4,132.9c0.1,0,0.2,0.2,0.2,0.3c0,0.1-0.1,0.1-0.2,0.2c-0.3,0.1-0.6,0.1-0.8,0
					c-0.1,0-0.2-0.2-0.2-0.3c0-0.1,0.1-0.1,0.2-0.2C315.8,132.8,316.1,132.8,316.4,132.9z"/>
				<path id="_Path_65" class="st3" d="M285.5,148.2c0.1,0,0.2,0.2,0.2,0.3c0,0.1-0.1,0.1-0.2,0.2c-0.3,0.1-0.6,0.1-0.8,0
					c-0.1,0-0.2-0.2-0.2-0.3c0-0.1,0.1-0.1,0.2-0.2C284.9,148.1,285.2,148.1,285.5,148.2z"/>
				<path id="_Path_66" class="st3" d="M287.7,146.9c0.1,0,0.2,0.2,0.2,0.3c0,0.1-0.1,0.1-0.2,0.2c-0.3,0.1-0.6,0.1-0.8,0
					c-0.1,0-0.2-0.2-0.2-0.3c0-0.1,0.1-0.1,0.2-0.2C287.1,146.8,287.4,146.8,287.7,146.9z"/>
				<path id="_Path_67" class="st3" d="M289.9,145.7c0.1,0,0.2,0.2,0.2,0.3c0,0.1-0.1,0.1-0.2,0.2c-0.3,0.1-0.6,0.1-0.8,0
					c-0.1,0-0.2-0.2-0.2-0.3c0-0.1,0.1-0.1,0.2-0.2C289.3,145.5,289.6,145.5,289.9,145.7z"/>
				<path id="_Path_68" class="st3" d="M292.1,144.4c0.1,0,0.2,0.2,0.2,0.3c0,0.1-0.1,0.1-0.2,0.2c-0.3,0.1-0.6,0.1-0.8,0
					c-0.1,0-0.2-0.2-0.2-0.3c0-0.1,0.1-0.1,0.2-0.2C291.5,144.3,291.8,144.3,292.1,144.4z"/>
				<path id="_Path_69" class="st3" d="M294.3,143.1c0.1,0,0.2,0.2,0.2,0.3c0,0.1-0.1,0.1-0.2,0.2c-0.3,0.1-0.6,0.1-0.8,0
					c-0.1,0-0.2-0.2-0.2-0.3c0-0.1,0.1-0.1,0.2-0.2C293.7,143,294,143,294.3,143.1z"/>
				<path id="_Path_70" class="st3" d="M296.5,141.9c0.1,0,0.2,0.2,0.2,0.3c0,0.1-0.1,0.1-0.2,0.2c-0.3,0.1-0.6,0.1-0.8,0
					c-0.1,0-0.2-0.2-0.2-0.3c0-0.1,0.1-0.1,0.2-0.2C295.9,141.7,296.2,141.7,296.5,141.9z"/>
				<path id="_Path_71" class="st3" d="M298.7,140.6c0.1,0,0.2,0.2,0.2,0.3c0,0.1-0.1,0.1-0.2,0.2c-0.3,0.1-0.6,0.1-0.8,0
					c-0.1,0-0.2-0.2-0.2-0.3c0-0.1,0.1-0.1,0.2-0.2C298.1,140.4,298.4,140.4,298.7,140.6z"/>
				<path id="_Path_72" class="st3" d="M300.9,139.3c0.1,0,0.2,0.2,0.2,0.3c0,0.1-0.1,0.1-0.2,0.2c-0.3,0.1-0.6,0.1-0.8,0
					c-0.1,0-0.2-0.2-0.2-0.3c0-0.1,0.1-0.1,0.2-0.2C300.3,139.2,300.7,139.2,300.9,139.3z"/>
				<path id="_Path_73" class="st3" d="M303.1,138c0.1,0,0.2,0.2,0.2,0.3c0,0.1-0.1,0.1-0.2,0.2c-0.3,0.1-0.6,0.1-0.8,0
					c-0.1,0-0.2-0.2-0.2-0.3c0-0.1,0.1-0.1,0.2-0.2C302.5,137.9,302.9,137.9,303.1,138z"/>
				<path id="_Path_74" class="st3" d="M305.3,136.8c0.1,0,0.2,0.2,0.2,0.3c0,0.1-0.1,0.1-0.2,0.2c-0.3,0.1-0.6,0.1-0.8,0
					c-0.1,0-0.2-0.2-0.2-0.3c0-0.1,0.1-0.1,0.2-0.2H305.3z"/>
				<path id="_Path_75" class="st3" d="M283.3,146.9c0.1,0,0.2,0.2,0.2,0.3c0,0.1-0.1,0.1-0.2,0.2c-0.3,0.1-0.6,0.1-0.8,0
					c-0.1,0-0.2-0.2-0.2-0.3c0-0.1,0.1-0.1,0.2-0.2C282.7,146.8,283,146.8,283.3,146.9z"/>
				<path id="_Path_76" class="st3" d="M285.5,145.7c0.1,0,0.2,0.2,0.2,0.3c0,0.1-0.1,0.1-0.2,0.2c-0.3,0.1-0.6,0.1-0.8,0
					c-0.1,0-0.2-0.2-0.2-0.3c0-0.1,0.1-0.1,0.2-0.2C284.9,145.5,285.2,145.5,285.5,145.7z"/>
				<path id="_Path_77" class="st3" d="M287.7,144.4c0.1,0,0.2,0.2,0.2,0.3c0,0.1-0.1,0.1-0.2,0.2c-0.3,0.1-0.6,0.1-0.8,0
					c-0.1,0-0.2-0.2-0.2-0.3c0-0.1,0.1-0.1,0.2-0.2C287.1,144.3,287.4,144.3,287.7,144.4z"/>
				<path id="_Path_78" class="st3" d="M289.9,143.1c0.1,0,0.2,0.2,0.2,0.3c0,0.1-0.1,0.1-0.2,0.2c-0.3,0.1-0.6,0.1-0.8,0
					c-0.1,0-0.2-0.2-0.2-0.3c0-0.1,0.1-0.1,0.2-0.2C289.3,143,289.6,143,289.9,143.1z"/>
				<path id="_Path_79" class="st3" d="M292.1,141.9c0.1,0,0.2,0.2,0.2,0.3c0,0.1-0.1,0.1-0.2,0.2c-0.3,0.1-0.6,0.1-0.8,0
					c-0.1,0-0.2-0.2-0.2-0.3c0-0.1,0.1-0.1,0.2-0.2C291.5,141.7,291.8,141.7,292.1,141.9z"/>
				<path id="_Path_80" class="st3" d="M294.3,140.6c0.1,0,0.2,0.2,0.2,0.3c0,0.1-0.1,0.1-0.2,0.2c-0.3,0.1-0.6,0.1-0.8,0
					c-0.1,0-0.2-0.2-0.2-0.3c0-0.1,0.1-0.1,0.2-0.2C293.7,140.4,294,140.4,294.3,140.6z"/>
				<path id="_Path_81" class="st3" d="M296.5,139.3c0.1,0,0.2,0.2,0.2,0.3c0,0.1-0.1,0.1-0.2,0.2c-0.3,0.1-0.6,0.1-0.8,0
					c-0.1,0-0.2-0.2-0.2-0.3c0-0.1,0.1-0.1,0.2-0.2H296.5z"/>
				<path id="_Path_82" class="st3" d="M281.1,145.7c0.1,0,0.2,0.2,0.2,0.3c0,0.1-0.1,0.1-0.2,0.2c-0.3,0.1-0.6,0.1-0.8,0
					c-0.1,0-0.2-0.2-0.2-0.3c0-0.1,0.1-0.1,0.2-0.2C280.5,145.5,280.8,145.5,281.1,145.7z"/>
				<path id="_Path_83" class="st3" d="M283.3,144.4c0.1,0,0.2,0.2,0.2,0.3c0,0.1-0.1,0.1-0.2,0.2c-0.3,0.1-0.6,0.1-0.8,0
					c-0.1,0-0.2-0.2-0.2-0.3c0-0.1,0.1-0.1,0.2-0.2C282.7,144.2,283,144.2,283.3,144.4z"/>
				<path id="_Path_84" class="st3" d="M285.5,143.1c0.1,0,0.2,0.2,0.2,0.3c0,0.1-0.1,0.1-0.2,0.2c-0.3,0.1-0.6,0.1-0.8,0
					c-0.1,0-0.2-0.2-0.2-0.3c0-0.1,0.1-0.1,0.2-0.2C284.9,143,285.2,143,285.5,143.1z"/>
				<path id="_Path_85" class="st3" d="M287.7,141.8c0.1,0,0.2,0.2,0.2,0.3c0,0.1-0.1,0.1-0.2,0.2c-0.3,0.1-0.6,0.1-0.8,0
					c-0.1,0-0.2-0.2-0.2-0.3c0-0.1,0.1-0.1,0.2-0.2C287.1,141.7,287.4,141.7,287.7,141.8z"/>
				<path id="_Path_86" class="st3" d="M289.9,140.6c0.1,0,0.2,0.2,0.2,0.3c0,0.1-0.1,0.1-0.2,0.2c-0.3,0.1-0.6,0.1-0.8,0
					c-0.1,0-0.2-0.2-0.2-0.3c0-0.1,0.1-0.1,0.2-0.2C289.3,140.4,289.6,140.4,289.9,140.6z"/>
				<path id="_Path_87" class="st3" d="M281.1,143.1c0.1,0,0.2,0.2,0.2,0.3c0,0.1-0.1,0.1-0.2,0.2c-0.3,0.1-0.6,0.1-0.8,0
					c-0.1,0-0.2-0.2-0.2-0.3c0-0.1,0.1-0.1,0.2-0.2C280.5,143,280.8,143,281.1,143.1z"/>
				<path id="_Path_88" class="st3" d="M283.3,141.8c0.1,0,0.2,0.2,0.2,0.3c0,0.1-0.1,0.1-0.2,0.2c-0.3,0.1-0.6,0.1-0.8,0
					c-0.1,0-0.2-0.2-0.2-0.3c0-0.1,0.1-0.1,0.2-0.2C282.7,141.7,283,141.7,283.3,141.8z"/>
				<path id="_Path_89" class="st3" d="M285.5,140.6c0.1,0,0.2,0.2,0.2,0.3c0,0.1-0.1,0.1-0.2,0.2c-0.3,0.1-0.6,0.1-0.8,0
					c-0.1,0-0.2-0.2-0.2-0.3c0-0.1,0.1-0.1,0.2-0.2C284.9,140.4,285.2,140.4,285.5,140.6z"/>
				<path id="_Path_90" class="st3" d="M287.7,139.8c-0.3,0.1-0.6,0.1-0.8,0c-0.1,0-0.2-0.2-0.2-0.3c0-0.1,0.1-0.1,0.2-0.2
					L287.7,139.8z"/>
				<path id="_Path_91" class="st3" d="M281.1,140.6c0.1,0,0.2,0.2,0.2,0.3c0,0.1-0.1,0.1-0.2,0.2c-0.3,0.1-0.6,0.1-0.8,0
					c-0.1,0-0.2-0.2-0.2-0.3c0-0.1,0.1-0.1,0.2-0.2C280.5,140.4,280.8,140.4,281.1,140.6z"/>
				<path id="_Path_92" class="st3" d="M283.3,139.3c0.1,0,0.2,0.2,0.2,0.3c0,0.1-0.1,0.1-0.2,0.2c-0.3,0.1-0.6,0.1-0.8,0
					c-0.1,0-0.2-0.2-0.2-0.3c0-0.1,0.1-0.1,0.2-0.2C282.7,139.2,283,139.2,283.3,139.3z"/>
				<path id="_Path_93" class="st3" d="M281.1,138c0.1,0,0.2,0.2,0.2,0.3c0,0.1-0.1,0.1-0.2,0.2c-0.3,0.1-0.6,0.1-0.8,0
					c-0.1,0-0.2-0.2-0.2-0.3c0-0.1,0.1-0.1,0.2-0.2C280.5,137.9,280.8,137.9,281.1,138z"/>
				<path id="_Path_94" class="st3" d="M326.5,136.8c0.3-0.1,0.6-0.1,0.8,0c0.1,0,0.2,0.2,0.2,0.3c0,0.1-0.1,0.1-0.2,0.2
					c-0.3,0.1-0.6,0.1-0.8,0c-0.1,0-0.2-0.2-0.2-0.3C326.4,136.9,326.5,136.8,326.5,136.8z"/>
				<path id="_Path_95" class="st3" d="M329.6,135.5c0.1,0,0.2,0.2,0.2,0.3c0,0.1-0.1,0.1-0.2,0.2c-0.3,0.1-0.6,0.1-0.8,0
					c-0.1,0-0.2-0.2-0.2-0.3c0-0.1,0.1-0.1,0.2-0.2C329,135.4,329.3,135.4,329.6,135.5z"/>
				<path id="_Path_96" class="st3" d="M324.3,135.5c0.3-0.1,0.6-0.1,0.8,0c0.1,0,0.2,0.2,0.2,0.3c0,0.1-0.1,0.1-0.2,0.2
					c-0.3,0.1-0.6,0.1-0.8,0c-0.1,0-0.2-0.2-0.2-0.3C324.2,135.6,324.3,135.5,324.3,135.5z"/>
				<path id="_Path_97" class="st3" d="M327.4,134.2c0.1,0,0.2,0.2,0.2,0.3c0,0.1-0.1,0.1-0.2,0.2c-0.3,0.1-0.6,0.1-0.8,0
					c-0.1,0-0.2-0.2-0.2-0.3c0-0.1,0.1-0.1,0.2-0.2C326.8,134.1,327.1,134.1,327.4,134.2z"/>
				<path id="_Path_98" class="st3" d="M329.6,133c0.1,0,0.2,0.2,0.2,0.3c0,0.1-0.1,0.1-0.2,0.2c-0.3,0.1-0.6,0.1-0.8,0
					c-0.1,0-0.2-0.2-0.2-0.3c0-0.1,0.1-0.1,0.2-0.2C329,132.9,329.3,132.9,329.6,133z"/>
				<path id="_Path_99" class="st3" d="M331.8,131.7c0.1,0,0.2,0.2,0.2,0.3c0,0.1-0.1,0.1-0.2,0.2c-0.3,0.1-0.6,0.1-0.8,0
					c-0.1,0-0.2-0.2-0.2-0.3c0-0.1,0.1-0.1,0.2-0.2C331.2,131.6,331.5,131.6,331.8,131.7z"/>
				<path id="_Path_100" class="st3" d="M334,130.4c0.1,0,0.2,0.2,0.2,0.3c0,0.1-0.1,0.1-0.2,0.2c-0.3,0.1-0.6,0.1-0.8,0
					c-0.1,0-0.2-0.2-0.2-0.3c0-0.1,0.1-0.1,0.2-0.2C333.4,130.3,333.7,130.3,334,130.4z"/>
				<path id="_Path_101" class="st3" d="M322.1,134.2c0.3-0.1,0.6-0.1,0.8,0c0.1,0,0.2,0.2,0.2,0.3c0,0.1-0.1,0.1-0.2,0.2
					c-0.3,0.1-0.6,0.1-0.8,0c-0.1,0-0.2-0.2-0.2-0.3C322,134.3,322,134.3,322.1,134.2z"/>
				<path id="_Path_102" class="st3" d="M325.2,133c0.1,0,0.2,0.2,0.2,0.3c0,0.1-0.1,0.1-0.2,0.2c-0.3,0.1-0.6,0.1-0.8,0
					c-0.1,0-0.2-0.2-0.2-0.3c0-0.1,0.1-0.1,0.2-0.2C324.6,132.9,324.9,132.9,325.2,133z"/>
				<path id="_Path_103" class="st3" d="M327.4,131.7c0.1,0,0.2,0.2,0.2,0.3c0,0.1-0.1,0.1-0.2,0.2c-0.3,0.1-0.6,0.1-0.8,0
					c-0.1,0-0.2-0.2-0.2-0.3c0-0.1,0.1-0.1,0.2-0.2C326.8,131.6,327.1,131.6,327.4,131.7z"/>
				<path id="_Path_104" class="st3" d="M329.6,130.4c0.1,0,0.2,0.2,0.2,0.3c0,0.1-0.1,0.1-0.2,0.2c-0.3,0.1-0.6,0.1-0.8,0
					c-0.1,0-0.2-0.2-0.2-0.3c0-0.1,0.1-0.1,0.2-0.2C329,130.3,329.3,130.3,329.6,130.4z"/>
				<path id="_Path_105" class="st3" d="M331.8,129.1c0.1,0,0.2,0.2,0.2,0.3c0,0.1-0.1,0.1-0.2,0.2c-0.3,0.1-0.6,0.1-0.8,0
					c-0.1,0-0.2-0.2-0.2-0.3c0-0.1,0.1-0.1,0.2-0.2C331.2,129,331.5,129,331.8,129.1z"/>
				<path id="_Path_106" class="st3" d="M334,127.9c0.1,0,0.2,0.2,0.2,0.3c0,0.1-0.1,0.1-0.2,0.2c-0.3,0.1-0.6,0.1-0.8,0
					c-0.1,0-0.2-0.2-0.2-0.3c0-0.1,0.1-0.1,0.2-0.2C333.4,127.7,333.7,127.7,334,127.9z"/>
				<path id="_Path_107" class="st3" d="M319.9,133c0.3-0.1,0.6-0.1,0.8,0c0.1,0,0.2,0.2,0.2,0.3c0,0.1-0.1,0.1-0.2,0.2
					c-0.3,0.1-0.6,0.1-0.8,0c-0.1,0-0.2-0.2-0.2-0.3C319.8,133.1,319.8,133,319.9,133z"/>
				<path id="_Path_108" class="st3" d="M323,131.7c0.1,0,0.2,0.2,0.2,0.3c0,0.1-0.1,0.1-0.2,0.2c-0.3,0.1-0.6,0.1-0.8,0
					c-0.1,0-0.2-0.2-0.2-0.3c0-0.1,0.1-0.1,0.2-0.2C322.4,131.6,322.7,131.6,323,131.7z"/>
				<path id="_Path_109" class="st3" d="M325.2,130.4c0.1,0,0.2,0.2,0.2,0.3c0,0.1-0.1,0.1-0.2,0.2c-0.3,0.1-0.6,0.1-0.8,0
					c-0.1,0-0.2-0.2-0.2-0.3c0-0.1,0.1-0.1,0.2-0.2C324.6,130.3,324.9,130.3,325.2,130.4z"/>
				<path id="_Path_110" class="st3" d="M327.4,129.1c0.1,0,0.2,0.2,0.2,0.3c0,0.1-0.1,0.1-0.2,0.2c-0.3,0.1-0.6,0.1-0.8,0
					c-0.1,0-0.2-0.2-0.2-0.3c0-0.1,0.1-0.1,0.2-0.2C326.8,129,327.1,129,327.4,129.1z"/>
				<path id="_Path_111" class="st3" d="M329.6,127.9c0.1,0,0.2,0.2,0.2,0.3c0,0.1-0.1,0.1-0.2,0.2c-0.3,0.1-0.6,0.1-0.8,0
					c-0.1,0-0.2-0.2-0.2-0.3c0-0.1,0.1-0.1,0.2-0.2C329,127.7,329.3,127.7,329.6,127.9z"/>
				<path id="_Path_112" class="st3" d="M331.8,126.6c0.1,0,0.2,0.2,0.2,0.3c0,0.1-0.1,0.1-0.2,0.2c-0.3,0.1-0.6,0.1-0.8,0
					c-0.1,0-0.2-0.2-0.2-0.3c0-0.1,0.1-0.1,0.2-0.2C331.2,126.5,331.5,126.5,331.8,126.6z"/>
				<path id="_Path_113" class="st3" d="M334,125.3c0.1,0,0.2,0.2,0.2,0.3c0,0.1-0.1,0.1-0.2,0.2c-0.3,0.1-0.6,0.1-0.8,0
					c-0.1,0-0.2-0.2-0.2-0.3c0-0.1,0.1-0.1,0.2-0.2C333.4,125.2,333.7,125.2,334,125.3z"/>
				<path id="_Path_114" class="st3" d="M336.2,124c0.1,0,0.2,0.2,0.2,0.3c0,0.1-0.1,0.1-0.2,0.2c-0.3,0.1-0.6,0.1-0.8,0
					c-0.1,0-0.2-0.2-0.2-0.3c0-0.1,0.1-0.1,0.2-0.2C335.6,123.9,335.9,123.9,336.2,124z"/>
				<path id="_Path_115" class="st3" d="M322.1,129.1c0.3-0.1,0.6-0.1,0.8,0c0.1,0,0.2,0.2,0.2,0.3c0,0.1-0.1,0.1-0.2,0.2
					c-0.3,0.1-0.6,0.1-0.8,0V129.1z"/>
				<path id="_Path_116" class="st3" d="M325.2,127.9c0.1,0,0.2,0.2,0.2,0.3c0,0.1-0.1,0.1-0.2,0.2c-0.3,0.1-0.6,0.1-0.8,0
					c-0.1,0-0.2-0.2-0.2-0.3c0-0.1,0.1-0.1,0.2-0.2C324.6,127.7,324.9,127.7,325.2,127.9z"/>
				<path id="_Path_117" class="st3" d="M327.4,126.6c0.1,0,0.2,0.2,0.2,0.3c0,0.1-0.1,0.1-0.2,0.2c-0.3,0.1-0.6,0.1-0.8,0
					c-0.1,0-0.2-0.2-0.2-0.3c0-0.1,0.1-0.1,0.2-0.2C326.8,126.5,327.1,126.5,327.4,126.6z"/>
				<path id="_Path_118" class="st3" d="M329.6,125.3c0.1,0,0.2,0.2,0.2,0.3c0,0.1-0.1,0.1-0.2,0.2c-0.3,0.1-0.6,0.1-0.8,0
					c-0.1,0-0.2-0.2-0.2-0.3c0-0.1,0.1-0.1,0.2-0.2C329,125.2,329.3,125.2,329.6,125.3z"/>
				<path id="_Path_119" class="st3" d="M331.8,124c0.1,0,0.2,0.2,0.2,0.3c0,0.1-0.1,0.1-0.2,0.2c-0.3,0.1-0.6,0.1-0.8,0
					c-0.1,0-0.2-0.2-0.2-0.3c0-0.1,0.1-0.1,0.2-0.2C331.2,123.9,331.5,123.9,331.8,124z"/>
				<path id="_Path_120" class="st3" d="M334,122.8c0.1,0,0.2,0.2,0.2,0.3c0,0.1-0.1,0.1-0.2,0.2c-0.3,0.1-0.6,0.1-0.8,0
					c-0.1,0-0.2-0.2-0.2-0.3c0-0.1,0.1-0.1,0.2-0.2C333.4,122.6,333.7,122.6,334,122.8z"/>
				<path id="_Path_121" class="st3" d="M336.2,121.5c0.1,0,0.2,0.2,0.2,0.3c0,0.1-0.1,0.1-0.2,0.2c-0.3,0.1-0.6,0.1-0.8,0
					c-0.1,0-0.2-0.2-0.2-0.3c0-0.1,0.1-0.1,0.2-0.2C335.6,121.4,335.9,121.4,336.2,121.5z"/>
				<path id="_Path_122" class="st3" d="M327.4,124c0.1,0,0.2,0.2,0.2,0.3c0,0.1-0.1,0.1-0.2,0.2c-0.3,0.1-0.6,0.1-0.8,0
					c-0.1,0-0.2-0.2-0.2-0.3c0-0.1,0.1-0.1,0.2-0.2C326.8,123.9,327.1,123.9,327.4,124z"/>
				<path id="_Path_123" class="st3" d="M329.6,122.8c0.1,0,0.2,0.2,0.2,0.3c0,0.1-0.1,0.1-0.2,0.2c-0.3,0.1-0.6,0.1-0.8,0
					c-0.1,0-0.2-0.2-0.2-0.3c0-0.1,0.1-0.1,0.2-0.2C329,122.6,329.3,122.6,329.6,122.8z"/>
				<path id="_Path_124" class="st3" d="M331.8,121.5c0.1,0,0.2,0.2,0.2,0.3c0,0.1-0.1,0.1-0.2,0.2c-0.3,0.1-0.6,0.1-0.8,0
					c-0.1,0-0.2-0.2-0.2-0.3c0-0.1,0.1-0.1,0.2-0.2C331.2,121.4,331.5,121.4,331.8,121.5z"/>
				<path id="_Path_125" class="st3" d="M334,120.2c0.1,0,0.2,0.2,0.2,0.3c0,0.1-0.1,0.1-0.2,0.2c-0.3,0.1-0.6,0.1-0.8,0
					c-0.1,0-0.2-0.2-0.2-0.3c0-0.1,0.1-0.1,0.2-0.2C333.4,120.1,333.7,120.1,334,120.2z"/>
				<path id="_Path_126" class="st3" d="M336.2,119c0.1,0,0.2,0.2,0.2,0.3c0,0.1-0.1,0.1-0.2,0.2c-0.3,0.1-0.6,0.1-0.8,0
					c-0.1,0-0.2-0.2-0.2-0.3c0-0.1,0.1-0.1,0.2-0.2C335.6,118.9,335.9,118.9,336.2,119z"/>
				<path id="_Path_127" class="st3" d="M329.6,120.2c0.1,0,0.2,0.2,0.2,0.3c0,0.1-0.1,0.1-0.2,0.2c-0.3,0.1-0.6,0.1-0.8,0
					c-0.1,0-0.2-0.2-0.2-0.3c0-0.1,0.1-0.1,0.2-0.2C329,120.1,329.3,120.1,329.6,120.2z"/>
				<path id="_Path_128" class="st3" d="M331.8,119c0.1,0,0.2,0.2,0.2,0.3c0,0.1-0.1,0.1-0.2,0.2c-0.3,0.1-0.6,0.1-0.8,0
					c-0.1,0-0.2-0.2-0.2-0.3c0-0.1,0.1-0.1,0.2-0.2C331.2,118.9,331.5,118.9,331.8,119z"/>
				<path id="_Path_129" class="st3" d="M334,117.7c0.1,0,0.2,0.2,0.2,0.3c0,0.1-0.1,0.1-0.2,0.2c-0.3,0.1-0.6,0.1-0.8,0
					c-0.1,0-0.2-0.2-0.2-0.3c0-0.1,0.1-0.1,0.2-0.2C333.4,117.6,333.7,117.6,334,117.7z"/>
				<path id="_Path_130" class="st3" d="M328.7,117.7c0.3-0.1,0.6-0.1,0.8,0c0.1,0,0.2,0.2,0.2,0.3c0,0.1-0.1,0.1-0.2,0.2
					c-0.3,0.1-0.6,0.1-0.8,0V117.7z"/>
			</g>
			<g id="_Group_25">
				<polygon id="_Path_131" class="st4" points="282.2,124.6 282.2,137.2 289.9,141.6 289.9,129 				"/>
				<g id="_Group_26">
					<path id="_Compound_Path_8" class="st5" d="M333.8,116.5c-0.6,3.3-2.3,6.4-4.7,8.7c-3.2,3.2-6.8,6-10.8,8.2
						c-4.4,2.6-9.1,4.6-14,6.1c-4.7,1.4-9.5,2.3-14.4,2.5h-0.1l-0.4-0.3v-13.1l0.3-0.1l28.5-12.1l15.2-12.9l0.5,0.1L333.8,116.5z
						 M290.3,129.3v11.8c4.6-0.3,9.2-1.1,13.7-2.5c4.8-1.5,9.5-3.5,13.9-6c3.9-2.1,7.4-4.8,10.6-8c2.3-2.2,3.8-5.1,4.5-8.2v-11.6
						l-14.3,12.4L290.3,129.3z"/>
				</g>
				<g id="_Group_27">
					<g id="_Group_28">
						<path id="_Compound_Path_9" class="st4" d="M318.1,120.4c-4.4,2.6-9.1,4.6-14,6.1c-4.6,1.4-9.5,2.3-14.3,2.5l-7.7-4.4
							c4.9-0.5,9.7-1.5,14.3-3c4.7-1.5,9.2-3.5,13.5-5.9c3.8-2.1,7.3-4.7,10.4-7.8c2.4-2.3,4.2-5.2,5.3-8.4l7.8,4.5
							c-0.4,2.8-2,5.6-4.6,8.4C325.7,115.5,322.1,118.3,318.1,120.4z"/>
					</g>
				</g>
				<path id="_Compound_Path_10" class="st1" d="M318.1,123.8c-4.4,2.6-9.1,4.6-14,6.1c-4.6,1.4-9.5,2.3-14.3,2.5l-7.7-4.4
					c4.9-0.5,9.7-1.5,14.3-3c4.7-1.5,9.2-3.5,13.5-5.9c3.8-2.1,7.3-4.7,10.4-7.8c2.4-2.3,4.2-5.2,5.3-8.4l7.8,4.5
					c-0.4,2.8-2,5.6-4.6,8.4C325.7,118.9,322.1,121.6,318.1,123.8z"/>
				<path id="_Compound_Path_11" class="st5" d="M333.9,103.7l-8.5-4.9l-0.2,0.6c-1,3.1-2.8,6-5.2,8.2c-3.1,3-6.5,5.6-10.3,7.7
					c-4.2,2.4-8.7,4.4-13.4,5.9c-4.6,1.5-9.3,2.5-14.1,2.9l-0.6,0.1v13.3l8.1,4.6h0.6v-0.4c4.7-0.3,9.3-1.1,13.8-2.5
					c4.9-1.5,9.5-3.5,14-6.1c3.9-2.2,7.5-4.9,10.7-8.1c2.6-2.8,4.1-5.6,4.6-8.4v-10.7c0.2-0.6,0.4-1.2,0.5-1.9L333.9,103.7z
					 M289.4,140.8l-6.8-3.9v-11.5l0.2,0.1l6.6,3.8V140.8z M283.6,124.8c4.4-0.5,8.8-1.5,13-2.8c4.7-1.5,9.3-3.5,13.6-6
					c3.8-2.1,7.4-4.8,10.5-7.9c2.3-2.3,4.1-5,5.2-8.1l7,4c-0.7,3-2.2,5.7-4.4,7.8c-3.1,3.2-6.7,5.9-10.6,8c-4.4,2.5-9,4.5-13.9,6
					c-4.6,1.5-9.3,2.4-14.1,2.6L283.6,124.8z"/>
			</g>
		</g>
		<g id="_2-2">
			<g id="_Group_29">
				<g id="_Group_30">
					<path id="_Path_132" class="st3" d="M124.1,19.2c-0.1,0-0.2-0.2-0.2-0.3c0-0.1,0.1-0.1,0.1-0.2c0.2-0.2,0.5-0.2,0.8-0.2
						c0.1,0,0.2,0.2,0.2,0.3c0,0.1-0.1,0.1-0.1,0.2C124.7,19.2,124.4,19.3,124.1,19.2z"/>
					<path id="_Path_133" class="st3" d="M122.2,20.9c-0.1,0-0.2-0.2-0.2-0.3c0-0.1,0.1-0.1,0.1-0.2c0.2-0.2,0.5-0.2,0.8-0.2
						c0.1,0,0.2,0.2,0.2,0.3c0,0.1-0.1,0.1-0.1,0.2C122.8,20.9,122.5,20.9,122.2,20.9z"/>
					<path id="_Path_134" class="st3" d="M120.3,22.5c-0.1,0-0.2-0.2-0.2-0.3c0-0.1,0.1-0.1,0.1-0.2c0.2-0.2,0.5-0.2,0.8-0.2
						c0.1,0,0.2,0.2,0.2,0.3c0,0.1-0.1,0.1-0.1,0.2C120.9,22.6,120.6,22.6,120.3,22.5z"/>
					<path id="_Path_135" class="st3" d="M118.4,24.2c-0.1,0-0.2-0.2-0.2-0.3c0-0.1,0.1-0.1,0.1-0.2c0.2-0.2,0.5-0.2,0.8-0.2
						c0.1,0,0.2,0.2,0.2,0.3c0,0.1-0.1,0.1-0.1,0.2C119,24.2,118.6,24.3,118.4,24.2z"/>
					<path id="_Path_136" class="st3" d="M116.4,25.9c-0.1,0-0.2-0.2-0.2-0.3c0-0.1,0.1-0.1,0.1-0.2c0.2-0.2,0.5-0.2,0.8-0.2
						c0.1,0,0.2,0.2,0.2,0.3c0,0.1-0.1,0.1-0.1,0.2C117,25.9,116.7,26,116.4,25.9z"/>
					<path id="_Path_137" class="st3" d="M114.5,27.6c-0.1,0-0.2-0.2-0.2-0.3c0-0.1,0.1-0.1,0.1-0.2c0.2-0.2,0.5-0.2,0.8-0.2
						c0.1,0,0.2,0.2,0.2,0.3c0,0.1-0.1,0.1-0.1,0.2C115.1,27.6,114.8,27.7,114.5,27.6z"/>
					<path id="_Path_138" class="st3" d="M112.6,29.2c-0.1,0-0.2-0.2-0.2-0.3c0-0.1,0.1-0.1,0.1-0.2c0.2-0.2,0.5-0.2,0.8-0.2
						c0.1,0,0.2,0.2,0.2,0.3c0,0.1-0.1,0.1-0.1,0.2C113.2,29.3,112.9,29.3,112.6,29.2z"/>
					<path id="_Path_139" class="st3" d="M110.7,30.9c-0.1,0-0.2-0.2-0.2-0.3c0-0.1,0.1-0.1,0.1-0.2c0.2-0.2,0.5-0.2,0.8-0.2
						c0.1,0,0.2,0.2,0.2,0.3c0,0.1-0.1,0.1-0.1,0.2C111.3,31,111,31,110.7,30.9z"/>
					<path id="_Path_140" class="st3" d="M132.3,15c-0.1,0-0.2-0.2-0.2-0.3c0-0.1,0.1-0.1,0.1-0.2c0.2-0.2,0.5-0.2,0.8-0.2
						c0.1,0,0.2,0.2,0.2,0.3c0,0.1-0.1,0.1-0.1,0.2C132.9,15,132.5,15.1,132.3,15z"/>
					<path id="_Path_141" class="st3" d="M130.3,16.6c-0.1,0-0.2-0.2-0.2-0.3c0-0.1,0.1-0.1,0.1-0.2c0.2-0.2,0.5-0.2,0.8-0.2
						c0.1,0,0.2,0.2,0.2,0.3c0,0.1-0.1,0.1-0.1,0.2C130.9,16.7,130.6,16.7,130.3,16.6z"/>
					<path id="_Path_142" class="st3" d="M128.4,18.3c-0.1,0-0.2-0.2-0.2-0.3c0-0.1,0.1-0.1,0.1-0.2c0.2-0.2,0.5-0.2,0.8-0.2
						c0.1,0,0.2,0.2,0.2,0.3c0,0.1-0.1,0.1-0.1,0.2C129,18.4,128.7,18.4,128.4,18.3z"/>
					<path id="_Path_143" class="st3" d="M126.5,20c-0.1,0-0.2-0.2-0.2-0.3c0-0.1,0.1-0.1,0.1-0.2c0.2-0.2,0.5-0.2,0.8-0.2
						c0.1,0,0.2,0.2,0.2,0.3c0,0.1-0.1,0.1-0.1,0.2C127.1,20,126.8,20.1,126.5,20z"/>
					<path id="_Path_144" class="st3" d="M124.6,21.7c-0.1,0-0.2-0.2-0.2-0.3c0-0.1,0.1-0.1,0.1-0.2c0.2-0.2,0.5-0.2,0.8-0.2
						c0.1,0,0.2,0.2,0.2,0.3c0,0.1-0.1,0.1-0.1,0.2C125.2,21.7,124.9,21.8,124.6,21.7z"/>
					<path id="_Path_145" class="st3" d="M122.7,23.4c-0.1,0-0.2-0.2-0.2-0.3c0-0.1,0.1-0.1,0.1-0.2c0.2-0.2,0.5-0.2,0.8-0.2
						c0.1,0,0.2,0.2,0.2,0.3c0,0.1-0.1,0.1-0.1,0.2C123.3,23.4,123,23.4,122.7,23.4z"/>
					<path id="_Path_146" class="st3" d="M120.8,25c-0.1,0-0.2-0.2-0.2-0.3c0-0.1,0.1-0.1,0.1-0.2c0.2-0.2,0.5-0.2,0.8-0.2
						c0.1,0,0.2,0.2,0.2,0.3c0,0.1-0.1,0.1-0.1,0.2C121.4,25,121.1,25.1,120.8,25z"/>
					<path id="_Path_147" class="st3" d="M118.9,26.7c-0.1,0-0.2-0.2-0.2-0.3c0-0.1,0.1-0.1,0.1-0.2c0.2-0.2,0.5-0.2,0.8-0.2
						c0.1,0,0.2,0.2,0.2,0.3c0,0.1-0.1,0.1-0.1,0.2C119.5,26.7,119.1,26.8,118.9,26.7z"/>
					<path id="_Path_148" class="st3" d="M116.9,28.4c-0.1,0-0.2-0.2-0.2-0.3c0-0.1,0.1-0.1,0.1-0.2c0.2-0.2,0.5-0.2,0.8-0.2
						c0.1,0,0.2,0.2,0.2,0.3c0,0.1-0.1,0.1-0.1,0.2C117.5,28.4,117.2,28.5,116.9,28.4z"/>
					<path id="_Path_149" class="st3" d="M115,30.1c-0.1,0-0.2-0.2-0.2-0.3c0-0.1,0.1-0.1,0.1-0.2c0.2-0.2,0.5-0.2,0.8-0.2
						c0.1,0,0.2,0.2,0.2,0.3c0,0.1-0.1,0.1-0.1,0.2C115.6,30.1,115.3,30.2,115,30.1z"/>
					<path id="_Path_150" class="st3" d="M113.1,31.8c-0.1,0-0.2-0.2-0.2-0.3c0-0.1,0.1-0.1,0.1-0.2c0.2-0.2,0.5-0.2,0.8-0.2
						c0.1,0,0.2,0.2,0.2,0.3c0,0.1-0.1,0.1-0.1,0.2C113.7,31.8,113.4,31.8,113.1,31.8z"/>
					<path id="_Path_151" class="st3" d="M134.7,15.8c-0.1,0-0.2-0.2-0.2-0.3c0-0.1,0.1-0.1,0.1-0.2c0.2-0.2,0.5-0.2,0.8-0.2
						c0.1,0,0.2,0.2,0.2,0.3c0,0.1-0.1,0.1-0.1,0.2C135.3,15.8,135,15.9,134.7,15.8z"/>
					<path id="_Path_152" class="st3" d="M132.8,17.5c-0.1,0-0.2-0.2-0.2-0.3c0-0.1,0.1-0.1,0.1-0.2c0.2-0.2,0.5-0.2,0.8-0.2
						c0.1,0,0.2,0.2,0.2,0.3c0,0.1-0.1,0.1-0.1,0.2C133.3,17.5,133,17.6,132.8,17.5z"/>
					<path id="_Path_153" class="st3" d="M130.8,19.1c-0.1,0-0.2-0.2-0.2-0.3c0-0.1,0.1-0.1,0.1-0.2c0.2-0.2,0.5-0.2,0.8-0.2
						c0.1,0,0.2,0.2,0.2,0.3c0,0.1-0.1,0.1-0.1,0.2C131.4,19.2,131.1,19.2,130.8,19.1z"/>
					<path id="_Path_154" class="st3" d="M128.9,20.8c-0.1,0-0.2-0.2-0.2-0.3c0-0.1,0.1-0.1,0.1-0.2c0.2-0.2,0.5-0.2,0.8-0.2
						c0.1,0,0.2,0.2,0.2,0.3c0,0.1-0.1,0.1-0.1,0.2C129.5,20.8,129.2,20.9,128.9,20.8z"/>
					<path id="_Path_155" class="st3" d="M127,22.5c-0.1,0-0.2-0.2-0.2-0.3c0-0.1,0.1-0.1,0.1-0.2c0.2-0.2,0.5-0.2,0.8-0.2
						c0.1,0,0.2,0.2,0.2,0.3c0,0.1-0.1,0.1-0.1,0.2C127.6,22.5,127.3,22.6,127,22.5z"/>
					<path id="_Path_156" class="st3" d="M125.1,24.2c-0.1,0-0.2-0.2-0.2-0.3c0-0.1,0.1-0.1,0.1-0.2c0.2-0.2,0.5-0.2,0.8-0.2
						c0.1,0,0.2,0.2,0.2,0.3c0,0.1-0.1,0.1-0.1,0.2C125.7,24.2,125.4,24.3,125.1,24.2z"/>
					<path id="_Path_157" class="st3" d="M123.2,25.9c-0.1,0-0.2-0.2-0.2-0.3c0-0.1,0.1-0.1,0.1-0.2c0.2-0.2,0.5-0.2,0.8-0.2
						c0.1,0,0.2,0.2,0.2,0.3c0,0.1-0.1,0.1-0.1,0.2C123.8,25.9,123.5,25.9,123.2,25.9z"/>
					<path id="_Path_158" class="st3" d="M121.3,27.5c-0.1,0-0.2-0.2-0.2-0.3c0-0.1,0.1-0.1,0.1-0.2c0.2-0.2,0.5-0.2,0.8-0.2
						c0.1,0,0.2,0.2,0.2,0.3c0,0.1-0.1,0.1-0.1,0.2C121.9,27.6,121.6,27.6,121.3,27.5z"/>
					<path id="_Path_159" class="st3" d="M119.4,29.2c-0.1,0-0.2-0.2-0.2-0.3c0-0.1,0.1-0.1,0.1-0.2c0.2-0.2,0.5-0.2,0.8-0.2
						c0.1,0,0.2,0.2,0.2,0.3c0,0.1-0.1,0.1-0.1,0.2C120,29.2,119.6,29.3,119.4,29.2z"/>
					<path id="_Path_160" class="st3" d="M117.4,30.9c-0.1,0-0.2-0.2-0.2-0.3c0-0.1,0.1-0.1,0.1-0.2c0.2-0.2,0.5-0.2,0.8-0.2
						c0.1,0,0.2,0.2,0.2,0.3c0,0.1-0.1,0.1-0.1,0.2C118,30.9,117.7,31,117.4,30.9z"/>
					<path id="_Path_161" class="st3" d="M115.5,32.6c-0.1,0-0.2-0.2-0.2-0.3c0-0.1,0.1-0.1,0.1-0.2c0.2-0.2,0.5-0.2,0.8-0.2
						c0.1,0,0.2,0.2,0.2,0.3c0,0.1-0.1,0.1-0.1,0.2C116.1,32.6,115.8,32.7,115.5,32.6z"/>
					<path id="_Path_162" class="st3" d="M140.9,13.2c-0.1,0-0.2-0.2-0.2-0.3c0-0.1,0.1-0.1,0.1-0.2c0.2-0.2,0.5-0.2,0.8-0.2
						c0.1,0,0.2,0.2,0.2,0.3c0,0.1-0.1,0.1-0.1,0.2C141.5,13.3,141.2,13.3,140.9,13.2z"/>
					<path id="_Path_163" class="st3" d="M139,14.9c-0.1,0-0.2-0.2-0.2-0.3c0-0.1,0.1-0.1,0.1-0.2c0.2-0.2,0.5-0.2,0.8-0.2
						c0.1,0,0.2,0.2,0.2,0.3c0,0.1-0.1,0.1-0.1,0.2C139.6,15,139.3,15,139,14.9z"/>
					<path id="_Path_164" class="st3" d="M137.1,16.6c-0.1,0-0.2-0.2-0.2-0.3c0-0.1,0.1-0.1,0.1-0.2c0.2-0.2,0.5-0.2,0.8-0.2
						c0.1,0,0.2,0.2,0.2,0.3c0,0.1-0.1,0.1-0.1,0.2C137.7,16.6,137.4,16.7,137.1,16.6z"/>
					<path id="_Path_165" class="st3" d="M135.2,18.3c-0.1,0-0.2-0.2-0.2-0.3c0-0.1,0.1-0.1,0.1-0.2c0.2-0.2,0.5-0.2,0.8-0.2
						c0.1,0,0.2,0.2,0.2,0.3c0,0.1-0.1,0.1-0.1,0.2C135.8,18.3,135.4,18.4,135.2,18.3z"/>
					<path id="_Path_166" class="st3" d="M133.2,20c-0.1,0-0.2-0.2-0.2-0.3c0-0.1,0.1-0.1,0.1-0.2c0.2-0.2,0.5-0.2,0.8-0.2
						c0.1,0,0.2,0.2,0.2,0.3c0,0.1-0.1,0.1-0.1,0.2C133.8,20,133.5,20.1,133.2,20z"/>
					<path id="_Path_167" class="st3" d="M131.3,21.6c-0.1,0-0.2-0.2-0.2-0.3c0-0.1,0.1-0.1,0.1-0.2c0.2-0.2,0.5-0.2,0.8-0.2
						c0.1,0,0.2,0.2,0.2,0.3c0,0.1-0.1,0.1-0.1,0.2C131.9,21.7,131.6,21.7,131.3,21.6z"/>
					<path id="_Path_168" class="st3" d="M129.4,23.3c-0.1,0-0.2-0.2-0.2-0.3c0-0.1,0.1-0.1,0.1-0.2c0.2-0.2,0.5-0.2,0.8-0.2
						c0.1,0,0.2,0.2,0.2,0.3c0,0.1-0.1,0.1-0.1,0.2C130,23.3,129.7,23.4,129.4,23.3z"/>
					<path id="_Path_169" class="st3" d="M127.5,25c-0.1,0-0.2-0.2-0.2-0.3c0-0.1,0.1-0.1,0.1-0.2c0.2-0.2,0.5-0.2,0.8-0.2
						c0.1,0,0.2,0.2,0.2,0.3c0,0.1-0.1,0.1-0.1,0.2C128.1,25,127.8,25.1,127.5,25z"/>
					<path id="_Path_170" class="st3" d="M125.6,26.7c-0.1,0-0.2-0.2-0.2-0.3c0-0.1,0.1-0.1,0.1-0.2c0.2-0.2,0.5-0.2,0.8-0.2
						c0.1,0,0.2,0.2,0.2,0.3c0,0.1-0.1,0.1-0.1,0.2C126.2,26.7,125.9,26.8,125.6,26.7z"/>
					<path id="_Path_171" class="st3" d="M123.7,28.4c-0.1,0-0.2-0.2-0.2-0.3c0-0.1,0.1-0.1,0.1-0.2c0.2-0.2,0.5-0.2,0.8-0.2
						c0.1,0,0.2,0.2,0.2,0.3c0,0.1-0.1,0.1-0.1,0.2C124.3,28.4,124,28.4,123.7,28.4z"/>
					<path id="_Path_172" class="st3" d="M121.8,30c-0.1,0-0.2-0.2-0.2-0.3c0-0.1,0.1-0.1,0.1-0.2c0.2-0.2,0.5-0.2,0.8-0.2
						c0.1,0,0.2,0.2,0.2,0.3c0,0.1-0.1,0.1-0.1,0.2C122.4,30,122.1,30.1,121.8,30z"/>
					<path id="_Path_173" class="st3" d="M119.8,31.7c-0.1,0-0.2-0.2-0.2-0.3c0-0.1,0.1-0.1,0.1-0.2c0.2-0.2,0.5-0.2,0.8-0.2
						c0.1,0,0.2,0.2,0.2,0.3c0,0.1-0.1,0.1-0.1,0.2C120.4,31.7,120.1,31.8,119.8,31.7z"/>
					<path id="_Path_174" class="st3" d="M117.9,33.4c-0.1,0-0.2-0.2-0.2-0.3c0-0.1,0.1-0.1,0.1-0.2c0.2-0.2,0.5-0.2,0.8-0.2
						c0.1,0,0.2,0.2,0.2,0.3c0,0.1-0.1,0.1-0.1,0.2C118.5,33.4,118.2,33.5,117.9,33.4z"/>
					<path id="_Path_175" class="st3" d="M145.2,12.4c-0.1,0-0.2-0.2-0.2-0.3c0-0.1,0.1-0.1,0.1-0.2c0.2-0.2,0.5-0.2,0.8-0.2
						c0.1,0,0.2,0.2,0.2,0.3c0,0.1-0.1,0.1-0.1,0.2C145.8,12.4,145.5,12.5,145.2,12.4z"/>
					<path id="_Path_176" class="st3" d="M143.3,14.1c-0.1,0-0.2-0.2-0.2-0.3c0-0.1,0.1-0.1,0.1-0.2c0.2-0.2,0.5-0.2,0.8-0.2
						c0.1,0,0.2,0.2,0.2,0.3c0,0.1-0.1,0.1-0.1,0.2C143.9,14.1,143.6,14.2,143.3,14.1z"/>
					<path id="_Path_177" class="st3" d="M141.4,15.8c-0.1,0-0.2-0.2-0.2-0.3c0-0.1,0.1-0.1,0.1-0.2c0.2-0.2,0.5-0.2,0.8-0.2
						c0.1,0,0.2,0.2,0.2,0.3c0,0.1-0.1,0.1-0.1,0.2C142,15.8,141.7,15.8,141.4,15.8z"/>
					<path id="_Path_178" class="st3" d="M139.5,17.4c-0.1,0-0.2-0.2-0.2-0.3c0-0.1,0.1-0.1,0.1-0.2c0.2-0.2,0.5-0.2,0.8-0.2
						c0.1,0,0.2,0.2,0.2,0.3c0,0.1-0.1,0.1-0.1,0.2C140.1,17.5,139.8,17.5,139.5,17.4z"/>
					<path id="_Path_179" class="st3" d="M137.6,19.1c-0.1,0-0.2-0.2-0.2-0.3c0-0.1,0.1-0.1,0.1-0.2c0.2-0.2,0.5-0.2,0.8-0.2
						c0.1,0,0.2,0.2,0.2,0.3c0,0.1-0.1,0.1-0.1,0.2C138.2,19.1,137.9,19.2,137.6,19.1z"/>
					<path id="_Path_180" class="st3" d="M135.7,20.8c-0.1,0-0.2-0.2-0.2-0.3c0-0.1,0.1-0.1,0.1-0.2c0.2-0.2,0.5-0.2,0.8-0.2
						c0.1,0,0.2,0.2,0.2,0.3c0,0.1-0.1,0.1-0.1,0.2C136.3,20.8,135.9,20.9,135.7,20.8z"/>
					<path id="_Path_181" class="st3" d="M133.8,22.5c-0.1,0-0.2-0.2-0.2-0.3c0-0.1,0.1-0.1,0.1-0.2c0.2-0.2,0.5-0.2,0.8-0.2
						c0.1,0,0.2,0.2,0.2,0.3c0,0.1-0.1,0.1-0.1,0.2C134.3,22.5,134,22.5,133.8,22.5z"/>
					<path id="_Path_182" class="st3" d="M131.8,24.1c-0.1,0-0.2-0.2-0.2-0.3c0-0.1,0.1-0.1,0.1-0.2c0.2-0.2,0.5-0.2,0.8-0.2
						c0.1,0,0.2,0.2,0.2,0.3c0,0.1-0.1,0.1-0.1,0.2C132.4,24.2,132.1,24.2,131.8,24.1z"/>
					<path id="_Path_183" class="st3" d="M129.9,25.8c-0.1,0-0.2-0.2-0.2-0.3c0-0.1,0.1-0.1,0.1-0.2c0.2-0.2,0.5-0.2,0.8-0.2
						c0.1,0,0.2,0.2,0.2,0.3c0,0.1-0.1,0.1-0.1,0.2C130.5,25.8,130.2,25.9,129.9,25.8z"/>
					<path id="_Path_184" class="st3" d="M128,27.5c-0.1,0-0.2-0.2-0.2-0.3c0-0.1,0.1-0.1,0.1-0.2c0.2-0.2,0.5-0.2,0.8-0.2
						c0.1,0,0.2,0.2,0.2,0.3c0,0.1-0.1,0.1-0.1,0.2C128.6,27.5,128.3,27.6,128,27.5z"/>
					<path id="_Path_185" class="st3" d="M126.1,29.2c-0.1,0-0.2-0.2-0.2-0.3c0-0.1,0.1-0.1,0.1-0.2c0.2-0.2,0.5-0.2,0.8-0.2
						c0.1,0,0.2,0.2,0.2,0.3c0,0.1-0.1,0.1-0.1,0.2C126.7,29.2,126.4,29.3,126.1,29.2z"/>
					<path id="_Path_186" class="st3" d="M124.2,30.9c-0.1,0-0.2-0.2-0.2-0.3c0-0.1,0.1-0.1,0.1-0.2c0.2-0.2,0.5-0.2,0.8-0.2
						c0.1,0,0.2,0.2,0.2,0.3c0,0.1-0.1,0.1-0.1,0.2C124.8,30.9,124.5,30.9,124.2,30.9z"/>
					<path id="_Path_187" class="st3" d="M122.3,32.5c-0.1,0-0.2-0.2-0.2-0.3c0-0.1,0.1-0.1,0.1-0.2c0.2-0.2,0.5-0.2,0.8-0.2
						c0.1,0,0.2,0.2,0.2,0.3c0,0.1-0.1,0.1-0.1,0.2C122.9,32.6,122.5,32.6,122.3,32.5z"/>
					<path id="_Path_188" class="st3" d="M120.3,34.2c-0.1,0-0.2-0.2-0.2-0.3c0-0.1,0.1-0.1,0.1-0.2c0.2-0.2,0.5-0.2,0.8-0.2
						c0.1,0,0.2,0.2,0.2,0.3c0,0.1-0.1,0.1-0.1,0.2C120.9,34.2,120.6,34.3,120.3,34.2z"/>
					<path id="_Path_189" class="st3" d="M147.6,13.2c-0.1,0-0.2-0.2-0.2-0.3c0-0.1,0.1-0.1,0.1-0.2c0.2-0.2,0.5-0.2,0.8-0.2
						c0.1,0,0.2,0.2,0.2,0.3c0,0.1-0.1,0.1-0.1,0.2C148.2,13.2,147.9,13.3,147.6,13.2z"/>
					<path id="_Path_190" class="st3" d="M145.7,14.9c-0.1,0-0.2-0.2-0.2-0.3c0-0.1,0.1-0.1,0.1-0.2c0.2-0.2,0.5-0.2,0.8-0.2
						c0.1,0,0.2,0.2,0.2,0.3c0,0.1-0.1,0.1-0.1,0.2C146.3,14.9,146,15,145.7,14.9z"/>
					<path id="_Path_191" class="st3" d="M143.8,16.6c-0.1,0-0.2-0.2-0.2-0.3c0-0.1,0.1-0.1,0.1-0.2c0.2-0.2,0.5-0.2,0.8-0.2
						c0.1,0,0.2,0.2,0.2,0.3c0,0.1-0.1,0.1-0.1,0.2C144.4,16.6,144.1,16.7,143.8,16.6z"/>
					<path id="_Path_192" class="st3" d="M141.9,18.2c-0.1,0-0.2-0.2-0.2-0.3c0-0.1,0.1-0.1,0.1-0.2c0.2-0.2,0.5-0.2,0.8-0.2
						c0.1,0,0.2,0.2,0.2,0.3c0,0.1-0.1,0.1-0.1,0.2C142.5,18.3,142.2,18.3,141.9,18.2z"/>
					<path id="_Path_193" class="st3" d="M140,19.9c-0.1,0-0.2-0.2-0.2-0.3c0-0.1,0.1-0.1,0.1-0.2c0.2-0.2,0.5-0.2,0.8-0.2
						c0.1,0,0.2,0.2,0.2,0.3c0,0.1-0.1,0.1-0.1,0.2C140.6,19.9,140.3,20,140,19.9z"/>
					<path id="_Path_194" class="st3" d="M138.1,21.6c-0.1,0-0.2-0.2-0.2-0.3c0-0.1,0.1-0.1,0.1-0.2c0.2-0.2,0.5-0.2,0.8-0.2
						c0.1,0,0.2,0.2,0.2,0.3c0,0.1-0.1,0.1-0.1,0.2C138.7,21.6,138.4,21.7,138.1,21.6z"/>
					<path id="_Path_195" class="st3" d="M136.2,23.3c-0.1,0-0.2-0.2-0.2-0.3c0-0.1,0.1-0.1,0.1-0.2c0.2-0.2,0.5-0.2,0.8-0.2
						c0.1,0,0.2,0.2,0.2,0.3c0,0.1-0.1,0.1-0.1,0.2C136.8,23.3,136.4,23.4,136.2,23.3z"/>
					<path id="_Path_196" class="st3" d="M134.2,25c-0.1,0-0.2-0.2-0.2-0.3c0-0.1,0.1-0.1,0.1-0.2c0.2-0.2,0.5-0.2,0.8-0.2
						c0.1,0,0.2,0.2,0.2,0.3c0,0.1-0.1,0.1-0.1,0.2C134.8,25,134.5,25.1,134.2,25z"/>
					<path id="_Path_197" class="st3" d="M132.3,26.6c-0.1,0-0.2-0.2-0.2-0.3c0-0.1,0.1-0.1,0.1-0.2c0.2-0.2,0.5-0.2,0.8-0.2
						c0.1,0,0.2,0.2,0.2,0.3c0,0.1-0.1,0.1-0.1,0.2C132.9,26.7,132.6,26.7,132.3,26.6z"/>
					<path id="_Path_198" class="st3" d="M130.4,28.3c-0.1,0-0.2-0.2-0.2-0.3c0-0.1,0.1-0.1,0.1-0.2c0.2-0.2,0.5-0.2,0.8-0.2
						c0.1,0,0.2,0.2,0.2,0.3c0,0.1-0.1,0.1-0.1,0.2L130.4,28.3z"/>
					<path id="_Path_199" class="st3" d="M150,14c-0.1,0-0.2-0.2-0.2-0.3c0-0.1,0.1-0.1,0.1-0.2c0.2-0.2,0.5-0.2,0.8-0.2
						c0.1,0,0.2,0.2,0.2,0.3c0,0.1-0.1,0.1-0.1,0.2C150.6,14,150.3,14.1,150,14z"/>
					<path id="_Path_200" class="st3" d="M148.1,15.7c-0.1,0-0.2-0.2-0.2-0.3c0-0.1,0.1-0.1,0.1-0.2c0.2-0.2,0.5-0.2,0.8-0.2
						c0.1,0,0.2,0.2,0.2,0.3c0,0.1-0.1,0.1-0.1,0.2C148.7,15.7,148.4,15.8,148.1,15.7z"/>
					<path id="_Path_201" class="st3" d="M146.2,17.4c-0.1,0-0.2-0.2-0.2-0.3c0-0.1,0.1-0.1,0.1-0.2c0.2-0.2,0.5-0.2,0.8-0.2
						c0.1,0,0.2,0.2,0.2,0.3c0,0.1-0.1,0.1-0.1,0.2C146.8,17.4,146.5,17.5,146.2,17.4z"/>
					<path id="_Path_202" class="st3" d="M144.3,19.1c-0.1,0-0.2-0.2-0.2-0.3c0-0.1,0.1-0.1,0.1-0.2c0.2-0.2,0.5-0.2,0.8-0.2
						c0.1,0,0.2,0.2,0.2,0.3c0,0.1-0.1,0.1-0.1,0.2C144.9,19.1,144.6,19.1,144.3,19.1z"/>
					<path id="_Path_203" class="st3" d="M142.4,20.7c-0.1,0-0.2-0.2-0.2-0.3c0-0.1,0.1-0.1,0.1-0.2c0.2-0.2,0.5-0.2,0.8-0.2
						c0.1,0,0.2,0.2,0.2,0.3c0,0.1-0.1,0.1-0.1,0.2C143,20.8,142.7,20.8,142.4,20.7z"/>
					<path id="_Path_204" class="st3" d="M140.5,22.4c-0.1,0-0.2-0.2-0.2-0.3c0-0.1,0.1-0.1,0.1-0.2c0.2-0.2,0.5-0.2,0.8-0.2
						c0.1,0,0.2,0.2,0.2,0.3c0,0.1-0.1,0.1-0.1,0.2C141.1,22.4,140.8,22.5,140.5,22.4z"/>
					<path id="_Path_205" class="st3" d="M138.6,24.1c-0.1,0-0.2-0.2-0.2-0.3c0-0.1,0.1-0.1,0.1-0.2c0.2-0.2,0.5-0.2,0.8-0.2
						c0.1,0,0.2,0.2,0.2,0.3c0,0.1-0.1,0.1-0.1,0.2L138.6,24.1z"/>
					<path id="_Path_206" class="st3" d="M152.5,14.9c-0.1,0-0.2-0.2-0.2-0.3c0-0.1,0.1-0.1,0.1-0.2c0.2-0.2,0.5-0.2,0.8-0.2
						c0.1,0,0.2,0.2,0.2,0.3c0,0.1-0.1,0.1-0.1,0.2C153.1,14.9,152.8,14.9,152.5,14.9z"/>
					<path id="_Path_207" class="st3" d="M150.6,16.5c-0.1,0-0.2-0.2-0.2-0.3c0-0.1,0.1-0.1,0.1-0.2c0.2-0.2,0.5-0.2,0.8-0.2
						c0.1,0,0.2,0.2,0.2,0.3c0,0.1-0.1,0.1-0.1,0.2C151.2,16.6,150.9,16.6,150.6,16.5z"/>
					<path id="_Path_208" class="st3" d="M148.6,18.2c-0.1,0-0.2-0.2-0.2-0.3c0-0.1,0.1-0.1,0.1-0.2c0.2-0.2,0.5-0.2,0.8-0.2
						c0.1,0,0.2,0.2,0.2,0.3c0,0.1-0.1,0.1-0.1,0.2C149.2,18.2,148.9,18.3,148.6,18.2z"/>
					<path id="_Path_209" class="st3" d="M146.7,19.9c-0.1,0-0.2-0.2-0.2-0.3c0-0.1,0.1-0.1,0.1-0.2c0.2-0.2,0.5-0.2,0.8-0.2
						c0.1,0,0.2,0.2,0.2,0.3c0,0.1-0.1,0.1-0.1,0.2C147.3,19.9,147,20,146.7,19.9z"/>
					<path id="_Path_210" class="st3" d="M144.8,21.6c-0.1,0-0.2-0.2-0.2-0.3c0-0.1,0.1-0.1,0.1-0.2c0.2-0.2,0.5-0.2,0.8-0.2
						c0.1,0,0.2,0.2,0.2,0.3c0,0.1-0.1,0.1-0.1,0.2C145.4,21.6,145.1,21.7,144.8,21.6z"/>
					<path id="_Path_211" class="st3" d="M153,17.4c-0.1,0-0.2-0.2-0.2-0.3c0-0.1,0.1-0.1,0.1-0.2c0.2-0.2,0.5-0.2,0.8-0.2
						c0.1,0,0.2,0.2,0.2,0.3c0,0.1-0.1,0.1-0.1,0.2C153.6,17.4,153.3,17.4,153,17.4z"/>
					<path id="_Path_212" class="st3" d="M151.1,19c-0.1,0-0.2-0.2-0.2-0.3c0-0.1,0.1-0.1,0.1-0.2c0.2-0.2,0.5-0.2,0.8-0.2
						c0.1,0,0.2,0.2,0.2,0.3c0,0.1-0.1,0.1-0.1,0.2C151.7,19,151.3,19.1,151.1,19z"/>
					<path id="_Path_213" class="st3" d="M149.1,20.7c-0.1,0-0.2-0.2-0.2-0.3c0-0.1,0.1-0.1,0.1-0.2c0.2-0.2,0.5-0.2,0.8-0.2
						c0.1,0,0.2,0.2,0.2,0.3c0,0.1-0.1,0.1-0.1,0.2C149.7,20.7,149.4,20.8,149.1,20.7z"/>
					<path id="_Path_214" class="st3" d="M147.1,21.9c0.2-0.2,0.5-0.2,0.8-0.2c0.1,0,0.2,0.2,0.2,0.3c0,0.1-0.1,0.1-0.1,0.2
						L147.1,21.9z"/>
					<path id="_Path_215" class="st3" d="M153.5,19.9c-0.1,0-0.2-0.2-0.2-0.3c0-0.1,0.1-0.1,0.1-0.2c0.2-0.2,0.5-0.2,0.8-0.2
						c0.1,0,0.2,0.2,0.2,0.3c0,0.1-0.1,0.1-0.1,0.2C154.1,19.9,153.8,19.9,153.5,19.9z"/>
					<path id="_Path_216" class="st3" d="M151.6,21.5c-0.1,0-0.2-0.2-0.2-0.3c0-0.1,0.1-0.1,0.1-0.2c0.2-0.2,0.5-0.2,0.8-0.2
						c0.1,0,0.2,0.2,0.2,0.3c0,0.1-0.1,0.1-0.1,0.2C152.2,21.6,151.8,21.6,151.6,21.5z"/>
					<path id="_Path_217" class="st3" d="M154,22.4c-0.1,0-0.2-0.2-0.2-0.3c0-0.1,0.1-0.1,0.1-0.2c0.2-0.2,0.5-0.2,0.8-0.2
						c0.1,0,0.2,0.2,0.2,0.3c0,0.1-0.1,0.1-0.1,0.2C154.6,22.4,154.3,22.4,154,22.4z"/>
					<path id="_Path_218" class="st3" d="M109.6,32.4c-0.2,0.2-0.5,0.2-0.8,0.2c-0.1,0-0.2-0.2-0.2-0.3c0-0.1,0.1-0.1,0.1-0.2
						c0.2-0.2,0.5-0.2,0.8-0.2c0.1,0,0.2,0.2,0.2,0.3C109.7,32.3,109.7,32.4,109.6,32.4z"/>
					<path id="_Path_219" class="st3" d="M106.9,34.3c-0.1,0-0.2-0.2-0.2-0.3c0-0.1,0.1-0.1,0.1-0.2c0.2-0.2,0.5-0.2,0.8-0.2
						c0.1,0,0.2,0.2,0.2,0.3c0,0.1-0.1,0.1-0.1,0.2C107.5,34.3,107.2,34.4,106.9,34.3z"/>
					<path id="_Path_220" class="st3" d="M112,33.2c-0.2,0.2-0.5,0.2-0.8,0.2c-0.1,0-0.2-0.2-0.2-0.3c0-0.1,0.1-0.1,0.1-0.2
						c0.2-0.2,0.5-0.2,0.8-0.2c0.1,0,0.2,0.2,0.2,0.3C112.1,33.1,112.1,33.2,112,33.2z"/>
					<path id="_Path_221" class="st3" d="M109.3,35.1c-0.1,0-0.2-0.2-0.2-0.3c0-0.1,0.1-0.1,0.1-0.2c0.2-0.2,0.5-0.2,0.8-0.2
						c0.1,0,0.2,0.2,0.2,0.3c0,0.1-0.1,0.1-0.1,0.2C109.9,35.1,109.6,35.2,109.3,35.1z"/>
					<path id="_Path_222" class="st3" d="M107.4,36.8c-0.1,0-0.2-0.2-0.2-0.3c0-0.1,0.1-0.1,0.1-0.2c0.2-0.2,0.5-0.2,0.8-0.2
						c0.1,0,0.2,0.2,0.2,0.3c0,0.1-0.1,0.1-0.1,0.2C108,36.8,107.7,36.9,107.4,36.8z"/>
					<path id="_Path_223" class="st3" d="M105.4,38.5c-0.1,0-0.2-0.2-0.2-0.3c0-0.1,0.1-0.1,0.1-0.2c0.2-0.2,0.5-0.2,0.8-0.2
						c0.1,0,0.2,0.2,0.2,0.3c0,0.1-0.1,0.1-0.1,0.2C106,38.5,105.7,38.5,105.4,38.5z"/>
					<path id="_Path_224" class="st3" d="M103.5,40.1c-0.1,0-0.2-0.2-0.2-0.3c0-0.1,0.1-0.1,0.1-0.2c0.2-0.2,0.5-0.2,0.8-0.2
						c0.1,0,0.2,0.2,0.2,0.3c0,0.1-0.1,0.1-0.1,0.2C104.1,40.1,103.8,40.2,103.5,40.1z"/>
					<path id="_Path_225" class="st3" d="M114.4,34.1c-0.2,0.2-0.5,0.2-0.8,0.2c-0.1,0-0.2-0.2-0.2-0.3c0-0.1,0.1-0.1,0.1-0.2
						c0.2-0.2,0.5-0.2,0.8-0.2c0.1,0,0.2,0.2,0.2,0.3C114.5,34,114.5,34,114.4,34.1z"/>
					<path id="_Path_226" class="st3" d="M111.7,35.9c-0.1,0-0.2-0.2-0.2-0.3c0-0.1,0.1-0.1,0.1-0.2c0.2-0.2,0.5-0.2,0.8-0.2
						c0.1,0,0.2,0.2,0.2,0.3c0,0.1-0.1,0.1-0.1,0.2C112.3,35.9,112,36,111.7,35.9z"/>
					<path id="_Path_227" class="st3" d="M109.8,37.6c-0.1,0-0.2-0.2-0.2-0.3c0-0.1,0.1-0.1,0.1-0.2c0.2-0.2,0.5-0.2,0.8-0.2
						c0.1,0,0.2,0.2,0.2,0.3c0,0.1-0.1,0.1-0.1,0.2C110.4,37.6,110.1,37.7,109.8,37.6z"/>
					<path id="_Path_228" class="st3" d="M107.9,39.3c-0.1,0-0.2-0.2-0.2-0.3c0-0.1,0.1-0.1,0.1-0.2c0.2-0.2,0.5-0.2,0.8-0.2
						c0.1,0,0.2,0.2,0.2,0.3c0,0.1-0.1,0.1-0.1,0.2C108.5,39.3,108.1,39.3,107.9,39.3z"/>
					<path id="_Path_229" class="st3" d="M105.9,40.9c-0.1,0-0.2-0.2-0.2-0.3c0-0.1,0.1-0.1,0.1-0.2c0.2-0.2,0.5-0.2,0.8-0.2
						c0.1,0,0.2,0.2,0.2,0.3c0,0.1-0.1,0.1-0.1,0.2C106.5,41,106.2,41,105.9,40.9z"/>
					<path id="_Path_230" class="st3" d="M104,42.6c-0.1,0-0.2-0.2-0.2-0.3c0-0.1,0.1-0.1,0.1-0.2c0.2-0.2,0.5-0.2,0.8-0.2
						c0.1,0,0.2,0.2,0.2,0.3c0,0.1-0.1,0.1-0.1,0.2C104.6,42.6,104.3,42.7,104,42.6z"/>
					<path id="_Path_231" class="st3" d="M116.8,34.9c-0.2,0.2-0.6,0.2-0.8,0.1c-0.1,0-0.2-0.2-0.2-0.3c0-0.1,0.1-0.1,0.1-0.2
						c0.2-0.2,0.5-0.2,0.8-0.2c0.1,0,0.3,0.1,0.3,0.2C117.1,34.7,117,34.8,116.8,34.9z"/>
					<path id="_Path_232" class="st3" d="M114.1,36.7c-0.1,0-0.2-0.2-0.2-0.3c0-0.1,0.1-0.1,0.1-0.2c0.2-0.2,0.5-0.2,0.8-0.2
						c0.1,0,0.2,0.2,0.2,0.3c0,0.1-0.1,0.1-0.1,0.2C114.7,36.8,114.4,36.8,114.1,36.7z"/>
					<path id="_Path_233" class="st3" d="M119.1,35.8c-0.2,0.2-0.5,0.2-0.8,0.2c-0.1,0-0.2-0.2-0.2-0.3c0-0.1,0.1-0.1,0.1-0.2
						c0.2-0.2,0.5-0.2,0.8-0.2c0.1,0,0.2,0.2,0.2,0.3C119.2,35.7,119.2,35.8,119.1,35.8z"/>
					<path id="_Path_234" class="st3" d="M116.4,37.7c-0.1,0-0.2-0.2-0.2-0.3c0-0.1,0.1-0.1,0.1-0.2c0.2-0.2,0.5-0.2,0.8-0.2
						c0.1,0,0.2,0.2,0.2,0.3c0,0.1-0.1,0.1-0.1,0.2C117,37.7,116.6,37.7,116.4,37.7z"/>
					<path id="_Path_235" class="st3" d="M121.5,36.6c-0.2,0.2-0.5,0.2-0.8,0.2c-0.1,0-0.2-0.2-0.2-0.3c0-0.1,0.1-0.1,0.1-0.2
						c0.2-0.2,0.5-0.2,0.8-0.2c0.1,0,0.2,0.2,0.2,0.3C121.6,36.5,121.6,36.6,121.5,36.6z"/>
					<path id="_Path_236" class="st3" d="M118.8,38.5c-0.1,0-0.2-0.2-0.2-0.3c0-0.1,0.1-0.1,0.1-0.2c0.2-0.2,0.5-0.2,0.8-0.2
						c0.1,0,0.2,0.2,0.2,0.3c0,0.1-0.1,0.1-0.1,0.2C119.4,38.5,119.1,38.6,118.8,38.5z"/>
					<path id="_Path_237" class="st3" d="M117.3,39.9c-0.2,0.2-0.5,0.2-0.8,0.2c-0.1,0-0.2-0.2-0.2-0.3c0-0.1,0.1-0.1,0.1-0.2
						c0.2-0.2,0.5-0.2,0.8-0.2c0.1,0,0.2,0.2,0.2,0.3C117.4,39.8,117.4,39.9,117.3,39.9z"/>
					<path id="_Path_238" class="st3" d="M114.6,41.8c-0.1,0-0.2-0.2-0.2-0.3c0-0.1,0.1-0.1,0.1-0.2c0.2-0.2,0.5-0.2,0.8-0.2
						c0.1,0,0.2,0.2,0.2,0.3c0,0.1-0.1,0.1-0.1,0.2C115.2,41.8,114.9,41.9,114.6,41.8z"/>
					<path id="_Path_239" class="st3" d="M129.6,29.9c-0.2,0.2-0.5,0.2-0.8,0.2c-0.1,0-0.2-0.2-0.2-0.3c0-0.1,0.1-0.1,0.1-0.2
						c0.2-0.2,0.5-0.2,0.8-0.2c0.1,0,0.2,0.2,0.2,0.3C129.7,29.8,129.6,29.9,129.6,29.9z"/>
					<path id="_Path_240" class="st3" d="M126.8,31.8c-0.1,0-0.2-0.2-0.2-0.3c0-0.1,0.1-0.1,0.1-0.2c0.2-0.2,0.5-0.2,0.8-0.2
						c0.1,0,0.2,0.2,0.2,0.3c0,0.1-0.1,0.1-0.1,0.2C127.4,31.8,127.1,31.9,126.8,31.8z"/>
					<path id="_Path_241" class="st3" d="M125.4,33.2c-0.2,0.2-0.5,0.2-0.8,0.2c-0.1,0-0.2-0.2-0.2-0.3c0-0.1,0.1-0.1,0.1-0.2
						c0.2-0.2,0.5-0.2,0.8-0.2c0.1,0,0.2,0.2,0.2,0.3C125.5,33.1,125.4,33.2,125.4,33.2z"/>
					<path id="_Path_242" class="st3" d="M122.6,35.1c-0.1,0-0.2-0.2-0.2-0.3c0-0.1,0.1-0.1,0.1-0.2c0.2-0.2,0.5-0.2,0.8-0.2
						c0.1,0,0.2,0.2,0.2,0.3c0,0.1-0.1,0.1-0.1,0.2C123.2,35.1,122.9,35.2,122.6,35.1z"/>
					<path id="_Path_243" class="st3" d="M112.2,38.4c-0.1,0-0.2-0.2-0.2-0.3c0-0.1,0.1-0.1,0.1-0.2c0.2-0.2,0.5-0.2,0.8-0.2
						c0.1,0,0.2,0.2,0.2,0.3c0,0.1-0.1,0.1-0.1,0.2C112.8,38.4,112.5,38.5,112.2,38.4z"/>
					<path id="_Path_244" class="st3" d="M110.3,40.1c-0.1,0-0.2-0.2-0.2-0.3c0-0.1,0.1-0.1,0.1-0.2c0.2-0.2,0.5-0.2,0.8-0.2
						c0.1,0,0.2,0.2,0.2,0.3c0,0.1-0.1,0.1-0.1,0.2C110.9,40.1,110.6,40.2,110.3,40.1z"/>
					<path id="_Path_245" class="st3" d="M108.4,41.8c-0.1,0-0.2-0.2-0.2-0.3c0-0.1,0.1-0.1,0.1-0.2c0.2-0.2,0.5-0.2,0.8-0.2
						c0.1,0,0.2,0.2,0.2,0.3c0,0.1-0.1,0.1-0.1,0.2C109,41.8,108.6,41.8,108.4,41.8z"/>
					<path id="_Path_246" class="st3" d="M106.4,43.4c-0.1,0-0.2-0.2-0.2-0.3c0-0.1,0.1-0.1,0.1-0.2c0.2-0.2,0.5-0.2,0.8-0.2
						c0.1,0,0.2,0.2,0.2,0.3c0,0.1-0.1,0.1-0.1,0.2C107,43.5,106.7,43.5,106.4,43.4z"/>
					<path id="_Path_247" class="st3" d="M104.5,45.1c-0.1,0-0.2-0.2-0.2-0.3c0-0.1,0.1-0.1,0.1-0.2c0.2-0.2,0.5-0.2,0.8-0.2
						c0.1,0,0.2,0.2,0.2,0.3c0,0.1-0.1,0.1-0.1,0.2C105.1,45.1,104.8,45.2,104.5,45.1z"/>
					<path id="_Path_248" class="st3" d="M102.6,46.8c-0.1,0-0.2-0.2-0.2-0.3c0-0.1,0.1-0.1,0.1-0.2c0.2-0.2,0.5-0.2,0.8-0.2
						c0.1,0,0.2,0.2,0.2,0.3c0,0.1-0.1,0.1-0.1,0.2C103.2,46.8,102.9,46.9,102.6,46.8z"/>
					<path id="_Path_249" class="st3" d="M115.4,39.1c-0.2,0.2-0.5,0.2-0.8,0.2c-0.1,0-0.2-0.2-0.2-0.3c0-0.1,0.1-0.1,0.1-0.2
						c0.2-0.2,0.5-0.2,0.8-0.2L115.4,39.1z"/>
					<path id="_Path_250" class="st3" d="M112.7,40.9c-0.1,0-0.2-0.2-0.2-0.3c0-0.1,0.1-0.1,0.1-0.2c0.2-0.2,0.5-0.2,0.8-0.2
						c0.1,0,0.2,0.2,0.2,0.3c0,0.1-0.1,0.1-0.1,0.2C113.3,40.9,113,41,112.7,40.9z"/>
					<path id="_Path_251" class="st3" d="M110.8,42.6c-0.1,0-0.2-0.2-0.2-0.3c0-0.1,0.1-0.1,0.1-0.2c0.2-0.2,0.5-0.2,0.8-0.2
						c0.1,0,0.2,0.2,0.2,0.3c0,0.1-0.1,0.1-0.1,0.2C111.4,42.6,111.1,42.7,110.8,42.6z"/>
					<path id="_Path_252" class="st3" d="M108.9,44.3c-0.1,0-0.2-0.2-0.2-0.3c0-0.1,0.1-0.1,0.1-0.2c0.2-0.2,0.5-0.2,0.8-0.2
						c0.1,0,0.2,0.2,0.2,0.3c0,0.1-0.1,0.1-0.1,0.2C109.5,44.3,109.1,44.3,108.9,44.3z"/>
					<path id="_Path_253" class="st3" d="M106.9,45.9c-0.1,0-0.2-0.2-0.2-0.3c0-0.1,0.1-0.1,0.1-0.2c0.2-0.2,0.5-0.2,0.8-0.2
						c0.1,0,0.2,0.2,0.2,0.3c0,0.1-0.1,0.1-0.1,0.2C107.5,46,107.2,46,106.9,45.9z"/>
					<path id="_Path_254" class="st3" d="M105,47.6c-0.1,0-0.2-0.2-0.2-0.3c0-0.1,0.1-0.1,0.1-0.2c0.2-0.2,0.5-0.2,0.8-0.2
						c0.1,0,0.2,0.2,0.2,0.3c0,0.1-0.1,0.1-0.1,0.2C105.6,47.6,105.3,47.7,105,47.6z"/>
					<path id="_Path_255" class="st3" d="M103.1,49.3c-0.1,0-0.2-0.2-0.2-0.3c0-0.1,0.1-0.1,0.1-0.2c0.2-0.2,0.5-0.2,0.8-0.2
						c0.1,0,0.2,0.2,0.2,0.3c0,0.1-0.1,0.1-0.1,0.2C103.7,49.3,103.4,49.4,103.1,49.3z"/>
					<path id="_Path_256" class="st3" d="M111.3,45.1c-0.1,0-0.2-0.2-0.2-0.3c0-0.1,0.1-0.1,0.1-0.2c0.2-0.2,0.5-0.2,0.8-0.2
						c0.1,0,0.2,0.2,0.2,0.3c0,0.1-0.1,0.1-0.1,0.2C111.9,45.1,111.6,45.2,111.3,45.1z"/>
					<path id="_Path_257" class="st3" d="M109.3,46.8c-0.1,0-0.2-0.2-0.2-0.3c0-0.1,0.1-0.1,0.1-0.2c0.2-0.2,0.5-0.2,0.8-0.2
						c0.1,0,0.2,0.2,0.2,0.3c0,0.1-0.1,0.1-0.1,0.2C109.9,46.8,109.6,46.8,109.3,46.8z"/>
					<path id="_Path_258" class="st3" d="M107.4,48.4c-0.1,0-0.2-0.2-0.2-0.3c0-0.1,0.1-0.1,0.1-0.2c0.2-0.2,0.5-0.2,0.8-0.2
						c0.1,0,0.2,0.2,0.2,0.3c0,0.1-0.1,0.1-0.1,0.2C108,48.5,107.7,48.5,107.4,48.4z"/>
					<path id="_Path_259" class="st3" d="M105.5,50.1c-0.1,0-0.2-0.2-0.2-0.3c0-0.1,0.1-0.1,0.1-0.2c0.2-0.2,0.5-0.2,0.8-0.2
						c0.1,0,0.2,0.2,0.2,0.3c0,0.1-0.1,0.1-0.1,0.2C106.1,50.1,105.8,50.2,105.5,50.1z"/>
					<path id="_Path_260" class="st3" d="M103.6,51.8c-0.1,0-0.2-0.2-0.2-0.3c0-0.1,0.1-0.1,0.1-0.2c0.2-0.2,0.5-0.2,0.8-0.2
						c0.1,0,0.2,0.2,0.2,0.3c0,0.1-0.1,0.1-0.1,0.2C104.2,51.8,103.9,51.9,103.6,51.8z"/>
					<path id="_Path_261" class="st3" d="M109.8,49.2c-0.1,0-0.2-0.2-0.2-0.3c0-0.1,0.1-0.1,0.1-0.2c0.2-0.2,0.5-0.2,0.8-0.2
						c0.1,0,0.2,0.2,0.2,0.3c0,0.1-0.1,0.1-0.1,0.2C110.4,49.3,110.1,49.3,109.8,49.2z"/>
					<path id="_Path_262" class="st3" d="M107.9,50.9c-0.1,0-0.2-0.2-0.2-0.3c0-0.1,0.1-0.1,0.1-0.2c0.2-0.2,0.5-0.2,0.8-0.2
						c0.1,0,0.2,0.2,0.2,0.3c0,0.1-0.1,0.1-0.1,0.2C108.5,51,108.2,51,107.9,50.9z"/>
					<path id="_Path_263" class="st3" d="M106,52.6c-0.1,0-0.2-0.2-0.2-0.3c0-0.1,0.1-0.1,0.1-0.2c0.2-0.2,0.5-0.2,0.8-0.2
						c0.1,0,0.2,0.2,0.2,0.3c0,0.1-0.1,0.1-0.1,0.2C106.6,52.6,106.3,52.7,106,52.6z"/>
					<path id="_Path_264" class="st3" d="M111.2,51.6c-0.2,0.2-0.5,0.2-0.8,0.2c-0.1,0-0.2-0.2-0.2-0.3c0-0.1,0.1-0.1,0.1-0.2
						c0.2-0.2,0.5-0.2,0.8-0.2L111.2,51.6z"/>
				</g>
				<polygon id="_Path_265" class="st4" points="103.6,42.9 92.4,37.1 91.9,28.2 103.2,34 				"/>
				<path class="st4" d="M92.6,28.1l10.5,5.4c0,0,7.1-11.9,17.4-19c4-2.7,13.5-8.7,23.1-8.5L134.1,1c0,0-6.7-3.2-20.4,5.7
					C105.3,12.3,98.1,19.6,92.6,28.1z"/>
				<path class="st1" d="M92.6,31.8l10.5,5.4c0,0,7.1-11.9,17.4-19c4-2.7,13.5-8.7,23.1-8.5l-9.9-6.2c0,0-6.4-1.9-20.1,7
					C105.3,16,98.1,23.3,92.6,31.8z"/>
				<g id="_Group_31">
					<path id="_Compound_Path_12" class="st5" d="M145.8,6.5L145.7,7l-18.4,7.6l-23.8,19.8l-0.2,0.2l-11.7-6l-0.1-0.4l0.1-0.1
						c2.4-4.2,5.4-8.2,8.8-11.7c3.6-3.7,7.6-6.9,11.9-9.7c3.8-2.5,7.9-4.5,12.2-5.8c3.2-1.1,6.7-1.1,9.9-0.2L145.8,6.5z M126.7,13.8
						l17.6-7L134,1.5c-3-0.9-6.3-0.8-9.3,0.2c-4.3,1.3-8.3,3.2-12,5.7c-4.2,2.7-8.1,5.9-11.7,9.6c-3.3,3.3-6.1,7-8.5,11.1l10.5,5.4
						L126.7,13.8z"/>
				</g>
				<g id="_Group_32">
					<g id="_Group_33">
						<path id="_Compound_Path_13" class="st5" d="M135.8,7.1c3.7-1,6.9-1.1,9.6-0.2l0.4,8.9c-3.3-0.6-6.7-0.3-9.9,0.8
							c-4.1,1.3-8.1,3.2-11.7,5.6c-4.1,2.7-8,5.8-11.5,9.3c-3.5,3.4-6.6,7.2-9.2,11.4l-0.4-8.9c2.4-4.2,5.4-8.1,8.8-11.6
							c3.6-3.6,7.5-6.9,11.8-9.6C127.5,10.3,131.5,8.4,135.8,7.1z"/>
					</g>
				</g>
			</g>
			<path class="st5" d="M145.8,6.5l-0.3-0.1c-0.6-0.2-1.2-0.3-1.9-0.4c-9.6-0.2-19.2,5.8-23.2,8.5c-10.3,7.1-17.4,19-17.4,19
				l-10.5-5.5c5.5-8.5,12.7-15.8,21.1-21.4c9.4-6.1,15.5-6.5,18.4-6.1c-2.5-0.3-5.1-0.1-7.6,0.7c-4.3,1.3-8.4,3.2-12.1,5.7
				c-4.3,2.7-8.2,6-11.8,9.6c-3.3,3.4-6.2,7.1-8.5,11.2l-0.4-0.2l-0.3,0.5l0.4,9.3l11.2,5.8l0.6,0.3l0.3-0.5c2.6-4,5.6-7.8,9-11.2
				c3.5-3.5,7.3-6.5,11.4-9.2c3.6-2.4,7.5-4.3,11.6-5.6c3.1-1.1,6.4-1.4,9.7-0.8l0.6,0.1L145.8,6.5z M92.8,36.8L92.4,29l10.3,5.3
				l0.4,7.6v0.2L92.8,36.8z M135.8,16.2c-4.2,1.4-8.2,3.3-11.8,5.7c-4.2,2.7-8,5.8-11.5,9.3c-3.2,3.1-6,6.6-8.5,10.2l-0.3-7.3
				c2.4-4.1,5.3-7.9,8.6-11.4c3.5-3.6,7.5-6.8,11.7-9.5c3.7-2.5,7.7-4.4,12-5.7c2.9-1,6-1.1,9-0.3l0.4,8
				C142.2,14.8,138.9,15.1,135.8,16.2L135.8,16.2z"/>
		</g>
	</g>
</g>
</svg>
