<svg xmlns="http://www.w3.org/2000/svg" viewBox="0 0 719.29 286.96"><defs><style>.cls-1{fill:#16110d;}.cls-2{fill:#fec;}.cls-3{fill:#ffbe2e;}.cls-4{font-size:30px;font-family:Oswald-Medium, Oswald;}</style></defs><title>Code Live Website Mobile</title><g id="Layer_2" data-name="Layer 2"><g id="Code"><g id="_11" data-name="11"><g id="_Group_" data-name="&lt;Group&gt;"><g id="_Group_2" data-name="&lt;Group&gt;"><path id="_Path_" data-name="&lt;Path&gt;" class="cls-1" d="M273.35,117.46l105.94,52.11c3.79,2,6,5.11,6,8.47,0,2.94-1.72,5.75-4.71,7.7l-8.06,4.79-3.41-1.79,9.73-5.79c2-1.32,3.16-3.08,3.16-4.92,0-2.13-1.53-4.14-4.2-5.52l-107.72-53Z"/></g></g><g id="_Group_3" data-name="&lt;Group&gt;"><g id="_Group_4" data-name="&lt;Group&gt;"><path id="_Path_2" data-name="&lt;Path&gt;" class="cls-1" d="M252.28,109.28a18.54,18.54,0,0,1,8.49,2l12.59,6.22-3.24,2.06-10.83-5.35a15.29,15.29,0,0,0-7-1.6,15.1,15.1,0,0,0-7.48,1.86L126.88,184.19l-3.67-1.49,119.9-71.09A18.45,18.45,0,0,1,252.28,109.28Z"/></g></g><g id="_Group_5" data-name="&lt;Group&gt;"><g id="_Group_6" data-name="&lt;Group&gt;"><path id="_Path_3" data-name="&lt;Path&gt;" class="cls-1" d="M369.14,188.74l3.41,1.79L362.87,196c-2.33,1.36-3.68,3.27-3.68,5.24,0,2.14,1.54,4.15,4.22,5.53l10,5-3.32,2-8.15-4.05c-3.78-1.94-6-5.1-6-8.46,0-3.17,1.94-6.12,5.33-8.08Z"/></g></g><g id="_Group_7" data-name="&lt;Group&gt;"><g id="_Group_8" data-name="&lt;Group&gt;"><path id="_Path_4" data-name="&lt;Path&gt;" class="cls-1" d="M495.69,255.5l3.67,1.49-11.77,7.23a18,18,0,0,1-9.71,2.66,18.56,18.56,0,0,1-8.46-1.94l-99.33-51.18,3.32-2L470.9,262a15.3,15.3,0,0,0,7,1.59,14.71,14.71,0,0,0,8-2.16Z"/></g></g><g id="_Group_9" data-name="&lt;Group&gt;"><ellipse id="_Path_5" data-name="&lt;Path&gt;" class="cls-2" cx="423.97" cy="229.51" rx="38.37" ry="23.71"/><g id="_Group_10" data-name="&lt;Group&gt;"><g id="_Group_11" data-name="&lt;Group&gt;"><path id="_Path_6" data-name="&lt;Path&gt;" d="M454.38,224.95h0l-2.16-9h-5.15c-5.6-3.64-13.76-6-22.88-6s-17.28,2.31-22.88,6h-5L394,224.83h0a10.42,10.42,0,0,0-.43,2.82c0,9.73,13.69,17.62,30.59,17.62s30.59-7.89,30.59-17.62A10.44,10.44,0,0,0,454.38,224.95Z"/><polygon id="_Path_7" data-name="&lt;Path&gt;" class="cls-3" points="393.6 227.65 395.84 234.27 404.94 241.34 414.71 244.26 416.06 232.75 408.65 231.06 398.6 224.71 396.12 219.1 396.35 215.99 393.6 227.65"/><path id="_Compound_Path_" data-name="&lt;Compound Path&gt;" d="M424.19,246.29c-17.42,0-31.6-8.36-31.6-18.63a10.24,10.24,0,0,1,.17-1.81h0l.3-1.27,2.56-9.6H401c6-3.79,14.39-6,23.17-6s17.21,2.17,23.17,6H453l2.34,9.74h0a11.29,11.29,0,0,1,.43,2.94C455.78,237.93,441.61,246.29,424.19,246.29Zm-28.88-22.46h0l-.33,1.28a9.38,9.38,0,0,0-.39,2.55c0,9.16,13.27,16.61,29.58,16.61s29.58-7.45,29.58-16.61a9.35,9.35,0,0,0-.37-2.45v0l-2-8.19h-4.66l-.25-.16c-5.66-3.68-13.8-5.79-22.33-5.79s-16.67,2.11-22.33,5.79l-.25.16h-4.48Z"/></g><g id="_Group_12" data-name="&lt;Group&gt;"><ellipse id="_Path_8" data-name="&lt;Path&gt;" class="cls-3" cx="424.28" cy="218.05" rx="28.16" ry="16.23"/><ellipse id="_Path_9" data-name="&lt;Path&gt;" class="cls-2" cx="423.97" cy="222.65" rx="28.16" ry="16.23"/></g><g id="_Group_13" data-name="&lt;Group&gt;"><path id="_Compound_Path_2" data-name="&lt;Compound Path&gt;" d="M424.28,200.81c-16.09,0-29.17,7.73-29.17,17.24s13.09,17.24,29.17,17.24,29.17-7.73,29.17-17.24S440.37,200.81,424.28,200.81Zm0,32.45c-15,0-27.15-6.83-27.15-15.22s12.18-15.22,27.15-15.22,27.15,6.83,27.15,15.22S439.26,233.26,424.28,233.26Z"/><ellipse id="_Path_10" data-name="&lt;Path&gt;" cx="424.19" cy="217.1" rx="14.32" ry="7.61"/></g></g></g><g id="_Group_14" data-name="&lt;Group&gt;"><ellipse id="_Path_11" data-name="&lt;Path&gt;" class="cls-2" cx="123.21" cy="192.79" rx="38.37" ry="23.71"/><g id="_Group_15" data-name="&lt;Group&gt;"><g id="_Group_16" data-name="&lt;Group&gt;"><path id="_Path_12" data-name="&lt;Path&gt;" d="M153.62,188.22h0l-2.16-9h-5.15c-5.6-3.64-13.76-6-22.88-6s-17.28,2.31-22.88,6h-5l-2.36,8.85h0a10.42,10.42,0,0,0-.43,2.82c0,9.73,13.69,17.62,30.59,17.62S154,200.66,154,190.93A10.44,10.44,0,0,0,153.62,188.22Z"/><polygon id="_Path_13" data-name="&lt;Path&gt;" class="cls-3" points="92.84 190.93 95.08 197.55 104.18 204.61 113.95 207.54 115.3 196.02 107.89 194.34 97.85 187.98 95.36 182.38 95.59 179.26 92.84 190.93"/><path id="_Compound_Path_3" data-name="&lt;Compound Path&gt;" d="M123.43,209.56c-17.42,0-31.6-8.36-31.6-18.63a10.24,10.24,0,0,1,.17-1.81h0l.3-1.27,2.56-9.6h5.44c6-3.79,14.39-6,23.17-6s17.21,2.17,23.17,6h5.65L154.6,188h0a11.29,11.29,0,0,1,.43,2.94C155,201.2,140.85,209.56,123.43,209.56ZM94.55,187.1h0l-.33,1.28a9.38,9.38,0,0,0-.39,2.55c0,9.16,13.27,16.61,29.58,16.61S153,200.09,153,190.93a9.35,9.35,0,0,0-.37-2.45v0l-2-8.19H146l-.25-.16c-5.66-3.68-13.8-5.79-22.33-5.79s-16.67,2.11-22.33,5.79l-.25.16H96.37Z"/></g><g id="_Group_17" data-name="&lt;Group&gt;"><ellipse id="_Path_14" data-name="&lt;Path&gt;" class="cls-3" cx="123.53" cy="181.32" rx="28.16" ry="16.23"/><ellipse id="_Path_15" data-name="&lt;Path&gt;" class="cls-2" cx="123.21" cy="185.93" rx="28.16" ry="16.23"/></g><g id="_Group_18" data-name="&lt;Group&gt;"><path id="_Compound_Path_4" data-name="&lt;Compound Path&gt;" d="M123.53,164.09c-16.09,0-29.17,7.73-29.17,17.24s13.09,17.24,29.17,17.24,29.17-7.73,29.17-17.24S139.61,164.09,123.53,164.09Zm0,32.45c-15,0-27.15-6.83-27.15-15.22s12.18-15.22,27.15-15.22,27.15,6.83,27.15,15.22S138.5,196.54,123.53,196.54Z"/><ellipse id="_Path_16" data-name="&lt;Path&gt;" cx="123.43" cy="180.38" rx="14.32" ry="7.61"/></g></g></g></g><path id="_Path_17" data-name="&lt;Path&gt;" class="cls-1" d="M515.73,123.85l7.93,3.94h0l38.72,19,.1-.06,6.11,3a18,18,0,0,0,8.23,1.89,17.48,17.48,0,0,0,9.44-2.59l9.88-6h0l38.63-23.22-3.35-1.68-37.24,22.39,0,0-9.59,5.79a14.3,14.3,0,0,1-7.74,2.1,14.88,14.88,0,0,1-6.79-1.55l-10.27-5-.12.07-33.91-16.62h0L517.17,121c-2.61-1.34-4.1-3.3-4.1-5.38,0-1.91,1.31-3.77,3.58-5.09l5.35-3h0l.17-.1,1.66-.94-.06,0,36.86-22.16-.09,0,27.32-16.42.14.07,38.63-23.22-.1-.05,21.68-13h0l26.5-15.93.1,0,23-14L694.4,0,683.58,6.73l-.1,0L657.3,22.42h0L618.67,45.64l.1,0L586.34,65.18l-.14-.07L547.57,88.34l.09,0-27.35,16.44,0,0-5.22,3c-3.29,1.91-5.18,4.78-5.18,7.86C509.87,118.89,512.05,122,515.73,123.85Z"/><g id="_Group_19" data-name="&lt;Group&gt;"><polygon id="_Path_18" data-name="&lt;Path&gt;" class="cls-1" points="603.56 138.58 634.8 119.8 631.45 118.12 603.56 134.89 603.56 138.58"/><polygon id="_Path_19" data-name="&lt;Path&gt;" class="cls-1" points="603.56 58.52 626.62 44.65 626.52 44.6 648.2 31.57 671.23 17.73 671.23 14.04 657.3 22.41 657.3 22.41 618.67 45.63 618.77 45.68 603.56 54.82 603.56 58.52"/></g><path id="_Path_20" data-name="&lt;Path&gt;" class="cls-1" d="M495.69,255.5l3.67,1.49,51.42-31.19-.1-.05,32.43-19.49.14.07,38.63-23.22-.1,0,34.13-20.51L670,154.1l.1,0L706.87,132h0l7.84-4.66c2.91-1.9,4.58-4.63,4.58-7.49,0-3.26-2.17-6.33-5.86-8.23L710,110h0l-16.93-8.09-10-5a18.77,18.77,0,0,0-17.16.36l-11.85,7.24-36.55,22,.11.05,5.57.35-.11-.05,34.2-20.56h0l1.14-.7,1.07-.64h0l8.06-4.93a14.68,14.68,0,0,1,7.28-1.81,14.86,14.86,0,0,1,6.81,1.56l5.6,2.77h0l1.06.51,3.89,1.92.06,0,11.65,5.56-.09.06L712,114.5c2.6,1.34,4.08,3.3,4.08,5.37,0,1.79-1.11,3.5-3.07,4.78l-9.46,5.63h0l-24.74,14.87-.1,0-26.19,15.74h0l-38.63,23.22.1,0-32.43,19.49-.14-.07-38.63,23.22.1,0Z"/><text class="cls-4" transform="matrix(0.87, 0.5, -0.87, 0.5, 8.5, 197.19)">live website</text><text class="cls-4" transform="matrix(0.87, 0.5, -0.87, 0.5, 341.38, 255.02)">code</text></g></g></svg>