<svg xmlns="http://www.w3.org/2000/svg" viewBox="0 0 376.31 151.17"><defs><style>.cls-1{fill:none;stroke:#271f3b;stroke-miterlimit:10;stroke-width:7px;}.cls-2{fill:#271f3b;}</style></defs><title>Code</title><g id="Layer_2" data-name="Layer 2"><g id="Palet"><polyline class="cls-1" points="20.69 21.2 136.08 136.81 355.79 136.81"/><circle class="cls-2" cx="361.05" cy="135.9" r="15.26"/><circle class="cls-2" cx="15.26" cy="15.26" r="15.26"/><path class="cls-2" d="M188.7,87.28a13.9,13.9,0,0,0-11.16-5.52,13.67,13.67,0,0,0-5.42,1.06,13.19,13.19,0,0,0-4.29,2.89A13.33,13.33,0,0,0,165,90.07a14.29,14.29,0,0,0-1,5.45,14.46,14.46,0,0,0,1,5.52,13.29,13.29,0,0,0,7.14,7.31,13.24,13.24,0,0,0,5.32,1.06q6.25,0,11.23-5.32v15.42l-1.33.47a38.52,38.52,0,0,1-5.58,1.56,27,27,0,0,1-5.12.5,26.16,26.16,0,0,1-18.31-7.48,27.42,27.42,0,0,1-5.81-8.44,27.06,27.06,0,0,1,0-21.26,26.47,26.47,0,0,1,24.22-15.72,27.51,27.51,0,0,1,5.88.63,35.79,35.79,0,0,1,6.08,2Z"/><path class="cls-2" d="M194.48,103.3A16.58,16.58,0,0,1,196,96.22a17.38,17.38,0,0,1,4.25-5.71,20.23,20.23,0,0,1,6.48-3.82,23.38,23.38,0,0,1,8.21-1.4,23.72,23.72,0,0,1,8.14,1.36,20.17,20.17,0,0,1,6.51,3.79,17,17,0,0,1,4.29,5.78,17.68,17.68,0,0,1,1.53,7.41,17.35,17.35,0,0,1-1.56,7.41,17.59,17.59,0,0,1-4.29,5.78,19.19,19.19,0,0,1-6.55,3.75,25,25,0,0,1-8.27,1.33,24,24,0,0,1-8.11-1.33,18.7,18.7,0,0,1-6.41-3.79A17.56,17.56,0,0,1,196,110.9,18.44,18.44,0,0,1,194.48,103.3Zm12.69.13a7.71,7.71,0,0,0,.63,3.16,8.42,8.42,0,0,0,1.66,2.49,7.3,7.3,0,0,0,2.46,1.66,7.94,7.94,0,0,0,6,0,7.31,7.31,0,0,0,2.46-1.66,8.46,8.46,0,0,0,1.66-2.49,7.57,7.57,0,0,0,.63-3.09,7.41,7.41,0,0,0-.63-3A8.48,8.48,0,0,0,220.43,98,7.33,7.33,0,0,0,218,96.32a7.94,7.94,0,0,0-6,0A7.31,7.31,0,0,0,209.47,98a8.58,8.58,0,0,0-1.66,2.46A7.16,7.16,0,0,0,207.18,103.43Z"/><path class="cls-2" d="M268.65,65.48h12.09v55.16H268.65v-3.79a12.62,12.62,0,0,1-10.43,4.85,16.59,16.59,0,0,1-6.85-1.4,16.91,16.91,0,0,1-5.45-3.85,17.62,17.62,0,0,1-3.62-5.78,20.39,20.39,0,0,1-.07-14.12,17.42,17.42,0,0,1,3.49-5.75,16.51,16.51,0,0,1,12.36-5.32,13.89,13.89,0,0,1,10.57,4.45Zm-15.15,38a7.94,7.94,0,0,0,2.23,5.58,7.29,7.29,0,0,0,2.46,1.66,7.92,7.92,0,0,0,3.09.6,7.76,7.76,0,0,0,3-.6,7.31,7.31,0,0,0,2.46-1.66,8.63,8.63,0,0,0,1.66-2.46,7.18,7.18,0,0,0,.63-3,7.42,7.42,0,0,0-.63-3,8.51,8.51,0,0,0-1.66-2.49,7.32,7.32,0,0,0-2.46-1.66,7.95,7.95,0,0,0-6,0,7.3,7.3,0,0,0-2.46,1.66,8.76,8.76,0,0,0-1.66,2.43A7,7,0,0,0,253.49,103.49Z"/><path class="cls-2" d="M299.74,105.62q0,7.77,7.31,7.77a6.53,6.53,0,0,0,5.91-3.19H324.6q-3.52,11.7-17.61,11.7a23.14,23.14,0,0,1-7.91-1.3,17.65,17.65,0,0,1-6.15-3.69,16.44,16.44,0,0,1-4-5.72,19,19,0,0,1-1.4-7.44,21,21,0,0,1,1.33-7.68,16.13,16.13,0,0,1,3.79-5.81,16.76,16.76,0,0,1,5.95-3.69,22.5,22.5,0,0,1,7.88-1.3,22,22,0,0,1,7.77,1.3,15.75,15.75,0,0,1,5.85,3.75,16.33,16.33,0,0,1,3.66,6,23.85,23.85,0,0,1,1.26,8v1.26Zm14.09-7a7.24,7.24,0,0,0-2.46-4.05,7.63,7.63,0,0,0-9.07-.07,6.61,6.61,0,0,0-2.23,4.12Z"/></g></g></svg>