<svg xmlns="http://www.w3.org/2000/svg" viewBox="0 0 336.37 245.96"><defs><style>.cls-1{font-size:49.33px;font-family:Oswald-Medium, Oswald;}.cls-2{letter-spacing:0em;}.cls-3{fill:#fec;}.cls-4{fill:#fff;}.cls-5{fill:#16110d;}.cls-6{fill:#ffbe2e;}.cls-7{fill:#121212;}</style></defs><title>Code Trckr 1</title><g id="Layer_2" data-name="Layer 2"><g id="Code"><text class="cls-1" transform="matrix(0.87, 0.5, -0.87, 0.5, 163.57, 60.92)">t<tspan class="cls-2" x="16.38" y="0">r</tspan><tspan x="33.31" y="0">ckr</tspan></text><g id="_2" data-name="2"><g id="_Group_" data-name="&lt;Group&gt;"><g id="_Group_2" data-name="&lt;Group&gt;"><path id="_Path_" data-name="&lt;Path&gt;" class="cls-3" d="M208.3,232.43,21.68,124.75c-4.46-2.58-12.26-2.25-17.42.72h0c-5.16,3-5.72,7.47-1.25,10.05L189.63,243.2c4.46,2.58,12.26,2.25,17.42-.72h0C212.2,239.5,212.76,235,208.3,232.43Z"/></g><g id="_Group_3" data-name="&lt;Group&gt;"><path id="_Path_2" data-name="&lt;Path&gt;" class="cls-3" d="M224,126.8,121,67.36c-4.46-2.58-12.26-2.25-17.42.72h0c-5.16,3-5.72,7.47-1.25,10.05l103,59.44c4.46,2.58,12.26,2.25,17.42-.72h0C227.93,133.88,228.49,129.38,224,126.8Z"/></g><g id="_Group_4" data-name="&lt;Group&gt;"><path id="_Path_3" data-name="&lt;Path&gt;" class="cls-4" d="M257.94,146.37l-4.2-2.43c-4.46-2.58-12.26-2.25-17.42.72h0c-5.16,3-5.72,7.47-1.25,10.05l4.2,2.43c4.46,2.58,12.26,2.25,17.42-.72h0C261.84,153.44,262.4,148.94,257.94,146.37Z"/></g><g id="_Group_5" data-name="&lt;Group&gt;"><path id="_Path_4" data-name="&lt;Path&gt;" class="cls-3" d="M143.93,160.73,51.57,107.44c-4.46-2.58-12.26-2.25-17.42.72h0c-5.16,3-5.72,7.47-1.25,10.05l92.36,53.29c4.46,2.58,12.26,2.25,17.42-.72h0C147.83,167.8,148.39,163.3,143.93,160.73Z"/></g><g id="_Group_6" data-name="&lt;Group&gt;"><path id="_Path_5" data-name="&lt;Path&gt;" class="cls-4" d="M179,181l-8.27-4.77c-4.46-2.58-12.26-2.25-17.42.72h0c-5.16,3-5.72,7.47-1.25,10.05l8.27,4.77c4.46,2.58,12.26,2.25,17.42-.72h0C182.92,188,183.48,183.55,179,181Z"/></g><g id="_Group_7" data-name="&lt;Group&gt;"><path id="_Path_6" data-name="&lt;Path&gt;" class="cls-3" d="M213.31,166.56,152.2,131.3c-4.46-2.58-12.26-2.25-17.42.72h0c-5.16,3-5.72,7.47-1.25,10.05l61.11,35.26c4.46,2.58,12.26,2.25,17.42-.72h0C217.21,173.64,217.77,169.14,213.31,166.56Z"/></g><g id="_Group_8" data-name="&lt;Group&gt;"><path id="_Path_7" data-name="&lt;Path&gt;" class="cls-4" d="M125.69,116l-8.27-4.77c-4.46-2.58-12.26-2.25-17.42.72h0c-5.16,3-5.72,7.47-1.25,10.05l8.27,4.77c4.46,2.58,12.26,2.25,17.42-.72h0C129.59,123.08,130.15,118.58,125.69,116Z"/></g></g><g id="_Group_9" data-name="&lt;Group&gt;"><g id="_Group_10" data-name="&lt;Group&gt;"><g id="_Group_11" data-name="&lt;Group&gt;"><path id="_Compound_Path_" data-name="&lt;Compound Path&gt;" class="cls-5" d="M24.89,121.82a21.26,21.26,0,0,0-10.38,2.63c-3.06,1.77-4.81,4.18-4.81,6.63,0,2.1,1.27,4,3.56,5.31L199.88,244.06c4.83,2.79,13,2.47,18.51-.72,3.06-1.77,4.81-4.18,4.81-6.63,0-2.1-1.27-4-3.56-5.31L33,123.72A16.54,16.54,0,0,0,24.89,121.82ZM208,243.77a14.33,14.33,0,0,1-7-1.61L14.35,134.49c-1.13-.65-2.47-1.77-2.47-3.42s1.36-3.37,3.72-4.74c4.85-2.8,12.17-3.12,16.32-.72L218.54,233.29c1.13.65,2.47,1.77,2.47,3.42s-1.35,3.38-3.72,4.74A19.16,19.16,0,0,1,208,243.77Z"/></g></g><g id="_Group_12" data-name="&lt;Group&gt;"><g id="_Group_13" data-name="&lt;Group&gt;"><path id="_Compound_Path_2" data-name="&lt;Compound Path&gt;" class="cls-5" d="M124.22,64.43a21.29,21.29,0,0,0-10.38,2.62c-3.06,1.77-4.81,4.19-4.81,6.63,0,2.1,1.26,4,3.56,5.31l103,59.44c4.85,2.79,13,2.47,18.51-.72,3.06-1.77,4.81-4.18,4.81-6.63,0-2.1-1.27-4-3.56-5.31l-103-59.44A16.54,16.54,0,0,0,124.22,64.43Zm99.49,73.71a14.31,14.31,0,0,1-7-1.61l-103-59.44c-1.13-.65-2.47-1.77-2.47-3.42s1.36-3.37,3.72-4.74c4.84-2.79,12.17-3.12,16.32-.72l103,59.44c1.13.65,2.47,1.77,2.47,3.42s-1.36,3.37-3.72,4.74A19.12,19.12,0,0,1,223.71,138.15Z"/></g></g><g id="_Group_14" data-name="&lt;Group&gt;"><g id="_Group_15" data-name="&lt;Group&gt;"><path id="_Compound_Path_3" data-name="&lt;Compound Path&gt;" class="cls-5" d="M256.94,141a21.26,21.26,0,0,0-10.38,2.62c-3.06,1.77-4.81,4.18-4.81,6.63,0,2.1,1.27,4,3.56,5.32l4.2,2.43c4.84,2.79,13,2.47,18.51-.72,3.06-1.77,4.81-4.19,4.81-6.63,0-2.1-1.26-4-3.56-5.31l-4.21-2.43A16.54,16.54,0,0,0,256.94,141Zm.68,16.71a14.31,14.31,0,0,1-7-1.61l-4.2-2.43c-1.13-.65-2.47-1.77-2.47-3.42s1.35-3.37,3.72-4.73c4.85-2.8,12.17-3.12,16.32-.72l4.21,2.43c1.13.65,2.47,1.77,2.47,3.42s-1.36,3.37-3.72,4.74A19.15,19.15,0,0,1,257.62,157.71Z"/></g></g><g id="_Group_16" data-name="&lt;Group&gt;"><g id="_Group_17" data-name="&lt;Group&gt;"><path id="_Compound_Path_4" data-name="&lt;Compound Path&gt;" class="cls-5" d="M54.78,104.5a21.25,21.25,0,0,0-10.38,2.62c-3.06,1.77-4.81,4.18-4.81,6.63,0,2.1,1.27,4,3.56,5.31l92.36,53.29c4.84,2.79,13,2.47,18.51-.72,3.06-1.77,4.81-4.18,4.81-6.63,0-2.1-1.26-4-3.56-5.31h0L62.9,106.4A16.55,16.55,0,0,0,54.78,104.5Zm88.84,67.57a14.33,14.33,0,0,1-7-1.61l-92.36-53.3c-1.13-.65-2.47-1.77-2.47-3.41s1.36-3.38,3.72-4.74c4.84-2.8,12.17-3.13,16.32-.72l92.36,53.29h0c1.13.65,2.46,1.77,2.46,3.42s-1.35,3.38-3.72,4.74A19.16,19.16,0,0,1,143.61,172.08Z"/></g></g><g id="_Group_18" data-name="&lt;Group&gt;"><g id="_Group_19" data-name="&lt;Group&gt;"><path id="_Compound_Path_5" data-name="&lt;Compound Path&gt;" class="cls-5" d="M173.95,173.27a21.24,21.24,0,0,0-10.38,2.62c-3.06,1.77-4.81,4.18-4.81,6.63,0,2.1,1.27,4,3.56,5.31l8.27,4.78c4.84,2.79,13,2.47,18.51-.72,3.06-1.77,4.81-4.18,4.81-6.63,0-2.1-1.27-4-3.56-5.31l-8.27-4.77A16.52,16.52,0,0,0,173.95,173.27Zm4.75,19.05a14.31,14.31,0,0,1-7-1.61l-8.27-4.78c-1.13-.65-2.47-1.77-2.47-3.41s1.36-3.38,3.72-4.74c4.84-2.8,12.17-3.13,16.32-.72l8.27,4.77c1.13.65,2.47,1.77,2.47,3.41s-1.36,3.38-3.72,4.74A19.11,19.11,0,0,1,178.7,192.32Z"/></g></g><g id="_Group_20" data-name="&lt;Group&gt;"><g id="_Group_21" data-name="&lt;Group&gt;"><path id="_Compound_Path_6" data-name="&lt;Compound Path&gt;" class="cls-5" d="M155.41,128.37A21.29,21.29,0,0,0,145,131c-3.06,1.77-4.81,4.18-4.81,6.63,0,2.1,1.27,4,3.56,5.31l61.11,35.26c4.84,2.79,13,2.47,18.51-.72,3.06-1.77,4.81-4.18,4.81-6.63,0-2.1-1.27-4-3.56-5.31l-61.11-35.26A16.52,16.52,0,0,0,155.41,128.37ZM213,177.91a14.3,14.3,0,0,1-7-1.61L144.87,141c-1.13-.65-2.47-1.77-2.47-3.42s1.36-3.38,3.72-4.74c4.85-2.8,12.17-3.12,16.32-.72l61.11,35.26c1.13.65,2.47,1.77,2.47,3.42s-1.36,3.37-3.72,4.74A19.12,19.12,0,0,1,213,177.91Z"/></g></g><g id="_Group_22" data-name="&lt;Group&gt;"><g id="_Group_23" data-name="&lt;Group&gt;"><path id="_Compound_Path_7" data-name="&lt;Compound Path&gt;" class="cls-5" d="M120.62,108.3a21.28,21.28,0,0,0-10.38,2.62c-3.06,1.77-4.81,4.18-4.81,6.63,0,2.1,1.26,4,3.56,5.31l8.27,4.77c4.85,2.79,13,2.47,18.51-.72,3.06-1.77,4.81-4.18,4.81-6.63,0-2.1-1.27-4-3.56-5.31l-8.27-4.77A16.52,16.52,0,0,0,120.62,108.3Zm4.75,19.05a14.31,14.31,0,0,1-7-1.61L110.08,121c-1.13-.65-2.47-1.77-2.47-3.42s1.36-3.38,3.72-4.74c4.85-2.79,12.17-3.12,16.32-.72l8.27,4.77c1.13.65,2.47,1.77,2.47,3.42s-1.36,3.37-3.72,4.74A19.12,19.12,0,0,1,125.37,127.35Z"/></g></g></g></g><g id="_" data-name=")"><g id="_Group_24" data-name="&lt;Group&gt;"><path id="_Path_8" data-name="&lt;Path&gt;" class="cls-5" d="M309.73,146.94a.26.26,0,0,1,0,.49.93.93,0,0,1-.84,0,.26.26,0,0,1,0-.49A.93.93,0,0,1,309.73,146.94Z"/><path id="_Path_9" data-name="&lt;Path&gt;" class="cls-5" d="M311.94,145.67a.26.26,0,0,1,0,.49.93.93,0,0,1-.84,0,.26.26,0,0,1,0-.49A.93.93,0,0,1,311.94,145.67Z"/><path id="_Path_10" data-name="&lt;Path&gt;" class="cls-5" d="M314.14,144.4a.26.26,0,0,1,0,.49.93.93,0,0,1-.84,0,.26.26,0,0,1,0-.49A.93.93,0,0,1,314.14,144.4Z"/><path id="_Path_11" data-name="&lt;Path&gt;" class="cls-5" d="M316.35,143.12a.26.26,0,0,1,0,.49.93.93,0,0,1-.84,0,.26.26,0,0,1,0-.49A.93.93,0,0,1,316.35,143.12Z"/><path id="_Path_12" data-name="&lt;Path&gt;" class="cls-5" d="M318.55,141.85a.26.26,0,0,1,0,.49.93.93,0,0,1-.84,0,.26.26,0,0,1,0-.49A.93.93,0,0,1,318.55,141.85Z"/><path id="_Path_13" data-name="&lt;Path&gt;" class="cls-5" d="M320.76,140.58a.26.26,0,0,1,0,.49.93.93,0,0,1-.84,0,.26.26,0,0,1,0-.49A.93.93,0,0,1,320.76,140.58Z"/><path id="_Path_14" data-name="&lt;Path&gt;" class="cls-5" d="M323,139.31a.26.26,0,0,1,0,.49.93.93,0,0,1-.84,0,.26.26,0,0,1,0-.49A.93.93,0,0,1,323,139.31Z"/><path id="_Path_15" data-name="&lt;Path&gt;" class="cls-5" d="M325.16,138a.26.26,0,0,1,0,.49.93.93,0,0,1-.84,0,.26.26,0,0,1,0-.49A.93.93,0,0,1,325.16,138Z"/><path id="_Path_16" data-name="&lt;Path&gt;" class="cls-5" d="M300.92,149.49a.26.26,0,0,1,0,.49.93.93,0,0,1-.84,0,.26.26,0,0,1,0-.49A.93.93,0,0,1,300.92,149.49Z"/><path id="_Path_17" data-name="&lt;Path&gt;" class="cls-5" d="M303.12,148.21a.26.26,0,0,1,0,.49.93.93,0,0,1-.84,0,.26.26,0,0,1,0-.49A.93.93,0,0,1,303.12,148.21Z"/><path id="_Path_18" data-name="&lt;Path&gt;" class="cls-5" d="M305.33,146.94a.26.26,0,0,1,0,.49.93.93,0,0,1-.84,0,.26.26,0,0,1,0-.49A.93.93,0,0,1,305.33,146.94Z"/><path id="_Path_19" data-name="&lt;Path&gt;" class="cls-5" d="M307.53,145.67a.26.26,0,0,1,0,.49.93.93,0,0,1-.84,0,.26.26,0,0,1,0-.49A.93.93,0,0,1,307.53,145.67Z"/><path id="_Path_20" data-name="&lt;Path&gt;" class="cls-5" d="M309.73,144.4a.26.26,0,0,1,0,.49.93.93,0,0,1-.84,0,.26.26,0,0,1,0-.49A.93.93,0,0,1,309.73,144.4Z"/><path id="_Path_21" data-name="&lt;Path&gt;" class="cls-5" d="M311.94,143.12a.26.26,0,0,1,0,.49.93.93,0,0,1-.84,0,.26.26,0,0,1,0-.49A.93.93,0,0,1,311.94,143.12Z"/><path id="_Path_22" data-name="&lt;Path&gt;" class="cls-5" d="M314.14,141.85a.26.26,0,0,1,0,.49.93.93,0,0,1-.84,0,.26.26,0,0,1,0-.49A.93.93,0,0,1,314.14,141.85Z"/><path id="_Path_23" data-name="&lt;Path&gt;" class="cls-5" d="M316.35,140.58a.26.26,0,0,1,0,.49.93.93,0,0,1-.84,0,.26.26,0,0,1,0-.49A.93.93,0,0,1,316.35,140.58Z"/><path id="_Path_24" data-name="&lt;Path&gt;" class="cls-5" d="M318.55,139.31a.26.26,0,0,1,0,.49.93.93,0,0,1-.84,0,.26.26,0,0,1,0-.49A.93.93,0,0,1,318.55,139.31Z"/><path id="_Path_25" data-name="&lt;Path&gt;" class="cls-5" d="M320.76,138a.26.26,0,0,1,0,.49.93.93,0,0,1-.84,0,.26.26,0,0,1,0-.49A.93.93,0,0,1,320.76,138Z"/><path id="_Path_26" data-name="&lt;Path&gt;" class="cls-5" d="M323,136.76a.26.26,0,0,1,0,.49.93.93,0,0,1-.84,0,.26.26,0,0,1,0-.49A.93.93,0,0,1,323,136.76Z"/><path id="_Path_27" data-name="&lt;Path&gt;" class="cls-5" d="M298.71,148.21a.26.26,0,0,1,0,.49.93.93,0,0,1-.84,0,.26.26,0,0,1,0-.49A.93.93,0,0,1,298.71,148.21Z"/><path id="_Path_28" data-name="&lt;Path&gt;" class="cls-5" d="M300.92,146.94a.26.26,0,0,1,0,.49.93.93,0,0,1-.84,0,.26.26,0,0,1,0-.49A.93.93,0,0,1,300.92,146.94Z"/><path id="_Path_29" data-name="&lt;Path&gt;" class="cls-5" d="M303.12,145.67a.26.26,0,0,1,0,.49.93.93,0,0,1-.84,0,.26.26,0,0,1,0-.49A.93.93,0,0,1,303.12,145.67Z"/><path id="_Path_30" data-name="&lt;Path&gt;" class="cls-5" d="M305.33,144.4a.26.26,0,0,1,0,.49.93.93,0,0,1-.84,0,.26.26,0,0,1,0-.49A.93.93,0,0,1,305.33,144.4Z"/><path id="_Path_31" data-name="&lt;Path&gt;" class="cls-5" d="M307.53,143.12a.26.26,0,0,1,0,.49.93.93,0,0,1-.84,0,.26.26,0,0,1,0-.49A.93.93,0,0,1,307.53,143.12Z"/><path id="_Path_32" data-name="&lt;Path&gt;" class="cls-5" d="M309.73,141.85a.26.26,0,0,1,0,.49.93.93,0,0,1-.84,0,.26.26,0,0,1,0-.49A.93.93,0,0,1,309.73,141.85Z"/><path id="_Path_33" data-name="&lt;Path&gt;" class="cls-5" d="M311.94,140.58a.26.26,0,0,1,0,.49.93.93,0,0,1-.84,0,.26.26,0,0,1,0-.49A.93.93,0,0,1,311.94,140.58Z"/><path id="_Path_34" data-name="&lt;Path&gt;" class="cls-5" d="M314.14,139.31a.26.26,0,0,1,0,.49.93.93,0,0,1-.84,0,.26.26,0,0,1,0-.49A.93.93,0,0,1,314.14,139.31Z"/><path id="_Path_35" data-name="&lt;Path&gt;" class="cls-5" d="M316.35,138a.26.26,0,0,1,0,.49.93.93,0,0,1-.84,0,.26.26,0,0,1,0-.49A.93.93,0,0,1,316.35,138Z"/><path id="_Path_36" data-name="&lt;Path&gt;" class="cls-5" d="M318.55,136.76a.26.26,0,0,1,0,.49.93.93,0,0,1-.84,0,.26.26,0,0,1,0-.49A.93.93,0,0,1,318.55,136.76Z"/><path id="_Path_37" data-name="&lt;Path&gt;" class="cls-5" d="M320.76,135.49a.26.26,0,0,1,0,.49.93.93,0,0,1-.84,0,.26.26,0,0,1,0-.49A.93.93,0,0,1,320.76,135.49Z"/><path id="_Path_38" data-name="&lt;Path&gt;" class="cls-5" d="M292.1,149.49a.26.26,0,0,1,0,.49.93.93,0,0,1-.84,0,.26.26,0,0,1,0-.49A.93.93,0,0,1,292.1,149.49Z"/><path id="_Path_39" data-name="&lt;Path&gt;" class="cls-5" d="M294.3,148.21a.26.26,0,0,1,0,.49.93.93,0,0,1-.84,0,.26.26,0,0,1,0-.49A.93.93,0,0,1,294.3,148.21Z"/><path id="_Path_40" data-name="&lt;Path&gt;" class="cls-5" d="M296.51,146.94a.26.26,0,0,1,0,.49.93.93,0,0,1-.84,0,.26.26,0,0,1,0-.49A.93.93,0,0,1,296.51,146.94Z"/><path id="_Path_41" data-name="&lt;Path&gt;" class="cls-5" d="M298.71,145.67a.26.26,0,0,1,0,.49.93.93,0,0,1-.84,0,.26.26,0,0,1,0-.49A.93.93,0,0,1,298.71,145.67Z"/><path id="_Path_42" data-name="&lt;Path&gt;" class="cls-5" d="M300.92,144.4a.26.26,0,0,1,0,.49.93.93,0,0,1-.84,0,.26.26,0,0,1,0-.49A.93.93,0,0,1,300.92,144.4Z"/><path id="_Path_43" data-name="&lt;Path&gt;" class="cls-5" d="M303.12,143.12a.26.26,0,0,1,0,.49.93.93,0,0,1-.84,0,.26.26,0,0,1,0-.49A.93.93,0,0,1,303.12,143.12Z"/><path id="_Path_44" data-name="&lt;Path&gt;" class="cls-5" d="M305.33,141.85a.26.26,0,0,1,0,.49.93.93,0,0,1-.84,0,.26.26,0,0,1,0-.49A.93.93,0,0,1,305.33,141.85Z"/><path id="_Path_45" data-name="&lt;Path&gt;" class="cls-5" d="M307.53,140.58a.26.26,0,0,1,0,.49.93.93,0,0,1-.84,0,.26.26,0,0,1,0-.49A.93.93,0,0,1,307.53,140.58Z"/><path id="_Path_46" data-name="&lt;Path&gt;" class="cls-5" d="M309.73,139.31a.26.26,0,0,1,0,.49.93.93,0,0,1-.84,0,.26.26,0,0,1,0-.49A.93.93,0,0,1,309.73,139.31Z"/><path id="_Path_47" data-name="&lt;Path&gt;" class="cls-5" d="M311.94,138a.26.26,0,0,1,0,.49.93.93,0,0,1-.84,0,.26.26,0,0,1,0-.49A.93.93,0,0,1,311.94,138Z"/><path id="_Path_48" data-name="&lt;Path&gt;" class="cls-5" d="M314.14,136.76a.26.26,0,0,1,0,.49.93.93,0,0,1-.84,0,.26.26,0,0,1,0-.49A.93.93,0,0,1,314.14,136.76Z"/><path id="_Path_49" data-name="&lt;Path&gt;" class="cls-5" d="M316.35,135.49a.26.26,0,0,1,0,.49.93.93,0,0,1-.84,0,.26.26,0,0,1,0-.49A.93.93,0,0,1,316.35,135.49Z"/><path id="_Path_50" data-name="&lt;Path&gt;" class="cls-5" d="M318.55,134.21a.26.26,0,0,1,0,.49.93.93,0,0,1-.84,0,.26.26,0,0,1,0-.49A.93.93,0,0,1,318.55,134.21Z"/><path id="_Path_51" data-name="&lt;Path&gt;" class="cls-5" d="M287.69,149.49a.26.26,0,0,1,0,.49.93.93,0,0,1-.84,0,.26.26,0,0,1,0-.49A.93.93,0,0,1,287.69,149.49Z"/><path id="_Path_52" data-name="&lt;Path&gt;" class="cls-5" d="M289.9,148.21a.26.26,0,0,1,0,.49.93.93,0,0,1-.84,0,.26.26,0,0,1,0-.49A.93.93,0,0,1,289.9,148.21Z"/><path id="_Path_53" data-name="&lt;Path&gt;" class="cls-5" d="M292.1,146.94a.26.26,0,0,1,0,.49.93.93,0,0,1-.84,0,.26.26,0,0,1,0-.49A.93.93,0,0,1,292.1,146.94Z"/><path id="_Path_54" data-name="&lt;Path&gt;" class="cls-5" d="M294.3,145.67a.26.26,0,0,1,0,.49.93.93,0,0,1-.84,0,.26.26,0,0,1,0-.49A.93.93,0,0,1,294.3,145.67Z"/><path id="_Path_55" data-name="&lt;Path&gt;" class="cls-5" d="M296.51,144.4a.26.26,0,0,1,0,.49.93.93,0,0,1-.84,0,.26.26,0,0,1,0-.49A.93.93,0,0,1,296.51,144.4Z"/><path id="_Path_56" data-name="&lt;Path&gt;" class="cls-5" d="M298.71,143.12a.26.26,0,0,1,0,.49.93.93,0,0,1-.84,0,.26.26,0,0,1,0-.49A.93.93,0,0,1,298.71,143.12Z"/><path id="_Path_57" data-name="&lt;Path&gt;" class="cls-5" d="M300.92,141.85a.26.26,0,0,1,0,.49.93.93,0,0,1-.84,0,.26.26,0,0,1,0-.49A.93.93,0,0,1,300.92,141.85Z"/><path id="_Path_58" data-name="&lt;Path&gt;" class="cls-5" d="M303.12,140.58a.26.26,0,0,1,0,.49.93.93,0,0,1-.84,0,.26.26,0,0,1,0-.49A.93.93,0,0,1,303.12,140.58Z"/><path id="_Path_59" data-name="&lt;Path&gt;" class="cls-5" d="M305.33,139.31a.26.26,0,0,1,0,.49.93.93,0,0,1-.84,0,.26.26,0,0,1,0-.49A.93.93,0,0,1,305.33,139.31Z"/><path id="_Path_60" data-name="&lt;Path&gt;" class="cls-5" d="M307.53,138a.26.26,0,0,1,0,.49.93.93,0,0,1-.84,0,.26.26,0,0,1,0-.49A.93.93,0,0,1,307.53,138Z"/><path id="_Path_61" data-name="&lt;Path&gt;" class="cls-5" d="M309.73,136.76a.26.26,0,0,1,0,.49.93.93,0,0,1-.84,0,.26.26,0,0,1,0-.49A.93.93,0,0,1,309.73,136.76Z"/><path id="_Path_62" data-name="&lt;Path&gt;" class="cls-5" d="M311.94,135.49a.26.26,0,0,1,0,.49.93.93,0,0,1-.84,0,.26.26,0,0,1,0-.49A.93.93,0,0,1,311.94,135.49Z"/><path id="_Path_63" data-name="&lt;Path&gt;" class="cls-5" d="M314.14,134.21a.26.26,0,0,1,0,.49.93.93,0,0,1-.84,0,.26.26,0,0,1,0-.49A.93.93,0,0,1,314.14,134.21Z"/><path id="_Path_64" data-name="&lt;Path&gt;" class="cls-5" d="M316.35,132.94a.26.26,0,0,1,0,.49.93.93,0,0,1-.84,0,.26.26,0,0,1,0-.49A.93.93,0,0,1,316.35,132.94Z"/><path id="_Path_65" data-name="&lt;Path&gt;" class="cls-5" d="M285.49,148.21a.26.26,0,0,1,0,.49.93.93,0,0,1-.84,0,.26.26,0,0,1,0-.49A.93.93,0,0,1,285.49,148.21Z"/><path id="_Path_66" data-name="&lt;Path&gt;" class="cls-5" d="M287.69,146.94a.26.26,0,0,1,0,.49.93.93,0,0,1-.84,0,.26.26,0,0,1,0-.49A.93.93,0,0,1,287.69,146.94Z"/><path id="_Path_67" data-name="&lt;Path&gt;" class="cls-5" d="M289.9,145.67a.26.26,0,0,1,0,.49.93.93,0,0,1-.84,0,.26.26,0,0,1,0-.49A.93.93,0,0,1,289.9,145.67Z"/><path id="_Path_68" data-name="&lt;Path&gt;" class="cls-5" d="M292.1,144.4a.26.26,0,0,1,0,.49.93.93,0,0,1-.84,0,.26.26,0,0,1,0-.49A.93.93,0,0,1,292.1,144.4Z"/><path id="_Path_69" data-name="&lt;Path&gt;" class="cls-5" d="M294.3,143.12a.26.26,0,0,1,0,.49.93.93,0,0,1-.84,0,.26.26,0,0,1,0-.49A.93.93,0,0,1,294.3,143.12Z"/><path id="_Path_70" data-name="&lt;Path&gt;" class="cls-5" d="M296.51,141.85a.26.26,0,0,1,0,.49.93.93,0,0,1-.84,0,.26.26,0,0,1,0-.49A.93.93,0,0,1,296.51,141.85Z"/><path id="_Path_71" data-name="&lt;Path&gt;" class="cls-5" d="M298.71,140.58a.26.26,0,0,1,0,.49.93.93,0,0,1-.84,0,.26.26,0,0,1,0-.49A.93.93,0,0,1,298.71,140.58Z"/><path id="_Path_72" data-name="&lt;Path&gt;" class="cls-5" d="M300.92,139.31a.26.26,0,0,1,0,.49.93.93,0,0,1-.84,0,.26.26,0,0,1,0-.49A.93.93,0,0,1,300.92,139.31Z"/><path id="_Path_73" data-name="&lt;Path&gt;" class="cls-5" d="M303.12,138a.26.26,0,0,1,0,.49.93.93,0,0,1-.84,0,.26.26,0,0,1,0-.49A.93.93,0,0,1,303.12,138Z"/><path id="_Path_74" data-name="&lt;Path&gt;" class="cls-5" d="M305.33,136.76a.26.26,0,0,1,0,.49.93.93,0,0,1-.84,0,.26.26,0,0,1,0-.49Z"/><path id="_Path_75" data-name="&lt;Path&gt;" class="cls-5" d="M283.28,146.94a.26.26,0,0,1,0,.49.93.93,0,0,1-.84,0,.26.26,0,0,1,0-.49A.93.93,0,0,1,283.28,146.94Z"/><path id="_Path_76" data-name="&lt;Path&gt;" class="cls-5" d="M285.49,145.67a.26.26,0,0,1,0,.49.93.93,0,0,1-.84,0,.26.26,0,0,1,0-.49A.93.93,0,0,1,285.49,145.67Z"/><path id="_Path_77" data-name="&lt;Path&gt;" class="cls-5" d="M287.69,144.4a.26.26,0,0,1,0,.49.93.93,0,0,1-.84,0,.26.26,0,0,1,0-.49A.93.93,0,0,1,287.69,144.4Z"/><path id="_Path_78" data-name="&lt;Path&gt;" class="cls-5" d="M289.9,143.12a.26.26,0,0,1,0,.49.93.93,0,0,1-.84,0,.26.26,0,0,1,0-.49A.93.93,0,0,1,289.9,143.12Z"/><path id="_Path_79" data-name="&lt;Path&gt;" class="cls-5" d="M292.1,141.85a.26.26,0,0,1,0,.49.93.93,0,0,1-.84,0,.26.26,0,0,1,0-.49A.93.93,0,0,1,292.1,141.85Z"/><path id="_Path_80" data-name="&lt;Path&gt;" class="cls-5" d="M294.3,140.58a.26.26,0,0,1,0,.49.93.93,0,0,1-.84,0,.26.26,0,0,1,0-.49A.93.93,0,0,1,294.3,140.58Z"/><path id="_Path_81" data-name="&lt;Path&gt;" class="cls-5" d="M296.51,139.31a.26.26,0,0,1,0,.49.93.93,0,0,1-.84,0,.26.26,0,0,1,0-.49Z"/><path id="_Path_82" data-name="&lt;Path&gt;" class="cls-5" d="M281.06,145.66a.26.26,0,0,1,0,.49.93.93,0,0,1-.84,0,.26.26,0,0,1,0-.49A.93.93,0,0,1,281.06,145.66Z"/><path id="_Path_83" data-name="&lt;Path&gt;" class="cls-5" d="M283.26,144.38a.26.26,0,0,1,0,.49.93.93,0,0,1-.84,0,.26.26,0,0,1,0-.49A.93.93,0,0,1,283.26,144.38Z"/><path id="_Path_84" data-name="&lt;Path&gt;" class="cls-5" d="M285.47,143.11a.26.26,0,0,1,0,.49.93.93,0,0,1-.84,0,.26.26,0,0,1,0-.49A.93.93,0,0,1,285.47,143.11Z"/><path id="_Path_85" data-name="&lt;Path&gt;" class="cls-5" d="M287.67,141.84a.26.26,0,0,1,0,.49.93.93,0,0,1-.84,0,.26.26,0,0,1,0-.49A.93.93,0,0,1,287.67,141.84Z"/><path id="_Path_86" data-name="&lt;Path&gt;" class="cls-5" d="M289.88,140.56a.26.26,0,0,1,0,.49.93.93,0,0,1-.84,0,.26.26,0,0,1,0-.49A.93.93,0,0,1,289.88,140.56Z"/><path id="_Path_87" data-name="&lt;Path&gt;" class="cls-5" d="M281.06,143.11a.26.26,0,0,1,0,.49.93.93,0,0,1-.84,0,.26.26,0,0,1,0-.49A.93.93,0,0,1,281.06,143.11Z"/><path id="_Path_88" data-name="&lt;Path&gt;" class="cls-5" d="M283.26,141.84a.26.26,0,0,1,0,.49.93.93,0,0,1-.84,0,.26.26,0,0,1,0-.49A.93.93,0,0,1,283.26,141.84Z"/><path id="_Path_89" data-name="&lt;Path&gt;" class="cls-5" d="M285.47,140.56a.26.26,0,0,1,0,.49.93.93,0,0,1-.84,0,.26.26,0,0,1,0-.49A.93.93,0,0,1,285.47,140.56Z"/><path id="_Path_90" data-name="&lt;Path&gt;" class="cls-5" d="M287.67,139.78a.93.93,0,0,1-.84,0,.26.26,0,0,1,0-.49Z"/><path id="_Path_91" data-name="&lt;Path&gt;" class="cls-5" d="M281.06,140.56a.26.26,0,0,1,0,.49.93.93,0,0,1-.84,0,.26.26,0,0,1,0-.49A.93.93,0,0,1,281.06,140.56Z"/><path id="_Path_92" data-name="&lt;Path&gt;" class="cls-5" d="M283.26,139.29a.26.26,0,0,1,0,.49.93.93,0,0,1-.84,0,.26.26,0,0,1,0-.49A.93.93,0,0,1,283.26,139.29Z"/><path id="_Path_93" data-name="&lt;Path&gt;" class="cls-5" d="M281.06,138a.26.26,0,0,1,0,.49.93.93,0,0,1-.84,0,.26.26,0,0,1,0-.49A.93.93,0,0,1,281.06,138Z"/><path id="_Path_94" data-name="&lt;Path&gt;" class="cls-5" d="M326.53,136.78a.93.93,0,0,1,.84,0,.26.26,0,0,1,0,.49.93.93,0,0,1-.84,0A.26.26,0,0,1,326.53,136.78Z"/><path id="_Path_95" data-name="&lt;Path&gt;" class="cls-5" d="M329.58,135.5a.26.26,0,0,1,0,.49.93.93,0,0,1-.84,0,.26.26,0,0,1,0-.49A.93.93,0,0,1,329.58,135.5Z"/><path id="_Path_96" data-name="&lt;Path&gt;" class="cls-5" d="M324.33,135.51a.93.93,0,0,1,.84,0,.26.26,0,0,1,0,.49.93.93,0,0,1-.84,0A.26.26,0,0,1,324.33,135.51Z"/><path id="_Path_97" data-name="&lt;Path&gt;" class="cls-5" d="M327.38,134.23a.26.26,0,0,1,0,.49.93.93,0,0,1-.84,0,.26.26,0,0,1,0-.49A.93.93,0,0,1,327.38,134.23Z"/><path id="_Path_98" data-name="&lt;Path&gt;" class="cls-5" d="M329.58,133a.26.26,0,0,1,0,.49.93.93,0,0,1-.84,0,.26.26,0,0,1,0-.49A.93.93,0,0,1,329.58,133Z"/><path id="_Path_99" data-name="&lt;Path&gt;" class="cls-5" d="M331.78,131.69a.26.26,0,0,1,0,.49.93.93,0,0,1-.84,0,.26.26,0,0,1,0-.49A.93.93,0,0,1,331.78,131.69Z"/><path id="_Path_100" data-name="&lt;Path&gt;" class="cls-5" d="M334,130.41a.26.26,0,0,1,0,.49.93.93,0,0,1-.84,0,.26.26,0,0,1,0-.49A.93.93,0,0,1,334,130.41Z"/><path id="_Path_101" data-name="&lt;Path&gt;" class="cls-5" d="M322.12,134.23a.93.93,0,0,1,.84,0,.26.26,0,0,1,0,.49.93.93,0,0,1-.84,0A.26.26,0,0,1,322.12,134.23Z"/><path id="_Path_102" data-name="&lt;Path&gt;" class="cls-5" d="M325.17,133a.26.26,0,0,1,0,.49.93.93,0,0,1-.84,0,.26.26,0,0,1,0-.49A.93.93,0,0,1,325.17,133Z"/><path id="_Path_103" data-name="&lt;Path&gt;" class="cls-5" d="M327.38,131.69a.26.26,0,0,1,0,.49.93.93,0,0,1-.84,0,.26.26,0,0,1,0-.49A.93.93,0,0,1,327.38,131.69Z"/><path id="_Path_104" data-name="&lt;Path&gt;" class="cls-5" d="M329.58,130.41a.26.26,0,0,1,0,.49.93.93,0,0,1-.84,0,.26.26,0,0,1,0-.49A.93.93,0,0,1,329.58,130.41Z"/><path id="_Path_105" data-name="&lt;Path&gt;" class="cls-5" d="M331.78,129.14a.26.26,0,0,1,0,.49.93.93,0,0,1-.84,0,.26.26,0,0,1,0-.49A.93.93,0,0,1,331.78,129.14Z"/><path id="_Path_106" data-name="&lt;Path&gt;" class="cls-5" d="M334,127.87a.26.26,0,0,1,0,.49.93.93,0,0,1-.84,0,.26.26,0,0,1,0-.49A.93.93,0,0,1,334,127.87Z"/><path id="_Path_107" data-name="&lt;Path&gt;" class="cls-5" d="M319.92,133a.93.93,0,0,1,.84,0,.26.26,0,0,1,0,.49.93.93,0,0,1-.84,0A.26.26,0,0,1,319.92,133Z"/><path id="_Path_108" data-name="&lt;Path&gt;" class="cls-5" d="M323,131.69a.26.26,0,0,1,0,.49.93.93,0,0,1-.84,0,.26.26,0,0,1,0-.49A.93.93,0,0,1,323,131.69Z"/><path id="_Path_109" data-name="&lt;Path&gt;" class="cls-5" d="M325.17,130.41a.26.26,0,0,1,0,.49.93.93,0,0,1-.84,0,.26.26,0,0,1,0-.49A.93.93,0,0,1,325.17,130.41Z"/><path id="_Path_110" data-name="&lt;Path&gt;" class="cls-5" d="M327.38,129.14a.26.26,0,0,1,0,.49.93.93,0,0,1-.84,0,.26.26,0,0,1,0-.49A.93.93,0,0,1,327.38,129.14Z"/><path id="_Path_111" data-name="&lt;Path&gt;" class="cls-5" d="M329.58,127.87a.26.26,0,0,1,0,.49.93.93,0,0,1-.84,0,.26.26,0,0,1,0-.49A.93.93,0,0,1,329.58,127.87Z"/><path id="_Path_112" data-name="&lt;Path&gt;" class="cls-5" d="M331.78,126.6a.26.26,0,0,1,0,.49.93.93,0,0,1-.84,0,.26.26,0,0,1,0-.49A.93.93,0,0,1,331.78,126.6Z"/><path id="_Path_113" data-name="&lt;Path&gt;" class="cls-5" d="M334,125.32a.26.26,0,0,1,0,.49.93.93,0,0,1-.84,0,.26.26,0,0,1,0-.49A.93.93,0,0,1,334,125.32Z"/><path id="_Path_114" data-name="&lt;Path&gt;" class="cls-5" d="M336.19,124a.26.26,0,0,1,0,.49.93.93,0,0,1-.84,0,.26.26,0,0,1,0-.49A.93.93,0,0,1,336.19,124Z"/><path id="_Path_115" data-name="&lt;Path&gt;" class="cls-5" d="M322.12,129.14a.93.93,0,0,1,.84,0,.26.26,0,0,1,0,.49.93.93,0,0,1-.84,0Z"/><path id="_Path_116" data-name="&lt;Path&gt;" class="cls-5" d="M325.17,127.87a.26.26,0,0,1,0,.49.93.93,0,0,1-.84,0,.26.26,0,0,1,0-.49A.93.93,0,0,1,325.17,127.87Z"/><path id="_Path_117" data-name="&lt;Path&gt;" class="cls-5" d="M327.38,126.6a.26.26,0,0,1,0,.49.93.93,0,0,1-.84,0,.26.26,0,0,1,0-.49A.93.93,0,0,1,327.38,126.6Z"/><path id="_Path_118" data-name="&lt;Path&gt;" class="cls-5" d="M329.58,125.32a.26.26,0,0,1,0,.49.93.93,0,0,1-.84,0,.26.26,0,0,1,0-.49A.93.93,0,0,1,329.58,125.32Z"/><path id="_Path_119" data-name="&lt;Path&gt;" class="cls-5" d="M331.78,124a.26.26,0,0,1,0,.49.93.93,0,0,1-.84,0,.26.26,0,0,1,0-.49A.93.93,0,0,1,331.78,124Z"/><path id="_Path_120" data-name="&lt;Path&gt;" class="cls-5" d="M334,122.78a.26.26,0,0,1,0,.49.93.93,0,0,1-.84,0,.26.26,0,0,1,0-.49A.93.93,0,0,1,334,122.78Z"/><path id="_Path_121" data-name="&lt;Path&gt;" class="cls-5" d="M336.19,121.5a.26.26,0,0,1,0,.49.93.93,0,0,1-.84,0,.26.26,0,0,1,0-.49A.93.93,0,0,1,336.19,121.5Z"/><path id="_Path_122" data-name="&lt;Path&gt;" class="cls-5" d="M327.38,124a.26.26,0,0,1,0,.49.93.93,0,0,1-.84,0,.26.26,0,0,1,0-.49A.93.93,0,0,1,327.38,124Z"/><path id="_Path_123" data-name="&lt;Path&gt;" class="cls-5" d="M329.58,122.78a.26.26,0,0,1,0,.49.93.93,0,0,1-.84,0,.26.26,0,0,1,0-.49A.93.93,0,0,1,329.58,122.78Z"/><path id="_Path_124" data-name="&lt;Path&gt;" class="cls-5" d="M331.78,121.5a.26.26,0,0,1,0,.49.93.93,0,0,1-.84,0,.26.26,0,0,1,0-.49A.93.93,0,0,1,331.78,121.5Z"/><path id="_Path_125" data-name="&lt;Path&gt;" class="cls-5" d="M334,120.23a.26.26,0,0,1,0,.49.93.93,0,0,1-.84,0,.26.26,0,0,1,0-.49A.93.93,0,0,1,334,120.23Z"/><path id="_Path_126" data-name="&lt;Path&gt;" class="cls-5" d="M336.19,119a.26.26,0,0,1,0,.49.93.93,0,0,1-.84,0,.26.26,0,0,1,0-.49A.93.93,0,0,1,336.19,119Z"/><path id="_Path_127" data-name="&lt;Path&gt;" class="cls-5" d="M329.58,120.23a.26.26,0,0,1,0,.49.93.93,0,0,1-.84,0,.26.26,0,0,1,0-.49A.93.93,0,0,1,329.58,120.23Z"/><path id="_Path_128" data-name="&lt;Path&gt;" class="cls-5" d="M331.78,119a.26.26,0,0,1,0,.49.93.93,0,0,1-.84,0,.26.26,0,0,1,0-.49A.93.93,0,0,1,331.78,119Z"/><path id="_Path_129" data-name="&lt;Path&gt;" class="cls-5" d="M334,117.69a.26.26,0,0,1,0,.49.93.93,0,0,1-.84,0,.26.26,0,0,1,0-.49A.93.93,0,0,1,334,117.69Z"/><path id="_Path_130" data-name="&lt;Path&gt;" class="cls-5" d="M328.72,117.67a.93.93,0,0,1,.84,0,.26.26,0,0,1,0,.49.93.93,0,0,1-.84,0Z"/></g><g id="_Group_25" data-name="&lt;Group&gt;"><polygon id="_Path_131" data-name="&lt;Path&gt;" class="cls-6" points="282.16 124.57 282.16 137.2 289.87 141.65 289.87 129.03 282.16 124.57"/><g id="_Group_26" data-name="&lt;Group&gt;"><path id="_Compound_Path_8" data-name="&lt;Compound Path&gt;" class="cls-7" d="M333.81,116.54a16.69,16.69,0,0,1-4.69,8.73,46.41,46.41,0,0,1-10.77,8.19,67.47,67.47,0,0,1-14,6.13,58,58,0,0,1-14.42,2.52h-.14l-.35-.28V128.72l.28-.12,28.51-12.06,15.16-12.93.51.07Zm-43.48,12.79v11.83A57.22,57.22,0,0,0,304,138.7a66.48,66.48,0,0,0,13.85-6,45.46,45.46,0,0,0,10.56-8,15.82,15.82,0,0,0,4.45-8.16V104.94l-14.26,12.42Z"/></g><g id="_Group_27" data-name="&lt;Group&gt;"><g id="_Group_28" data-name="&lt;Group&gt;"><path id="_Compound_Path_9" data-name="&lt;Compound Path&gt;" class="cls-6" d="M318.12,120.44a66.68,66.68,0,0,1-13.95,6.09,57.24,57.24,0,0,1-14.31,2.5l-7.71-4.45a65.45,65.45,0,0,0,14.32-3A69.65,69.65,0,0,0,310,115.67a47.79,47.79,0,0,0,10.37-7.8,20.22,20.22,0,0,0,5.27-8.43l7.76,4.48q-.64,4.19-4.57,8.41A45.71,45.71,0,0,1,318.12,120.44Z"/></g></g><path id="_Compound_Path_10" data-name="&lt;Compound Path&gt;" class="cls-3" d="M318.14,123.78a66.68,66.68,0,0,1-13.95,6.09,57.24,57.24,0,0,1-14.31,2.5l-7.71-4.45a65.45,65.45,0,0,0,14.32-3A69.65,69.65,0,0,0,310,119a47.79,47.79,0,0,0,10.37-7.8,20.22,20.22,0,0,0,5.27-8.43l7.76,4.48q-.64,4.19-4.57,8.41A45.71,45.71,0,0,1,318.14,123.78Z"/><path id="_Compound_Path_11" data-name="&lt;Compound Path&gt;" class="cls-7" d="M333.86,103.68l-8.55-4.94-.16.57a19.86,19.86,0,0,1-5.16,8.23,47.56,47.56,0,0,1-10.27,7.72,69.47,69.47,0,0,1-13.39,5.9,65.42,65.42,0,0,1-14.07,2.92l-.56.05v13.32l8.06,4.65.58,0v-.4a57.37,57.37,0,0,0,13.84-2.47,66.68,66.68,0,0,0,13.95-6.09A45.72,45.72,0,0,0,328.78,125q3.93-4.22,4.57-8.41V105.86a12.08,12.08,0,0,0,.46-1.87ZM289.4,140.84l-6.78-3.92V125.38l.19.11,6.59,3.81Zm-5.77-16a66.79,66.79,0,0,0,13-2.84,70.44,70.44,0,0,0,13.57-6,48.5,48.5,0,0,0,10.47-7.88,21.29,21.29,0,0,0,5.21-8.06l7,4a16.1,16.1,0,0,1-4.4,7.85,45.46,45.46,0,0,1-10.56,8,66.48,66.48,0,0,1-13.85,6A57.13,57.13,0,0,1,290,128.55Z"/></g></g><g id="_2-2" data-name=")"><g id="_Group_29" data-name="&lt;Group&gt;"><g id="_Group_30" data-name="&lt;Group&gt;"><path id="_Path_132" data-name="&lt;Path&gt;" class="cls-5" d="M124.11,19.18a.26.26,0,0,1-.09-.48.93.93,0,0,1,.83-.16.26.26,0,0,1,.09.48A.93.93,0,0,1,124.11,19.18Z"/><path id="_Path_133" data-name="&lt;Path&gt;" class="cls-5" d="M122.19,20.86a.26.26,0,0,1-.09-.48.93.93,0,0,1,.83-.16.26.26,0,0,1,.09.48A.93.93,0,0,1,122.19,20.86Z"/><path id="_Path_134" data-name="&lt;Path&gt;" class="cls-5" d="M120.28,22.54a.26.26,0,0,1-.09-.48.93.93,0,0,1,.83-.16.26.26,0,0,1,.09.48A.93.93,0,0,1,120.28,22.54Z"/><path id="_Path_135" data-name="&lt;Path&gt;" class="cls-5" d="M118.36,24.22a.26.26,0,0,1-.09-.48.93.93,0,0,1,.83-.16.26.26,0,0,1,.09.48A.93.93,0,0,1,118.36,24.22Z"/><path id="_Path_136" data-name="&lt;Path&gt;" class="cls-5" d="M116.45,25.9a.26.26,0,0,1-.09-.48.93.93,0,0,1,.83-.16.26.26,0,0,1,.09.48A.93.93,0,0,1,116.45,25.9Z"/><path id="_Path_137" data-name="&lt;Path&gt;" class="cls-5" d="M114.54,27.57a.26.26,0,0,1-.09-.48.93.93,0,0,1,.83-.16.26.26,0,0,1,.09.48A.93.93,0,0,1,114.54,27.57Z"/><path id="_Path_138" data-name="&lt;Path&gt;" class="cls-5" d="M112.62,29.25a.26.26,0,0,1-.09-.48.93.93,0,0,1,.83-.16.26.26,0,0,1,.09.48A.93.93,0,0,1,112.62,29.25Z"/><path id="_Path_139" data-name="&lt;Path&gt;" class="cls-5" d="M110.71,30.93a.26.26,0,0,1-.09-.48.93.93,0,0,1,.83-.16.26.26,0,0,1,.09.48A.93.93,0,0,1,110.71,30.93Z"/><path id="_Path_140" data-name="&lt;Path&gt;" class="cls-5" d="M132.26,15a.26.26,0,0,1-.09-.48.93.93,0,0,1,.83-.16.26.26,0,0,1,.09.48A.93.93,0,0,1,132.26,15Z"/><path id="_Path_141" data-name="&lt;Path&gt;" class="cls-5" d="M130.34,16.65a.26.26,0,0,1-.09-.48.93.93,0,0,1,.83-.16.26.26,0,0,1,.09.48A.93.93,0,0,1,130.34,16.65Z"/><path id="_Path_142" data-name="&lt;Path&gt;" class="cls-5" d="M128.43,18.33a.26.26,0,0,1-.09-.48.93.93,0,0,1,.83-.16.26.26,0,0,1,.09.48A.93.93,0,0,1,128.43,18.33Z"/><path id="_Path_143" data-name="&lt;Path&gt;" class="cls-5" d="M126.52,20a.26.26,0,0,1-.09-.48.93.93,0,0,1,.83-.16.26.26,0,0,1,.09.48A.93.93,0,0,1,126.52,20Z"/><path id="_Path_144" data-name="&lt;Path&gt;" class="cls-5" d="M124.6,21.68a.26.26,0,0,1-.09-.48.93.93,0,0,1,.83-.16.26.26,0,0,1,.09.48A.93.93,0,0,1,124.6,21.68Z"/><path id="_Path_145" data-name="&lt;Path&gt;" class="cls-5" d="M122.69,23.36a.26.26,0,0,1-.09-.48.93.93,0,0,1,.83-.16.26.26,0,0,1,.09.48A.93.93,0,0,1,122.69,23.36Z"/><path id="_Path_146" data-name="&lt;Path&gt;" class="cls-5" d="M120.77,25a.26.26,0,0,1-.09-.48.93.93,0,0,1,.83-.16.26.26,0,0,1,.09.48A.93.93,0,0,1,120.77,25Z"/><path id="_Path_147" data-name="&lt;Path&gt;" class="cls-5" d="M118.86,26.71a.26.26,0,0,1-.09-.48.93.93,0,0,1,.83-.16.26.26,0,0,1,.09.48A.93.93,0,0,1,118.86,26.71Z"/><path id="_Path_148" data-name="&lt;Path&gt;" class="cls-5" d="M116.95,28.39a.26.26,0,0,1-.09-.48.93.93,0,0,1,.83-.16.26.26,0,0,1,.09.48A.93.93,0,0,1,116.95,28.39Z"/><path id="_Path_149" data-name="&lt;Path&gt;" class="cls-5" d="M115,30.07a.26.26,0,0,1-.09-.48.93.93,0,0,1,.83-.16.26.26,0,0,1,.09.48A.93.93,0,0,1,115,30.07Z"/><path id="_Path_150" data-name="&lt;Path&gt;" class="cls-5" d="M113.12,31.75a.26.26,0,0,1-.09-.48.93.93,0,0,1,.83-.16.26.26,0,0,1,.09.48A.93.93,0,0,1,113.12,31.75Z"/><path id="_Path_151" data-name="&lt;Path&gt;" class="cls-5" d="M134.67,15.79a.26.26,0,0,1-.09-.48.93.93,0,0,1,.83-.16.26.26,0,0,1,.09.48A.93.93,0,0,1,134.67,15.79Z"/><path id="_Path_152" data-name="&lt;Path&gt;" class="cls-5" d="M132.75,17.47a.26.26,0,0,1-.09-.48.93.93,0,0,1,.83-.16.26.26,0,0,1,.09.48A.93.93,0,0,1,132.75,17.47Z"/><path id="_Path_153" data-name="&lt;Path&gt;" class="cls-5" d="M130.84,19.14a.26.26,0,0,1-.09-.48.93.93,0,0,1,.83-.16.26.26,0,0,1,.09.48A.93.93,0,0,1,130.84,19.14Z"/><path id="_Path_154" data-name="&lt;Path&gt;" class="cls-5" d="M128.93,20.82a.26.26,0,0,1-.09-.48.93.93,0,0,1,.83-.16.26.26,0,0,1,.09.48A.93.93,0,0,1,128.93,20.82Z"/><path id="_Path_155" data-name="&lt;Path&gt;" class="cls-5" d="M127,22.5a.26.26,0,0,1-.09-.48.93.93,0,0,1,.83-.16.26.26,0,0,1,.09.48A.93.93,0,0,1,127,22.5Z"/><path id="_Path_156" data-name="&lt;Path&gt;" class="cls-5" d="M125.1,24.18a.26.26,0,0,1-.09-.48.93.93,0,0,1,.83-.16.26.26,0,0,1,.09.48A.93.93,0,0,1,125.1,24.18Z"/><path id="_Path_157" data-name="&lt;Path&gt;" class="cls-5" d="M123.18,25.86a.26.26,0,0,1-.09-.48.93.93,0,0,1,.83-.16.26.26,0,0,1,.09.48A.93.93,0,0,1,123.18,25.86Z"/><path id="_Path_158" data-name="&lt;Path&gt;" class="cls-5" d="M121.27,27.53a.26.26,0,0,1-.09-.48.93.93,0,0,1,.83-.16.26.26,0,0,1,.09.48A.93.93,0,0,1,121.27,27.53Z"/><path id="_Path_159" data-name="&lt;Path&gt;" class="cls-5" d="M119.36,29.21a.26.26,0,0,1-.09-.48.93.93,0,0,1,.83-.16.26.26,0,0,1,.09.48A.93.93,0,0,1,119.36,29.21Z"/><path id="_Path_160" data-name="&lt;Path&gt;" class="cls-5" d="M117.44,30.89a.26.26,0,0,1-.09-.48.93.93,0,0,1,.83-.16.26.26,0,0,1,.09.48A.93.93,0,0,1,117.44,30.89Z"/><path id="_Path_161" data-name="&lt;Path&gt;" class="cls-5" d="M115.53,32.57a.26.26,0,0,1-.09-.48.93.93,0,0,1,.83-.16.26.26,0,0,1,.09.48A.93.93,0,0,1,115.53,32.57Z"/><path id="_Path_162" data-name="&lt;Path&gt;" class="cls-5" d="M140.91,13.25a.26.26,0,0,1-.09-.48.93.93,0,0,1,.83-.16.26.26,0,0,1,.09.48A.93.93,0,0,1,140.91,13.25Z"/><path id="_Path_163" data-name="&lt;Path&gt;" class="cls-5" d="M139,14.93a.26.26,0,0,1-.09-.48.93.93,0,0,1,.83-.16.26.26,0,0,1,.09.48A.93.93,0,0,1,139,14.93Z"/><path id="_Path_164" data-name="&lt;Path&gt;" class="cls-5" d="M137.08,16.61a.26.26,0,0,1-.09-.48.93.93,0,0,1,.83-.16.26.26,0,0,1,.09.48A.93.93,0,0,1,137.08,16.61Z"/><path id="_Path_165" data-name="&lt;Path&gt;" class="cls-5" d="M135.16,18.28a.26.26,0,0,1-.09-.48.93.93,0,0,1,.83-.16.26.26,0,0,1,.09.48A.93.93,0,0,1,135.16,18.28Z"/><path id="_Path_166" data-name="&lt;Path&gt;" class="cls-5" d="M133.25,20a.26.26,0,0,1-.09-.48.93.93,0,0,1,.83-.16.26.26,0,0,1,.09.48A.93.93,0,0,1,133.25,20Z"/><path id="_Path_167" data-name="&lt;Path&gt;" class="cls-5" d="M131.34,21.64a.26.26,0,0,1-.09-.48.93.93,0,0,1,.83-.16.26.26,0,0,1,.09.48A.93.93,0,0,1,131.34,21.64Z"/><path id="_Path_168" data-name="&lt;Path&gt;" class="cls-5" d="M129.42,23.32a.26.26,0,0,1-.09-.48.93.93,0,0,1,.83-.16.26.26,0,0,1,.09.48A.93.93,0,0,1,129.42,23.32Z"/><path id="_Path_169" data-name="&lt;Path&gt;" class="cls-5" d="M127.51,25a.26.26,0,0,1-.09-.48.93.93,0,0,1,.83-.16.26.26,0,0,1,.09.48A.93.93,0,0,1,127.51,25Z"/><path id="_Path_170" data-name="&lt;Path&gt;" class="cls-5" d="M125.59,26.67a.26.26,0,0,1-.09-.48.93.93,0,0,1,.83-.16.26.26,0,0,1,.09.48A.93.93,0,0,1,125.59,26.67Z"/><path id="_Path_171" data-name="&lt;Path&gt;" class="cls-5" d="M123.68,28.35a.26.26,0,0,1-.09-.48.93.93,0,0,1,.83-.16.26.26,0,0,1,.09.48A.93.93,0,0,1,123.68,28.35Z"/><path id="_Path_172" data-name="&lt;Path&gt;" class="cls-5" d="M121.77,30a.26.26,0,0,1-.09-.48.93.93,0,0,1,.83-.16.26.26,0,0,1,.09.48A.93.93,0,0,1,121.77,30Z"/><path id="_Path_173" data-name="&lt;Path&gt;" class="cls-5" d="M119.85,31.71a.26.26,0,0,1-.09-.48.93.93,0,0,1,.83-.16.26.26,0,0,1,.09.48A.93.93,0,0,1,119.85,31.71Z"/><path id="_Path_174" data-name="&lt;Path&gt;" class="cls-5" d="M117.94,33.39a.26.26,0,0,1-.09-.48.93.93,0,0,1,.83-.16.26.26,0,0,1,.09.48A.93.93,0,0,1,117.94,33.39Z"/><path id="_Path_175" data-name="&lt;Path&gt;" class="cls-5" d="M145.23,12.39a.26.26,0,0,1-.09-.48.93.93,0,0,1,.83-.16.26.26,0,0,1,.09.48A.93.93,0,0,1,145.23,12.39Z"/><path id="_Path_176" data-name="&lt;Path&gt;" class="cls-5" d="M143.32,14.07a.26.26,0,0,1-.09-.48.93.93,0,0,1,.83-.16.26.26,0,0,1,.09.48A.93.93,0,0,1,143.32,14.07Z"/><path id="_Path_177" data-name="&lt;Path&gt;" class="cls-5" d="M141.4,15.75a.26.26,0,0,1-.09-.48.93.93,0,0,1,.83-.16.26.26,0,0,1,.09.48A.93.93,0,0,1,141.4,15.75Z"/><path id="_Path_178" data-name="&lt;Path&gt;" class="cls-5" d="M139.49,17.43a.26.26,0,0,1-.09-.48.93.93,0,0,1,.83-.16.26.26,0,0,1,.09.48A.93.93,0,0,1,139.49,17.43Z"/><path id="_Path_179" data-name="&lt;Path&gt;" class="cls-5" d="M137.57,19.1a.26.26,0,0,1-.09-.48.93.93,0,0,1,.83-.16.26.26,0,0,1,.09.48A.93.93,0,0,1,137.57,19.1Z"/><path id="_Path_180" data-name="&lt;Path&gt;" class="cls-5" d="M135.66,20.78a.26.26,0,0,1-.09-.48.93.93,0,0,1,.83-.16.26.26,0,0,1,.09.48A.93.93,0,0,1,135.66,20.78Z"/><path id="_Path_181" data-name="&lt;Path&gt;" class="cls-5" d="M133.75,22.46a.26.26,0,0,1-.09-.48.93.93,0,0,1,.83-.16.26.26,0,0,1,.09.48A.93.93,0,0,1,133.75,22.46Z"/><path id="_Path_182" data-name="&lt;Path&gt;" class="cls-5" d="M131.83,24.14a.26.26,0,0,1-.09-.48.93.93,0,0,1,.83-.16.26.26,0,0,1,.09.48A.93.93,0,0,1,131.83,24.14Z"/><path id="_Path_183" data-name="&lt;Path&gt;" class="cls-5" d="M129.92,25.81a.26.26,0,0,1-.09-.48.93.93,0,0,1,.83-.16.26.26,0,0,1,.09.48A.93.93,0,0,1,129.92,25.81Z"/><path id="_Path_184" data-name="&lt;Path&gt;" class="cls-5" d="M128,27.49a.26.26,0,0,1-.09-.48.93.93,0,0,1,.83-.16.26.26,0,0,1,.09.48A.93.93,0,0,1,128,27.49Z"/><path id="_Path_185" data-name="&lt;Path&gt;" class="cls-5" d="M126.09,29.17a.26.26,0,0,1-.09-.48.93.93,0,0,1,.83-.16.26.26,0,0,1,.09.48A.93.93,0,0,1,126.09,29.17Z"/><path id="_Path_186" data-name="&lt;Path&gt;" class="cls-5" d="M124.18,30.85a.26.26,0,0,1-.09-.48.93.93,0,0,1,.83-.16.26.26,0,0,1,.09.48A.93.93,0,0,1,124.18,30.85Z"/><path id="_Path_187" data-name="&lt;Path&gt;" class="cls-5" d="M122.26,32.53a.26.26,0,0,1-.09-.48.93.93,0,0,1,.83-.16.26.26,0,0,1,.09.48A.93.93,0,0,1,122.26,32.53Z"/><path id="_Path_188" data-name="&lt;Path&gt;" class="cls-5" d="M120.35,34.2a.26.26,0,0,1-.09-.48.93.93,0,0,1,.83-.16.26.26,0,0,1,.09.48A.93.93,0,0,1,120.35,34.2Z"/><path id="_Path_189" data-name="&lt;Path&gt;" class="cls-5" d="M147.64,13.21a.26.26,0,0,1-.09-.48.93.93,0,0,1,.83-.16.26.26,0,0,1,.09.48A.93.93,0,0,1,147.64,13.21Z"/><path id="_Path_190" data-name="&lt;Path&gt;" class="cls-5" d="M145.73,14.89a.26.26,0,0,1-.09-.48.93.93,0,0,1,.83-.16.26.26,0,0,1,.09.48A.93.93,0,0,1,145.73,14.89Z"/><path id="_Path_191" data-name="&lt;Path&gt;" class="cls-5" d="M143.81,16.57a.26.26,0,0,1-.09-.48.93.93,0,0,1,.83-.16.26.26,0,0,1,.09.48A.93.93,0,0,1,143.81,16.57Z"/><path id="_Path_192" data-name="&lt;Path&gt;" class="cls-5" d="M141.9,18.24a.26.26,0,0,1-.09-.48.93.93,0,0,1,.83-.16.26.26,0,0,1,.09.48A.93.93,0,0,1,141.9,18.24Z"/><path id="_Path_193" data-name="&lt;Path&gt;" class="cls-5" d="M140,19.92a.26.26,0,0,1-.09-.48.93.93,0,0,1,.83-.16.26.26,0,0,1,.09.48A.93.93,0,0,1,140,19.92Z"/><path id="_Path_194" data-name="&lt;Path&gt;" class="cls-5" d="M138.07,21.6a.26.26,0,0,1-.09-.48.93.93,0,0,1,.83-.16.26.26,0,0,1,.09.48A.93.93,0,0,1,138.07,21.6Z"/><path id="_Path_195" data-name="&lt;Path&gt;" class="cls-5" d="M136.16,23.28a.26.26,0,0,1-.09-.48.93.93,0,0,1,.83-.16.26.26,0,0,1,.09.48A.93.93,0,0,1,136.16,23.28Z"/><path id="_Path_196" data-name="&lt;Path&gt;" class="cls-5" d="M134.24,25a.26.26,0,0,1-.09-.48.93.93,0,0,1,.83-.16.26.26,0,0,1,.09.48A.93.93,0,0,1,134.24,25Z"/><path id="_Path_197" data-name="&lt;Path&gt;" class="cls-5" d="M132.33,26.63a.26.26,0,0,1-.09-.48.93.93,0,0,1,.83-.16.26.26,0,0,1,.09.48A.93.93,0,0,1,132.33,26.63Z"/><path id="_Path_198" data-name="&lt;Path&gt;" class="cls-5" d="M130.41,28.31a.26.26,0,0,1-.09-.48.93.93,0,0,1,.83-.16.26.26,0,0,1,.09.48Z"/><path id="_Path_199" data-name="&lt;Path&gt;" class="cls-5" d="M150,14a.26.26,0,0,1-.09-.48.93.93,0,0,1,.83-.16.26.26,0,0,1,.09.48A.93.93,0,0,1,150,14Z"/><path id="_Path_200" data-name="&lt;Path&gt;" class="cls-5" d="M148.14,15.71a.26.26,0,0,1-.09-.48.93.93,0,0,1,.83-.16.26.26,0,0,1,.09.48A.93.93,0,0,1,148.14,15.71Z"/><path id="_Path_201" data-name="&lt;Path&gt;" class="cls-5" d="M146.22,17.38a.26.26,0,0,1-.09-.48.93.93,0,0,1,.83-.16.26.26,0,0,1,.09.48A.93.93,0,0,1,146.22,17.38Z"/><path id="_Path_202" data-name="&lt;Path&gt;" class="cls-5" d="M144.31,19.06a.26.26,0,0,1-.09-.48.93.93,0,0,1,.83-.16.26.26,0,0,1,.09.48A.93.93,0,0,1,144.31,19.06Z"/><path id="_Path_203" data-name="&lt;Path&gt;" class="cls-5" d="M142.39,20.74a.26.26,0,0,1-.09-.48.93.93,0,0,1,.83-.16.26.26,0,0,1,.09.48A.93.93,0,0,1,142.39,20.74Z"/><path id="_Path_204" data-name="&lt;Path&gt;" class="cls-5" d="M140.48,22.42a.26.26,0,0,1-.09-.48.93.93,0,0,1,.83-.16.26.26,0,0,1,.09.48A.93.93,0,0,1,140.48,22.42Z"/><path id="_Path_205" data-name="&lt;Path&gt;" class="cls-5" d="M138.57,24.1a.26.26,0,0,1-.09-.48.93.93,0,0,1,.83-.16.26.26,0,0,1,.09.48Z"/><path id="_Path_206" data-name="&lt;Path&gt;" class="cls-5" d="M152.48,14.86a.26.26,0,0,1-.09-.48.93.93,0,0,1,.83-.16.26.26,0,0,1,.09.48A.93.93,0,0,1,152.48,14.86Z"/><path id="_Path_207" data-name="&lt;Path&gt;" class="cls-5" d="M150.57,16.53a.26.26,0,0,1-.09-.48.93.93,0,0,1,.83-.16.26.26,0,0,1,.09.48A.93.93,0,0,1,150.57,16.53Z"/><path id="_Path_208" data-name="&lt;Path&gt;" class="cls-5" d="M148.65,18.21a.26.26,0,0,1-.09-.48.93.93,0,0,1,.83-.16.26.26,0,0,1,.09.48A.93.93,0,0,1,148.65,18.21Z"/><path id="_Path_209" data-name="&lt;Path&gt;" class="cls-5" d="M146.74,19.89a.26.26,0,0,1-.09-.48.93.93,0,0,1,.83-.16.26.26,0,0,1,.09.48A.93.93,0,0,1,146.74,19.89Z"/><path id="_Path_210" data-name="&lt;Path&gt;" class="cls-5" d="M144.83,21.57a.26.26,0,0,1-.09-.48.93.93,0,0,1,.83-.16.26.26,0,0,1,.09.48A.93.93,0,0,1,144.83,21.57Z"/><path id="_Path_211" data-name="&lt;Path&gt;" class="cls-5" d="M153,17.35a.26.26,0,0,1-.09-.48.93.93,0,0,1,.83-.16.26.26,0,0,1,.09.48A.93.93,0,0,1,153,17.35Z"/><path id="_Path_212" data-name="&lt;Path&gt;" class="cls-5" d="M151.06,19a.26.26,0,0,1-.09-.48.93.93,0,0,1,.83-.16.26.26,0,0,1,.09.48A.93.93,0,0,1,151.06,19Z"/><path id="_Path_213" data-name="&lt;Path&gt;" class="cls-5" d="M149.15,20.71a.26.26,0,0,1-.09-.48.93.93,0,0,1,.83-.16.26.26,0,0,1,.09.48A.93.93,0,0,1,149.15,20.71Z"/><path id="_Path_214" data-name="&lt;Path&gt;" class="cls-5" d="M147.14,21.91a.93.93,0,0,1,.83-.16.26.26,0,0,1,.09.48Z"/><path id="_Path_215" data-name="&lt;Path&gt;" class="cls-5" d="M153.47,19.85a.26.26,0,0,1-.09-.48.93.93,0,0,1,.83-.16.26.26,0,0,1,.09.48A.93.93,0,0,1,153.47,19.85Z"/><path id="_Path_216" data-name="&lt;Path&gt;" class="cls-5" d="M151.56,21.53a.26.26,0,0,1-.09-.48.93.93,0,0,1,.83-.16.26.26,0,0,1,.09.48A.93.93,0,0,1,151.56,21.53Z"/><path id="_Path_217" data-name="&lt;Path&gt;" class="cls-5" d="M154,22.35a.26.26,0,0,1-.09-.48.93.93,0,0,1,.83-.16.26.26,0,0,1,.09.48A.93.93,0,0,1,154,22.35Z"/><path id="_Path_218" data-name="&lt;Path&gt;" class="cls-5" d="M109.61,32.43a.93.93,0,0,1-.83.17.26.26,0,0,1-.1-.48.93.93,0,0,1,.83-.17A.26.26,0,0,1,109.61,32.43Z"/><path id="_Path_219" data-name="&lt;Path&gt;" class="cls-5" d="M106.87,34.27a.26.26,0,0,1-.09-.48.93.93,0,0,1,.83-.16.26.26,0,0,1,.09.48A.93.93,0,0,1,106.87,34.27Z"/><path id="_Path_220" data-name="&lt;Path&gt;" class="cls-5" d="M112,33.25a.93.93,0,0,1-.83.17.26.26,0,0,1-.1-.48.93.93,0,0,1,.83-.17A.26.26,0,0,1,112,33.25Z"/><path id="_Path_221" data-name="&lt;Path&gt;" class="cls-5" d="M109.28,35.09a.26.26,0,0,1-.09-.48.93.93,0,0,1,.83-.16.26.26,0,0,1,.09.48A.93.93,0,0,1,109.28,35.09Z"/><path id="_Path_222" data-name="&lt;Path&gt;" class="cls-5" d="M107.37,36.77a.26.26,0,0,1-.09-.48.93.93,0,0,1,.83-.16.26.26,0,0,1,.09.48A.93.93,0,0,1,107.37,36.77Z"/><path id="_Path_223" data-name="&lt;Path&gt;" class="cls-5" d="M105.45,38.45a.26.26,0,0,1-.09-.48.93.93,0,0,1,.83-.16.26.26,0,0,1,.09.48A.93.93,0,0,1,105.45,38.45Z"/><path id="_Path_224" data-name="&lt;Path&gt;" class="cls-5" d="M103.54,40.12a.26.26,0,0,1-.09-.48.93.93,0,0,1,.83-.16.26.26,0,0,1,.09.48A.93.93,0,0,1,103.54,40.12Z"/><path id="_Path_225" data-name="&lt;Path&gt;" class="cls-5" d="M114.43,34.06a.93.93,0,0,1-.83.17.26.26,0,0,1-.1-.48.93.93,0,0,1,.83-.17A.26.26,0,0,1,114.43,34.06Z"/><path id="_Path_226" data-name="&lt;Path&gt;" class="cls-5" d="M111.69,35.91a.26.26,0,0,1-.09-.48.93.93,0,0,1,.83-.16.26.26,0,0,1,.09.48A.93.93,0,0,1,111.69,35.91Z"/><path id="_Path_227" data-name="&lt;Path&gt;" class="cls-5" d="M109.78,37.59a.26.26,0,0,1-.09-.48.93.93,0,0,1,.83-.16.26.26,0,0,1,.09.48A.93.93,0,0,1,109.78,37.59Z"/><path id="_Path_228" data-name="&lt;Path&gt;" class="cls-5" d="M107.86,39.26a.26.26,0,0,1-.09-.48.93.93,0,0,1,.83-.16.26.26,0,0,1,.09.48A.93.93,0,0,1,107.86,39.26Z"/><path id="_Path_229" data-name="&lt;Path&gt;" class="cls-5" d="M105.95,40.94a.26.26,0,0,1-.09-.48.93.93,0,0,1,.83-.16.26.26,0,0,1,.09.48A.93.93,0,0,1,105.95,40.94Z"/><path id="_Path_230" data-name="&lt;Path&gt;" class="cls-5" d="M104,42.62a.26.26,0,0,1-.09-.48.93.93,0,0,1,.83-.16.26.26,0,0,1,.09.48A.93.93,0,0,1,104,42.62Z"/><path id="_Path_231" data-name="&lt;Path&gt;" class="cls-5" d="M116.84,34.88A.93.93,0,0,1,116,35a.26.26,0,0,1-.1-.48.93.93,0,0,1,.83-.17A.26.26,0,0,1,116.84,34.88Z"/><path id="_Path_232" data-name="&lt;Path&gt;" class="cls-5" d="M114.1,36.73a.26.26,0,0,1-.09-.48.93.93,0,0,1,.83-.16.26.26,0,0,1,.09.48A.93.93,0,0,1,114.1,36.73Z"/><path id="_Path_233" data-name="&lt;Path&gt;" class="cls-5" d="M119.11,35.82a.93.93,0,0,1-.83.17.26.26,0,0,1-.1-.48.93.93,0,0,1,.83-.17A.26.26,0,0,1,119.11,35.82Z"/><path id="_Path_234" data-name="&lt;Path&gt;" class="cls-5" d="M116.36,37.66a.26.26,0,0,1-.09-.48.93.93,0,0,1,.83-.16.26.26,0,0,1,.09.48A.93.93,0,0,1,116.36,37.66Z"/><path id="_Path_235" data-name="&lt;Path&gt;" class="cls-5" d="M121.52,36.63a.93.93,0,0,1-.83.17.26.26,0,0,1-.1-.48.93.93,0,0,1,.83-.17A.26.26,0,0,1,121.52,36.63Z"/><path id="_Path_236" data-name="&lt;Path&gt;" class="cls-5" d="M118.77,38.48a.26.26,0,0,1-.09-.48.93.93,0,0,1,.83-.16.26.26,0,0,1,.09.48A.93.93,0,0,1,118.77,38.48Z"/><path id="_Path_237" data-name="&lt;Path&gt;" class="cls-5" d="M117.31,39.94a.93.93,0,0,1-.83.17.26.26,0,0,1-.1-.48.93.93,0,0,1,.83-.17A.26.26,0,0,1,117.31,39.94Z"/><path id="_Path_238" data-name="&lt;Path&gt;" class="cls-5" d="M114.57,41.78a.26.26,0,0,1-.09-.48.93.93,0,0,1,.83-.16.26.26,0,0,1,.09.48A.93.93,0,0,1,114.57,41.78Z"/><path id="_Path_239" data-name="&lt;Path&gt;" class="cls-5" d="M129.57,29.94a.93.93,0,0,1-.83.17.26.26,0,0,1-.1-.48.93.93,0,0,1,.83-.17A.26.26,0,0,1,129.57,29.94Z"/><path id="_Path_240" data-name="&lt;Path&gt;" class="cls-5" d="M126.83,31.78a.26.26,0,0,1-.09-.48.93.93,0,0,1,.83-.16.26.26,0,0,1,.09.48A.93.93,0,0,1,126.83,31.78Z"/><path id="_Path_241" data-name="&lt;Path&gt;" class="cls-5" d="M125.37,33.24a.93.93,0,0,1-.83.17.26.26,0,0,1-.1-.48.93.93,0,0,1,.83-.17A.26.26,0,0,1,125.37,33.24Z"/><path id="_Path_242" data-name="&lt;Path&gt;" class="cls-5" d="M122.63,35.08a.26.26,0,0,1-.09-.48.93.93,0,0,1,.83-.16.26.26,0,0,1,.09.48A.93.93,0,0,1,122.63,35.08Z"/><path id="_Path_243" data-name="&lt;Path&gt;" class="cls-5" d="M112.19,38.4a.26.26,0,0,1-.09-.48.93.93,0,0,1,.83-.16.26.26,0,0,1,.09.48A.93.93,0,0,1,112.19,38.4Z"/><path id="_Path_244" data-name="&lt;Path&gt;" class="cls-5" d="M110.27,40.08a.26.26,0,0,1-.09-.48.93.93,0,0,1,.83-.16.26.26,0,0,1,.09.48A.93.93,0,0,1,110.27,40.08Z"/><path id="_Path_245" data-name="&lt;Path&gt;" class="cls-5" d="M108.36,41.76a.26.26,0,0,1-.09-.48.93.93,0,0,1,.83-.16.26.26,0,0,1,.09.48A.93.93,0,0,1,108.36,41.76Z"/><path id="_Path_246" data-name="&lt;Path&gt;" class="cls-5" d="M106.45,43.44a.26.26,0,0,1-.09-.48.93.93,0,0,1,.83-.16.26.26,0,0,1,.09.48A.93.93,0,0,1,106.45,43.44Z"/><path id="_Path_247" data-name="&lt;Path&gt;" class="cls-5" d="M104.53,45.12a.26.26,0,0,1-.09-.48.93.93,0,0,1,.83-.16.26.26,0,0,1,.09.48A.93.93,0,0,1,104.53,45.12Z"/><path id="_Path_248" data-name="&lt;Path&gt;" class="cls-5" d="M102.62,46.79a.26.26,0,0,1-.09-.48.93.93,0,0,1,.83-.16.26.26,0,0,1,.09.48A.93.93,0,0,1,102.62,46.79Z"/><path id="_Path_249" data-name="&lt;Path&gt;" class="cls-5" d="M115.42,39.06a.93.93,0,0,1-.83.16.26.26,0,0,1-.09-.48.93.93,0,0,1,.83-.16Z"/><path id="_Path_250" data-name="&lt;Path&gt;" class="cls-5" d="M112.68,40.9a.26.26,0,0,1-.09-.48.93.93,0,0,1,.83-.16.26.26,0,0,1,.09.48A.93.93,0,0,1,112.68,40.9Z"/><path id="_Path_251" data-name="&lt;Path&gt;" class="cls-5" d="M110.77,42.58a.26.26,0,0,1-.09-.48.93.93,0,0,1,.83-.16.26.26,0,0,1,.09.48A.93.93,0,0,1,110.77,42.58Z"/><path id="_Path_252" data-name="&lt;Path&gt;" class="cls-5" d="M108.86,44.26a.26.26,0,0,1-.09-.48.93.93,0,0,1,.83-.16.26.26,0,0,1,.09.48A.93.93,0,0,1,108.86,44.26Z"/><path id="_Path_253" data-name="&lt;Path&gt;" class="cls-5" d="M106.94,45.93a.26.26,0,0,1-.09-.48.93.93,0,0,1,.83-.16.26.26,0,0,1,.09.48A.93.93,0,0,1,106.94,45.93Z"/><path id="_Path_254" data-name="&lt;Path&gt;" class="cls-5" d="M105,47.61a.26.26,0,0,1-.09-.48.93.93,0,0,1,.83-.16.26.26,0,0,1,.09.48A.93.93,0,0,1,105,47.61Z"/><path id="_Path_255" data-name="&lt;Path&gt;" class="cls-5" d="M103.11,49.29a.26.26,0,0,1-.09-.48.93.93,0,0,1,.83-.16.26.26,0,0,1,.09.48A.93.93,0,0,1,103.11,49.29Z"/><path id="_Path_256" data-name="&lt;Path&gt;" class="cls-5" d="M111.27,45.08a.26.26,0,0,1-.09-.48.93.93,0,0,1,.83-.16.26.26,0,0,1,.09.48A.93.93,0,0,1,111.27,45.08Z"/><path id="_Path_257" data-name="&lt;Path&gt;" class="cls-5" d="M109.35,46.75a.26.26,0,0,1-.09-.48.93.93,0,0,1,.83-.16.26.26,0,0,1,.09.48A.93.93,0,0,1,109.35,46.75Z"/><path id="_Path_258" data-name="&lt;Path&gt;" class="cls-5" d="M107.44,48.43a.26.26,0,0,1-.09-.48.93.93,0,0,1,.83-.16.26.26,0,0,1,.09.48A.93.93,0,0,1,107.44,48.43Z"/><path id="_Path_259" data-name="&lt;Path&gt;" class="cls-5" d="M105.52,50.11a.26.26,0,0,1-.09-.48.93.93,0,0,1,.83-.16.26.26,0,0,1,.09.48A.93.93,0,0,1,105.52,50.11Z"/><path id="_Path_260" data-name="&lt;Path&gt;" class="cls-5" d="M103.61,51.79a.26.26,0,0,1-.09-.48.93.93,0,0,1,.83-.16.26.26,0,0,1,.09.48A.93.93,0,0,1,103.61,51.79Z"/><path id="_Path_261" data-name="&lt;Path&gt;" class="cls-5" d="M109.85,49.25a.26.26,0,0,1-.09-.48.93.93,0,0,1,.83-.16.26.26,0,0,1,.09.48A.93.93,0,0,1,109.85,49.25Z"/><path id="_Path_262" data-name="&lt;Path&gt;" class="cls-5" d="M107.93,50.93a.26.26,0,0,1-.09-.48.93.93,0,0,1,.83-.16.26.26,0,0,1,.09.48A.93.93,0,0,1,107.93,50.93Z"/><path id="_Path_263" data-name="&lt;Path&gt;" class="cls-5" d="M106,52.61a.26.26,0,0,1-.09-.48.93.93,0,0,1,.83-.16.26.26,0,0,1,.09.48A.93.93,0,0,1,106,52.61Z"/><path id="_Path_264" data-name="&lt;Path&gt;" class="cls-5" d="M111.19,51.59a.93.93,0,0,1-.83.16.26.26,0,0,1-.09-.48.93.93,0,0,1,.83-.16Z"/></g><polygon id="_Path_265" data-name="&lt;Path&gt;" class="cls-6" points="103.6 42.92 92.38 37.14 91.95 28.25 103.17 34.03 103.6 42.92"/><path class="cls-6" d="M92.59,28.06l10.52,5.42s7.11-11.87,17.41-19c4-2.74,13.52-8.74,23.15-8.53L134.11,1S127.4-2.15,113.7,6.7A72.87,72.87,0,0,0,92.59,28.06Z"/><path class="cls-3" d="M92.59,31.77l10.52,5.42s7.11-11.87,17.41-19c4-2.74,13.52-8.74,23.15-8.53l-9.88-6.25s-6.4-1.87-20.09,7A72.87,72.87,0,0,0,92.59,31.77Z"/><g id="_Group_31" data-name="&lt;Group&gt;"><path id="_Compound_Path_12" data-name="&lt;Compound Path&gt;" class="cls-7" d="M145.84,6.52l-.17.48-18.43,7.56L103.47,34.38l-.24.2-11.66-6-.09-.44.07-.12a58,58,0,0,1,8.84-11.67,67.47,67.47,0,0,1,11.88-9.68A46.41,46.41,0,0,1,124.48.85a16.69,16.69,0,0,1,9.91-.18ZM126.7,13.8l17.57-7L134,1.52a15.82,15.82,0,0,0-9.29.22,45.46,45.46,0,0,0-12,5.71A66.48,66.48,0,0,0,101.05,17a57.22,57.22,0,0,0-8.46,11.06l10.52,5.42Z"/></g><g id="_Group_32" data-name="&lt;Group&gt;"><g id="_Group_33" data-name="&lt;Group&gt;"><path id="_Compound_Path_13" data-name="&lt;Compound Path&gt;" class="cls-7" d="M135.83,7.07q5.55-1.56,9.57-.21l.43,8.95a20.22,20.22,0,0,0-9.91.83,47.79,47.79,0,0,0-11.68,5.65,69.65,69.65,0,0,0-11.46,9.27,65.45,65.45,0,0,0-9.19,11.37L103.17,34a57.24,57.24,0,0,1,8.77-11.57,66.68,66.68,0,0,1,11.8-9.61A45.71,45.71,0,0,1,135.83,7.07Z"/></g></g></g><path class="cls-7" d="M145.84,6.52l-.3-.1A12.1,12.1,0,0,0,143.67,6c-9.63-.21-19.18,5.79-23.15,8.53-10.3,7.11-17.41,19-17.41,19L92.59,28.06A72.87,72.87,0,0,1,113.7,6.7C123.09.64,129.19.23,132.1.57a18.15,18.15,0,0,0-7.56.69A45.71,45.71,0,0,0,112.45,7a66.69,66.69,0,0,0-11.8,9.61,57.38,57.38,0,0,0-8.53,11.18l-.36-.18-.29.5.45,9.29,11.22,5.78.62.32.31-.48a65.42,65.42,0,0,1,9-11.17,69.47,69.47,0,0,1,11.38-9.21,47.55,47.55,0,0,1,11.56-5.59,19.86,19.86,0,0,1,9.68-.82l.58.12Zm-53,30.33L92.45,29l10.27,5.29.37,7.6v.22Zm43-20.66A48.5,48.5,0,0,0,124,21.89a70.45,70.45,0,0,0-11.53,9.33A66.79,66.79,0,0,0,104,41.46l-.35-7.32a57.13,57.13,0,0,1,8.63-11.36A66.49,66.49,0,0,1,124,13.23a45.45,45.45,0,0,1,12-5.71,16.1,16.1,0,0,1,9-.31l.39,8A21.29,21.29,0,0,0,135.78,16.19Z"/></g></g></g></svg>