<?xml version="1.0" encoding="utf-8"?>
<!-- Generator: Adobe Illustrator 20.1.0, SVG Export Plug-In . SVG Version: 6.00 Build 0)  -->
<svg version="1.1" id="Layer_1" xmlns="http://www.w3.org/2000/svg" xmlns:xlink="http://www.w3.org/1999/xlink" x="0px" y="0px"
	 viewBox="0 0 62.6 62.6" style="enable-background:new 0 0 62.6 62.6;" xml:space="preserve">
<style type="text/css">
	.st0{fill:#271F3B;}
	.st1{fill:#FFFFFF;}
</style>
<title>Exit</title>
<g id="Layer_2">
	<g id="Palet">
		<g id="_8fRrL7.tif">
			<path class="st0" d="M31.3,1.1c16.7,0,30.4,13.5,30.4,30.4S48,61.6,31.3,61.6S0.9,48.1,0.9,31.4c0-0.1,0-0.1,0-0.2
				C1.1,14.5,14.6,1.2,31.3,1.1z"/>
			<path class="st1" d="M31.3,37.5l-6.5,6.6c-0.3,0.3-0.4,0.4-0.7,0.7c-0.8,0.8-2.2,0.8-3.2,0c-1.1-1-1.9-1.9-3-3c-1-1-1-2.3,0-3.2
				l0.1-0.1c2.1-2.1,4.1-4.1,6.3-6.3c0.3-0.3,0.4-0.4,0.8-0.7c-0.4-0.4-0.4-0.6-0.7-0.8l-6.3-6.3c-1.1-0.7-1.2-2.2-0.6-3.3
				c0.1-0.3,0.4-0.4,0.6-0.6c0.8-0.8,1.7-1.8,2.6-2.6c0.8-1,2.2-1.1,3.2-0.4c0.1,0.1,0.3,0.3,0.4,0.4c2.1,2.1,4.1,4.1,6.3,6.3
				c0.3,0.4,0.4,0.6,0.7,1c0.6-0.6,1-1.1,1.4-1.5c1.9-1.9,3.9-3.9,5.8-5.8c0.8-1,2.2-1.1,3.2-0.4c0.1,0.1,0.3,0.3,0.4,0.4
				c1,1,1.9,1.9,2.6,2.8c1,0.8,1.1,2.2,0.4,3.2c-0.1,0.1-0.3,0.3-0.4,0.4c-2.2,2.1-4.3,4.3-6.3,6.3c-0.3,0.3-0.4,0.4-0.7,0.7
				l3.2,3.2c1.2,1.2,2.6,2.6,4,4c1,0.8,1.1,2.2,0.4,3.2c-0.4,0.3-0.6,0.4-0.7,0.4c-1,1-1.8,1.9-2.6,2.6c-0.8,1-2.2,1.1-3.2,0.4
				c-0.1-0.1-0.3-0.3-0.4-0.4C36,42.3,33.6,40,31.3,37.5z"/>
		</g>
	</g>
</g>
</svg>
