<?xml version="1.0" encoding="utf-8"?>
<!-- Generator: Adobe Illustrator 20.1.0, SVG Export Plug-In . SVG Version: 6.00 Build 0)  -->
<svg version="1.1" id="Layer_1" xmlns="http://www.w3.org/2000/svg" xmlns:xlink="http://www.w3.org/1999/xlink" x="0px" y="0px"
	 viewBox="0 0 62.6 62.6" style="enable-background:new 0 0 62.6 62.6;" xml:space="preserve">
<style type="text/css">
	.st0{fill:#FFFFFF;}
</style>
<title>Exit</title>
<g id="Layer_2">
	<g id="Palet">
		<g id="_8fRrL7.tif">
			<path d="M39.2,39.3l0.1,16.9c0,0.6,0,1.2,0,1.8c0,2.1-1.8,3.9-4,4c-2.5,0.1-5.1,0-7.8,0c-2.4,0-4.2-1.8-4-4l0-0.3
				c0-5.4,0-10.8-0.1-16.3c0-0.6,0-1.2,0.1-1.9c-0.9,0-1.3-0.1-1.9-0.1H5.5c-2.2,0.4-4.5-1.2-4.9-3.4c-0.1-0.4-0.1-1,0-1.5
				c0-2.1-0.1-4.3,0-6.6c-0.1-2.2,1.5-4.2,3.6-4.5c0.3,0,0.6,0,0.9,0c5.4,0,10.8,0,16.4,0c0.7,0.1,1.3,0.1,2.1,0.3
				c0-1.5-0.1-2.5-0.1-3.7c0-5.1,0-9.9,0-14.9c-0.1-2.2,1.3-4.3,3.6-4.5c0.3,0,0.6,0,0.9,0c2.4,0,4.8,0,7,0.1
				c2.2-0.1,4.2,1.5,4.5,3.6c0,0.3,0,0.6,0,0.9c-0.1,5.5,0,11.1,0,16.4c0,0.6,0.1,1,0,1.8h8.1c3.3,0,6.9,0,10.2,0
				c2.2-0.1,4.2,1.5,4.5,3.6c0,0.3,0,0.6,0,0.9c0,2.4,0.1,4.6,0,6.9c0.1,2.2-1.3,4.3-3.6,4.5c-0.3,0-0.6,0-0.9,0
				C51.5,39.3,45.5,39.3,39.2,39.3z"/>
			<path d="M39.2,39.3l0.1,16.9c0,0.6,0,1.2,0,1.8c0,2.1-1.8,3.9-4,4c-2.5,0.1-5.1,0-7.8,0c-2.4,0-4.2-1.8-4-4l0-0.3
				c0-5.4,0-10.8-0.1-16.3c0-0.6,0-1.2,0.1-1.9c-0.9,0-1.3-0.1-1.9-0.1H5.5c-2.2,0.4-4.5-1.2-4.9-3.4c-0.1-0.4-0.1-1,0-1.5
				c0-2.1-0.1-4.3,0-6.6c-0.1-2.2,1.5-4.2,3.6-4.5c0.3,0,0.6,0,0.9,0c5.4,0,10.8,0,16.4,0c0.7,0.1,1.3,0.1,2.1,0.3
				c0-1.5-0.1-2.5-0.1-3.7c0-5.1,0-9.9,0-14.9c-0.1-2.2,1.3-4.3,3.6-4.5c0.3,0,0.6,0,0.9,0c2.4,0,4.8,0,7,0.1
				c2.2-0.1,4.2,1.5,4.5,3.6c0,0.3,0,0.6,0,0.9c-0.1,5.5,0,11.1,0,16.4c0,0.6,0.1,1,0,1.8h8.1c3.3,0,6.9,0,10.2,0
				c2.2-0.1,4.2,1.5,4.5,3.6c0,0.3,0,0.6,0,0.9c0,2.4,0.1,4.6,0,6.9c0.1,2.2-1.3,4.3-3.6,4.5c-0.3,0-0.6,0-0.9,0
				C51.5,39.3,45.5,39.3,39.2,39.3z"/>
			<path class="st0" d="M31.3,4.9c14.6,0,26.5,11.8,26.5,26.5S45.9,57.8,31.3,57.8S4.8,46,4.8,31.4c0-0.1,0-0.1,0-0.2
				C4.9,16.6,16.7,5,31.3,4.9z"/>
			<path d="M31.3,4.9c14.6,0,26.5,11.8,26.5,26.5S45.9,57.8,31.3,57.8S4.8,46,4.8,31.4c0-0.1,0-0.1,0-0.2C4.9,16.6,16.7,5,31.3,4.9z
				 M54.3,31.4c0-12.8-10.4-23.1-23.2-23.1S8.1,18.6,8.1,31.4s10.4,23.1,23.1,23.1C44,54.5,54.3,44.1,54.3,31.4L54.3,31.4z"/>
			<path d="M31.3,35.8l-4.7,4.8c-0.2,0.2-0.3,0.3-0.5,0.5c-0.6,0.6-1.6,0.6-2.3,0c-0.8-0.7-1.4-1.4-2.2-2.2c-0.7-0.7-0.7-1.7,0-2.3
				l0.1-0.1c1.5-1.5,3-3,4.6-4.6c0.2-0.2,0.3-0.3,0.6-0.5c-0.3-0.3-0.3-0.4-0.5-0.6l-4.6-4.6c-0.8-0.5-0.9-1.6-0.4-2.4
				c0.1-0.2,0.3-0.3,0.4-0.4c0.6-0.6,1.2-1.3,1.9-1.9c0.6-0.7,1.6-0.8,2.3-0.3c0.1,0.1,0.2,0.2,0.3,0.3c1.5,1.5,3,3,4.6,4.6
				c0.2,0.3,0.3,0.4,0.5,0.7c0.4-0.4,0.7-0.8,1-1.1c1.4-1.4,2.8-2.8,4.2-4.2c0.6-0.7,1.6-0.8,2.3-0.3c0.1,0.1,0.2,0.2,0.3,0.3
				c0.7,0.7,1.4,1.4,1.9,2c0.7,0.6,0.8,1.6,0.3,2.3c-0.1,0.1-0.2,0.2-0.3,0.3c-1.6,1.5-3.1,3.1-4.6,4.6c-0.2,0.2-0.3,0.3-0.5,0.5
				l2.3,2.3c0.9,0.9,1.9,1.9,2.9,2.9c0.7,0.6,0.8,1.6,0.3,2.3C41.2,38.9,41.1,39,41,39c-0.7,0.7-1.3,1.4-1.9,1.9
				c-0.6,0.7-1.6,0.8-2.3,0.3c-0.1-0.1-0.2-0.2-0.3-0.3C34.7,39.3,33,37.6,31.3,35.8z"/>
		</g>
	</g>
</g>
</svg>
