<svg xmlns="http://www.w3.org/2000/svg" viewBox="0 0 99 147.23"><defs><style>.cls-1{fill:#16110d;}.cls-2{fill:#15100c;}.cls-3{fill:#febd33;}.cls-4{fill:#f9e8cc;}.cls-5{fill:#fbeacc;}.cls-6{fill:#140f0c;}.cls-7{fill:#fcebcc;}.cls-8{fill:#ffbe2e;}.cls-9{fill:#fdbc38;}.cls-10{fill:#fdeccc;}</style></defs><title>Guy</title><g id="Layer_2" data-name="Layer 2"><g id="Home"><g id="_Group_" data-name="&lt;Group&gt;"><g id="_Group_2" data-name="&lt;Group&gt;"><path id="_Path_" data-name="&lt;Path&gt;" class="cls-1" d="M43,94.24a.55.55,0,0,1,0,1,2,2,0,0,1-1.8,0,.55.55,0,0,1,0-1A2,2,0,0,1,43,94.24Z"/><path id="_Path_2" data-name="&lt;Path&gt;" class="cls-1" d="M47.65,91.53a.55.55,0,0,1,0,1,2,2,0,0,1-1.8,0,.55.55,0,0,1,0-1A2,2,0,0,1,47.65,91.53Z"/><path id="_Path_3" data-name="&lt;Path&gt;" class="cls-1" d="M52.35,88.82a.55.55,0,0,1,0,1,2,2,0,0,1-1.8,0,.55.55,0,0,1,0-1A2,2,0,0,1,52.35,88.82Z"/><path id="_Path_4" data-name="&lt;Path&gt;" class="cls-1" d="M57,86.11a.55.55,0,0,1,0,1,2,2,0,0,1-1.8,0,.55.55,0,0,1,0-1A2,2,0,0,1,57,86.11Z"/><path id="_Path_5" data-name="&lt;Path&gt;" class="cls-1" d="M33.56,94.24a.55.55,0,0,1,0,1,2,2,0,0,1-1.8,0,.55.55,0,0,1,0-1A2,2,0,0,1,33.56,94.24Z"/><path id="_Path_6" data-name="&lt;Path&gt;" class="cls-1" d="M38.26,91.53a.55.55,0,0,1,0,1,2,2,0,0,1-1.8,0,.55.55,0,0,1,0-1A2,2,0,0,1,38.26,91.53Z"/><path id="_Path_7" data-name="&lt;Path&gt;" class="cls-1" d="M43,88.82a.55.55,0,0,1,0,1,2,2,0,0,1-1.8,0,.55.55,0,0,1,0-1A2,2,0,0,1,43,88.82Z"/><path id="_Path_8" data-name="&lt;Path&gt;" class="cls-1" d="M47.65,86.11a.55.55,0,0,1,0,1,2,2,0,0,1-1.8,0,.55.55,0,0,1,0-1A2,2,0,0,1,47.65,86.11Z"/><path id="_Path_9" data-name="&lt;Path&gt;" class="cls-1" d="M52.35,83.39a.55.55,0,0,1,0,1,2,2,0,0,1-1.8,0,.55.55,0,0,1,0-1A2,2,0,0,1,52.35,83.39Z"/><path id="_Path_10" data-name="&lt;Path&gt;" class="cls-1" d="M57,80.68a.55.55,0,0,1,0,1,2,2,0,0,1-1.8,0,.55.55,0,0,1,0-1A2,2,0,0,1,57,80.68Z"/><path id="_Path_11" data-name="&lt;Path&gt;" class="cls-1" d="M28.87,91.53a.55.55,0,0,1,0,1,2,2,0,0,1-1.8,0,.55.55,0,0,1,0-1A2,2,0,0,1,28.87,91.53Z"/><path id="_Path_12" data-name="&lt;Path&gt;" class="cls-1" d="M33.56,88.82a.55.55,0,0,1,0,1,2,2,0,0,1-1.8,0,.55.55,0,0,1,0-1A2,2,0,0,1,33.56,88.82Z"/><path id="_Path_13" data-name="&lt;Path&gt;" class="cls-1" d="M38.26,86.11a.55.55,0,0,1,0,1,2,2,0,0,1-1.8,0,.55.55,0,0,1,0-1A2,2,0,0,1,38.26,86.11Z"/><path id="_Path_14" data-name="&lt;Path&gt;" class="cls-1" d="M43,83.39a.55.55,0,0,1,0,1,2,2,0,0,1-1.8,0,.55.55,0,0,1,0-1A2,2,0,0,1,43,83.39Z"/><path id="_Path_15" data-name="&lt;Path&gt;" class="cls-1" d="M47.65,80.68a.55.55,0,0,1,0,1,2,2,0,0,1-1.8,0,.55.55,0,0,1,0-1A2,2,0,0,1,47.65,80.68Z"/><path id="_Path_16" data-name="&lt;Path&gt;" class="cls-1" d="M52.35,78a.55.55,0,0,1,0,1,2,2,0,0,1-1.8,0,.55.55,0,0,1,0-1A2,2,0,0,1,52.35,78Z"/><path id="_Path_17" data-name="&lt;Path&gt;" class="cls-1" d="M24.13,88.79a.55.55,0,0,1,0,1,2,2,0,0,1-1.8,0,.55.55,0,0,1,0-1A2,2,0,0,1,24.13,88.79Z"/><path id="_Path_18" data-name="&lt;Path&gt;" class="cls-1" d="M28.82,86.08a.55.55,0,0,1,0,1,2,2,0,0,1-1.8,0,.55.55,0,0,1,0-1A2,2,0,0,1,28.82,86.08Z"/><path id="_Path_19" data-name="&lt;Path&gt;" class="cls-1" d="M33.52,83.37a.55.55,0,0,1,0,1,2,2,0,0,1-1.8,0,.55.55,0,0,1,0-1A2,2,0,0,1,33.52,83.37Z"/><path id="_Path_20" data-name="&lt;Path&gt;" class="cls-1" d="M38.22,80.65a.55.55,0,0,1,0,1,2,2,0,0,1-1.8,0,.55.55,0,0,1,0-1A2,2,0,0,1,38.22,80.65Z"/><path id="_Path_21" data-name="&lt;Path&gt;" class="cls-1" d="M42.91,77.94a.55.55,0,0,1,0,1,2,2,0,0,1-1.8,0,.55.55,0,0,1,0-1A2,2,0,0,1,42.91,77.94Z"/><path id="_Path_22" data-name="&lt;Path&gt;" class="cls-1" d="M47.61,75.23a.55.55,0,0,1,0,1,2,2,0,0,1-1.8,0,.55.55,0,0,1,0-1A2,2,0,0,1,47.61,75.23Z"/><path id="_Path_23" data-name="&lt;Path&gt;" class="cls-1" d="M19.43,86.08a.55.55,0,0,1,0,1,2,2,0,0,1-1.8,0,.55.55,0,0,1,0-1A2,2,0,0,1,19.43,86.08Z"/><path id="_Path_24" data-name="&lt;Path&gt;" class="cls-1" d="M24.13,83.37a.55.55,0,0,1,0,1,2,2,0,0,1-1.8,0,.55.55,0,0,1,0-1A2,2,0,0,1,24.13,83.37Z"/><path id="_Path_25" data-name="&lt;Path&gt;" class="cls-1" d="M28.82,80.65a.55.55,0,0,1,0,1,2,2,0,0,1-1.8,0,.55.55,0,0,1,0-1A2,2,0,0,1,28.82,80.65Z"/><path id="_Path_26" data-name="&lt;Path&gt;" class="cls-1" d="M33.52,77.94a.55.55,0,0,1,0,1,2,2,0,0,1-1.8,0,.55.55,0,0,1,0-1A2,2,0,0,1,33.52,77.94Z"/><path id="_Path_27" data-name="&lt;Path&gt;" class="cls-1" d="M38.22,75.23a.55.55,0,0,1,0,1,2,2,0,0,1-1.8,0,.55.55,0,0,1,0-1A2,2,0,0,1,38.22,75.23Z"/><path id="_Path_28" data-name="&lt;Path&gt;" class="cls-1" d="M42.91,72.52a.55.55,0,0,1,0,1,2,2,0,0,1-1.8,0,.55.55,0,0,1,0-1A2,2,0,0,1,42.91,72.52Z"/><path id="_Path_29" data-name="&lt;Path&gt;" class="cls-1" d="M19.43,80.65a.55.55,0,0,1,0,1,2,2,0,0,1-1.8,0,.55.55,0,0,1,0-1A2,2,0,0,1,19.43,80.65Z"/><path id="_Path_30" data-name="&lt;Path&gt;" class="cls-1" d="M24.13,77.94a.55.55,0,0,1,0,1,2,2,0,0,1-1.8,0,.55.55,0,0,1,0-1A2,2,0,0,1,24.13,77.94Z"/><path id="_Path_31" data-name="&lt;Path&gt;" class="cls-1" d="M28.82,75.23a.55.55,0,0,1,0,1,2,2,0,0,1-1.8,0,.55.55,0,0,1,0-1A2,2,0,0,1,28.82,75.23Z"/><path id="_Path_32" data-name="&lt;Path&gt;" class="cls-1" d="M33.52,72.52a.55.55,0,0,1,0,1,2,2,0,0,1-1.8,0,.55.55,0,0,1,0-1A2,2,0,0,1,33.52,72.52Z"/><path id="_Path_33" data-name="&lt;Path&gt;" class="cls-1" d="M38.22,69.81a.55.55,0,0,1,0,1,2,2,0,0,1-1.8,0,.55.55,0,0,1,0-1A2,2,0,0,1,38.22,69.81Z"/></g><g id="_Group_3" data-name="&lt;Group&gt;"><g id="_Group_4" data-name="&lt;Group&gt;"><g id="_Group_5" data-name="&lt;Group&gt;"><path id="_Path_34" data-name="&lt;Path&gt;" class="cls-2" d="M43.47,79.71a.4.4,0,0,0-.4-.39H41.91l-.17-.11a9.39,9.39,0,0,0-8.49,0l-.17.11H31.89a.4.4,0,0,0-.4.4v1.94c0,1.29,1.24,2.58,3.71,3.22a9.14,9.14,0,0,0,4.6,0c2.47-.64,3.71-1.93,3.71-3.22Z"/><path id="_Compound_Path_" data-name="&lt;Compound Path&gt;" class="cls-1" d="M37.49,85.6a9.59,9.59,0,0,1-2.41-.31c-2.52-.66-4-2-4-3.64V79.71a.83.83,0,0,1,.83-.83h1.06l.09-.05a9.88,9.88,0,0,1,8.92,0l.09.05h1a.83.83,0,0,1,.83.81l0,1.95c0,1.63-1.51,3-4,3.64A9.59,9.59,0,0,1,37.49,85.6Zm-5.61-5.86,0,1.91c0,1.19,1.3,2.26,3.39,2.81a8.68,8.68,0,0,0,4.38,0c2.09-.55,3.39-1.62,3.39-2.81l0-1.91H41.79l-.26-.17a8.92,8.92,0,0,0-8.06,0l-.39.17Z"/></g><g id="_Group_6" data-name="&lt;Group&gt;"><path id="_Path_35" data-name="&lt;Path&gt;" class="cls-3" d="M41.74,82.12a9.39,9.39,0,0,1-8.49,0c-2.34-1.35-2.34-3.55,0-4.9a9.38,9.38,0,0,1,8.49,0C44.09,78.57,44.09,80.77,41.74,82.12Z"/><path id="_Path_36" data-name="&lt;Path&gt;" class="cls-4" d="M41.88,78.9a9.38,9.38,0,0,0-8.49,0,3.55,3.55,0,0,0-1.55,1.6,3.55,3.55,0,0,0,1.55,1.6,9.39,9.39,0,0,0,8.49,0,3.55,3.55,0,0,0,1.55-1.6A3.55,3.55,0,0,0,41.88,78.9Z"/><path id="_Compound_Path_2" data-name="&lt;Compound Path&gt;" class="cls-1" d="M37.49,83.56A9.13,9.13,0,0,1,33,82.5a3,3,0,0,1,0-5.64,9.88,9.88,0,0,1,8.92,0,3,3,0,0,1,0,5.64h0A9.13,9.13,0,0,1,37.49,83.56Zm0-6.93a8.24,8.24,0,0,0-4,1,2.17,2.17,0,0,0,0,4.16,8.93,8.93,0,0,0,8.06,0h0a2.17,2.17,0,0,0,0-4.16A8.24,8.24,0,0,0,37.49,76.63Z"/></g></g><g id="_Group_7" data-name="&lt;Group&gt;"><rect id="_Rectangle_" data-name="&lt;Rectangle&gt;" class="cls-2" x="36.37" y="22.93" width="2.25" height="56.84" rx="1.12" ry="1.12"/><path id="_Compound_Path_3" data-name="&lt;Compound Path&gt;" class="cls-1" d="M37.49,80.19a1.55,1.55,0,0,1-1.55-1.55V24.05a1.55,1.55,0,1,1,3.1,0V78.64A1.55,1.55,0,0,1,37.49,80.19Zm0-56.84a.7.7,0,0,0-.7.7V78.64a.7.7,0,0,0,1.39,0V24.05A.7.7,0,0,0,37.49,23.36Z"/></g></g><g id="_Group_8" data-name="&lt;Group&gt;"><g id="_Group_9" data-name="&lt;Group&gt;"><path id="_Compound_Path_4" data-name="&lt;Compound Path&gt;" class="cls-3" d="M64.08,41.42l-.19,0a110.6,110.6,0,0,0-13.14,2.89c-8.07,2.21-13.16,3.75-13.21,3.76l-.11,0-.11,0s-4.18-1.56-12.56-3.87-13-3.18-13-3.19l-.17,0-.07-.15a85.19,85.19,0,0,0-5.14-8.71C2.93,26.85,1,24.22.77,24l-.2-.22.19-.23c0-.05,4.43-5.33,7.42-10,2.63-4.06,3.29-5.79,3.31-6.07V7.44l.2-.3.13,0c.1,0,9.93-2.32,16.42-3.94S38,.56,38,.55l.1,0,.1,0S41.79,1.76,47,3.18,63.73,7.59,63.85,7.62l.13,0,4.4,7.12c3.09,5,6.44,9.86,6.48,9.91l.16.23-.2.2a48.72,48.72,0,0,0-5.6,7,62.68,62.68,0,0,0-5.06,9.08Z"/><path id="_Compound_Path_5" data-name="&lt;Compound Path&gt;" class="cls-5" d="M65.17,42.36l-.18,0a107.4,107.4,0,0,0-12.75,2.8c-7.83,2.14-12.78,3.64-12.83,3.65l-.11,0-.1,0S35.13,47.31,27,45.07,14.43,42,14.39,42l-.16,0-.07-.15a82.72,82.72,0,0,0-5-8.45c-3.35-5.12-5.24-7.68-5.45-7.91l-.19-.21L3.7,25c0-.05,4.3-5.17,7.2-9.66,2.55-3.94,3.19-5.62,3.22-5.89V9.37l.19-.29.13,0c.1,0,9.63-2.25,15.94-3.82S39.87,2.7,39.9,2.69l.1,0,.1,0s3.43,1.17,8.47,2.55,16.26,4.28,16.37,4.3l.13,0,4.27,6.91c3,4.86,6.26,9.57,6.29,9.62l.16.23-.2.19a47.3,47.3,0,0,0-5.43,6.84,60.86,60.86,0,0,0-4.91,8.82Z"/><path id="_Compound_Path_6" data-name="&lt;Compound Path&gt;" class="cls-1" d="M37.42,48.58l-.24-.09c-.18-.07-4.36-1.61-12.52-3.86-8.42-2.32-12.92-3.17-13-3.18l-.38-.07L11.14,41A84.77,84.77,0,0,0,6,32.37C2.64,27.19.65,24.5.45,24.28L0,23.78l.43-.51c.18-.22,4.47-5.4,7.39-9.92s3.24-5.87,3.25-5.88l.08-.28.29-.44.29-.07c2.49-.58,10.72-2.51,16.42-3.93C34.59,1.15,37.89.15,37.92.14l.24-.07.23.08c.38.13,3.78,1.27,8.7,2.62C52.38,4.22,63.87,7.18,63.95,7.2l.3.08,4.49,7.27c3,4.91,6.33,9.69,6.46,9.89l.37.53-.46.45a48.89,48.89,0,0,0-5.54,7,61.9,61.9,0,0,0-5,9l-.17.4-.43.06a110.5,110.5,0,0,0-13.08,2.87c-7.72,2.11-12.66,3.59-13.2,3.76Zm-25.53-8c.49.1,5,1,13,3.19s12.17,3.73,12.56,3.87c.68-.21,5.6-1.68,13.2-3.76A113.08,113.08,0,0,1,63.78,41a63.06,63.06,0,0,1,5.08-9.11,50.51,50.51,0,0,1,5.6-7.06C74,24.25,70.9,19.68,68,15L63.7,8C63,7.85,51.95,5,46.86,3.59,42,2.26,38.6,1.12,38.14,1c-.34.1-3.58,1.07-9.79,2.62C22.65,5,14.41,6.94,12,7.5l-.06,0-.05.08c-.14.64-1,2.5-3.37,6.22-2.82,4.36-6.89,9.32-7.4,9.94.39.47,2.29,3.06,5.61,8.14A86.47,86.47,0,0,1,11.89,40.62Z"/></g><g id="_Group_10" data-name="&lt;Group&gt;"><path id="_Path_37" data-name="&lt;Path&gt;" class="cls-2" d="M11.71,41c.12,0,4.64.88,13,3.19s12.59,3.88,12.59,3.88l.39-.25h0L37.69,6Z"/><path id="_Compound_Path_7" data-name="&lt;Compound Path&gt;" class="cls-1" d="M37.38,48.56l-.2-.08S33,46.93,24.62,44.62s-12.7-3.15-12.94-3.18l-.31-.68h0L38.11,4.68l0,43.72-.36-.1-.23.15ZM12.47,40.72c1.69.34,6,1.33,12.38,3.08,7.38,2,11.49,3.48,12.42,3.82h0l0-40.33Z"/></g><g id="_Group_11" data-name="&lt;Group&gt;"><path id="_Path_38" data-name="&lt;Path&gt;" class="cls-2" d="M64.08,41.42a83.36,83.36,0,0,1,5.39-9.3A45.07,45.07,0,0,1,75.08,25L38.23,5.83a0,0,0,0,0,0,0L63.88,41.17h0Z"/><path id="_Compound_Path_8" data-name="&lt;Compound Path&gt;" class="cls-1" d="M64.16,42.25l-.25-.34h0l-.37-.49L37.66,5.84l.44-.54.33.15L75.88,25l-.53.41a45.7,45.7,0,0,0-5.52,7,83.77,83.77,0,0,0-5.36,9.25Zm-.23-1.75.09.11a85.39,85.39,0,0,1,5.11-8.73,53.14,53.14,0,0,1,5.24-6.73L39.57,7Z"/></g><g id="_Group_12" data-name="&lt;Group&gt;"><path id="_Path_39" data-name="&lt;Path&gt;" class="cls-2" d="M8.13,13.71A115.43,115.43,0,0,1,1,23.36a.08.08,0,0,0,.1.12L37.5,5.62l-26,1.82S11.17,9,8.13,13.71Z"/><path id="_Compound_Path_9" data-name="&lt;Compound Path&gt;" class="cls-1" d="M1,24l-.31-.3a.5.5,0,0,1,0-.63,115.84,115.84,0,0,0,7.11-9.6h0C10.69,9,11.07,7.36,11.08,7.35L11.15,7l.32,0L39.65,5ZM8.49,13.94h0c-2,3-4.54,6.42-6.16,8.44l33-16.19L11.82,7.84a31.33,31.33,0,0,1-3.33,6.1Z"/></g><g id="_Group_13" data-name="&lt;Group&gt;"><path id="_Path_40" data-name="&lt;Path&gt;" class="cls-2" d="M46.71,3.18C41.57,1.76,38.29.59,38.15.52L38,.67l-.15,4.62L64,7.65h0C63.18,7.49,51.79,4.57,46.71,3.18Z"/><path id="_Compound_Path_10" data-name="&lt;Compound Path&gt;" class="cls-1" d="M63.94,8.08,37.39,5.68,37.56.47,38.09,0l.26.14c.15.07,3.26,1.19,8.47,2.62S63.34,7.08,64.06,7.23ZM38.27,4.9l20.3,1.83c-3.93-1-9.06-2.34-12-3.14h0c-4.06-1.12-7.1-2.12-8.2-2.52Z"/></g></g></g><g id="_Group_14" data-name="&lt;Group&gt;"><g id="_Group_15" data-name="&lt;Group&gt;"><path id="_Path_41" data-name="&lt;Path&gt;" class="cls-1" d="M81.08,111a.56.56,0,0,1,0,1.06,2,2,0,0,1-1.83,0,.56.56,0,0,1,0-1.06A2,2,0,0,1,81.08,111Z"/><path id="_Path_42" data-name="&lt;Path&gt;" class="cls-1" d="M85.87,108.22a.56.56,0,0,1,0,1.06,2,2,0,0,1-1.83,0,.56.56,0,0,1,0-1.06A2,2,0,0,1,85.87,108.22Z"/><path id="_Path_43" data-name="&lt;Path&gt;" class="cls-1" d="M90.66,105.46a.56.56,0,0,1,0,1.06,2,2,0,0,1-1.83,0,.56.56,0,0,1,0-1.06A2,2,0,0,1,90.66,105.46Z"/><path id="_Path_44" data-name="&lt;Path&gt;" class="cls-1" d="M95.46,102.69a.56.56,0,0,1,0,1.06,2,2,0,0,1-1.83,0,.56.56,0,0,1,0-1.06A2,2,0,0,1,95.46,102.69Z"/><path id="_Path_45" data-name="&lt;Path&gt;" class="cls-1" d="M71.5,111a.56.56,0,0,1,0,1.06,2,2,0,0,1-1.83,0,.56.56,0,0,1,0-1.06A2,2,0,0,1,71.5,111Z"/><path id="_Path_46" data-name="&lt;Path&gt;" class="cls-1" d="M76.29,108.22a.56.56,0,0,1,0,1.06,2,2,0,0,1-1.83,0,.56.56,0,0,1,0-1.06A2,2,0,0,1,76.29,108.22Z"/><path id="_Path_47" data-name="&lt;Path&gt;" class="cls-1" d="M81.08,105.46a.56.56,0,0,1,0,1.06,2,2,0,0,1-1.83,0,.56.56,0,0,1,0-1.06A2,2,0,0,1,81.08,105.46Z"/><path id="_Path_48" data-name="&lt;Path&gt;" class="cls-1" d="M85.87,102.69a.56.56,0,0,1,0,1.06,2,2,0,0,1-1.83,0,.56.56,0,0,1,0-1.06A2,2,0,0,1,85.87,102.69Z"/><path id="_Path_49" data-name="&lt;Path&gt;" class="cls-1" d="M90.66,99.92a.56.56,0,0,1,0,1.06,2,2,0,0,1-1.83,0,.56.56,0,0,1,0-1.06A2,2,0,0,1,90.66,99.92Z"/><path id="_Path_50" data-name="&lt;Path&gt;" class="cls-1" d="M95.46,97.16a.56.56,0,0,1,0,1.06,2,2,0,0,1-1.83,0,.56.56,0,0,1,0-1.06A2,2,0,0,1,95.46,97.16Z"/><path id="_Path_51" data-name="&lt;Path&gt;" class="cls-1" d="M66.7,108.22a.56.56,0,0,1,0,1.06,2,2,0,0,1-1.83,0,.56.56,0,0,1,0-1.06A2,2,0,0,1,66.7,108.22Z"/><path id="_Path_52" data-name="&lt;Path&gt;" class="cls-1" d="M71.5,105.46a.56.56,0,0,1,0,1.06,2,2,0,0,1-1.83,0,.56.56,0,0,1,0-1.06A2,2,0,0,1,71.5,105.46Z"/><path id="_Path_53" data-name="&lt;Path&gt;" class="cls-1" d="M76.29,102.69a.56.56,0,0,1,0,1.06,2,2,0,0,1-1.83,0,.56.56,0,0,1,0-1.06A2,2,0,0,1,76.29,102.69Z"/><path id="_Path_54" data-name="&lt;Path&gt;" class="cls-1" d="M81.08,99.92a.56.56,0,0,1,0,1.06,2,2,0,0,1-1.83,0,.56.56,0,0,1,0-1.06A2,2,0,0,1,81.08,99.92Z"/><path id="_Path_55" data-name="&lt;Path&gt;" class="cls-1" d="M85.87,97.16a.56.56,0,0,1,0,1.06,2,2,0,0,1-1.83,0,.56.56,0,0,1,0-1.06A2,2,0,0,1,85.87,97.16Z"/><path id="_Path_56" data-name="&lt;Path&gt;" class="cls-1" d="M90.66,94.39a.56.56,0,0,1,0,1.06,2,2,0,0,1-1.83,0,.56.56,0,0,1,0-1.06A2,2,0,0,1,90.66,94.39Z"/><path id="_Path_57" data-name="&lt;Path&gt;" class="cls-1" d="M61.91,105.46a.56.56,0,0,1,0,1.06,2,2,0,0,1-1.83,0,.56.56,0,0,1,0-1.06A2,2,0,0,1,61.91,105.46Z"/><path id="_Path_58" data-name="&lt;Path&gt;" class="cls-1" d="M66.7,102.69a.56.56,0,0,1,0,1.06,2,2,0,0,1-1.83,0,.56.56,0,0,1,0-1.06A2,2,0,0,1,66.7,102.69Z"/><path id="_Path_59" data-name="&lt;Path&gt;" class="cls-1" d="M71.5,99.92a.56.56,0,0,1,0,1.06,2,2,0,0,1-1.83,0,.56.56,0,0,1,0-1.06A2,2,0,0,1,71.5,99.92Z"/><path id="_Path_60" data-name="&lt;Path&gt;" class="cls-1" d="M76.29,97.16a.56.56,0,0,1,0,1.06,2,2,0,0,1-1.83,0,.56.56,0,0,1,0-1.06A2,2,0,0,1,76.29,97.16Z"/><path id="_Path_61" data-name="&lt;Path&gt;" class="cls-1" d="M81.08,94.39a.56.56,0,0,1,0,1.06,2,2,0,0,1-1.83,0,.56.56,0,0,1,0-1.06A2,2,0,0,1,81.08,94.39Z"/><path id="_Path_62" data-name="&lt;Path&gt;" class="cls-1" d="M85.87,91.62a.56.56,0,0,1,0,1.06,2,2,0,0,1-1.83,0,.56.56,0,0,1,0-1.06A2,2,0,0,1,85.87,91.62Z"/><path id="_Path_63" data-name="&lt;Path&gt;" class="cls-1" d="M57.08,102.66a.56.56,0,0,1,0,1.06,2,2,0,0,1-1.83,0,.56.56,0,0,1,0-1.06A2,2,0,0,1,57.08,102.66Z"/><path id="_Path_64" data-name="&lt;Path&gt;" class="cls-1" d="M61.87,99.89a.56.56,0,0,1,0,1.06A2,2,0,0,1,60,101a.56.56,0,0,1,0-1.06A2,2,0,0,1,61.87,99.89Z"/><path id="_Path_65" data-name="&lt;Path&gt;" class="cls-1" d="M66.66,97.13a.56.56,0,0,1,0,1.06,2,2,0,0,1-1.83,0,.56.56,0,0,1,0-1.06A2,2,0,0,1,66.66,97.13Z"/><path id="_Path_66" data-name="&lt;Path&gt;" class="cls-1" d="M71.45,94.36a.56.56,0,0,1,0,1.06,2,2,0,0,1-1.83,0,.56.56,0,0,1,0-1.06A2,2,0,0,1,71.45,94.36Z"/><path id="_Path_67" data-name="&lt;Path&gt;" class="cls-1" d="M76.25,91.59a.56.56,0,0,1,0,1.06,2,2,0,0,1-1.83,0,.56.56,0,0,1,0-1.06A2,2,0,0,1,76.25,91.59Z"/><path id="_Path_68" data-name="&lt;Path&gt;" class="cls-1" d="M81,88.83a.56.56,0,0,1,0,1.06,2,2,0,0,1-1.83,0,.56.56,0,0,1,0-1.06A2,2,0,0,1,81,88.83Z"/><path id="_Path_69" data-name="&lt;Path&gt;" class="cls-1" d="M52.29,99.89a.56.56,0,0,1,0,1.06,2,2,0,0,1-1.83,0,.56.56,0,0,1,0-1.06A2,2,0,0,1,52.29,99.89Z"/><path id="_Path_70" data-name="&lt;Path&gt;" class="cls-1" d="M57.08,97.13a.56.56,0,0,1,0,1.06,2,2,0,0,1-1.83,0,.56.56,0,0,1,0-1.06A2,2,0,0,1,57.08,97.13Z"/><path id="_Path_71" data-name="&lt;Path&gt;" class="cls-1" d="M61.87,94.36a.56.56,0,0,1,0,1.06,2,2,0,0,1-1.83,0,.56.56,0,0,1,0-1.06A2,2,0,0,1,61.87,94.36Z"/><path id="_Path_72" data-name="&lt;Path&gt;" class="cls-1" d="M66.66,91.59a.56.56,0,0,1,0,1.06,2,2,0,0,1-1.83,0,.56.56,0,0,1,0-1.06A2,2,0,0,1,66.66,91.59Z"/><path id="_Path_73" data-name="&lt;Path&gt;" class="cls-1" d="M71.45,88.83a.56.56,0,0,1,0,1.06,2,2,0,0,1-1.83,0,.56.56,0,0,1,0-1.06A2,2,0,0,1,71.45,88.83Z"/><path id="_Path_74" data-name="&lt;Path&gt;" class="cls-1" d="M76.25,86.06a.56.56,0,0,1,0,1.06,2,2,0,0,1-1.83,0,.56.56,0,0,1,0-1.06A2,2,0,0,1,76.25,86.06Z"/><path id="_Path_75" data-name="&lt;Path&gt;" class="cls-1" d="M52.29,94.36a.56.56,0,0,1,0,1.06,2,2,0,0,1-1.83,0,.56.56,0,0,1,0-1.06A2,2,0,0,1,52.29,94.36Z"/><path id="_Path_76" data-name="&lt;Path&gt;" class="cls-1" d="M57.08,91.59a.56.56,0,0,1,0,1.06,2,2,0,0,1-1.83,0,.56.56,0,0,1,0-1.06A2,2,0,0,1,57.08,91.59Z"/><path id="_Path_77" data-name="&lt;Path&gt;" class="cls-1" d="M61.87,88.83a.56.56,0,0,1,0,1.06,2,2,0,0,1-1.83,0,.56.56,0,0,1,0-1.06A2,2,0,0,1,61.87,88.83Z"/><path id="_Path_78" data-name="&lt;Path&gt;" class="cls-1" d="M66.66,86.06a.56.56,0,0,1,0,1.06,2,2,0,0,1-1.83,0,.56.56,0,0,1,0-1.06A2,2,0,0,1,66.66,86.06Z"/><path id="_Path_79" data-name="&lt;Path&gt;" class="cls-1" d="M71.45,83.29a.56.56,0,0,1,0,1.06,2,2,0,0,1-1.83,0,.56.56,0,0,1,0-1.06A2,2,0,0,1,71.45,83.29Z"/><path id="_Path_80" data-name="&lt;Path&gt;" class="cls-1" d="M52.29,88.83a.56.56,0,0,1,0,1.06,2,2,0,0,1-1.83,0,.56.56,0,0,1,0-1.06A2,2,0,0,1,52.29,88.83Z"/><path id="_Path_81" data-name="&lt;Path&gt;" class="cls-1" d="M57.08,86.06a.56.56,0,0,1,0,1.06,2,2,0,0,1-1.83,0,.56.56,0,0,1,0-1.06A2,2,0,0,1,57.08,86.06Z"/><path id="_Path_82" data-name="&lt;Path&gt;" class="cls-1" d="M61.87,83.29a.56.56,0,0,1,0,1.06,2,2,0,0,1-1.83,0,.56.56,0,0,1,0-1.06A2,2,0,0,1,61.87,83.29Z"/><path id="_Path_83" data-name="&lt;Path&gt;" class="cls-1" d="M66.66,80.53a.56.56,0,0,1,0,1.06,2,2,0,0,1-1.83,0,.56.56,0,0,1,0-1.06A2,2,0,0,1,66.66,80.53Z"/></g><g id="_Group_16" data-name="&lt;Group&gt;"><g id="_3" data-name="3"><g id="_Group_17" data-name="&lt;Group&gt;"><g id="_Group_18" data-name="&lt;Group&gt;"><path id="_Compound_Path_11" data-name="&lt;Compound Path&gt;" class="cls-5" d="M79.8,96.73,53.5,93.1,71.35,82.71l26.36,3.84ZM59.14,92l20.29,2.8L92,87.62l-20.31-3Z"/><path id="_Compound_Path_12" data-name="&lt;Compound Path&gt;" class="cls-6" d="M79.88,97.17l-.14,0-27.52-3.8,19-11.09,27.73,4ZM54.78,92.85l24.94,3.44,16.71-9.5-25-3.64Zm24.73,2.38-.14,0-21.51-3,13.78-8,21.68,3.16ZM60.42,91.73l18.92,2.61,11.41-6.49L71.81,85.1Z"/></g></g><g id="_Group_19" data-name="&lt;Group&gt;"><g id="_Group_20" data-name="&lt;Group&gt;"><path id="_Compound_Path_13" data-name="&lt;Compound Path&gt;" class="cls-5" d="M74.25,104.93,53.95,66.1l16.74-9.56,19.64,39.1ZM56.44,66.84,75,102.33,87.86,94.9l-18-35.76Z"/><path id="_Compound_Path_14" data-name="&lt;Compound Path&gt;" class="cls-6" d="M74.08,105.52l-.21-.39L53.38,65.94l17.49-10,.2.4L90.88,95.81ZM54.51,66.27l19.91,38.07,15.34-8.86L70.51,57.13Zm20.33,36.65-.21-.39L55.88,66.67l14.2-8.11.2.4L88.42,95.07ZM57,67l18.17,34.73,12.11-7-17.57-35Z"/></g></g><g id="_Group_21" data-name="&lt;Group&gt;"><path id="_Path_84" data-name="&lt;Path&gt;" class="cls-3" d="M57.92,66S56.8,79.91,63.28,86.65c5.49,5.72,16.53,7.92,16.53,7.92l12.23-7s-12.61-.88-18.28-8.67c-5-6.81-3.86-19.8-3.86-19.8Z"/><path id="_Path_85" data-name="&lt;Path&gt;" class="cls-7" d="M71.52,80.83A21.48,21.48,0,0,1,68.19,72l-9.57,5.4a19.1,19.1,0,0,0,4.75,9.53c5.49,5.72,16.83,7.43,16.83,7.43l9-4.91S77.19,88.61,71.52,80.83Z"/><path id="_Compound_Path_15" data-name="&lt;Compound Path&gt;" class="cls-6" d="M79.88,95l-.16,0c-.46-.09-11.24-2.29-16.75-8-6.53-6.8-5.52-20.41-5.47-21l0-.22,12.88-7.36-.07.81c0,.13-1,12.91,3.78,19.51,5.48,7.53,17.84,8.49,18,8.5l1.4.1ZM58.33,66.25c-.1,1.8-.57,14,5.25,20.11,5,5.19,14.81,7.47,16.16,7.76L90.68,87.9c-3.43-.46-12.58-2.26-17.27-8.7-4.34-6-4.14-16.32-4-19.29Z"/></g><polygon id="_Path_86" data-name="&lt;Path&gt;" class="cls-5" points="56.44 66.84 55.45 68.98 71.8 100.24 73.11 98.69 56.44 66.84"/></g><g id="_Group_22" data-name="&lt;Group&gt;"><polygon id="_Path_87" data-name="&lt;Path&gt;" class="cls-6" points="71.2 98.25 71.22 98.22 56.55 70.16 55.42 68.02 54.97 68.99 71.72 101 72.3 100.31 71.2 98.25"/><polygon id="_Path_88" data-name="&lt;Path&gt;" class="cls-6" points="71.95 97.4 73.02 99.45 73.62 98.75 56.62 66.25 55.99 66.8 56.86 68.55 71.95 97.4"/></g></g></g><line id="_Path_89" data-name="&lt;Path&gt;" class="cls-8" x1="27.9" y1="82.56" x2="32.18" y2="84.81"/><g id="_Group_23" data-name="&lt;Group&gt;"><g id="_Group_24" data-name="&lt;Group&gt;"><path id="_Path_90" data-name="&lt;Path&gt;" class="cls-1" d="M26.78,146.28a.42.42,0,0,1,0,.79,1.51,1.51,0,0,1-1.37,0,.42.42,0,0,1,0-.79A1.51,1.51,0,0,1,26.78,146.28Z"/><path id="_Path_91" data-name="&lt;Path&gt;" class="cls-1" d="M30.35,144.22a.42.42,0,0,1,0,.79A1.51,1.51,0,0,1,29,145a.42.42,0,0,1,0-.79A1.51,1.51,0,0,1,30.35,144.22Z"/><path id="_Path_92" data-name="&lt;Path&gt;" class="cls-1" d="M33.93,142.15a.42.42,0,0,1,0,.79,1.51,1.51,0,0,1-1.37,0,.42.42,0,0,1,0-.79A1.51,1.51,0,0,1,33.93,142.15Z"/><path id="_Path_93" data-name="&lt;Path&gt;" class="cls-1" d="M19.63,146.28a.42.42,0,0,1,0,.79,1.51,1.51,0,0,1-1.37,0,.42.42,0,0,1,0-.79A1.51,1.51,0,0,1,19.63,146.28Z"/><path id="_Path_94" data-name="&lt;Path&gt;" class="cls-1" d="M23.2,144.22a.42.42,0,0,1,0,.79,1.51,1.51,0,0,1-1.37,0,.42.42,0,0,1,0-.79A1.51,1.51,0,0,1,23.2,144.22Z"/><path id="_Path_95" data-name="&lt;Path&gt;" class="cls-1" d="M26.78,142.15a.42.42,0,0,1,0,.79,1.51,1.51,0,0,1-1.37,0,.42.42,0,0,1,0-.79A1.51,1.51,0,0,1,26.78,142.15Z"/><path id="_Path_96" data-name="&lt;Path&gt;" class="cls-1" d="M30.35,140.09a.42.42,0,0,1,0,.79,1.51,1.51,0,0,1-1.37,0,.42.42,0,0,1,0-.79A1.51,1.51,0,0,1,30.35,140.09Z"/><path id="_Path_97" data-name="&lt;Path&gt;" class="cls-1" d="M33.93,138a.42.42,0,0,1,0,.79,1.51,1.51,0,0,1-1.37,0,.42.42,0,0,1,0-.79A1.51,1.51,0,0,1,33.93,138Z"/><path id="_Path_98" data-name="&lt;Path&gt;" class="cls-1" d="M16.05,144.22a.42.42,0,0,1,0,.79,1.51,1.51,0,0,1-1.37,0,.42.42,0,0,1,0-.79A1.51,1.51,0,0,1,16.05,144.22Z"/><path id="_Path_99" data-name="&lt;Path&gt;" class="cls-1" d="M19.63,142.15a.42.42,0,0,1,0,.79,1.51,1.51,0,0,1-1.37,0,.42.42,0,0,1,0-.79A1.51,1.51,0,0,1,19.63,142.15Z"/><path id="_Path_100" data-name="&lt;Path&gt;" class="cls-1" d="M23.2,140.09a.42.42,0,0,1,0,.79,1.51,1.51,0,0,1-1.37,0,.42.42,0,0,1,0-.79A1.51,1.51,0,0,1,23.2,140.09Z"/><path id="_Path_101" data-name="&lt;Path&gt;" class="cls-1" d="M26.78,138a.42.42,0,0,1,0,.79,1.51,1.51,0,0,1-1.37,0,.42.42,0,0,1,0-.79A1.51,1.51,0,0,1,26.78,138Z"/><path id="_Path_102" data-name="&lt;Path&gt;" class="cls-1" d="M30.35,136a.42.42,0,0,1,0,.79,1.51,1.51,0,0,1-1.37,0,.42.42,0,0,1,0-.79A1.51,1.51,0,0,1,30.35,136Z"/><path id="_Path_103" data-name="&lt;Path&gt;" class="cls-1" d="M33.93,133.9a.42.42,0,0,1,0,.79,1.51,1.51,0,0,1-1.37,0,.42.42,0,0,1,0-.79A1.51,1.51,0,0,1,33.93,133.9Z"/><path id="_Path_104" data-name="&lt;Path&gt;" class="cls-1" d="M12.48,142.15a.42.42,0,0,1,0,.79,1.51,1.51,0,0,1-1.37,0,.42.42,0,0,1,0-.79A1.51,1.51,0,0,1,12.48,142.15Z"/><path id="_Path_105" data-name="&lt;Path&gt;" class="cls-1" d="M16.05,140.09a.42.42,0,0,1,0,.79,1.51,1.51,0,0,1-1.37,0,.42.42,0,0,1,0-.79A1.51,1.51,0,0,1,16.05,140.09Z"/><path id="_Path_106" data-name="&lt;Path&gt;" class="cls-1" d="M19.63,138a.42.42,0,0,1,0,.79,1.51,1.51,0,0,1-1.37,0,.42.42,0,0,1,0-.79A1.51,1.51,0,0,1,19.63,138Z"/><path id="_Path_107" data-name="&lt;Path&gt;" class="cls-1" d="M23.2,136a.42.42,0,0,1,0,.79,1.51,1.51,0,0,1-1.37,0,.42.42,0,0,1,0-.79A1.51,1.51,0,0,1,23.2,136Z"/><path id="_Path_108" data-name="&lt;Path&gt;" class="cls-1" d="M26.78,133.9a.42.42,0,0,1,0,.79,1.51,1.51,0,0,1-1.37,0,.42.42,0,0,1,0-.79A1.51,1.51,0,0,1,26.78,133.9Z"/><path id="_Path_109" data-name="&lt;Path&gt;" class="cls-1" d="M30.35,131.83a.42.42,0,0,1,0,.79,1.51,1.51,0,0,1-1.37,0,.42.42,0,0,1,0-.79A1.51,1.51,0,0,1,30.35,131.83Z"/><path id="_Path_110" data-name="&lt;Path&gt;" class="cls-1" d="M8.9,140.09a.42.42,0,0,1,0,.79,1.51,1.51,0,0,1-1.37,0,.42.42,0,0,1,0-.79A1.51,1.51,0,0,1,8.9,140.09Z"/><path id="_Path_111" data-name="&lt;Path&gt;" class="cls-1" d="M12.48,138a.42.42,0,0,1,0,.79,1.51,1.51,0,0,1-1.37,0,.42.42,0,0,1,0-.79A1.51,1.51,0,0,1,12.48,138Z"/><path id="_Path_112" data-name="&lt;Path&gt;" class="cls-1" d="M16.05,136a.42.42,0,0,1,0,.79,1.51,1.51,0,0,1-1.37,0,.42.42,0,0,1,0-.79A1.51,1.51,0,0,1,16.05,136Z"/><path id="_Path_113" data-name="&lt;Path&gt;" class="cls-1" d="M19.63,133.9a.42.42,0,0,1,0,.79,1.51,1.51,0,0,1-1.37,0,.42.42,0,0,1,0-.79A1.51,1.51,0,0,1,19.63,133.9Z"/><path id="_Path_114" data-name="&lt;Path&gt;" class="cls-1" d="M23.2,131.83a.42.42,0,0,1,0,.79,1.51,1.51,0,0,1-1.37,0,.42.42,0,0,1,0-.79A1.51,1.51,0,0,1,23.2,131.83Z"/><path id="_Path_115" data-name="&lt;Path&gt;" class="cls-1" d="M26.78,129.77a.42.42,0,0,1,0,.79,1.51,1.51,0,0,1-1.37,0,.42.42,0,0,1,0-.79A1.51,1.51,0,0,1,26.78,129.77Z"/><path id="_Path_116" data-name="&lt;Path&gt;" class="cls-1" d="M5.33,138a.42.42,0,0,1,0,.79,1.51,1.51,0,0,1-1.37,0A.42.42,0,0,1,4,138,1.51,1.51,0,0,1,5.33,138Z"/><path id="_Path_117" data-name="&lt;Path&gt;" class="cls-1" d="M8.9,136a.42.42,0,0,1,0,.79,1.51,1.51,0,0,1-1.37,0,.42.42,0,0,1,0-.79A1.51,1.51,0,0,1,8.9,136Z"/><path id="_Path_118" data-name="&lt;Path&gt;" class="cls-1" d="M12.48,133.9a.42.42,0,0,1,0,.79,1.51,1.51,0,0,1-1.37,0,.42.42,0,0,1,0-.79A1.51,1.51,0,0,1,12.48,133.9Z"/><path id="_Path_119" data-name="&lt;Path&gt;" class="cls-1" d="M16.05,131.83a.42.42,0,0,1,0,.79,1.51,1.51,0,0,1-1.37,0,.42.42,0,0,1,0-.79A1.51,1.51,0,0,1,16.05,131.83Z"/><path id="_Path_120" data-name="&lt;Path&gt;" class="cls-1" d="M19.63,129.77a.42.42,0,0,1,0,.79,1.51,1.51,0,0,1-1.37,0,.42.42,0,0,1,0-.79A1.51,1.51,0,0,1,19.63,129.77Z"/><path id="_Path_121" data-name="&lt;Path&gt;" class="cls-1" d="M23.2,127.71a.42.42,0,0,1,0,.79,1.51,1.51,0,0,1-1.37,0,.42.42,0,0,1,0-.79A1.51,1.51,0,0,1,23.2,127.71Z"/><path id="_Path_122" data-name="&lt;Path&gt;" class="cls-1" d="M5.33,133.9a.42.42,0,0,1,0,.79,1.51,1.51,0,0,1-1.37,0,.42.42,0,0,1,0-.79A1.51,1.51,0,0,1,5.33,133.9Z"/><path id="_Path_123" data-name="&lt;Path&gt;" class="cls-1" d="M8.9,131.83a.42.42,0,0,1,0,.79,1.51,1.51,0,0,1-1.37,0,.42.42,0,0,1,0-.79A1.51,1.51,0,0,1,8.9,131.83Z"/><path id="_Path_124" data-name="&lt;Path&gt;" class="cls-1" d="M12.48,129.77a.42.42,0,0,1,0,.79,1.51,1.51,0,0,1-1.37,0,.42.42,0,0,1,0-.79A1.51,1.51,0,0,1,12.48,129.77Z"/><path id="_Path_125" data-name="&lt;Path&gt;" class="cls-1" d="M16.05,127.71a.42.42,0,0,1,0,.79,1.51,1.51,0,0,1-1.37,0,.42.42,0,0,1,0-.79A1.51,1.51,0,0,1,16.05,127.71Z"/><path id="_Path_126" data-name="&lt;Path&gt;" class="cls-1" d="M19.63,125.64a.42.42,0,0,1,0,.79,1.51,1.51,0,0,1-1.37,0,.42.42,0,0,1,0-.79A1.51,1.51,0,0,1,19.63,125.64Z"/></g><g id="_7" data-name="7"><g id="_Group_25" data-name="&lt;Group&gt;"><g id="_Group_26" data-name="&lt;Group&gt;"><g id="_Group_27" data-name="&lt;Group&gt;"><path id="_Path_127" data-name="&lt;Path&gt;" class="cls-9" d="M21.15,76.47l0,1s3.46-2.2,3.89-2,.44,2.22.09,3a7.12,7.12,0,0,1-2.58,2.31c-.71.35-1.65,0-2.14.26s-6,8.82-7.35,9.06S12,87.83,11.68,86.81a39.37,39.37,0,0,1-1-7.25c0-2,.36-4.3.36-4.3l4.41.06a20,20,0,0,1-.08,3.54,13.15,13.15,0,0,1-1,4s3.3-2.69,4.16-3.35.94-.88,1.13-1.49a5.13,5.13,0,0,1,1.14-1.83C21,76.15,21.15,76.47,21.15,76.47Z"/><path id="_Compound_Path_16" data-name="&lt;Compound Path&gt;" class="cls-2" d="M10.21,79.55c0-2,.35-4.26.36-4.35l.06-.43,5.28.07,0,.44a20.37,20.37,0,0,1-.08,3.64,16,16,0,0,1-.46,2.51c1-.83,2.33-1.88,2.83-2.27.75-.58.8-.71,1-1.25s.93-2,1.44-2.14a.76.76,0,0,1,1,.54l0,.3c3-1.85,3.4-1.71,3.6-1.63a.82.82,0,0,1,.46.49,5.37,5.37,0,0,1-.1,3.19,7.49,7.49,0,0,1-2.81,2.55,3,3,0,0,1-1.45.2,2.07,2.07,0,0,0-.63,0c-.16.13-.88,1-1.57,1.8-3.11,3.7-4.85,5.61-5.78,5.78-.45.08-.27,3.83-.54,3.73-.71-.26-1.41-4.8-1.55-5.4m10.16-9.44-.72.46,0-1.18a5.34,5.34,0,0,0-.54,1,2.85,2.85,0,0,1-1.3,1.73c-.85.65-4.12,3.32-4.15,3.35L13,84.66l1-2a12.83,12.83,0,0,0,1-3.87,21.42,21.42,0,0,0,.1-3l-3.51,0c-.09.75-.26,2.34-.3,3.81a60.46,60.46,0,0,0,.94,7.54c.21.89.25,3.58.94,3.45s4-6.39,5.34-8a12.85,12.85,0,0,1,1.81-2,2.17,2.17,0,0,1,1.18-.17,2.16,2.16,0,0,0,1-.1,6.81,6.81,0,0,0,2.34-2.07A4.9,4.9,0,0,0,24.86,76,28.22,28.22,0,0,0,21.46,77.88Z"/></g><path id="_Path_128" data-name="&lt;Path&gt;" class="cls-7" d="M9.78,74.35A24.3,24.3,0,0,1,10.89,71a12.67,12.67,0,0,1,2-3.4,2.82,2.82,0,0,1,1.41-.81l1.17,1s.88.91.64,3.54a14.43,14.43,0,0,1-1.53,5A4.43,4.43,0,0,1,12,75.85,6.28,6.28,0,0,1,9.78,74.35Z"/><path id="_Compound_Path_17" data-name="&lt;Compound Path&gt;" class="cls-2" d="M9.57,75.24l-.16-.14v-.22a14.81,14.81,0,0,1,1.07-5.32c1.1-2.55,2.4-3,2.59-3.09l1.74-.39.18.13a3.27,3.27,0,0,1,1,1.63,12.94,12.94,0,0,1,.2,4.15,24.44,24.44,0,0,1-.64,3.59l-.06.24-.22.09a6.74,6.74,0,0,1-2.88.31,5.68,5.68,0,0,1-2.32-.63A2.84,2.84,0,0,1,9.57,75.24Zm5.68-3.3a12.52,12.52,0,0,0-.16-3.79,2.78,2.78,0,0,0-.54-1l-1.21.27s-1,.4-2,2.54a13.91,13.91,0,0,0-1,4.68,4.49,4.49,0,0,0,2.09.61,6.83,6.83,0,0,0,2.21-.16A22,22,0,0,0,15.25,71.93Z"/><polygon id="_Path_129" data-name="&lt;Path&gt;" class="cls-9" points="15.66 127.32 16.06 128.95 13.84 131.24 11.76 130.12 12.85 127.53 13.91 126.68 15.66 127.32"/><path id="_Compound_Path_18" data-name="&lt;Compound Path&gt;" class="cls-2" d="M13.93,131.85l-2.79-1.5,1.31-3.11,1.38-1.11,2.25.84.53,2.14Zm-1.54-1.95,1.36.73,1.78-1.83-.28-1.11L14,127.23l-.75.61Z"/></g><g id="_Group_28" data-name="&lt;Group&gt;"><path id="_Path_130" data-name="&lt;Path&gt;" class="cls-9" d="M12,126.68c.35-.18,1.24.58,1.67.83s-.23,1.59-.25,1.86.5.25.95.08.83-.27,1.21-.37a.54.54,0,0,0,.38-.64l-.08-.35a1.33,1.33,0,0,1,.78,1.19c.1,1,.51,1.47-.18,1.82a84.36,84.36,0,0,1-8.14,2.28,2.42,2.42,0,0,1-1.61-1.11c-.2-.37-.38-.64.09-1s2.43-1.45,3-2S12,126.68,12,126.68Z"/><path id="_Path_131" data-name="&lt;Path&gt;" class="cls-7" d="M13.07,128c.35-.18,1.24.58,1.67.83s-.23,1.59-.25,1.86.5.25.95.08.83-.27,1.21-.37a.54.54,0,0,0,.38-.64l-.08-.35a1.33,1.33,0,0,1,.78,1.19c.1,1,.51,1.47-.18,1.82a84.36,84.36,0,0,1-8.14,2.28,2.42,2.42,0,0,1-1.61-1.11c-.2-.37-.38-.64.09-1s2.43-1.45,3-2S13.07,128,13.07,128Z"/><path id="_Compound_Path_19" data-name="&lt;Compound Path&gt;" class="cls-2" d="M8.3,133.87a2.89,2.89,0,0,1-2-1.37,1.1,1.1,0,0,1,.22-1.63c.27-.21.77-.51,1.3-.84a14.91,14.91,0,0,0,1.65-1.09c.43-.39,1.69-2,2.14-2.57l.17-.14c.53-.26,1.16.18,1.78.61l.36.24c.64.38.35,1.27.11,2l.16-.05c.32-.12.86-.28,1.25-.39l-.05-.41-.2-.86.83.28a1.83,1.83,0,0,1,1.12,1.6,5.61,5.61,0,0,0,.12.65c.12.55.27,1.23-.55,1.66a78.15,78.15,0,0,1-8.35,2.33Zm3.93-6.69a31.33,31.33,0,0,1-2.1,2.49,14.75,14.75,0,0,1-1.8,1.2c-.48.29-1,.6-1.21.77a.42.42,0,0,0-.11.11l.12.22a2.21,2.21,0,0,0,1.18.91c.5,0,7.29-1.88,7.94-2.22.16-.08.16-.08,0-.58a6.57,6.57,0,0,1-.13-.76v0a1,1,0,0,1-.46.27c-.37.1-.87.24-1.17.36a1.58,1.58,0,0,1-1.36,0,.64.64,0,0,1-.25-.58,2.38,2.38,0,0,1,.15-.52,4.38,4.38,0,0,0,.25-.93l-.33-.23A5.87,5.87,0,0,0,12.23,127.18Z"/></g></g><g id="_Group_29" data-name="&lt;Group&gt;"><g id="_Group_30" data-name="&lt;Group&gt;"><polygon id="_Path_132" data-name="&lt;Path&gt;" class="cls-9" points="25.39 130.82 25.43 132.71 27.1 136.6 28.17 136.46 28.74 133.36 28.43 130.82 25.39 130.82"/><path id="_Compound_Path_20" data-name="&lt;Compound Path&gt;" class="cls-2" d="M26.79,137.14l-1.86-4.42,0-2.4h4l.37,3.05-.65,3.52Zm-.88-4.54,1.49,3.46.35,0,.5-2.67-.25-2H25.89Z"/></g><g id="_Group_31" data-name="&lt;Group&gt;"><path id="_Path_133" data-name="&lt;Path&gt;" class="cls-9" d="M24.25,135.12c.15-1.76.17-2.55.51-2.75a5.5,5.5,0,0,1,2.85.34c.3.3.08,1.81,0,2.09s.24.32.43-.26.39-.7.31-1.26a1.76,1.76,0,0,1,.24-1s.15,0,.33.37a5.15,5.15,0,0,1,.23,1.8,9.43,9.43,0,0,1-.8,2.94c-.48,1.33-1.28,2.88-1.78,3-.66.22-2.52.37-3.11-.5a1.46,1.46,0,0,1-.11-1.32A18,18,0,0,0,24.25,135.12Z"/><path id="_Path_134" data-name="&lt;Path&gt;" class="cls-7" d="M25.86,135.58c.15-1.76.17-2.55.51-2.75a5.5,5.5,0,0,1,2.84.34c.3.3.08,1.81,0,2.09s.24.32.43-.26.39-.7.31-1.26a1.76,1.76,0,0,1,.24-1s.15,0,.33.37a5.15,5.15,0,0,1,.23,1.8,9.43,9.43,0,0,1-.8,2.94c-.48,1.33-1.28,2.88-1.78,3-.66.22-2.52.37-3.11-.5a1.45,1.45,0,0,1-.11-1.32A18,18,0,0,0,25.86,135.58Z"/><path id="_Compound_Path_21" data-name="&lt;Compound Path&gt;" class="cls-2" d="M25.33,141.11a2.66,2.66,0,0,1-2.26-.88,2,2,0,0,1-.17-1.73c0-.14.1-.33.17-.55a13.76,13.76,0,0,0,.69-2.86l0-.58c.13-1.58.18-2.24.69-2.55a5.25,5.25,0,0,1,3.45.41l.06.07a2.36,2.36,0,0,1,.18-.39l.13-.21.25,0c.19,0,.53.05.81.65a5.16,5.16,0,0,1,.28,2,8,8,0,0,1-.67,2.66l-.16.45c-.18.5-1.14,3-2.08,3.35A5,5,0,0,1,25.33,141.11Zm-.59-5.95a14.48,14.48,0,0,1-.73,3.08c-.07.21-.12.38-.16.52-.17.6,0,.81,0,.91.4.59,2,.51,2.55.31a7.68,7.68,0,0,0,1.47-2.75l.17-.46a7.24,7.24,0,0,0,.6-2.32c0-.06,0-.12,0-.17,0,.1-.1.23-.16.4-.3.9-.85.81-1,.78a.63.63,0,0,1-.42-.77,5.72,5.72,0,0,0,.09-1.65,6.41,6.41,0,0,0-2.27-.24c0,.11-.11.92-.18,1.77Z"/></g></g><g id="_Group_32" data-name="&lt;Group&gt;"><path id="_Path_135" data-name="&lt;Path&gt;" class="cls-2" d="M13,94.93s.63,13.56.4,15.46a6.87,6.87,0,0,0,.26,2.71,5.23,5.23,0,0,1,.2,2c-.31,3-.68,10.82-.82,11.47-.17.81.38,1.28,1.31,1.45s1.6.18,2-.34.64-5,1.71-7.67.18-5.72.25-6.81,2-5.31,2.37-7.1A72.86,72.86,0,0,0,21.15,98Z"/><path id="_Compound_Path_22" data-name="&lt;Compound Path&gt;" class="cls-2" d="M15.26,128.64a5.64,5.64,0,0,1-1-.12,2.19,2.19,0,0,1-1.5-.84,1.53,1.53,0,0,1-.2-1.19c.06-.27.19-2.38.32-4.41.16-2.54.34-5.42.5-7a4.72,4.72,0,0,0-.18-1.83,7.4,7.4,0,0,1-.28-2.91c.22-1.84-.39-15.25-.4-15.38l0-.74,9.18,3.44V98a71.53,71.53,0,0,1-.5,8.24,34.13,34.13,0,0,1-1.24,3.64,22,22,0,0,0-1.12,3.39,8.48,8.48,0,0,0,.1,1.21,11.79,11.79,0,0,1-.38,5.75,27,27,0,0,0-1.2,5.32,7,7,0,0,1-.58,2.48A1.72,1.72,0,0,1,15.26,128.64Zm-1.75-33c.13,2.89.56,13.12.36,14.8a6.4,6.4,0,0,0,.24,2.51,5.71,5.71,0,0,1,.22,2.2c-.16,1.57-.34,4.43-.5,7-.17,2.69-.27,4.23-.34,4.56a.56.56,0,0,0,.05.44,1.33,1.33,0,0,0,.86.42c1,.19,1.34.08,1.52-.16a14.22,14.22,0,0,0,.39-2,27.79,27.79,0,0,1,1.26-5.53,11,11,0,0,0,.31-5.27,8.71,8.71,0,0,1-.1-1.39A19.54,19.54,0,0,1,19,109.52a33.91,33.91,0,0,0,1.2-3.51,65.9,65.9,0,0,0,.47-7.69Z"/></g><g id="_Group_33" data-name="&lt;Group&gt;"><path id="_Path_136" data-name="&lt;Path&gt;" class="cls-2" d="M19,97.47s1.24,10.41,2.64,14.29,1.05,5.79,1.86,6.77,1.27,10.52,1.33,11.75S25.62,132,27,132s1.9-.29,1.9-2,.87-7.39.4-10.1-1-4.21-1.15-5.54.75-8.48.75-14.31-2.31-6.17-2.31-6.17Z"/><path id="_Compound_Path_23" data-name="&lt;Compound Path&gt;" class="cls-2" d="M27,132.46c-1.66,0-2.5-.71-2.57-2.16-.29-6.19-.8-10.91-1.22-11.46a5.08,5.08,0,0,1-.79-2.42,24.66,24.66,0,0,0-1.15-4.49c-1.4-3.89-2.61-14-2.66-14.4l0-.35,8-3.79.15,0c.28,0,2.73.58,2.73,6.66,0,3.46-.3,7.39-.53,10.27-.15,2-.27,3.5-.23,4a15.1,15.1,0,0,0,.44,2.19c.21.87.48,1.94.71,3.31a36.12,36.12,0,0,1-.21,7.63c-.1,1.1-.19,2-.19,2.55C29.35,132.05,28.43,132.46,27,132.46ZM19.58,97.76c.23,1.84,1.35,10.45,2.57,13.83a25.5,25.5,0,0,1,1.19,4.66,4.56,4.56,0,0,0,.59,2c.76.92,1.2,7.06,1.44,12,0,.78.31,1.22,1.59,1.22,1.05,0,1.41-.07,1.41-1.47,0-.56.09-1.48.19-2.64a35.7,35.7,0,0,0,.22-7.37c-.23-1.33-.48-2.35-.7-3.24a15.79,15.79,0,0,1-.46-2.34,41.32,41.32,0,0,1,.23-4.16c.22-2.86.52-6.77.52-10.19,0-4.45-1.37-5.45-1.79-5.64Z"/></g><g id="_Group_34" data-name="&lt;Group&gt;"><path id="_Path_137" data-name="&lt;Path&gt;" class="cls-9" d="M26.17,101.44a5,5,0,0,0,2.64.84c0-.78,0-1.56,0-2.31a13.54,13.54,0,0,0-.41-3.6l-4.23,1.92A4.37,4.37,0,0,0,26.17,101.44Z"/><path id="_Compound_Path_24" data-name="&lt;Compound Path&gt;" class="cls-2" d="M28.72,102.77a6,6,0,0,1-2.79-.9h0a4.83,4.83,0,0,1-2.2-3.53l0-.35,5.07-2.31.15.55a14.17,14.17,0,0,1,.43,3.73c0,.76,0,1.54,0,2.32v.42l-.42,0ZM26.41,101a6.35,6.35,0,0,0,1.93.74c0-.6,0-1.2,0-1.78a14.6,14.6,0,0,0-.26-2.9l-3.34,1.52A3.68,3.68,0,0,0,26.41,101Z"/></g><g id="_Group_35" data-name="&lt;Group&gt;"><path id="_Path_138" data-name="&lt;Path&gt;" class="cls-9" d="M18.26,67.15s-2.38-.65-3.15-.38-2.27,2.35-2.69,4.69.88,12.46.88,12.46-.49,8.92-.61,10.27c-.09,1,.66,2.31,5.37,3.85a17.55,17.55,0,0,0,10.81,0c1.37-.62,1.06-.54.52-3.69a106.51,106.51,0,0,1-1.1-11.22C28.19,80.58,30,72.58,30,72.58a25.08,25.08,0,0,0-3.7-2.85C23.91,68.15,18.26,67.15,18.26,67.15Z"/><path id="_Path_139" data-name="&lt;Path&gt;" class="cls-10" d="M19.53,69.85s-2.38-.65-3.15-.38-2.27,2.35-2.69,4.69.88,12.46.88,12.46-.36,7.37-.47,8.72c-.09,1,.78,1.87,5.49,3.41a12.8,12.8,0,0,0,9.77-.94c1.37-.62.55-.6.48-.74-1.29-2.93-.21-8.7-.28-11.24S31.3,75.27,31.3,75.27a25.09,25.09,0,0,0-3.7-2.85C25.19,70.85,19.53,69.85,19.53,69.85Z"/><path id="_Compound_Path_25" data-name="&lt;Compound Path&gt;" class="cls-2" d="M23.55,99.38a18.31,18.31,0,0,1-5.66-.87c-4.14-1.35-5.85-2.66-5.7-4.35.11-1.32.6-10.17.61-10.26-.05-.33-1.3-10.13-.87-12.52s2-4.71,3-5.07c.86-.3,3,.24,3.42.37s5.81,1.07,8.23,2.64a25.45,25.45,0,0,1,3.77,2.91l.19.19-.06.27c0,.08-1.82,8-1.75,10.42a105.4,105.4,0,0,0,1.1,11.16c.09.56.18,1,.26,1.39.35,1.82.37,2.19-1.06,2.83A15.2,15.2,0,0,1,23.55,99.38ZM15.61,67.19a1.12,1.12,0,0,0-.34,0c-.51.18-2,2-2.37,4.32s.87,12.21.88,12.31c0,.45-.49,9-.61,10.38,0,.41-.14,1.65,5,3.34a17.21,17.21,0,0,0,10.45,0c.77-.35.77-.35.5-1.75-.07-.38-.16-.85-.26-1.41a106.82,106.82,0,0,1-1.11-11.29c-.07-2.34,1.38-8.94,1.71-10.4a27.17,27.17,0,0,0-3.42-2.6c-2.31-1.51-7.84-2.5-7.89-2.5h0A11.59,11.59,0,0,0,15.61,67.19Z"/></g><g id="_Group_36" data-name="&lt;Group&gt;"><path id="_Path_140" data-name="&lt;Path&gt;" class="cls-9" d="M19,67.29a5.33,5.33,0,0,1,.12,2.25c-.19,1.33-.21,1.63.44,2.15a3.14,3.14,0,0,0,3.5-.1c1.4-.88,1.54-1.37,1.54-1.87s-.79-1.92-.67-3.52a28.52,28.52,0,0,1,.37-2.95l.3-1.34-1.29-.56Z"/><path id="_Compound_Path_26" data-name="&lt;Compound Path&gt;" class="cls-2" d="M21.1,72.66a3.05,3.05,0,0,1-1.88-.59c-.9-.71-.81-1.31-.62-2.61a5,5,0,0,0-.1-2l-.08-.24,4.69-6.45,2,.88-.39,1.74h0a28.53,28.53,0,0,0-.36,2.88,6.65,6.65,0,0,0,.45,2.54,3.39,3.39,0,0,1,.23.94c0,.74-.29,1.35-1.77,2.28A4.11,4.11,0,0,1,21.1,72.66Zm-1.6-5.28a6.19,6.19,0,0,1,.07,2.22c-.19,1.34-.15,1.37.26,1.7a2.66,2.66,0,0,0,2.93-.13c1.31-.83,1.31-1.17,1.31-1.45a4,4,0,0,0-.18-.64,7.6,7.6,0,0,1-.49-2.92,29,29,0,0,1,.38-3l.21-1L23.44,62Z"/></g><g id="_Group_37" data-name="&lt;Group&gt;"><path id="_Path_141" data-name="&lt;Path&gt;" class="cls-9" d="M17,59.11a2.52,2.52,0,0,0-.82,2,12.84,12.84,0,0,0,.34,4.49A5.77,5.77,0,0,0,18,68.1a5.34,5.34,0,0,0,3.51-.75,5.68,5.68,0,0,0,2.24-3A3.89,3.89,0,0,0,23.64,62l-5.92-2.9Z"/><path id="_Compound_Path_27" data-name="&lt;Compound Path&gt;" class="cls-2" d="M18.6,68.66a1.56,1.56,0,0,1-.85-.17,6.52,6.52,0,0,1-1.66-2.67,13,13,0,0,1-.37-4.7,2.83,2.83,0,0,1,1.05-2.42l.12-.07h.94l6.19,3,.07.16a4.38,4.38,0,0,1,.18,2.7,6.1,6.1,0,0,1-2.42,3.22A6.4,6.4,0,0,1,18.6,68.66Zm-1.42-9.05a2.33,2.33,0,0,0-.49,1.56,11.67,11.67,0,0,0,.3,4.28,5.37,5.37,0,0,0,1.34,2.25A5.82,5.82,0,0,0,21.27,67a5.16,5.16,0,0,0,2.06-2.69,3.4,3.4,0,0,0-.07-1.88L17.6,59.61Z"/></g><g id="_Group_38" data-name="&lt;Group&gt;"><path id="_Path_142" data-name="&lt;Path&gt;" class="cls-2" d="M24.12,62.38s-.54-.44-.92,0-.09,1.21-.75,1.13,0-1.44-.58-1.85-3.23,0-4.44-1.33c-.68-.71-.5,0-1,0a1.68,1.68,0,0,1-1.36-1.18c-.12-.58.12-1.62.64-1.36l.23.58a3,3,0,0,1,0-2.68c.69-1.5,1.9-1.79,2.27-1.5.65.52.13,1.18,1,1.64A2.14,2.14,0,0,0,21,56c.66-.12.47.57,1.07.75,1.13.35,2.29-.57,3.43,1.13,1.31,1.94.79,3.47.29,4-.29.31-.41.48-.33.74s.62-.13.79.27-1,1.26-1.13,1.93a4,4,0,0,1-.6,1.65c-.32.38-.66.09-.84-.35A4.72,4.72,0,0,1,24,64.23S24.57,62.81,24.12,62.38Z"/><path id="_Compound_Path_28" data-name="&lt;Compound Path&gt;" class="cls-2" d="M24.22,67.09h-.13a1.2,1.2,0,0,1-.85-.82,4.13,4.13,0,0,1,.31-2.19,2.76,2.76,0,0,0,.24-1.33c-.06,0-.16-.09-.21,0a.88.88,0,0,0-.18.47.84.84,0,0,1-1,.82c-.78-.1-.76-.91-.75-1.34a1.54,1.54,0,0,0,0-.59,4.56,4.56,0,0,0-1-.16,5.52,5.52,0,0,1-3.51-1.23l0,0a.77.77,0,0,1-.59.2,2.17,2.17,0,0,1-1.8-1.58,2,2,0,0,1,.48-1.82l.06,0a3.56,3.56,0,0,1,.32-1.9,3.15,3.15,0,0,1,2-1.84,1.22,1.22,0,0,1,1,.16,1.6,1.6,0,0,1,.58,1.06c.06.28.08.4.34.54a1.43,1.43,0,0,0,1.21.13l.27-.06A1,1,0,0,1,22,56c.09.15.12.19.2.21a2.65,2.65,0,0,0,.94,0,2.64,2.64,0,0,1,2.76,1.27c1.5,2.23.81,4,.24,4.62l0,0a.75.75,0,0,1,.57.47c.21.49-.17.95-.57,1.43a2.87,2.87,0,0,0-.54.79,4.3,4.3,0,0,1-.7,1.86A.88.88,0,0,1,24.22,67.09ZM23.6,61.7a1.37,1.37,0,0,1,.83.31l0,0c.63.6.16,2,0,2.38a4.69,4.69,0,0,0-.32,1.5l.06.12a4.39,4.39,0,0,0,.44-1.35,3.15,3.15,0,0,1,.74-1.21l.24-.3a.61.61,0,0,1-.62-.43,1.17,1.17,0,0,1,.43-1.23c.31-.34.87-1.62-.34-3.4a1.7,1.7,0,0,0-1.89-.84,3.51,3.51,0,0,1-1.28-.09,1.29,1.29,0,0,1-.75-.65l-.08-.12a.77.77,0,0,1-.21.08A2.39,2.39,0,0,1,19,56.27a1.54,1.54,0,0,1-.84-1.21c0-.25-.08-.36-.23-.48s-1,.19-1.52,1.32a2.57,2.57,0,0,0-.19,1.69l.24.6-.85.42a1.39,1.39,0,0,0,0,.44,1.23,1.23,0,0,0,.83.78.72.72,0,0,1,.53-.3,1.25,1.25,0,0,1,.82.46,4.83,4.83,0,0,0,2.9.93,3.33,3.33,0,0,1,1.46.33,1.28,1.28,0,0,1,.47,1.1,1.58,1.58,0,0,1,.21-.3A1,1,0,0,1,23.6,61.7Z"/></g><g id="_Group_39" data-name="&lt;Group&gt;"><path id="_Path_143" data-name="&lt;Path&gt;" class="cls-9" d="M19,78.45l-.38.92s-2.48-3.26-2.94-3.26-1.18,1.93-1.13,2.8A7.12,7.12,0,0,0,16.13,82c.55.58,1.55.55,1.92,1s2.93,8.83,4.11,9.52,1.5-.17,2.11-1A39.37,39.37,0,0,0,27.7,85c.66-1.93,1.15-4.15,1.15-4.15L24.7,79.35a20,20,0,0,0-1.15,3.35,13.15,13.15,0,0,0-.46,4.13s-2.16-3.66-2.74-4.59a2.38,2.38,0,0,1-.55-1.79,5.13,5.13,0,0,0-.43-2.11C19.19,78.19,19,78.45,19,78.45Z"/><path id="_Compound_Path_29" data-name="&lt;Compound Path&gt;" class="cls-2" d="M22.92,93.22a2,2,0,0,1-1-.32c-.81-.47-1.78-2.87-3.42-7.42-.36-1-.74-2.06-.85-2.24a2.07,2.07,0,0,0-.58-.24,3,3,0,0,1-1.29-.69A7.49,7.49,0,0,1,14,78.95a5.37,5.37,0,0,1,1-3,.82.82,0,0,1,.6-.3c.21,0,.64,0,2.81,2.78l.14-.27A.76.76,0,0,1,19.68,78a5,5,0,0,1,.61,2.51c0,.56,0,.7.47,1.51.34.54,1.2,2,1.87,3.12a16,16,0,0,1,.44-2.52,20.37,20.37,0,0,1,1.19-3.44l.19-.4,5,1.76-.09.42c0,.09-.5,2.27-1.17,4.21a39.65,39.65,0,0,1-3.5,6.59l-.22.33C24.11,92.56,23.68,93.22,22.92,93.22ZM15.67,76.7A4.9,4.9,0,0,0,15,78.88a6.81,6.81,0,0,0,1.48,2.75,2.16,2.16,0,0,0,.89.44,2.17,2.17,0,0,1,1,.57,12.85,12.85,0,0,1,1,2.51c.7,1.95,2.33,6.51,3,6.9s.72.22,1.22-.54l.24-.35a39.12,39.12,0,0,0,3.37-6.34c.48-1.39.87-2.95,1-3.68L25,80A21.42,21.42,0,0,0,24,82.82a12.83,12.83,0,0,0-.45,4L23.78,89l-1.12-1.89s-2.17-3.67-2.73-4.58a2.85,2.85,0,0,1-.62-2.07,5.34,5.34,0,0,0-.14-1.16l-.45,1.09-.52-.68A28.22,28.22,0,0,0,15.67,76.7Z"/></g><g id="_Group_40" data-name="&lt;Group&gt;"><path id="_Path_144" data-name="&lt;Path&gt;" class="cls-9" d="M24.28,79.15a24.3,24.3,0,0,1,1.11-3.38,12.67,12.67,0,0,1,2-3.4,2.82,2.82,0,0,1,1.41-.81l1.17,1s.88.91.64,3.54a14.43,14.43,0,0,1-1.53,5,4.43,4.43,0,0,1-2.65-.46A6.28,6.28,0,0,1,24.28,79.15Z"/><path id="_Path_145" data-name="&lt;Path&gt;" class="cls-7" d="M26.27,79.37A24.3,24.3,0,0,1,27.39,76a12.67,12.67,0,0,1,2-3.4,2.82,2.82,0,0,1,1.41-.81l1.17,1s.88.91.64,3.54a14.43,14.43,0,0,1-1.53,5,4.43,4.43,0,0,1-2.65-.46A6.28,6.28,0,0,1,26.27,79.37Z"/><path id="_Compound_Path_30" data-name="&lt;Compound Path&gt;" class="cls-2" d="M28.63,81.64a5.68,5.68,0,0,1-2.34-.55,6.74,6.74,0,0,1-2.39-1.64l-.15-.19L23.8,79a24.44,24.44,0,0,1,1.14-3.46A12.94,12.94,0,0,1,27.1,72a3.27,3.27,0,0,1,1.69-.94L29,71l1.34,1.17c.14.14,1.05,1.18.81,4a14.81,14.81,0,0,1-1.59,5.18l-.1.19-.21.05A2.84,2.84,0,0,1,28.63,81.64ZM24.82,79a6.83,6.83,0,0,0,1.87,1.19,4.49,4.49,0,0,0,2.13.46,13.91,13.91,0,0,0,1.36-4.58c.2-2.32-.51-3.16-.52-3.16l-.94-.81a2.78,2.78,0,0,0-.95.62A12.52,12.52,0,0,0,25.84,76,22,22,0,0,0,24.82,79Z"/></g></g></g></g></g></svg>