<svg xmlns="http://www.w3.org/2000/svg" xmlns:xlink="http://www.w3.org/1999/xlink" viewBox="0 0 681.1 586.53"><defs><style>.cls-1{fill:url(#linear-gradient);}.cls-2,.cls-48{fill:#99899b;}.cls-10,.cls-11,.cls-2,.cls-25,.cls-26,.cls-27,.cls-28,.cls-29,.cls-3,.cls-30,.cls-31,.cls-32,.cls-33,.cls-36,.cls-37,.cls-4,.cls-49,.cls-5,.cls-50,.cls-51,.cls-6,.cls-7,.cls-8,.cls-9{fill-rule:evenodd;}.cls-3,.cls-45{fill:#454568;}.cls-4{fill:#3c3b56;}.cls-5{fill:#8686a3;}.cls-39,.cls-6{fill:#c9beda;}.cls-46,.cls-7{fill:#dccbe1;}.cls-42,.cls-8{fill:#e2c6df;}.cls-9{fill:#e4cde3;}.cls-10{fill:#ddcde3;}.cls-11{fill:#e8d4e7;}.cls-12{isolation:isolate;}.cls-13{fill:#aeafb1;}.cls-14{fill:#b9b9ba;}.cls-15{fill:#edcb3a;}.cls-16{fill:#1e8778;}.cls-17{fill:#3c3e8b;}.cls-18{fill:#ffd742;}.cls-19{fill:#e52c13;}.cls-20{fill:#33424c;}.cls-21{fill:#c95687;}.cls-22{fill:#fff;}.cls-23{fill:#a55179;}.cls-24{fill:url(#linear-gradient-2);}.cls-25{fill:#e2d0e4;}.cls-26{fill:url(#GradientFill_1213);}.cls-27{fill:url(#GradientFill_1214);}.cls-28,.cls-38{fill:#bbbad2;}.cls-29{fill:#e3d3e5;}.cls-30{fill:url(#GradientFill_1213-2);}.cls-31{fill:url(#GradientFill_1214-2);}.cls-32{fill:url(#GradientFill_1213-3);}.cls-33{fill:url(#GradientFill_1214-3);}.cls-34{fill:url(#linear-gradient-3);}.cls-35{fill:url(#linear-gradient-4);}.cls-36{fill:url(#GradientFill_1213-4);}.cls-37{fill:url(#GradientFill_1214-4);}.cls-40{fill:url(#GradientFill_1214-5);}.cls-41{fill:#a5a1c3;}.cls-43{fill:#d4c7df;}.cls-44{fill:url(#linear-gradient-5);}.cls-47,.cls-50{fill:#efdaea;}.cls-49{fill:#e0cfe2;}.cls-51{fill:url(#GradientFill_1214-6);}</style><linearGradient id="linear-gradient" x1="189.65" y1="209.05" x2="525.63" y2="209.05" gradientUnits="userSpaceOnUse"><stop offset="0" stop-color="#5f5076"/><stop offset="1" stop-color="#8480a6" stop-opacity="0.4"/></linearGradient><linearGradient id="linear-gradient-2" x1="319.58" y1="211.14" x2="287.27" y2="267.1" gradientUnits="userSpaceOnUse"><stop offset="0" stop-color="#1c002a"/><stop offset="0.2" stop-color="#594463"/><stop offset="0.42" stop-color="#93869a"/><stop offset="0.61" stop-color="#c2bac5"/><stop offset="0.78" stop-color="#e3e0e5"/><stop offset="0.91" stop-color="#f8f7f8"/><stop offset="1" stop-color="#fff"/></linearGradient><linearGradient id="GradientFill_1213" x1="281.4" y1="236.7" x2="298.09" y2="247.53" gradientUnits="userSpaceOnUse"><stop offset="0" stop-color="#95abc4"/><stop offset="1" stop-color="#a5b2cd"/></linearGradient><linearGradient id="GradientFill_1214" x1="278.5" y1="248.42" x2="286.41" y2="258.92" gradientUnits="userSpaceOnUse"><stop offset="0" stop-color="#8ba1bd"/><stop offset="1" stop-color="#9fadc9"/></linearGradient><linearGradient id="GradientFill_1213-2" x1="192.47" y1="188.77" x2="207.1" y2="198.27" xlink:href="#GradientFill_1213"/><linearGradient id="GradientFill_1214-2" x1="189.69" y1="189.9" x2="196.63" y2="199.1" xlink:href="#GradientFill_1214"/><linearGradient id="GradientFill_1213-3" x1="419.49" y1="271.23" x2="443.56" y2="286.86" xlink:href="#GradientFill_1213"/><linearGradient id="GradientFill_1214-3" x1="415.84" y1="282.57" x2="425.98" y2="296.03" xlink:href="#GradientFill_1214"/><linearGradient id="linear-gradient-3" x1="23.17" y1="507.87" x2="303.37" y2="507.87" xlink:href="#linear-gradient"/><linearGradient id="linear-gradient-4" x1="58.77" y1="524.4" x2="68.73" y2="507.16" gradientUnits="userSpaceOnUse"><stop offset="0" stop-color="#1c002a"/><stop offset="0.09" stop-color="#230730"/><stop offset="0.22" stop-color="#351c42"/><stop offset="0.38" stop-color="#533e5e"/><stop offset="0.56" stop-color="#7d6d85"/><stop offset="0.75" stop-color="#b3aab8"/><stop offset="0.96" stop-color="#f3f2f4"/><stop offset="1" stop-color="#fff"/></linearGradient><linearGradient id="GradientFill_1213-4" x1="88.38" y1="530.95" x2="98.44" y2="537.48" xlink:href="#GradientFill_1213"/><linearGradient id="GradientFill_1214-4" x1="86.52" y1="537.25" x2="91" y2="543.2" xlink:href="#GradientFill_1214"/><linearGradient id="GradientFill_1214-5" x1="289.5" y1="399.01" x2="374.47" y2="399.01" xlink:href="#GradientFill_1214"/><linearGradient id="linear-gradient-5" x1="383.89" y1="434.06" x2="681.1" y2="434.06" xlink:href="#linear-gradient"/><linearGradient id="GradientFill_1214-6" x1="475.14" y1="493.79" x2="486.8" y2="493.79" xlink:href="#GradientFill_1214"/></defs><title>Image Code</title><g id="Layer_2" data-name="Layer 2"><g id="Code_New" data-name="Code New"><path class="cls-1" d="M335.74,118.32,189.65,174.54l176,131.78,155.11-48.49a6.89,6.89,0,0,0,2.27-11.94l-164.77-133C353,109.09,341.88,116,335.74,118.32Z"/><polygon class="cls-2" points="333.78 204.47 327.52 210.29 357.12 236.05 378.67 238.38 398.33 242.97 393.91 207.99 371.26 195.69 333.78 204.47"/><polygon class="cls-3" points="388.95 225.61 393.91 207.99 407.71 228.79 404.7 245.04 397.34 248.15 388.95 225.61"/><polygon class="cls-4" points="388.95 225.61 404.7 245.04 392.65 259.25 386.65 240.34 388.95 225.61"/><polygon class="cls-5" points="369.8 232.82 390.97 243.98 392.65 259.25 389.36 259.8 378.79 261.65 365.61 244.01 369.8 232.82"/><polygon class="cls-6" points="355.53 248.78 355.31 249.02 369.8 232.82 378.79 261.65 369.8 259.59 352.77 251.42 355.53 248.78"/><polygon class="cls-7" points="355.31 249.02 369.8 259.59 354.35 258.77 337.63 257.98 340.55 245.93 355.31 249.02"/><polygon class="cls-8" points="316.56 231.18 324.14 243.98 327.52 210.29 316.56 231.18"/><polygon class="cls-9" points="329.19 246.24 334.2 238.35 340.24 250.88 337.63 257.98 329.19 246.24"/><polygon class="cls-10" points="334.2 238.35 355.31 249.02 340.24 250.88 334.2 238.35"/><polygon class="cls-11" points="327.52 210.29 335.73 196.63 348.56 194.16 361.39 191.35 359.27 199.31 327.52 210.29"/><g class="cls-12"><polygon class="cls-13" points="203.11 28.85 217.91 22.36 200.66 170.47 185.86 176.96 203.11 28.85"/><polygon class="cls-14" points="244.72 193.24 243.92 200.07 231.83 191.13 232.63 184.3 244.72 193.24"/><polygon class="cls-15" points="269.28 211.4 268.48 218.23 251.69 205.81 252.48 198.99 269.28 211.4"/><polygon class="cls-16" points="222.04 160.25 221.25 167.08 200.01 151.37 200.8 144.55 222.04 160.25"/><polygon class="cls-16" points="245.52 143.57 244.73 150.4 223.49 134.69 224.28 127.86 245.52 143.57"/><polygon class="cls-16" points="232.33 71.95 231.53 78.78 210.29 63.07 211.08 56.25 232.33 71.95"/><path class="cls-17" d="M208.83,15.28a8.54,8.54,0,0,1,3.1,7.11c-.29,2.46-2.13,3.25-4.13,1.77a8.54,8.54,0,0,1-3.09-7.11C205,14.6,206.84,13.8,208.83,15.28Z"/><path class="cls-18" d="M218.82,22.67a8.54,8.54,0,0,1,3.1,7.11c-.29,2.46-2.13,3.25-4.13,1.77a8.53,8.53,0,0,1-3.08-7.1C215,22,216.84,21.2,218.82,22.67Z"/><polygon class="cls-14" points="279.1 136.06 278.31 142.88 257.08 127.19 257.88 120.36 279.1 136.06"/><polygon class="cls-19" points="254.47 76.48 253.68 83.29 211.2 51.88 211.99 45.07 254.47 76.48"/><polygon class="cls-16" points="240.48 91.65 239.68 98.48 218.44 82.77 219.24 75.95 240.48 91.65"/><polygon class="cls-19" points="314.72 177.77 313.92 184.6 236.49 127.33 237.28 120.51 314.72 177.77"/><polygon class="cls-15" points="315.68 163.1 314.88 169.93 285.31 148.06 286.11 141.24 315.68 163.1"/><polygon class="cls-15" points="350.87 237.68 350.07 244.51 232.02 157.22 232.81 150.39 350.87 237.68"/><polygon class="cls-19" points="340.26 196.66 339.47 203.49 319.48 188.7 320.27 181.88 340.26 196.66"/><path class="cls-20" d="M203.11,28.85,372.34,154,355.09,302.09,185.86,177Zm147,215.66.8-6.83L232.81,150.39l-.79,6.83,118.05,87.29ZM236.49,127.33l77.44,57.26.8-6.83-77.44-57.26-.79,6.83ZM212,45.07l-.79,6.81,42.48,31.41.79-6.81L212,45.07Zm68,69.56.79-6.82L238.48,76.5l-.8,6.83L280,114.63Zm6.09,26.61-.79,6.82,29.57,21.86.8-6.82-29.57-21.86ZM210.29,63.07l21.24,15.71.8-6.83L211.08,56.25l-.79,6.83Zm-9.49,81.48-.79,6.83,21.24,15.71.79-6.83-21.24-15.7Zm23.48-16.68-.79,6.83,21.24,15.71.79-6.83-21.24-15.7ZM322.33,168l-.79,6.82,21.24,15.71.8-6.82L322.33,168ZM219.24,75.95l-.8,6.83,21.24,15.7.79-6.82L219.24,75.95ZM249,113.79,227.75,98.09l-.8,6.83,21.24,15.71.79-6.83Zm29.32,29.09.79-6.83-21.22-15.69-.79,6.82,21.22,15.69Zm42,39-.79,6.83,20,14.78.8-6.83-20-14.78Zm-51.79,36.35.8-6.83L252.48,199l-.79,6.83,16.79,12.42Zm-44.42-32.85.8-6.83-15.13-11.19-.8,6.83,15.13,11.19Zm19.86,14.69.79-6.83-12.09-8.94-.8,6.83,12.09,8.94Z"/><polygon class="cls-16" points="248.99 113.79 248.19 120.62 226.96 104.91 227.75 98.09 248.99 113.79"/><polygon class="cls-15" points="237.68 83.33 280.02 114.63 280.81 107.81 238.48 76.5 237.68 83.33"/><path class="cls-21" d="M376.39,130.81,204.67,3.82C202.21,2,199.93,3,199.58,6l-19.5,167.45a10.53,10.53,0,0,0,3.82,8.75l171.73,127c2.45,1.81,4.73.85,5.09-2.17l19.5-167.45A10.53,10.53,0,0,0,376.39,130.81ZM228.83,30.06a8.53,8.53,0,0,1,3.08,7.1c-.29,2.46-2.13,3.25-4.11,1.78a8.53,8.53,0,0,1-3.1-7.11c.29-2.46,2.13-3.25,4.13-1.77Zm-10-7.4a8.54,8.54,0,0,1,3.1,7.11c-.29,2.46-2.13,3.25-4.13,1.77a8.54,8.54,0,0,1-3.08-7.1c.28-2.46,2.13-3.25,4.11-1.78Zm-10-7.39a8.54,8.54,0,0,1,3.1,7.11c-.29,2.46-2.13,3.25-4.13,1.77a8.54,8.54,0,0,1-3.09-7.11c.28-2.46,2.13-3.25,4.13-1.77ZM355.09,302.09,185.86,177,203.11,28.85,372.34,154,355.09,302.09Z"/><polygon class="cls-16" points="224.85 178.55 209.73 167.37 208.93 174.19 224.06 185.38 224.85 178.55"/><path class="cls-22" d="M228.83,30.06a8.52,8.52,0,0,1,3.08,7.1c-.29,2.46-2.13,3.25-4.11,1.78a8.53,8.53,0,0,1-3.1-7.11C225,29.38,226.83,28.59,228.83,30.06Z"/><polygon class="cls-14" points="343.57 183.73 342.78 190.56 321.54 174.85 322.33 168.03 343.57 183.73"/><path class="cls-23" d="M385,130.12c0-.08,9.81,6.52-173.75-129.21A3.4,3.4,0,0,0,207.94.2l-6.63,2.91a3.38,3.38,0,0,1,3.36.72c181.89,134.49,171.91,127,172.67,127.83.1.1.19.22.28.33a11.05,11.05,0,0,1,2.6,6.19,7.36,7.36,0,0,1,0,1.38L360.71,307a3.35,3.35,0,0,1-1.73,2.88c4.93-2.16,1.76-.63,6.69-2.79a3.33,3.33,0,0,0,1.73-2.88l19.44-167.56A10.42,10.42,0,0,0,385,130.12Z"/><polygon class="cls-22" points="203.11 28.85 185.86 176.96 355.09 302.09 372.34 153.99 203.11 28.85"/></g><polygon points="239.95 98.92 239.55 102.06 224.08 100.12 224.07 100.22 237.28 119.95 236.88 123.08 221.23 99.36 221.54 96.92 239.95 98.92"/><path d="M257.11,99.65a6.07,6.07,0,0,1,0,2.1c-.21,1.68-.72,2.24-1.57,1.6a8.8,8.8,0,0,1-.82-.82,8.57,8.57,0,0,0-.79-.8,1.26,1.26,0,0,0-1-.34,5.49,5.49,0,0,0-1.12.55,7.14,7.14,0,0,0,0,.9,2.8,2.8,0,0,1-.77-1.19c-.23.22-.23.53,0,.89a4.17,4.17,0,0,1-.05.71c-.27-.06-.43-.08-.44,0l.22.51a.55.55,0,0,1,.56,0c0,.08-.31.26-.91.49,0,0,0,.15.08.36.29.22.46.15.5-.17,0,.13.33.94.34,1.11,0,.52-.43,1.81-.5,2.39.08.27.16.63.3,1.08s-.08,1-.21,2l-.8,6.31c0,.36-.45,1-.49,1.32s.18,1.42.15,1.66a.93.93,0,0,1-.22.47,4.37,4.37,0,0,1,0,1.48c-.08.93-.15,1.48-.13,1.63s-.36,1-.42,1.38c0,.22.17,1.18.19,1.38,0,.83-.07,1.5-.15,2.08-.27,2.14-.84,2.89-1.76,2.19-.11-.08-.49-.31-1.11-.74s-1-.65-1.12-.74a2.78,2.78,0,0,1-.9-1.73,5.52,5.52,0,0,1-.11-1.94l4.36-24.51c.19-1.49.15-2.42-.14-2.79-.71-1-1.12-1.59-1.16-1.62s-.48-.26-1.13-.61a11.22,11.22,0,0,1-1.12-.65c-.78-.59-1.05-1.89-.8-3.84a4.83,4.83,0,0,1,.53-1.64c.37-.68.75-.83,1.2-.49.28.21.66.76.92,1s.88,1,1.06,1.15c1.14.86,1.8,1.36,2.06,1.5a6.53,6.53,0,0,0,.24.93,6.87,6.87,0,0,1,1,.2,6.43,6.43,0,0,0,1.19,1.1A24.49,24.49,0,0,0,254.42,97c.9.53,1.36.77,1.32.74A3.47,3.47,0,0,1,257.11,99.65Zm-8-4.33c.18.79.3,1.39.37,1.78.06-.12.36-.53.88-1.23a5.79,5.79,0,0,1-.94.09l-.32-.64m2.93,2.17.12-.95c-.25.16-.68,0-1.26-.46.27.35.66.8,1.14,1.41m-.84,1.31c0-.22.32-.95.35-1.18a3.44,3.44,0,0,0-.71.21,3.78,3.78,0,0,1,.37,1m-3.91,20.33.87.16-.07-.35-.75-.12,0,.32m2.6-21.81,0,.36.92.69,0-.36-.92-.69m.46.89-.29-.22-.09.73.29.22.09-.73m-.07,4.62.09-.73-.28-.21-.09.73.28.21"/><path d="M261.43,137.84a1.35,1.35,0,0,1-.58,1.1l0-.18a1.06,1.06,0,0,0-.08-.57,1.62,1.62,0,0,1-.48.29s.15-.23.39-.6S261.09,137.63,261.43,137.84Z"/><polygon points="262.25 138.36 262.45 138.31 262.67 138.82 262.46 138.87 262.25 138.36"/><path d="M257.14,121.92l0,0,0,0Z"/><polygon points="256.32 135.03 256.5 134.91 256.83 135.76 256.66 135.83 256.32 135.03"/><path d="M270.67,123.63c-.07.54-.17,1.36-.28,2.52s-.21,1.94-.28,2.53c-.13,1-.39,2.48-.84,4.38s-.68,3.37-.81,4.42c-.06.5-.15,1.83-.21,2.32-.17,1.32-.49,2.07-1,2.3a7.59,7.59,0,0,0-1.47.79c.06-.2.64-.6.71-1.16l0-.27a1.38,1.38,0,0,0-.75.52,5.26,5.26,0,0,1-.31-.68,3,3,0,0,1-.65.06,2.42,2.42,0,0,1,.54,1.41c-.57-.28-1.2-.7-1.54-.21,0-.23-.11-1.08-.07-1.39a.59.59,0,0,1,.46-.5,6,6,0,0,0,.7-.07s-.2-.65-.56-1.92a.55.55,0,0,0-.19.22,4.66,4.66,0,0,1,.07,1,12.82,12.82,0,0,1-1.09-1.18c.44.29,1.15-.48,1.55-.17a1.23,1.23,0,0,1,.3.39l.24-.57a2.43,2.43,0,0,0-.32-.34c-.18-.14-.37-.18-.51,0l.07-.59a1.78,1.78,0,0,1,.47-1.18l2.81-22.16a1.31,1.31,0,0,0-.45-.55.89.89,0,0,1,.41-.68,15.2,15.2,0,0,0-.6-1.85c-.27-.45-.53-1-.79-1.43a4.74,4.74,0,0,0-.77-1.19,1.86,1.86,0,0,0-2.49-.09,3.8,3.8,0,0,0-1.24,2.55,22.3,22.3,0,0,0-.28,6c-.35-.07-.56.23-.64.91-.06.5,0,1.7-.1,2.11s-.14,1.1-.21,2l-.25,1.95c-.13,1.06-.29,1.92-.42,2.68a9,9,0,0,0-.54,1.43c-.08.64-.17,1.56-.25,2.85s-.16,2.22-.24,2.81a1.06,1.06,0,0,1-.4.64,2.25,2.25,0,0,1,0,.48c-.07.58-.28.87-.6.88,0,.23.16.57.3,1a1.84,1.84,0,0,0,.3-.72.71.71,0,0,1,.51-.55,3.28,3.28,0,0,0,.44,0l.2.4-.1.77-.11-.08a.36.36,0,0,0-.58.11,6.1,6.1,0,0,0,.19.75,1.09,1.09,0,0,1,.43-.57c0,.07.09.46.21,1.2a1.72,1.72,0,0,0,.28,1c.3.23.85.89,1,1,.11-.27.29-.68.55-1.18l.19.14.24.19c.41.31.7.43.81.35a13,13,0,0,1,.62,1.47l0,.22v.2c0,.22-.14.28-.31.16.07,0,0-.09-.3-.42l-.12,0a6.83,6.83,0,0,0,.51,1.72,3,3,0,0,1-1.85-.64,7.59,7.59,0,0,1-3-3.62l-.38.15a2.93,2.93,0,0,1-.73-1.79c0-.36.37-.71.39-.89a.51.51,0,0,0-.08-.4l.07.1c.07.06.12,0,.15-.19a1.49,1.49,0,0,0-.41-1.15,1.82,1.82,0,0,0,.25-.41,4.68,4.68,0,0,0,.49.56l.13-.09c.08-.64.09-1,0-1.16a6.15,6.15,0,0,1-.52-.64l-.07.19a2.81,2.81,0,0,0,.12,1l-.35-.72a1.37,1.37,0,0,1-1.33.34,1.73,1.73,0,0,1-.06-.78c0-.32.14-.5.27-.55a6.87,6.87,0,0,1-.23-1.06c.21-.08.32-.31.36-.62a1.86,1.86,0,0,0-.37-1.56,1.13,1.13,0,0,1,.1-.43.84.84,0,0,0,.61-.13l-.15-.42c.29-.08.63-.21,1-.34a.59.59,0,0,0-.24-.33.88.88,0,0,0-.58-.19c0-.25.08-.34.21-.4a7.35,7.35,0,0,1-.54-1.75,1.26,1.26,0,0,1,.78-1.1,9.2,9.2,0,0,1,.59,1.35H258a.7.7,0,0,1,0-.35,5.48,5.48,0,0,0-.81-1.85v-.09l.12-.31a.46.46,0,0,0-.17-.43c0-.18.14-.33.33-.53-.08-.32-.25-.84-.52-1.59.11.08.35.46.49.57h.12l-.15-.42.15.07c.08.06.12-.12.19-.12l-.56-.43.05-.41c0-.34.14-.43.41-.33a.27.27,0,0,1,.19-.26,4.57,4.57,0,0,1-.39-.69,2.66,2.66,0,0,1,.11-.87c-.05-.59-.14-1.49-.27-2.69a2.24,2.24,0,0,1,1-.4,2.18,2.18,0,0,0-.69-1.22l.33.25a3.36,3.36,0,0,0,.3-1.11c.07-.59.08-2.23.15-2.77s.25-1.05.51-1.2l-.08-.32.43-.57.05-.4a7.66,7.66,0,0,1,.61-2.28,2.5,2.5,0,0,0,1.09-.07l0-.18c.08-1,.68-1.32,1.89-1a6.92,6.92,0,0,1,2.5,1.23l.21.17.37.93c.21-.09.34-.19.36-.38.61.62,1.53,1.56,2.74,2.82.42.77.8,1.55,1.2,2.29a10.48,10.48,0,0,1,.86,2.4,23.32,23.32,0,0,1,0,6.36c-.07.54-.07,1.88-.14,2.38S270.74,123.08,270.67,123.63Zm-.76-10.47v0a3.75,3.75,0,0,1,.55,1.35,2.79,2.79,0,0,1,.48-.88,3.1,3.1,0,0,1-.47-1.36,5,5,0,0,0-.55.84M268.72,120a.63.63,0,0,1,.67.05.39.39,0,0,1,.15.36c0,.13-.16.37-.19.56,0-.13.18-.11.44,0a7.13,7.13,0,0,0-.46-1.43,2.61,2.61,0,0,0-.61.43m-9,18.67a7.37,7.37,0,0,0-.51-1.43,3.24,3.24,0,0,1,.09,1.21.79.79,0,0,1-.12.3l.53-.09m-2.21-7c.15.11.49.53.64.65l-.26-.8-.21-.16-.55-.42-.1.13a2.15,2.15,0,0,0,0,.59c0-.21.15-.19.44,0M270,116.48c-.18.12-.44.26-.75.48l.81.61-.06-1.09m-.64,5.94c.06-.2.23-.23.48,0l-.53-1.19a4.49,4.49,0,0,1,0,1.23M257.76,130a2.9,2.9,0,0,1,.63.43l-.34-.86a.59.59,0,0,0-.29.43m10.17-6.94.29-.38-.24-.33-.29.37.24.33m1-.08.2.3.29-.37-.21-.26-.28.33m-9.07,16.09,0,.27.55.12-.07-.35-.44,0m9.2-14.89.52.09,0-.33-.44,0,0,.27m-11.43,6.44-.23-.07.12.63.26.19-.15-.76m9.86-8.86.18.48.21-.09-.21-.52-.17.13M266,106.34l.21-.09-.22-.51-.18.11.18.48m4.59,10.13.1-.76-.26-.19-.1.76.26.19m-13.8,13.7,0,.36.44.33,0-.36-.44-.33"/><path d="M294.42,127.29a4.41,4.41,0,0,1,.07,1.3,17.78,17.78,0,0,1-.42,2.07,16.17,16.17,0,0,0-.43,2.11,18.67,18.67,0,0,1-1.11,2.39,4.49,4.49,0,0,1,.08.67,1.59,1.59,0,0,1-.85.35l-.19,1.49c.13.25.29.56.5,1.08a1.43,1.43,0,0,0-.08.37c0,.33,0,1.14-.05,1.36s-.29,1.57-.79,4c-.26,1.44-.7,3.6-1.3,6.38-.07.29-.37.46-.89.42a3.86,3.86,0,0,1,.27,2,5,5,0,0,1-.31,1.15,10.1,10.1,0,0,1-.38,1.06c-.07.29-.27,1.19-.5,2.7a7.51,7.51,0,0,1-.72,2.49,2.24,2.24,0,0,1-1.45-.34c-.26-.19-.78-.8-1-1s-.42.13-.68-.06a4.47,4.47,0,0,1-1.09-1.77l.32-2.49c.21-.1.46-.16.67-.24l.13-1a3.68,3.68,0,0,1,.67-1.09,1.92,1.92,0,0,1,.53-1,4,4,0,0,1-.65-1.54c-.15-.11-.24,0-.27.24a2.38,2.38,0,0,0-.51-1c-.33-.25-1.12-.39-1.45-.64s-.48-1-.73-1.21-.5-.13-1,0-.76.28-.83.47a7.67,7.67,0,0,0-.33,1.68c0,.05-.18.12-.56.28,0,.22.11.43.44.68a34.12,34.12,0,0,0-1.24,4,3.82,3.82,0,0,1-.69-.57,3.47,3.47,0,0,1-1.25-.65c-.46-.28-.81-.49-1-.67l-.22-.18a3.55,3.55,0,0,1-.58-2.42,12.06,12.06,0,0,0-.3-3.28,5.23,5.23,0,0,0,.18-.8,22.22,22.22,0,0,0-.13-4.38,25.22,25.22,0,0,1-.19-3.58,2.39,2.39,0,0,1,.59-1.44c.16,0,.37-.07.66-.14a.55.55,0,0,0-.17-.63c-.18-.14-.64-.28-.76-.37l-.69-22.46c.3-.72.9-.71,1.74-.08a4.46,4.46,0,0,1,1.65,1.94,32.82,32.82,0,0,1,0,4.46s-.27.24-.78.7c0,.4,0,1,.29,1.22.15.11.43.12.53.2a1.89,1.89,0,0,1,.12.74c0,.36-.32.6-.79.79a1.76,1.76,0,0,0,.59.8c0,.08-.19.2-.57.31a4,4,0,0,0,.17.88c.12,0,.22-.14.35-.29a5.7,5.7,0,0,0,.18,2.08,3.08,3.08,0,0,0,1,1.82.7.7,0,0,0,1-.08,5.26,5.26,0,0,1,.6-.89c1.19-.55,2.42-.11,3.78.31,0-.21-.42-.85-.37-1.22s.44-.61,1.12-.6a.58.58,0,0,0-.28-.56c-.26-.2-.43-.08-.47-.11l-.05-.24a1.14,1.14,0,0,1,.27-.19,1.08,1.08,0,0,0-.51-1.08l-.09-.09c-.06,0-.1,0-.1,0s-.06.1-.16,0a2.47,2.47,0,0,1-.71-1.42,8.56,8.56,0,0,0-.77.76,2.15,2.15,0,0,1-.12-1,10.41,10.41,0,0,1,.49-1c.06-.5.18-1.17.34-2.08.11.08.23.07.28,0a2,2,0,0,0-.12-.6,1.14,1.14,0,0,0,1.11.14c.07.35.58.88,1.56,1.63.26.2.27-.24.52-.05a5,5,0,0,1,.93,1.6c-.19,1.54-.53,2.13-1.05,1.74a.66.66,0,0,0,.33.75.41.41,0,0,0,.4.1,4.2,4.2,0,0,1-1.12.56,2,2,0,0,0,.66.85,1.89,1.89,0,0,1,.51-.27,1.49,1.49,0,0,1-.79.54,4.21,4.21,0,0,1,.84,2.27c-.09.42-.22.83-.37,1.36a5.32,5.32,0,0,1,.51.78,8.5,8.5,0,0,0,.5,2.67,5.39,5.39,0,0,0,1.13,2.45c.3.23.38-.11.42-.08l-.13,1a1.79,1.79,0,0,0,.37.62l.09-.13a3.38,3.38,0,0,0-.15-1l.35.72c.15.11.25,0,.3-.42.09.22.17.52.33.9l.47-.2c-.06-.2-.15-.46-.23-.78,0-.13.48,0,.52-.34.07-.59-.52-1.55-.5-1.77s.35-.88.39-1.19l.23.17a1.52,1.52,0,0,0,.56.28,3.9,3.9,0,0,0-.17-.87.58.58,0,0,1-.6-.05l.19-1.46a1,1,0,0,1,.37-.66,6.14,6.14,0,0,1,.07-.94c.05-.41.18-1,.32-1.85.32-1.59.15-2.47,1.13-2.53l.14.17c.33.25,1.12.64,1.42.87A1.83,1.83,0,0,1,294.42,127.29ZM276.77,131a1.12,1.12,0,0,1,1.15.16,5.47,5.47,0,0,0-.15-.7c-.22.13-.39.15-.53,0a1.71,1.71,0,0,1-.42-.52,2.55,2.55,0,0,0-.08-1.21c-.1.43-.28.58-.51.56a15.07,15.07,0,0,1,.55,1.66m-1.09,12.1.13.3.64-.26-.13-.3.12-.91-.26-.19-.12.91.26.19-.64.27m0,2.25.58.44c-.18-.78-.17-1.21,0-1.44a1.26,1.26,0,0,0-.57,1M284.11,128c0-.18.15-.58.18-.76a2.12,2.12,0,0,0,0-.37,2.77,2.77,0,0,1-.61-.26,2,2,0,0,0,.46,1.39m6.22,12.16a1.91,1.91,0,0,0,.3-.77l0-.33a3.86,3.86,0,0,1-.67.49,1.86,1.86,0,0,1,.41.61m-13.58,6a3.7,3.7,0,0,0,.87,1.4,1.52,1.52,0,0,1-.11-.82l-.77-.58m11.71,3.11a1.47,1.47,0,0,1,.64-.31l-.26-.19a.68.68,0,0,1-.22-.11.94.94,0,0,1-.28-.36,2.06,2.06,0,0,0,.12,1m3.22-13.68.24,0-.28-1h-.28l.32,1M287,148.21l.61,0-.12-.38-.6,0,.11.39m4-10.82a.69.69,0,0,1,.45,0l-.78-.84.33.86m-2.8.22-.22.09.34.81.22-.09-.34-.81m-11.45-2s-.3.58-.42.49l.22.17c.15.11.27.15.36.07a1.85,1.85,0,0,0-.16-.72M284,155.83l.57.19c-.14-.1-.15-.66-.27-.75s-.27.55-.31.56m-8.61-17.09.29-.39-.25-.29-.25.36.21.31m10.3,16.09.29-.39-.21-.25-.29.32.21.31m.4-.35.29-.37-.24-.28-.26.36.21.3m1.13-2.28-.25.4.21.27.28-.34-.24-.33m.62-3.21-.28.33.2.3.28-.38-.2-.25m3.39-15.34,0,.27.5.09-.07-.35h-.4m-4.35,21.58,0,.28.5.13,0-.33-.43-.08m-1.31.86.17-.07-.18-.48-.21,0,.22.52m1.4,1.26.2,0-.22-.51-.18.11.19.44m-3.76-36.22,0-.32-.59-.45,0,.32.59.45m5.6,22.68-.2,0,.22.47.17-.07-.19-.45"/><path d="M306.4,171.61a4.41,4.41,0,0,0,.48,1.91,1.79,1.79,0,0,0-.5.17,4.4,4.4,0,0,1-.53,1.34c-.26.46-.66.45-1.14.09-.3-.23-1-1.39-1.29-1.62a.59.59,0,0,0-.56,0l-.28-.66a8.56,8.56,0,0,1-.82-.52,16.12,16.12,0,0,1-1.37-1.28,12,12,0,0,0-1.32-1.3c-.18-.14-.24,0-.25.37a3.71,3.71,0,0,0-.26-.75,1.61,1.61,0,0,1-1.44-.44c-.07-.06-.32-.3-.75-.67a3.07,3.07,0,0,0-.28-.24,4,4,0,0,0-.54-.33l.05-.07a.58.58,0,0,0-.3-.51c-.26-.19-.28.24-.46.1s-.91-1.13-1.38-1.49l2.66-27c.14-1.43.25-2.94.31-4.65.08-1.92.12-2.88.13-2.94a3.55,3.55,0,0,1,.94-1.72,2.6,2.6,0,0,1,.9.52c1.77,1.29,4.42,3.15,8,5.7.4.3,1.39.77,1.83,1.1A4.41,4.41,0,0,1,310,139a6.93,6.93,0,0,1,.06,2.78c-.21,1.68-.74,2-2.06,1-.74-.56-1.83-1.43-3.29-2.6s-2.55-2.07-3.29-2.62c-.26-.19-.63-.09-1.06.44a2.52,2.52,0,0,0-.67,1.23.78.78,0,0,0,.2.61q0,1.17-.38,3.9a.75.75,0,0,1-.26.49,10.73,10.73,0,0,1-.12,2.25,1.85,1.85,0,0,0,.36.66c.18.14.39,0,.57.19s.66,1.19.91,1.38c.48.36,1.22.88,2.22,1.58s1.74,1.17,2.21,1.52c.66.5.9,1.48.72,2.89a6.26,6.26,0,0,1-.4,2c-.26.41-.73.35-1.47-.21-.58-.44-2-1.7-2.58-2.14a6.57,6.57,0,0,0-1.36-.68c-.72-.36-1.15-.49-1.28-.42a3.85,3.85,0,0,0-.66,1.44,10.18,10.18,0,0,0-.49,1.63,3.3,3.3,0,0,1,0,1.09,9.46,9.46,0,0,1-.69,2.27c0,.22-.18.55-.21.74a6,6,0,0,0,.1,1.38c.11.73.16,1.21.17,1.47h-.33l-.09.72.24.33.06-.14c0-.19,0-.52,0-.65l.58.44a11.09,11.09,0,0,1,.25,2.18c.28,0,.23-.58.36-.63s.06.13.07.4,0,.5.05.53l.37-.11,0,.22a1.26,1.26,0,0,0,.08.66,3.75,3.75,0,0,0,.58.14l-.28-.36.1-.76c.26.19.87-.19.91-.21l-.12,1a2.07,2.07,0,0,0,0,.5c.12-.05.23-.22.38-.51.76.29,1.26.26,1.47-.08a2.27,2.27,0,0,0,.55,1.31c.26.2.71.08.83.12a8.93,8.93,0,0,1,2.36,1.39A2.76,2.76,0,0,1,306.4,171.61Zm-8.15-2.92.63.43-.3-.82c-.18-.14-.28,0-.33.4m-.62-.82a2.46,2.46,0,0,0,.48.81c-.09-.08-.11-.2-.09-.41a.45.45,0,0,1,.11-.26.88.88,0,0,0-.51-.14m-1.73-1.55.17-.07-.18-.49-.2,0,.21.52"/><path d="M321.54,177.53c.72,5.07,1.07,7.51,1.08,7.64-.19,1.49-1.36,1.56-2.28.86a3.64,3.64,0,0,1-.62-.87,1.22,1.22,0,0,0-.17-.16l-.2-.12a1.45,1.45,0,0,1-.49-.22,2.7,2.7,0,0,1-.76-1.41,7,7,0,0,1-.21-1.2c.12,0,.24,0,.28-.33a24,24,0,0,0-.16-3.12l.44-.36-.22-.47s-.3.38-.43.28a5.49,5.49,0,0,0,.54-1.78s-.08-.71-.27-2-.23-2.27-.27-2.89a28.59,28.59,0,0,0-.2-3.54,4.72,4.72,0,0,0-1.41-3.15c-.26-.2-1-.39-1.37-.64,0,0,0,.18,0,.55a1.15,1.15,0,0,0-.53.7,9.39,9.39,0,0,1,0,1.5c-.06.5-.41.64-.47,1.14a51.22,51.22,0,0,0-.34,5.82,2.32,2.32,0,0,1-.1.81c-.1.48-.17.77-.19.95a3.85,3.85,0,0,0,.43,2.31c0,.15-.16.29-.38.46a2.51,2.51,0,0,0-.14,1.34c-.18.5-1.28.67-2,.14a6.79,6.79,0,0,1-1.79-2.09,5.58,5.58,0,0,1-.23-1.68c-.06-.19-.14-.5-.25-.88.1-.13.21-.33.36-.57q.08-1.07.6-6.57a2,2,0,0,0-.19-.44,3,3,0,0,0,.49-1.32c.17-1.31.38-3.34.69-6s.53-4.82.71-6.23c.21-1.62.36-3.21.47-4.76.09-1,.23-2.42.41-4.41a2.43,2.43,0,0,1-.17-.88c.25-1.95.89-2.56,2-1.76.26.19.52.59.78.79s.6-.2.85,0a17.33,17.33,0,0,1,1.24,1.29c.75.77,1.18,1.19,1.29,1.27.26.2.88,0,1.22.27a1.72,1.72,0,0,1,.41.91c.36.27.84.69,1.41,1.22.31.43.76,1,1.36,1.68a20.56,20.56,0,0,0,1.12,2.58c.12.68.43,2.06,1,4.23a.5.5,0,0,0-.13-.2.09.09,0,0,0-.13,0,9.64,9.64,0,0,0-.38,1.75,5.93,5.93,0,0,0,.17.58,39,39,0,0,1-.86,5.22A9.09,9.09,0,0,1,321.4,167c-.12,0-.25,0-.46.1,0,.48.19,2.67.61,6.63a7.44,7.44,0,0,0-.07,1.74C321.55,176.54,321.55,177.19,321.54,177.53Zm-2.4-15.94c.16,0,.81-.29,1.9-.7a4.29,4.29,0,0,1-.35-2.26,10.22,10.22,0,0,1,.4-1.59c-.13-.51-.18-.79-.12-.89.28,0,.39-.2.32-.69-.11-.69-.27-1.4-.38-2.08a3.58,3.58,0,0,0-.84-1.93c-.28-.21-.1.17-.36,0s0-.66-.8-1.24a6.29,6.29,0,0,0-2.25-1c-.43-.08-.83.31-1.18,1.14a20.46,20.46,0,0,0-.63,3.41,17.21,17.21,0,0,0,.07,3.88c.12.34.28.91.52,1.63a11.37,11.37,0,0,0,1.91,2,2.18,2.18,0,0,0,1.8.36m-.53,17.11.25-.35-.21-.26-.28.33.24.28m.89,0,.06-.5-.26-.19-.06.5.26.19"/><path d="M225,164.28l1.08,7.64c-.19,1.51-1.36,1.56-2.28.86a3.53,3.53,0,0,1-.62-.86.84.84,0,0,0-.16-.16.89.89,0,0,0-.2-.12,1.51,1.51,0,0,1-.49-.22,2.69,2.69,0,0,1-.75-1.41,5.6,5.6,0,0,1-.21-1.2c.11,0,.23,0,.27-.34a24.53,24.53,0,0,0-.16-3.11l.45-.35-.23-.48s-.29.39-.43.28a5.45,5.45,0,0,0,.55-1.78s-.07-.7-.26-2-.24-2.28-.28-2.9a29.18,29.18,0,0,0-.19-3.52,4.77,4.77,0,0,0-1.41-3.16c-.26-.2-1-.38-1.37-.63,0,0,0,.17,0,.55a1.07,1.07,0,0,0-.53.69,10,10,0,0,1,0,1.5c-.06.49-.41.63-.47,1.13a51.24,51.24,0,0,0-.33,5.82,3,3,0,0,1-.1.82c-.11.46-.18.76-.2.95a3.93,3.93,0,0,0,.43,2.31c0,.13-.15.28-.38.45a2.41,2.41,0,0,0-.13,1.35c-.19.51-1.29.67-2,.15a6.72,6.72,0,0,1-1.79-2.1,5.28,5.28,0,0,1-.22-1.66l-.25-.88c.09-.13.2-.35.35-.58,0-.72.24-2.9.59-6.57a1.56,1.56,0,0,0-.19-.44,2.92,2.92,0,0,0,.49-1.32c.17-1.32.38-3.35.69-6.05s.53-4.81.71-6.23c.21-1.63.37-3.2.49-4.76.08-1,.23-2.42.4-4.43a2.52,2.52,0,0,1-.17-.87c.25-2,.89-2.57,2-1.76.26.19.53.6.79.79s.58-.2.84,0a15.29,15.29,0,0,1,1.25,1.3c.74.75,1.17,1.17,1.28,1.25.26.2.88,0,1.22.27a1.73,1.73,0,0,1,.41.91,17.43,17.43,0,0,1,1.41,1.21c.31.43.76,1,1.36,1.67a17.69,17.69,0,0,0,1.12,2.58c.11.69.42,2.06,1,4.22a.57.57,0,0,0-.13-.2.1.1,0,0,0-.13,0,9.21,9.21,0,0,0-.38,1.76,5.23,5.23,0,0,0,.16.58,37.24,37.24,0,0,1-.86,5.22,9,9,0,0,1-2.14,3.3c-.11,0-.25,0-.46.11,0,.48.19,2.68.61,6.63a7.61,7.61,0,0,0-.06,1.74C225,163.29,225,163.94,225,164.28Zm-2.4-15.93c.16,0,.8-.29,1.9-.71a4.31,4.31,0,0,1-.36-2.26,9.21,9.21,0,0,1,.41-1.59,1.77,1.77,0,0,1-.13-.89c.28,0,.39-.2.34-.69-.12-.68-.27-1.4-.38-2.08a3.57,3.57,0,0,0-.84-1.93c-.29-.22-.1.18-.36,0s0-.68-.81-1.26a6.3,6.3,0,0,0-2.24-1c-.44-.08-.84.3-1.19,1.13a20.51,20.51,0,0,0-.63,3.41,17.11,17.11,0,0,0,.07,3.88c.12.34.29.91.52,1.64a11.55,11.55,0,0,0,1.91,2,2.23,2.23,0,0,0,1.81.37m-.52,17.11.25-.37-.21-.26-.27.34.24.28m.89,0,.06-.5-.26-.2-.06.5.26.2"/><path d="M242.1,182.74a4.28,4.28,0,0,0,.48,1.91,2.36,2.36,0,0,0-.51.17,4.33,4.33,0,0,1-.53,1.34c-.26.45-.66.44-1.13.09-.29-.22-1-1.4-1.28-1.62-.11-.08-.31-.07-.57,0l-.28-.66a5.78,5.78,0,0,1-.82-.52,16.18,16.18,0,0,1-1.36-1.28,11.75,11.75,0,0,0-1.32-1.3c-.18-.14-.25,0-.24.36a4.5,4.5,0,0,0-.27-.75,1.62,1.62,0,0,1-1.43-.44c-.08-.06-.33-.29-.76-.67l-.26-.21a3.62,3.62,0,0,0-.55-.34l.06-.06a.59.59,0,0,0-.3-.53c-.26-.19-.27.24-.45.1s-.91-1.13-1.38-1.49l2.66-27c.14-1.43.26-2.95.3-4.65.08-1.93.13-2.89.13-2.93a3.56,3.56,0,0,1,.94-1.73,2.75,2.75,0,0,1,.9.54c1.76,1.27,4.42,3.14,8,5.69.41.31,1.4.76,1.84,1.09a4.48,4.48,0,0,1,1.73,2.24,7,7,0,0,1,0,2.78c-.21,1.68-.74,2-2.06,1-.74-.56-1.82-1.42-3.29-2.59s-2.55-2.07-3.28-2.62c-.26-.2-.64-.08-1.07.44a2.53,2.53,0,0,0-.67,1.23.79.79,0,0,0,.2.61q0,1.17-.37,3.89a.73.73,0,0,1-.26.5,10.35,10.35,0,0,1-.12,2.25,1.87,1.87,0,0,0,.36.67c.18.14.39,0,.57.17s.65,1.2.91,1.39c.48.36,1.22.87,2.21,1.57s1.74,1.16,2.22,1.52c.66.5.9,1.48.72,2.88a6.26,6.26,0,0,1-.41,2c-.26.41-.73.35-1.46-.21s-2-1.71-2.58-2.15a7.27,7.27,0,0,0-1.36-.68,2.77,2.77,0,0,0-1.27-.42,3.91,3.91,0,0,0-.67,1.44,11.76,11.76,0,0,0-.49,1.62,3.26,3.26,0,0,1,0,1.11,9.71,9.71,0,0,1-.68,2.26c0,.23-.19.56-.21.74a6,6,0,0,0,.11,1.36c.11.73.16,1.22.17,1.47h-.32l-.09.73.24.33.06-.15c0-.18,0-.5,0-.64l.59.44a11.25,11.25,0,0,1,.25,2.17c.28,0,.23-.58.36-.62s.06.15.07.4a1.29,1.29,0,0,0,0,.53l.38-.11,0,.22a1.22,1.22,0,0,0,.08.65,4.79,4.79,0,0,0,.59.15l-.28-.37.1-.77c.26.19.87-.19.91-.2l-.12.95a2.52,2.52,0,0,0,0,.52c.13-.06.23-.23.39-.5.76.27,1.25.24,1.46-.1a2.26,2.26,0,0,0,.56,1.31c.26.19.7.09.82.13a8.56,8.56,0,0,1,2.36,1.39A2.77,2.77,0,0,1,242.1,182.74Zm-8.15-2.92.63.43-.3-.83c-.18-.14-.28,0-.33.4m-.62-.82a2.12,2.12,0,0,0,.5.83c-.11-.08-.14-.21-.11-.43a.53.53,0,0,1,.12-.26,1.05,1.05,0,0,0-.51-.14m-1.73-1.56.18-.07-.19-.49-.2,0,.22.51"/><path d="M257.3,190.7a5,5,0,0,1-.08.94,2.82,2.82,0,0,1-.26.74l0,.28a19.92,19.92,0,0,0-1.74,1.37,2.59,2.59,0,0,1-1.7.75,9.85,9.85,0,0,1-3.85-2,23.48,23.48,0,0,1-1.48-2c-.85-1.24-1.39-2-1.56-2.32a7.89,7.89,0,0,1-.72-2.28c-.22-.47-.42-1.07-.69-1.82a13.19,13.19,0,0,1-.08-3.44l.48-3.77a4.24,4.24,0,0,1,.11-.57l.1-.76a3.38,3.38,0,0,0-.08-.91c0-.16.07-.29.3-.47,0,0,.06-.45.22-1.38a9.74,9.74,0,0,0,.16-1.57,3.47,3.47,0,0,0-.27-1.65l.18.11a.74.74,0,0,1,.24.31,1.75,1.75,0,0,0,.41,0c-.05.06,0,.28,0,.58,0,0,.39-.15.58-.15a.9.9,0,0,0-.25-.88,1.69,1.69,0,0,0-.64-.33c.12-.05.11-.26-.07-.71,0-.13.49-.08.7-.16a1.1,1.1,0,0,0-.37-.45l-.23-.15a6.22,6.22,0,0,1,.3-1.77c0-.08-.05-.24-.14-.5a10,10,0,0,1,.1-1.12,1,1,0,0,1,.62-.78l.14-1.09a2.13,2.13,0,0,0-.39-.71,1.37,1.37,0,0,0,.37-.65c0-.32-.39-1-.33-1.54a13.5,13.5,0,0,1,1-3.33A2.76,2.76,0,0,1,249.8,155a2.9,2.9,0,0,1,3.08.14l.11.1a2.65,2.65,0,0,0,.75.35c.59.4,1.38.94,2.37,1.69a5.62,5.62,0,0,1,1.22,1.82,10.67,10.67,0,0,0,1.45,2.23c.2.65.55,1.66,1,3a7,7,0,0,1,.22,3c-.14,1.14-1.23,1.11-2.07.47a10.45,10.45,0,0,1-1.83-2.28,1.1,1.1,0,0,0,.13-.36,5.21,5.21,0,0,0-.95-2.75,6.87,6.87,0,0,0-1.28-1.86c-.19-.14-.38-.25-.5-.18l-.25-.6a3,3,0,0,0-.8.6,1,1,0,0,0-1.12.25,4.63,4.63,0,0,0-.61,2c0,.1,0,1-.07,2.79s-.1,3.06-.14,3.66a33.79,33.79,0,0,0-.47,3.43c0,.27-.11.87-.26,1.74a18.71,18.71,0,0,0-.26,2,14.6,14.6,0,0,0-.06,2,8,8,0,0,0-.69,2.61,26.59,26.59,0,0,0-.09,4.85,9.06,9.06,0,0,0,1.63,2.08,2.46,2.46,0,0,0,1,.52,1.06,1.06,0,0,0,1.18-1.05,1,1,0,0,0,0-.35c.44.33,1.06-.44,1.48-.27a22.38,22.38,0,0,1,2.41,1.67A4.46,4.46,0,0,1,257.3,190.7Zm-9.14-18.59c.13-.06.54-.45.66-.5-.07-.06-.19,0-.4,0a2,2,0,0,0-.51-.78c0,.18.27,1.1.25,1.24m-.6-.06a2.13,2.13,0,0,0-.66-.75c.1.08.12.24.08.55.13,0,.33,0,.58.19m-.73,5.77.29-.39-.21-.26-.28.33.2.31m2.34-7.64,0-.37-.74-.56,0,.37.74.56m-2.38,3.17-.11.27.38.53.11-.21-.37-.59M256.91,162l-.09.73.29.22.09-.73-.29-.22"/><path d="M265.16,200.36a1.37,1.37,0,0,1-.59,1.11l0-.19a1,1,0,0,0-.09-.56,1.86,1.86,0,0,1-.47.28,6.52,6.52,0,0,0,.39-.59C264.58,200.16,264.82,200.16,265.16,200.36Z"/><path d="M274.4,186.15c-.07.54-.17,1.35-.28,2.53s-.21,1.93-.28,2.52c-.13,1-.4,2.49-.84,4.39s-.67,3.37-.8,4.42c-.06.49-.15,1.82-.21,2.33-.17,1.32-.5,2.05-1,2.3a6.57,6.57,0,0,0-1.46.78c.06-.21.64-.61.71-1.15l0-.28a1.28,1.28,0,0,0-.76.53,4.18,4.18,0,0,1-.31-.68,6.18,6.18,0,0,1-.65.06,2.35,2.35,0,0,1,.55,1.4c-.57-.28-1.21-.71-1.55-.22,0-.22-.1-1.07-.06-1.39a.59.59,0,0,1,.46-.5,4.17,4.17,0,0,0,.7-.07s-.2-.64-.56-1.92a.43.43,0,0,0-.19.2,5.06,5.06,0,0,1,.07,1c-.25-.25-.64-.64-1.1-1.18.45.28,1.15-.48,1.55-.17a1.13,1.13,0,0,1,.32.39l.23-.57a2.18,2.18,0,0,0-.32-.34c-.18-.14-.37-.18-.52,0l.07-.59a1.77,1.77,0,0,1,.48-1.18l2.81-22.16a1.29,1.29,0,0,0-.46-.53.86.86,0,0,1,.41-.68,16.71,16.71,0,0,0-.62-1.87c-.26-.44-.52-.94-.78-1.42a4.83,4.83,0,0,0-.77-1.19,1.85,1.85,0,0,0-2.49-.07,3.7,3.7,0,0,0-1.25,2.54,22.36,22.36,0,0,0-.28,6c-.35-.07-.55.22-.64.91-.06.5-.05,1.7-.11,2.1s-.14,1.09-.21,2l-.25,1.95c-.13,1-.29,1.92-.42,2.66a10,10,0,0,0-.54,1.44c-.08.63-.16,1.57-.24,2.85s-.16,2.22-.24,2.8a1.06,1.06,0,0,1-.4.65,2.16,2.16,0,0,1,0,.46c-.08.59-.27.89-.6.89.05.24.17.58.32,1a1.62,1.62,0,0,0,.29-.73.74.74,0,0,1,.51-.55c.12,0,.24,0,.45,0l.19.39-.1.78-.11-.08a.36.36,0,0,0-.58.1c0,.16.11.43.19.73a1.36,1.36,0,0,1,.44-.56,9.66,9.66,0,0,1,.21,1.2,1.7,1.7,0,0,0,.29,1c.29.22.85.89,1,1,.11-.26.29-.68.55-1.18l.18.14.25.2c.41.31.7.43.81.35a12.4,12.4,0,0,1,.62,1.47l0,.22v.21c0,.22-.14.27-.32.15.07,0,0-.09-.3-.42h-.12a6.79,6.79,0,0,0,.51,1.73,2.92,2.92,0,0,1-1.85-.65,7.58,7.58,0,0,1-3-3.61l-.38.16a2.91,2.91,0,0,1-.73-1.8c0-.36.37-.72.39-.9a.54.54,0,0,0-.07-.4l.07.1c.07.06.12,0,.15-.18a1.54,1.54,0,0,0-.42-1.17,1.28,1.28,0,0,0,.26-.4,5.19,5.19,0,0,0,.49.57l.13-.1c.08-.64.1-1,0-1.16s-.35-.41-.52-.64l-.07.19a2.91,2.91,0,0,0,.12,1l-.35-.72a1.43,1.43,0,0,1-1.33.34,1.79,1.79,0,0,1-.07-.79c0-.32.14-.49.27-.55a7,7,0,0,1-.22-1.07c.22-.08.32-.3.36-.62a1.9,1.9,0,0,0-.36-1.56,1.35,1.35,0,0,1,.1-.43.72.72,0,0,0,.61-.13l-.15-.41c.29-.07.64-.22,1-.35a.62.62,0,0,0-.24-.33,1,1,0,0,0-.58-.19.35.35,0,0,1,.21-.39,7.53,7.53,0,0,1-.54-1.75,1.24,1.24,0,0,1,.78-1.1,9.46,9.46,0,0,1,.59,1.34h.13a.62.62,0,0,1,0-.35,5.48,5.48,0,0,0-.8-1.85v-.09l.12-.3a.46.46,0,0,0-.18-.45,1,1,0,0,1,.34-.53c-.07-.3-.25-.84-.52-1.59.11.08.34.46.49.57h.13l-.16-.41.15.06c.08.06.11-.12.18-.11L261,182l.05-.41c0-.34.14-.45.4-.35a.31.31,0,0,1,.19-.26,4,4,0,0,1-.39-.68,3,3,0,0,1,.11-.86c0-.58-.13-1.5-.27-2.7a2.56,2.56,0,0,1,1-.41,2.22,2.22,0,0,0-.69-1.21l.33.25a3.26,3.26,0,0,0,.3-1.11c.08-.59.08-2.22.15-2.78s.26-1,.51-1.2l-.08-.31.43-.57.05-.41a7.78,7.78,0,0,1,.62-2.28,2.6,2.6,0,0,0,1.09-.06l0-.18c.08-1,.69-1.33,1.89-1a6.88,6.88,0,0,1,2.46,1.21l.26.2.36.91c.21-.08.35-.18.37-.36.61.61,1.53,1.55,2.74,2.81.43.77.81,1.56,1.2,2.31a9.85,9.85,0,0,1,.85,2.38,23,23,0,0,1,0,6.37c-.07.54-.08,1.88-.14,2.38S274.47,185.61,274.4,186.15Zm-.76-10.47v0a3.82,3.82,0,0,1,.55,1.37,2.48,2.48,0,0,1,.47-.89,3,3,0,0,1-.47-1.35,4.9,4.9,0,0,0-.55.83m-1.19,6.86a.65.65,0,0,1,.67.06.41.41,0,0,1,.15.36c0,.14-.17.38-.19.55,0-.13.18-.11.44,0a7.56,7.56,0,0,0-.46-1.44,3,3,0,0,0-.62.43m-9,18.66a7.8,7.8,0,0,0-.5-1.42A3.35,3.35,0,0,1,263,201a.76.76,0,0,1-.12.32l.53-.11m-2.21-7c.15.11.5.52.65.63l-.26-.79-.22-.16-.55-.42-.1.13a2.11,2.11,0,0,0,0,.57c0-.2.15-.17.44,0M273.69,179c-.17.12-.43.27-.74.48l.81.61-.07-1.09m-.62,5.94c.06-.2.23-.22.48,0l-.53-1.19a4.15,4.15,0,0,1,0,1.22m-11.58,7.62s.22.12.62.42l-.33-.84a.57.57,0,0,0-.29.42m10.17-6.94.29-.37-.24-.34-.3.38.24.33m1-.09.21.31.29-.38-.2-.26-.29.33m-9.07,16.09,0,.28.55.11-.08-.36-.43,0m-2.23-8.45-.23-.09.13.65.26.19-.15-.75m11.44-6.44.51.08,0-.32-.44,0,0,.28m-3-17.87.21-.09-.22-.51-.18.11.18.48m1.46,15.43.18.48.21-.09-.22-.51-.18.11m3.13-5.29.1-.78-.26-.2-.1.78.26.2m-13.81,13.69,0,.36.45.34,0-.36-.45-.34"/><polygon points="265.98 200.88 266.19 200.83 266.4 201.35 266.2 201.39 265.98 200.88"/><path d="M260.86,184.43l0,0,0,0Z"/><polygon points="260.05 197.54 260.23 197.43 260.55 198.28 260.39 198.35 260.05 197.54"/><path d="M287.4,211.43l1.08,7.64c-.19,1.51-1.36,1.56-2.28.86a3.45,3.45,0,0,1-.61-.86.88.88,0,0,0-.17-.16.93.93,0,0,0-.2-.12,1.42,1.42,0,0,1-.49-.22,2.71,2.71,0,0,1-.75-1.41,6.23,6.23,0,0,1-.21-1.2c.11,0,.23,0,.28-.34a24,24,0,0,0-.17-3.11l.45-.35-.22-.48s-.28.39-.43.28a5.46,5.46,0,0,0,.54-1.78s-.06-.69-.26-2-.23-2.27-.27-2.89a30,30,0,0,0-.2-3.53,4.76,4.76,0,0,0-1.41-3.16c-.26-.2-1-.38-1.37-.63,0,0,0,.17,0,.55a1.1,1.1,0,0,0-.52.7,10,10,0,0,1,0,1.5c-.06.49-.4.63-.47,1.14a51,51,0,0,0-.33,5.81,3,3,0,0,1-.1.82c-.1.47-.18.76-.2.95a3.88,3.88,0,0,0,.43,2.32c0,.13-.16.27-.38.45a2.37,2.37,0,0,0-.12,1.35c-.19.51-1.3.67-2,.15a6.68,6.68,0,0,1-1.79-2.1,5.35,5.35,0,0,1-.23-1.67c0-.19-.14-.5-.25-.88.1-.13.21-.35.36-.58,0-.72.24-2.9.59-6.57a1.73,1.73,0,0,0-.19-.43,3.09,3.09,0,0,0,.49-1.32c.17-1.32.38-3.35.69-6.05s.53-4.81.71-6.23c.21-1.63.37-3.2.49-4.76.08-1,.23-2.42.4-4.43a2.52,2.52,0,0,1-.17-.87c.25-2,.89-2.57,1.95-1.77.26.19.52.59.79.79s.59-.2.84,0a15.09,15.09,0,0,1,1.24,1.3c.75.76,1.18,1.18,1.29,1.26.26.2.88,0,1.21.27a1.72,1.72,0,0,1,.41.92,17.71,17.71,0,0,1,1.41,1.21c.31.43.76,1,1.36,1.67a17.61,17.61,0,0,0,1.12,2.58c.11.69.42,2.06,1,4.22a.55.55,0,0,0-.13-.2.09.09,0,0,0-.13,0,9.21,9.21,0,0,0-.38,1.76,5.23,5.23,0,0,0,.16.58,38.07,38.07,0,0,1-.86,5.22,9.07,9.07,0,0,1-2.15,3.3c-.11,0-.24,0-.45.11,0,.48.18,2.68.61,6.62a7.91,7.91,0,0,0-.06,1.74C287.4,210.45,287.41,211.1,287.4,211.43ZM285,195.5c.17,0,.81-.29,1.9-.71a4.34,4.34,0,0,1-.36-2.26,9.79,9.79,0,0,1,.41-1.59c-.15-.5-.19-.78-.13-.89.28,0,.39-.2.33-.7-.12-.68-.26-1.4-.39-2.08a3.57,3.57,0,0,0-.83-1.92c-.3-.23-.11.17-.36,0s0-.67-.81-1.26a6.35,6.35,0,0,0-2.24-1c-.43-.08-.84.3-1.19,1.13a20.51,20.51,0,0,0-.63,3.41,17.11,17.11,0,0,0,.07,3.88c.12.34.29.91.52,1.64a11.6,11.6,0,0,0,1.92,2,2.2,2.2,0,0,0,1.8.37m-.52,17.12.25-.37-.21-.26-.28.34.24.28m.89,0,.06-.5-.26-.2-.06.5.26.2"/><polygon points="298.84 224.31 299.08 223.95 299.32 224.23 299.04 224.61 298.84 224.31"/><path d="M296.92,224.5a1.94,1.94,0,0,1-.36-1.31l.58.44C297.09,224.13,297,224.42,296.92,224.5Z"/><path d="M302.71,202.83s0,0,0,0h0Z"/><polygon points="300.61 193.51 300.57 193.49 300.58 193.44 300.62 193.47 300.61 193.51"/><path d="M293.31,225.75s0,0,0,0a.36.36,0,0,1,0-.11A.4.4,0,0,0,293.31,225.75Z"/><path d="M305.48,209.68a4.34,4.34,0,0,0-.54,2,16.18,16.18,0,0,1,.95,1.61,1.65,1.65,0,0,0-.31-.29c-.43-.32-.7-.22-.85.19a10.22,10.22,0,0,1-.13,1.16s.06.12.11.39a2.19,2.19,0,0,1-.18,1.11,1.31,1.31,0,0,0,.37.87l-1.37,10.8-.34-.15c-.15-.11-.23-.09-.22.18s0,.55,0,.64a12.4,12.4,0,0,1-2.64,1.5,2.1,2.1,0,0,1-1.35-.09c-.19-.14-1-.68-2.41-1.62s-2.19-1.41-2.31-1.5-.53-.85-.79-1-.23-.12-.24,0,0,.2,0,.26a2.3,2.3,0,0,0-.48-.93c-.15-.11-.23-.12-.23-.08s-.09,0-.24-.08-.17-.23-.11-.33a.69.69,0,0,0,0-.36l-.35.18L290.52,223c0-.32,0-1.41,0-1.72a13.16,13.16,0,0,1,.48-1.59,20.59,20.59,0,0,0,.63-2.15,13,13,0,0,1,.21-2.28c.24-.64.39-.92.43-.9a1.61,1.61,0,0,0-.17-.8,2.6,2.6,0,0,1,0-.5c0-.14.45,0,.57-.07l.09-.73a4,4,0,0,1-.45-1.49.94.94,0,0,1,.26-.45,11,11,0,0,1-.09-1.21c.23-.17.36-.32.39-.5a9.37,9.37,0,0,0-.3-1.77l.09-.72a1.06,1.06,0,0,0,.54.16.5.5,0,0,0,.53-.29,1.14,1.14,0,0,0-.22-.22,2,2,0,0,0-.75-.33,2.8,2.8,0,0,1,1.39.12,30.68,30.68,0,0,0-1.42-2.81c.26-.46.76-.58,1.49-.37a4.25,4.25,0,0,0,.82-.76c0-.17.14-.14.18-.51l-.12-.29a7,7,0,0,0-.34-2.4c-.23.13-.38.16-.43.13a2.32,2.32,0,0,0-.65-1.84c.06-.7.18-1.66.36-2.87s.37-2.25.44-2.8a6.44,6.44,0,0,0-.08-1.2,6.37,6.37,0,0,1-.1-1.12,2.34,2.34,0,0,1,1-1.52l1.28.67a28.58,28.58,0,0,1,2.89,3.28c.12-.05.34-.44.47-.55-.06.5-.14.79-.22.83a.68.68,0,0,0,.29.56,2.29,2.29,0,0,0,1.65.35l.28.66c.12-.06.17-.18.2-.4a2.14,2.14,0,0,0,.55,1.41c.29.22.18-.11.43.08s.4,1,.66,1.19a.59.59,0,0,0,.71.09,5.11,5.11,0,0,0,.45,1.23c.19.39.39.74.58,1.13a.48.48,0,0,1-.41.39c.08.26.1.48.19.74a.81.81,0,0,0,.77-.31,11.67,11.67,0,0,0,.32,2.52c-.16,0-.26.15-.29.37.38.49.8.95.75,1.32a4.14,4.14,0,0,1-.92,1.94,10.91,10.91,0,0,1,.15,1.66,2.66,2.66,0,0,0-.47,1.19,2.33,2.33,0,0,0-.29,1.08C305.32,209,305.39,209.36,305.48,209.68Zm-4.94,15.12a1.56,1.56,0,0,0,.11-.52.7.7,0,0,1-.5-.18c-.18-.14-.25-.24-.2-.35l.15-.18c.22-.18.33-.36.3-.52a27.93,27.93,0,0,0,.53-3.13c.34-5.87.66-10,1-12.36,0-.36.43-1.51.46-1.75.25-2,.38-3,.36-3,.16-.76.37-1.22.66-1.34a2.64,2.64,0,0,1-.54-1.11c0-.26,0-.61.06-1a5.14,5.14,0,0,0-1.11-2.68c-.3-.23-.66-.25-.84-.39a2.3,2.3,0,0,1-.71-1.42c-.43-.07-1-.22-1.8-.36a3.67,3.67,0,0,1-.56.27,34,34,0,0,0-1,5,7.43,7.43,0,0,0,.1,2.42c-.13.66-.26,1.69-.47,3.08-.19,1.2-.3,2.06-.37,2.65s-.15,1.19-.24,2.16-.13,1.69-.19,2.14a6.78,6.78,0,0,1-.92,2.6,2.37,2.37,0,0,1,0,1.61c0,.16.39.69.37.87l-.3.18a.23.23,0,0,0-.32,0,3.06,3.06,0,0,1-.1.82c-.08.23-.17.32-.24.26a1.09,1.09,0,0,1-.09,1.32,7.68,7.68,0,0,1,.59,1.05c-.08,0-.15.23-.2.64a3.13,3.13,0,0,1,.91-.17c.09.22.11.33.07.36s-.48,0-.5.17a1,1,0,0,1,.27.35,15.86,15.86,0,0,1-1.62.07,2.77,2.77,0,0,0,.67,1c.11.09.15.07.16,0l0-.29.16,0,.44.33a2.27,2.27,0,0,1,.8,1.05,1.43,1.43,0,0,1,0-.37c0-.22.18-.25.48,0-.11-.08.17.23.85.89.09-.18.23-.23.34-.15a4.29,4.29,0,0,0,1,1.62s-.1-.47-.35-1.41c.19,0,.56-.42.8-.23a2.23,2.23,0,0,0,.54.8,1.45,1.45,0,0,1,.27-.84.8.8,0,0,0,.24.35l.11.06a.87.87,0,0,1-.15-.4c0-.1.13-.11.33-.1s.24,0,.35.07m-4.79-26.16.77.58a5.11,5.11,0,0,1,0-1.45,5.52,5.52,0,0,0-.75.88m-1.62-2.47.55.42c.13-.06.24-.36.31-.86-.51,0-.81.08-.86.44m6.06-3,0,.36.44.33,0-.32.26.19.07-.54-.29-.22-.06.5-.4-.3m-1.05,33.33h.28l-.32-1-.24,0,.28,1m-2,.73.18-.16-.52-.93-.14.19.48.91m6.67-30.42a3.46,3.46,0,0,0,.82.56.7.7,0,0,1-.31-.72l-.51.17m-7.28,28.86.2.31.28-.64-.21-.16-.27.49m-4.05-5.14.47-.19-.54-.41c.11.08.12.29.08.61m3.72-19.82.51.08,0-.32-.44-.08,0,.32m5.95,23.45.21-.05-.22-.51-.17.08.18.48m-7.05-26.48,0-.36-.44-.33,0,.36.44.33"/><path d="M313.73,235.92s0,0,.05,0a.34.34,0,0,1,.1.13A.81.81,0,0,0,313.73,235.92Z"/><path d="M313.94,236.17l-.06-.11a.43.43,0,0,1,.06.09Z"/><path d="M314.35,207.62a3,3,0,0,0-.79,2.09c0,.24-.37,1-.41,1.34a6.13,6.13,0,0,0,.16,2.56,14.23,14.23,0,0,0,.62,2,.46.46,0,0,1-.34.48,2.21,2.21,0,0,0,.61.61c-.16,0-1,.52-1.24.3a2.2,2.2,0,0,1-.36-.37l-.15-.07a1,1,0,0,0,.06.54s.74.12,2.13.31a1.86,1.86,0,0,0,0,.65.36.36,0,0,0,.19-.3c.59,1.09,1.32,2.58,2.24,4.58q1.65,4.6,2.35,7.15a.85.85,0,0,1-.1.76c.1.22.21.56.41,1.16a10,10,0,0,0-.18,2c0,1.09,0,1.58,0,1.61,0,.19-.41.73-.44,1a.66.66,0,0,0,.17.53,12.37,12.37,0,0,0-1.17,3.54,1.28,1.28,0,0,0-.81.34,4.06,4.06,0,0,1-.87.53c0,.07.08.26.17.58A2,2,0,0,1,316,241a2.55,2.55,0,0,1-.17.38c-.21.38-.38.11-1.12-.4l-.74-.56s-.47.24-.79,0c-.15-.11-.6-.41-1.38-.94s-1.18-.79-1.33-.9a10.16,10.16,0,0,1-2-2.22,16.35,16.35,0,0,1-1.32-2.54,11.33,11.33,0,0,1-1-6.11c.24-1.86.61-2.28,2.18-1.09a5.26,5.26,0,0,1,.84.74,10.89,10.89,0,0,1,1,1.6,27,27,0,0,0,.4,3.14,5.45,5.45,0,0,0,.93,2.19c.26.19.68,1,.94,1.16s.57,0,.86.2.41,1,.43,1a.3.3,0,0,0,.32-.26.34.34,0,0,0,0-.2c.32-.31.68-.62,1-1a2.38,2.38,0,0,0,.7-1.4,2.69,2.69,0,0,0-.23-1.42,1.26,1.26,0,0,0,.49-.32,21.91,21.91,0,0,1,.12-2.25,13.47,13.47,0,0,0-.44-1.83c-.59-1.39-1.47-3.6-2.66-6.63l.4-.94a1.48,1.48,0,0,0,.07.71.67.67,0,0,0,.27.14c.3-.12.4-.94.59-1.15l-.13-.24a7.27,7.27,0,0,1-.72-1c0-.13.53-.08.74-.18,0,0-.13-.45-.29-1.17l-.2,0a.3.3,0,0,0-.19.2c0,.13.12.29.38.48a1.56,1.56,0,0,1-.68-.29,1.43,1.43,0,0,1-.36-.4l-.52.22a1.65,1.65,0,0,0,.46.5.42.42,0,0,0-.24.57,3.76,3.76,0,0,1-.39-.26l-.53-.43c-1.93-2.8-2.57-6.67-1.93-11.72a10.16,10.16,0,0,1,.36-1.81,7.79,7.79,0,0,0,.62-1.08c.12-.05.37-.07.66-.15a4.73,4.73,0,0,1-.43-.77s.32-.25.61,0,.44.28.46.18c.05-.7.27-1.18.74-1.37a2.77,2.77,0,0,1,1.76,0,6.16,6.16,0,0,1,2.12,1,15.4,15.4,0,0,1,1.23,1c-.1.17,0,.32.22.51s.13-.35.38-.16a24.34,24.34,0,0,1,1.58,2.49,24.71,24.71,0,0,1,1.63,2.92c.14.55.24,1,.33,1.53a4,4,0,0,0,.74,1.8l-.5,3.92a1.78,1.78,0,0,1-1,.1,4.26,4.26,0,0,1-.89-.58c-.26-.19-1.3-1.18-1.63-1.43s-.26-.49-.33-.8a8,8,0,0,0-.22-3,5.13,5.13,0,0,0-1.62-3.07A1.5,1.5,0,0,0,314.35,207.62Zm-3.1-3.77c.11.09.75.12.86.2l-.37-.83a.73.73,0,0,1-.48.63"/><polygon points="325.44 223.22 341.09 246.88 340.77 249.42 322.37 247.37 322.77 244.23 338.36 246.25 338.37 246.16 325.04 226.34 325.44 223.22"/><polygon class="cls-24" points="247.65 207.99 268.09 207.05 299.28 223.18 305 240.03 303.36 247.01 312.71 232.82 337.63 232.05 362.78 236.08 346.63 292.05 254.47 248.16 247.65 207.99"/><polygon class="cls-25" points="226.11 217.36 219.86 223.18 249.45 248.94 271.01 251.27 287.35 233.42 286.24 220.87 263.59 208.57 226.11 217.36"/><polygon class="cls-26" points="281.28 238.5 286.24 220.87 300.04 241.67 297.04 257.93 289.68 261.03 281.28 238.5"/><polygon class="cls-27" points="281.28 238.5 297.04 257.93 284.99 272.14 278.98 253.22 281.28 238.5"/><polygon class="cls-28" points="262.13 245.71 281.28 238.5 284.99 272.14 281.7 272.69 271.12 274.54 257.94 256.9 262.13 245.71"/><polygon class="cls-6" points="247.87 261.66 247.65 261.91 262.13 245.71 271.12 274.54 262.13 272.48 245.11 264.31 247.87 261.66"/><polygon class="cls-7" points="247.65 261.91 262.13 272.48 246.69 271.66 229.97 270.87 232.89 258.82 247.65 261.91"/><polygon class="cls-8" points="208.89 244.07 216.48 256.87 219.86 223.18 208.89 244.07"/><polygon class="cls-9" points="221.53 259.13 226.54 251.23 232.58 263.76 229.97 270.87 221.53 259.13"/><polygon class="cls-10" points="226.54 251.23 247.65 261.91 232.58 263.76 226.54 251.23"/><polygon class="cls-11" points="219.86 223.18 228.06 209.52 240.89 207.05 263.59 208.57 251.6 212.2 219.86 223.18"/><polygon class="cls-29" points="244.26 231.7 278.91 240.37 267.61 225.79 246.39 223.73 244.26 231.7"/><polygon class="cls-25" points="140.94 181.56 138.19 194.4 151.26 209.07 182.45 192.27 195.71 185.47 194.82 180.68 175.25 167.66 140.94 181.56"/><polygon class="cls-30" points="192.6 181.23 194.6 181.23 210.02 201.47 202.38 204.13 199.89 202.18 192.6 181.23"/><polygon class="cls-31" points="192.82 180.68 205.95 201.14 195.33 210.73 188.93 193.01 192.82 180.68"/><polygon class="cls-28" points="175.25 190.15 192.82 180.68 200.91 205.7 195.33 210.73 174.81 213.45 171.85 194.41 175.25 190.15"/><polygon class="cls-6" points="163.67 196.23 163.49 196.32 175.25 190.15 182.55 201.14 174.81 213.45 154.92 206.45 163.67 196.23"/><polygon class="cls-7" points="163.49 197 163.49 197 164.96 210.27 140.94 201.82 151.51 195.83 163.49 197"/><polygon class="cls-8" points="132.03 189.52 138.19 194.4 140.94 181.56 132.03 189.52"/><polygon class="cls-9" points="142.29 195.26 146.36 192.25 151.26 197.03 149.14 199.74 142.29 195.26"/><polygon class="cls-10" points="146.36 192.25 163.49 196.32 151.26 197.03 146.36 192.25"/><polygon class="cls-11" points="140.94 181.56 147.59 176.35 158.01 175.41 176.44 175.99 166.7 177.38 140.94 181.56"/><polygon class="cls-25" points="308.14 247.58 296.06 254.71 289.54 295.93 350.87 306.67 394.81 289.08 426.35 267.24 424.22 251.88 388.95 232.82 308.14 247.58"/><polygon class="cls-32" points="414.64 273.45 424.22 251.88 450.86 277.34 445.06 297.22 430.85 301.02 414.64 273.45"/><polygon class="cls-33" points="414.64 273.45 445.06 297.22 421.8 314.61 410.21 291.47 414.64 273.45"/><polygon class="cls-28" points="377.67 282.27 414.64 273.45 421.8 314.61 415.44 315.28 395.03 317.55 369.59 295.96 377.67 282.27"/><polygon class="cls-6" points="350.13 301.79 349.71 302.1 377.67 282.27 395.03 317.55 377.67 315.03 344.81 305.04 350.13 301.79"/><polygon class="cls-7" points="349.71 302.1 377.67 315.03 347.85 314.02 315.58 313.06 321.21 298.31 349.71 302.1"/><polygon class="cls-8" points="274.89 280.26 289.54 295.93 296.06 254.71 274.89 280.26"/><polygon class="cls-9" points="299.28 298.69 308.96 289.03 320.62 304.36 315.58 313.06 299.28 298.69"/><polygon class="cls-10" points="308.96 289.03 349.71 302.1 320.62 304.36 308.96 289.03"/><polygon class="cls-11" points="296.06 254.71 311.9 237.99 336.67 234.97 380.5 236.83 357.35 241.27 296.06 254.71"/><polygon class="cls-29" points="343.18 265.13 410.06 275.74 388.24 257.9 347.29 255.38 343.18 265.13"/><path class="cls-34" d="M132.33,439.28,23.17,494.17,170,583l130-55.21a5.44,5.44,0,0,0,.53-9.75L149.44,433.35C145,430.79,136.91,437,132.33,439.28Z"/><polygon class="cls-2" points="145.87 527.83 135.13 528.79 149.64 551.43 171.4 559.54 171.3 575.12 208.6 548.92 192.45 535.37 145.87 527.83"/><polygon class="cls-3" points="191.22 556.32 208.6 548.92 211.29 558.89 195.06 571.29 184.97 570.52 191.22 556.32"/><polygon class="cls-4" points="191.22 556.32 195.06 571.29 172.33 574.68 171.39 560.11 191.22 556.32"/><polygon class="cls-6" points="139.25 557.42 138.85 557.47 165.57 553.85 155.67 571.46 147.33 567.52 134.46 557.88 139.25 557.42"/><polygon class="cls-7" points="138.85 557.47 147.33 567.52 131.16 562.14 113.6 556.37 124.96 551.16 138.85 557.47"/><polygon class="cls-8" points="109.02 535.93 108.52 544.9 135.13 528.79 109.02 535.93"/><polygon class="cls-9" points="112.45 547.67 123.25 545.25 121.26 553.58 113.6 556.37 112.45 547.67"/><polygon class="cls-10" points="123.25 545.25 138.85 557.47 121.26 553.58 123.25 545.25"/><g class="cls-12"><polygon class="cls-13" points="22.43 379.98 33.42 373.8 31.41 490.17 20.41 496.35 22.43 379.98"/><polygon class="cls-14" points="67.38 504.47 67.29 509.83 57.21 503.82 57.3 498.45 67.38 504.47"/><polygon class="cls-15" points="87.85 516.69 87.76 522.05 73.76 513.7 73.85 508.33 87.85 516.69"/><polygon class="cls-16" points="47.23 480.59 47.14 485.95 29.43 475.38 29.52 470.02 47.23 480.59"/><polygon class="cls-16" points="64.19 465.82 64.09 471.19 46.39 460.62 46.48 455.26 64.19 465.82"/><polygon class="cls-16" points="48.44 411.21 48.34 416.57 30.64 406 30.73 400.64 48.44 411.21"/><path class="cls-17" d="M25.83,369a6.66,6.66,0,0,1,3,5.29c0,1.93-1.41,2.69-3.07,1.69a6.67,6.67,0,0,1-2.95-5.29C22.8,368.76,24.17,368,25.83,369Z"/><path class="cls-18" d="M34.16,374a6.67,6.67,0,0,1,3,5.29c0,1.93-1.41,2.69-3.07,1.69a6.66,6.66,0,0,1-2.94-5.28C31.13,373.73,32.51,373,34.16,374Z"/><polygon class="cls-14" points="89.7 457.41 89.6 462.77 71.91 452.21 72 446.85 89.7 457.41"/><polygon class="cls-19" points="65.98 413.02 65.89 418.37 30.48 397.24 30.57 391.89 65.98 413.02"/><polygon class="cls-16" points="56.28 425.89 56.19 431.25 38.48 420.68 38.58 415.32 56.28 425.89"/><polygon class="cls-19" points="120.57 487.07 120.47 492.44 55.92 453.91 56.01 448.55 120.57 487.07"/><polygon class="cls-15" points="120.18 475.61 120.09 480.97 95.44 466.26 95.54 460.9 120.18 475.61"/><polygon class="cls-15" points="153.25 530.84 153.15 536.2 54.75 477.46 54.84 472.1 153.25 530.84"/><polygon class="cls-19" points="141.86 499.78 141.77 505.15 125.1 495.2 125.19 489.84 141.86 499.78"/><path class="cls-20" d="M22.43,380l141.07,84.2-2,116.37L20.41,496.35ZM153.15,536.2l.09-5.36L54.84,472.1l-.09,5.36,98.41,58.74ZM55.92,453.91l64.55,38.53.09-5.36L56,448.54l-.09,5.36Zm-25.35-62-.09,5.35,35.41,21.13L66,413,30.57,391.89ZM88.76,440.7l.09-5.36L53.56,414.27l-.09,5.36L88.76,440.7Zm6.78,20.2-.09,5.36L120.09,481l.09-5.36L95.54,460.9ZM30.64,406l17.71,10.57.09-5.36L30.73,400.64,30.64,406Zm-1.11,64-.09,5.36L47.14,486l.09-5.36L29.52,470Zm17-14.76-.09,5.36,17.7,10.57.09-5.37L46.48,455.26Zm79.25,23.66-.09,5.36,17.71,10.57.09-5.36-17.71-10.57Zm-87.15-63.6-.09,5.36,17.7,10.57.09-5.36-17.7-10.57Zm26,27.11-17.7-10.57-.1,5.36L64.5,447.79l.09-5.36Zm25,20.35.09-5.36L72,446.85l-.09,5.36L89.6,462.77Zm35.59,27.06-.09,5.36,16.66,9.95.09-5.36-16.67-9.95ZM87.76,522.05l.09-5.36-14-8.35-.09,5.36,14,8.35Zm-37-22.1.09-5.36-12.61-7.53-.09,5.36L50.73,500Zm16.56,9.88.09-5.36-10.08-6-.09,5.36,10.08,6Z"/><polygon class="cls-16" points="64.59 442.43 64.5 447.79 46.8 437.22 46.89 431.86 64.59 442.43"/><polygon class="cls-15" points="53.47 419.64 88.76 440.7 88.85 435.33 53.56 414.27 53.47 419.64"/><path class="cls-21" d="M164.87,445.86,21.72,360.41c-2-1.22-3.75-.3-3.79,2.07L15.65,494a8.22,8.22,0,0,0,3.64,6.5L162.43,586c2,1.22,3.74.3,3.78-2.07l2.28-131.57A8.22,8.22,0,0,0,164.87,445.86ZM42.5,378.94a6.66,6.66,0,0,1,2.94,5.28c0,1.93-1.41,2.69-3.06,1.7a6.66,6.66,0,0,1-3-5.29c0-1.93,1.41-2.69,3.07-1.69Zm-8.34-5a6.67,6.67,0,0,1,3,5.29c0,1.93-1.41,2.69-3.07,1.69a6.66,6.66,0,0,1-2.94-5.28c0-1.93,1.41-2.69,3.06-1.7Zm-8.33-5a6.66,6.66,0,0,1,3,5.29c0,1.93-1.41,2.69-3.07,1.69a6.67,6.67,0,0,1-2.95-5.29c0-1.93,1.41-2.69,3.07-1.69ZM161.48,580.54,20.41,496.35l2-116.37,141.07,84.2-2,116.37Z"/><polygon class="cls-16" points="50.82 494.59 38.21 487.06 38.12 492.42 50.73 499.95 50.82 494.59"/><path class="cls-22" d="M42.5,378.94a6.65,6.65,0,0,1,2.94,5.28c0,1.93-1.41,2.69-3.06,1.7a6.66,6.66,0,0,1-3-5.29C39.46,378.7,40.84,377.95,42.5,378.94Z"/><polygon class="cls-14" points="143.44 489.49 143.34 494.85 125.64 484.28 125.73 478.92 143.44 489.49"/><path class="cls-23" d="M171.53,444.66c0-.05,8.12,4.31-144.89-87a2.65,2.65,0,0,0-2.66-.3l-4.92,2.77a2.64,2.64,0,0,1,2.66.3c151.62,90.5,143.3,85.47,143.94,86l.25.23a8.63,8.63,0,0,1,2.5,4.61,5.74,5.74,0,0,1,.1,1.08l-2.28,131.57a2.61,2.61,0,0,1-1.12,2.37c3.67-2.06,1.32-.63,5-2.68a2.6,2.6,0,0,0,1.12-2.37l2.23-131.65A8.14,8.14,0,0,0,171.53,444.66Z"/><polygon class="cls-22" points="22.43 379.98 20.41 496.35 161.48 580.54 163.5 464.18 22.43 379.98"/></g><polygon class="cls-35" points="26.2 495.31 42.74 495.96 77.66 513.03 92.16 520.69 95.44 535.49 96.31 546.07 21.68 501.98 26.2 495.31"/><polygon class="cls-25" points="59.01 520.58 55.72 523.64 71.28 537.18 82.62 538.41 91.21 529.03 90.63 522.43 78.72 515.96 59.01 520.58"/><polygon class="cls-36" points="88.02 531.7 90.63 522.43 96.31 546.07 96.31 546.07 92.43 543.54 88.02 531.7"/><polygon class="cls-37" points="88.02 531.7 96.31 546.07 89.97 549.38 86.81 539.44 88.02 531.7"/><polygon class="cls-28" points="77.95 535.49 88.02 531.7 89.97 549.38 88.24 549.67 82.68 550.65 75.75 541.37 77.95 535.49"/><polygon class="cls-8" points="2.2 483.63 12.27 479.84 14.22 497.53 12.49 497.82 0.27 511.39 0 489.52 2.2 483.63"/><polygon class="cls-6" points="70.45 543.88 70.33 544 77.95 535.49 82.68 550.65 77.95 549.56 69 545.27 70.45 543.88"/><polygon class="cls-6" points="1.72 509.99 1.61 510.12 13.27 496.3 13.95 516.76 9.22 515.68 0.27 511.39 1.72 509.99"/><polygon class="cls-7" points="70.33 544 77.95 549.56 69.83 549.13 61.04 548.72 62.57 542.38 70.33 544"/><polygon class="cls-8" points="49.95 534.62 53.94 541.36 55.72 523.64 49.95 534.62"/><polygon class="cls-9" points="56.6 542.54 59.23 538.39 62.41 544.98 61.04 548.72 56.6 542.54"/><polygon class="cls-10" points="59.23 538.39 70.33 544 62.41 544.98 59.23 538.39"/><polygon class="cls-11" points="55.72 523.64 60.03 516.46 66.78 515.16 78.72 515.96 72.41 517.87 55.72 523.64"/><polygon class="cls-29" points="68.56 528.12 86.77 532.68 80.83 525.01 69.67 523.93 68.56 528.12"/><polygon class="cls-25" points="14.22 501.76 12.78 508.51 19.65 525.72 43.54 534.58 52.84 556 70.33 545.91 77.95 535.49 74.3 515.16 51.17 501.76 42.55 501.29 15.95 476.74 10.4 479.9 14.22 501.76"/><polygon class="cls-7" points="26.08 509.88 26.08 509.88 37.23 521.04 26.62 528.31 19.24 530.58 3.28 515.98 19.78 509.26 26.08 509.88"/><polygon class="cls-7" points="41.7 523.59 41.7 523.59 52.84 534.75 48.47 545.93 29.84 540.4 22 531.53 37.23 521.04 41.7 523.59"/><polygon class="cls-8" points="12.59 508.71 14.22 512.41 17.27 504.53 12.59 508.71"/><polygon class="cls-9" points="14.93 508.96 17.07 507.38 19.65 509.89 18.54 511.31 14.93 508.96"/><polygon class="cls-10" points="17.07 507.38 26.08 509.52 19.65 509.89 17.07 507.38"/><polygon class="cls-11" points="14.22 501.76 17.72 499.02 23.2 498.52 32.89 498.83 27.77 499.56 14.22 501.76"/><polygon class="cls-6" points="20.69 529.18 20.58 529.32 32.24 515.49 32.92 535.96 28.19 534.87 19.24 530.58 20.69 529.18"/><polygon class="cls-38" points="301.65 426.01 327.37 429.29 367.36 460.71 336.63 471.53 301.65 426.01"/><polygon class="cls-39" points="424.37 500.29 367.39 460.71 336.68 471.53 404.59 495.47 424.37 500.29"/><polygon class="cls-40" points="374.47 410.78 327.37 429.29 301.65 426.01 289.5 391.72 359.86 368.72 374.47 410.78"/><polygon class="cls-41" points="399.81 407.2 374.47 410.78 359.86 368.72 395.68 345.9 399.81 407.2"/><polygon class="cls-42" points="633.46 510.61 538.57 542.53 534.43 517.25 539.67 513.76 598.18 497.58 633.46 510.61"/><polygon class="cls-43" points="625.27 475.04 650.42 499.13 633.46 510.61 598.18 497.58 625.27 475.04"/><path class="cls-44" d="M499.68,361.31,383.89,419.53l155.78,94.23,58.52-16.18L625.27,475l52.32-19.84a5.77,5.77,0,0,0,.57-10.35L517.82,355C513.11,352.29,504.54,358.86,499.68,361.31Z"/><polygon class="cls-45" points="512.48 388.81 570.76 427.85 560.32 463.49 507.17 449.87 512.48 388.81"/><g class="cls-12"><polygon class="cls-13" points="383.1 298.4 394.77 291.84 392.63 415.28 380.96 421.83 383.1 298.4"/><polygon class="cls-14" points="430.78 430.45 430.69 436.14 420 429.76 420.1 424.07 430.78 430.45"/><polygon class="cls-15" points="452.5 443.41 452.4 449.1 437.55 440.24 437.65 434.55 452.5 443.41"/><polygon class="cls-16" points="409.41 405.12 409.31 410.81 390.53 399.6 390.63 393.91 409.41 405.12"/><polygon class="cls-16" points="427.4 389.46 427.3 395.15 408.52 383.94 408.62 378.25 427.4 389.46"/><polygon class="cls-16" points="410.69 331.53 410.59 337.22 391.81 326.01 391.91 320.32 410.69 331.53"/><path class="cls-17" d="M386.72,286.75a7.07,7.07,0,0,1,3.13,5.61c0,2-1.49,2.85-3.26,1.8a7.07,7.07,0,0,1-3.13-5.61C383.49,286.5,385,285.69,386.72,286.75Z"/><path class="cls-18" d="M395.55,292a7.07,7.07,0,0,1,3.13,5.61c0,2-1.49,2.85-3.26,1.8a7.06,7.06,0,0,1-3.12-5.6C392.34,291.78,393.8,291,395.55,292Z"/><polygon class="cls-14" points="454.46 380.54 454.36 386.23 435.59 375.02 435.69 369.33 454.46 380.54"/><polygon class="cls-19" points="429.3 333.45 429.2 339.13 391.64 316.71 391.74 311.04 429.3 333.45"/><polygon class="cls-16" points="419.01 347.1 418.91 352.78 400.13 341.57 400.23 335.89 419.01 347.1"/><polygon class="cls-19" points="487.2 412 487.1 417.69 418.63 376.82 418.73 371.13 487.2 412"/><polygon class="cls-15" points="486.8 399.84 486.7 405.53 460.55 389.92 460.65 384.23 486.8 399.84"/><polygon class="cls-15" points="521.87 458.42 521.77 464.11 417.38 401.81 417.48 396.12 521.87 458.42"/><polygon class="cls-19" points="509.79 425.48 509.69 431.17 492.01 420.62 492.11 414.93 509.79 425.48"/><path class="cls-20" d="M383.1,298.4l149.64,89.31L530.6,511.15,381,421.84ZM521.77,464.11l.1-5.69L417.48,396.12l-.1,5.69,104.38,62.3ZM418.63,376.82l68.47,40.87.1-5.69-68.47-40.87-.1,5.69ZM391.74,311l-.1,5.67,37.56,22.42.1-5.67L391.74,311Zm61.72,51.77.1-5.69-37.43-22.34-.1,5.69,37.43,22.34Zm7.19,21.43-.1,5.69,26.14,15.61.1-5.69-26.14-15.61ZM391.81,326l18.78,11.21.1-5.69-18.78-11.21-.1,5.69Zm-1.18,67.9-.1,5.69,18.78,11.21.1-5.69-18.78-11.21Zm18-15.66-.1,5.69,18.78,11.21.1-5.69-18.78-11.21Zm84.06,25.1-.1,5.69,18.78,11.21.1-5.69-18.78-11.21Zm-92.44-67.47-.1,5.69,18.78,11.21.1-5.69-18.78-11.21Zm27.59,28.76-18.78-11.21-.1,5.69,18.78,11.21.1-5.69Zm26.53,21.58.1-5.69-18.77-11.2-.1,5.69,18.77,11.2Zm37.75,28.71-.1,5.69,17.68,10.55.1-5.69-17.68-10.55ZM452.4,449.1l.1-5.69-14.85-8.86-.1,5.69,14.85,8.86Zm-39.28-23.44.1-5.69-13.38-8-.1,5.69,13.38,8Zm17.56,10.48.1-5.69-10.69-6.38-.1,5.69,10.69,6.38Z"/><polygon class="cls-16" points="427.83 364.64 427.73 370.33 408.95 359.12 409.05 353.43 427.83 364.64"/><polygon class="cls-15" points="416.03 340.47 453.46 362.81 453.56 357.12 416.13 334.77 416.03 340.47"/><path class="cls-21" d="M534.19,368.28,382.35,277.65c-2.17-1.29-4-.32-4,2.2L375.91,419.4a8.71,8.71,0,0,0,3.86,6.9l151.84,90.63c2.17,1.29,4,.32,4-2.2L538,375.17A8.72,8.72,0,0,0,534.19,368.28Zm-129.8-71a7.06,7.06,0,0,1,3.12,5.6c0,2-1.49,2.85-3.25,1.8a7.06,7.06,0,0,1-3.13-5.61c0-2,1.49-2.85,3.26-1.8ZM395.55,292a7.07,7.07,0,0,1,3.13,5.61c0,2-1.49,2.85-3.26,1.8a7.07,7.07,0,0,1-3.11-5.6c0-2,1.49-2.85,3.24-1.8Zm-8.83-5.27a7.07,7.07,0,0,1,3.13,5.61c0,2-1.49,2.85-3.26,1.8a7.07,7.07,0,0,1-3.13-5.61c0-2,1.49-2.85,3.26-1.8ZM530.6,511.15,381,421.84,383.1,298.4l149.64,89.31L530.6,511.15Z"/><polygon class="cls-16" points="413.22 419.97 399.85 411.99 399.75 417.68 413.12 425.66 413.22 419.97"/><path class="cls-22" d="M404.39,297.3a7.06,7.06,0,0,1,3.12,5.6c0,2-1.49,2.85-3.25,1.8a7.06,7.06,0,0,1-3.13-5.61C401.17,297,402.63,296.24,404.39,297.3Z"/><polygon class="cls-14" points="511.46 414.56 511.36 420.25 492.58 409.04 492.68 403.35 511.46 414.56"/><path class="cls-23" d="M541.26,367c0-.06,8.61,4.57-153.69-92.3a2.81,2.81,0,0,0-2.83-.32l-5.22,2.94a2.8,2.8,0,0,1,2.83.32c160.82,96,152,90.66,152.69,91.25l.26.25a9.15,9.15,0,0,1,2.65,4.88,6.09,6.09,0,0,1,.1,1.14l-2.42,139.56a2.77,2.77,0,0,1-1.19,2.52c3.89-2.19,1.4-.66,5.29-2.85a2.76,2.76,0,0,0,1.19-2.52l2.36-139.65A8.63,8.63,0,0,0,541.26,367Z"/><polygon class="cls-22" points="383.1 298.4 380.96 421.83 530.6 511.15 532.74 387.71 383.1 298.4"/></g><polygon class="cls-46" points="443.19 529.2 404.59 495.47 424.37 500.29 452.76 517.01 443.19 529.2"/><polygon class="cls-47" points="538.57 542.53 443.19 529.2 452.76 517.01 534.43 517.25 538.57 542.53"/><polygon class="cls-48" points="560.32 463.49 598.18 497.58 625.27 475.04 570.76 427.85 560.32 463.49"/><polyline class="cls-49" points="375.91 419.4 371.33 423.05 377.61 428.33 383.89 441.83 413.22 452.41 427.01 471.53 456.12 480.5 486.8 496.56 512.42 505.47 500.9 490.31 484.68 480.5 467.15 475.04 460.55 469.34 440.27 457.24 423.88 444.18 414.46 441.83 403.49 435.28 397.22 434.55 387.86 426.85 375.91 419.4"/><polygon class="cls-8" points="361.86 426.01 371.33 423.05 377.61 428.33 372.43 439.53 361.86 426.01"/><polygon class="cls-9" points="384.22 442.01 377.61 450.77 373.22 442.01 372.43 439.53 377.61 428.33 384.22 442.01"/><polygon class="cls-50" points="413.22 452.41 399.97 468.36 377.61 450.53 384.22 442.01 413.22 452.41"/><polygon class="cls-8" points="413.22 452.41 425.8 469.85 417.96 483.08 399.97 468.36 413.22 452.41"/><polygon class="cls-6" points="425.8 469.85 417.96 483.08 452.5 495.47 456.12 480.5 427.01 471.53 425.8 469.85"/><polygon class="cls-38" points="452.5 495.47 475.14 496.89 476.32 490.69 456.12 480.5 452.5 495.47"/><polygon class="cls-51" points="475.14 496.89 486.8 496.56 476.32 490.69 475.14 496.89"/><path d="M400.72,369a1.63,1.63,0,0,1,.14.37c.12.36.25.81.38,1.34s.25,1,.35,1.47.11.66,0,.62l-6.76-1.22,2,2c.69.68,1.34,1.31,1.94,1.92l1.64,1.67c.48.5.87.91,1.14,1.22.07.06.09.27,0,.61a10.69,10.69,0,0,1-.16,1.08q-.12.56-.24,1t-.18.33l-11.52-11.2c0-.08,0-.28,0-.63s0-.71,0-1.09,0-.71,0-1,0-.42.08-.4c.47,0,1.23.11,2.27.24s2.14.31,3.3.52,2.27.41,3.3.63a14.67,14.67,0,0,1,2.27.64C400.71,369,400.71,369,400.72,369Z"/><path d="M414,368.13a4.75,4.75,0,0,1,.23,1.7c0,1.37-.36,1.87-1.11,1.44a7.53,7.53,0,0,1-.74-.58,6.68,6.68,0,0,0-.7-.56,1,1,0,0,0-.87-.17,4.78,4.78,0,0,0-.85.56,5.76,5.76,0,0,0,.09.73,2.31,2.31,0,0,1-.74-.88c-.16.21-.13.45.1.73a3.89,3.89,0,0,1,0,.58c-.23,0-.36,0-.36.05l.22.39a.46.46,0,0,1,.45,0c0,.06-.23.24-.68.5,0,0,0,.12.09.28.26.15.39.08.39-.18,0,.11.35.72.38.86,0,.42-.16,1.5-.17,2,.09.21.19.49.35.84s0,.8,0,1.62v5.17c0,.29-.26.86-.26,1.11s.29,1.13.29,1.32a.8.8,0,0,1-.13.4,3.66,3.66,0,0,1,.13,1.2c0,.76,0,1.21.06,1.33s-.19.82-.19,1.16a9.84,9.84,0,0,0,.29,1.09c.06.67.09,1.21.09,1.69,0,1.75-.39,2.41-1.2,1.94-.1-.06-.42-.2-1-.49l-1-.48a2.28,2.28,0,0,1-.9-1.3,4.48,4.48,0,0,1-.29-1.55l1.06-20.2a3.78,3.78,0,0,0-.38-2.23c-.67-.76-1.07-1.17-1.1-1.19s-.42-.17-1-.38a8.89,8.89,0,0,1-1-.41c-.68-.39-1-1.42-1-3a3.92,3.92,0,0,1,.26-1.38c.23-.58.52-.74.91-.52s.62.55.84.68.81.73,1,.82c1,.58,1.59.92,1.81,1a5.05,5.05,0,0,0,.29.73,5.16,5.16,0,0,1,.81.06,5.15,5.15,0,0,0,1.07.77,20.06,20.06,0,0,0,1.94.93c.78.34,1.16.48,1.13.46A2.8,2.8,0,0,1,414,368.13Zm-6.86-2.7c.23.62.39,1.09.48,1.4,0-.1.23-.46.59-1.08a4.35,4.35,0,0,1-.75.17l-.32-.49m2.59,1.46v-.78c-.2.14-.55,0-1.07-.25.26.26.62.58,1.07,1m-.56,1.13c0-.18.17-.79.17-1,0,0-.2.07-.56.24.13.07.35.69.38.74m-1.11,16.78.71,0-.09-.28-.61,0v.26M408,367v.29l.81.47v-.29L408,367m.86,4.4v-.6l-.26-.15v.6l.26.15m-.41-3.73-.26-.15v.6l.26.15v-.6"/><g class="cls-12"><polygon points="424.9 396.31 425.06 395.99 425.26 396.18 425.1 396.54 424.9 396.31"/><path d="M426.36,374.08a2.58,2.58,0,0,1,1.19,1.74c0,.18,0,.24-.07.23a.3.3,0,0,0-.19,0c0,.61,0,1.28-.07,1.89-.1.8-.32,1.26-.68,1.43,0,.15.13.29.42.46,0,.1-.23.84-.63,2.13a1.53,1.53,0,0,1,.1.4c-.1.53-.23,1.33-.36,2.39a51.53,51.53,0,0,1-1.1,7.9,8,8,0,0,1,.07,1l-.52.15.84,1.45c-.13.07-.36,0-.71-.19V396c0,.47,0,.77,0,1s-.32.37-.36.64a13.87,13.87,0,0,0,0,1.49c.07.89.1,1.47.1,1.73a4,4,0,0,1-.33,1.85,1.09,1.09,0,0,1-.94-.13c-.22-.13-.25-.49-.48-.62s-1-.26-1.29-.41a3.1,3.1,0,0,1-.55-.73,9.29,9.29,0,0,0-.65-1,1.38,1.38,0,0,0,.1-1.1,4.19,4.19,0,0,1-.19-.45,23.87,23.87,0,0,0-.86-5.22c-.13-.59-.42-2.25-.83-4.91-.29-1.77-.86-6.19-1.75-13.26-.06-.48-.25-1.56-.6-3.21-.32-1.5-.48-2.33-.48-2.47,0-.56.33-.7,1-.47.13,0,.54.28,1.26.7a4.1,4.1,0,0,1,1.36,1.34c.22,1.06.47,2.66.8,4.74a.81.81,0,0,0-.1.47,6.33,6.33,0,0,0,.19,1.22c.16.65.25,1,.26,1l.29,2.07a2.93,2.93,0,0,0,1.39,1.88c.74.43,1,0,1.3-1.82.16-.69.39-1.75.62-3.22,0-.72,0-1.46,0-2.16,0-1.07.16-1.66.39-1.71S425.26,373.44,426.36,374.08Zm-4.87,27.12.35-.21-.16-.28-.36.2.17.28m.2-2.16.42,0-.09-.28h-.32V399M426,380.77l.39,0-.06-.27H426v.22"/></g><polygon points="447.69 413.9 447.86 413.78 448.34 414.43 448.21 414.57 447.69 413.9"/><polygon points="443.63 409.69 443.82 409.73 444.02 410.29 443.79 410.15 443.63 409.69"/><polygon points="442.44 407.33 442.44 407.11 442.99 407.61 442.92 407.83 442.44 407.33"/><path d="M453.72,416.63c0,.28.19,1.19.19,1.53a2.19,2.19,0,0,1-.26,1c-.23.35-.49.46-.78.29a12.61,12.61,0,0,1-1.26-1.14c-.68-.69-1.1-1.15-1.26-1.36a1.72,1.72,0,0,0-.48-.69,2.15,2.15,0,0,0-1.17.15,2.33,2.33,0,0,1-1.17.11c-.1-.05-.13-.12-.13-.15l.06-.12a.51.51,0,0,0-.16-.2c-.42-.24-1.59-.43-2-.67a3.49,3.49,0,0,1-.75-.92,5.57,5.57,0,0,0-.61-.84c-.16-.09-.16.09-.32,0a2.58,2.58,0,0,1-.87-1.65l-.1.28a10.59,10.59,0,0,1-1.64-4.75c0-.39,0-1.88,0-4.48a2.35,2.35,0,0,1,.23-1.06,1.5,1.5,0,0,1-.12-.67,1.86,1.86,0,0,1,.09-.62.76.76,0,0,0-.29-.3l-.13-.06v-4.12l.23-.2c.07-2,.11-3.24.11-3.88,0-1,0-1.8-.1-2.55a2.6,2.6,0,0,0,.07-.59c0-3.83,2.21-4.93,5.55-3,2.72,1.57,4.46,4.17,5.23,7.86a9.59,9.59,0,0,1,.28,2.43L451.26,412a6.65,6.65,0,0,0,.32,1.94,3.41,3.41,0,0,0,.94,1.4A13.52,13.52,0,0,1,453.72,416.63Zm-4.73-1,.13-.71a1.78,1.78,0,0,1-.49-.62.28.28,0,0,1-.12.26l-.1-.24a.85.85,0,0,1,0-.2,1.54,1.54,0,0,0,.43-.28,2,2,0,0,1-.55-.91,3.4,3.4,0,0,0,.42-.12c-.22-.17-.33-.26-.33-.38s.07-.18.16-.28a2.42,2.42,0,0,0,.39.56.77.77,0,0,1,.39-.26,1.46,1.46,0,0,1,.13.71l.23-.8a.47.47,0,1,0-.9-.23l-.23-.4a19.53,19.53,0,0,1,.4-2.6l.35.2c.12.26.29.62.48,1.1,0-.34.07-.52.2-.59-.29-.28-.71-.74-1.26-1.39V408a2.13,2.13,0,0,0,.42-.13,1.18,1.18,0,0,1-.38-.56c0-.07,0-.61-.09-1.58a9.71,9.71,0,0,1,0-1.52s-.23-.13-.23-.44.16-.28.19-.38a17.68,17.68,0,0,1,.07-2.11c-.35-.2-.54-.43-.54-.69l.19,0a1.25,1.25,0,0,1,.35.46,15.51,15.51,0,0,1-.12-2.11c0-.49,0-1,.07-1.38,0-.26.24-.87.24-1.17s-.32-1.56-.32-2a.57.57,0,0,1,0-.17l.42.35-.87-2.62a4.1,4.1,0,0,0-1.48-2.24,3,3,0,0,0-2.2-.6,11.16,11.16,0,0,1-.63,2.1v2.08c0,.41.22,1.39.22,1.8,0,.56-.06,1.31-.17,2.33s-.17,1.76-.17,2.28c0,1.82,0,2.79,0,2.88l.3.06a.73.73,0,0,0-.4.59,1.88,1.88,0,0,0,.49.91l0,.2c-.26,0-.42,0-.46.18,0,0,0,.3,0,.9a.8.8,0,0,1-.23.66,3.2,3.2,0,0,0-.38-1l-.36.16a3.87,3.87,0,0,0,.58,1.68l-.16-.05c-.17-.1-.52-.56-.68-.65,0,.14.1.5.1.65l0,.16a3,3,0,0,1-.29-.58c0,.18-.13.34-.36.47.1.21.26.52.49,1a1.24,1.24,0,0,0,.26,0l.1.18-.23.13a1.42,1.42,0,0,1-.29-.36l-.17.69a3.5,3.5,0,0,1,.55.92l-.26.22c.23,0,.85-.14,1-.06a23.47,23.47,0,0,1,1.25,2.1,3.55,3.55,0,0,1-.43.47,1.65,1.65,0,0,1,.39.41l0-.2a.22.22,0,0,1,.13-.23,4,4,0,0,0,1.1,1.41c0,.06.09.31.32.71,0-.06,0-.17-.06-.3s.1,0,.19,0c-.07,0,0,.14.16.49a1.15,1.15,0,0,0,.46.46.21.21,0,0,0-.1.27l.13,0c.1.05.26.23.36.28a.8.8,0,0,0,.45-.52l-.19-.08a.89.89,0,0,1-.23-.24,1.45,1.45,0,0,1,1.07,0c.1.05.16.12.13.18v.1a2.8,2.8,0,0,0,.61.62m-7.05-13a.14.14,0,0,0-.2,0,1.69,1.69,0,0,1,.78,1v-.18a.94.94,0,0,1,0-.24c0-.27.35-1,.35-1.28-.13-.07-.48.09-.62,0l.07.15a.54.54,0,0,1,0,.24.61.61,0,0,1,0,.29.23.23,0,0,1-.1.2l-.17-.1-.09-.07m7.86,12.71a.38.38,0,0,1,.2-.37,1.54,1.54,0,0,0-.49-.58l-.48-.17a13,13,0,0,0,.81,1.32l0-.21m-4.49-1.07c0-.26.07-.44.19-.49l-.54-.5c0,.11-.07.18-.16.32.22.31.41.53.51.66m-2-9.91-.65-.75-.07.23.61.72.1-.2m7.06,9.66.07-.23-.55-.5v.23l.48.5m.14-1.86a4,4,0,0,1,.11-.52s-.09,0-.22-.06l0,0-.06,0a3.25,3.25,0,0,0,.2.64m-8.7-7.07-.07.19.35.39.07-.19-.35-.39m8.47,8.13.19.11-.16-.57h-.19l.17.47m-.65.51-.22-.39-.13.08.19.37.17-.05m.67-7-.17.09.19.33.16-.05-.19-.37m-1.22,4.54-.22-.36-.13.08.2.34.16-.06M443,393.06l-.13.11.19.34.13-.08-.2-.37"/><path d="M467.53,410.81v4c-.36,0-.55.32-.55,1.07a8,8,0,0,0,.16,1.17,7.29,7.29,0,0,1,.19,1c0,.12-.26.56-.26.71a4.8,4.8,0,0,1,.06.77,13.9,13.9,0,0,1-.16,1.66,10.89,10.89,0,0,0-.14,1.6c0,.15.06.44.06.55a9,9,0,0,1-.88,1.88,2.13,2.13,0,0,1-1.3.7,2.41,2.41,0,0,1-1.68-.23c-.22-.13-.19-.3-.35-.39s-.88.16-1.13,0l-1.3-.75c-.26-.15-.62-1.18-.78-1.27s-.16-.09-.16,0,0,.09-.13,0a5.27,5.27,0,0,1-1.29-1.75c-.71-1.27-1.1-2-1.16-2.05a15.43,15.43,0,0,0-.48-2,10.15,10.15,0,0,1-.26-2.16c0-.19-.12-.33-.41-.5l0-14.61c0-.34.19-.15.23-.24a5.53,5.53,0,0,1,0-.84c0-1.71.05-4.1.15-7.14.23-.35.75-.28,1.59.21a5.07,5.07,0,0,1,1.71,1.52,7.63,7.63,0,0,0,.48,1.76c0,.15-.2.22-.56.24v1.23c0,.33,0,.69.06,1-.16-.09-.23,0-.23.16,0,.64.15,2.32.19,2.94a5.77,5.77,0,0,1,.22.65,2.35,2.35,0,0,0-.26,1.23,5.89,5.89,0,0,0,.23,1.43,6.37,6.37,0,0,1,.22,1.36c0,.07-.11,2.17-.28,6.28,0,1.06-.07,2.68-.17,4.81a.84.84,0,0,0-.2.52c0,.29.19.33.19.45a1.24,1.24,0,0,0,0,.38,2.7,2.7,0,0,0,.55,1.67s-.13.14-.43.27a5.69,5.69,0,0,0,.22.72,5.89,5.89,0,0,0,1.17,0,.56.56,0,0,1-.13.29.91.91,0,0,0,0,.41c-.19-.14-.32-.26-.41-.31a.63.63,0,0,0-.26-.11c.35.61,1.07,1.06,1.49,1.94.29-.17.42-.37.39-.6a2.07,2.07,0,0,0,.29.24.93.93,0,0,0,.52.11l-.26-.22V422l.39,0c0,.1-.07.23-.11.39l.07.22a3,3,0,0,1,.91-.14,1.42,1.42,0,0,0-.26-.49l-.39.12a2,2,0,0,1-.16-.47c.81-.28,1.23-1.11,1.23-2.52,0,0-.06-1-.22-3-.09-1.35-.22-3.35-.37-6.05v-.19c0-.63.1-2,.1-2.55a1,1,0,0,1-.18-.51c0-.11.29.06.29-.2,0-.45-.32-1.68-.32-2.12a4.38,4.38,0,0,1,.63-2.65,2.16,2.16,0,0,0-.42-.55v-3.94a1.31,1.31,0,0,1,.26-.56c.16-.28.29-.39.39-.37a9.17,9.17,0,0,1,1.78.72,2.73,2.73,0,0,1,1.07,1.33c0,.11.06,2.12.15,6,0,.7.08,2.24.25,4.53l0,.09c0,.18-.23.5-.23.69S467.37,410.41,467.53,410.81Zm-5,13.11.17-.31-.19-.22-.2.33.22.2m-3.9-5.63.07-.19-.36-.43-.1.16.39.45m6.47-11.83v-.29l-.38-.22v.29l.38.22"/><path d="M472.89,408.83l.33-.15c-.1.06-.2.09-.28.23Z"/><polygon points="473.03 425.44 473.52 425.54 473.58 425.83 473.03 425.7 473.03 425.44"/><polygon points="472.52 421.87 472.33 422.21 472.14 421.98 472.34 421.69 472.52 421.87"/><polygon points="470.99 425.86 471.05 426.13 470.67 426.09 470.67 425.86 470.99 425.86"/><g class="cls-12"><path d="M469.79,427.07c.23,0,.49.05.81.05a20.4,20.4,0,0,0,1.42,2.16c-.13.29-.42.43-.91.4-.16-.35-.48-.87-.9-1.56.1-.13.46-.22.55-.31l-.23-.4c-.13-.07-.39-.07-.55-.16S469.89,427.16,469.79,427.07Z"/><path d="M471.05,427.24c-.29-.17-.42-.24-.38-.26.22-.17.44-.4.72-.25C471.28,426.72,471.3,427.38,471.05,427.24Z"/></g><polygon points="470.61 424.45 470.94 424.08 471.12 424.34 470.77 424.7 470.61 424.45"/><path d="M471.4,426.73h0Z"/><path d="M472.94,425c0,.18-.07.26-.2.26.23.65.35,1.06.39,1.23l-.33-.52c-.3.16-.84-.08-1.33-.31.49-.2.72-.41.72-.56l-.13-.1a.36.36,0,0,0-.39,0,1.5,1.5,0,0,0-.2-.53,1,1,0,0,1,.42-.05,8.36,8.36,0,0,0-.84-.82c.07,0,.17,0,.29.06l.29.2a.93.93,0,0,0,.2-.59v-1.08a11,11,0,0,1,.35,1.17l0,.16.35.2.23-.17c-.23-.61-.35-.94-.41-1.06a6,6,0,0,1,1.23,1.61l-.07,0a.85.85,0,0,1-.28-.33l-.1.17,0,.2a.82.82,0,0,0-.32-.26.34.34,0,0,0-.32,0c-.16.09-.26.11-.29.09a1.59,1.59,0,0,0,.25.41l.39,0A3.32,3.32,0,0,1,472.94,425Z"/><polygon points="472.12 417.74 472.12 418.18 471.86 418.03 471.86 417.59 472.12 417.74"/><polygon points="472.68 412.84 472.48 412.73 472.3 412.25 472.52 412.31 472.68 412.84"/><path d="M483.58,433a6.55,6.55,0,0,0,.9,2.82,6.17,6.17,0,0,0-.13,1.56l0,.16a1.58,1.58,0,0,1-1-.22c-.22-.13-.19-.45-.42-.58s-.16.09-.32,0-.13-.15-.09-.31l-.13-.16c-.1-.06-.13,0-.13.15s-.07,0-.16,0a2.54,2.54,0,0,1-1.13-1.36c0-.09-.23-1.17-.51-3.16-.22-1.62-.6-2.58-1.12-2.88-.22-.13-.2.23-.42.1s-.33-.68-.55-.81-.16-.09-.16-.06,0,.1-.13,0-.12-.07-.12-.11l.1-.17-.09-.12a5.71,5.71,0,0,1-1.26-1.66,1,1,0,0,0-.23.94A2,2,0,0,1,476,427a1.6,1.6,0,0,1-.52-.48.5.5,0,0,1-.33.29,3.48,3.48,0,0,1-.06-.44c0-.14.13-.45.13-.59a1.08,1.08,0,0,0-.22-.54c-.29-.17-1-.67-1.23-.82,0-.08.13-.19.4-.37l0-.17-.09-.24c-.17.09-.29.12-.33.1a.45.45,0,0,1,.26-.37,1.12,1.12,0,0,0-.32-.37l-.19,0c0-.07.07-.15.23-.25l-.49-.68c-.09.06-.13.22-.09.57a1.92,1.92,0,0,0-.36-.39s.13-.15.39-.29a3.59,3.59,0,0,0-.45-.79c-.29-.39-.45-.63-.52-.74a.57.57,0,0,0,.16-.28,1.54,1.54,0,0,1,.36.39c.22.31.35.46.35.46s.13-.15.23-.28a7.41,7.41,0,0,0-1.07-1.52s0-.08.2-.25a1.74,1.74,0,0,1-.09-.61c0-.63.19-.93.55-.91l-.48-.69c-.1,0-.13.19-.11.43a1.69,1.69,0,0,1-.38-.49,3.26,3.26,0,0,0,1-.07l-.19-.33c-.1,0-.13,0-.17.13a7,7,0,0,1-.29-1c.1.17.26.42.46.75,0,0,0-.13.06-.31s.07-.11.2,0,.22.27.26.3.12-.15.26-.26l-.23-.36-.71.07a4,4,0,0,1-.32-.67,1.2,1.2,0,0,1,.49.43l.19-.15,0-.17-.1-.24a.34.34,0,0,1-.32,0c0-.28-.13-.74-.29-1.4a4.53,4.53,0,0,1,1.11-.33v-1.23a1.41,1.41,0,0,0-.55-.47c.1-.38.26-.81.42-1.28a.35.35,0,0,0,.13-.21c0-.15-.13-.38-.55-.77,0-.09.1-.05.14-.12l.09.17.35-.21-.12-.21c.07,0,.13-.25.26-.23a2.58,2.58,0,0,1-.42-1,9.69,9.69,0,0,1,.47-2.26,13.45,13.45,0,0,0,.52-2.38c.61.17,1.19.28,1.82.41a6.21,6.21,0,0,1,1.8.67q.78.45,1.55,4.69L483.09,430C483.26,431,483.42,432,483.58,433Zm-5.19-8.39a1.33,1.33,0,0,0,.52-1.08,20.09,20.09,0,0,0-.64-4.13c-.55-2.21-1.09-3.45-1.71-3.81s-1.29.26-1.59,2.1c-.37,2.17-.72,3.33-1.08,3.54.16.24.45.67.81,1.25l-.26.18.62.76.32-.14c.42.24,1.52,1.21,2,1.49a.79.79,0,0,0,1-.16m-4.66-2.1a9.27,9.27,0,0,0,.84,1.23,2,2,0,0,1-.29-.92l-.54-.31m-1.19-3.85.78,0a3.71,3.71,0,0,1-.36-.42,3.58,3.58,0,0,1-.43.46m.15-4.68a2.2,2.2,0,0,1,.51.27,1.83,1.83,0,0,1-.29-.73c-.16-.09-.23.05-.23.46m1,8,.13.26.36-.21-.13-.22-.36.17m3.33-8.28-.36.17.12.26.36-.21-.12-.22m.44,13.62.22.13-.19-.6h-.19l.16.47m1.91,1.24v-.55l-.26-.15v.55l.26.15"/><polygon points="470.61 422.75 470.61 423 470.09 422.7 470.1 422.45 470.61 422.75"/><path d="M492.47,438.71a.05.05,0,0,1,.05,0,.33.33,0,0,1,.1.11A.68.68,0,0,0,492.47,438.71Z"/><path d="M492.66,438.91l0-.07.05.06Z"/><path d="M490.14,415.85a2.42,2.42,0,0,0-.43,1.77c0,.18-.2.81-.2,1.11a5,5,0,0,0,.38,2,11.76,11.76,0,0,0,.71,1.57.37.37,0,0,1-.23.43,1.78,1.78,0,0,0,.55.43c-.13,0-.72.52-1,.36a1.59,1.59,0,0,1-.32-.26l-.13,0a.87.87,0,0,0,.09.42s.62,0,1.75,0a1.71,1.71,0,0,0,.06.52.26.26,0,0,0,.13-.26c.58.81,1.32,2,2.26,3.46q1.8,3.55,2.61,5.52a.74.74,0,0,1,0,.64c.09.16.22.42.45.89a8.19,8.19,0,0,0,.06,1.67c.1.88.13,1.29.13,1.31s-.26.63-.26.81a.55.55,0,0,0,.19.42,9.86,9.86,0,0,0-.59,3,1,1,0,0,0-.62.35,3.48,3.48,0,0,1-.65.52c0,.06.09.21.19.45a1.67,1.67,0,0,1-.51-.41,1.71,1.71,0,0,1-.1.31c-.13.33-.29.13-.94-.21l-.65-.37s-.36.25-.65.08l-1.19-.62-1.16-.6a8.18,8.18,0,0,1-1.84-1.58,13,13,0,0,1-1.32-1.92,9.16,9.16,0,0,1-1.45-4.82c0-1.52.26-1.89,1.65-1.09a4.93,4.93,0,0,1,.74.49,9.14,9.14,0,0,1,1,1.2,21.36,21.36,0,0,0,.64,2.49,4.3,4.3,0,0,0,1,1.68c.23.13.65.7.87.83s.46-.06.71.09.41.71.45.73a.23.23,0,0,0,.23-.24.3.3,0,0,0-.06-.16c.22-.28.48-.57.71-.88a2,2,0,0,0,.42-1.2,2.13,2.13,0,0,0-.33-1.12,1,1,0,0,0,.36-.32,16.89,16.89,0,0,1-.12-1.82,12,12,0,0,0-.55-1.43q-.92-1.59-2.81-5.08l.23-.79a1.16,1.16,0,0,0,.13.56.62.62,0,0,0,.22.09c.23-.13.23-.8.36-1l-.13-.18a6.31,6.31,0,0,1-.68-.72c0-.12.42-.14.59-.22,0,0-.15-.34-.35-.91l-.16.05a.24.24,0,0,0-.13.18c0,.12.13.23.36.36a1.3,1.3,0,0,1-.58-.17,1.25,1.25,0,0,1-.33-.28l-.39.22a1.31,1.31,0,0,0,.42.36.34.34,0,0,0-.14.47,1.81,1.81,0,0,1-.34-.16c-.13-.08-.29-.17-.46-.3-1.84-2.07-2.74-5.12-2.73-9.24a8.46,8.46,0,0,1,.11-1.51,6,6,0,0,0,.39-.93,4.93,4.93,0,0,1,.52-.18,4.92,4.92,0,0,1-.42-.58s.23-.24.49-.09.38.19.39.11a1.17,1.17,0,0,1,.46-1.19,2.32,2.32,0,0,1,1.42-.15,5.1,5.1,0,0,1,1.81.6,11.61,11.61,0,0,1,1.1.71c-.07.14,0,.26.22.39s.07-.3.29-.17a20.5,20.5,0,0,1,1.52,1.84,23.35,23.35,0,0,1,1.61,2.19c.16.44.29.81.42,1.21a3.28,3.28,0,0,0,.78,1.38v3.2a1.52,1.52,0,0,1-.78.19,4,4,0,0,1-.78-.37c-.22-.13-1.16-.83-1.46-1s-.25-.37-.35-.61a6.43,6.43,0,0,0-.47-2.43,4.16,4.16,0,0,0-1.61-2.31C491.14,415.24,490.56,415.31,490.14,415.85Zm-2.88-2.74c.1.05.62,0,.71.07l-.39-.63a.58.58,0,0,1-.33.56"/><path d="M511.65,450.5a3.49,3.49,0,0,0,.58,1.49,1.33,1.33,0,0,0-.39.19,3.31,3.31,0,0,1-.3,1.12c-.16.39-.48.43-.91.19-.26-.15-.94-1-1.19-1.17a.49.49,0,0,0-.46.07l-.29-.5a6.77,6.77,0,0,1-.71-.33,13,13,0,0,1-1.23-.9,9.84,9.84,0,0,0-1.2-.92c-.16-.09-.19,0-.16.32a2.75,2.75,0,0,0-.29-.58,1.28,1.28,0,0,1-1.19-.2l-.68-.47-.24-.16a3,3,0,0,0-.46-.21l0-.06c0-.14-.09-.27-.29-.38s-.19.22-.36.13-.84-.82-1.26-1.06l-.55-22c0-1.17-.09-2.4-.22-3.78-.12-1.55-.18-2.33-.18-2.37a2.79,2.79,0,0,1,.58-1.48,2,2,0,0,1,.77.33c1.56.87,3.88,2.1,7,3.8.35.2,1.19.48,1.58.7a3.59,3.59,0,0,1,1.62,1.64,5.63,5.63,0,0,1,.31,2.23c0,1.38-.39,1.68-1.55,1-.65-.37-1.62-1-2.91-1.76s-2.27-1.41-2.91-1.79c-.22-.13-.52,0-.81.46A2,2,0,0,0,503,425a.65.65,0,0,0,.22.47q.09.94.09,3.18a.55.55,0,0,1-.16.42,7.93,7.93,0,0,1,.12,1.82,1.55,1.55,0,0,0,.36.5c.16.09.32,0,.49.1s.64.89.87,1c.41.24,1.06.58,1.93,1s1.52.77,1.95,1c.58.33.87,1.1.87,2.25a4.84,4.84,0,0,1-.14,1.63c-.16.36-.56.35-1.2,0s-1.78-1.17-2.3-1.47a5.52,5.52,0,0,0-1.16-.41c-.61-.21-1-.27-1.07-.21a3.13,3.13,0,0,0-.39,1.22,9.15,9.15,0,0,0-.23,1.36,2.52,2.52,0,0,1,.13.89,8,8,0,0,1-.33,1.89c0,.18-.1.46-.1.62a5.4,5.4,0,0,0,.22,1.1c.16.58.26,1,.29,1.17l-.26,0v.59l.22.24,0-.12c0-.15-.07-.42-.07-.53l.52.3a8.82,8.82,0,0,1,.42,1.73c.23,0,.14-.48.23-.54s.06.1.1.32.06.4.09.42L505,447v.18a1,1,0,0,0,.13.52,3.31,3.31,0,0,0,.48,0l-.25-.26v-.63c.22.13.68-.25.72-.26v.78a1.87,1.87,0,0,0,.06.4c.1,0,.17-.2.27-.44.65.16,1,.08,1.17-.21a1.9,1.9,0,0,0,.58,1c.22.13.58,0,.68,0a7.33,7.33,0,0,1,2,.89A2.28,2.28,0,0,1,511.65,450.5ZM504.79,449l.55.27-.32-.63c-.16-.09-.23,0-.23.35m-.58-.59a1.87,1.87,0,0,0,.46.6c-.08-.06-.11-.15-.11-.32a.33.33,0,0,1,.07-.22.66.66,0,0,0-.42-.06m-1.56-1.09.13-.07-.19-.37-.17,0,.22.4"/><path d="M514.22,434.5s0,0,0,.09a30,30,0,0,1,2.26,2c1,1,2.13,2,3.29,3.17S522,442,523.08,443s1.79,1.85,2.27,2.37c0,0,.07.19.08.49s0,.64,0,1,0,.71-.05,1,0,.52,0,.59l-11.53-2.12c-.06,0-.11-.2-.19-.54s-.17-.81-.24-1.27-.12-.88-.16-1.26,0-.56.05-.55c.28,0,.66,0,1.15.1s1,.13,1.63.21,1.25.2,1.95.33l2,.36-6.75-6.58c-.07,0-.05-.23.05-.56s.21-.7.35-1.06a8.63,8.63,0,0,1,.4-.89C514.16,434.55,514.2,434.49,514.22,434.5Z"/><path d="M35.59,440.4a1.38,1.38,0,0,1,.14.35c.11.35.24.79.37,1.29s.25,1,.34,1.42.11.64,0,.6l-6.55-1.19,2,1.93c.67.65,1.29,1.27,1.88,1.85l1.57,1.61c.47.49.84.88,1.11,1.18q.09.09,0,.58a8.54,8.54,0,0,1-.16,1,9.32,9.32,0,0,1-.24,1q-.11.36-.17.32L24.81,441.54c0-.07,0-.27,0-.61s0-.69,0-1.06,0-.69,0-1,0-.41.08-.38c.46,0,1.19.1,2.19.24s2.06.3,3.19.5,2.2.4,3.2.62a14.14,14.14,0,0,1,2.19.62C35.58,440.43,35.58,440.4,35.59,440.4Z"/><path d="M49.32,447.6a2,2,0,0,0,.4,1,.31.31,0,0,0-.25,0v.25c0,1.41-.26,2.33-.83,2.79-1.35,1.2-2.6,1.45-3.76.78-.5-.29-1.78-1.35-2.31-1.66-.22-.13-.47,0-.72.45a2.62,2.62,0,0,0-.35,1.14c0,.25.19.79.19,1,0,.61,0,1.56-.07,2.8s0,2.17,0,2.79a36.73,36.73,0,0,0,.27,4.65,16.13,16.13,0,0,1-2.72-1.21,2.45,2.45,0,0,1-1-2.33,12.22,12.22,0,0,1,.16-1.6,13.54,13.54,0,0,0,.16-1.56v-1.51c0-1.18,0-3,0-5.44s.07-4.24.08-5.42v-4.5c0-.3-.07-.51-.21-.59l0-4.73a2.06,2.06,0,0,1,.47-1.31.83.83,0,0,1,1.13-.22,1.9,1.9,0,0,1,.43.54c.28.16.75.46,1.35.88s1.1.71,1.4.89.63.21.85.34.84,1,1.1,1.11.16-.09.37,0a8.15,8.15,0,0,1,2,2.32A10.1,10.1,0,0,1,49,442.25,28.68,28.68,0,0,1,49.32,447.6Zm-3.25-2.28a12.86,12.86,0,0,0,.16-1.6c0-.47-.43-1.94-.47-2.39a11.58,11.58,0,0,1-.71-1.1c0,.3-.09.45-.22.37v-.11a1.34,1.34,0,0,0-.53-1c-.28-.19-.56-.43-.84-.63.16-.09.22-.27.22-.52a2.12,2.12,0,0,0,0-.41c-.18-.07-.26-.09-.27,0a2.94,2.94,0,0,1,.24.55,6.84,6.84,0,0,1-1.41-.17,1.33,1.33,0,0,1,.22.56l0,.12a2.25,2.25,0,0,0-.56-.25,3.91,3.91,0,0,1-.41.52.87.87,0,0,0-.34.49,10.31,10.31,0,0,0,.37,1.14l0,.09-.07,0c-.24-.14-.37,0-.39.24a.9.9,0,0,1,.31.71c0,.42,0,.67.06.73a1.39,1.39,0,0,1-.19.35c0,.63.1,1.32.16,2a3.63,3.63,0,0,0,.8,2,10.51,10.51,0,0,0,1.73,1.5A4.86,4.86,0,0,1,44.9,448a1.18,1.18,0,0,0,.94-1.14c0-.3.1-.81.23-1.56"/><g class="cls-12"><polygon points="52.71 468.09 52.84 467.98 53.17 468.61 53.05 468.68 52.71 468.09"/><path d="M57,469.79a1.06,1.06,0,0,1-.35.92v-.14a.8.8,0,0,0-.13-.44,1,1,0,0,1-.34.28s.09-.2.25-.51S56.68,469.66,57,469.79Z"/><path d="M62.79,457.82c0,.43,0,1.08,0,2s0,1.53,0,2c0,.83-.07,2-.23,3.5s-.2,2.7-.2,3.52c0,.39.06,1.44.06,1.83,0,1-.18,1.66-.53,1.89a6,6,0,0,0-1.07.76c0-.16.44-.53.44-1v-.21a1.08,1.08,0,0,0-.54.47,4.13,4.13,0,0,1-.31-.5,2.34,2.34,0,0,1-.5.11,1.9,1.9,0,0,1,.56,1c-.47-.16-1-.43-1.22,0,0-.18-.18-.83-.18-1.08a.46.46,0,0,1,.31-.44l.54-.12s-.22-.49-.62-1.44a.39.39,0,0,0-.13.19,3.91,3.91,0,0,1,.15.8,10.07,10.07,0,0,1-1-.81c.37.19.85-.48,1.19-.29a1,1,0,0,1,.28.28l.13-.47a2,2,0,0,0-.28-.24c-.15-.09-.31-.11-.41,0v-.47a1.38,1.38,0,0,1,.25-1l0-17.54a1,1,0,0,0-.41-.38.7.7,0,0,1,.25-.57,11.27,11.27,0,0,0-.66-1.39c-.25-.32-.5-.69-.74-1a3.73,3.73,0,0,0-.72-.85,1.46,1.46,0,0,0-1.95.17,3,3,0,0,0-.72,2.11,17.51,17.51,0,0,0,.36,4.67c-.28,0-.41.23-.41.77s.13,1.33.13,1.65,0,.87,0,1.57v1.54c0,.84,0,1.53-.07,2.13a7.06,7.06,0,0,0-.28,1.16c0,.51,0,1.23.08,2.24s.09,1.74.09,2.21a.83.83,0,0,1-.25.54,1.77,1.77,0,0,1,.07.37c0,.46-.13.71-.38.74.06.18.19.43.34.78a1.44,1.44,0,0,0,.17-.59.57.57,0,0,1,.34-.48,2.12,2.12,0,0,0,.34-.06l.19.29v.61l-.09-.05a.29.29,0,0,0-.44.14c0,.13.12.32.22.56a.93.93,0,0,1,.29-.48c0,.05.12.35.28.92a1.35,1.35,0,0,0,.31.72c.26.15.75.61.91.7.06-.22.16-.56.31-1l.15.09.21.13c.36.21.59.27.67.19a10.2,10.2,0,0,1,.63,1.08v.18l0,.16c0,.17-.08.24-.23.16.06,0,0-.06-.27-.3l-.09,0a5.37,5.37,0,0,0,.56,1.29,2.34,2.34,0,0,1-1.51-.33,6,6,0,0,1-2.69-2.52l-.28.16a2.3,2.3,0,0,1-.74-1.33c0-.28.22-.59.22-.73a.4.4,0,0,0-.1-.31l.07.07c.06,0,.1,0,.1-.16a1.17,1.17,0,0,0-.44-.86,1.14,1.14,0,0,0,.16-.34,3.68,3.68,0,0,0,.43.39l.09-.09c0-.51,0-.81-.12-.9a5,5,0,0,1-.46-.45l0,.16a2.21,2.21,0,0,0,.19.76l-.35-.53a1.08,1.08,0,0,1-1,.39,1.36,1.36,0,0,1-.12-.61c0-.25.06-.4.16-.45a5.39,5.39,0,0,1-.28-.81.54.54,0,0,0,.22-.52,1.46,1.46,0,0,0-.44-1.18.89.89,0,0,1,0-.34.66.66,0,0,0,.47-.16l-.15-.31c.22-.09.47-.23.78-.37a.46.46,0,0,0-.22-.23.69.69,0,0,0-.47-.09c0-.2,0-.28.12-.33a5.77,5.77,0,0,1-.59-1.31,1,1,0,0,1,.5-.93,7.23,7.23,0,0,1,.59,1l.1,0a.55.55,0,0,1,0-.27,4.3,4.3,0,0,0-.81-1.37v-.07l.06-.26a.36.36,0,0,0-.18-.32.74.74,0,0,1,.21-.44c-.09-.24-.28-.63-.56-1.19.09.05.31.32.44.4l.1,0-.16-.31.13,0c.07,0,.08-.11.13-.11l-.48-.28v-.32c0-.27.07-.35.29-.3a.21.21,0,0,1,.13-.22,3.59,3.59,0,0,1-.37-.5,2.09,2.09,0,0,1,0-.69c-.1-.45-.25-1.15-.47-2.07a1.76,1.76,0,0,1,.72-.41,1.74,1.74,0,0,0-.66-.88l.28.16a2.63,2.63,0,0,0,.13-.9c0-.47-.16-1.75-.16-2.18a1.3,1.3,0,0,1,.28-1l-.09-.23.28-.49v-.32a6,6,0,0,1,.26-1.83,2,2,0,0,0,.85-.16v-.14c0-.77.41-1.09,1.38-.93a5.4,5.4,0,0,1,2.07.72l.18.11.37.69c.16-.08.26-.18.26-.32l2.41,1.93c.4.56.78,1.13,1.16,1.67a8,8,0,0,1,.9,1.79,18.17,18.17,0,0,1,.61,5c0,.43.13,1.47.12,1.87S62.79,457.38,62.79,457.82Zm-1.61-8.09v0a2.94,2.94,0,0,1,.56,1A2.19,2.19,0,0,1,62,450a2.44,2.44,0,0,1-.5-1,3.93,3.93,0,0,0-.35.71m-.26,5.47a.5.5,0,0,1,.53,0,.31.31,0,0,1,.15.27c0,.11-.09.3-.09.45,0-.11.13-.1.35,0a5.6,5.6,0,0,0-.5-1.07,2.05,2.05,0,0,0-.44.4m-5.22,15.42a5.5,5.5,0,0,0-.53-1.06,2.54,2.54,0,0,1,.19.94.62.62,0,0,1-.06.25l.4-.12m-2.4-5.24c.13.07.43.37.56.44l-.28-.6-.18-.1-.47-.27-.06.11a1.69,1.69,0,0,0,.09.45c0-.16.1-.17.34,0m8.25-13c-.13.11-.32.25-.54.45l.69.4-.15-.84m.08,4.69c0-.16.16-.2.37-.08l-.53-.88a3.52,3.52,0,0,1,.15,1m-8.29,7.05a2.28,2.28,0,0,1,.53.28l-.35-.64a.46.46,0,0,0-.19.36m7.25-6.39.19-.32-.22-.23-.19.32.22.24m.78-.16.19.21.19-.32-.19-.18-.19.29m-5.52,13.42v.21l.44,0-.09-.27-.35,0m5.73-12.5.41,0-.06-.25-.35,0v.22m-8.29,6.12-.18,0,.15.48.22.13-.19-.57m4.19-19.75.16-.09-.22-.38-.13.1.19.36m2.63,11.89.18.36.16-.09-.22-.39-.12.12m1.92-4.44v-.61l-.23-.13v.61l.23.13m-9.44,12v.29l.38.22v-.29l-.38-.22"/></g><polygon points="57.65 470.11 57.81 470.06 58.02 470.43 57.87 470.49 57.65 470.11"/><path d="M52.07,457.79h0Z"/><path d="M75.37,476.27l1.58,5.85c0,1.18-.91,1.35-1.69.89a3,3,0,0,1-.56-.62l-.14-.11-.17-.07a1.16,1.16,0,0,1-.41-.13,2.1,2.1,0,0,1-.72-1,4.42,4.42,0,0,1-.28-.92c.09,0,.18,0,.18-.29a18.82,18.82,0,0,0-.43-2.41l.31-.32-.22-.34s-.19.33-.31.26a4.28,4.28,0,0,0,.26-1.44s-.13-.55-.41-1.56-.41-1.75-.5-2.23a23.38,23.38,0,0,0-.49-2.74,3.73,3.73,0,0,0-1.4-2.32c-.23-.13-.85-.2-1.13-.37,0,0,0,.14.06.43a.86.86,0,0,0-.35.59,8.08,8.08,0,0,1,.15,1.17c0,.39-.26.54-.26.93a40.6,40.6,0,0,0,.31,4.57,2.33,2.33,0,0,1,0,.64c0,.38-.06.61-.06.75a3.08,3.08,0,0,0,.56,1.76c0,.12-.1.24-.25.4a1.89,1.89,0,0,0,0,1.06c-.1.41-.94.64-1.54.3a5.37,5.37,0,0,1-1.6-1.46,4.3,4.3,0,0,1-.34-1.28l-.29-.67c.07-.11.13-.28.23-.48q0-.84-.17-5.18a1.33,1.33,0,0,0-.19-.33,2.38,2.38,0,0,0,.26-1.07c0-1,0-2.64,0-4.78s-.05-3.81,0-4.93c0-1.28,0-2.53-.08-3.75,0-.78-.06-1.91-.12-3.48a2.08,2.08,0,0,1-.22-.67c0-1.54.45-2.08,1.35-1.56.22.13.47.42.69.54s.44-.22.65-.09a13.57,13.57,0,0,1,1.1.89c.65.52,1,.81,1.12.86s.69-.07,1,.09.4.64.4.67c.31.18.72.45,1.22.81.28.31.69.68,1.22,1.18a15.15,15.15,0,0,0,1.13,1.91c.15.52.52,1.56,1.17,3.19a.39.39,0,0,0-.12-.14.07.07,0,0,0-.1,0,6.69,6.69,0,0,0-.12,1.4,3.06,3.06,0,0,0,.18.43,29.32,29.32,0,0,1-.17,4.15,7.14,7.14,0,0,1-1.35,2.79c-.09,0-.19,0-.35.12,0,.37.4,2.06,1.12,5.11a6,6,0,0,0,.12,1.37C75.28,475.5,75.34,476,75.37,476.27ZM72,464.09c.12,0,.59-.31,1.41-.73a3.4,3.4,0,0,1-.5-1.73,7.19,7.19,0,0,1,.17-1.27,1.49,1.49,0,0,1-.19-.69c.22,0,.29-.19.19-.57-.16-.53-.34-1.07-.5-1.59a2.81,2.81,0,0,0-.84-1.42c-.25-.14-.06.14-.28,0s-.1-.52-.75-.9a4.88,4.88,0,0,0-1.85-.56c-.35,0-.63.32-.82,1a16.07,16.07,0,0,0-.16,2.72,13.51,13.51,0,0,0,.43,3c.12.25.32.68.56,1.22A8.93,8.93,0,0,0,70.52,464a1.74,1.74,0,0,0,1.44.11m1.24,13.39.16-.3-.19-.18-.18.29.22.2m.68-.11V477l-.22-.13v.4l.22.13"/><path d="M89.15,463.1a4.59,4.59,0,0,1,.22,1.64c0,1.33-.35,1.82-1.08,1.4a7.38,7.38,0,0,1-.71-.56,6.39,6.39,0,0,0-.69-.55,1,1,0,0,0-.84-.16,4.18,4.18,0,0,0-.82.54,6.38,6.38,0,0,0,.09.7,2.22,2.22,0,0,1-.71-.85c-.16.2-.13.43.09.69a2.62,2.62,0,0,1,0,.56c-.22,0-.35,0-.35,0l.22.38a.43.43,0,0,1,.44,0c0,.06-.22.23-.66.48,0,0,0,.12.09.27.26.15.38.08.38-.17,0,.11.35.7.37.83,0,.41-.16,1.45-.16,1.91.09.2.18.47.35.82s0,.77,0,1.56v5c0,.28-.25.83-.25,1.08s.27,1.08.27,1.27a.82.82,0,0,1-.12.39,3.67,3.67,0,0,1,.11,1.15c0,.74,0,1.17.06,1.29s-.18.79-.18,1.12a10.3,10.3,0,0,0,.28,1.06c.06.65.09,1.17.09,1.64,0,1.69-.38,2.33-1.16,1.88-.1-.06-.41-.19-.95-.47l-.94-.46a2.19,2.19,0,0,1-.87-1.26,4.27,4.27,0,0,1-.28-1.5l1-19.53a3.68,3.68,0,0,0-.37-2.16c-.66-.73-1-1.13-1.06-1.15s-.41-.16-.94-.36a8.62,8.62,0,0,1-.95-.4c-.65-.38-1-1.37-1-2.91a3.58,3.58,0,0,1,.26-1.33c.22-.56.5-.72.88-.5s.6.53.81.66.78.7.94.79c1,.56,1.53.89,1.75,1a4.36,4.36,0,0,0,.28.7,4.6,4.6,0,0,1,.78.06,4.92,4.92,0,0,0,1,.74,19.21,19.21,0,0,0,1.88.91c.75.32,1.13.46,1.1.45A2.71,2.71,0,0,1,89.15,463.1Zm-6.63-2.61c.22.6.38,1.06.47,1.36a8.68,8.68,0,0,1,.56-1,4.22,4.22,0,0,1-.72.16l-.32-.48m2.5,1.41v-.75c-.19.14-.54,0-1-.24.25.25.6.56,1,1M84.49,463c0-.18.17-.77.17-.95a2.43,2.43,0,0,0-.54.23c.13.07.35.67.37.72m-1.07,16.23.68,0L84,479l-.59,0v.25M83.33,462v.28l.78.45v-.28l-.78-.45m.83,4.25v-.58l-.25-.14v.58l.25.14m-.4-3.61-.25-.14v.58l.25.14v-.58"/><path d="M97.69,470.55a1.5,1.5,0,0,0-.35-.38l.57-.07-.1-.13c-.37-.25-.9-.59-1.56-1.08.1-.05.19-.21.28-.49l-.25-.39c-.16.09-.22.45-.22,1.14a5.33,5.33,0,0,0-.32-.65s-.28.49-.57.32a1.45,1.45,0,0,1-.37-.39,5,5,0,0,1-.16.69l-.32-.51c-.13-.07-.13.22-.13.36l-.18-.11c-.28-.16-.41-.16-.41-.06a.93.93,0,0,0,.12.29l-.06-.08c-.09-.05-.22,0-.37.08v.58l.05.1s.1,0,.23.06c-.16,0-.41,0-.69,0L93,470c0,.07.06.14.22.23s.31.07.41.13a.37.37,0,0,0-.28.34,6.24,6.24,0,0,0,.24,1.29,4.68,4.68,0,0,1,.28,1.25.47.47,0,0,1-.25.46,1.54,1.54,0,0,1,.28.81c0,.25-.1.7-.1.88.22.48.47,1,.69,1.44a2.61,2.61,0,0,0,.93,1.19l.08.05c.05,0,.08,0,.08,0s0-.09.12,0,.19.14.19.18l0,.09,0,.17.26-.18.22.13c.4.23,1.41.92,1.74,1.11s.57.08.79.21a2,2,0,0,1,.37.29,4.32,4.32,0,0,1,.43,1.84l-.13.1a1.65,1.65,0,0,1,.06.46,3.49,3.49,0,0,1-.06.47,1.62,1.62,0,0,0,0,.54,5.27,5.27,0,0,1-.91-.17,1.5,1.5,0,0,1-.4-.55A1.35,1.35,0,0,1,98,483l-.07,0a2.58,2.58,0,0,1-.71-.74l-.37.11-.25-.47c-.16.13-.41.09-.75-.11s-.56-.35-.84-.52l-.07,0a8.87,8.87,0,0,0-1,.62,2,2,0,0,1-.16.63c0,.19.09.49.18.93a2.23,2.23,0,0,0-.84-.81,5.42,5.42,0,0,0,.56.69,3.66,3.66,0,0,1-.4.77l.15.16a.67.67,0,0,0,.22,0l0,.2c0,.18,0,.27-.12.29a1,1,0,0,0,.4.38l-.16.81a6.41,6.41,0,0,0-.43-.72l-.09,0a1.46,1.46,0,0,0,.56,1.12l-.28.19a4.71,4.71,0,0,1,.21,2.32,13.12,13.12,0,0,0,.37,2,4.36,4.36,0,0,0-.09.92c0,.33.34,1.25.34,1.52s-.26.5-.76.43a2.85,2.85,0,0,1-1.13-.39c-.22-.13-1-1.14-1.32-1.3a.25.25,0,0,0,.28,0,3.06,3.06,0,0,1-.4-1.6v-.75c.08,0,.28.27.4.34.07.36.13.9.41,1.07s.56.25.69.18,0-.09,0-.31c0,0-.07-.11-.16-.16-.24-.14-.47,0-.56-.07a1,1,0,0,1,.28-.66c-.13-.18-.31-.4-.56-.72l-.35.13a3.49,3.49,0,0,0-.34-.42,4.11,4.11,0,0,0,.28-1.45,6.13,6.13,0,0,0-.56-3.06.67.67,0,0,0,.44-.25,1.23,1.23,0,0,0-.22-.42,1.68,1.68,0,0,0,.22-.84,7,7,0,0,0,0-1.19c0-.62,0-.94,0-1.05,0-.62.09-1,.28-1a.63.63,0,0,0-.23-.22l-.14-.07c0-1.08,0-2.69,0-4.87s.07-3.77.08-4.86c0-1.33,0-2.37,0-3.08,0-.45-.38-1.69-.38-2.12,0-1,.6-1.17,1.76-.5a18.07,18.07,0,0,1,2.06,1.66c.38.22.95.51,1.69.9s1.36.71,1.73.92,1.47.39,1.94.66a2.89,2.89,0,0,1,1.53,2.71c0,.9-.19,1.36-.59,1.38-.22.06-.82-.21-1.72-.74a3.68,3.68,0,0,1-.84-1.13C98.16,470.36,98,470.39,97.69,470.55Zm-4.06,8.06c0,.11-.13.11-.34.05a2.26,2.26,0,0,1,.56.79.45.45,0,0,0-.28.48l0,.23a4.55,4.55,0,0,0,.5.58l.16-1a4.39,4.39,0,0,1-.62-1.18m-.52-4.44c-.54-.24-.87-.22-1,0l-.25-.47,0,.1a10.51,10.51,0,0,0,.59,1c.13-.25.32-.29.6-.13a.45.45,0,0,1,.23.4c0-.18.08-.32.21-.35l-.35-.6m-1.43,9.47a1.81,1.81,0,0,0,.5.47l.13.07c0-.06-.41-.45-.4-.56l.15,0c.1.06.28.27.38.33a.57.57,0,0,1,.16-.34,1.75,1.75,0,0,1-.47-.77c0,.31-.06.46-.16.52a1.48,1.48,0,0,0-.31-.32,1.41,1.41,0,0,0-.44,0,5.53,5.53,0,0,1,.47.6m1.65-2.6.05.05a9.63,9.63,0,0,0-.72-1.28,3.81,3.81,0,0,1-.47.59.92.92,0,0,0,.22.2.45.45,0,0,0,.47,0,.32.32,0,0,1-.15-.27l.06-.18a2.67,2.67,0,0,1,.24.94c.08,0,.18-.13.29-.07m-1,.84-.13-.15c-.06,0-.15,0-.28.06v.75c.22.13.84.6,1.1.75a5.54,5.54,0,0,1-.69-1.41m5.05-13.07c.15.2.31.43.5.73a1.5,1.5,0,0,0-.15-.7.42.42,0,0,1-.35,0m.28-.16.46.56.1-.19-.5-.58-.07.21M92.82,486.1l.22.13-.18-.75h-.19l.15.63m.67-1.42-.47-.1v.25l.57.15-.09-.3m3.45-15.54a1.76,1.76,0,0,1,.38.4,1.47,1.47,0,0,0-.15-.7c-.15-.09-.22,0-.22.3M93,489v-.25l-.78-.45v.25L93,489m-.92-7.73.16-.33-.19-.18-.19.29.22.23m1.37-8.49-.16.3.19.22.19-.33-.23-.19m5.09-3.37-.18-.21-.19.32.19.19.19-.29m-6.11,4-.07.17.35.42.09-.17-.37-.42m5.34,7.29-.19.28.19.22.18-.32-.18-.18m-5.79-3.92.41,0-.09-.27h-.31v.26m5.53,4.52v.25l.41,0-.06-.25-.35,0m-5.69-2.32v.25l.41,0-.06-.25-.34,0m1.68,1.66.13-.06-.19-.37-.16.1.22.34M94.91,479l-.13.08.19.36.16-.05-.22-.38"/><path d="M114,487.36c0,.43,0,1.08,0,2s0,1.53,0,2c0,.83-.07,2-.23,3.5s-.2,2.7-.2,3.52c0,.39.06,1.44.06,1.83,0,1-.18,1.66-.53,1.89a6,6,0,0,0-1.07.76c0-.16.44-.53.44-1v-.21a1,1,0,0,0-.54.47,3.47,3.47,0,0,1-.31-.5,2.14,2.14,0,0,1-.5.11,1.92,1.92,0,0,1,.56,1c-.47-.17-1-.43-1.23,0,0-.18-.18-.83-.18-1.08a.46.46,0,0,1,.31-.44l.54-.12s-.22-.49-.62-1.44a.35.35,0,0,0-.13.19,3.91,3.91,0,0,1,.15.8,10.27,10.27,0,0,1-1-.81c.38.19.85-.48,1.19-.28a1,1,0,0,1,.28.28l.13-.47a2,2,0,0,0-.28-.24c-.15-.09-.31-.11-.41,0v-.47a1.38,1.38,0,0,1,.25-1l0-17.54a1,1,0,0,0-.41-.38.68.68,0,0,1,.25-.57,11.27,11.27,0,0,0-.66-1.39c-.25-.32-.5-.69-.74-1a3.73,3.73,0,0,0-.72-.85,1.46,1.46,0,0,0-1.95.17,3,3,0,0,0-.72,2.11,17.51,17.51,0,0,0,.36,4.67c-.28,0-.41.23-.41.77s.13,1.33.13,1.65,0,.87,0,1.57v1.54c0,.84,0,1.53-.07,2.13a7.58,7.58,0,0,0-.28,1.16c0,.51,0,1.23.09,2.24s.08,1.74.08,2.21a.83.83,0,0,1-.24.54,2,2,0,0,1,.06.37c0,.46-.13.71-.38.74.06.18.19.43.34.78a1.29,1.29,0,0,0,.16-.6.59.59,0,0,1,.35-.48,2.12,2.12,0,0,0,.34-.06l.19.29v.61l-.09-.05a.29.29,0,0,0-.44.14c0,.13.12.32.22.56a1,1,0,0,1,.28-.49,7.21,7.21,0,0,1,.29.92,1.35,1.35,0,0,0,.31.72c.25.14.75.61.91.7.07-.22.16-.56.31-1l.15.09.21.13c.36.21.59.27.67.19a10.71,10.71,0,0,1,.63,1.08v.18l0,.16c0,.17-.08.24-.23.16.06,0,0-.06-.27-.3l-.09,0a5.37,5.37,0,0,0,.56,1.29,2.36,2.36,0,0,1-1.51-.33,5.92,5.92,0,0,1-2.68-2.52l-.29.15a2.3,2.3,0,0,1-.74-1.33c0-.28.22-.59.22-.73a.4.4,0,0,0-.1-.31l.07.07c.06,0,.1,0,.1-.16a1.17,1.17,0,0,0-.44-.86,1.14,1.14,0,0,0,.16-.34,3.68,3.68,0,0,0,.43.39l.09-.09c0-.51,0-.81-.12-.9a5,5,0,0,1-.46-.45l0,.16a2.21,2.21,0,0,0,.19.76l-.35-.53a1.08,1.08,0,0,1-1,.39,1.36,1.36,0,0,1-.12-.61c0-.25.06-.4.16-.45a5.39,5.39,0,0,1-.28-.81c.16-.09.22-.27.22-.52a1.46,1.46,0,0,0-.43-1.18,1,1,0,0,1,0-.35.66.66,0,0,0,.47-.16l-.15-.31c.22-.09.47-.23.78-.37a.48.48,0,0,0-.22-.23.73.73,0,0,0-.47-.1c0-.19,0-.27.13-.33a5.77,5.77,0,0,1-.59-1.31,1,1,0,0,1,.5-.93,7.23,7.23,0,0,1,.59,1l.1,0a.55.55,0,0,1,0-.27,4.3,4.3,0,0,0-.81-1.37v-.07l.06-.26a.35.35,0,0,0-.18-.32.74.74,0,0,1,.21-.44c-.09-.24-.28-.63-.56-1.19.09.05.31.33.44.4l.1,0-.16-.31.13,0c.07,0,.08-.11.13-.11l-.48-.28v-.32c0-.27.06-.35.28-.3a.21.21,0,0,1,.13-.22,3.59,3.59,0,0,1-.37-.5,2.35,2.35,0,0,1,0-.69c-.1-.45-.25-1.15-.47-2.07a1.76,1.76,0,0,1,.72-.41,1.73,1.73,0,0,0-.66-.88l.28.16a2.53,2.53,0,0,0,.13-.9c0-.47-.16-1.75-.16-2.18a1.27,1.27,0,0,1,.29-1l-.09-.24.28-.49v-.32a5.89,5.89,0,0,1,.26-1.83,2.06,2.06,0,0,0,.85-.16V473c0-.77.4-1.1,1.38-.93a5.4,5.4,0,0,1,2.07.72l.18.11.37.69c.16-.08.26-.18.26-.32.53.42,1.35,1.07,2.41,1.93.4.56.78,1.13,1.16,1.67a8,8,0,0,1,.9,1.79,18.18,18.18,0,0,1,.61,5c0,.43.12,1.47.12,1.86S114,486.93,114,487.36Zm-1.61-8.09v0a3,3,0,0,1,.56,1,2.08,2.08,0,0,1,.28-.73,2.44,2.44,0,0,1-.5-1,3.93,3.93,0,0,0-.35.71m-.26,5.47a.5.5,0,0,1,.53,0,.32.32,0,0,1,.15.27c0,.11-.09.3-.09.45,0-.11.13-.1.35,0a5.42,5.42,0,0,0-.5-1.07,2.05,2.05,0,0,0-.44.4m-5.22,15.42a5.5,5.5,0,0,0-.53-1.06,2.5,2.5,0,0,1,.18.93.66.66,0,0,1-.06.25l.4-.12m-2.4-5.24c.13.07.43.37.56.44l-.28-.6-.18-.1-.47-.27-.06.11a1.69,1.69,0,0,0,.09.45c0-.16.1-.17.34,0m8.24-13.05c-.12.11-.31.25-.53.45l.69.4-.16-.85m.09,4.69c0-.16.16-.2.37-.08l-.53-.88a3.38,3.38,0,0,1,.15,1m-8.29,7.05a2.2,2.2,0,0,1,.53.28l-.35-.64a.45.45,0,0,0-.18.36m7.25-6.39.19-.32-.22-.23-.19.32.22.24m.78-.16.19.22.19-.32-.19-.18-.19.28M107,500.47v.21l.44,0-.1-.27-.34,0m-2.55-6.37-.19,0,.16.49.22.13-.19-.58m8.29-6.12.41,0-.06-.25-.35,0V488m-1.47-1.74.19.36.16-.09-.22-.39-.13.11m-2.63-11.89.16-.09-.22-.38-.13.11.19.36m4.55,7.45v-.61l-.23-.13v.61l.23.13m-9.44,12v.29l.38.22V494l-.38-.22"/><path d="M108.13,499.33a1.06,1.06,0,0,1-.35.92v-.14a.82.82,0,0,0-.12-.44,1.14,1.14,0,0,1-.34.28s.09-.2.25-.51S107.85,499.2,108.13,499.33Z"/><polygon points="108.83 499.66 108.98 499.6 109.2 499.98 109.04 500.03 108.83 499.66"/><path d="M103.25,487.33l0,0h0Z"/><polygon points="103.88 497.63 104.01 497.53 104.35 498.15 104.22 498.23 103.88 497.63"/><path d="M126,509a7.61,7.61,0,0,1,.31,1.91c0,.86-.54,1.42-1,1.13a2.36,2.36,0,0,0-.44-.4.25.25,0,0,0-.38.11c-.28-.41-1-1-1.24-1.37a2.66,2.66,0,0,0-.35,0s0,.16,0,.49a3,3,0,0,1-.56-.65,3.74,3.74,0,0,0-.59-.62c-.22-.13-.66-.05-.91-.2a9,9,0,0,1-.87-.73,7.38,7.38,0,0,0-.84-.74c-.26-.15.09.38-.13.25s-.91-.85-1.13-1-.34.27-.62.11-.91-.85-1.06-.94c0-.54,0-1.35.07-2.44s.07-1.87.07-2.33l.06,0a.17.17,0,0,0,.18,0,.85.85,0,0,0-.25-.26v-4c0-.07,0-.56.13-1.44s.16-1.56.16-2c0-.24-.06-1.12-.06-2.59,0-1,0-2.39.14-4.31.1-2.21.13-3.49.13-3.81s0-1,0-1.89c0-.36,0-1,.13-2a3.39,3.39,0,0,0-.12-1.26l.55.31a2.81,2.81,0,0,1,.86.62.65.65,0,0,1,.69.08c.22.13,1.15,1,1.56,1.22a11.18,11.18,0,0,1,.44,1.44l-1.6,22.4c.1.08,0,.45.28.59s.06-.11.28,0a2.82,2.82,0,0,1,.78,1.39s.16,0,.35-.09a.5.5,0,0,1,.41.06c.09.05.44.33,1,.75a12.13,12.13,0,0,0,1.06.76l.78.38a7.76,7.76,0,0,1,.82.37l.5.29A5.78,5.78,0,0,0,126,509Zm-8.19-4.86.09-.17-.53-.48v.21l.43.44m-.34-1.86h-.19l.19.47.19.11-.19-.58M122,508.5v-.25l-.66-.38v.25l.66.38"/><polygon points="128.82 487.98 128.6 487.86 128.44 487.37 128.63 487.4 128.82 487.98"/><path d="M132,504.79s-.16.3-.44.93a4.44,4.44,0,0,0-.41,1.81,7.94,7.94,0,0,0,.4,2.28c.28.92.44,1.41.44,1.44a1.26,1.26,0,0,1-.44.76c-.28.3-.47.52-.5.72l-.16-.09-.1,0a2,2,0,0,1-.47-.42l-.09.13a.45.45,0,0,0,.06.21,1.46,1.46,0,0,0-.25-.17.62.62,0,0,0-.65.06,3,3,0,0,0,.43,1,1.52,1.52,0,0,0-.72-.23,2,2,0,0,0,.5,1,1.14,1.14,0,0,1,.59.16,4.57,4.57,0,0,1,1.32,1.51l-1.87-.54-.63-.36a4.68,4.68,0,0,1-.44-1.88c0-.54.26-1.62.26-2.16a3.59,3.59,0,0,0-.15-1,.33.33,0,0,1-.12-.28c0-.19.31-.72.35-1,.09-.87.13-2.37.14-4.42,0-.25,0-.74.07-1.55,0-.63,0-1.17,0-1.58.22.05.34-.06.34-.31a4.73,4.73,0,0,0-.33-1.6,1.12,1.12,0,0,0,.09-.48c0-.44-.18-1.48-.18-1.91a.92.92,0,0,1,.28-.78,7.47,7.47,0,0,0-.56-.93c.1-.17.19-.4.32-.66a6,6,0,0,1-.12-.72c.28,0,.41-.3.41-.81l-.1-.19c-.16.09-.28.12-.34.09a3.49,3.49,0,0,0,.1-.74c0-.61-.38-1.15-.38-1.4s.45-.57.45-1c0-.18,0-.42-.06-.72a3.24,3.24,0,0,1,.19-.44,5.87,5.87,0,0,0-.56-2.15c.23-.56.38-.86.51-.89s.53-.06,1,.23a1.45,1.45,0,0,1,.63.83.26.26,0,0,0,.09-.23,3.23,3.23,0,0,1,.94.83l.4-.05c0,.07-.12.18-.37.32a2.06,2.06,0,0,1,.25.94c0,.39-.32.83-.32,1.11a2.31,2.31,0,0,0,.19.76l-1.13-.33a2.37,2.37,0,0,0,.64.49l.33.18a6.05,6.05,0,0,0,.4,1.77l-.18-.17a1.23,1.23,0,0,1-.29.22V492l-.25-.14v.43l.25.14a2.59,2.59,0,0,0-.21.17v1.87a2.37,2.37,0,0,0,.28.31c0,.25-.16.84-.16,1.13a.74.74,0,0,0,.38.62,11.4,11.4,0,0,0-.36,2.89l.09.52a3.9,3.9,0,0,1,.1.74.55.55,0,0,1-.1.37,9.24,9.24,0,0,0,.47,1.57,8.23,8.23,0,0,1-.69.72A4.78,4.78,0,0,1,132,504.79Zm-1-17.93v.22l.53.12-.06-.25-.46-.09m.07,4.58.19-.32-.19-.18-.19.29.19.21"/><g class="cls-12"><path d="M139.86,517.65a1.06,1.06,0,0,1-.35.91v-.14a.85.85,0,0,0-.12-.44,1.31,1.31,0,0,1-.35.27,2.85,2.85,0,0,0,.26-.5C139.38,517.55,139.57,517.52,139.86,517.65Z"/><path d="M145.68,505.68c0,.43,0,1.08,0,2s0,1.53,0,2c0,.83-.07,2-.23,3.5s-.2,2.7-.2,3.52c0,.39.06,1.44.06,1.83,0,1-.2,1.65-.54,1.88a6.29,6.29,0,0,0-1.07.76c0-.16.44-.53.44-1V520a1.06,1.06,0,0,0-.53.48,2.87,2.87,0,0,1-.32-.51,2.34,2.34,0,0,1-.5.11,1.88,1.88,0,0,1,.56,1c-.46-.16-1-.43-1.22,0,0-.18-.19-.83-.19-1.08a.46.46,0,0,1,.32-.43c.18,0,.37-.07.53-.12,0,0-.22-.49-.62-1.44a.4.4,0,0,0-.12.19,3.91,3.91,0,0,1,.15.8,10.27,10.27,0,0,1-1-.81c.37.19.85-.48,1.19-.28a1,1,0,0,1,.28.28l.13-.47a2.25,2.25,0,0,0-.28-.23c-.15-.09-.32-.11-.41,0V517a1.32,1.32,0,0,1,.26-1l0-17.54a1.08,1.08,0,0,0-.41-.39.7.7,0,0,1,.25-.57,11.6,11.6,0,0,0-.65-1.39c-.25-.32-.5-.69-.75-1a3.57,3.57,0,0,0-.71-.85,1.45,1.45,0,0,0-1.94.17,2.92,2.92,0,0,0-.73,2.1,17.25,17.25,0,0,0,.37,4.67c-.28,0-.41.23-.41.77s.12,1.33.12,1.65,0,.87,0,1.56v1.54c0,.84,0,1.53-.07,2.13a8.1,8.1,0,0,0-.29,1.16c0,.51,0,1.24.09,2.25s.09,1.74.09,2.21a.78.78,0,0,1-.26.54,1.35,1.35,0,0,1,.06.37c0,.46-.12.72-.37.75.06.18.19.43.35.78a1.36,1.36,0,0,0,.16-.6.57.57,0,0,1,.34-.48,2.53,2.53,0,0,0,.34-.06l.19.29v.61l-.1-.06a.28.28,0,0,0-.44.14c0,.13.12.32.22.56a.93.93,0,0,1,.29-.48,7.86,7.86,0,0,1,.28.92,1.31,1.31,0,0,0,.32.73c.24.14.74.61.9.7.06-.22.16-.55.32-1l.15.09.21.13c.36.21.59.27.66.19a9.33,9.33,0,0,1,.63,1.08v.18l0,.17c0,.17-.09.23-.23.15.06,0,0-.07-.27-.3l-.1,0a5.76,5.76,0,0,0,.56,1.29,2.31,2.31,0,0,1-1.5-.32,5.93,5.93,0,0,1-2.69-2.52l-.28.16a2.34,2.34,0,0,1-.75-1.34c0-.28.22-.58.22-.73a.4.4,0,0,0-.09-.3l.06.07c.06,0,.09,0,.09-.16a1.15,1.15,0,0,0-.44-.86,1,1,0,0,0,.16-.34,4.05,4.05,0,0,0,.44.39l.1-.08c0-.51,0-.81-.12-.9a5.54,5.54,0,0,1-.47-.45l0,.16a2.26,2.26,0,0,0,.19.76l-.34-.52a1.12,1.12,0,0,1-1,.39,1.28,1.28,0,0,1-.13-.61c0-.25.06-.4.16-.45a5,5,0,0,1-.28-.81.56.56,0,0,0,.22-.52,1.46,1.46,0,0,0-.43-1.18,1.18,1.18,0,0,1,0-.35.65.65,0,0,0,.47-.16l-.15-.31c.22-.09.47-.23.78-.37a.48.48,0,0,0-.22-.23.69.69,0,0,0-.47-.1.28.28,0,0,1,.13-.33,6,6,0,0,1-.6-1.32,1,1,0,0,1,.51-.93,7.85,7.85,0,0,1,.59,1l.09,0a.6.6,0,0,1,0-.27,4.23,4.23,0,0,0-.81-1.37v-.07l.06-.26a.35.35,0,0,0-.17-.32c0-.15.08-.27.2-.45-.1-.24-.28-.63-.56-1.19.09.05.31.32.43.4l.09,0-.15-.31.13,0c.07,0,.08-.11.14-.11l-.48-.28v-.32c0-.28.06-.35.28-.3a.21.21,0,0,1,.13-.22,3.6,3.6,0,0,1-.38-.5,2.68,2.68,0,0,1,0-.69c-.09-.45-.24-1.15-.46-2.07a1.76,1.76,0,0,1,.72-.41,1.71,1.71,0,0,0-.65-.88l.27.16a2.32,2.32,0,0,0,.13-.9c0-.47-.15-1.75-.15-2.18s.09-.85.29-1l-.09-.24.28-.49v-.32a6,6,0,0,1,.25-1.84,2,2,0,0,0,.85-.16v-.14c0-.77.41-1.09,1.38-.92a5.42,5.42,0,0,1,2.07.72l.18.11.37.69c.16-.09.25-.18.25-.33.53.42,1.35,1.07,2.41,1.93.4.55.78,1.13,1.15,1.67a7.83,7.83,0,0,1,.9,1.79,18,18,0,0,1,.61,5c0,.43.12,1.47.12,1.86S145.69,505.24,145.68,505.68Zm-1.61-8.09v0a3.07,3.07,0,0,1,.56,1,1.83,1.83,0,0,1,.28-.73,2.38,2.38,0,0,1-.5-1,3.39,3.39,0,0,0-.35.7m-.27,5.46a.5.5,0,0,1,.54,0,.32.32,0,0,1,.15.27c0,.11-.09.3-.09.45,0-.11.12-.11.34,0a5,5,0,0,0-.5-1.07,2.05,2.05,0,0,0-.44.4m-5.21,15.42a6,6,0,0,0-.53-1.06,2.62,2.62,0,0,1,.19.94.44.44,0,0,1-.07.24l.41-.12m-2.4-5.24c.13.07.44.37.56.44l-.28-.6-.19-.11-.46-.27-.06.11a1.69,1.69,0,0,0,.09.45c0-.16.09-.17.34,0m8.24-13.05c-.13.11-.31.25-.53.45l.68.39-.15-.84m.08,4.69c0-.16.16-.2.38-.07l-.53-.88a3.13,3.13,0,0,1,.15,1m-8.29,7.05a2.42,2.42,0,0,1,.54.28l-.34-.64a.49.49,0,0,0-.19.36m7.26-6.39.18-.33-.22-.23-.19.32.22.24m.78-.17.19.22.19-.32-.18-.18-.19.28m-5.52,13.41V519l.44,0-.09-.27-.34,0m5.74-12.49.41,0-.06-.25-.34,0v.22m-8.29,6.12-.19,0,.15.48.22.13-.18-.57m6.82-7.86.19.36.16-.09-.22-.39-.13.11m-2.63-11.89.16-.09-.23-.38-.12.11.18.36m4.55,7.45v-.61l-.22-.13V500l.22.13m-9.43,12v.29l.38.22v-.29l-.38-.22"/></g><polygon points="140.54 517.97 140.7 517.92 140.92 518.29 140.76 518.35 140.54 517.97"/><path d="M135,505.65l0,0h0Z"/><polygon points="135.59 515.94 135.72 515.84 136.07 516.46 135.94 516.54 135.59 515.94"/><path d="M148.38,505.52s0,0,0,.09a29,29,0,0,1,2.19,1.91c1,.94,2.07,2,3.19,3.07s2.19,2.16,3.18,3.18,1.73,1.78,2.19,2.29c0,0,.07.19.08.47s0,.62,0,1,0,.69,0,1,0,.5,0,.57L148,517c-.06,0-.12-.2-.19-.52s-.16-.78-.23-1.23-.12-.86-.15-1.22,0-.55,0-.53c.27,0,.65.05,1.11.1l1.59.21c.58.09,1.2.19,1.87.31l2,.35-6.53-6.36c-.06,0,0-.22.05-.55s.21-.67.35-1a8.64,8.64,0,0,1,.38-.86C148.31,505.57,148.36,505.51,148.38,505.52Z"/></g></g></svg>