<svg xmlns="http://www.w3.org/2000/svg" viewBox="0 0 135.13 167.49"><defs><style>.cls-1{fill:#16110d;}.cls-2{fill:#febd33;}.cls-3{fill:#140f0c;}.cls-4{fill:#fbeacc;}.cls-5{fill:#fae9cc;}.cls-6{fill:#f9e8cc;}.cls-7{fill:#f8e7cc;}.cls-8{fill:#fdeccc;}.cls-9{fill:#fcebcc;}.cls-10{fill:#15100c;}.cls-11{fill:#fdbc38;}</style></defs><title>Ladder</title><g id="Layer_2" data-name="Layer 2"><g id="Work"><g id="Work_Home" data-name="Work Home"><g id="illustrator"><g id="_Group_" data-name="&lt;Group&gt;"><g id="_Group_2" data-name="&lt;Group&gt;"><path id="_Path_" data-name="&lt;Path&gt;" class="cls-1" d="M103.37,131.63a.46.46,0,0,1,0,.86,1.65,1.65,0,0,1-1.5,0,.46.46,0,0,1,0-.86A1.65,1.65,0,0,1,103.37,131.63Z"/><path id="_Path_2" data-name="&lt;Path&gt;" class="cls-1" d="M107.28,129.37a.46.46,0,0,1,0,.86,1.65,1.65,0,0,1-1.5,0,.46.46,0,0,1,0-.86A1.65,1.65,0,0,1,107.28,129.37Z"/><path id="_Path_3" data-name="&lt;Path&gt;" class="cls-1" d="M111.19,127.11a.46.46,0,0,1,0,.86,1.65,1.65,0,0,1-1.5,0,.46.46,0,0,1,0-.86A1.65,1.65,0,0,1,111.19,127.11Z"/><path id="_Path_4" data-name="&lt;Path&gt;" class="cls-1" d="M115.11,124.85a.46.46,0,0,1,0,.86,1.65,1.65,0,0,1-1.5,0,.46.46,0,0,1,0-.86A1.65,1.65,0,0,1,115.11,124.85Z"/><path id="_Path_5" data-name="&lt;Path&gt;" class="cls-1" d="M119,122.59a.46.46,0,0,1,0,.86,1.65,1.65,0,0,1-1.5,0,.46.46,0,0,1,0-.86A1.65,1.65,0,0,1,119,122.59Z"/><path id="_Path_6" data-name="&lt;Path&gt;" class="cls-1" d="M122.93,120.33a.46.46,0,0,1,0,.86,1.65,1.65,0,0,1-1.5,0,.46.46,0,0,1,0-.86A1.65,1.65,0,0,1,122.93,120.33Z"/><path id="_Path_7" data-name="&lt;Path&gt;" class="cls-1" d="M126.84,118.07a.46.46,0,0,1,0,.86,1.65,1.65,0,0,1-1.5,0,.46.46,0,0,1,0-.86A1.65,1.65,0,0,1,126.84,118.07Z"/><path id="_Path_8" data-name="&lt;Path&gt;" class="cls-1" d="M130.76,115.81a.46.46,0,0,1,0,.86,1.65,1.65,0,0,1-1.5,0,.46.46,0,0,1,0-.86A1.65,1.65,0,0,1,130.76,115.81Z"/><path id="_Path_9" data-name="&lt;Path&gt;" class="cls-1" d="M99.45,129.37a.46.46,0,0,1,0,.86,1.65,1.65,0,0,1-1.5,0,.46.46,0,0,1,0-.86A1.65,1.65,0,0,1,99.45,129.37Z"/><path id="_Path_10" data-name="&lt;Path&gt;" class="cls-1" d="M103.37,127.11a.46.46,0,0,1,0,.86,1.65,1.65,0,0,1-1.5,0,.46.46,0,0,1,0-.86A1.65,1.65,0,0,1,103.37,127.11Z"/><path id="_Path_11" data-name="&lt;Path&gt;" class="cls-1" d="M107.28,124.85a.46.46,0,0,1,0,.86,1.65,1.65,0,0,1-1.5,0,.46.46,0,0,1,0-.86A1.65,1.65,0,0,1,107.28,124.85Z"/><path id="_Path_12" data-name="&lt;Path&gt;" class="cls-1" d="M111.19,122.59a.46.46,0,0,1,0,.86,1.65,1.65,0,0,1-1.5,0,.46.46,0,0,1,0-.86A1.65,1.65,0,0,1,111.19,122.59Z"/><path id="_Path_13" data-name="&lt;Path&gt;" class="cls-1" d="M115.11,120.33a.46.46,0,0,1,0,.86,1.65,1.65,0,0,1-1.5,0,.46.46,0,0,1,0-.86A1.65,1.65,0,0,1,115.11,120.33Z"/><path id="_Path_14" data-name="&lt;Path&gt;" class="cls-1" d="M119,118.07a.46.46,0,0,1,0,.86,1.65,1.65,0,0,1-1.5,0,.46.46,0,0,1,0-.86A1.65,1.65,0,0,1,119,118.07Z"/><path id="_Path_15" data-name="&lt;Path&gt;" class="cls-1" d="M122.93,115.81a.46.46,0,0,1,0,.86,1.65,1.65,0,0,1-1.5,0,.46.46,0,0,1,0-.86A1.65,1.65,0,0,1,122.93,115.81Z"/><path id="_Path_16" data-name="&lt;Path&gt;" class="cls-1" d="M126.84,113.55a.46.46,0,0,1,0,.86,1.65,1.65,0,0,1-1.5,0,.46.46,0,0,1,0-.86A1.65,1.65,0,0,1,126.84,113.55Z"/><path id="_Path_17" data-name="&lt;Path&gt;" class="cls-1" d="M95.54,127.11a.46.46,0,0,1,0,.86,1.65,1.65,0,0,1-1.5,0,.46.46,0,0,1,0-.86A1.65,1.65,0,0,1,95.54,127.11Z"/><path id="_Path_18" data-name="&lt;Path&gt;" class="cls-1" d="M99.45,124.85a.46.46,0,0,1,0,.86,1.65,1.65,0,0,1-1.5,0,.46.46,0,0,1,0-.86A1.65,1.65,0,0,1,99.45,124.85Z"/><path id="_Path_19" data-name="&lt;Path&gt;" class="cls-1" d="M103.37,122.59a.46.46,0,0,1,0,.86,1.65,1.65,0,0,1-1.5,0,.46.46,0,0,1,0-.86A1.65,1.65,0,0,1,103.37,122.59Z"/><path id="_Path_20" data-name="&lt;Path&gt;" class="cls-1" d="M107.28,120.33a.46.46,0,0,1,0,.86,1.65,1.65,0,0,1-1.5,0,.46.46,0,0,1,0-.86A1.65,1.65,0,0,1,107.28,120.33Z"/><path id="_Path_21" data-name="&lt;Path&gt;" class="cls-1" d="M111.19,118.07a.46.46,0,0,1,0,.86,1.65,1.65,0,0,1-1.5,0,.46.46,0,0,1,0-.86A1.65,1.65,0,0,1,111.19,118.07Z"/><path id="_Path_22" data-name="&lt;Path&gt;" class="cls-1" d="M115.11,115.81a.46.46,0,0,1,0,.86,1.65,1.65,0,0,1-1.5,0,.46.46,0,0,1,0-.86A1.65,1.65,0,0,1,115.11,115.81Z"/><path id="_Path_23" data-name="&lt;Path&gt;" class="cls-1" d="M119,113.55a.46.46,0,0,1,0,.86,1.65,1.65,0,0,1-1.5,0,.46.46,0,0,1,0-.86A1.65,1.65,0,0,1,119,113.55Z"/><path id="_Path_24" data-name="&lt;Path&gt;" class="cls-1" d="M122.93,111.29a.46.46,0,0,1,0,.86,1.65,1.65,0,0,1-1.5,0,.46.46,0,0,1,0-.86A1.65,1.65,0,0,1,122.93,111.29Z"/><path id="_Path_25" data-name="&lt;Path&gt;" class="cls-1" d="M91.63,124.85a.46.46,0,0,1,0,.86,1.65,1.65,0,0,1-1.5,0,.46.46,0,0,1,0-.86A1.65,1.65,0,0,1,91.63,124.85Z"/><path id="_Path_26" data-name="&lt;Path&gt;" class="cls-1" d="M95.54,122.59a.46.46,0,0,1,0,.86,1.65,1.65,0,0,1-1.5,0,.46.46,0,0,1,0-.86A1.65,1.65,0,0,1,95.54,122.59Z"/><path id="_Path_27" data-name="&lt;Path&gt;" class="cls-1" d="M99.45,120.33a.46.46,0,0,1,0,.86,1.65,1.65,0,0,1-1.5,0,.46.46,0,0,1,0-.86A1.65,1.65,0,0,1,99.45,120.33Z"/><path id="_Path_28" data-name="&lt;Path&gt;" class="cls-1" d="M103.37,118.07a.46.46,0,0,1,0,.86,1.65,1.65,0,0,1-1.5,0,.46.46,0,0,1,0-.86A1.65,1.65,0,0,1,103.37,118.07Z"/><path id="_Path_29" data-name="&lt;Path&gt;" class="cls-1" d="M107.28,115.81a.46.46,0,0,1,0,.86,1.65,1.65,0,0,1-1.5,0,.46.46,0,0,1,0-.86A1.65,1.65,0,0,1,107.28,115.81Z"/><path id="_Path_30" data-name="&lt;Path&gt;" class="cls-1" d="M111.19,113.55a.46.46,0,0,1,0,.86,1.65,1.65,0,0,1-1.5,0,.46.46,0,0,1,0-.86A1.65,1.65,0,0,1,111.19,113.55Z"/><path id="_Path_31" data-name="&lt;Path&gt;" class="cls-1" d="M115.11,111.29a.46.46,0,0,1,0,.86,1.65,1.65,0,0,1-1.5,0,.46.46,0,0,1,0-.86A1.65,1.65,0,0,1,115.11,111.29Z"/><path id="_Path_32" data-name="&lt;Path&gt;" class="cls-1" d="M119,109a.46.46,0,0,1,0,.86,1.65,1.65,0,0,1-1.5,0,.46.46,0,0,1,0-.86A1.65,1.65,0,0,1,119,109Z"/><path id="_Path_33" data-name="&lt;Path&gt;" class="cls-1" d="M87.71,122.59a.46.46,0,0,1,0,.86,1.65,1.65,0,0,1-1.5,0,.46.46,0,0,1,0-.86A1.65,1.65,0,0,1,87.71,122.59Z"/><path id="_Path_34" data-name="&lt;Path&gt;" class="cls-1" d="M91.63,120.33a.46.46,0,0,1,0,.86,1.65,1.65,0,0,1-1.5,0,.46.46,0,0,1,0-.86A1.65,1.65,0,0,1,91.63,120.33Z"/><path id="_Path_35" data-name="&lt;Path&gt;" class="cls-1" d="M95.54,118.07a.46.46,0,0,1,0,.86,1.65,1.65,0,0,1-1.5,0,.46.46,0,0,1,0-.86A1.65,1.65,0,0,1,95.54,118.07Z"/><path id="_Path_36" data-name="&lt;Path&gt;" class="cls-1" d="M99.45,115.81a.46.46,0,0,1,0,.86,1.65,1.65,0,0,1-1.5,0,.46.46,0,0,1,0-.86A1.65,1.65,0,0,1,99.45,115.81Z"/><path id="_Path_37" data-name="&lt;Path&gt;" class="cls-1" d="M103.37,113.55a.46.46,0,0,1,0,.86,1.65,1.65,0,0,1-1.5,0,.46.46,0,0,1,0-.86A1.65,1.65,0,0,1,103.37,113.55Z"/><path id="_Path_38" data-name="&lt;Path&gt;" class="cls-1" d="M107.28,111.29a.46.46,0,0,1,0,.86,1.65,1.65,0,0,1-1.5,0,.46.46,0,0,1,0-.86A1.65,1.65,0,0,1,107.28,111.29Z"/><path id="_Path_39" data-name="&lt;Path&gt;" class="cls-1" d="M111.19,109a.46.46,0,0,1,0,.86,1.65,1.65,0,0,1-1.5,0,.46.46,0,0,1,0-.86A1.65,1.65,0,0,1,111.19,109Z"/><path id="_Path_40" data-name="&lt;Path&gt;" class="cls-1" d="M115.11,106.78a.46.46,0,0,1,0,.86,1.65,1.65,0,0,1-1.5,0,.46.46,0,0,1,0-.86A1.65,1.65,0,0,1,115.11,106.78Z"/><path id="_Path_41" data-name="&lt;Path&gt;" class="cls-1" d="M83.77,120.31a.46.46,0,0,1,0,.86,1.65,1.65,0,0,1-1.5,0,.46.46,0,0,1,0-.86A1.65,1.65,0,0,1,83.77,120.31Z"/><path id="_Path_42" data-name="&lt;Path&gt;" class="cls-1" d="M87.68,118a.46.46,0,0,1,0,.86,1.65,1.65,0,0,1-1.5,0,.46.46,0,0,1,0-.86A1.65,1.65,0,0,1,87.68,118Z"/><path id="_Path_43" data-name="&lt;Path&gt;" class="cls-1" d="M91.59,115.79a.46.46,0,0,1,0,.86,1.65,1.65,0,0,1-1.5,0,.46.46,0,0,1,0-.86A1.65,1.65,0,0,1,91.59,115.79Z"/><path id="_Path_44" data-name="&lt;Path&gt;" class="cls-1" d="M95.51,113.53a.46.46,0,0,1,0,.86,1.65,1.65,0,0,1-1.5,0,.46.46,0,0,1,0-.86A1.65,1.65,0,0,1,95.51,113.53Z"/><path id="_Path_45" data-name="&lt;Path&gt;" class="cls-1" d="M99.42,111.27a.46.46,0,0,1,0,.86,1.65,1.65,0,0,1-1.5,0,.46.46,0,0,1,0-.86A1.65,1.65,0,0,1,99.42,111.27Z"/><path id="_Path_46" data-name="&lt;Path&gt;" class="cls-1" d="M103.33,109a.46.46,0,0,1,0,.86,1.65,1.65,0,0,1-1.5,0,.46.46,0,0,1,0-.86A1.65,1.65,0,0,1,103.33,109Z"/><path id="_Path_47" data-name="&lt;Path&gt;" class="cls-1" d="M107.25,106.75a.46.46,0,0,1,0,.86,1.65,1.65,0,0,1-1.5,0,.46.46,0,0,1,0-.86A1.65,1.65,0,0,1,107.25,106.75Z"/><path id="_Path_48" data-name="&lt;Path&gt;" class="cls-1" d="M111.16,104.49a.46.46,0,0,1,0,.86,1.65,1.65,0,0,1-1.5,0,.46.46,0,0,1,0-.86A1.65,1.65,0,0,1,111.16,104.49Z"/><path id="_Path_49" data-name="&lt;Path&gt;" class="cls-1" d="M79.85,118a.46.46,0,0,1,0,.86,1.65,1.65,0,0,1-1.5,0,.46.46,0,0,1,0-.86A1.65,1.65,0,0,1,79.85,118Z"/><path id="_Path_50" data-name="&lt;Path&gt;" class="cls-1" d="M83.77,115.79a.46.46,0,0,1,0,.86,1.65,1.65,0,0,1-1.5,0,.46.46,0,0,1,0-.86A1.65,1.65,0,0,1,83.77,115.79Z"/><path id="_Path_51" data-name="&lt;Path&gt;" class="cls-1" d="M87.68,113.53a.46.46,0,0,1,0,.86,1.65,1.65,0,0,1-1.5,0,.46.46,0,0,1,0-.86A1.65,1.65,0,0,1,87.68,113.53Z"/><path id="_Path_52" data-name="&lt;Path&gt;" class="cls-1" d="M91.59,111.27a.46.46,0,0,1,0,.86,1.65,1.65,0,0,1-1.5,0,.46.46,0,0,1,0-.86A1.65,1.65,0,0,1,91.59,111.27Z"/><path id="_Path_53" data-name="&lt;Path&gt;" class="cls-1" d="M95.51,109a.46.46,0,0,1,0,.86,1.65,1.65,0,0,1-1.5,0,.46.46,0,0,1,0-.86A1.65,1.65,0,0,1,95.51,109Z"/><path id="_Path_54" data-name="&lt;Path&gt;" class="cls-1" d="M99.42,106.75a.46.46,0,0,1,0,.86,1.65,1.65,0,0,1-1.5,0,.46.46,0,0,1,0-.86A1.65,1.65,0,0,1,99.42,106.75Z"/><path id="_Path_55" data-name="&lt;Path&gt;" class="cls-1" d="M103.33,104.49a.46.46,0,0,1,0,.86,1.65,1.65,0,0,1-1.5,0,.46.46,0,0,1,0-.86A1.65,1.65,0,0,1,103.33,104.49Z"/><path id="_Path_56" data-name="&lt;Path&gt;" class="cls-1" d="M107.25,102.23a.46.46,0,0,1,0,.86,1.65,1.65,0,0,1-1.5,0,.46.46,0,0,1,0-.86A1.65,1.65,0,0,1,107.25,102.23Z"/><path id="_Path_57" data-name="&lt;Path&gt;" class="cls-1" d="M75.94,115.79a.46.46,0,0,1,0,.86,1.65,1.65,0,0,1-1.5,0,.46.46,0,0,1,0-.86A1.65,1.65,0,0,1,75.94,115.79Z"/><path id="_Path_58" data-name="&lt;Path&gt;" class="cls-1" d="M79.85,113.53a.46.46,0,0,1,0,.86,1.65,1.65,0,0,1-1.5,0,.46.46,0,0,1,0-.86A1.65,1.65,0,0,1,79.85,113.53Z"/><path id="_Path_59" data-name="&lt;Path&gt;" class="cls-1" d="M83.77,111.27a.46.46,0,0,1,0,.86,1.65,1.65,0,0,1-1.5,0,.46.46,0,0,1,0-.86A1.65,1.65,0,0,1,83.77,111.27Z"/><path id="_Path_60" data-name="&lt;Path&gt;" class="cls-1" d="M87.68,109a.46.46,0,0,1,0,.86,1.65,1.65,0,0,1-1.5,0,.46.46,0,0,1,0-.86A1.65,1.65,0,0,1,87.68,109Z"/><path id="_Path_61" data-name="&lt;Path&gt;" class="cls-1" d="M91.59,106.75a.46.46,0,0,1,0,.86,1.65,1.65,0,0,1-1.5,0,.46.46,0,0,1,0-.86A1.65,1.65,0,0,1,91.59,106.75Z"/><path id="_Path_62" data-name="&lt;Path&gt;" class="cls-1" d="M95.51,104.49a.46.46,0,0,1,0,.86,1.65,1.65,0,0,1-1.5,0,.46.46,0,0,1,0-.86A1.65,1.65,0,0,1,95.51,104.49Z"/><path id="_Path_63" data-name="&lt;Path&gt;" class="cls-1" d="M99.42,102.23a.46.46,0,0,1,0,.86,1.65,1.65,0,0,1-1.5,0,.46.46,0,0,1,0-.86A1.65,1.65,0,0,1,99.42,102.23Z"/><path id="_Path_64" data-name="&lt;Path&gt;" class="cls-1" d="M103.33,100a.46.46,0,0,1,0,.86,1.65,1.65,0,0,1-1.5,0,.46.46,0,0,1,0-.86A1.65,1.65,0,0,1,103.33,100Z"/><path id="_Path_65" data-name="&lt;Path&gt;" class="cls-1" d="M72,113.53a.46.46,0,0,1,0,.86,1.65,1.65,0,0,1-1.5,0,.46.46,0,0,1,0-.86A1.65,1.65,0,0,1,72,113.53Z"/><path id="_Path_66" data-name="&lt;Path&gt;" class="cls-1" d="M75.94,111.27a.46.46,0,0,1,0,.86,1.65,1.65,0,0,1-1.5,0,.46.46,0,0,1,0-.86A1.65,1.65,0,0,1,75.94,111.27Z"/><path id="_Path_67" data-name="&lt;Path&gt;" class="cls-1" d="M79.85,109a.46.46,0,0,1,0,.86,1.65,1.65,0,0,1-1.5,0,.46.46,0,0,1,0-.86A1.65,1.65,0,0,1,79.85,109Z"/><path id="_Path_68" data-name="&lt;Path&gt;" class="cls-1" d="M83.77,106.75a.46.46,0,0,1,0,.86,1.65,1.65,0,0,1-1.5,0,.46.46,0,0,1,0-.86A1.65,1.65,0,0,1,83.77,106.75Z"/><path id="_Path_69" data-name="&lt;Path&gt;" class="cls-1" d="M87.68,104.49a.46.46,0,0,1,0,.86,1.65,1.65,0,0,1-1.5,0,.46.46,0,0,1,0-.86A1.65,1.65,0,0,1,87.68,104.49Z"/><path id="_Path_70" data-name="&lt;Path&gt;" class="cls-1" d="M91.59,102.23a.46.46,0,0,1,0,.86,1.65,1.65,0,0,1-1.5,0,.46.46,0,0,1,0-.86A1.65,1.65,0,0,1,91.59,102.23Z"/><path id="_Path_71" data-name="&lt;Path&gt;" class="cls-1" d="M95.51,100a.46.46,0,0,1,0,.86,1.65,1.65,0,0,1-1.5,0,.46.46,0,0,1,0-.86A1.65,1.65,0,0,1,95.51,100Z"/><path id="_Path_72" data-name="&lt;Path&gt;" class="cls-1" d="M99.42,97.72a.46.46,0,0,1,0,.86,1.65,1.65,0,0,1-1.5,0,.46.46,0,0,1,0-.86A1.65,1.65,0,0,1,99.42,97.72Z"/><path id="_Path_73" data-name="&lt;Path&gt;" class="cls-1" d="M68.11,111.27a.46.46,0,0,1,0,.86,1.65,1.65,0,0,1-1.5,0,.46.46,0,0,1,0-.86A1.65,1.65,0,0,1,68.11,111.27Z"/><path id="_Path_74" data-name="&lt;Path&gt;" class="cls-1" d="M72,109a.46.46,0,0,1,0,.86,1.65,1.65,0,0,1-1.5,0,.46.46,0,0,1,0-.86A1.65,1.65,0,0,1,72,109Z"/><path id="_Path_75" data-name="&lt;Path&gt;" class="cls-1" d="M75.94,106.75a.46.46,0,0,1,0,.86,1.65,1.65,0,0,1-1.5,0,.46.46,0,0,1,0-.86A1.65,1.65,0,0,1,75.94,106.75Z"/><path id="_Path_76" data-name="&lt;Path&gt;" class="cls-1" d="M79.85,104.49a.46.46,0,0,1,0,.86,1.65,1.65,0,0,1-1.5,0,.46.46,0,0,1,0-.86A1.65,1.65,0,0,1,79.85,104.49Z"/><path id="_Path_77" data-name="&lt;Path&gt;" class="cls-1" d="M83.77,102.23a.46.46,0,0,1,0,.86,1.65,1.65,0,0,1-1.5,0,.46.46,0,0,1,0-.86A1.65,1.65,0,0,1,83.77,102.23Z"/><path id="_Path_78" data-name="&lt;Path&gt;" class="cls-1" d="M87.68,100a.46.46,0,0,1,0,.86,1.65,1.65,0,0,1-1.5,0,.46.46,0,0,1,0-.86A1.65,1.65,0,0,1,87.68,100Z"/><path id="_Path_79" data-name="&lt;Path&gt;" class="cls-1" d="M91.59,97.72a.46.46,0,0,1,0,.86,1.65,1.65,0,0,1-1.5,0,.46.46,0,0,1,0-.86A1.65,1.65,0,0,1,91.59,97.72Z"/><path id="_Path_80" data-name="&lt;Path&gt;" class="cls-1" d="M95.51,95.46a.46.46,0,0,1,0,.86,1.65,1.65,0,0,1-1.5,0,.46.46,0,0,1,0-.86A1.65,1.65,0,0,1,95.51,95.46Z"/><path id="_Path_81" data-name="&lt;Path&gt;" class="cls-1" d="M64.2,109a.46.46,0,0,1,0,.86,1.65,1.65,0,0,1-1.5,0,.46.46,0,0,1,0-.86A1.65,1.65,0,0,1,64.2,109Z"/><path id="_Path_82" data-name="&lt;Path&gt;" class="cls-1" d="M68.11,106.75a.46.46,0,0,1,0,.86,1.65,1.65,0,0,1-1.5,0,.46.46,0,0,1,0-.86A1.65,1.65,0,0,1,68.11,106.75Z"/><path id="_Path_83" data-name="&lt;Path&gt;" class="cls-1" d="M72,104.49a.46.46,0,0,1,0,.86,1.65,1.65,0,0,1-1.5,0,.46.46,0,0,1,0-.86A1.65,1.65,0,0,1,72,104.49Z"/><path id="_Path_84" data-name="&lt;Path&gt;" class="cls-1" d="M75.94,102.23a.46.46,0,0,1,0,.86,1.65,1.65,0,0,1-1.5,0,.46.46,0,0,1,0-.86A1.65,1.65,0,0,1,75.94,102.23Z"/><path id="_Path_85" data-name="&lt;Path&gt;" class="cls-1" d="M79.85,100a.46.46,0,0,1,0,.86,1.65,1.65,0,0,1-1.5,0,.46.46,0,0,1,0-.86A1.65,1.65,0,0,1,79.85,100Z"/><path id="_Path_86" data-name="&lt;Path&gt;" class="cls-1" d="M83.77,97.72a.46.46,0,0,1,0,.86,1.65,1.65,0,0,1-1.5,0,.46.46,0,0,1,0-.86A1.65,1.65,0,0,1,83.77,97.72Z"/><path id="_Path_87" data-name="&lt;Path&gt;" class="cls-1" d="M87.68,95.46a.46.46,0,0,1,0,.86,1.65,1.65,0,0,1-1.5,0,.46.46,0,0,1,0-.86A1.65,1.65,0,0,1,87.68,95.46Z"/><path id="_Path_88" data-name="&lt;Path&gt;" class="cls-1" d="M91.59,93.2a.46.46,0,0,1,0,.86,1.65,1.65,0,0,1-1.5,0,.46.46,0,0,1,0-.86A1.65,1.65,0,0,1,91.59,93.2Z"/><path id="_Path_89" data-name="&lt;Path&gt;" class="cls-1" d="M60.29,106.75a.46.46,0,0,1,0,.86,1.65,1.65,0,0,1-1.5,0,.46.46,0,0,1,0-.86A1.65,1.65,0,0,1,60.29,106.75Z"/><path id="_Path_90" data-name="&lt;Path&gt;" class="cls-1" d="M64.2,104.49a.46.46,0,0,1,0,.86,1.65,1.65,0,0,1-1.5,0,.46.46,0,0,1,0-.86A1.65,1.65,0,0,1,64.2,104.49Z"/><path id="_Path_91" data-name="&lt;Path&gt;" class="cls-1" d="M68.12,102.23a.46.46,0,0,1,0,.86,1.65,1.65,0,0,1-1.5,0,.46.46,0,0,1,0-.86A1.65,1.65,0,0,1,68.12,102.23Z"/><path id="_Path_92" data-name="&lt;Path&gt;" class="cls-1" d="M72,100a.46.46,0,0,1,0,.86,1.65,1.65,0,0,1-1.5,0,.46.46,0,0,1,0-.86A1.65,1.65,0,0,1,72,100Z"/><path id="_Path_93" data-name="&lt;Path&gt;" class="cls-1" d="M75.94,97.72a.46.46,0,0,1,0,.86,1.65,1.65,0,0,1-1.5,0,.46.46,0,0,1,0-.86A1.65,1.65,0,0,1,75.94,97.72Z"/><path id="_Path_94" data-name="&lt;Path&gt;" class="cls-1" d="M79.85,95.46a.46.46,0,0,1,0,.86,1.65,1.65,0,0,1-1.5,0,.46.46,0,0,1,0-.86A1.65,1.65,0,0,1,79.85,95.46Z"/><path id="_Path_95" data-name="&lt;Path&gt;" class="cls-1" d="M83.77,93.2a.46.46,0,0,1,0,.86,1.65,1.65,0,0,1-1.5,0,.46.46,0,0,1,0-.86A1.65,1.65,0,0,1,83.77,93.2Z"/><path id="_Path_96" data-name="&lt;Path&gt;" class="cls-1" d="M87.68,90.94a.46.46,0,0,1,0,.86,1.65,1.65,0,0,1-1.5,0,.46.46,0,0,1,0-.86A1.65,1.65,0,0,1,87.68,90.94Z"/><path id="_Path_97" data-name="&lt;Path&gt;" class="cls-1" d="M56.38,104.49a.46.46,0,0,1,0,.86,1.65,1.65,0,0,1-1.5,0,.46.46,0,0,1,0-.86A1.65,1.65,0,0,1,56.38,104.49Z"/><path id="_Path_98" data-name="&lt;Path&gt;" class="cls-1" d="M60.29,102.23a.46.46,0,0,1,0,.86,1.65,1.65,0,0,1-1.5,0,.46.46,0,0,1,0-.86A1.65,1.65,0,0,1,60.29,102.23Z"/><path id="_Path_99" data-name="&lt;Path&gt;" class="cls-1" d="M64.2,100a.46.46,0,0,1,0,.86,1.65,1.65,0,0,1-1.5,0,.46.46,0,0,1,0-.86A1.65,1.65,0,0,1,64.2,100Z"/><path id="_Path_100" data-name="&lt;Path&gt;" class="cls-1" d="M68.12,97.72a.46.46,0,0,1,0,.86,1.65,1.65,0,0,1-1.5,0,.46.46,0,0,1,0-.86A1.65,1.65,0,0,1,68.12,97.72Z"/><path id="_Path_101" data-name="&lt;Path&gt;" class="cls-1" d="M72,95.46a.46.46,0,0,1,0,.86,1.65,1.65,0,0,1-1.5,0,.46.46,0,0,1,0-.86A1.65,1.65,0,0,1,72,95.46Z"/><path id="_Path_102" data-name="&lt;Path&gt;" class="cls-1" d="M75.94,93.2a.46.46,0,0,1,0,.86,1.65,1.65,0,0,1-1.5,0,.46.46,0,0,1,0-.86A1.65,1.65,0,0,1,75.94,93.2Z"/><path id="_Path_103" data-name="&lt;Path&gt;" class="cls-1" d="M79.85,90.94a.46.46,0,0,1,0,.86,1.65,1.65,0,0,1-1.5,0,.46.46,0,0,1,0-.86A1.65,1.65,0,0,1,79.85,90.94Z"/><path id="_Path_104" data-name="&lt;Path&gt;" class="cls-1" d="M83.77,88.68a.46.46,0,0,1,0,.86,1.65,1.65,0,0,1-1.5,0,.46.46,0,0,1,0-.86A1.65,1.65,0,0,1,83.77,88.68Z"/><path id="_Path_105" data-name="&lt;Path&gt;" class="cls-1" d="M52.43,102.21a.46.46,0,0,1,0,.86,1.65,1.65,0,0,1-1.5,0,.46.46,0,0,1,0-.86A1.65,1.65,0,0,1,52.43,102.21Z"/><path id="_Path_106" data-name="&lt;Path&gt;" class="cls-1" d="M56.34,100a.46.46,0,0,1,0,.86,1.65,1.65,0,0,1-1.5,0,.46.46,0,0,1,0-.86A1.65,1.65,0,0,1,56.34,100Z"/><path id="_Path_107" data-name="&lt;Path&gt;" class="cls-1" d="M60.26,97.69a.46.46,0,0,1,0,.86,1.65,1.65,0,0,1-1.5,0,.46.46,0,0,1,0-.86A1.65,1.65,0,0,1,60.26,97.69Z"/><path id="_Path_108" data-name="&lt;Path&gt;" class="cls-1" d="M64.17,95.43a.46.46,0,0,1,0,.86,1.65,1.65,0,0,1-1.5,0,.46.46,0,0,1,0-.86A1.65,1.65,0,0,1,64.17,95.43Z"/><path id="_Path_109" data-name="&lt;Path&gt;" class="cls-1" d="M68.08,93.17a.46.46,0,0,1,0,.86,1.65,1.65,0,0,1-1.5,0,.46.46,0,0,1,0-.86A1.65,1.65,0,0,1,68.08,93.17Z"/><path id="_Path_110" data-name="&lt;Path&gt;" class="cls-1" d="M72,90.91a.46.46,0,0,1,0,.86,1.65,1.65,0,0,1-1.5,0,.46.46,0,0,1,0-.86A1.65,1.65,0,0,1,72,90.91Z"/><path id="_Path_111" data-name="&lt;Path&gt;" class="cls-1" d="M75.91,88.65a.46.46,0,0,1,0,.86,1.65,1.65,0,0,1-1.5,0,.46.46,0,0,1,0-.86A1.65,1.65,0,0,1,75.91,88.65Z"/><path id="_Path_112" data-name="&lt;Path&gt;" class="cls-1" d="M79.82,86.4a.46.46,0,0,1,0,.86,1.65,1.65,0,0,1-1.5,0,.46.46,0,0,1,0-.86A1.65,1.65,0,0,1,79.82,86.4Z"/><path id="_Path_113" data-name="&lt;Path&gt;" class="cls-1" d="M48.52,100a.46.46,0,0,1,0,.86,1.65,1.65,0,0,1-1.5,0,.46.46,0,0,1,0-.86A1.65,1.65,0,0,1,48.52,100Z"/><path id="_Path_114" data-name="&lt;Path&gt;" class="cls-1" d="M52.43,97.69a.46.46,0,0,1,0,.86,1.65,1.65,0,0,1-1.5,0,.46.46,0,0,1,0-.86A1.65,1.65,0,0,1,52.43,97.69Z"/><path id="_Path_115" data-name="&lt;Path&gt;" class="cls-1" d="M56.34,95.43a.46.46,0,0,1,0,.86,1.65,1.65,0,0,1-1.5,0,.46.46,0,0,1,0-.86A1.65,1.65,0,0,1,56.34,95.43Z"/><path id="_Path_116" data-name="&lt;Path&gt;" class="cls-1" d="M60.26,93.17a.46.46,0,0,1,0,.86,1.65,1.65,0,0,1-1.5,0,.46.46,0,0,1,0-.86A1.65,1.65,0,0,1,60.26,93.17Z"/><path id="_Path_117" data-name="&lt;Path&gt;" class="cls-1" d="M64.17,90.91a.46.46,0,0,1,0,.86,1.65,1.65,0,0,1-1.5,0,.46.46,0,0,1,0-.86A1.65,1.65,0,0,1,64.17,90.91Z"/><path id="_Path_118" data-name="&lt;Path&gt;" class="cls-1" d="M68.08,88.65a.46.46,0,0,1,0,.86,1.65,1.65,0,0,1-1.5,0,.46.46,0,0,1,0-.86A1.65,1.65,0,0,1,68.08,88.65Z"/><path id="_Path_119" data-name="&lt;Path&gt;" class="cls-1" d="M72,86.4a.46.46,0,0,1,0,.86,1.65,1.65,0,0,1-1.5,0,.46.46,0,0,1,0-.86A1.65,1.65,0,0,1,72,86.4Z"/><path id="_Path_120" data-name="&lt;Path&gt;" class="cls-1" d="M75.91,84.14a.46.46,0,0,1,0,.86,1.65,1.65,0,0,1-1.5,0,.46.46,0,0,1,0-.86A1.65,1.65,0,0,1,75.91,84.14Z"/><path id="_Path_121" data-name="&lt;Path&gt;" class="cls-1" d="M48.52,95.43a.46.46,0,0,1,0,.86,1.65,1.65,0,0,1-1.5,0,.46.46,0,0,1,0-.86A1.65,1.65,0,0,1,48.52,95.43Z"/><path id="_Path_122" data-name="&lt;Path&gt;" class="cls-1" d="M52.43,93.17a.46.46,0,0,1,0,.86,1.65,1.65,0,0,1-1.5,0,.46.46,0,0,1,0-.86A1.65,1.65,0,0,1,52.43,93.17Z"/><path id="_Path_123" data-name="&lt;Path&gt;" class="cls-1" d="M56.34,90.91a.46.46,0,0,1,0,.86,1.65,1.65,0,0,1-1.5,0,.46.46,0,0,1,0-.86A1.65,1.65,0,0,1,56.34,90.91Z"/><path id="_Path_124" data-name="&lt;Path&gt;" class="cls-1" d="M60.26,88.65a.46.46,0,0,1,0,.86,1.65,1.65,0,0,1-1.5,0,.46.46,0,0,1,0-.86A1.65,1.65,0,0,1,60.26,88.65Z"/><path id="_Path_125" data-name="&lt;Path&gt;" class="cls-1" d="M64.17,86.4a.46.46,0,0,1,0,.86,1.65,1.65,0,0,1-1.5,0,.46.46,0,0,1,0-.86A1.65,1.65,0,0,1,64.17,86.4Z"/><path id="_Path_126" data-name="&lt;Path&gt;" class="cls-1" d="M68.08,84.14a.46.46,0,0,1,0,.86,1.65,1.65,0,0,1-1.5,0,.46.46,0,0,1,0-.86A1.65,1.65,0,0,1,68.08,84.14Z"/><path id="_Path_127" data-name="&lt;Path&gt;" class="cls-1" d="M115.26,133.52a.46.46,0,0,1,0,.86,1.65,1.65,0,0,1-1.5,0,.46.46,0,0,1,0-.86A1.65,1.65,0,0,1,115.26,133.52Z"/><path id="_Path_128" data-name="&lt;Path&gt;" class="cls-1" d="M119.17,131.27a.46.46,0,0,1,0,.86,1.65,1.65,0,0,1-1.5,0,.46.46,0,0,1,0-.86A1.65,1.65,0,0,1,119.17,131.27Z"/><path id="_Path_129" data-name="&lt;Path&gt;" class="cls-1" d="M123.08,129a.46.46,0,0,1,0,.86,1.65,1.65,0,0,1-1.5,0,.46.46,0,0,1,0-.86A1.65,1.65,0,0,1,123.08,129Z"/><path id="_Path_130" data-name="&lt;Path&gt;" class="cls-1" d="M127,126.75a.46.46,0,0,1,0,.86,1.65,1.65,0,0,1-1.5,0,.46.46,0,0,1,0-.86A1.65,1.65,0,0,1,127,126.75Z"/><path id="_Path_131" data-name="&lt;Path&gt;" class="cls-1" d="M130.91,124.49a.46.46,0,0,1,0,.86,1.65,1.65,0,0,1-1.5,0,.46.46,0,0,1,0-.86A1.65,1.65,0,0,1,130.91,124.49Z"/><path id="_Path_132" data-name="&lt;Path&gt;" class="cls-1" d="M107.43,133.52a.46.46,0,0,1,0,.86,1.65,1.65,0,0,1-1.5,0,.46.46,0,0,1,0-.86A1.65,1.65,0,0,1,107.43,133.52Z"/><path id="_Path_133" data-name="&lt;Path&gt;" class="cls-1" d="M111.35,131.27a.46.46,0,0,1,0,.86,1.65,1.65,0,0,1-1.5,0,.46.46,0,0,1,0-.86A1.65,1.65,0,0,1,111.35,131.27Z"/><path id="_Path_134" data-name="&lt;Path&gt;" class="cls-1" d="M115.26,129a.46.46,0,0,1,0,.86,1.65,1.65,0,0,1-1.5,0,.46.46,0,0,1,0-.86A1.65,1.65,0,0,1,115.26,129Z"/><path id="_Path_135" data-name="&lt;Path&gt;" class="cls-1" d="M119.17,126.75a.46.46,0,0,1,0,.86,1.65,1.65,0,0,1-1.5,0,.46.46,0,0,1,0-.86A1.65,1.65,0,0,1,119.17,126.75Z"/><path id="_Path_136" data-name="&lt;Path&gt;" class="cls-1" d="M123.08,124.49a.46.46,0,0,1,0,.86,1.65,1.65,0,0,1-1.5,0,.46.46,0,0,1,0-.86A1.65,1.65,0,0,1,123.08,124.49Z"/><path id="_Path_137" data-name="&lt;Path&gt;" class="cls-1" d="M127,122.23a.46.46,0,0,1,0,.86,1.65,1.65,0,0,1-1.5,0,.46.46,0,0,1,0-.86A1.65,1.65,0,0,1,127,122.23Z"/><path id="_Path_138" data-name="&lt;Path&gt;" class="cls-1" d="M130.91,120a.46.46,0,0,1,0,.86,1.65,1.65,0,0,1-1.5,0,.46.46,0,0,1,0-.86A1.65,1.65,0,0,1,130.91,120Z"/><path id="_Path_139" data-name="&lt;Path&gt;" class="cls-1" d="M134.67,118.08a.46.46,0,0,1,0,.86,1.65,1.65,0,0,1-1.5,0,.46.46,0,0,1,0-.86A1.65,1.65,0,0,1,134.67,118.08Z"/><path id="_Path_140" data-name="&lt;Path&gt;" class="cls-1" d="M134.82,122.24a.46.46,0,0,1,0,.86,1.65,1.65,0,0,1-1.5,0,.46.46,0,0,1,0-.86A1.65,1.65,0,0,1,134.82,122.24Z"/></g><g id="_Group_3" data-name="&lt;Group&gt;"><g id="_Group_4" data-name="&lt;Group&gt;"><g id="_Group_5" data-name="&lt;Group&gt;"><path id="_Path_141" data-name="&lt;Path&gt;" class="cls-2" d="M91,53.34h0a1.69,1.69,0,0,1-.69-2.29l12.48-23.2a1.69,1.69,0,0,1,2.29-.69h0a1.69,1.69,0,0,1,.69,2.29L93.29,52.65A1.69,1.69,0,0,1,91,53.34Z"/><path id="_Compound_Path_" data-name="&lt;Compound Path&gt;" class="cls-3" d="M91.8,54a2.11,2.11,0,0,1-1-.25h0a2.12,2.12,0,0,1-.86-2.87l12.48-23.2a2.12,2.12,0,0,1,3.73,2L93.67,52.85A2.12,2.12,0,0,1,91.8,54Zm12.48-26.58a1.26,1.26,0,0,0-1.11.66L90.7,51.26a1.26,1.26,0,0,0,.51,1.7h0a1.26,1.26,0,0,0,1.7-.51l12.48-23.2a1.26,1.26,0,0,0-1.11-1.85Z"/></g></g><path id="_Path_142" data-name="&lt;Path&gt;" class="cls-2" d="M100.44,1.75A1.69,1.69,0,0,0,98,.66L88.86,5.88l.69,3.5,6.11-3.51A1.69,1.69,0,0,1,98.16,7L111,64.51a1.69,1.69,0,0,0,3.29-.74Z"/><path id="_Path_143" data-name="&lt;Path&gt;" class="cls-3" d="M114.67,63.68l-13.81-62h0A2.12,2.12,0,0,0,97.74.28L88.38,5.66l.18.89L90.9,5.21,98.17,1a1.26,1.26,0,0,1,1.85.81l13.81,62a1.26,1.26,0,0,1-2.45.56L98.58,6.86a2.1,2.1,0,0,0-1.21-1.47,2.14,2.14,0,0,0-.85-.18,2.11,2.11,0,0,0-1.05.28L89.86,8.71h0l-.79.45.18.89,6.63-3.81a1.26,1.26,0,0,1,1.85.81l12.8,57.56a2.12,2.12,0,0,0,2.07,1.65,2.15,2.15,0,0,0,.47-.05A2.12,2.12,0,0,0,114.67,63.68Z"/><g id="_Group_6" data-name="&lt;Group&gt;"><g id="_Group_7" data-name="&lt;Group&gt;"><path id="_Path_144" data-name="&lt;Path&gt;" class="cls-2" d="M122.92,115.55l-12.84-54.7L94.25,51.49,75.36,88.29a1.71,1.71,0,0,1-2.6.56h0a1.71,1.71,0,0,1-.45-2.09L92.38,47.68a1,1,0,0,1,1.37-.4l18.46,10.91a2.24,2.24,0,0,1,1,1.41l13.09,55.14a1.76,1.76,0,0,1-2.49,2h0A1.76,1.76,0,0,1,122.92,115.55Z"/><path id="_Compound_Path_2" data-name="&lt;Compound Path&gt;" class="cls-3" d="M124.64,117.34a2.2,2.2,0,0,1-2.14-1.7L109.7,61.13l-15.28-9L75.74,88.49a2.14,2.14,0,0,1-3.25.7,2.15,2.15,0,0,1-.57-2.62L92,47.48a1.41,1.41,0,0,1,2-.58l18.46,10.91a2.69,2.69,0,0,1,1.24,1.68l13.09,55.15a2.2,2.2,0,0,1-2.13,2.7ZM94.08,50.89l16.38,9.68,12.88,54.88a1.33,1.33,0,0,0,.71.89,1.33,1.33,0,0,0,1.88-1.5L112.84,59.7a1.82,1.82,0,0,0-.84-1.14L93.53,47.64a.54.54,0,0,0-.76.22L72.69,87a1.28,1.28,0,0,0,1.41,1.82A1.27,1.27,0,0,0,75,88.1Z"/></g></g><g id="_Group_8" data-name="&lt;Group&gt;"><path id="_Path_145" data-name="&lt;Path&gt;" class="cls-2" d="M112.2,60.71V58.25l-1.58,1.13L94.19,49.86a2.24,2.24,0,0,0-2,0L75.43,59.38l-1.89-1.13v2.67l.06,0a.93.93,0,0,0,.45.48l17.5,10.14a2.24,2.24,0,0,0,2,0l18.3-10.45a.6.6,0,0,0,.31-.43Z"/><path id="_Compound_Path_3" data-name="&lt;Compound Path&gt;" class="cls-3" d="M92.65,72.25a2.77,2.77,0,0,1-1.31-.32L73.83,61.8a1.37,1.37,0,0,1-.55-.53l-.11-.05-.06-.29V57.49l2.33,1.38L92,49.44a2.67,2.67,0,0,1,2.44,0l16.19,9.38,2-1.45v2.84l-.11.77a1.05,1.05,0,0,1-.44.5L93.77,72A2.22,2.22,0,0,1,92.65,72.25ZM74,60.75l0,0a.52.52,0,0,0,.25.25L91.76,71.19a1.83,1.83,0,0,0,1.58.05l18.31-10.45a.17.17,0,0,0,.1-.13l0-.17V59.08l-1.13.8L94,50.24a1.83,1.83,0,0,0-1.58-.05l-17,9.69L74,59Z"/></g><g id="_Group_9" data-name="&lt;Group&gt;"><path id="_Path_146" data-name="&lt;Path&gt;" class="cls-2" d="M111.86,58.7,93.56,69.15a2.24,2.24,0,0,1-2,0L74,59c-.6-.33-.68-.85-.17-1.16l18.3-10.45a2.24,2.24,0,0,1,2,0l17.5,10.14C112.29,57.87,112.37,58.39,111.86,58.7Z"/><path id="_Path_147" data-name="&lt;Path&gt;" class="cls-4" d="M109.82,61.08,91.52,71.53a2.24,2.24,0,0,1-2,0l-15.9-9.36c-.6-.33-.68-.85-.17-1.16l18.3-10.45a2.24,2.24,0,0,1,2,0l15.9,9.36C110.26,60.25,110.33,60.77,109.82,61.08Z"/><path id="_Compound_Path_4" data-name="&lt;Compound Path&gt;" class="cls-3" d="M92.64,69.79a2.75,2.75,0,0,1-1.31-.32L73.83,59.33a1.24,1.24,0,0,1-.72-1,1,1,0,0,1,.55-.89L92,47a2.68,2.68,0,0,1,2.44,0l17.51,10.14a1.24,1.24,0,0,1,.72,1,1,1,0,0,1-.55.89h0L93.77,69.52A2.23,2.23,0,0,1,92.64,69.79Zm.44-22.22a1.39,1.39,0,0,0-.69.15L74.09,58.17c-.09.05-.12.11-.12.13s.08.17.28.28L91.76,68.73a1.81,1.81,0,0,0,1.58.05l18.3-10.45c.09-.06.13-.11.13-.13s-.08-.17-.28-.28L94,47.77A1.9,1.9,0,0,0,93.09,47.57Z"/></g><g id="_Group_10" data-name="&lt;Group&gt;"><path id="_Path_148" data-name="&lt;Path&gt;" class="cls-2" d="M117.34,74.12V71.66l-1.58,1.13-5.43-3.08a2.24,2.24,0,0,0-2,0L91.56,79.22l-1.89-1.13v2.67l.06,0a.93.93,0,0,0,.45.48L96.69,85a2.24,2.24,0,0,0,2,0L117,74.57a.6.6,0,0,0,.31-.43Z"/><path id="_Compound_Path_5" data-name="&lt;Compound Path&gt;" class="cls-3" d="M97.79,85.66a2.76,2.76,0,0,1-1.31-.32L90,81.64a1.39,1.39,0,0,1-.56-.53l-.16-.35h0V78a.38.38,0,0,1,.57-.33l1.76,1,16.53-9.43a2.67,2.67,0,0,1,2.44,0l5.2,2.95,2-.79v2.09l-.1.86a1.05,1.05,0,0,1-.45.5L98.92,85.39A2.24,2.24,0,0,1,97.79,85.66ZM90.1,80.59l0,0a.52.52,0,0,0,.25.25l6.52,3.71a1.82,1.82,0,0,0,1.58.05l18.31-10.45c.08-.05.09-.09.1-.13l0-.17V72.49l-1.13.8-5.67-3.21a1.83,1.83,0,0,0-1.58-.05l-17,9.69-1.46-.87Z"/></g><g id="_Group_11" data-name="&lt;Group&gt;"><path id="_Path_149" data-name="&lt;Path&gt;" class="cls-2" d="M117,72.11,98.7,82.55a2.24,2.24,0,0,1-2,0L90.17,78.8c-.6-.33-.68-.85-.17-1.16l18.3-10.45a2.24,2.24,0,0,1,2,0l6.52,3.71C117.44,71.28,117.51,71.8,117,72.11Z"/><path id="_Path_150" data-name="&lt;Path&gt;" class="cls-5" d="M98.71,82.63l16.76-9.57-5.15-2.93a2.24,2.24,0,0,0-2,0L91.54,79.66l5.15,2.93A2.24,2.24,0,0,0,98.71,82.63Z"/><path id="_Compound_Path_6" data-name="&lt;Compound Path&gt;" class="cls-3" d="M97.79,83.2a2.77,2.77,0,0,1-1.31-.32L90,79.17a1.24,1.24,0,0,1-.72-1,1,1,0,0,1,.55-.89l18.31-10.45a2.67,2.67,0,0,1,2.44,0l6.52,3.71a1.23,1.23,0,0,1,.72,1,1,1,0,0,1-.55.89h0L98.92,82.93A2.22,2.22,0,0,1,97.79,83.2Zm11.43-15.79a1.39,1.39,0,0,0-.69.16L90.22,78c-.09.05-.12.11-.12.13s.08.17.28.28l6.52,3.71a1.82,1.82,0,0,0,1.58.05l18.3-10.45c.09-.06.13-.11.13-.13s-.08-.17-.28-.28l-6.52-3.71A1.9,1.9,0,0,0,109.22,67.41Z"/></g><g id="_Group_12" data-name="&lt;Group&gt;"><path id="_Path_151" data-name="&lt;Path&gt;" class="cls-2" d="M121.28,89V86.58L119.7,87.7l-5.43-3.08a2.24,2.24,0,0,0-2,0L95.5,94.13,93.61,93v2.67l.06,0a.93.93,0,0,0,.45.48l6.52,3.71a2.24,2.24,0,0,0,2,0l18.3-10.45a.6.6,0,0,0,.31-.43Z"/><path id="_Compound_Path_7" data-name="&lt;Compound Path&gt;" class="cls-3" d="M101.73,100.58a2.75,2.75,0,0,1-1.31-.32L93.9,96.56a1.41,1.41,0,0,1-.56-.53l-.16-.35h0V92.92a.38.38,0,0,1,.57-.33l1.76,1L112,84.2a2.67,2.67,0,0,1,2.44,0l5.2,2.94,2-.79v1.85l-.1,1.1a1.06,1.06,0,0,1-.45.5l-18.31,10.45A2.23,2.23,0,0,1,101.73,100.58ZM94,95.5l0,0a.52.52,0,0,0,.25.26l6.52,3.71a1.82,1.82,0,0,0,1.58.05l18.31-10.45a.16.16,0,0,0,.1-.13l0-.16V87.41l-1.13.8L114,85a1.83,1.83,0,0,0-1.58-.05l-17,9.69L94,93.77Z"/></g><g id="_Group_13" data-name="&lt;Group&gt;"><path id="_Path_152" data-name="&lt;Path&gt;" class="cls-2" d="M120.95,87l-18.3,10.45a2.24,2.24,0,0,1-2,0l-6.52-3.71c-.6-.33-.68-.85-.17-1.16l18.3-10.45a2.24,2.24,0,0,1,2,0l6.52,3.71C121.38,86.2,121.46,86.72,120.95,87Z"/><path id="_Path_153" data-name="&lt;Path&gt;" class="cls-6" d="M102.65,97.47l16.68-9.52-5.07-2.88a2.24,2.24,0,0,0-2,0L95.56,94.54l5.07,2.88A2.24,2.24,0,0,0,102.65,97.47Z"/><path id="_Compound_Path_8" data-name="&lt;Compound Path&gt;" class="cls-3" d="M101.73,98.12a2.76,2.76,0,0,1-1.31-.32L93.9,94.09a1.24,1.24,0,0,1-.72-1,1,1,0,0,1,.55-.89L112,81.74a2.67,2.67,0,0,1,2.44,0L121,85.49a1.24,1.24,0,0,1,.72,1,1,1,0,0,1-.55.89h0l-18.3,10.45A2.24,2.24,0,0,1,101.73,98.12Zm11.43-15.79a1.38,1.38,0,0,0-.69.16L94.16,92.93c-.09.05-.12.11-.12.13s.08.17.28.28l6.52,3.71a1.81,1.81,0,0,0,1.58.05l18.3-10.45c.09-.06.13-.11.13-.13s-.08-.17-.28-.28L114,82.53A1.9,1.9,0,0,0,113.16,82.32Z"/></g><g id="_Group_14" data-name="&lt;Group&gt;"><path id="_Path_154" data-name="&lt;Path&gt;" class="cls-2" d="M125.23,104.1v-2.46l-1.58,1.13-5.43-3.08a2.24,2.24,0,0,0-2,0L99.44,109.2l-1.89-1.13v2.67l.06,0a.93.93,0,0,0,.45.48l6.52,3.71a2.24,2.24,0,0,0,2,0l18.3-10.45a.6.6,0,0,0,.31-.43Z"/><path id="_Compound_Path_9" data-name="&lt;Compound Path&gt;" class="cls-3" d="M105.67,115.65a2.77,2.77,0,0,1-1.31-.32l-6.52-3.71a1.42,1.42,0,0,1-.56-.53l-.17-.35h0V108a.38.38,0,0,1,.57-.33l1.76,1L116,99.27a2.68,2.68,0,0,1,2.44,0l5.2,2.95,2-.79v2l-.1,1a1,1,0,0,1-.45.51L106.8,115.37A2.24,2.24,0,0,1,105.67,115.65ZM98,110.57l0,0a.52.52,0,0,0,.25.26l6.52,3.71a1.82,1.82,0,0,0,1.58.05l18.31-10.45a.17.17,0,0,0,.1-.13l0-.15v-1.43l-1.13.8L118,100.06a1.83,1.83,0,0,0-1.58-.05l-17,9.69L98,108.83Z"/></g><g id="_Group_15" data-name="&lt;Group&gt;"><path id="_Path_155" data-name="&lt;Path&gt;" class="cls-2" d="M124.89,102.09l-18.3,10.45a2.24,2.24,0,0,1-2,0l-6.52-3.71c-.6-.33-.68-.85-.17-1.16l18.3-10.45a2.24,2.24,0,0,1,2,0l6.52,3.71C125.32,101.26,125.4,101.78,124.89,102.09Z"/><path id="_Path_156" data-name="&lt;Path&gt;" class="cls-7" d="M106.59,112.29l16.7-9.53-5.08-2.89a2.24,2.24,0,0,0-2,0l-16.7,9.53,5.08,2.89A2.24,2.24,0,0,0,106.59,112.29Z"/><path id="_Compound_Path_10" data-name="&lt;Compound Path&gt;" class="cls-3" d="M105.67,113.18a2.77,2.77,0,0,1-1.31-.32l-6.52-3.71a1.24,1.24,0,0,1-.72-1,1,1,0,0,1,.55-.89L116,96.81a2.67,2.67,0,0,1,2.44,0l6.52,3.71a1.24,1.24,0,0,1,.72,1,1,1,0,0,1-.55.89h0l-18.3,10.45A2.22,2.22,0,0,1,105.67,113.18ZM117.1,97.39a1.38,1.38,0,0,0-.69.16L98.1,108c-.09.05-.12.11-.12.13s.08.17.28.28l6.52,3.71a1.82,1.82,0,0,0,1.58.05l18.3-10.45c.09-.06.13-.11.13-.13s-.08-.17-.28-.28L118,97.6A1.91,1.91,0,0,0,117.1,97.39Z"/></g><g id="_Group_16" data-name="&lt;Group&gt;"><g id="_Group_17" data-name="&lt;Group&gt;"><path id="_Path_157" data-name="&lt;Path&gt;" class="cls-2" d="M103.12,126.79,90.07,71.52,74.24,62.17,55.49,99.6a1.7,1.7,0,0,1-2.49.64h0a1.7,1.7,0,0,1-.55-2.16L72.37,58.34a1,1,0,0,1,1.36-.4l18.57,11a2,2,0,0,1,.91,1.24L106.41,126a1.69,1.69,0,0,1-2.47,1.86h0A1.69,1.69,0,0,1,103.12,126.79Z"/><path id="_Compound_Path_11" data-name="&lt;Compound Path&gt;" class="cls-3" d="M104.77,128.53a2.13,2.13,0,0,1-2.07-1.64l-13-55.09-15.28-9-18.54,37a2.13,2.13,0,1,1-3.81-1.91L72,58.15a1.4,1.4,0,0,1,2-.58l18.57,11a2.41,2.41,0,0,1,1.11,1.51l13.2,55.85a2.13,2.13,0,0,1-2.06,2.61Zm-30.72-67,16.39,9.69,0,.18,13.06,55.27a1.26,1.26,0,0,0,.61.81,1.26,1.26,0,0,0,1.84-1.39L92.8,70.26a1.54,1.54,0,0,0-.71-1l-18.57-11a.54.54,0,0,0-.76.22L52.84,98.27a1.27,1.27,0,0,0,2.27,1.14Z"/></g></g><g id="_Group_18" data-name="&lt;Group&gt;"><g id="_Group_19" data-name="&lt;Group&gt;"><path id="_Path_158" data-name="&lt;Path&gt;" class="cls-2" d="M71.3,64.22h0a1.69,1.69,0,0,1-.69-2.29l12.47-23.2A1.69,1.69,0,0,1,85.37,38h0a1.69,1.69,0,0,1,.69,2.29L73.59,63.54A1.69,1.69,0,0,1,71.3,64.22Z"/><path id="_Compound_Path_12" data-name="&lt;Compound Path&gt;" class="cls-3" d="M72.1,64.85a2.12,2.12,0,0,1-1.86-3.12l12.47-23.2a2.12,2.12,0,0,1,3.73,2L74,63.74A2.12,2.12,0,0,1,72.1,64.85ZM84.58,38.27a1.26,1.26,0,0,0-1.11.66L71,62.14a1.26,1.26,0,0,0,.51,1.7h0a1.26,1.26,0,0,0,1.7-.51l12.48-23.2a1.26,1.26,0,0,0-1.11-1.85Z"/></g></g><g id="_Group_20" data-name="&lt;Group&gt;"><path id="_Compound_Path_13" data-name="&lt;Compound Path&gt;" class="cls-3" d="M72.13,63.62a1.32,1.32,0,1,1,1.32-1.32A1.32,1.32,0,0,1,72.13,63.62Zm0-1.78a.46.46,0,1,0,.46.46A.46.46,0,0,0,72.13,61.83Z"/></g><path id="_Path_159" data-name="&lt;Path&gt;" class="cls-2" d="M81.75,16.35A3.09,3.09,0,0,1,83.23,13l6.33-3.64-.69-3.5-9.46,5.44a3.09,3.09,0,0,0-1.48,3.33L91.6,77.87a1.69,1.69,0,0,0,2,1.29h0a1.69,1.69,0,0,0,1.29-2Z"/><g id="_Group_21" data-name="&lt;Group&gt;"><path id="_Compound_Path_14" data-name="&lt;Compound Path&gt;" class="cls-3" d="M92,74a1.32,1.32,0,1,1,1.32-1.32A1.32,1.32,0,0,1,92,74Zm0-1.78a.46.46,0,1,0,.46.46A.46.46,0,0,0,92,72.22Z"/></g><g id="_10" data-name="10"><g id="_Group_22" data-name="&lt;Group&gt;"><path id="_Path_160" data-name="&lt;Path&gt;" class="cls-2" d="M110.81,56.76,102,61.87a5,5,0,0,1-4.5-.19l-5.26-3c-1.33-.77-1.69-4.28-.54-4.95l9.07-2.76a5,5,0,0,1,4.5.19l5.65.81C112.21,52.7,112,56.09,110.81,56.76Z"/><path id="_Compound_Path_15" data-name="&lt;Compound Path&gt;" class="cls-3" d="M100,62.75a5.62,5.62,0,0,1-2.75-.7L92,59c-1-.57-1.45-2.19-1.45-3.44a2.49,2.49,0,0,1,.91-2.25l9.16-2.8a5.34,5.34,0,0,1,4.76.18l5.73.85a2.93,2.93,0,0,1,1.12,2.63c0,1.12-.37,2.47-1.19,2.94l-8.85,5.11A4.41,4.41,0,0,1,100,62.75Zm2.68-11.83a3.55,3.55,0,0,0-1.73.39l-9.16,2.8a2.09,2.09,0,0,0-.39,1.46,3.41,3.41,0,0,0,1,2.7l5.26,3a4.61,4.61,0,0,0,4.07.18l8.85-5.11a2.79,2.79,0,0,0,.76-2.2,2.34,2.34,0,0,0-.62-1.84L105,51.5A4.83,4.83,0,0,0,102.68,50.93Z"/></g><g id="_Group_23" data-name="&lt;Group&gt;"><path id="_Path_161" data-name="&lt;Path&gt;" class="cls-2" d="M110.81,54.26,102,59.38a5,5,0,0,1-4.5-.18l-5.26-3c-1.33-.77-1.48-1.93-.32-2.6l8.85-5.11a5,5,0,0,1,4.5.19l5.26,3C111.82,52.44,112,53.6,110.81,54.26Z"/><path id="_Path_162" data-name="&lt;Path&gt;" class="cls-5" d="M102,59.69l8.45-4.54-5.06-2.92a5,5,0,0,0-4.5-.19l-8.32,4.81,4.93,2.65A5,5,0,0,0,102,59.69Z"/><path id="_Compound_Path_16" data-name="&lt;Compound Path&gt;" class="cls-3" d="M100,60.26a5.62,5.62,0,0,1-2.75-.7l-5.26-3a2.26,2.26,0,0,1-1.32-1.84,1.75,1.75,0,0,1,1-1.5l8.85-5.11a5.4,5.4,0,0,1,4.93.18l5.26,3A2.26,2.26,0,0,1,112,53.14a1.75,1.75,0,0,1-1,1.5l-8.85,5.11A4.41,4.41,0,0,1,100,60.26Zm2.68-11.83a3.55,3.55,0,0,0-1.73.39L92.1,53.94a1,1,0,0,0-.56.76c0,.37.33.78.88,1.1l5.26,3a4.61,4.61,0,0,0,4.07.18l8.85-5.11a1,1,0,0,0,.56-.75c0-.37-.33-.78-.89-1.1L105,49A4.84,4.84,0,0,0,102.68,48.43Z"/></g></g><polygon id="_Path_163" data-name="&lt;Path&gt;" class="cls-3" points="93.3 69.01 93.93 71.4 112.17 60.73 112 58.56 93.3 69.01"/><polygon id="_Path_164" data-name="&lt;Path&gt;" class="cls-3" points="96 82.61 96.69 84.97 98.04 85.23 117.34 74.52 117.34 71.66 98.54 82.77 97.16 82.77 96 82.61"/><polygon id="_Path_165" data-name="&lt;Path&gt;" class="cls-3" points="99.84 97.53 100.53 99.89 101.88 100.15 121.19 89.44 121.18 86.58 102.38 97.69 101 97.69 99.84 97.53"/><polygon id="_Path_166" data-name="&lt;Path&gt;" class="cls-3" points="103.16 112 103.85 114.36 105.92 115.22 125.22 104.51 125.22 101.64 106.42 112.75 105.04 112.75 103.16 112"/><polygon id="_Path_167" data-name="&lt;Path&gt;" class="cls-3" points="99.79 59.83 99.79 62.55 101.38 62.32 111.05 56.63 111.78 54.67 111.59 53.8 101.38 59.83 99.79 59.83"/><path id="_Path_168" data-name="&lt;Path&gt;" class="cls-3" d="M95.32,77.06,82.17,16.25a2.65,2.65,0,0,1,1.27-2.86L90,9.6l-.18-.89-2.79,1.6h0L83,12.64a3.51,3.51,0,0,0-1.68,3.79L94.48,77.24a1.26,1.26,0,0,1-2.46.53L78.35,14.56a2.65,2.65,0,0,1,1.27-2.86l8.94-5.14h0l.79-.45-.18-.89-10,5.73a3.51,3.51,0,0,0-1.68,3.79L91.18,78a2.12,2.12,0,1,0,4.14-.9Z"/></g></g><g id="_Group_24" data-name="&lt;Group&gt;"><g id="_Group_25" data-name="&lt;Group&gt;"><path id="_Path_169" data-name="&lt;Path&gt;" class="cls-1" d="M29.23,160a.46.46,0,0,1,0,.86,1.65,1.65,0,0,1-1.5,0,.46.46,0,0,1,0-.86A1.65,1.65,0,0,1,29.23,160Z"/><path id="_Path_170" data-name="&lt;Path&gt;" class="cls-1" d="M33.14,157.77a.46.46,0,0,1,0,.86,1.65,1.65,0,0,1-1.5,0,.46.46,0,0,1,0-.86A1.65,1.65,0,0,1,33.14,157.77Z"/><path id="_Path_171" data-name="&lt;Path&gt;" class="cls-1" d="M37.06,156.38a1.65,1.65,0,0,1-1.5,0,.46.46,0,0,1,0-.86C36,155.27,37.47,156.14,37.06,156.38Z"/><path id="_Path_172" data-name="&lt;Path&gt;" class="cls-1" d="M25.32,157.77a.46.46,0,0,1,0,.86,1.65,1.65,0,0,1-1.5,0,.46.46,0,0,1,0-.86A1.65,1.65,0,0,1,25.32,157.77Z"/><path id="_Path_173" data-name="&lt;Path&gt;" class="cls-1" d="M29.23,155.51a.46.46,0,0,1,0,.86,1.65,1.65,0,0,1-1.5,0,.46.46,0,0,1,0-.86A1.65,1.65,0,0,1,29.23,155.51Z"/><path id="_Path_174" data-name="&lt;Path&gt;" class="cls-1" d="M33.14,154.12a1.65,1.65,0,0,1-1.5,0,.46.46,0,0,1,0-.86C32.06,153,33.56,153.88,33.14,154.12Z"/><path id="_Path_175" data-name="&lt;Path&gt;" class="cls-1" d="M21.41,155.51a.46.46,0,0,1,0,.86,1.65,1.65,0,0,1-1.5,0,.46.46,0,0,1,0-.86A1.65,1.65,0,0,1,21.41,155.51Z"/><path id="_Path_176" data-name="&lt;Path&gt;" class="cls-1" d="M25.32,153.25a.46.46,0,0,1,0,.86,1.65,1.65,0,0,1-1.5,0,.46.46,0,0,1,0-.86A1.65,1.65,0,0,1,25.32,153.25Z"/><path id="_Path_177" data-name="&lt;Path&gt;" class="cls-1" d="M29.23,151.86a1.65,1.65,0,0,1-1.5,0,.46.46,0,0,1,0-.86C28.15,150.76,29.64,151.62,29.23,151.86Z"/><path id="_Path_178" data-name="&lt;Path&gt;" class="cls-1" d="M17.49,153.25a.46.46,0,0,1,0,.86,1.65,1.65,0,0,1-1.5,0,.46.46,0,0,1,0-.86A1.65,1.65,0,0,1,17.49,153.25Z"/><path id="_Path_179" data-name="&lt;Path&gt;" class="cls-1" d="M21.41,151a.46.46,0,0,1,0,.86,1.65,1.65,0,0,1-1.5,0,.46.46,0,0,1,0-.86A1.65,1.65,0,0,1,21.41,151Z"/><path id="_Path_180" data-name="&lt;Path&gt;" class="cls-1" d="M25.32,148.74a.46.46,0,0,1,0,.86,1.65,1.65,0,0,1-1.5,0,.46.46,0,0,1,0-.86,1.65,1.65,0,0,1,1.5,0Z"/><path id="_Path_181" data-name="&lt;Path&gt;" class="cls-1" d="M13.58,151a.46.46,0,0,1,0,.86,1.65,1.65,0,0,1-1.5,0,.46.46,0,0,1,0-.86A1.65,1.65,0,0,1,13.58,151Z"/><path id="_Path_182" data-name="&lt;Path&gt;" class="cls-1" d="M17.49,148.74a.46.46,0,0,1,0,.86,1.65,1.65,0,0,1-1.5,0,.46.46,0,0,1,0-.86A1.65,1.65,0,0,1,17.49,148.74Z"/><path id="_Path_183" data-name="&lt;Path&gt;" class="cls-1" d="M21.41,146.48a.46.46,0,0,1,0,.86,1.65,1.65,0,0,1-1.5,0,.46.46,0,0,1,0-.86,1.65,1.65,0,0,1,1.5,0Z"/><path id="_Path_184" data-name="&lt;Path&gt;" class="cls-1" d="M9.63,148.71a.46.46,0,0,1,0,.86,1.65,1.65,0,0,1-1.5,0,.46.46,0,0,1,0-.86A1.65,1.65,0,0,1,9.63,148.71Z"/><path id="_Path_185" data-name="&lt;Path&gt;" class="cls-1" d="M13.55,146.45a.46.46,0,0,1,0,.86,1.65,1.65,0,0,1-1.5,0,.46.46,0,0,1,0-.86A1.65,1.65,0,0,1,13.55,146.45Z"/><path id="_Path_186" data-name="&lt;Path&gt;" class="cls-1" d="M17.46,144.19a.46.46,0,0,1,0,.86,1.65,1.65,0,0,1-1.5,0,.46.46,0,0,1,0-.86,1.65,1.65,0,0,1,1.5,0Z"/><path id="_Path_187" data-name="&lt;Path&gt;" class="cls-1" d="M5.72,146.45a.46.46,0,0,1,0,.86,1.65,1.65,0,0,1-1.5,0,.46.46,0,0,1,0-.86A1.65,1.65,0,0,1,5.72,146.45Z"/><path id="_Path_188" data-name="&lt;Path&gt;" class="cls-1" d="M9.63,144.19a.46.46,0,0,1,0,.86,1.65,1.65,0,0,1-1.5,0,.46.46,0,0,1,0-.86A1.65,1.65,0,0,1,9.63,144.19Z"/><path id="_Path_189" data-name="&lt;Path&gt;" class="cls-1" d="M13.55,142.8a1.65,1.65,0,0,1-1.5,0,.46.46,0,0,1,0-.86C12.46,141.7,14,142.56,13.55,142.8Z"/><path id="_Path_190" data-name="&lt;Path&gt;" class="cls-1" d="M1.81,144.19a.46.46,0,0,1,0,.86,1.65,1.65,0,0,1-1.5,0,.46.46,0,0,1,0-.86A1.65,1.65,0,0,1,1.81,144.19Z"/><path id="_Path_191" data-name="&lt;Path&gt;" class="cls-1" d="M5.72,141.93a.46.46,0,0,1,0,.86,1.65,1.65,0,0,1-1.5,0,.46.46,0,0,1,0-.86A1.65,1.65,0,0,1,5.72,141.93Z"/><path id="_Path_192" data-name="&lt;Path&gt;" class="cls-1" d="M9.63,140.54a1.65,1.65,0,0,1-1.5,0,.46.46,0,0,1,0-.86C8.55,139.44,10,140.3,9.63,140.54Z"/><path id="_Path_193" data-name="&lt;Path&gt;" class="cls-1" d="M1.81,139.68a.46.46,0,0,1,0,.86,1.65,1.65,0,0,1-1.5,0,.46.46,0,0,1,0-.86A1.65,1.65,0,0,1,1.81,139.68Z"/><path id="_Path_194" data-name="&lt;Path&gt;" class="cls-1" d="M5.72,138.28a1.65,1.65,0,0,1-1.5,0,.46.46,0,0,1,0-.86C4.64,137.18,6.13,138,5.72,138.28Z"/><path id="_Path_195" data-name="&lt;Path&gt;" class="cls-1" d="M48.95,166.45a.46.46,0,0,1,0,.86,1.65,1.65,0,0,1-1.5,0,.46.46,0,0,1,0-.86A1.65,1.65,0,0,1,48.95,166.45Z"/><path id="_Path_196" data-name="&lt;Path&gt;" class="cls-1" d="M52.86,164.19a.46.46,0,0,1,0,.86,1.65,1.65,0,0,1-1.5,0,.46.46,0,0,1,0-.86A1.65,1.65,0,0,1,52.86,164.19Z"/><path id="_Path_197" data-name="&lt;Path&gt;" class="cls-1" d="M41.12,166.45a.46.46,0,0,1,0,.86,1.65,1.65,0,0,1-1.5,0,.46.46,0,0,1,0-.86A1.65,1.65,0,0,1,41.12,166.45Z"/><path id="_Path_198" data-name="&lt;Path&gt;" class="cls-1" d="M45,164.19a.46.46,0,0,1,0,.86,1.65,1.65,0,0,1-1.5,0,.46.46,0,0,1,0-.86A1.65,1.65,0,0,1,45,164.19Z"/><path id="_Path_199" data-name="&lt;Path&gt;" class="cls-1" d="M49,161.93a.46.46,0,0,1,0,.86,1.65,1.65,0,0,1-1.5,0,.46.46,0,0,1,0-.86A1.65,1.65,0,0,1,49,161.93Z"/><path id="_Path_200" data-name="&lt;Path&gt;" class="cls-1" d="M37.21,164.19a.46.46,0,0,1,0,.86,1.65,1.65,0,0,1-1.5,0,.46.46,0,0,1,0-.86A1.65,1.65,0,0,1,37.21,164.19Z"/><path id="_Path_201" data-name="&lt;Path&gt;" class="cls-1" d="M41.12,161.93a.46.46,0,0,1,0,.86,1.65,1.65,0,0,1-1.5,0,.46.46,0,0,1,0-.86A1.65,1.65,0,0,1,41.12,161.93Z"/><path id="_Path_202" data-name="&lt;Path&gt;" class="cls-1" d="M33.3,161.93a.46.46,0,0,1,0,.86,1.65,1.65,0,0,1-1.5,0,.46.46,0,0,1,0-.86A1.65,1.65,0,0,1,33.3,161.93Z"/><path id="_Path_203" data-name="&lt;Path&gt;" class="cls-1" d="M37.21,159.67a.46.46,0,0,1,0,.86,1.65,1.65,0,0,1-1.5,0,.46.46,0,0,1,0-.86A1.65,1.65,0,0,1,37.21,159.67Z"/><path id="_Path_204" data-name="&lt;Path&gt;" class="cls-1" d="M41.12,158.28a1.65,1.65,0,0,1-1.5,0,.46.46,0,0,1,0-.86C40,157.17,41.54,158,41.12,158.28Z"/><path id="_Path_205" data-name="&lt;Path&gt;" class="cls-1" d="M55.31,162a1.65,1.65,0,0,1,1.5,0,.46.46,0,0,1,0,.86,1.65,1.65,0,0,1-1.5,0A.46.46,0,0,1,55.31,162Z"/><path id="_Path_206" data-name="&lt;Path&gt;" class="cls-1" d="M60.72,159.69a.46.46,0,0,1,0,.86,1.65,1.65,0,0,1-1.5,0,.46.46,0,0,1,0-.86A1.65,1.65,0,0,1,60.72,159.69Z"/><path id="_Path_207" data-name="&lt;Path&gt;" class="cls-1" d="M64.63,157.43a.46.46,0,0,1,0,.86,1.65,1.65,0,0,1-1.5,0,.46.46,0,0,1,0-.86A1.65,1.65,0,0,1,64.63,157.43Z"/><path id="_Path_208" data-name="&lt;Path&gt;" class="cls-1" d="M68.55,155.17a.46.46,0,0,1,0,.86,1.65,1.65,0,0,1-1.5,0,.46.46,0,0,1,0-.86A1.65,1.65,0,0,1,68.55,155.17Z"/><path id="_Path_209" data-name="&lt;Path&gt;" class="cls-1" d="M72.46,152.91a.46.46,0,0,1,0,.86,1.65,1.65,0,0,1-1.5,0,.46.46,0,0,1,0-.86A1.65,1.65,0,0,1,72.46,152.91Z"/><path id="_Path_210" data-name="&lt;Path&gt;" class="cls-1" d="M76.37,150.65a.46.46,0,0,1,0,.86,1.65,1.65,0,0,1-1.5,0,.46.46,0,0,1,0-.86A1.65,1.65,0,0,1,76.37,150.65Z"/><path id="_Path_211" data-name="&lt;Path&gt;" class="cls-1" d="M51.39,159.69a1.65,1.65,0,0,1,1.5,0,.46.46,0,0,1,0,.86,1.65,1.65,0,0,1-1.5,0A.46.46,0,0,1,51.39,159.69Z"/><path id="_Path_212" data-name="&lt;Path&gt;" class="cls-1" d="M56.81,157.43a.46.46,0,0,1,0,.86,1.65,1.65,0,0,1-1.5,0,.46.46,0,0,1,0-.86A1.65,1.65,0,0,1,56.81,157.43Z"/><path id="_Path_213" data-name="&lt;Path&gt;" class="cls-1" d="M60.72,155.17a.46.46,0,0,1,0,.86,1.65,1.65,0,0,1-1.5,0,.46.46,0,0,1,0-.86A1.65,1.65,0,0,1,60.72,155.17Z"/><path id="_Path_214" data-name="&lt;Path&gt;" class="cls-1" d="M64.63,152.91a.46.46,0,0,1,0,.86,1.65,1.65,0,0,1-1.5,0,.46.46,0,0,1,0-.86A1.65,1.65,0,0,1,64.63,152.91Z"/><path id="_Path_215" data-name="&lt;Path&gt;" class="cls-1" d="M68.55,150.65a.46.46,0,0,1,0,.86,1.65,1.65,0,0,1-1.5,0,.46.46,0,0,1,0-.86A1.65,1.65,0,0,1,68.55,150.65Z"/><path id="_Path_216" data-name="&lt;Path&gt;" class="cls-1" d="M72.46,148.39a.46.46,0,0,1,0,.86,1.65,1.65,0,0,1-1.5,0,.46.46,0,0,1,0-.86A1.65,1.65,0,0,1,72.46,148.39Z"/><path id="_Path_217" data-name="&lt;Path&gt;" class="cls-1" d="M76.37,146.13a.46.46,0,0,1,0,.86,1.65,1.65,0,0,1-1.5,0,.46.46,0,0,1,0-.86A1.65,1.65,0,0,1,76.37,146.13Z"/><path id="_Path_218" data-name="&lt;Path&gt;" class="cls-1" d="M49,157.43a.46.46,0,0,1,0,.86,1.65,1.65,0,0,1-1.5,0C47.07,158.06,48.56,157.19,49,157.43Z"/><path id="_Path_219" data-name="&lt;Path&gt;" class="cls-1" d="M52.89,155.17a.46.46,0,0,1,0,.86,1.65,1.65,0,0,1-1.5,0C51,155.8,52.48,154.93,52.89,155.17Z"/><path id="_Path_220" data-name="&lt;Path&gt;" class="cls-1" d="M56.81,152.91a.46.46,0,0,1,0,.86,1.65,1.65,0,0,1-1.5,0C54.9,153.54,56.39,152.67,56.81,152.91Z"/><path id="_Path_221" data-name="&lt;Path&gt;" class="cls-1" d="M60.72,150.65a.46.46,0,0,1,0,.86,1.65,1.65,0,0,1-1.5,0C58.81,151.28,60.31,150.41,60.72,150.65Z"/><path id="_Path_222" data-name="&lt;Path&gt;" class="cls-1" d="M64.63,148.39a.46.46,0,0,1,0,.86,1.65,1.65,0,0,1-1.5,0C62.72,149,64.22,148.15,64.63,148.39Z"/><path id="_Path_223" data-name="&lt;Path&gt;" class="cls-1" d="M68.55,146.13a.46.46,0,0,1,0,.86,1.65,1.65,0,0,1-1.5,0C66.64,146.76,68.13,145.9,68.55,146.13Z"/><path id="_Path_224" data-name="&lt;Path&gt;" class="cls-1" d="M72.46,143.87a.46.46,0,0,1,0,.86,1.65,1.65,0,0,1-1.5,0C70.55,144.5,72,143.64,72.46,143.87Z"/></g><g id="_Group_26" data-name="&lt;Group&gt;"><g id="_Group_27" data-name="&lt;Group&gt;"><polygon id="_Path_225" data-name="&lt;Path&gt;" class="cls-2" points="35.44 122.29 74.09 144.21 46.37 159.81 8.18 137.71 35.44 122.29"/><polygon id="_Path_226" data-name="&lt;Path&gt;" class="cls-8" points="35.43 126.14 70.58 146.1 44.84 160.59 9.52 140.79 35.43 126.14"/><path id="_Compound_Path_17" data-name="&lt;Compound Path&gt;" class="cls-1" d="M46.37,160.31l-.21-.12L7.32,137.71,35.44,121.8l.21.12L75,144.21ZM9,137.72l37.33,21.6,26.84-15.11L35.44,122.79Z"/></g><g id="_Group_28" data-name="&lt;Group&gt;"><g id="_Group_29" data-name="&lt;Group&gt;"><path id="_Path_227" data-name="&lt;Path&gt;" class="cls-2" d="M11.95,125.66a2.41,2.41,0,0,0-.68-.39h0c-1.23-.47-3,0-4.77,1.67a11.1,11.1,0,0,0-3.31,5.71c-.64,2.84.08,4.75,1.5,5.36l38.25,22.14a.15.15,0,0,0,.21-.06l5.11-9.14,1.83-3.06a.15.15,0,0,0-.05-.21Z"/><path id="_Path_228" data-name="&lt;Path&gt;" class="cls-9" d="M42.7,160a.15.15,0,0,0,.21-.06L48,150.82l.31-.51L11.7,129.15a2.42,2.42,0,0,0-.68-.39h0c-1.23-.47-3,0-4.77,1.67a11.1,11.1,0,0,0-3.31,5.68,2.77,2.77,0,0,0,1.5,1.77Z"/><path id="_Compound_Path_18" data-name="&lt;Compound Path&gt;" class="cls-1" d="M43,160.59a.58.58,0,0,1-.29-.08L4.47,138.37c-1.69-.73-2.36-3-1.71-5.83a11.59,11.59,0,0,1,3.44-5.93c1.83-1.67,3.73-2.31,5.21-1.75a2.85,2.85,0,0,1,.77.44l38.06,22a.57.57,0,0,1,.27.36.59.59,0,0,1-.06.45l-1.83,3.06-5.1,9.12a.58.58,0,0,1-.36.28ZM10.29,125.53a5.58,5.58,0,0,0-3.5,1.73,10.73,10.73,0,0,0-3.18,5.48c-.55,2.43-.07,4.3,1.26,4.87l38.06,22,5-8.89,1.7-2.83L11.68,126a2,2,0,0,0-.56-.32A2.33,2.33,0,0,0,10.29,125.53Z"/></g><g id="_Group_30" data-name="&lt;Group&gt;"><path id="_Path_229" data-name="&lt;Path&gt;" class="cls-10" d="M51.57,151a11.23,11.23,0,0,1-5.08,8.8c-2.81,1.62-5.08.31-5.08-2.93a11.23,11.23,0,0,1,5.08-8.8C49.29,146.42,51.57,147.73,51.57,151Z"/><path id="_Compound_Path_19" data-name="&lt;Compound Path&gt;" class="cls-1" d="M44.22,160.9a3,3,0,0,1-1.54-.4,4,4,0,0,1-1.7-3.66,11.72,11.72,0,0,1,5.3-9.17,4,4,0,0,1,4-.36A4,4,0,0,1,52,151a11.72,11.72,0,0,1-5.3,9.17A5,5,0,0,1,44.22,160.9Zm4.54-13.12a4.21,4.21,0,0,0-2.05.64,10.77,10.77,0,0,0-4.86,8.43,3.17,3.17,0,0,0,1.27,2.92,3.17,3.17,0,0,0,3.16-.36A10.77,10.77,0,0,0,51.14,151a3.17,3.17,0,0,0-1.27-2.92A2.19,2.19,0,0,0,48.75,147.77Z"/></g><g id="_Group_31" data-name="&lt;Group&gt;"><path id="_Compound_Path_20" data-name="&lt;Compound Path&gt;" class="cls-11" d="M45.7,156.6a1.33,1.33,0,0,1-.67-.18,1.64,1.64,0,0,1-.73-1.51,4.29,4.29,0,0,1,2-3.41,1.49,1.49,0,0,1,2.4,1.38,4.29,4.29,0,0,1-2,3.41A2,2,0,0,1,45.7,156.6Zm1.57-4.53a1.19,1.19,0,0,0-.57.18,3.45,3.45,0,0,0-1.54,2.66.85.85,0,0,0,.3.76.86.86,0,0,0,.81-.12,3.45,3.45,0,0,0,1.54-2.66.85.85,0,0,0-.3-.76A.49.49,0,0,0,47.27,152.07Z"/></g></g></g></g></g></g></g></g></svg>