<svg xmlns="http://www.w3.org/2000/svg" viewBox="0 0 376.31 205.13"><defs><style>.cls-1{fill:none;stroke:#271f3b;stroke-miterlimit:10;stroke-width:7px;}.cls-2{fill:#271f3b;}</style></defs><title>Live Website</title><g id="Layer_2" data-name="Layer 2"><g id="Palet"><polyline class="cls-1" points="20.69 184.38 136.08 68.77 355.79 68.77"/><circle class="cls-2" cx="361.05" cy="69.22" r="15.26"/><circle class="cls-2" cx="15.26" cy="189.86" r="15.26"/><path class="cls-2" d="M189.54,3.85V42.93h15.62V54H176.52V3.85Z"/><path class="cls-2" d="M209.94,6.78a6.53,6.53,0,0,1,.53-2.62A6.89,6.89,0,0,1,214.1.53a6.74,6.74,0,0,1,5.25,0A6.89,6.89,0,0,1,223,4.15a6.54,6.54,0,0,1,.53,2.62A6.54,6.54,0,0,1,223,9.4,6.89,6.89,0,0,1,219.35,13a6.74,6.74,0,0,1-5.25,0,6.89,6.89,0,0,1-3.62-3.62A6.52,6.52,0,0,1,209.94,6.78Zm12.83,13.09V54h-12V19.87Z"/><path class="cls-2" d="M241.11,19.87l8.11,17.48,8.24-17.48h13.42L253.14,54h-8L227.55,19.87Z"/><path class="cls-2" d="M284.24,38.94q0,7.77,7.31,7.77a6.53,6.53,0,0,0,5.91-3.19h11.63q-3.52,11.7-17.61,11.7a23.14,23.14,0,0,1-7.91-1.3,17.65,17.65,0,0,1-6.15-3.69,16.44,16.44,0,0,1-4-5.72,19,19,0,0,1-1.4-7.44,21,21,0,0,1,1.33-7.68,16.13,16.13,0,0,1,3.79-5.81,16.76,16.76,0,0,1,5.95-3.69,22.5,22.5,0,0,1,7.88-1.3,22,22,0,0,1,7.77,1.3,15.75,15.75,0,0,1,5.85,3.75,16.33,16.33,0,0,1,3.66,6,23.85,23.85,0,0,1,1.26,8v1.26Zm14.09-7a7.24,7.24,0,0,0-2.46-4.05,7.63,7.63,0,0,0-9.07-.07A6.61,6.61,0,0,0,284.57,32Z"/></g></g></svg>