<svg xmlns="http://www.w3.org/2000/svg" viewBox="0 0 504.75 312.86"><defs><style>.cls-1{fill:#16110d;}.cls-2{fill:#ffbe2e;}.cls-3{fill:#fec;}</style></defs><title>Mobile</title><g id="Layer_2" data-name="Layer 2"><g id="Work"><g id="_Group_" data-name="&lt;Group&gt;"><g id="_Group_2" data-name="&lt;Group&gt;"><path id="_Path_" data-name="&lt;Path&gt;" class="cls-1" d="M95.59,277.7a1,1,0,0,1,0,1.84,3.52,3.52,0,0,1-3.18,0,1,1,0,0,1,0-1.84A3.52,3.52,0,0,1,95.59,277.7Z"/><path id="_Path_2" data-name="&lt;Path&gt;" class="cls-1" d="M103.91,272.89a1,1,0,0,1,0,1.84,3.52,3.52,0,0,1-3.18,0,1,1,0,0,1,0-1.84A3.52,3.52,0,0,1,103.91,272.89Z"/><path id="_Path_3" data-name="&lt;Path&gt;" class="cls-1" d="M112.24,268.09a1,1,0,0,1,0,1.84,3.52,3.52,0,0,1-3.18,0,1,1,0,0,1,0-1.84A3.52,3.52,0,0,1,112.24,268.09Z"/><path id="_Path_4" data-name="&lt;Path&gt;" class="cls-1" d="M87.26,272.89a1,1,0,0,1,0,1.84,3.52,3.52,0,0,1-3.18,0,1,1,0,0,1,0-1.84A3.52,3.52,0,0,1,87.26,272.89Z"/><path id="_Path_5" data-name="&lt;Path&gt;" class="cls-1" d="M95.59,268.09a1,1,0,0,1,0,1.84,3.52,3.52,0,0,1-3.18,0,1,1,0,0,1,0-1.84A3.52,3.52,0,0,1,95.59,268.09Z"/><path id="_Path_6" data-name="&lt;Path&gt;" class="cls-1" d="M103.91,263.28a1,1,0,0,1,0,1.84,3.52,3.52,0,0,1-3.18,0,1,1,0,0,1,0-1.84A3.52,3.52,0,0,1,103.91,263.28Z"/><path id="_Path_7" data-name="&lt;Path&gt;" class="cls-1" d="M78.93,268.09a1,1,0,0,1,0,1.84,3.52,3.52,0,0,1-3.18,0,1,1,0,0,1,0-1.84A3.52,3.52,0,0,1,78.93,268.09Z"/><path id="_Path_8" data-name="&lt;Path&gt;" class="cls-1" d="M87.26,263.28a1,1,0,0,1,0,1.84,3.52,3.52,0,0,1-3.18,0,1,1,0,0,1,0-1.84A3.52,3.52,0,0,1,87.26,263.28Z"/><path id="_Path_9" data-name="&lt;Path&gt;" class="cls-1" d="M95.59,258.47a1,1,0,0,1,0,1.84,3.52,3.52,0,0,1-3.18,0,1,1,0,0,1,0-1.84A3.52,3.52,0,0,1,95.59,258.47Z"/><path id="_Path_10" data-name="&lt;Path&gt;" class="cls-1" d="M70.6,263.28a1,1,0,0,1,0,1.84,3.52,3.52,0,0,1-3.18,0,1,1,0,0,1,0-1.84A3.52,3.52,0,0,1,70.6,263.28Z"/><path id="_Path_11" data-name="&lt;Path&gt;" class="cls-1" d="M78.93,258.47a1,1,0,0,1,0,1.84,3.52,3.52,0,0,1-3.18,0,1,1,0,0,1,0-1.84A3.52,3.52,0,0,1,78.93,258.47Z"/><path id="_Path_12" data-name="&lt;Path&gt;" class="cls-1" d="M87.26,253.66a1,1,0,0,1,0,1.84,3.52,3.52,0,0,1-3.18,0,1,1,0,0,1,0-1.84A3.52,3.52,0,0,1,87.26,253.66Z"/><path id="_Path_13" data-name="&lt;Path&gt;" class="cls-1" d="M62.2,258.42a1,1,0,0,1,0,1.84,3.52,3.52,0,0,1-3.18,0,1,1,0,0,1,0-1.84A3.52,3.52,0,0,1,62.2,258.42Z"/><path id="_Path_14" data-name="&lt;Path&gt;" class="cls-1" d="M70.53,253.61a1,1,0,0,1,0,1.84,3.52,3.52,0,0,1-3.18,0,1,1,0,0,1,0-1.84A3.52,3.52,0,0,1,70.53,253.61Z"/><path id="_Path_15" data-name="&lt;Path&gt;" class="cls-1" d="M78.86,248.81a1,1,0,0,1,0,1.84,3.52,3.52,0,0,1-3.18,0,1,1,0,0,1,0-1.84A3.52,3.52,0,0,1,78.86,248.81Z"/><path id="_Path_16" data-name="&lt;Path&gt;" class="cls-1" d="M53.88,253.61a1,1,0,0,1,0,1.84,3.52,3.52,0,0,1-3.18,0,1,1,0,0,1,0-1.84A3.52,3.52,0,0,1,53.88,253.61Z"/><path id="_Path_17" data-name="&lt;Path&gt;" class="cls-1" d="M62.21,248.81a1,1,0,0,1,0,1.84,3.52,3.52,0,0,1-3.18,0,1,1,0,0,1,0-1.84A3.52,3.52,0,0,1,62.21,248.81Z"/><path id="_Path_18" data-name="&lt;Path&gt;" class="cls-1" d="M70.53,244a1,1,0,0,1,0,1.84,3.52,3.52,0,0,1-3.18,0,1,1,0,0,1,0-1.84A3.52,3.52,0,0,1,70.53,244Z"/><path id="_Path_19" data-name="&lt;Path&gt;" class="cls-1" d="M45.55,248.81a1,1,0,0,1,0,1.84,3.52,3.52,0,0,1-3.18,0,1,1,0,0,1,0-1.84A3.52,3.52,0,0,1,45.55,248.81Z"/><path id="_Path_20" data-name="&lt;Path&gt;" class="cls-1" d="M53.88,244a1,1,0,0,1,0,1.84,3.52,3.52,0,0,1-3.18,0,1,1,0,0,1,0-1.84A3.52,3.52,0,0,1,53.88,244Z"/><path id="_Path_21" data-name="&lt;Path&gt;" class="cls-1" d="M62.21,239.19a1,1,0,0,1,0,1.84A3.52,3.52,0,0,1,59,241a1,1,0,0,1,0-1.84A3.52,3.52,0,0,1,62.21,239.19Z"/><path id="_Path_22" data-name="&lt;Path&gt;" class="cls-1" d="M37.22,244a1,1,0,0,1,0,1.84,3.52,3.52,0,0,1-3.18,0A1,1,0,0,1,34,244,3.52,3.52,0,0,1,37.22,244Z"/><path id="_Path_23" data-name="&lt;Path&gt;" class="cls-1" d="M45.55,239.19a1,1,0,0,1,0,1.84,3.52,3.52,0,0,1-3.18,0,1,1,0,0,1,0-1.84A3.52,3.52,0,0,1,45.55,239.19Z"/><path id="_Path_24" data-name="&lt;Path&gt;" class="cls-1" d="M53.88,234.38a1,1,0,0,1,0,1.84,3.52,3.52,0,0,1-3.18,0,1,1,0,0,1,0-1.84A3.52,3.52,0,0,1,53.88,234.38Z"/><path id="_Path_25" data-name="&lt;Path&gt;" class="cls-1" d="M28.9,239.19a1,1,0,0,1,0,1.84,3.52,3.52,0,0,1-3.18,0,1,1,0,0,1,0-1.84A3.52,3.52,0,0,1,28.9,239.19Z"/><path id="_Path_26" data-name="&lt;Path&gt;" class="cls-1" d="M37.22,234.38a1,1,0,0,1,0,1.84,3.52,3.52,0,0,1-3.18,0,1,1,0,0,1,0-1.84A3.52,3.52,0,0,1,37.22,234.38Z"/><path id="_Path_27" data-name="&lt;Path&gt;" class="cls-1" d="M45.55,229.58a1,1,0,0,1,0,1.84,3.52,3.52,0,0,1-3.18,0,1,1,0,0,1,0-1.84A3.52,3.52,0,0,1,45.55,229.58Z"/><path id="_Path_28" data-name="&lt;Path&gt;" class="cls-1" d="M20.57,234.38a1,1,0,0,1,0,1.84,3.52,3.52,0,0,1-3.18,0,1,1,0,0,1,0-1.84A3.52,3.52,0,0,1,20.57,234.38Z"/><path id="_Path_29" data-name="&lt;Path&gt;" class="cls-1" d="M28.9,229.58a1,1,0,0,1,0,1.84,3.52,3.52,0,0,1-3.18,0,1,1,0,0,1,0-1.84A3.52,3.52,0,0,1,28.9,229.58Z"/><path id="_Path_30" data-name="&lt;Path&gt;" class="cls-1" d="M37.22,224.77a1,1,0,0,1,0,1.84,3.52,3.52,0,0,1-3.18,0,1,1,0,0,1,0-1.84A3.52,3.52,0,0,1,37.22,224.77Z"/><path id="_Path_31" data-name="&lt;Path&gt;" class="cls-1" d="M12.24,229.58a1,1,0,0,1,0,1.84,3.52,3.52,0,0,1-3.18,0,1,1,0,0,1,0-1.84A3.52,3.52,0,0,1,12.24,229.58Z"/><path id="_Path_32" data-name="&lt;Path&gt;" class="cls-1" d="M20.57,224.77a1,1,0,0,1,0,1.84,3.52,3.52,0,0,1-3.18,0,1,1,0,0,1,0-1.84A3.52,3.52,0,0,1,20.57,224.77Z"/><path id="_Path_33" data-name="&lt;Path&gt;" class="cls-1" d="M28.9,220a1,1,0,0,1,0,1.84,3.52,3.52,0,0,1-3.18,0,1,1,0,0,1,0-1.84A3.52,3.52,0,0,1,28.9,220Z"/><path id="_Path_34" data-name="&lt;Path&gt;" class="cls-1" d="M3.92,224.77a1,1,0,0,1,0,1.84,3.52,3.52,0,0,1-3.18,0,1,1,0,0,1,0-1.84A3.52,3.52,0,0,1,3.92,224.77Z"/><path id="_Path_35" data-name="&lt;Path&gt;" class="cls-1" d="M12.24,220a1,1,0,0,1,0,1.84,3.52,3.52,0,0,1-3.18,0,1,1,0,0,1,0-1.84A3.52,3.52,0,0,1,12.24,220Z"/><path id="_Path_36" data-name="&lt;Path&gt;" class="cls-1" d="M20.57,215.15a1,1,0,0,1,0,1.84,3.52,3.52,0,0,1-3.18,0,1,1,0,0,1,0-1.84A3.52,3.52,0,0,1,20.57,215.15Z"/><path id="_Path_37" data-name="&lt;Path&gt;" class="cls-1" d="M3.84,215.1a1,1,0,0,1,0,1.84,3.52,3.52,0,0,1-3.18,0,1,1,0,0,1,0-1.84A3.52,3.52,0,0,1,3.84,215.1Z"/><path id="_Path_38" data-name="&lt;Path&gt;" class="cls-1" d="M12.17,210.29a1,1,0,0,1,0,1.84,3.52,3.52,0,0,1-3.18,0,1,1,0,0,1,0-1.84A3.52,3.52,0,0,1,12.17,210.29Z"/><path id="_Path_39" data-name="&lt;Path&gt;" class="cls-1" d="M3.84,205.49a1,1,0,0,1,0,1.84,3.52,3.52,0,0,1-3.18,0,1,1,0,0,1,0-1.84A3.52,3.52,0,0,1,3.84,205.49Z"/><path id="_Path_40" data-name="&lt;Path&gt;" class="cls-1" d="M187.58,310.64a1,1,0,0,1,0,1.84,3.52,3.52,0,0,1-3.18,0,1,1,0,0,1,0-1.84A3.52,3.52,0,0,1,187.58,310.64Z"/><path id="_Path_41" data-name="&lt;Path&gt;" class="cls-1" d="M170.93,310.64a1,1,0,0,1,0,1.84,3.52,3.52,0,0,1-3.18,0,1,1,0,0,1,0-1.84A3.52,3.52,0,0,1,170.93,310.64Z"/><path id="_Path_42" data-name="&lt;Path&gt;" class="cls-1" d="M179.25,305.83a1,1,0,0,1,0,1.84,3.52,3.52,0,0,1-3.18,0,1,1,0,0,1,0-1.84A3.52,3.52,0,0,1,179.25,305.83Z"/><path id="_Path_43" data-name="&lt;Path&gt;" class="cls-1" d="M154.27,310.64a1,1,0,0,1,0,1.84,3.52,3.52,0,0,1-3.18,0,1,1,0,0,1,0-1.84A3.52,3.52,0,0,1,154.27,310.64Z"/><path id="_Path_44" data-name="&lt;Path&gt;" class="cls-1" d="M162.6,305.83a1,1,0,0,1,0,1.84,3.52,3.52,0,0,1-3.18,0,1,1,0,0,1,0-1.84A3.52,3.52,0,0,1,162.6,305.83Z"/><path id="_Path_45" data-name="&lt;Path&gt;" class="cls-1" d="M170.93,301a1,1,0,0,1,0,1.84,3.52,3.52,0,0,1-3.18,0,1,1,0,0,1,0-1.84A3.52,3.52,0,0,1,170.93,301Z"/><path id="_Path_46" data-name="&lt;Path&gt;" class="cls-1" d="M145.95,305.83a1,1,0,0,1,0,1.84,3.52,3.52,0,0,1-3.18,0,1,1,0,0,1,0-1.84A3.52,3.52,0,0,1,145.95,305.83Z"/><path id="_Path_47" data-name="&lt;Path&gt;" class="cls-1" d="M154.27,301a1,1,0,0,1,0,1.84,3.52,3.52,0,0,1-3.18,0,1,1,0,0,1,0-1.84A3.52,3.52,0,0,1,154.27,301Z"/><path id="_Path_48" data-name="&lt;Path&gt;" class="cls-1" d="M162.6,296.21a1,1,0,0,1,0,1.84,3.52,3.52,0,0,1-3.18,0,1,1,0,0,1,0-1.84A3.52,3.52,0,0,1,162.6,296.21Z"/><path id="_Path_49" data-name="&lt;Path&gt;" class="cls-1" d="M137.55,301a1,1,0,0,1,0,1.84,3.52,3.52,0,0,1-3.18,0,1,1,0,0,1,0-1.84A3.52,3.52,0,0,1,137.55,301Z"/><path id="_Path_50" data-name="&lt;Path&gt;" class="cls-1" d="M145.87,296.16a1,1,0,0,1,0,1.84,3.52,3.52,0,0,1-3.18,0,1,1,0,0,1,0-1.84A3.52,3.52,0,0,1,145.87,296.16Z"/><path id="_Path_51" data-name="&lt;Path&gt;" class="cls-1" d="M154.2,291.35a1,1,0,0,1,0,1.84,3.52,3.52,0,0,1-3.18,0,1,1,0,0,1,0-1.84A3.52,3.52,0,0,1,154.2,291.35Z"/><path id="_Path_52" data-name="&lt;Path&gt;" class="cls-1" d="M129.22,296.16a1,1,0,0,1,0,1.84,3.52,3.52,0,0,1-3.18,0,1,1,0,0,1,0-1.84A3.52,3.52,0,0,1,129.22,296.16Z"/><path id="_Path_53" data-name="&lt;Path&gt;" class="cls-1" d="M137.55,291.35a1,1,0,0,1,0,1.84,3.52,3.52,0,0,1-3.18,0,1,1,0,0,1,0-1.84A3.52,3.52,0,0,1,137.55,291.35Z"/><path id="_Path_54" data-name="&lt;Path&gt;" class="cls-1" d="M145.87,286.55a1,1,0,0,1,0,1.84,3.52,3.52,0,0,1-3.18,0,1,1,0,0,1,0-1.84A3.52,3.52,0,0,1,145.87,286.55Z"/><path id="_Path_55" data-name="&lt;Path&gt;" class="cls-1" d="M120.89,291.35a1,1,0,0,1,0,1.84,3.52,3.52,0,0,1-3.18,0,1,1,0,0,1,0-1.84A3.52,3.52,0,0,1,120.89,291.35Z"/><path id="_Path_56" data-name="&lt;Path&gt;" class="cls-1" d="M129.22,286.55a1,1,0,0,1,0,1.84,3.52,3.52,0,0,1-3.18,0,1,1,0,0,1,0-1.84A3.52,3.52,0,0,1,129.22,286.55Z"/><path id="_Path_57" data-name="&lt;Path&gt;" class="cls-1" d="M137.55,281.74a1,1,0,0,1,0,1.84,3.52,3.52,0,0,1-3.18,0,1,1,0,0,1,0-1.84A3.52,3.52,0,0,1,137.55,281.74Z"/><path id="_Path_58" data-name="&lt;Path&gt;" class="cls-1" d="M112.56,286.55a1,1,0,0,1,0,1.84,3.52,3.52,0,0,1-3.18,0,1,1,0,0,1,0-1.84A3.52,3.52,0,0,1,112.56,286.55Z"/><path id="_Path_59" data-name="&lt;Path&gt;" class="cls-1" d="M120.89,281.74a1,1,0,0,1,0,1.84,3.52,3.52,0,0,1-3.18,0,1,1,0,0,1,0-1.84A3.52,3.52,0,0,1,120.89,281.74Z"/><path id="_Path_60" data-name="&lt;Path&gt;" class="cls-1" d="M129.22,276.93a1,1,0,0,1,0,1.84,3.52,3.52,0,0,1-3.18,0,1,1,0,0,1,0-1.84A3.52,3.52,0,0,1,129.22,276.93Z"/><path id="_Path_61" data-name="&lt;Path&gt;" class="cls-1" d="M103.91,282.51a1,1,0,0,1,0,1.84,3.52,3.52,0,0,1-3.18,0,1,1,0,0,1,0-1.84A3.52,3.52,0,0,1,103.91,282.51Z"/><path id="_Path_62" data-name="&lt;Path&gt;" class="cls-1" d="M112.24,277.7a1,1,0,0,1,0,1.84,3.52,3.52,0,0,1-3.18,0,1,1,0,0,1,0-1.84A3.52,3.52,0,0,1,112.24,277.7Z"/><path id="_Path_63" data-name="&lt;Path&gt;" class="cls-1" d="M120.57,272.89a1,1,0,0,1,0,1.84,3.52,3.52,0,0,1-3.18,0,1,1,0,0,1,0-1.84A3.52,3.52,0,0,1,120.57,272.89Z"/><path id="_Path_64" data-name="&lt;Path&gt;" class="cls-1" d="M95.59,277.7a1,1,0,0,1,0,1.84,3.52,3.52,0,0,1-3.18,0,1,1,0,0,1,0-1.84A3.52,3.52,0,0,1,95.59,277.7Z"/><path id="_Path_65" data-name="&lt;Path&gt;" class="cls-1" d="M103.91,272.89a1,1,0,0,1,0,1.84,3.52,3.52,0,0,1-3.18,0,1,1,0,0,1,0-1.84A3.52,3.52,0,0,1,103.91,272.89Z"/><path id="_Path_66" data-name="&lt;Path&gt;" class="cls-1" d="M112.24,268.09a1,1,0,0,1,0,1.84,3.52,3.52,0,0,1-3.18,0,1,1,0,0,1,0-1.84A3.52,3.52,0,0,1,112.24,268.09Z"/><path id="_Path_67" data-name="&lt;Path&gt;" class="cls-1" d="M128.92,268.15a1,1,0,0,1,0,1.84,3.52,3.52,0,0,1-3.18,0,1,1,0,0,1,0-1.84A3.52,3.52,0,0,1,128.92,268.15Z"/><path id="_Path_68" data-name="&lt;Path&gt;" class="cls-1" d="M137.25,263.34a1,1,0,0,1,0,1.84,3.52,3.52,0,0,1-3.18,0,1,1,0,0,1,0-1.84A3.52,3.52,0,0,1,137.25,263.34Z"/><path id="_Path_69" data-name="&lt;Path&gt;" class="cls-1" d="M145.57,258.53a1,1,0,0,1,0,1.84,3.52,3.52,0,0,1-3.18,0,1,1,0,0,1,0-1.84A3.52,3.52,0,0,1,145.57,258.53Z"/><path id="_Path_70" data-name="&lt;Path&gt;" class="cls-1" d="M117.4,263.35a3.52,3.52,0,0,1,3.18,0,1,1,0,0,1,0,1.84,3.52,3.52,0,0,1-3.18,0A1,1,0,0,1,117.4,263.35Z"/><path id="_Path_71" data-name="&lt;Path&gt;" class="cls-1" d="M128.92,258.53a1,1,0,0,1,0,1.84,3.52,3.52,0,0,1-3.18,0,1,1,0,0,1,0-1.84A3.52,3.52,0,0,1,128.92,258.53Z"/><path id="_Path_72" data-name="&lt;Path&gt;" class="cls-1" d="M137.25,253.73a1,1,0,0,1,0,1.84,3.52,3.52,0,0,1-3.18,0,1,1,0,0,1,0-1.84A3.52,3.52,0,0,1,137.25,253.73Z"/><path id="_Path_73" data-name="&lt;Path&gt;" class="cls-1" d="M109.07,258.54a3.52,3.52,0,0,1,3.18,0,1,1,0,0,1,0,1.84,3.52,3.52,0,0,1-3.18,0A1,1,0,0,1,109.07,258.54Z"/><path id="_Path_74" data-name="&lt;Path&gt;" class="cls-1" d="M120.59,253.73a1,1,0,0,1,0,1.84,3.52,3.52,0,0,1-3.18,0,1,1,0,0,1,0-1.84A3.52,3.52,0,0,1,120.59,253.73Z"/><path id="_Path_75" data-name="&lt;Path&gt;" class="cls-1" d="M128.92,248.92a1,1,0,0,1,0,1.84,3.52,3.52,0,0,1-3.18,0,1,1,0,0,1,0-1.84A3.52,3.52,0,0,1,128.92,248.92Z"/><path id="_Path_76" data-name="&lt;Path&gt;" class="cls-1" d="M100.74,253.73a3.52,3.52,0,0,1,3.18,0,1,1,0,0,1,0,1.84,3.52,3.52,0,0,1-3.18,0A1,1,0,0,1,100.74,253.73Z"/><path id="_Path_77" data-name="&lt;Path&gt;" class="cls-1" d="M112.26,248.92a1,1,0,0,1,0,1.84,3.52,3.52,0,0,1-3.18,0,1,1,0,0,1,0-1.84A3.52,3.52,0,0,1,112.26,248.92Z"/><path id="_Path_78" data-name="&lt;Path&gt;" class="cls-1" d="M120.59,244.11a1,1,0,0,1,0,1.84,3.52,3.52,0,0,1-3.18,0,1,1,0,0,1,0-1.84A3.52,3.52,0,0,1,120.59,244.11Z"/><path id="_Path_79" data-name="&lt;Path&gt;" class="cls-1" d="M92.42,248.92a3.52,3.52,0,0,1,3.18,0,1,1,0,0,1,0,1.84,3.52,3.52,0,0,1-3.18,0A1,1,0,0,1,92.42,248.92Z"/><path id="_Path_80" data-name="&lt;Path&gt;" class="cls-1" d="M103.94,244.11a1,1,0,0,1,0,1.84,3.52,3.52,0,0,1-3.18,0,1,1,0,0,1,0-1.84A3.52,3.52,0,0,1,103.94,244.11Z"/><path id="_Path_81" data-name="&lt;Path&gt;" class="cls-1" d="M112.26,239.3a1,1,0,0,1,0,1.84,3.52,3.52,0,0,1-3.18,0,1,1,0,0,1,0-1.84A3.52,3.52,0,0,1,112.26,239.3Z"/><path id="_Path_82" data-name="&lt;Path&gt;" class="cls-1" d="M84,244.07a3.52,3.52,0,0,1,3.18,0,1,1,0,0,1,0,1.84,3.52,3.52,0,0,1-3.18,0A1,1,0,0,1,84,244.07Z"/><path id="_Path_83" data-name="&lt;Path&gt;" class="cls-1" d="M95.54,239.25a1,1,0,0,1,0,1.84,3.52,3.52,0,0,1-3.18,0,1,1,0,0,1,0-1.84A3.52,3.52,0,0,1,95.54,239.25Z"/><path id="_Path_84" data-name="&lt;Path&gt;" class="cls-1" d="M103.87,234.44a1,1,0,0,1,0,1.84,3.52,3.52,0,0,1-3.18,0,1,1,0,0,1,0-1.84A3.52,3.52,0,0,1,103.87,234.44Z"/><path id="_Path_85" data-name="&lt;Path&gt;" class="cls-1" d="M75.69,239.26a3.52,3.52,0,0,1,3.18,0,1,1,0,0,1,0,1.84,3.52,3.52,0,0,1-3.18,0A1,1,0,0,1,75.69,239.26Z"/><path id="_Path_86" data-name="&lt;Path&gt;" class="cls-1" d="M87.21,234.44a1,1,0,0,1,0,1.84,3.52,3.52,0,0,1-3.18,0,1,1,0,0,1,0-1.84A3.52,3.52,0,0,1,87.21,234.44Z"/><path id="_Path_87" data-name="&lt;Path&gt;" class="cls-1" d="M67.36,234.45a3.52,3.52,0,0,1,3.18,0,1,1,0,0,1,0,1.84,3.52,3.52,0,0,1-3.18,0A1,1,0,0,1,67.36,234.45Z"/><path id="_Path_88" data-name="&lt;Path&gt;" class="cls-1" d="M78.88,229.64a1,1,0,0,1,0,1.84,3.52,3.52,0,0,1-3.18,0,1,1,0,0,1,0-1.84A3.52,3.52,0,0,1,78.88,229.64Z"/><path id="_Path_89" data-name="&lt;Path&gt;" class="cls-1" d="M59,229.64a3.52,3.52,0,0,1,3.18,0,1,1,0,0,1,0,1.84,3.52,3.52,0,0,1-3.18,0A1,1,0,0,1,59,229.64Z"/><path id="_Path_90" data-name="&lt;Path&gt;" class="cls-1" d="M70.56,224.83a1,1,0,0,1,0,1.84,3.52,3.52,0,0,1-3.18,0,1,1,0,0,1,0-1.84A3.52,3.52,0,0,1,70.56,224.83Z"/><path id="_Path_91" data-name="&lt;Path&gt;" class="cls-1" d="M50.71,224.84a3.52,3.52,0,0,1,3.18,0,1,1,0,0,1,0,1.84,3.52,3.52,0,0,1-3.18,0A1,1,0,0,1,50.71,224.84Z"/><path id="_Path_92" data-name="&lt;Path&gt;" class="cls-1" d="M62.23,220a1,1,0,0,1,0,1.84,3.52,3.52,0,0,1-3.18,0A1,1,0,0,1,59,220,3.52,3.52,0,0,1,62.23,220Z"/><path id="_Path_93" data-name="&lt;Path&gt;" class="cls-1" d="M42.38,220a3.52,3.52,0,0,1,3.18,0,1,1,0,0,1,0,1.84,3.52,3.52,0,0,1-3.18,0A1,1,0,0,1,42.38,220Z"/><path id="_Path_94" data-name="&lt;Path&gt;" class="cls-1" d="M53.9,215.21a1,1,0,0,1,0,1.84,3.52,3.52,0,0,1-3.18,0,1,1,0,0,1,0-1.84,3.52,3.52,0,0,1,3.18,0Z"/><path id="_Path_95" data-name="&lt;Path&gt;" class="cls-1" d="M34.05,215.22a3.52,3.52,0,0,1,3.18,0,1,1,0,0,1,0,1.84,3.52,3.52,0,0,1-3.18,0A1,1,0,0,1,34.05,215.22Z"/><path id="_Path_96" data-name="&lt;Path&gt;" class="cls-1" d="M45.58,210.41a1,1,0,0,1,0,1.84,3.52,3.52,0,0,1-3.18,0,1,1,0,0,1,0-1.84A3.52,3.52,0,0,1,45.58,210.41Z"/><path id="_Path_97" data-name="&lt;Path&gt;" class="cls-1" d="M25.73,210.41a3.52,3.52,0,0,1,3.18,0,1,1,0,0,1,0,1.84,3.52,3.52,0,0,1-3.18,0A1,1,0,0,1,25.73,210.41Z"/><path id="_Path_98" data-name="&lt;Path&gt;" class="cls-1" d="M37.25,207.44a3.52,3.52,0,0,1-3.18,0,1,1,0,0,1,0-1.84C34.94,205.09,38.13,206.93,37.25,207.44Z"/><path id="_Path_99" data-name="&lt;Path&gt;" class="cls-1" d="M17.33,205.56a3.52,3.52,0,0,1,3.18,0,1,1,0,0,1,0,1.84,3.52,3.52,0,0,1-3.18,0A1,1,0,0,1,17.33,205.56Z"/><path id="_Path_100" data-name="&lt;Path&gt;" class="cls-1" d="M28.85,202.58a3.52,3.52,0,0,1-3.18,0,1,1,0,0,1,0-1.84C26.55,200.23,29.73,202.07,28.85,202.58Z"/><path id="_Path_101" data-name="&lt;Path&gt;" class="cls-1" d="M9,200.75a3.52,3.52,0,0,1,3.18,0,1,1,0,0,1,0,1.84,3.52,3.52,0,0,1-3.18,0A1,1,0,0,1,9,200.75Z"/><path id="_Path_102" data-name="&lt;Path&gt;" class="cls-1" d="M20.52,197.77a3.52,3.52,0,0,1-3.18,0,1,1,0,0,1,0-1.84,3.52,3.52,0,0,1,3.18,0A1,1,0,0,1,20.52,197.77Z"/><path id="_Path_103" data-name="&lt;Path&gt;" class="cls-1" d="M192.74,305.9a3.52,3.52,0,0,1,3.18,0,1,1,0,0,1,0,1.84,3.52,3.52,0,0,1-3.18,0A1,1,0,0,1,192.74,305.9Z"/><path id="_Path_104" data-name="&lt;Path&gt;" class="cls-1" d="M204.26,301.08a1,1,0,0,1,0,1.84,3.52,3.52,0,0,1-3.18,0,1,1,0,0,1,0-1.84A3.52,3.52,0,0,1,204.26,301.08Z"/><path id="_Path_105" data-name="&lt;Path&gt;" class="cls-1" d="M212.59,296.28a1,1,0,0,1,0,1.84,3.52,3.52,0,0,1-3.18,0,1,1,0,0,1,0-1.84A3.52,3.52,0,0,1,212.59,296.28Z"/><path id="_Path_106" data-name="&lt;Path&gt;" class="cls-1" d="M220.91,291.47a1,1,0,0,1,0,1.84,3.52,3.52,0,0,1-3.18,0,1,1,0,0,1,0-1.84A3.52,3.52,0,0,1,220.91,291.47Z"/><path id="_Path_107" data-name="&lt;Path&gt;" class="cls-1" d="M229.24,286.66a1,1,0,0,1,0,1.84,3.52,3.52,0,0,1-3.18,0,1,1,0,0,1,0-1.84A3.52,3.52,0,0,1,229.24,286.66Z"/><path id="_Path_108" data-name="&lt;Path&gt;" class="cls-1" d="M237.57,281.85a1,1,0,0,1,0,1.84,3.52,3.52,0,0,1-3.18,0,1,1,0,0,1,0-1.84A3.52,3.52,0,0,1,237.57,281.85Z"/><path id="_Path_109" data-name="&lt;Path&gt;" class="cls-1" d="M245.89,277a1,1,0,0,1,0,1.84,3.52,3.52,0,0,1-3.18,0,1,1,0,0,1,0-1.84A3.52,3.52,0,0,1,245.89,277Z"/><path id="_Path_110" data-name="&lt;Path&gt;" class="cls-1" d="M254.22,272.24a1,1,0,0,1,0,1.84,3.52,3.52,0,0,1-3.18,0,1,1,0,0,1,0-1.84A3.52,3.52,0,0,1,254.22,272.24Z"/><path id="_Path_111" data-name="&lt;Path&gt;" class="cls-1" d="M262.55,267.43a1,1,0,0,1,0,1.84,3.52,3.52,0,0,1-3.18,0,1,1,0,0,1,0-1.84A3.52,3.52,0,0,1,262.55,267.43Z"/><path id="_Path_112" data-name="&lt;Path&gt;" class="cls-1" d="M270.88,262.62a1,1,0,0,1,0,1.84,3.52,3.52,0,0,1-3.18,0,1,1,0,0,1,0-1.84A3.52,3.52,0,0,1,270.88,262.62Z"/><path id="_Path_113" data-name="&lt;Path&gt;" class="cls-1" d="M279.2,257.81a1,1,0,0,1,0,1.84,3.52,3.52,0,0,1-3.18,0,1,1,0,0,1,0-1.84A3.52,3.52,0,0,1,279.2,257.81Z"/><path id="_Path_114" data-name="&lt;Path&gt;" class="cls-1" d="M287.53,253a1,1,0,0,1,0,1.84,3.52,3.52,0,0,1-3.18,0,1,1,0,0,1,0-1.84A3.52,3.52,0,0,1,287.53,253Z"/><path id="_Path_115" data-name="&lt;Path&gt;" class="cls-1" d="M295.86,248.2a1,1,0,0,1,0,1.84,3.52,3.52,0,0,1-3.18,0,1,1,0,0,1,0-1.84A3.52,3.52,0,0,1,295.86,248.2Z"/><path id="_Path_116" data-name="&lt;Path&gt;" class="cls-1" d="M304.18,243.39a1,1,0,0,1,0,1.84,3.52,3.52,0,0,1-3.18,0,1,1,0,0,1,0-1.84A3.52,3.52,0,0,1,304.18,243.39Z"/><path id="_Path_117" data-name="&lt;Path&gt;" class="cls-1" d="M329.16,229a1,1,0,0,1,0,1.84,3.52,3.52,0,0,1-3.18,0,1,1,0,0,1,0-1.84A3.52,3.52,0,0,1,329.16,229Z"/><path id="_Path_118" data-name="&lt;Path&gt;" class="cls-1" d="M184.41,301.09a3.52,3.52,0,0,1,3.18,0,1,1,0,0,1,0,1.84,3.52,3.52,0,0,1-3.18,0A1,1,0,0,1,184.41,301.09Z"/><path id="_Path_119" data-name="&lt;Path&gt;" class="cls-1" d="M195.93,296.28a1,1,0,0,1,0,1.84,3.52,3.52,0,0,1-3.18,0,1,1,0,0,1,0-1.84A3.52,3.52,0,0,1,195.93,296.28Z"/><path id="_Path_120" data-name="&lt;Path&gt;" class="cls-1" d="M204.26,291.47a1,1,0,0,1,0,1.84,3.52,3.52,0,0,1-3.18,0,1,1,0,0,1,0-1.84A3.52,3.52,0,0,1,204.26,291.47Z"/><path id="_Path_121" data-name="&lt;Path&gt;" class="cls-1" d="M212.59,286.66a1,1,0,0,1,0,1.84,3.52,3.52,0,0,1-3.18,0,1,1,0,0,1,0-1.84A3.52,3.52,0,0,1,212.59,286.66Z"/><path id="_Path_122" data-name="&lt;Path&gt;" class="cls-1" d="M220.91,281.85a1,1,0,0,1,0,1.84,3.52,3.52,0,0,1-3.18,0,1,1,0,0,1,0-1.84A3.52,3.52,0,0,1,220.91,281.85Z"/><path id="_Path_123" data-name="&lt;Path&gt;" class="cls-1" d="M229.24,277a1,1,0,0,1,0,1.84,3.52,3.52,0,0,1-3.18,0,1,1,0,0,1,0-1.84A3.52,3.52,0,0,1,229.24,277Z"/><path id="_Path_124" data-name="&lt;Path&gt;" class="cls-1" d="M237.57,272.24a1,1,0,0,1,0,1.84,3.52,3.52,0,0,1-3.18,0,1,1,0,0,1,0-1.84A3.52,3.52,0,0,1,237.57,272.24Z"/><path id="_Path_125" data-name="&lt;Path&gt;" class="cls-1" d="M245.89,267.43a1,1,0,0,1,0,1.84,3.52,3.52,0,0,1-3.18,0,1,1,0,0,1,0-1.84A3.52,3.52,0,0,1,245.89,267.43Z"/><path id="_Path_126" data-name="&lt;Path&gt;" class="cls-1" d="M254.22,262.62a1,1,0,0,1,0,1.84,3.52,3.52,0,0,1-3.18,0,1,1,0,0,1,0-1.84A3.52,3.52,0,0,1,254.22,262.62Z"/><path id="_Path_127" data-name="&lt;Path&gt;" class="cls-1" d="M262.55,257.81a1,1,0,0,1,0,1.84,3.52,3.52,0,0,1-3.18,0,1,1,0,0,1,0-1.84A3.52,3.52,0,0,1,262.55,257.81Z"/><path id="_Path_128" data-name="&lt;Path&gt;" class="cls-1" d="M270.88,253a1,1,0,0,1,0,1.84,3.52,3.52,0,0,1-3.18,0,1,1,0,0,1,0-1.84A3.52,3.52,0,0,1,270.88,253Z"/><path id="_Path_129" data-name="&lt;Path&gt;" class="cls-1" d="M279.2,248.2a1,1,0,0,1,0,1.84,3.52,3.52,0,0,1-3.18,0,1,1,0,0,1,0-1.84A3.52,3.52,0,0,1,279.2,248.2Z"/><path id="_Path_130" data-name="&lt;Path&gt;" class="cls-1" d="M287.53,243.39a1,1,0,0,1,0,1.84,3.52,3.52,0,0,1-3.18,0,1,1,0,0,1,0-1.84A3.52,3.52,0,0,1,287.53,243.39Z"/><path id="_Path_131" data-name="&lt;Path&gt;" class="cls-1" d="M295.86,238.58a1,1,0,0,1,0,1.84,3.52,3.52,0,0,1-3.18,0,1,1,0,0,1,0-1.84A3.52,3.52,0,0,1,295.86,238.58Z"/><path id="_Path_132" data-name="&lt;Path&gt;" class="cls-1" d="M304.18,233.78a1,1,0,0,1,0,1.84,3.52,3.52,0,0,1-3.18,0,1,1,0,0,1,0-1.84A3.52,3.52,0,0,1,304.18,233.78Z"/><path id="_Path_133" data-name="&lt;Path&gt;" class="cls-1" d="M320.84,224.16a1,1,0,0,1,0,1.84,3.52,3.52,0,0,1-3.18,0,1,1,0,0,1,0-1.84A3.52,3.52,0,0,1,320.84,224.16Z"/><path id="_Path_134" data-name="&lt;Path&gt;" class="cls-1" d="M176.08,296.28a3.52,3.52,0,0,1,3.18,0,1,1,0,0,1,0,1.84,3.52,3.52,0,0,1-3.18,0A1,1,0,0,1,176.08,296.28Z"/><path id="_Path_135" data-name="&lt;Path&gt;" class="cls-1" d="M187.61,291.47a1,1,0,0,1,0,1.84,3.52,3.52,0,0,1-3.18,0,1,1,0,0,1,0-1.84A3.52,3.52,0,0,1,187.61,291.47Z"/><path id="_Path_136" data-name="&lt;Path&gt;" class="cls-1" d="M195.93,286.66a1,1,0,0,1,0,1.84,3.52,3.52,0,0,1-3.18,0,1,1,0,0,1,0-1.84A3.52,3.52,0,0,1,195.93,286.66Z"/><path id="_Path_137" data-name="&lt;Path&gt;" class="cls-1" d="M204.26,281.85a1,1,0,0,1,0,1.84,3.52,3.52,0,0,1-3.18,0,1,1,0,0,1,0-1.84A3.52,3.52,0,0,1,204.26,281.85Z"/><path id="_Path_138" data-name="&lt;Path&gt;" class="cls-1" d="M212.59,277a1,1,0,0,1,0,1.84,3.52,3.52,0,0,1-3.18,0,1,1,0,0,1,0-1.84A3.52,3.52,0,0,1,212.59,277Z"/><path id="_Path_139" data-name="&lt;Path&gt;" class="cls-1" d="M220.91,272.24a1,1,0,0,1,0,1.84,3.52,3.52,0,0,1-3.18,0,1,1,0,0,1,0-1.84A3.52,3.52,0,0,1,220.91,272.24Z"/><path id="_Path_140" data-name="&lt;Path&gt;" class="cls-1" d="M229.24,267.43a1,1,0,0,1,0,1.84,3.52,3.52,0,0,1-3.18,0,1,1,0,0,1,0-1.84A3.52,3.52,0,0,1,229.24,267.43Z"/><path id="_Path_141" data-name="&lt;Path&gt;" class="cls-1" d="M237.57,262.62a1,1,0,0,1,0,1.84,3.52,3.52,0,0,1-3.18,0,1,1,0,0,1,0-1.84A3.52,3.52,0,0,1,237.57,262.62Z"/><path id="_Path_142" data-name="&lt;Path&gt;" class="cls-1" d="M245.89,257.81a1,1,0,0,1,0,1.84,3.52,3.52,0,0,1-3.18,0,1,1,0,0,1,0-1.84A3.52,3.52,0,0,1,245.89,257.81Z"/><path id="_Path_143" data-name="&lt;Path&gt;" class="cls-1" d="M254.22,253a1,1,0,0,1,0,1.84,3.52,3.52,0,0,1-3.18,0,1,1,0,0,1,0-1.84A3.52,3.52,0,0,1,254.22,253Z"/><path id="_Path_144" data-name="&lt;Path&gt;" class="cls-1" d="M262.55,248.2a1,1,0,0,1,0,1.84,3.52,3.52,0,0,1-3.18,0,1,1,0,0,1,0-1.84A3.52,3.52,0,0,1,262.55,248.2Z"/><path id="_Path_145" data-name="&lt;Path&gt;" class="cls-1" d="M270.88,243.39a1,1,0,0,1,0,1.84,3.52,3.52,0,0,1-3.18,0,1,1,0,0,1,0-1.84A3.52,3.52,0,0,1,270.88,243.39Z"/><path id="_Path_146" data-name="&lt;Path&gt;" class="cls-1" d="M279.2,238.58a1,1,0,0,1,0,1.84,3.52,3.52,0,0,1-3.18,0,1,1,0,0,1,0-1.84A3.52,3.52,0,0,1,279.2,238.58Z"/><path id="_Path_147" data-name="&lt;Path&gt;" class="cls-1" d="M287.53,233.78a1,1,0,0,1,0,1.84,3.52,3.52,0,0,1-3.18,0,1,1,0,0,1,0-1.84A3.52,3.52,0,0,1,287.53,233.78Z"/><path id="_Path_148" data-name="&lt;Path&gt;" class="cls-1" d="M295.86,229a1,1,0,0,1,0,1.84,3.52,3.52,0,0,1-3.18,0,1,1,0,0,1,0-1.84A3.52,3.52,0,0,1,295.86,229Z"/><path id="_Path_149" data-name="&lt;Path&gt;" class="cls-1" d="M311.72,237.22c1.92.47,1.92,2,0,2.44a3.41,3.41,0,0,0-1.62,0c-1.92-.47-1.92-2,0-2.44A3.41,3.41,0,0,0,311.72,237.22Z"/><path id="_Path_150" data-name="&lt;Path&gt;" class="cls-1" d="M320.05,232.42c1.92.47,1.92,2,0,2.44a3.4,3.4,0,0,0-1.62,0c-1.92-.47-1.92-2,0-2.44A3.4,3.4,0,0,0,320.05,232.42Z"/><path id="_Path_151" data-name="&lt;Path&gt;" class="cls-1" d="M328.38,227.61c1.92.47,1.92,2,0,2.44a3.4,3.4,0,0,0-1.62,0c-1.92-.47-1.92-2,0-2.44A3.4,3.4,0,0,0,328.38,227.61Z"/><path id="_Path_152" data-name="&lt;Path&gt;" class="cls-1" d="M303.39,232.42c1.93.47,1.93,2,0,2.44a3.4,3.4,0,0,0-1.62,0c-1.92-.47-1.92-2,0-2.44A3.4,3.4,0,0,0,303.39,232.42Z"/><path id="_Path_153" data-name="&lt;Path&gt;" class="cls-1" d="M311.72,227.61c1.92.47,1.92,2,0,2.44a3.4,3.4,0,0,0-1.62,0c-1.92-.47-1.92-2,0-2.44A3.4,3.4,0,0,0,311.72,227.61Z"/><path id="_Path_154" data-name="&lt;Path&gt;" class="cls-1" d="M320.05,222.8c1.92.47,1.92,2,0,2.44a3.4,3.4,0,0,0-1.62,0c-1.92-.47-1.92-2,0-2.44A3.4,3.4,0,0,0,320.05,222.8Z"/><path id="_Path_155" data-name="&lt;Path&gt;" class="cls-1" d="M328.38,218c1.92.47,1.92,2,0,2.44a3.41,3.41,0,0,0-1.62,0c-1.92-.47-1.92-2,0-2.44A3.4,3.4,0,0,0,328.38,218Z"/><path id="_Path_156" data-name="&lt;Path&gt;" class="cls-1" d="M295.07,227.61c1.92.47,1.92,2,0,2.44a3.4,3.4,0,0,0-1.62,0c-1.92-.47-1.92-2,0-2.44A3.4,3.4,0,0,0,295.07,227.61Z"/><path id="_Path_157" data-name="&lt;Path&gt;" class="cls-1" d="M303.4,222.8c1.92.47,1.92,2,0,2.44a3.4,3.4,0,0,0-1.62,0c-1.92-.47-1.92-2,0-2.44A3.4,3.4,0,0,0,303.4,222.8Z"/><path id="_Path_158" data-name="&lt;Path&gt;" class="cls-1" d="M311.72,218c1.92.47,1.92,2,0,2.44a3.41,3.41,0,0,0-1.62,0c-1.92-.47-1.92-2,0-2.44A3.4,3.4,0,0,0,311.72,218Z"/><path id="_Path_159" data-name="&lt;Path&gt;" class="cls-1" d="M320.05,213.19c1.92.47,1.92,2,0,2.44a3.39,3.39,0,0,0-1.62,0c-1.92-.47-1.92-2,0-2.44A3.39,3.39,0,0,0,320.05,213.19Z"/><path id="_Path_160" data-name="&lt;Path&gt;" class="cls-1" d="M179.28,286.66a1,1,0,0,1,0,1.84,3.52,3.52,0,0,1-3.18,0,1,1,0,0,1,0-1.84A3.52,3.52,0,0,1,179.28,286.66Z"/><path id="_Path_161" data-name="&lt;Path&gt;" class="cls-1" d="M187.61,281.85a1,1,0,0,1,0,1.84,3.52,3.52,0,0,1-3.18,0,1,1,0,0,1,0-1.84A3.52,3.52,0,0,1,187.61,281.85Z"/><path id="_Path_162" data-name="&lt;Path&gt;" class="cls-1" d="M195.93,277a1,1,0,0,1,0,1.84,3.52,3.52,0,0,1-3.18,0,1,1,0,0,1,0-1.84A3.52,3.52,0,0,1,195.93,277Z"/><path id="_Path_163" data-name="&lt;Path&gt;" class="cls-1" d="M204.26,272.24a1,1,0,0,1,0,1.84,3.52,3.52,0,0,1-3.18,0,1,1,0,0,1,0-1.84A3.52,3.52,0,0,1,204.26,272.24Z"/><path id="_Path_164" data-name="&lt;Path&gt;" class="cls-1" d="M212.59,267.43a1,1,0,0,1,0,1.84,3.52,3.52,0,0,1-3.18,0,1,1,0,0,1,0-1.84A3.52,3.52,0,0,1,212.59,267.43Z"/><path id="_Path_165" data-name="&lt;Path&gt;" class="cls-1" d="M220.91,262.62a1,1,0,0,1,0,1.84,3.52,3.52,0,0,1-3.18,0,1,1,0,0,1,0-1.84A3.52,3.52,0,0,1,220.91,262.62Z"/><path id="_Path_166" data-name="&lt;Path&gt;" class="cls-1" d="M229.24,257.81a1,1,0,0,1,0,1.84,3.52,3.52,0,0,1-3.18,0,1,1,0,0,1,0-1.84A3.52,3.52,0,0,1,229.24,257.81Z"/><path id="_Path_167" data-name="&lt;Path&gt;" class="cls-1" d="M237.57,253a1,1,0,0,1,0,1.84,3.52,3.52,0,0,1-3.18,0,1,1,0,0,1,0-1.84A3.52,3.52,0,0,1,237.57,253Z"/><path id="_Path_168" data-name="&lt;Path&gt;" class="cls-1" d="M245.89,248.2a1,1,0,0,1,0,1.84,3.52,3.52,0,0,1-3.18,0,1,1,0,0,1,0-1.84A3.52,3.52,0,0,1,245.89,248.2Z"/><path id="_Path_169" data-name="&lt;Path&gt;" class="cls-1" d="M254.22,243.39a1,1,0,0,1,0,1.84,3.52,3.52,0,0,1-3.18,0,1,1,0,0,1,0-1.84A3.52,3.52,0,0,1,254.22,243.39Z"/><path id="_Path_170" data-name="&lt;Path&gt;" class="cls-1" d="M262.55,238.58a1,1,0,0,1,0,1.84,3.52,3.52,0,0,1-3.18,0,1,1,0,0,1,0-1.84A3.52,3.52,0,0,1,262.55,238.58Z"/><path id="_Path_171" data-name="&lt;Path&gt;" class="cls-1" d="M270.88,233.78a1,1,0,0,1,0,1.84,3.52,3.52,0,0,1-3.18,0,1,1,0,0,1,0-1.84A3.52,3.52,0,0,1,270.88,233.78Z"/><path id="_Path_172" data-name="&lt;Path&gt;" class="cls-1" d="M279.2,229a1,1,0,0,1,0,1.84,3.52,3.52,0,0,1-3.18,0,1,1,0,0,1,0-1.84A3.52,3.52,0,0,1,279.2,229Z"/><path id="_Path_173" data-name="&lt;Path&gt;" class="cls-1" d="M287.53,224.16a1,1,0,0,1,0,1.84,3.52,3.52,0,0,1-3.18,0,1,1,0,0,1,0-1.84A3.52,3.52,0,0,1,287.53,224.16Z"/><path id="_Path_174" data-name="&lt;Path&gt;" class="cls-1" d="M295.86,219.35a1,1,0,0,1,0,1.84,3.52,3.52,0,0,1-3.18,0,1,1,0,0,1,0-1.84A3.52,3.52,0,0,1,295.86,219.35Z"/><path id="_Path_175" data-name="&lt;Path&gt;" class="cls-1" d="M304.18,214.55a1,1,0,0,1,0,1.84,3.52,3.52,0,0,1-3.18,0,1,1,0,0,1,0-1.84A3.52,3.52,0,0,1,304.18,214.55Z"/><path id="_Path_176" data-name="&lt;Path&gt;" class="cls-1" d="M159.36,286.62a3.52,3.52,0,0,1,3.18,0,1,1,0,0,1,0,1.84,3.52,3.52,0,0,1-3.18,0A1,1,0,0,1,159.36,286.62Z"/><path id="_Path_177" data-name="&lt;Path&gt;" class="cls-1" d="M170.88,281.8a1,1,0,0,1,0,1.84,3.52,3.52,0,0,1-3.18,0,1,1,0,0,1,0-1.84A3.52,3.52,0,0,1,170.88,281.8Z"/><path id="_Path_178" data-name="&lt;Path&gt;" class="cls-1" d="M179.21,277a1,1,0,0,1,0,1.84,3.52,3.52,0,0,1-3.18,0,1,1,0,0,1,0-1.84A3.52,3.52,0,0,1,179.21,277Z"/><path id="_Path_179" data-name="&lt;Path&gt;" class="cls-1" d="M187.53,272.19a1,1,0,0,1,0,1.84,3.52,3.52,0,0,1-3.18,0,1,1,0,0,1,0-1.84A3.52,3.52,0,0,1,187.53,272.19Z"/><path id="_Path_180" data-name="&lt;Path&gt;" class="cls-1" d="M195.86,267.38a1,1,0,0,1,0,1.84,3.52,3.52,0,0,1-3.18,0,1,1,0,0,1,0-1.84A3.52,3.52,0,0,1,195.86,267.38Z"/><path id="_Path_181" data-name="&lt;Path&gt;" class="cls-1" d="M204.19,262.57a1,1,0,0,1,0,1.84,3.52,3.52,0,0,1-3.18,0,1,1,0,0,1,0-1.84A3.52,3.52,0,0,1,204.19,262.57Z"/><path id="_Path_182" data-name="&lt;Path&gt;" class="cls-1" d="M212.51,257.76a1,1,0,0,1,0,1.84,3.52,3.52,0,0,1-3.18,0,1,1,0,0,1,0-1.84A3.52,3.52,0,0,1,212.51,257.76Z"/><path id="_Path_183" data-name="&lt;Path&gt;" class="cls-1" d="M220.84,253a1,1,0,0,1,0,1.84,3.52,3.52,0,0,1-3.18,0,1,1,0,0,1,0-1.84A3.52,3.52,0,0,1,220.84,253Z"/><path id="_Path_184" data-name="&lt;Path&gt;" class="cls-1" d="M229.17,248.15a1,1,0,0,1,0,1.84,3.52,3.52,0,0,1-3.18,0,1,1,0,0,1,0-1.84A3.52,3.52,0,0,1,229.17,248.15Z"/><path id="_Path_185" data-name="&lt;Path&gt;" class="cls-1" d="M237.5,243.34a1,1,0,0,1,0,1.84,3.52,3.52,0,0,1-3.18,0,1,1,0,0,1,0-1.84A3.52,3.52,0,0,1,237.5,243.34Z"/><path id="_Path_186" data-name="&lt;Path&gt;" class="cls-1" d="M245.82,238.53a1,1,0,0,1,0,1.84,3.52,3.52,0,0,1-3.18,0,1,1,0,0,1,0-1.84A3.52,3.52,0,0,1,245.82,238.53Z"/><path id="_Path_187" data-name="&lt;Path&gt;" class="cls-1" d="M254.15,233.73a1,1,0,0,1,0,1.84,3.52,3.52,0,0,1-3.18,0,1,1,0,0,1,0-1.84A3.52,3.52,0,0,1,254.15,233.73Z"/><path id="_Path_188" data-name="&lt;Path&gt;" class="cls-1" d="M262.48,228.92a1,1,0,0,1,0,1.84,3.52,3.52,0,0,1-3.18,0,1,1,0,0,1,0-1.84A3.52,3.52,0,0,1,262.48,228.92Z"/><path id="_Path_189" data-name="&lt;Path&gt;" class="cls-1" d="M270.8,224.11a1,1,0,0,1,0,1.84,3.52,3.52,0,0,1-3.18,0,1,1,0,0,1,0-1.84A3.52,3.52,0,0,1,270.8,224.11Z"/><path id="_Path_190" data-name="&lt;Path&gt;" class="cls-1" d="M279.13,219.3a1,1,0,0,1,0,1.84,3.52,3.52,0,0,1-3.18,0,1,1,0,0,1,0-1.84A3.52,3.52,0,0,1,279.13,219.3Z"/><path id="_Path_191" data-name="&lt;Path&gt;" class="cls-1" d="M287.46,214.5a1,1,0,0,1,0,1.84,3.52,3.52,0,0,1-3.18,0,1,1,0,0,1,0-1.84A3.52,3.52,0,0,1,287.46,214.5Z"/><path id="_Path_192" data-name="&lt;Path&gt;" class="cls-1" d="M295.78,209.69a1,1,0,0,1,0,1.84,3.52,3.52,0,0,1-3.18,0,1,1,0,0,1,0-1.84A3.52,3.52,0,0,1,295.78,209.69Z"/><path id="_Path_193" data-name="&lt;Path&gt;" class="cls-1" d="M151,281.81a3.52,3.52,0,0,1,3.18,0,1,1,0,0,1,0,1.84,3.52,3.52,0,0,1-3.18,0A1,1,0,0,1,151,281.81Z"/><path id="_Path_194" data-name="&lt;Path&gt;" class="cls-1" d="M162.55,277a1,1,0,0,1,0,1.84,3.52,3.52,0,0,1-3.18,0,1,1,0,0,1,0-1.84A3.52,3.52,0,0,1,162.55,277Z"/><path id="_Path_195" data-name="&lt;Path&gt;" class="cls-1" d="M170.88,272.19a1,1,0,0,1,0,1.84,3.52,3.52,0,0,1-3.18,0,1,1,0,0,1,0-1.84A3.52,3.52,0,0,1,170.88,272.19Z"/><path id="_Path_196" data-name="&lt;Path&gt;" class="cls-1" d="M179.21,267.38a1,1,0,0,1,0,1.84,3.52,3.52,0,0,1-3.18,0,1,1,0,0,1,0-1.84A3.52,3.52,0,0,1,179.21,267.38Z"/><path id="_Path_197" data-name="&lt;Path&gt;" class="cls-1" d="M195.86,257.76a1,1,0,0,1,0,1.84,3.52,3.52,0,0,1-3.18,0C191.8,259.09,195,257.26,195.86,257.76Z"/><path id="_Path_198" data-name="&lt;Path&gt;" class="cls-1" d="M204.19,253a1,1,0,0,1,0,1.84,3.52,3.52,0,0,1-3.18,0C200.12,254.29,203.31,252.45,204.19,253Z"/><path id="_Path_199" data-name="&lt;Path&gt;" class="cls-1" d="M209.33,248.15a3.52,3.52,0,0,1,3.18,0,1,1,0,0,1,0,1.84,3.52,3.52,0,0,1-3.18,0,1,1,0,0,1,0-1.84Z"/><path id="_Path_200" data-name="&lt;Path&gt;" class="cls-1" d="M220.84,243.34a1,1,0,0,1,0,1.84,3.52,3.52,0,0,1-3.18,0,1,1,0,0,1,0-1.84A3.52,3.52,0,0,1,220.84,243.34Z"/><path id="_Path_201" data-name="&lt;Path&gt;" class="cls-1" d="M229.17,238.53a1,1,0,0,1,0,1.84,3.52,3.52,0,0,1-3.18,0,1,1,0,0,1,0-1.84A3.52,3.52,0,0,1,229.17,238.53Z"/><path id="_Path_202" data-name="&lt;Path&gt;" class="cls-1" d="M237.5,233.73a1,1,0,0,1,0,1.84,3.52,3.52,0,0,1-3.18,0,1,1,0,0,1,0-1.84A3.52,3.52,0,0,1,237.5,233.73Z"/><path id="_Path_203" data-name="&lt;Path&gt;" class="cls-1" d="M245.82,228.92a1,1,0,0,1,0,1.84,3.52,3.52,0,0,1-3.18,0,1,1,0,0,1,0-1.84A3.52,3.52,0,0,1,245.82,228.92Z"/><path id="_Path_204" data-name="&lt;Path&gt;" class="cls-1" d="M254.15,224.11a1,1,0,0,1,0,1.84,3.52,3.52,0,0,1-3.18,0,1,1,0,0,1,0-1.84A3.52,3.52,0,0,1,254.15,224.11Z"/><path id="_Path_205" data-name="&lt;Path&gt;" class="cls-1" d="M262.48,219.3a1,1,0,0,1,0,1.84,3.52,3.52,0,0,1-3.18,0,1,1,0,0,1,0-1.84A3.52,3.52,0,0,1,262.48,219.3Z"/><path id="_Path_206" data-name="&lt;Path&gt;" class="cls-1" d="M270.8,214.5a1,1,0,0,1,0,1.84,3.52,3.52,0,0,1-3.18,0,1,1,0,0,1,0-1.84A3.52,3.52,0,0,1,270.8,214.5Z"/><path id="_Path_207" data-name="&lt;Path&gt;" class="cls-1" d="M279.13,209.69a1,1,0,0,1,0,1.84,3.52,3.52,0,0,1-3.18,0,1,1,0,0,1,0-1.84A3.52,3.52,0,0,1,279.13,209.69Z"/><path id="_Path_208" data-name="&lt;Path&gt;" class="cls-1" d="M287.46,204.88a1,1,0,0,1,0,1.84,3.52,3.52,0,0,1-3.18,0,1,1,0,0,1,0-1.84A3.52,3.52,0,0,1,287.46,204.88Z"/><path id="_Path_209" data-name="&lt;Path&gt;" class="cls-1" d="M142.7,277a3.52,3.52,0,0,1,3.18,0,1,1,0,0,1,0,1.84,3.52,3.52,0,0,1-3.18,0A1,1,0,0,1,142.7,277Z"/><path id="_Path_210" data-name="&lt;Path&gt;" class="cls-1" d="M154.23,272.19a1,1,0,0,1,0,1.84,3.52,3.52,0,0,1-3.18,0,1,1,0,0,1,0-1.84A3.52,3.52,0,0,1,154.23,272.19Z"/><path id="_Path_211" data-name="&lt;Path&gt;" class="cls-1" d="M162.55,267.38a1,1,0,0,1,0,1.84,3.52,3.52,0,0,1-3.18,0,1,1,0,0,1,0-1.84A3.52,3.52,0,0,1,162.55,267.38Z"/><path id="_Path_212" data-name="&lt;Path&gt;" class="cls-1" d="M134.38,272.19a3.52,3.52,0,0,1,3.18,0,1,1,0,0,1,0,1.84,3.52,3.52,0,0,1-3.18,0A1,1,0,0,1,134.38,272.19Z"/><path id="_Path_213" data-name="&lt;Path&gt;" class="cls-1" d="M145.9,267.38a1,1,0,0,1,0,1.84,3.52,3.52,0,0,1-3.18,0,1,1,0,0,1,0-1.84A3.52,3.52,0,0,1,145.9,267.38Z"/><path id="_Path_214" data-name="&lt;Path&gt;" class="cls-1" d="M154.23,262.57a1,1,0,0,1,0,1.84,3.52,3.52,0,0,1-3.18,0,1,1,0,0,1,0-1.84A3.52,3.52,0,0,1,154.23,262.57Z"/><path id="_Path_215" data-name="&lt;Path&gt;" class="cls-1" d="M334.36,224.21a3.52,3.52,0,0,1,3.18,0,1,1,0,0,1,0,1.84,3.52,3.52,0,0,1-3.18,0A1,1,0,0,1,334.36,224.21Z"/><path id="_Path_216" data-name="&lt;Path&gt;" class="cls-1" d="M345.89,219.39a1,1,0,0,1,0,1.84,3.52,3.52,0,0,1-3.18,0,1,1,0,0,1,0-1.84A3.52,3.52,0,0,1,345.89,219.39Z"/><path id="_Path_217" data-name="&lt;Path&gt;" class="cls-1" d="M354.21,214.59a1,1,0,0,1,0,1.84,3.52,3.52,0,0,1-3.18,0,1,1,0,0,1,0-1.84A3.52,3.52,0,0,1,354.21,214.59Z"/><path id="_Path_218" data-name="&lt;Path&gt;" class="cls-1" d="M362.54,209.78a1,1,0,0,1,0,1.84,3.52,3.52,0,0,1-3.18,0,1,1,0,0,1,0-1.84A3.52,3.52,0,0,1,362.54,209.78Z"/><path id="_Path_219" data-name="&lt;Path&gt;" class="cls-1" d="M370.87,205a1,1,0,0,1,0,1.84,3.52,3.52,0,0,1-3.18,0,1,1,0,0,1,0-1.84A3.52,3.52,0,0,1,370.87,205Z"/><path id="_Path_220" data-name="&lt;Path&gt;" class="cls-1" d="M379.19,200.16a1,1,0,0,1,0,1.84,3.52,3.52,0,0,1-3.18,0,1,1,0,0,1,0-1.84A3.52,3.52,0,0,1,379.19,200.16Z"/><path id="_Path_221" data-name="&lt;Path&gt;" class="cls-1" d="M387.52,195.36a1,1,0,0,1,0,1.84,3.52,3.52,0,0,1-3.18,0,1,1,0,0,1,0-1.84A3.52,3.52,0,0,1,387.52,195.36Z"/><path id="_Path_222" data-name="&lt;Path&gt;" class="cls-1" d="M395.85,190.55a1,1,0,0,1,0,1.84,3.52,3.52,0,0,1-3.18,0,1,1,0,0,1,0-1.84A3.52,3.52,0,0,1,395.85,190.55Z"/><path id="_Path_223" data-name="&lt;Path&gt;" class="cls-1" d="M404.17,185.74a1,1,0,0,1,0,1.84,3.52,3.52,0,0,1-3.18,0,1,1,0,0,1,0-1.84A3.52,3.52,0,0,1,404.17,185.74Z"/><path id="_Path_224" data-name="&lt;Path&gt;" class="cls-1" d="M412.5,180.93a1,1,0,0,1,0,1.84,3.52,3.52,0,0,1-3.18,0,1,1,0,0,1,0-1.84A3.52,3.52,0,0,1,412.5,180.93Z"/><path id="_Path_225" data-name="&lt;Path&gt;" class="cls-1" d="M420.83,176.13a1,1,0,0,1,0,1.84,3.52,3.52,0,0,1-3.18,0,1,1,0,0,1,0-1.84A3.52,3.52,0,0,1,420.83,176.13Z"/><path id="_Path_226" data-name="&lt;Path&gt;" class="cls-1" d="M429.16,171.32a1,1,0,0,1,0,1.84,3.52,3.52,0,0,1-3.18,0,1,1,0,0,1,0-1.84A3.52,3.52,0,0,1,429.16,171.32Z"/><path id="_Path_227" data-name="&lt;Path&gt;" class="cls-1" d="M437.48,166.51a1,1,0,0,1,0,1.84,3.52,3.52,0,0,1-3.18,0,1,1,0,0,1,0-1.84A3.52,3.52,0,0,1,437.48,166.51Z"/><path id="_Path_228" data-name="&lt;Path&gt;" class="cls-1" d="M445.81,161.7a1,1,0,0,1,0,1.84,3.52,3.52,0,0,1-3.18,0,1,1,0,0,1,0-1.84A3.52,3.52,0,0,1,445.81,161.7Z"/><path id="_Path_229" data-name="&lt;Path&gt;" class="cls-1" d="M454.14,156.9a1,1,0,0,1,0,1.84,3.52,3.52,0,0,1-3.18,0,1,1,0,0,1,0-1.84A3.52,3.52,0,0,1,454.14,156.9Z"/><path id="_Path_230" data-name="&lt;Path&gt;" class="cls-1" d="M462.46,152.09a1,1,0,0,1,0,1.84,3.52,3.52,0,0,1-3.18,0,1,1,0,0,1,0-1.84A3.52,3.52,0,0,1,462.46,152.09Z"/><path id="_Path_231" data-name="&lt;Path&gt;" class="cls-1" d="M326,219.4a3.52,3.52,0,0,1,3.18,0,1,1,0,0,1,0,1.84,3.52,3.52,0,0,1-3.18,0A1,1,0,0,1,326,219.4Z"/><path id="_Path_232" data-name="&lt;Path&gt;" class="cls-1" d="M337.56,214.59a1,1,0,0,1,0,1.84,3.52,3.52,0,0,1-3.18,0,1,1,0,0,1,0-1.84A3.52,3.52,0,0,1,337.56,214.59Z"/><path id="_Path_233" data-name="&lt;Path&gt;" class="cls-1" d="M345.89,209.78a1,1,0,0,1,0,1.84,3.52,3.52,0,0,1-3.18,0,1,1,0,0,1,0-1.84A3.52,3.52,0,0,1,345.89,209.78Z"/><path id="_Path_234" data-name="&lt;Path&gt;" class="cls-1" d="M354.21,205a1,1,0,0,1,0,1.84,3.52,3.52,0,0,1-3.18,0,1,1,0,0,1,0-1.84A3.52,3.52,0,0,1,354.21,205Z"/><path id="_Path_235" data-name="&lt;Path&gt;" class="cls-1" d="M362.54,200.16a1,1,0,0,1,0,1.84,3.52,3.52,0,0,1-3.18,0,1,1,0,0,1,0-1.84A3.52,3.52,0,0,1,362.54,200.16Z"/><path id="_Path_236" data-name="&lt;Path&gt;" class="cls-1" d="M370.87,195.36a1,1,0,0,1,0,1.84,3.52,3.52,0,0,1-3.18,0,1,1,0,0,1,0-1.84A3.52,3.52,0,0,1,370.87,195.36Z"/><path id="_Path_237" data-name="&lt;Path&gt;" class="cls-1" d="M379.19,190.55a1,1,0,0,1,0,1.84,3.52,3.52,0,0,1-3.18,0,1,1,0,0,1,0-1.84A3.52,3.52,0,0,1,379.19,190.55Z"/><path id="_Path_238" data-name="&lt;Path&gt;" class="cls-1" d="M387.52,185.74a1,1,0,0,1,0,1.84,3.52,3.52,0,0,1-3.18,0,1,1,0,0,1,0-1.84A3.52,3.52,0,0,1,387.52,185.74Z"/><path id="_Path_239" data-name="&lt;Path&gt;" class="cls-1" d="M395.85,180.93a1,1,0,0,1,0,1.84,3.52,3.52,0,0,1-3.18,0,1,1,0,0,1,0-1.84A3.52,3.52,0,0,1,395.85,180.93Z"/><path id="_Path_240" data-name="&lt;Path&gt;" class="cls-1" d="M404.17,176.13a1,1,0,0,1,0,1.84,3.52,3.52,0,0,1-3.18,0,1,1,0,0,1,0-1.84A3.52,3.52,0,0,1,404.17,176.13Z"/><path id="_Path_241" data-name="&lt;Path&gt;" class="cls-1" d="M412.5,171.32a1,1,0,0,1,0,1.84,3.52,3.52,0,0,1-3.18,0,1,1,0,0,1,0-1.84A3.52,3.52,0,0,1,412.5,171.32Z"/><path id="_Path_242" data-name="&lt;Path&gt;" class="cls-1" d="M420.83,166.51a1,1,0,0,1,0,1.84,3.52,3.52,0,0,1-3.18,0,1,1,0,0,1,0-1.84A3.52,3.52,0,0,1,420.83,166.51Z"/><path id="_Path_243" data-name="&lt;Path&gt;" class="cls-1" d="M429.16,161.7a1,1,0,0,1,0,1.84,3.52,3.52,0,0,1-3.18,0,1,1,0,0,1,0-1.84A3.52,3.52,0,0,1,429.16,161.7Z"/><path id="_Path_244" data-name="&lt;Path&gt;" class="cls-1" d="M437.48,156.9a1,1,0,0,1,0,1.84,3.52,3.52,0,0,1-3.18,0,1,1,0,0,1,0-1.84A3.52,3.52,0,0,1,437.48,156.9Z"/><path id="_Path_245" data-name="&lt;Path&gt;" class="cls-1" d="M445.81,152.09a1,1,0,0,1,0,1.84,3.52,3.52,0,0,1-3.18,0,1,1,0,0,1,0-1.84A3.52,3.52,0,0,1,445.81,152.09Z"/><path id="_Path_246" data-name="&lt;Path&gt;" class="cls-1" d="M454.14,147.28a1,1,0,0,1,0,1.84,3.52,3.52,0,0,1-3.18,0,1,1,0,0,1,0-1.84A3.52,3.52,0,0,1,454.14,147.28Z"/><path id="_Path_247" data-name="&lt;Path&gt;" class="cls-1" d="M317.71,214.59a3.52,3.52,0,0,1,3.18,0,1,1,0,0,1,0,1.84,3.52,3.52,0,0,1-3.18,0A1,1,0,0,1,317.71,214.59Z"/><path id="_Path_248" data-name="&lt;Path&gt;" class="cls-1" d="M329.23,209.78a1,1,0,0,1,0,1.84,3.52,3.52,0,0,1-3.18,0,1,1,0,0,1,0-1.84A3.52,3.52,0,0,1,329.23,209.78Z"/><path id="_Path_249" data-name="&lt;Path&gt;" class="cls-1" d="M337.56,205a1,1,0,0,1,0,1.84,3.52,3.52,0,0,1-3.18,0,1,1,0,0,1,0-1.84A3.52,3.52,0,0,1,337.56,205Z"/><path id="_Path_250" data-name="&lt;Path&gt;" class="cls-1" d="M345.89,200.16a1,1,0,0,1,0,1.84,3.52,3.52,0,0,1-3.18,0,1,1,0,0,1,0-1.84A3.52,3.52,0,0,1,345.89,200.16Z"/><path id="_Path_251" data-name="&lt;Path&gt;" class="cls-1" d="M354.21,195.36a1,1,0,0,1,0,1.84,3.52,3.52,0,0,1-3.18,0,1,1,0,0,1,0-1.84A3.52,3.52,0,0,1,354.21,195.36Z"/><path id="_Path_252" data-name="&lt;Path&gt;" class="cls-1" d="M362.54,190.55a1,1,0,0,1,0,1.84,3.52,3.52,0,0,1-3.18,0,1,1,0,0,1,0-1.84A3.52,3.52,0,0,1,362.54,190.55Z"/><path id="_Path_253" data-name="&lt;Path&gt;" class="cls-1" d="M370.87,185.74a1,1,0,0,1,0,1.84,3.52,3.52,0,0,1-3.18,0,1,1,0,0,1,0-1.84A3.52,3.52,0,0,1,370.87,185.74Z"/><path id="_Path_254" data-name="&lt;Path&gt;" class="cls-1" d="M379.19,180.93a1,1,0,0,1,0,1.84,3.52,3.52,0,0,1-3.18,0,1,1,0,0,1,0-1.84A3.52,3.52,0,0,1,379.19,180.93Z"/><path id="_Path_255" data-name="&lt;Path&gt;" class="cls-1" d="M387.52,176.13a1,1,0,0,1,0,1.84,3.52,3.52,0,0,1-3.18,0,1,1,0,0,1,0-1.84A3.52,3.52,0,0,1,387.52,176.13Z"/><path id="_Path_256" data-name="&lt;Path&gt;" class="cls-1" d="M395.85,171.32a1,1,0,0,1,0,1.84,3.52,3.52,0,0,1-3.18,0,1,1,0,0,1,0-1.84A3.52,3.52,0,0,1,395.85,171.32Z"/><path id="_Path_257" data-name="&lt;Path&gt;" class="cls-1" d="M404.17,166.51a1,1,0,0,1,0,1.84,3.52,3.52,0,0,1-3.18,0,1,1,0,0,1,0-1.84A3.52,3.52,0,0,1,404.17,166.51Z"/><path id="_Path_258" data-name="&lt;Path&gt;" class="cls-1" d="M412.5,161.7a1,1,0,0,1,0,1.84,3.52,3.52,0,0,1-3.18,0,1,1,0,0,1,0-1.84A3.52,3.52,0,0,1,412.5,161.7Z"/><path id="_Path_259" data-name="&lt;Path&gt;" class="cls-1" d="M420.83,156.9a1,1,0,0,1,0,1.84,3.52,3.52,0,0,1-3.18,0,1,1,0,0,1,0-1.84A3.52,3.52,0,0,1,420.83,156.9Z"/><path id="_Path_260" data-name="&lt;Path&gt;" class="cls-1" d="M429.16,152.09a1,1,0,0,1,0,1.84,3.52,3.52,0,0,1-3.18,0,1,1,0,0,1,0-1.84A3.52,3.52,0,0,1,429.16,152.09Z"/><path id="_Path_261" data-name="&lt;Path&gt;" class="cls-1" d="M437.48,147.28a1,1,0,0,1,0,1.84,3.52,3.52,0,0,1-3.18,0,1,1,0,0,1,0-1.84A3.52,3.52,0,0,1,437.48,147.28Z"/><path id="_Path_262" data-name="&lt;Path&gt;" class="cls-1" d="M445.81,142.47a1,1,0,0,1,0,1.84,3.52,3.52,0,0,1-3.18,0,1,1,0,0,1,0-1.84A3.52,3.52,0,0,1,445.81,142.47Z"/><path id="_Path_263" data-name="&lt;Path&gt;" class="cls-1" d="M309.38,209.79a3.52,3.52,0,0,1,3.18,0,1,1,0,0,1,0,1.84,3.52,3.52,0,0,1-3.18,0A1,1,0,0,1,309.38,209.79Z"/><path id="_Path_264" data-name="&lt;Path&gt;" class="cls-1" d="M320.9,205a1,1,0,0,1,0,1.84,3.52,3.52,0,0,1-3.18,0,1,1,0,0,1,0-1.84A3.52,3.52,0,0,1,320.9,205Z"/><path id="_Path_265" data-name="&lt;Path&gt;" class="cls-1" d="M329.23,200.16a1,1,0,0,1,0,1.84,3.52,3.52,0,0,1-3.18,0,1,1,0,0,1,0-1.84A3.52,3.52,0,0,1,329.23,200.16Z"/><path id="_Path_266" data-name="&lt;Path&gt;" class="cls-1" d="M337.56,195.36a1,1,0,0,1,0,1.84,3.52,3.52,0,0,1-3.18,0,1,1,0,0,1,0-1.84A3.52,3.52,0,0,1,337.56,195.36Z"/><path id="_Path_267" data-name="&lt;Path&gt;" class="cls-1" d="M345.89,190.55a1,1,0,0,1,0,1.84,3.52,3.52,0,0,1-3.18,0,1,1,0,0,1,0-1.84A3.52,3.52,0,0,1,345.89,190.55Z"/><path id="_Path_268" data-name="&lt;Path&gt;" class="cls-1" d="M354.21,185.74a1,1,0,0,1,0,1.84,3.52,3.52,0,0,1-3.18,0,1,1,0,0,1,0-1.84A3.52,3.52,0,0,1,354.21,185.74Z"/><path id="_Path_269" data-name="&lt;Path&gt;" class="cls-1" d="M362.54,180.93a1,1,0,0,1,0,1.84,3.52,3.52,0,0,1-3.18,0,1,1,0,0,1,0-1.84A3.52,3.52,0,0,1,362.54,180.93Z"/><path id="_Path_270" data-name="&lt;Path&gt;" class="cls-1" d="M370.87,176.13a1,1,0,0,1,0,1.84,3.52,3.52,0,0,1-3.18,0,1,1,0,0,1,0-1.84A3.52,3.52,0,0,1,370.87,176.13Z"/><path id="_Path_271" data-name="&lt;Path&gt;" class="cls-1" d="M379.19,171.32a1,1,0,0,1,0,1.84,3.52,3.52,0,0,1-3.18,0,1,1,0,0,1,0-1.84A3.52,3.52,0,0,1,379.19,171.32Z"/><path id="_Path_272" data-name="&lt;Path&gt;" class="cls-1" d="M387.52,166.51a1,1,0,0,1,0,1.84,3.52,3.52,0,0,1-3.18,0,1,1,0,0,1,0-1.84A3.52,3.52,0,0,1,387.52,166.51Z"/><path id="_Path_273" data-name="&lt;Path&gt;" class="cls-1" d="M395.85,161.7a1,1,0,0,1,0,1.84,3.52,3.52,0,0,1-3.18,0,1,1,0,0,1,0-1.84A3.52,3.52,0,0,1,395.85,161.7Z"/><path id="_Path_274" data-name="&lt;Path&gt;" class="cls-1" d="M404.17,156.9a1,1,0,0,1,0,1.84,3.52,3.52,0,0,1-3.18,0,1,1,0,0,1,0-1.84A3.52,3.52,0,0,1,404.17,156.9Z"/><path id="_Path_275" data-name="&lt;Path&gt;" class="cls-1" d="M412.5,152.09a1,1,0,0,1,0,1.84,3.52,3.52,0,0,1-3.18,0,1,1,0,0,1,0-1.84A3.52,3.52,0,0,1,412.5,152.09Z"/><path id="_Path_276" data-name="&lt;Path&gt;" class="cls-1" d="M420.83,147.28a1,1,0,0,1,0,1.84,3.52,3.52,0,0,1-3.18,0,1,1,0,0,1,0-1.84A3.52,3.52,0,0,1,420.83,147.28Z"/><path id="_Path_277" data-name="&lt;Path&gt;" class="cls-1" d="M429.16,142.47a1,1,0,0,1,0,1.84,3.52,3.52,0,0,1-3.18,0,1,1,0,0,1,0-1.84A3.52,3.52,0,0,1,429.16,142.47Z"/><path id="_Path_278" data-name="&lt;Path&gt;" class="cls-1" d="M437.48,137.67a1,1,0,0,1,0,1.84,3.52,3.52,0,0,1-3.18,0,1,1,0,0,1,0-1.84A3.52,3.52,0,0,1,437.48,137.67Z"/><path id="_Path_279" data-name="&lt;Path&gt;" class="cls-1" d="M301,204.93a3.52,3.52,0,0,1,3.18,0,1,1,0,0,1,0,1.84,3.52,3.52,0,0,1-3.18,0A1,1,0,0,1,301,204.93Z"/><path id="_Path_280" data-name="&lt;Path&gt;" class="cls-1" d="M312.51,200.11a1,1,0,0,1,0,1.84,3.52,3.52,0,0,1-3.18,0,1,1,0,0,1,0-1.84A3.52,3.52,0,0,1,312.51,200.11Z"/><path id="_Path_281" data-name="&lt;Path&gt;" class="cls-1" d="M320.83,195.31a1,1,0,0,1,0,1.84,3.52,3.52,0,0,1-3.18,0,1,1,0,0,1,0-1.84A3.52,3.52,0,0,1,320.83,195.31Z"/><path id="_Path_282" data-name="&lt;Path&gt;" class="cls-1" d="M329.16,190.5a1,1,0,0,1,0,1.84,3.52,3.52,0,0,1-3.18,0,1,1,0,0,1,0-1.84A3.52,3.52,0,0,1,329.16,190.5Z"/><path id="_Path_283" data-name="&lt;Path&gt;" class="cls-1" d="M337.49,185.69a1,1,0,0,1,0,1.84,3.52,3.52,0,0,1-3.18,0,1,1,0,0,1,0-1.84A3.52,3.52,0,0,1,337.49,185.69Z"/><path id="_Path_284" data-name="&lt;Path&gt;" class="cls-1" d="M345.81,180.88a1,1,0,0,1,0,1.84,3.52,3.52,0,0,1-3.18,0,1,1,0,0,1,0-1.84A3.52,3.52,0,0,1,345.81,180.88Z"/><path id="_Path_285" data-name="&lt;Path&gt;" class="cls-1" d="M354.14,176.08a1,1,0,0,1,0,1.84,3.52,3.52,0,0,1-3.18,0,1,1,0,0,1,0-1.84A3.52,3.52,0,0,1,354.14,176.08Z"/><path id="_Path_286" data-name="&lt;Path&gt;" class="cls-1" d="M362.47,171.27a1,1,0,0,1,0,1.84,3.52,3.52,0,0,1-3.18,0,1,1,0,0,1,0-1.84A3.52,3.52,0,0,1,362.47,171.27Z"/><path id="_Path_287" data-name="&lt;Path&gt;" class="cls-1" d="M370.79,166.46a1,1,0,0,1,0,1.84,3.52,3.52,0,0,1-3.18,0,1,1,0,0,1,0-1.84A3.52,3.52,0,0,1,370.79,166.46Z"/><path id="_Path_288" data-name="&lt;Path&gt;" class="cls-1" d="M379.12,161.65a1,1,0,0,1,0,1.84,3.52,3.52,0,0,1-3.18,0,1,1,0,0,1,0-1.84A3.52,3.52,0,0,1,379.12,161.65Z"/><path id="_Path_289" data-name="&lt;Path&gt;" class="cls-1" d="M384.26,156.85a3.52,3.52,0,0,1,3.18,0,1,1,0,0,1,0,1.84,3.52,3.52,0,0,1-3.18,0,1,1,0,0,1,0-1.84Z"/><path id="_Path_290" data-name="&lt;Path&gt;" class="cls-1" d="M392.59,152a3.52,3.52,0,0,1,3.18,0,1,1,0,0,1,0,1.84,3.52,3.52,0,0,1-3.18,0,1,1,0,0,1,0-1.84Z"/><path id="_Path_291" data-name="&lt;Path&gt;" class="cls-1" d="M404.1,147.23a1,1,0,0,1,0,1.84,3.52,3.52,0,0,1-3.18,0C400,148.56,403.22,146.72,404.1,147.23Z"/><path id="_Path_292" data-name="&lt;Path&gt;" class="cls-1" d="M292.66,200.12a3.52,3.52,0,0,1,3.18,0,1,1,0,0,1,0,1.84,3.52,3.52,0,0,1-3.18,0,1,1,0,0,1,0-1.84Z"/><path id="_Path_293" data-name="&lt;Path&gt;" class="cls-1" d="M301,195.31a3.52,3.52,0,0,1,3.18,0,1,1,0,0,1,0,1.84,3.52,3.52,0,0,1-3.18,0,1,1,0,0,1,0-1.84Z"/><path id="_Path_294" data-name="&lt;Path&gt;" class="cls-1" d="M312.51,190.5a1,1,0,0,1,0,1.84,3.52,3.52,0,0,1-3.18,0C308.44,191.83,311.63,190,312.51,190.5Z"/><path id="_Path_295" data-name="&lt;Path&gt;" class="cls-1" d="M320.83,185.69a1,1,0,0,1,0,1.84,3.52,3.52,0,0,1-3.18,0C316.77,187,320,185.18,320.83,185.69Z"/><path id="_Path_296" data-name="&lt;Path&gt;" class="cls-1" d="M470.79,147.25a1,1,0,0,1,0,1.84,3.52,3.52,0,0,1-3.18,0,1,1,0,0,1,0-1.84A3.52,3.52,0,0,1,470.79,147.25Z"/><path id="_Path_297" data-name="&lt;Path&gt;" class="cls-1" d="M479.11,142.45a1,1,0,0,1,0,1.84,3.52,3.52,0,0,1-3.18,0,1,1,0,0,1,0-1.84A3.52,3.52,0,0,1,479.11,142.45Z"/><path id="_Path_298" data-name="&lt;Path&gt;" class="cls-1" d="M487.44,137.64a1,1,0,0,1,0,1.84,3.52,3.52,0,0,1-3.18,0,1,1,0,0,1,0-1.84A3.52,3.52,0,0,1,487.44,137.64Z"/><path id="_Path_299" data-name="&lt;Path&gt;" class="cls-1" d="M495.77,132.83a1,1,0,0,1,0,1.84,3.52,3.52,0,0,1-3.18,0,1,1,0,0,1,0-1.84A3.52,3.52,0,0,1,495.77,132.83Z"/><path id="_Path_300" data-name="&lt;Path&gt;" class="cls-1" d="M504.09,128a1,1,0,0,1,0,1.84,3.52,3.52,0,0,1-3.18,0,1,1,0,0,1,0-1.84A3.52,3.52,0,0,1,504.09,128Z"/><path id="_Path_301" data-name="&lt;Path&gt;" class="cls-1" d="M462.46,142.45a1,1,0,0,1,0,1.84,3.52,3.52,0,0,1-3.18,0,1,1,0,0,1,0-1.84A3.52,3.52,0,0,1,462.46,142.45Z"/><path id="_Path_302" data-name="&lt;Path&gt;" class="cls-1" d="M470.79,137.64a1,1,0,0,1,0,1.84,3.52,3.52,0,0,1-3.18,0,1,1,0,0,1,0-1.84A3.52,3.52,0,0,1,470.79,137.64Z"/><path id="_Path_303" data-name="&lt;Path&gt;" class="cls-1" d="M479.11,132.83a1,1,0,0,1,0,1.84,3.52,3.52,0,0,1-3.18,0,1,1,0,0,1,0-1.84A3.52,3.52,0,0,1,479.11,132.83Z"/><path id="_Path_304" data-name="&lt;Path&gt;" class="cls-1" d="M487.44,128a1,1,0,0,1,0,1.84,3.52,3.52,0,0,1-3.18,0,1,1,0,0,1,0-1.84A3.52,3.52,0,0,1,487.44,128Z"/><path id="_Path_305" data-name="&lt;Path&gt;" class="cls-1" d="M495.77,123.22a1,1,0,0,1,0,1.84,3.52,3.52,0,0,1-3.18,0,1,1,0,0,1,0-1.84A3.52,3.52,0,0,1,495.77,123.22Z"/><path id="_Path_306" data-name="&lt;Path&gt;" class="cls-1" d="M504.09,118.41a1,1,0,0,1,0,1.84,3.52,3.52,0,0,1-3.18,0,1,1,0,0,1,0-1.84A3.52,3.52,0,0,1,504.09,118.41Z"/><path id="_Path_307" data-name="&lt;Path&gt;" class="cls-1" d="M454.13,137.64a1,1,0,0,1,0,1.84,3.52,3.52,0,0,1-3.18,0,1,1,0,0,1,0-1.84A3.52,3.52,0,0,1,454.13,137.64Z"/><path id="_Path_308" data-name="&lt;Path&gt;" class="cls-1" d="M462.46,132.83a1,1,0,0,1,0,1.84,3.52,3.52,0,0,1-3.18,0,1,1,0,0,1,0-1.84A3.52,3.52,0,0,1,462.46,132.83Z"/><path id="_Path_309" data-name="&lt;Path&gt;" class="cls-1" d="M470.79,128a1,1,0,0,1,0,1.84,3.52,3.52,0,0,1-3.18,0,1,1,0,0,1,0-1.84A3.52,3.52,0,0,1,470.79,128Z"/><path id="_Path_310" data-name="&lt;Path&gt;" class="cls-1" d="M479.11,123.22a1,1,0,0,1,0,1.84,3.52,3.52,0,0,1-3.18,0,1,1,0,0,1,0-1.84A3.52,3.52,0,0,1,479.11,123.22Z"/><path id="_Path_311" data-name="&lt;Path&gt;" class="cls-1" d="M487.44,118.41a1,1,0,0,1,0,1.84,3.52,3.52,0,0,1-3.18,0,1,1,0,0,1,0-1.84A3.52,3.52,0,0,1,487.44,118.41Z"/><path id="_Path_312" data-name="&lt;Path&gt;" class="cls-1" d="M495.77,113.6a1,1,0,0,1,0,1.84,3.52,3.52,0,0,1-3.18,0,1,1,0,0,1,0-1.84A3.52,3.52,0,0,1,495.77,113.6Z"/><path id="_Path_313" data-name="&lt;Path&gt;" class="cls-1" d="M445.8,132.83a1,1,0,0,1,0,1.84,3.52,3.52,0,0,1-3.18,0,1,1,0,0,1,0-1.84A3.52,3.52,0,0,1,445.8,132.83Z"/><path id="_Path_314" data-name="&lt;Path&gt;" class="cls-1" d="M454.13,128a1,1,0,0,1,0,1.84,3.52,3.52,0,0,1-3.18,0,1,1,0,0,1,0-1.84A3.52,3.52,0,0,1,454.13,128Z"/><path id="_Path_315" data-name="&lt;Path&gt;" class="cls-1" d="M462.46,123.22a1,1,0,0,1,0,1.84,3.52,3.52,0,0,1-3.18,0C458.39,124.55,461.58,122.71,462.46,123.22Z"/><path id="_Path_316" data-name="&lt;Path&gt;" class="cls-1" d="M470.79,118.41a1,1,0,0,1,0,1.84,3.52,3.52,0,0,1-3.18,0C466.72,119.74,469.91,117.9,470.79,118.41Z"/><path id="_Path_317" data-name="&lt;Path&gt;" class="cls-1" d="M475.93,113.6a3.52,3.52,0,0,1,3.18,0,1,1,0,0,1,0,1.84,3.52,3.52,0,0,1-3.18,0,1,1,0,0,1,0-1.84Z"/><path id="_Path_318" data-name="&lt;Path&gt;" class="cls-1" d="M487.44,108.79a1,1,0,0,1,0,1.84,3.52,3.52,0,0,1-3.18,0,1,1,0,0,1,0-1.84A3.52,3.52,0,0,1,487.44,108.79Z"/></g><g id="_Group_3" data-name="&lt;Group&gt;"><g id="_Group_4" data-name="&lt;Group&gt;"><g id="_Group_5" data-name="&lt;Group&gt;"><path id="_Path_319" data-name="&lt;Path&gt;" class="cls-2" d="M481.92,81.58l-.1-.06c-.14-.11-.27-.23-.42-.34L347.82,3.67a27.9,27.9,0,0,0-26.53.82L20.88,177.55a13.29,13.29,0,0,0-1.45,1.14c-10.25,8-8.83,24.79,2.87,31.58l.21.11.37.25L156.44,288a27.46,27.46,0,0,0,26.09-.83L481.8,114.58a11.41,11.41,0,0,0,1.55-1.1C494.72,105.9,494,88.58,481.92,81.58Z"/><path id="_Compound_Path_" data-name="&lt;Compound Path&gt;" class="cls-1" d="M482.27,81l-.28.48h0l.26-.48-.15-.13c-.09-.08-.18-.15-.34-.26L348.13,3a28.51,28.51,0,0,0-27.19.83L20.5,177A13.65,13.65,0,0,0,19,178.14a19,19,0,0,0-7.1,16.4A20.39,20.39,0,0,0,22,210.88l.31.18.25.16,133.6,77.4a28.06,28.06,0,0,0,26.75-.85L482.15,115.19a11.24,11.24,0,0,0,1.58-1.12,19,19,0,0,0,8.39-16.54A19.72,19.72,0,0,0,482.27,81ZM19.9,179.21a12.42,12.42,0,0,1,1.33-1.05L321.64,5.09a27,27,0,0,1,21.13-2.64c-5.51-.68-11.14-.11-14,2.47L180.34,251.72s4,16.93.83,25.08a15.62,15.62,0,0,1-11.38,9.46,27.43,27.43,0,0,1-13.57-2.86L22.65,206l-.37-.25-.21-.11a19.34,19.34,0,0,1-8.76-11.07c0-.05,0-.1,0-.15A17.63,17.63,0,0,1,19.9,179.21Z"/></g><g id="_Group_6" data-name="&lt;Group&gt;"><path id="_Path_320" data-name="&lt;Path&gt;" class="cls-3" d="M20.68,180,322.23,6.33a27.9,27.9,0,0,1,26.53-.82L482.34,83c6.3,4.39,7.21,13.44-.42,17.88L182.51,273.81c-.41.24-.79,2.41-1.21,2.62a27.46,27.46,0,0,1-24.86.15L22.88,199.2C13.31,193.5,13.86,184.56,20.68,180Z"/></g><g id="_Group_7" data-name="&lt;Group&gt;"><g id="_Group_8" data-name="&lt;Group&gt;"><path id="_Compound_Path_2" data-name="&lt;Compound Path&gt;" class="cls-1" d="M168.94,277.46a27.86,27.86,0,0,1-12.47-3L22.88,197.12c-4.71-2.81-7.37-6.6-7.47-10.68-.09-3.58,1.82-6.94,5.24-9.23h0L321.09,4.12A28.23,28.23,0,0,1,348,3.3l133.6,77.52a13.91,13.91,0,0,1,6,11.67,10.34,10.34,0,0,1-5.36,8.59L183,273.67A27.83,27.83,0,0,1,168.94,277.46ZM21.11,177.91c-3.18,2.13-4.95,5.23-4.86,8.51.1,3.78,2.61,7.33,7.06,10l133.55,77.37a27,27,0,0,0,25.67-.83L481.81,100.35a9.52,9.52,0,0,0,4.95-7.91,13.06,13.06,0,0,0-5.59-10.93L347.62,4a27.39,27.39,0,0,0-26.11.82Z"/></g></g><path id="_Path_321" data-name="&lt;Path&gt;" class="cls-2" d="M462.7,90,333.34,15.55a19.55,19.55,0,0,0-18.59.57L29.55,180.6c-4.78,3.2-5.16,9.46,1.55,13.46l129.34,74.36a19.24,19.24,0,0,0,18.28-.58l284.4-164.14A7.78,7.78,0,0,0,462.7,90Z"/><g id="_Group_9" data-name="&lt;Group&gt;"><path id="_Path_322" data-name="&lt;Path&gt;" class="cls-2" d="M426.88,142.91l-4,2.28c-1.15.66-2.08,0-2.08-1.57h0a5,5,0,0,1,2.08-4l4-2.28c1.15-.66,2.08,0,2.08,1.57h0A5,5,0,0,1,426.88,142.91Z"/><g id="_Group_10" data-name="&lt;Group&gt;"><path id="_Path_323" data-name="&lt;Path&gt;" class="cls-3" d="M422.9,139.67a5,5,0,0,0-2.08,4,2.65,2.65,0,0,0,.2.93,1.58,1.58,0,0,0,.49-.19l4-2.28a5,5,0,0,0,2.08-4,2.75,2.75,0,0,0-.15-.94,1.84,1.84,0,0,0-.54.2Z"/><path id="_Compound_Path_3" data-name="&lt;Compound Path&gt;" class="cls-1" d="M420.82,144.93l-.09-.25a3,3,0,0,1-.21-1,5.25,5.25,0,0,1,2.23-4.24h0l4-2.28a2.13,2.13,0,0,1,.62-.24l.26-.06.09.25a3.06,3.06,0,0,1,.17,1,5.25,5.25,0,0,1-2.23,4.24l-4,2.28a1.85,1.85,0,0,1-.58.23Zm2.24-5a4.65,4.65,0,0,0-1.93,3.71,2,2,0,0,0,.08.55l.14-.08,4-2.28a4.66,4.66,0,0,0,1.93-3.71,2.72,2.72,0,0,0-.05-.56l-.17.09Z"/></g><g id="_Group_11" data-name="&lt;Group&gt;"><path id="_Path_324" data-name="&lt;Path&gt;" class="cls-3" d="M428.66,144.36h0c-1.15.66-2.08,0-2.08-1.57h0a5,5,0,0,1,2.08-4h0c1.15-.66,2.08,0,2.08,1.57h0A5,5,0,0,1,428.66,144.36Z"/></g><g id="_Group_12" data-name="&lt;Group&gt;"><path id="_Compound_Path_4" data-name="&lt;Compound Path&gt;" class="cls-1" d="M427.84,145a1.42,1.42,0,0,1-.72-.19,2.21,2.21,0,0,1-.9-2,5.32,5.32,0,0,1,2.26-4.3,1.69,1.69,0,0,1,1.73-.11,2.2,2.2,0,0,1,.9,2,5.31,5.31,0,0,1-2.27,4.3h0A2,2,0,0,1,427.84,145Zm1.65-6.05a1.33,1.33,0,0,0-.64.2,4.65,4.65,0,0,0-1.9,3.66,1.52,1.52,0,0,0,.54,1.36,1,1,0,0,0,1-.11h0a4.66,4.66,0,0,0,1.9-3.66,1.54,1.54,0,0,0-.54-1.36A.7.7,0,0,0,429.49,138.92Z"/></g><g id="_Group_13" data-name="&lt;Group&gt;"><g id="_Group_14" data-name="&lt;Group&gt;"><path id="_Path_325" data-name="&lt;Path&gt;" class="cls-2" d="M426.63,142.81a5,5,0,0,1,2.08-4,1.35,1.35,0,0,1,1.29-.13h0l-1.44-1.06-.16-.11-.13-.08-.1-.06a1.16,1.16,0,0,0-1.25.15,5,5,0,0,0-2.08,4,2,2,0,0,0,.58,1.58l-.07-.06.08.08.13.09,1.62,1.17A2,2,0,0,1,426.63,142.81Z"/><path id="_Compound_Path_5" data-name="&lt;Compound Path&gt;" class="cls-1" d="M427,144.66l-1.62-1.17-.15-.11,0,0a2.37,2.37,0,0,1-.68-1.83,5.31,5.31,0,0,1,2.27-4.3,1.55,1.55,0,0,1,1.61-.15l.24.15a1.8,1.8,0,0,1,.21.15l1.64,1.21-.25.63-.36-.16a1,1,0,0,0-.95.12,4.65,4.65,0,0,0-1.9,3.66,1.67,1.67,0,0,0,.43,1.28Zm-1.31-1.85.11.08.52.38a3.68,3.68,0,0,1,0-.45,5.32,5.32,0,0,1,2.26-4.3,2.27,2.27,0,0,1,.37-.17l-.55-.41-.13-.09-.24-.15c-.15-.08-.35-.14-.87.16a4.65,4.65,0,0,0-1.9,3.66,1.75,1.75,0,0,0,.39,1.25l.06.06Z"/></g></g></g><g id="_Group_15" data-name="&lt;Group&gt;"><g id="_Group_16" data-name="&lt;Group&gt;"><g id="_Group_17" data-name="&lt;Group&gt;"><path id="_Path_326" data-name="&lt;Path&gt;" class="cls-2" d="M382.43,168.17a5,5,0,0,1,2.08-4l11.91-6.87a1.29,1.29,0,0,1,1.43-.06l-2-1.36-.19-.13a1.29,1.29,0,0,0-1.55,0l-11.91,6.87a5,5,0,0,0-2.08,4,1.78,1.78,0,0,0,.47,1.49l.1.09h0l.06,0,2.24,1.56A2,2,0,0,1,382.43,168.17Z"/><path id="_Compound_Path_6" data-name="&lt;Compound Path&gt;" class="cls-1" d="M382.83,170.08l-2.44-1.72a2.14,2.14,0,0,1-.61-1.78,5.32,5.32,0,0,1,2.26-4.3L394,155.42a1.65,1.65,0,0,1,2,.06l2.14,1.48h0l-.42.61h0a1,1,0,0,0-1,.08l-11.91,6.87a4.66,4.66,0,0,0-1.9,3.66,1.64,1.64,0,0,0,.46,1.31Zm12.1-14.22a1.21,1.21,0,0,0-.61.19l-11.91,6.87a4.66,4.66,0,0,0-1.9,3.66c0,.66.1,1,.34,1.21l.1.09,1.13.79a3.73,3.73,0,0,1,0-.5,5.32,5.32,0,0,1,2.26-4.3L396.24,157a2.4,2.4,0,0,1,.35-.17l-1.1-.76A.89.89,0,0,0,394.93,155.87Z"/></g></g><g id="_Group_18" data-name="&lt;Group&gt;"><g id="_Group_19" data-name="&lt;Group&gt;"><path id="_Path_327" data-name="&lt;Path&gt;" class="cls-3" d="M396.42,162.87l-11.91,6.87c-1.15.66-2.08,0-2.08-1.57h0a5,5,0,0,1,2.08-4l11.91-6.87c1.15-.66,2.08,0,2.08,1.57h0A5,5,0,0,1,396.42,162.87Z"/></g></g><g id="_Group_20" data-name="&lt;Group&gt;"><path id="_Compound_Path_7" data-name="&lt;Compound Path&gt;" class="cls-1" d="M383.69,170.37a1.42,1.42,0,0,1-.72-.19,2.2,2.2,0,0,1-.9-2,5.32,5.32,0,0,1,2.26-4.3L396.24,157a1.69,1.69,0,0,1,1.73-.11,2.21,2.21,0,0,1,.9,2,5.31,5.31,0,0,1-2.26,4.3l-11.91,6.87A2,2,0,0,1,383.69,170.37Zm13.56-12.93a1.33,1.33,0,0,0-.64.2l-11.91,6.87a4.66,4.66,0,0,0-1.9,3.66,1.54,1.54,0,0,0,.54,1.36,1,1,0,0,0,1-.11l11.91-6.87a4.66,4.66,0,0,0,1.9-3.66,1.52,1.52,0,0,0-.54-1.36A.7.7,0,0,0,397.25,157.44Z"/></g></g><g id="_Group_21" data-name="&lt;Group&gt;"><g id="_Group_22" data-name="&lt;Group&gt;"><g id="_Group_23" data-name="&lt;Group&gt;"><path id="_Path_328" data-name="&lt;Path&gt;" class="cls-2" d="M401.77,156.91a5,5,0,0,1,2.08-4l11.91-6.87a1.29,1.29,0,0,1,1.43-.06l-2-1.36-.19-.13a1.29,1.29,0,0,0-1.55,0l-11.91,6.87a5,5,0,0,0-2.08,4,1.77,1.77,0,0,0,.47,1.49l.1.09h0l.06,0,2.24,1.56A2,2,0,0,1,401.77,156.91Z"/><path id="_Compound_Path_8" data-name="&lt;Compound Path&gt;" class="cls-1" d="M402.17,158.82l-2.44-1.72a2.14,2.14,0,0,1-.61-1.78,5.32,5.32,0,0,1,2.26-4.3l11.91-6.87a1.65,1.65,0,0,1,2,.06l2.14,1.48h0l-.42.61h0a1,1,0,0,0-1,.08L404,153.25a4.66,4.66,0,0,0-1.9,3.66,1.64,1.64,0,0,0,.46,1.31Zm12.1-14.22a1.22,1.22,0,0,0-.61.19l-11.91,6.87a4.66,4.66,0,0,0-1.9,3.66c0,.66.1,1,.34,1.21l.1.09,1.13.79a3.78,3.78,0,0,1,0-.5,5.32,5.32,0,0,1,2.26-4.3l11.91-6.87a2.41,2.41,0,0,1,.35-.17l-1.1-.76A.89.89,0,0,0,414.27,144.6Z"/></g></g><g id="_Group_24" data-name="&lt;Group&gt;"><g id="_Group_25" data-name="&lt;Group&gt;"><path id="_Path_329" data-name="&lt;Path&gt;" class="cls-3" d="M415.76,151.61l-11.91,6.87c-1.15.66-2.08,0-2.08-1.57h0a5,5,0,0,1,2.08-4l11.91-6.87c1.15-.66,2.08,0,2.08,1.57h0A5,5,0,0,1,415.76,151.61Z"/></g></g><g id="_Group_26" data-name="&lt;Group&gt;"><path id="_Compound_Path_9" data-name="&lt;Compound Path&gt;" class="cls-1" d="M403,159.1a1.42,1.42,0,0,1-.72-.19,2.2,2.2,0,0,1-.9-2,5.32,5.32,0,0,1,2.26-4.3l11.91-6.87a1.69,1.69,0,0,1,1.73-.11,2.21,2.21,0,0,1,.9,2,5.31,5.31,0,0,1-2.26,4.3L404,158.8A2,2,0,0,1,403,159.1Zm13.56-12.93a1.33,1.33,0,0,0-.64.2L404,153.25a4.66,4.66,0,0,0-1.9,3.66,1.54,1.54,0,0,0,.54,1.37,1,1,0,0,0,1-.11l11.91-6.87a4.66,4.66,0,0,0,1.9-3.66,1.52,1.52,0,0,0-.54-1.36A.7.7,0,0,0,416.58,146.17Z"/></g></g><g id="_Group_27" data-name="&lt;Group&gt;"><g id="_Group_28" data-name="&lt;Group&gt;"><path id="_Path_330" data-name="&lt;Path&gt;" class="cls-2" d="M386.39,40.08l-.16-.09c-.86-.49-.75-1.35.23-1.93h0a3.71,3.71,0,0,1,3.34-.15L390,38c.86.49.75,1.35-.23,1.93h0A3.71,3.71,0,0,1,386.39,40.08Z"/></g><g id="_Group_29" data-name="&lt;Group&gt;"><path id="_Path_331" data-name="&lt;Path&gt;" class="cls-2" d="M420.95,59.87l-29.71-17c-.86-.49-.75-1.35.23-1.93h0a3.71,3.71,0,0,1,3.34-.15l29.71,17c.86.49.75,1.35-.23,1.93h0A3.71,3.71,0,0,1,420.95,59.87Z"/></g><g id="_Group_30" data-name="&lt;Group&gt;"><path id="_Compound_Path_10" data-name="&lt;Compound Path&gt;" class="cls-1" d="M387.83,39.39a3.38,3.38,0,0,1-1.65-.38l-.16-.09a1.4,1.4,0,0,1-.79-1.2,1.78,1.78,0,0,1,1-1.45,4.13,4.13,0,0,1,3.75-.15l.16.1a1.39,1.39,0,0,1,.79,1.2,1.78,1.78,0,0,1-1,1.46A4.27,4.27,0,0,1,387.83,39.39Zm.54-2.83a3.49,3.49,0,0,0-1.7.42c-.38.22-.61.49-.61.73s.23.4.37.48l.16.09a3.29,3.29,0,0,0,2.92-.15c.38-.22.61-.49.61-.73s-.23-.4-.37-.48l-.16-.09A2.53,2.53,0,0,0,388.37,36.56Z"/></g><g id="_Group_31" data-name="&lt;Group&gt;"><path id="_Compound_Path_11" data-name="&lt;Compound Path&gt;" class="cls-1" d="M422.39,59.18a3.38,3.38,0,0,1-1.65-.38L391,41.78a1.39,1.39,0,0,1-.79-1.2,1.77,1.77,0,0,1,1-1.46A4.11,4.11,0,0,1,395,39l29.71,17a1.4,1.4,0,0,1,.79,1.2,1.78,1.78,0,0,1-1,1.46A4.29,4.29,0,0,1,422.39,59.18Zm-29-19.75a3.48,3.48,0,0,0-1.7.42c-.38.22-.61.49-.61.73s.23.4.37.47l29.71,17a3.31,3.31,0,0,0,2.92-.15c.38-.22.61-.49.61-.73s-.23-.39-.37-.47l-29.71-17A2.52,2.52,0,0,0,393.38,39.43Z"/></g></g></g></g></g></g></g></svg>