<svg xmlns="http://www.w3.org/2000/svg" viewBox="0 0 463.93 333.57"><defs><style>.cls-1{fill:#fff;}.cls-2{fill:#ffbe2e;}.cls-3{fill:#16110d;}.cls-4{fill:#fec;}</style></defs><title>Paper Mail</title><g id="Layer_2" data-name="Layer 2"><g id="Contact"><g id="_8" data-name="8"><g id="_Group_" data-name="&lt;Group&gt;"><path id="_Path_" data-name="&lt;Path&gt;" class="cls-1" d="M56.38,252.18H45.52v-4.67c0-10.45,7.09-22.73,16.14-28L69.55,215c5.26-3,10.7-3.38,14.92-.94s6.65,7.32,6.65,13.39c0,2.27.61,3.63,1.21,4s2.09.19,4.05-.94l8.68-5c5.7-3.29,10.7-12,10.7-18.54,0-10.45,7.09-22.72,16.14-28l7.5-4.33c5.26-3,10.7-3.38,14.92-.94S161,181,161,187.11c0,2.27.61,3.64,1.21,4s2.09.2,4.06-.94l6.32-3.65c5.7-3.29,10.7-12,10.7-18.54,0-10.45,7.09-22.73,16.14-28l7.5-4.33c5.26-3,10.7-3.38,14.92-.94s6.65,7.32,6.65,13.39v6H217.61v-6c0-2.27-.61-3.63-1.21-4s-2.09-.19-4.05.94l-7.5,4.33c-5.7,3.29-10.7,12-10.7,18.54,0,10.45-7.09,22.72-16.14,28l-6.32,3.65c-5.26,3-10.7,3.38-14.92.94s-6.65-7.32-6.65-13.39c0-2.27-.61-3.63-1.21-4s-2.09-.19-4.05.94l-7.5,4.34c-5.7,3.29-10.7,12-10.7,18.54,0,10.45-7.09,22.73-16.14,28l-8.68,5c-5.26,3-10.7,3.38-14.92.94s-6.65-7.32-6.65-13.39c0-2.27-.61-3.63-1.21-4s-2.09-.19-4.06.94L67.09,229c-5.7,3.29-10.7,12-10.7,18.54Z"/></g><g id="_Group_2" data-name="&lt;Group&gt;"><g id="_Group_3" data-name="&lt;Group&gt;"><polygon id="_Path_2" data-name="&lt;Path&gt;" class="cls-2" points="215.59 126.64 230.37 221.76 462.73 1.38 215.59 126.64"/><path id="_Compound_Path_" data-name="&lt;Compound Path&gt;" class="cls-3" d="M229.27,224.42,213.94,125.8l1-.49L462.07,0l1.86,2.32L231.33,222.91Zm-12-96.93,14.17,91.23L454.28,7.34Z"/></g><polygon id="_Path_3" data-name="&lt;Path&gt;" class="cls-3" points="260.03 154.09 228.8 221.43 229.27 224.42 298.3 173.8 260.03 154.09"/><polygon id="_Path_4" data-name="&lt;Path&gt;" class="cls-2" points="462.73 1.38 140.13 80.49 215.59 126.64 462.73 1.38"/><polygon id="_Path_5" data-name="&lt;Path&gt;" class="cls-2" points="462.73 1.38 355.81 210.41 262.68 153.95 462.73 1.38"/><path id="_Path_6" data-name="&lt;Path&gt;" class="cls-4" d="M462.71,16.31,358.46,220.12l-93.13-56.45,195.39-149A1.33,1.33,0,0,1,462.71,16.31Z"/><polygon id="_Path_7" data-name="&lt;Path&gt;" class="cls-4" points="213.94 125.8 217.23 127.49 218.16 133.47 435.28 23.42 459.6 2.96 428.55 18.7 137 90.2 212.46 136.36 215.36 134.89 213.94 125.8"/><g id="_Group_4" data-name="&lt;Group&gt;"><path id="_Compound_Path_2" data-name="&lt;Compound Path&gt;" class="cls-3" d="M463.93,2.32,462.07,0h0L214.3,60.76h0L139.77,79l-3.48.85,79.23,48.47,91.34-46.29h0L445.71,11.68,448.92,10,380.64,62.11,261.77,152.77,260,154.09l96.38,58.42,15.81-30.9h0L463.93,2.32ZM215.65,124.94,144,81.08l76.81-18.84L302.31,81Zm90.82-46L227.23,60.67,394.67,19.6,450.45,5.93ZM355.21,208.3l-89.89-54.48,62.39-47.59,42.7,72.35ZM372,175.42l-41.91-71,80.23-61.19L458.41,6.56Z"/></g><g id="_Group_5" data-name="&lt;Group&gt;"><g id="_Group_6" data-name="&lt;Group&gt;"><path id="_Compound_Path_3" data-name="&lt;Compound Path&gt;" class="cls-2" d="M326,142.4l-16.28,19.23,25.51,24.44,16.16-19.5Zm8.69,34.13L317.4,160.15l8.91-10.66,17.27,16.21Z"/><path id="_Compound_Path_4" data-name="&lt;Compound Path&gt;" class="cls-3" d="M334.7,176.52,315,157.74l10.89-12.87,19.59,18.6Zm-17.62-18.9,17.5,16.71,8.9-10.74L326,147Z"/></g><path id="_Compound_Path_5" data-name="&lt;Compound Path&gt;" class="cls-3" d="M335.05,184.18l-27.14-26,17.73-20.94,27,25.71ZM311,158l23.88,22.88,14.72-17.77-23.77-22.63Z"/></g><g id="_Group_7" data-name="&lt;Group&gt;"><path id="_Path_8" data-name="&lt;Path&gt;" class="cls-3" d="M349.73,123.52c0,14.45-12.85,26.21-28.65,26.21-13.5,0-24.82-8.6-27.84-20.11l-1.46,1.12c3.47,11.91,15.27,20.71,29.3,20.71,16.74,0,30.36-12.53,30.36-27.92,0-11.07-7.06-20.63-17.24-25.14l-1.55,1.18C342.69,103.64,349.73,112.84,349.73,123.52Z"/><path id="_Path_9" data-name="&lt;Path&gt;" class="cls-3" d="M343.83,123.52c0,11.27-10,20.43-22.35,20.43-11.65,0-21.23-8.19-22.25-18.6l-1.56,1.19c1.61,10.78,11.66,19.12,23.81,19.12,13.27,0,24.06-9.93,24.06-22.15,0-9.74-6.88-18-16.4-21l-1.71,1.3C336.87,106.24,343.83,114.14,343.83,123.52Z"/></g><g id="_Group_8" data-name="&lt;Group&gt;"><path id="_Path_10" data-name="&lt;Path&gt;" class="cls-3" d="M67.08,255.54H56.21v-4.67c0-10.45,7.09-22.73,16.14-28l7.89-4.56c5.26-3,10.7-3.38,14.92-.94s6.65,7.32,6.65,13.39c0,2.27.61,3.63,1.21,4s2.09.19,4.05-.94l8.68-5c5.7-3.29,10.7-12,10.7-18.54,0-10.45,7.09-22.72,16.14-28l7.5-4.33c5.26-3,10.7-3.38,14.92-.94s6.65,7.32,6.65,13.39c0,2.27.61,3.64,1.21,4s2.09.2,4.06-.94l6.31-3.65c5.7-3.29,10.7-12,10.7-18.54,0-10.45,7.09-22.73,16.14-28l7.5-4.33c5.26-3,10.7-3.38,14.92-.94s6.65,7.32,6.65,13.39v6H228.3v-6c0-2.27-.61-3.63-1.21-4s-2.09-.19-4.05.94l-7.5,4.33c-5.7,3.29-10.7,12-10.7,18.54,0,10.45-7.09,22.72-16.14,28l-6.32,3.65c-5.26,3-10.7,3.38-14.92.94s-6.65-7.32-6.65-13.39c0-2.27-.61-3.63-1.21-4s-2.09-.19-4.05.94l-7.5,4.34c-5.7,3.29-10.7,12-10.7,18.54,0,10.45-7.09,22.73-16.14,28l-8.68,5c-5.26,3-10.7,3.38-14.92.94s-6.65-7.32-6.65-13.39c0-2.27-.61-3.63-1.21-4s-2.09-.19-4.06.94l-7.89,4.56c-5.7,3.29-10.7,12-10.7,18.54Z"/></g><g id="_Group_9" data-name="&lt;Group&gt;"><path id="_Path_11" data-name="&lt;Path&gt;" class="cls-1" d="M8.15,333.57H0v-2.22a18.09,18.09,0,0,1,8.42-14.58l3.75-2.17c3-1.72,6.11-1.88,8.59-.45s3.91,4.23,3.91,7.66c0,.11,0,.21,0,.29l.26-.14,4.13-2.38a10.08,10.08,0,0,0,4.34-7.52,18.09,18.09,0,0,1,8.42-14.58l3.57-2.06c3-1.72,6.11-1.88,8.59-.45s3.91,4.22,3.91,7.66c0,.11,0,.2,0,.29l.26-.14,3-1.73a10.08,10.08,0,0,0,4.34-7.52A18.09,18.09,0,0,1,73.91,279l3.56-2.06c3-1.72,6.1-1.88,8.59-.45S90,280.68,90,284.11V287H81.82v-2.87c0-.11,0-.2,0-.29l-.26.14L78,286a10.08,10.08,0,0,0-4.34,7.52,18.09,18.09,0,0,1-8.42,14.58l-3,1.73c-3,1.72-6.1,1.88-8.59.45s-3.91-4.23-3.91-7.66c0-.11,0-.2,0-.29l-.26.14-3.57,2.06a10.08,10.08,0,0,0-4.34,7.52,18.09,18.09,0,0,1-8.42,14.58L29,329c-3,1.72-6.1,1.88-8.59.45s-3.91-4.23-3.91-7.66c0-.11,0-.2,0-.29l-.26.14-3.75,2.17a10.08,10.08,0,0,0-4.34,7.52Z"/></g></g></g></g></g></svg>