<svg xmlns="http://www.w3.org/2000/svg" viewBox="0 0 646.81 362.63"><defs><style>.cls-1{fill:#febd33;}</style></defs><title>PORTFOLIO</title><g id="Layer_2" data-name="Layer 2"><g id="Home"><g id="Home-2" data-name="Home"><path d="M37.66,145.27H0V.4H59.94q24.4,0,37.37,12.68t13,35.74q0,23.05-13,35.74T59.94,97.24H37.66Zm0-78.39H50.15q20.75,0,20.75-18.06T50.15,30.76H37.66Z"/><path class="cls-1" d="M114.12,76.47A74.64,74.64,0,0,1,161.87,5.86a92.09,92.09,0,0,1,64.65,0A76.4,76.4,0,0,1,252,22.1,74.33,74.33,0,0,1,268.6,46.4a75.72,75.72,0,0,1,6,30.07,75.7,75.7,0,0,1-6,30.07A74.31,74.31,0,0,1,252,130.84a76.37,76.37,0,0,1-25.46,16.23,92.09,92.09,0,0,1-64.65,0,74.93,74.93,0,0,1-47.74-70.61Zm39.39,0a38.57,38.57,0,0,0,3.27,15.95,39.89,39.89,0,0,0,21.81,21A41.9,41.9,0,0,0,223,105.1a39.57,39.57,0,0,0,8.93-12.68,38.6,38.6,0,0,0,3.27-15.95,38.61,38.61,0,0,0-3.27-15.95A39.64,39.64,0,0,0,223,47.84a42.25,42.25,0,0,0-44.38-8.36,39.89,39.89,0,0,0-21.81,21A38.58,38.58,0,0,0,153.51,76.47Z"/><path d="M409.23,145.27H362.35L326.43,89.55v55.72H288.77V.4h58.6A57.54,57.54,0,0,1,368.5,4a39.79,39.79,0,0,1,23.73,23.92,49.55,49.55,0,0,1,3,17.29q0,16.53-8,26.8T363.7,85.9ZM326.43,65.15h7.11q11.14,0,17.1-4.61t6-13.26q0-8.65-6-13.26t-17.1-4.61h-7.11Z"/><path d="M470.52,32.3v113H432.87V32.3H401.93V.4h99.52V32.3Z"/><path d="M110.26,176.16H37.66v24.21H70.9v31.89H37.66v56.87H0V144.27H110.26Z"/><path class="cls-1" d="M114.12,213.47a74.64,74.64,0,0,1,47.74-70.61,92.09,92.09,0,0,1,64.65,0A76.4,76.4,0,0,1,252,159.1a74.33,74.33,0,0,1,16.62,24.3,78.86,78.86,0,0,1,0,60.14A74.31,74.31,0,0,1,252,267.84a76.37,76.37,0,0,1-25.46,16.23,92.09,92.09,0,0,1-64.65,0,74.93,74.93,0,0,1-47.74-70.61Zm39.39,0a38.57,38.57,0,0,0,3.27,15.95,39.89,39.89,0,0,0,21.81,21A41.9,41.9,0,0,0,223,242.1a39.57,39.57,0,0,0,8.93-12.68,40.56,40.56,0,0,0,0-31.89A39.64,39.64,0,0,0,223,184.84a42.25,42.25,0,0,0-44.38-8.36,39.89,39.89,0,0,0-21.81,21A38.58,38.58,0,0,0,153.51,213.47Z"/><path d="M326.43,144.27v113h82.81v31.89H288.77V144.27Z"/><path d="M470.52,144.27V289.14H432.86V144.27Z"/><path class="cls-1" d="M486.38,213.47a74.64,74.64,0,0,1,47.74-70.61,92.09,92.09,0,0,1,64.65,0,76.4,76.4,0,0,1,25.46,16.24,74.33,74.33,0,0,1,16.62,24.3,78.86,78.86,0,0,1,0,60.14,74.31,74.31,0,0,1-16.62,24.31,76.37,76.37,0,0,1-25.46,16.23,92.09,92.09,0,0,1-64.65,0,74.93,74.93,0,0,1-47.74-70.61Zm39.39,0A38.57,38.57,0,0,0,529,229.42a39.89,39.89,0,0,0,21.81,21,41.9,41.9,0,0,0,44.38-8.36,39.57,39.57,0,0,0,8.93-12.68,40.56,40.56,0,0,0,0-31.89,39.64,39.64,0,0,0-8.93-12.68,42.25,42.25,0,0,0-44.38-8.36,39.89,39.89,0,0,0-21.81,21A38.58,38.58,0,0,0,525.77,213.47Z"/><text></text></g></g></g></svg>