<svg xmlns="http://www.w3.org/2000/svg" viewBox="0 0 258.05 258.5"><defs><style>.cls-1{isolation:isolate;}.cls-2{fill:#16110d;}.cls-3{fill:#fff;}</style></defs><title>Portfolio Isometric_1</title><g id="Layer_2" data-name="Layer 2"><g id="Home"><g id="Home-2" data-name="Home"><g class="cls-1"><polygon class="cls-2" points="13.82 118.3 35.59 105.65 35.52 129.51 13.75 142.16 13.82 118.3"/><polygon class="cls-2" points="13.88 94.76 35.65 82.11 35.62 92.27 13.86 104.92 13.88 94.76"/><polygon class="cls-2" points="13.86 104.92 35.62 92.27 47.76 99.28 25.99 111.92 13.86 104.92"/><polygon class="cls-2" points="25.99 111.92 47.76 99.28 47.72 112.66 25.96 125.31 25.99 111.92"/><polygon class="cls-3" points="0.17 73.44 21.94 60.79 35.69 68.73 13.92 81.38 0.17 73.44"/><polygon class="cls-2" points="13.92 81.38 35.69 68.73 62.2 84.04 40.44 96.69 13.92 81.38"/><polygon class="cls-2" points="40.44 96.69 62.2 84.04 62.16 97.42 40.4 110.07 40.44 96.69"/><polygon class="cls-3" points="40.44 96.69 40.4 110.07 13.88 94.76 13.86 104.92 25.99 111.92 25.96 125.31 13.82 118.3 13.75 142.16 0 134.23 0.17 73.44 13.92 81.38 40.44 96.69"/></g><g class="cls-1"><polygon class="cls-2" points="13.98 61.22 35.75 48.57 35.69 68.73 13.92 81.38 13.98 61.22"/><polygon class="cls-2" points="14.02 48.49 35.78 35.84 40.34 38.47 18.57 51.12 14.02 48.49"/><path class="cls-2" d="M46.3,39.72,24.54,52.37q-1.89,1.1-6-1.25L40.34,38.47Q44.41,40.82,46.3,39.72Z"/><polygon class="cls-2" points="14.06 33.33 35.83 20.68 35.78 35.84 14.02 48.49 14.06 33.33"/><polygon class="cls-2" points="0.34 12.65 22.11 0 44 12.64 22.23 25.29 0.34 12.65"/><path class="cls-2" d="M22.23,25.29,44,12.64a36.57,36.57,0,0,1,13.63,13.2L35.86,38.49A36.57,36.57,0,0,0,22.23,25.29Z"/><path class="cls-2" d="M57.71,55.74,35.94,68.39q4.59-2.67,4.61-12.17a34.23,34.23,0,0,0-4.69-17.73L57.63,25.84a34.23,34.23,0,0,1,4.69,17.73Q62.3,53.07,57.71,55.74Z"/><path class="cls-3" d="M35.86,38.49a34.23,34.23,0,0,1,4.69,17.73q0,9.68-4.78,12.26T22.12,65.92L14,61.22l-.06,20.16L.17,73.44.34,12.65,22.23,25.29A36.57,36.57,0,0,1,35.86,38.49ZM18.57,51.12q7.58,4.38,7.6-3.2T18.62,36l-4.56-2.63,0,15.16,4.56,2.63"/></g><g class="cls-1"><path d="M60.37,125.5l21.77-12.65a7.79,7.79,0,0,0-3,3.33,13.34,13.34,0,0,0-1.21,6,24.2,24.2,0,0,0,1.17,7.38,34.38,34.38,0,0,0,3.21,7.18A33.81,33.81,0,0,0,87,143a25.88,25.88,0,0,0,5.72,4.55,14.94,14.94,0,0,0,5.72,2.05,8.23,8.23,0,0,0,4.78-.75l.32-.17L81.79,161.32l-.32.17a8.23,8.23,0,0,1-4.78.75A14.94,14.94,0,0,1,71,160.2a25.88,25.88,0,0,1-5.72-4.55,33.81,33.81,0,0,1-4.73-6.24,34.38,34.38,0,0,1-3.21-7.18,24.2,24.2,0,0,1-1.17-7.38,13.34,13.34,0,0,1,1.21-6A7.79,7.79,0,0,1,60.37,125.5Z"/><path class="cls-2" d="M114.17,165.56,92.4,178.21a14.44,14.44,0,0,0,5.74-6.49,26.44,26.44,0,0,0,2.21-11.36,47.14,47.14,0,0,0-2.14-13.87L120,133.83a47.14,47.14,0,0,1,2.14,13.87,26.44,26.44,0,0,1-2.21,11.36A14.44,14.44,0,0,1,114.17,165.56Z"/><path class="cls-2" d="M49.75,108.62,71.52,96l.29-.16a14.39,14.39,0,0,1,7.87-1.61q.68,0,1.38.12a31.64,31.64,0,0,1,11.83,4.37A53.79,53.79,0,0,1,104.66,108q.7.73,1.38,1.47a64.24,64.24,0,0,1,7.89,10.71,63.38,63.38,0,0,1,6,13.7L98.21,146.48a63.38,63.38,0,0,0-6-13.7,64.24,64.24,0,0,0-7.89-10.71q-.68-.74-1.38-1.47a53.79,53.79,0,0,0-11.78-9.26A31.64,31.64,0,0,0,59.28,107q-.7-.08-1.38-.12A14.39,14.39,0,0,0,50,108.46Z"/><path d="M60.53,67.6,82.3,55a7.77,7.77,0,0,0-3,3.33,13.33,13.33,0,0,0-1.21,6,24.22,24.22,0,0,0,1.17,7.38,34.47,34.47,0,0,0,3.21,7.18,33.78,33.78,0,0,0,4.73,6.24,25.88,25.88,0,0,0,5.71,4.55,14.94,14.94,0,0,0,5.72,2.05,8.23,8.23,0,0,0,4.78-.75l.31-.17L81.95,103.42l-.31.17a8.23,8.23,0,0,1-4.78.75,14.94,14.94,0,0,1-5.72-2.05,25.88,25.88,0,0,1-5.71-4.55A33.78,33.78,0,0,1,60.7,91.5a34.47,34.47,0,0,1-3.21-7.18,24.22,24.22,0,0,1-1.17-7.38,13.33,13.33,0,0,1,1.21-6A7.77,7.77,0,0,1,60.53,67.6Z"/><path class="cls-2" d="M114.34,107.65,92.58,120.3a14.42,14.42,0,0,0,5.73-6.48,26.47,26.47,0,0,0,2.21-11.36,47.12,47.12,0,0,0-2.14-13.87l21.77-12.65a47.12,47.12,0,0,1,2.14,13.87,26.47,26.47,0,0,1-2.21,11.36A14.42,14.42,0,0,1,114.34,107.65Z"/><path class="cls-3" d="M92.17,132.78a64.25,64.25,0,0,0-7.89-10.71h0a14.63,14.63,0,0,0,7.93-1.57,14.29,14.29,0,0,0,6.1-6.69,26.47,26.47,0,0,0,2.21-11.36,47.11,47.11,0,0,0-2.14-13.87,63.4,63.4,0,0,0-6-13.7A64.7,64.7,0,0,0,83.06,62.7a53.79,53.79,0,0,0-11.78-9.26,31.64,31.64,0,0,0-11.83-4.37,15.11,15.11,0,0,0-9.24,1.49,14.46,14.46,0,0,0-6.06,6.72,26.46,26.46,0,0,0-2.21,11.36A47.14,47.14,0,0,0,44.07,82.5a64.3,64.3,0,0,0,13.84,24.35q.68,0,1.38.12a22.17,22.17,0,0,1,2.76.51,27.91,27.91,0,0,1,2.89.9,40.51,40.51,0,0,1,6.18,3q.8.46,1.58,1-.78-.49-1.58-1a40.52,40.52,0,0,0-6.18-3,27.91,27.91,0,0,0-2.89-.9,22.17,22.17,0,0,0-2.76-.51q-.7-.08-1.38-.12A13.68,13.68,0,0,0,44,115.17a26.47,26.47,0,0,0-2.21,11.36,47.1,47.1,0,0,0,2.14,13.87,64.27,64.27,0,0,0,15.21,25.82,53.63,53.63,0,0,0,11.81,9.28,31.71,31.71,0,0,0,11.8,4.35A15.34,15.34,0,0,0,92,178.41a14.32,14.32,0,0,0,6.1-6.7,26.44,26.44,0,0,0,2.21-11.36,47.14,47.14,0,0,0-2.14-13.87A63.38,63.38,0,0,0,92.17,132.78Zm-21-30.5a25.88,25.88,0,0,1-5.71-4.55A33.78,33.78,0,0,1,60.7,91.5a34.48,34.48,0,0,1-3.21-7.18,24.21,24.21,0,0,1-1.17-7.38,13.33,13.33,0,0,1,1.21-6,7.68,7.68,0,0,1,3.24-3.46,8,8,0,0,1,4.75-.77,15,15,0,0,1,5.72,2.05,26,26,0,0,1,5.72,4.55,34.85,34.85,0,0,1,4.76,6.26A34,34,0,0,1,85,86.77a24.2,24.2,0,0,1,1.17,7.38,13.34,13.34,0,0,1-1.21,6,7.54,7.54,0,0,1-3.28,3.44,8.23,8.23,0,0,1-4.78.75A14.94,14.94,0,0,1,71.14,102.29Zm13.62,55.77a7.52,7.52,0,0,1-3.28,3.44,8.23,8.23,0,0,1-4.78.75A14.94,14.94,0,0,1,71,160.2a25.88,25.88,0,0,1-5.72-4.55,33.81,33.81,0,0,1-4.73-6.24,34.38,34.38,0,0,1-3.21-7.18,24.2,24.2,0,0,1-1.17-7.38,13.34,13.34,0,0,1,1.21-6,7.7,7.7,0,0,1,3.24-3.46,8,8,0,0,1,4.75-.77,14.94,14.94,0,0,1,5.72,2.05,25.88,25.88,0,0,1,5.71,4.55,34.82,34.82,0,0,1,4.76,6.26,34.08,34.08,0,0,1,3.25,7.2A24.22,24.22,0,0,1,86,152.05,13.33,13.33,0,0,1,84.75,158.06Z"/><path class="cls-2" d="M49.93,50.71,71.69,38.06,72,37.9a15.11,15.11,0,0,1,9.24-1.49A31.64,31.64,0,0,1,93,40.78,53.79,53.79,0,0,1,104.82,50a64.7,64.7,0,0,1,9.27,12.18,63.4,63.4,0,0,1,6,13.7L98.37,88.58a63.4,63.4,0,0,0-6-13.7A64.7,64.7,0,0,0,83.06,62.7a53.79,53.79,0,0,0-11.78-9.26,31.64,31.64,0,0,0-11.83-4.37,15.11,15.11,0,0,0-9.24,1.49Z"/></g><g class="cls-1"><polygon class="cls-2" points="149.48 207.12 171.24 194.47 171.21 207.85 149.44 220.5 149.48 207.12"/><polygon class="cls-2" points="119.24 189.66 141 177.01 171.24 194.47 149.48 207.12 119.24 189.66"/><polygon class="cls-3" points="119.37 142.26 119.24 189.66 149.48 207.12 149.44 220.5 105.45 195.11 105.62 134.32 119.37 142.26"/><polygon class="cls-2" points="119.44 118.88 141.21 106.23 141.14 129.61 119.37 142.26 119.44 118.88"/><polygon class="cls-2" points="119.37 142.26 141.14 129.61 141 177.01 119.24 189.66 119.37 142.26"/><polygon class="cls-2" points="119.47 108.64 141.23 95.99 143.83 97.49 122.06 110.14 119.47 108.64"/><polygon class="cls-2" points="133.06 125.2 154.82 112.56 171.38 147.07 149.61 159.72 133.06 125.2"/><path class="cls-2" d="M122.06,110.14l21.77-12.65q4.07,2.35,6.25,1.67l-21.77,12.65Q126.13,112.49,122.06,110.14Z"/><path d="M150.65,98.91l-21.77,12.65a2.74,2.74,0,0,1-.57.25l21.77-12.65A2.74,2.74,0,0,0,150.65,98.91Z"/><polygon class="cls-2" points="119.51 93.64 141.28 81 141.23 95.99 119.47 108.64 119.51 93.64"/><polygon class="cls-2" points="171.99 172.64 193.76 159.99 193.59 220.78 171.82 233.43 171.99 172.64"/><polygon class="cls-3" points="171.99 172.64 171.82 233.43 158.07 225.49 158.24 164.7 171.99 172.64"/><polygon class="cls-2" points="105.79 73.53 127.56 60.88 148.96 73.23 127.19 85.89 105.79 73.53"/><path d="M196.3,204l21.77-12.65a7.77,7.77,0,0,0-3,3.32,13.34,13.34,0,0,0-1.21,6,24.2,24.2,0,0,0,1.17,7.38,34.28,34.28,0,0,0,3.22,7.19,33.7,33.7,0,0,0,4.72,6.24,25.88,25.88,0,0,0,5.71,4.55,14.94,14.94,0,0,0,5.72,2.05,8.23,8.23,0,0,0,4.78-.75l.32-.17L217.73,239.8l-.32.17a8.23,8.23,0,0,1-4.78.75,14.94,14.94,0,0,1-5.72-2.05,25.88,25.88,0,0,1-5.71-4.55,33.7,33.7,0,0,1-4.72-6.24,34.28,34.28,0,0,1-3.22-7.19,24.2,24.2,0,0,1-1.17-7.38,13.34,13.34,0,0,1,1.21-6A7.77,7.77,0,0,1,196.3,204Z"/><path class="cls-3" d="M133.05,125.21l16.56,34.51-17.12-9.88-13.05-31-.07,23.38-13.75-7.94.17-60.79,21.4,12.35a35.16,35.16,0,0,1,7.71,5.95A34.75,34.75,0,0,1,140.33,99a34.27,34.27,0,0,1,3.21,7.83,30.06,30.06,0,0,1,1.07,7.88q0,6.93-2.94,9.57T133.05,125.21Zm-4.74-13.4q2.18-.68,2.19-4.31a11.86,11.86,0,0,0-2.16-6.82,18.62,18.62,0,0,0-6.24-5.54l-2.6-1.5,0,15,2.6,1.5q4.07,2.35,6.25,1.67"/><path class="cls-2" d="M162.45,112.39,140.68,125a5.87,5.87,0,0,0,1-.72q2.92-2.63,2.94-9.57a30.06,30.06,0,0,0-1.07-7.88A34.27,34.27,0,0,0,140.33,99a34.75,34.75,0,0,0-5.43-7.21,35.16,35.16,0,0,0-7.71-5.95L149,73.23a35.16,35.16,0,0,1,7.71,5.95,34.75,34.75,0,0,1,5.43,7.21,34.27,34.27,0,0,1,3.21,7.83,30.06,30.06,0,0,1,1.07,7.88q0,6.93-2.94,9.57A5.87,5.87,0,0,1,162.45,112.39Z"/><polygon class="cls-2" points="172.13 125.23 193.89 112.58 193.76 159.99 171.99 172.64 172.13 125.23"/><path class="cls-2" d="M250.11,244l-21.77,12.65a14.41,14.41,0,0,0,5.74-6.49,26.44,26.44,0,0,0,2.21-11.36A47.14,47.14,0,0,0,234.15,225l21.77-12.65a47.14,47.14,0,0,1,2.14,13.87,26.44,26.44,0,0,1-2.21,11.36A14.41,14.41,0,0,1,250.11,244Z"/><path class="cls-3" d="M234.15,225a47.14,47.14,0,0,1,2.14,13.87,26.44,26.44,0,0,1-2.21,11.36,14.3,14.3,0,0,1-6.1,6.7,15.34,15.34,0,0,1-9.31,1.45,31.71,31.71,0,0,1-11.8-4.35,53.63,53.63,0,0,1-11.81-9.28,64.27,64.27,0,0,1-15.21-25.82A47.1,47.1,0,0,1,177.7,205a26.47,26.47,0,0,1,2.21-11.36,14.45,14.45,0,0,1,6.06-6.71,15.08,15.08,0,0,1,9.24-1.49A31.64,31.64,0,0,1,207,189.82a53.79,53.79,0,0,1,11.78,9.26,64.46,64.46,0,0,1,9.27,12.18A63.26,63.26,0,0,1,234.15,225Zm-13.46,11.57a13.33,13.33,0,0,0,1.21-6,24.22,24.22,0,0,0-1.17-7.38,34.08,34.08,0,0,0-3.25-7.2,34.82,34.82,0,0,0-4.76-6.26,25.88,25.88,0,0,0-5.71-4.55,14.94,14.94,0,0,0-5.72-2.05,8,8,0,0,0-4.74.77,7.68,7.68,0,0,0-3.25,3.46,13.34,13.34,0,0,0-1.21,6,24.2,24.2,0,0,0,1.17,7.38,34.28,34.28,0,0,0,3.22,7.19,33.7,33.7,0,0,0,4.72,6.24,25.88,25.88,0,0,0,5.71,4.55,14.94,14.94,0,0,0,5.72,2.05,8.23,8.23,0,0,0,4.78-.75,7.52,7.52,0,0,0,3.28-3.44"/><path class="cls-2" d="M185.69,187.1l21.77-12.65.29-.16a15.08,15.08,0,0,1,9.24-1.49,31.64,31.64,0,0,1,11.83,4.37,53.79,53.79,0,0,1,11.78,9.26,64.46,64.46,0,0,1,9.27,12.18,63.26,63.26,0,0,1,6,13.7L234.15,225a63.26,63.26,0,0,0-6-13.7,64.46,64.46,0,0,0-9.27-12.18A53.79,53.79,0,0,0,207,189.82a31.64,31.64,0,0,0-11.83-4.37,15.08,15.08,0,0,0-9.24,1.49Z"/><polygon class="cls-2" points="147.12 97.39 168.88 84.74 205.23 105.72 183.46 118.37 147.12 97.39"/><polygon class="cls-2" points="183.46 118.37 205.23 105.72 205.19 119.11 183.42 131.75 183.46 118.37"/><polygon class="cls-3" points="183.46 118.37 183.42 131.75 172.13 125.23 171.99 172.64 158.24 164.7 158.38 117.3 147.08 110.77 147.12 97.39 183.46 118.37"/></g></g></g></g></svg>