<svg xmlns="http://www.w3.org/2000/svg" viewBox="0 0 217.74 274.57"><defs><style>.cls-1{fill:#febd33;}.cls-2{fill:#f9e8cc;}.cls-3{fill:#fae9cc;}.cls-4{fill:#f6e5cc;}</style></defs><title>Sound</title><g id="Layer_2" data-name="Layer 2"><g id="About"><g id="illustration"><g id="_Group_" data-name="&lt;Group&gt;"><g id="_Group_2" data-name="&lt;Group&gt;"><g id="_Group_3" data-name="&lt;Group&gt;"><polygon id="_Path_" data-name="&lt;Path&gt;" class="cls-1" points="206.83 136.17 170.82 212.51 192.96 206.95 179.53 266.57 216.13 185.86 194.64 193.48 206.83 136.17"/><polygon id="_Path_2" data-name="&lt;Path&gt;" class="cls-2" points="194.68 192.95 200.35 166.29 179.86 209.72 193 206.42 191.32 213.85 198.26 212.11 192.56 237.39 212.08 194.33 199.94 198.64 201.67 190.47 194.68 192.95"/><path id="_Compound_Path_" data-name="&lt;Compound Path&gt;" d="M176.84,274.57l15-66.45-22.55,5.67,40-84.69L195.8,192.16l21.94-7.78Zm17.26-68.8-11.89,52.79,32.29-71.22-21,7.46,11-51.57-32.08,68Z"/></g><g id="_Group_4" data-name="&lt;Group&gt;"><polygon id="_Path_3" data-name="&lt;Path&gt;" class="cls-1" points="165.65 86.75 53.19 126.51 80.79 143.21 7.57 189.02 125.01 145.5 95.99 131.51 165.65 86.75"/><polygon id="_Path_4" data-name="&lt;Path&gt;" class="cls-3" points="95.86 131.26 128.36 110.38 64.26 133.04 80.67 142.97 74.75 146.66 84.28 152.43 53.41 171.74 115.83 148.61 99.47 140.72 106.34 136.31 95.86 131.26"/><path id="_Compound_Path_2" data-name="&lt;Compound Path&gt;" d="M0,192.75l79.15-49.52-28-16.92L172.35,83.47,97.74,131.4,127.2,145.6Zm55.19-66L82.43,143.2,15.15,185.3l107.66-39.9L94.23,131.61,159,90Z"/></g><g id="_Group_5" data-name="&lt;Group&gt;"><polygon id="_Path_5" data-name="&lt;Path&gt;" class="cls-1" points="156.47 23.75 74.44 1.31 83.82 22.31 22.31 19.37 108.78 41.63 97.47 21.64 156.47 23.75"/><polygon id="_Path_6" data-name="&lt;Path&gt;" class="cls-4" points="78.85 22.4 81.46 28.25 49.6 26.72 102.31 40.29 95.11 27.57 100.74 27.77 97.45 21.96 130.15 23.13 77.6 8.75 83.8 22.64 78.85 22.4"/><path id="_Compound_Path_3" data-name="&lt;Compound Path&gt;" d="M110.52,43,14,18.11l68.49,3.28L72.91,0l90.92,24.88L99,22.55ZM30.66,20.63,107,40.29,96,20.72l53.13,1.91L76,2.62l9.21,20.62Z"/></g></g></g></g></g></g></svg>