<svg xmlns="http://www.w3.org/2000/svg" xmlns:xlink="http://www.w3.org/1999/xlink" viewBox="0 0 1366 131.87"><defs><style>.cls-1{opacity:0.62;fill:url(#linear-gradient);}.cls-2{isolation:isolate;}.cls-3{fill:#d67d00;}.cls-4{fill:url(#linear-gradient-2);}.cls-5{fill:#ea71b0;}.cls-6{fill:#c95687;}.cls-7{fill:#ffc243;}.cls-8{fill:url(#linear-gradient-3);}.cls-9{fill:#ebbe44;}.cls-10{fill:url(#linear-gradient-4);}.cls-11{fill:#f3c72d;}</style><linearGradient id="linear-gradient" x1="640.13" y1="0.6" x2="673.42" y2="33.89" gradientTransform="matrix(1.32, -0.06, -0.08, 0.76, -208.6, 52.41)" gradientUnits="userSpaceOnUse"><stop offset="0" stop-color="#e5e4e3"/><stop offset="0.28" stop-color="#d6d4d2"/><stop offset="0.72" stop-color="#c4c2bd"/><stop offset="1" stop-color="#bebbb5"/></linearGradient><linearGradient id="linear-gradient-2" x1="632.28" y1="6.37" x2="653.8" y2="6.37" gradientUnits="userSpaceOnUse"><stop offset="0" stop-color="#c95687"/><stop offset="0.15" stop-color="#c25482"/><stop offset="0.66" stop-color="#ad4d73"/><stop offset="1" stop-color="#a54b6e"/></linearGradient><linearGradient id="linear-gradient-3" x1="617.45" y1="26.57" x2="665.73" y2="26.57" gradientTransform="translate(46.38 -188.29) rotate(16.65)" gradientUnits="userSpaceOnUse"><stop offset="0" stop-color="#a54b6e"/><stop offset="0.34" stop-color="#ad4d73"/><stop offset="0.85" stop-color="#c25482"/><stop offset="1" stop-color="#c95687"/></linearGradient><linearGradient id="linear-gradient-4" x1="629.3" y1="7.93" x2="656.8" y2="35.44" gradientTransform="translate(46.38 -188.29) rotate(16.65)" xlink:href="#linear-gradient-2"/></defs><title>Spilled Coffee</title><g id="Layer_2" data-name="Layer 2"><g id="Work_New" data-name="Work New"><g id="Spilled_Coffee" data-name="Spilled Coffee"><path class="cls-1" d="M692.86,28.58a6.2,6.2,0,0,0-.12-.91h0a6.27,6.27,0,0,0-.21-.74c0-.06,0-.12,0-.17s-.11-.25-.16-.37l0-.11c-.06-.14-.11-.29-.18-.43h0c-.06-.13-.14-.26-.22-.39l-.17-.3-.1-.18,0,0h0l-.12-.18h0c-.14-.22-.29-.44-.45-.65h0l-.22-.28-.16-.2-.08-.1-.13-.15h0c-.29-.33-.59-.66-.92-1l0,0,0,0h0l0,0c-.32-.31-.67-.61-1-.9l-.09-.08-.07-.06-.16,0c-.21-.17-.76-.32-.74-.49h0a2.19,2.19,0,0,0,.09-.39h0a1.55,1.55,0,0,1-.81-.39s0,.06,0,.05-.07,0-.1,0l-.4-.23c-.09-.05.15-.19.06-.24s-.09-.25-.09-.33h0a2.87,2.87,0,0,0-1-.31l0,0c-.12,0-.26.08-.37,0s-.21,0-.31,0l.1-.16c-.28,0-.42-.88-.68-.88h0a1.87,1.87,0,0,1-.68,0l-.06.12c-.29-.12-.61-.18-.9-.3v0h0l-.52-.19-1-.33L680,17h0c-1-.28-1-.28-1.54-.4s-.76-.16-1.13-.22l-.19,0h-.07l-.4-.06L676,16.2h-.21l-.49,0h0l-.25,0-.44,0H674s-.06-.25-.1-.25-.3-.25-.47-.24h-.65c-.1,0-.23.25-.34.26s-.2.14-.3.15-.31.09-.45.11l-.12,0-.1,0h0l-.43.08-.39.07h0l-.25.06-.42.11-.28.08h0c-4.35,1.37-3.82-3.1-8.17-1.72l-.08-.32A73.74,73.74,0,0,0,631.67,20c-1.43.58-2.13,1.33-2,2.1a1.18,1.18,0,0,0,.06.18,1.07,1.07,0,0,1,0-.12l1.1,4.27v0a1.2,1.2,0,0,0,.07.2l0,0,0,.06,0,.09h0l-.06.12-.16.31-.1.23-.12.33-.08.24c0,.11-.07.23-.09.34l-.06.25c0,.12,0,.25-.06.37s0,.16,0,.24,0,.28,0,.42,0,.14,0,.21,0,.43,0,.65c.39,6.67,9.24,14,19.75,16.39l1.15.24h.05l.19,0,.92.15h.18q1.36.2,2.65.26h.24c.27,0,.53.11.79.11,0,0,.07.09.11.09h0c.73,0,1.43-.12,2.12-.18,0,0,0,0,.06-.05l.08,0c.49,0,1-.12,1.43-.21H660l.1,0a15.67,15.67,0,0,0,2.2-.57l.1,0h0a11.81,11.81,0,0,0,2-.92l.08,0h0l25.59-12.37c.18-.11.35-.23.52-.35l.1-.07a6,6,0,0,0,.61-.53l.16-.17a5.26,5.26,0,0,0,.36-.42l.16-.24a4.82,4.82,0,0,0,.25-.42l.13-.27a4.7,4.7,0,0,0,.17-.45c0-.09.06-.18.09-.28a4.88,4.88,0,0,0,.1-.52c0-.09,0-.17,0-.25A5.41,5.41,0,0,0,692.86,28.58Zm-55.16-3h0Zm13.62-8.95-.58.08.58-.08Zm1.25-.16.55-.06Zm1.85-.18.55,0-.55,0Zm-4.47.53-1.11.18h0l1.12-.18Zm-1.63.27-1.59.31h0l1.6-.31Zm-2.48.5-.61.14.61-.14ZM644.2,18l-.51.13h0l1.1-.27Zm-.91-.1c-.47,0-1.06.45-1.56.59-.18.05-.37.19-.55.24-.51.15-1,.35-1.5.5v-.15c1.1-.35,2.46-1.19,3.59-1.19Zm-3.87,1.46-.77.26-.48.16,1.25-.42Zm-2.53.87-.74.28.78-.3Zm.5-.18.71-.25Zm19.38-3.89h0Zm-20.72,4.38-.27.1-1,.39Zm-2.69,3.78h0l-.87-.25Zm-1.79-.58.17.07-.16-.06Zm-1.76-1.31h0l.09.15-.06-.09Zm.18.28.13.14-.11-.11Zm.25.26.18.14-.11-.08Zm.37.28.17.1-.14-.08Zm.43.25h0l.2.1Zm6.5,14.77h0c-.25-.24-.49-.49-.72-.74.36.37.71.73,1.07,1.07l-.18-.16Z"/><g class="cls-2"><polygon class="cls-3" points="654.61 2.66 654.09 8.46 653.28 10.28 653.8 4.48 654.61 2.66"/><path class="cls-4" d="M638.95,2.55l-1.2.18-.16,0h-.05l-.63.12-.45.09-.61.14-.39.09-.63.16-.29.07-.82.24a1.19,1.19,0,0,0-.93,1v0l-.52,5.8v0a1.19,1.19,0,0,1,.93-1l.82-.24.29-.07L635,9l.38-.09.62-.14.44-.09.63-.12.21,0,1.2-.18.43-.05,1.22-.12.35,0,.4,0,.81,0h1.16l1.23,0,.4,0,.85.07.6.06.43.06.94.14.41.08,1,.2.4.09c.39.09.77.2,1.16.31l.15,0c.43.13.87.28,1.3.44l.35.13c.43.16.85.34,1.28.53l.52-5.8L653,4.12l-.45-.17-.35-.13-.24-.09-1-.34h0l-.16,0-.84-.24L649.55,3l-.4-.09-.36-.09-.59-.11-.41-.08-.16,0-.78-.11-.44-.06h-.07l-.53,0L645,2.31h-.4l-1.23,0h-1.16l-.81,0-.4,0h-.1l-.25,0-1.22.12Z"/><polygon class="cls-3" points="636.91 9.75 636.39 15.55 634.12 16.36 634.63 10.56 636.91 9.75"/><path class="cls-5" d="M630.62,6.3l-.2-.3-.11-.17-.1-.18-.12-.23L630,5.3q-.06-.14-.1-.27l0-.09a3.4,3.4,0,0,1-.09-.35V4.51q0-.15,0-.29s0-.06,0-.09a2.68,2.68,0,0,1,0-.35l-.52,5.8v0a2.66,2.66,0,0,0,0,.27s0,0,0,.06,0,.06,0,.09,0,.08,0,.12,0,.11,0,.17v.1q0,.14.07.28v0l0,.09.06.17,0,.1.06.13,0,.1.07.13.1.18,0,.07.07.1.2.3.06.09.05.06c.13.17.28.34.44.51l3.46,3.6.52-5.8L631.17,7c-.16-.17-.3-.34-.44-.51Z"/><path class="cls-6" d="M631.17,7a4.18,4.18,0,0,1-1.4-3.26,2.59,2.59,0,0,1,2-2.17c4.55-1.38,13.57-3.07,22.8,1.12l-.81,1.82c-7.91-3.59-16-2-20.06-.8a1.19,1.19,0,0,0-.93,1,1.92,1.92,0,0,0,.64,1.49l3.46,3.6-2.27.81Z"/></g><path class="cls-7" d="M630.54,8.49l.08-.07Z"/><path class="cls-7" d="M640.25,12l-.14.34h0C640.17,12.21,640.21,12.09,640.25,12Z"/><path class="cls-7" d="M631,8.06l.17-.13Z"/><path class="cls-7" d="M629.55,9.69l.15-.21Z"/><path class="cls-7" d="M631.47,7.69l.2-.13Z"/><path class="cls-7" d="M632.49,7.07l.22-.11Z"/><path class="cls-7" d="M629.17,10.28l.15-.25Z"/><path class="cls-7" d="M633,6.84l.23-.09Z"/><path class="cls-7" d="M632,7.36l.21-.12Z"/><path class="cls-7" d="M630,9.11l.12-.15Z"/><path class="cls-7" d="M633.59,6.65l.23-.06Z"/><path class="cls-7" d="M627.73,13.87l.07-.26Z"/><path class="cls-7" d="M640.55,11.34h0q-.13.26-.25.53C640.38,11.68,640.47,11.51,640.55,11.34Z"/><path class="cls-7" d="M628.82,10.92l.14-.27Z"/><path class="cls-7" d="M634.59,10.25h0Z"/><path class="cls-7" d="M628.5,11.59l.13-.29Z"/><path class="cls-7" d="M628,13.07l.1-.3Z"/><path class="cls-7" d="M628.21,12.31l.12-.3Z"/><path class="cls-7" d="M632.24,11.74l.09-.09Z"/><path class="cls-7" d="M635.41,6.38h0Z"/><path class="cls-7" d="M636.36,6.42h-.09l.2,0h0Z"/><path class="cls-7" d="M630.54,14.42l.05-.13Z"/><path class="cls-7" d="M634.55,6.45l.32,0h-.09Z"/><path class="cls-7" d="M637.24,6.57l-.18,0Z"/><path class="cls-7" d="M631,13.41l.07-.13Z"/><path class="cls-7" d="M635.56,6.38h0Z"/><path class="cls-7" d="M639,7.12l.13.05Z"/><path class="cls-7" d="M640.63,8l.29.18L640.75,8Z"/><path class="cls-7" d="M634.41,6.46h-.05l-.17,0Z"/><path class="cls-7" d="M640,7.61l.24.13-.14-.08Z"/><path class="cls-7" d="M638,6.76l.12,0-.08,0Z"/><path class="cls-7" d="M637.5,6.63l-.1,0Z"/><path class="cls-7" d="M639.51,7.36l.16.08Z"/><path class="cls-7" d="M641.6,8.61l-.26-.18Z"/><path class="cls-7" d="M633,11.11,633,11Z"/><path class="cls-7" d="M638.52,6.94l-.07,0Z"/><path class="cls-7" d="M633.74,10.61l.05,0Z"/><path class="cls-7" d="M631.6,12.51l.09-.12Z"/><path class="cls-7" d="M640.11,12.32c-.07.2-.14.4-.21.62.07-.22.15-.42.22-.62Z"/><path class="cls-7" d="M639.6,14.14c0,.1,0,.21,0,.31h0C639.57,14.35,639.58,14.24,639.6,14.14Z"/><path class="cls-7" d="M639.6,14.14c.08-.39.17-.76.28-1.12C639.78,13.38,639.68,13.75,639.6,14.14Z"/><path class="cls-7" d="M630.15,15.54l0-.09Z"/><path class="cls-7" d="M639.56,14.45c-.05.29-.1.59-.14.89h0c0-.3.09-.6.14-.89Z"/><path class="cls-7" d="M629.63,18.24c0-.06,0-.13,0-.19,0,.23,0,.46-.06.69h0C629.6,18.57,629.61,18.4,629.63,18.24Z"/><path class="cls-7" d="M639.31,17.48h0c0-.05,0-.11,0-.16S639.31,17.43,639.31,17.48Z"/><path class="cls-7" d="M629.59,18.73v0Z"/><path class="cls-7" d="M629.55,19.32c0,.1,0,.21,0,.31h0C629.54,19.52,629.54,19.42,629.55,19.32Z"/><path class="cls-7" d="M629.53,20.32s0,.08,0,.12h0S629.53,20.36,629.53,20.32Z"/><path class="cls-7" d="M629.61,22h0c0,.2,0,.39.05.59h0C629.64,22.44,629.62,22.24,629.61,22Z"/><path class="cls-7" d="M629.76,23.45h0l0,.14h0Z"/><path class="cls-7" d="M629.79,23.59h0c0,.15,0,.31.07.46h0C629.83,23.9,629.81,23.75,629.79,23.59Z"/><path class="cls-7" d="M639.61,21c0,.28.1.56.16.85h0c-.06-.28-.11-.57-.16-.85Z"/><path class="cls-7" d="M630,25h0l0,.15h0Z"/><path class="cls-7" d="M639.86,22.28c0,.14.07.27.1.41,0-.14-.07-.27-.1-.41Z"/><polygon class="cls-7" points="630.42 26.62 630.42 26.63 630.42 26.63 630.42 26.62"/><path class="cls-7" d="M630.06,25.11h0c0,.12,0,.23.07.35h0C630.1,25.35,630.08,25.23,630.06,25.11Z"/><path class="cls-7" d="M630.42,26.63l.06.25-.06-.25Z"/><path class="cls-7" d="M640.19,23.6l0,.06,0-.06Z"/><path class="cls-7" d="M630.92,28.28c.06.17.13.34.19.51-.06-.17-.13-.34-.19-.51Z"/><path class="cls-7" d="M631.44,29.69l0,0h0Z"/><path class="cls-7" d="M641.09,26.22h0c-.07-.17-.13-.34-.19-.51C641,25.88,641,26.05,641.09,26.22Z"/><path class="cls-7" d="M631.46,29.73c.12.29.24.56.37.84-.12-.28-.25-.56-.37-.85Z"/><path class="cls-7" d="M632.07,31.12h0l.13.27h0Z"/><path class="cls-7" d="M641.45,27c.08.17.14.34.22.51h0c-.08-.17-.15-.34-.22-.51Z"/><path class="cls-7" d="M632.2,31.39c.2.42.41.83.63,1.23-.22-.4-.43-.82-.63-1.23Z"/><path class="cls-7" d="M642.38,29l.27.46-.27-.46Z"/><path class="cls-7" d="M643.73,31.12h0v0Z"/><path class="cls-7" d="M634.54,35.29l-.26-.35Z"/><path class="cls-7" d="M633.52,33.8l.13.2h0Z"/><path class="cls-7" d="M638.16,42.42l.07,0-.12-.08Z"/><path class="cls-7" d="M635.39,36.37l-.3-.36Z"/><path class="cls-7" d="M639.46,39.82l-.32-.18Z"/><path class="cls-7" d="M637.38,41.84l.13.1-.16-.12Z"/><path class="cls-7" d="M647.27,34.84l.08.06c-.3-.22-.6-.45-.89-.72C646.73,34.42,647,34.63,647.27,34.84Z"/><path class="cls-7" d="M645.34,33.08h0l-.25-.28Z"/><path class="cls-7" d="M648.1,35.41l.13.07,0,0c-.24-.14-.47-.3-.71-.46Z"/><path class="cls-7" d="M638.19,39l.18.12-.16-.11Z"/><path class="cls-7" d="M648.8,35.81l.19.1.19.09h0l-.61-.31Z"/><path class="cls-7" d="M636,37c.39.41.78.81,1.2,1.17-.31-.28-.62-.57-.92-.88Z"/><path class="cls-7" d="M640.17,40.18l.17.08-.11,0Z"/><path class="cls-7" d="M641.19,40.58l.14,0-.05,0Z"/><path class="cls-7" d="M643.42,40.88h0Z"/><path class="cls-7" d="M644.29,40.79l-.35.06Z"/><path class="cls-7" d="M642.53,40.85l-.41,0Z"/><path class="cls-7" d="M640,43.52h0Z"/><path class="cls-7" d="M645.12,40.56l-.35.11Z"/><path class="cls-7" d="M651.45,38.26l.09-.28Z"/><path class="cls-7" d="M651.23,38.87v0h0Z"/><path class="cls-7" d="M640.84,43.87h0l-.1,0Z"/><path class="cls-7" d="M640.06,43.53l.08,0,.06,0-.14-.07Z"/><path class="cls-7" d="M642.44,44.34h.06l-.1,0Z"/><path class="cls-7" d="M650.81,39.81l-.08.15Z"/><path class="cls-7" d="M651.22,38.89l-.07.18.07-.18Z"/><path class="cls-7" d="M650.31,40.72l.13-.22Z"/><path class="cls-7" d="M643.57,44.49h0Z"/><path class="cls-7" d="M643.64,44.5h0Z"/><path class="cls-7" d="M649.88,41.36l.13-.19Z"/><path class="cls-7" d="M645.47,44.35l.08,0h0Z"/><path class="cls-7" d="M649.44,41.93l.06-.07Z"/><path class="cls-7" d="M649,42.44l0,0h0Z"/><path class="cls-7" d="M645.55,44.34h0Z"/><path class="cls-7" d="M648.94,42.46h0l-.08.08.07-.06Z"/><path class="cls-7" d="M648.16,43.13l0,0Z"/><path class="cls-7" d="M647.45,43.6l-.16.09.07,0h0Z"/><path class="cls-7" d="M641.36,11.87l-.09-.06,0,0Z"/><path class="cls-7" d="M644.28,11h0l.41.46h0Z"/><path class="cls-7" d="M640.37,11.21l-.16-.09.14.08Z"/><path class="cls-7" d="M639.39,10.7l-.14-.06.12.06Z"/><path class="cls-7" d="M642.06,8.95l.22.17Z"/><path class="cls-7" d="M637.26,10.05l.16,0Z"/><path class="cls-7" d="M638.18,10.26l.17,0Z"/><path class="cls-7" d="M641.92,8.85l-.14-.11Z"/><path class="cls-7" d="M635.4,10.06l.08,0Z"/><path class="cls-7" d="M652.23,28.7h0c0,.06,0,.13,0,.19h0C652.24,28.83,652.23,28.77,652.23,28.7Z"/><path class="cls-7" d="M649.4,35.34c0,.13-.08.24-.12.36C649.32,35.59,649.36,35.47,649.4,35.34Z"/><path class="cls-7" d="M649,36.44c-.06.14-.12.26-.18.39C648.9,36.7,649,36.57,649,36.44Z"/><path class="cls-7" d="M646,40.15l-.29.16Z"/><path class="cls-7" d="M646.74,39.64l-.29.22Z"/><path class="cls-7" d="M648.55,37.41l-.21.37Z"/><path class="cls-7" d="M648,38.27l-.25.33Z"/><path class="cls-7" d="M647.41,39l-.27.28Z"/><path class="cls-7" d="M650.75,22.11h0c.09.26.16.52.24.78h0C650.91,22.63,650.83,22.37,650.75,22.11Z"/><path class="cls-7" d="M649.65,19.26h0c.12.27.25.54.36.82h0C649.89,19.81,649.77,19.54,649.65,19.26Z"/><path class="cls-7" d="M650.06,20.22c.12.29.22.59.33.89h0C650.29,20.82,650.18,20.52,650.06,20.22Z"/><path class="cls-7" d="M649.45,18.8l-.11-.23c.11.23.2.46.31.7h0Z"/><path class="cls-7" d="M646.88,14.22l.25.37h0Z"/><path class="cls-7" d="M648,16l-.23-.36c.16.26.32.53.47.8h0Z"/><path class="cls-7" d="M645.55,12.41h0L646,13h0Z"/><path class="cls-7" d="M645.52,12.38h0l0,0h0Z"/><path class="cls-8" d="M645.72,41s-10.93,3.74-15.59-15.53c-2.09-8.63.16-13.24,4.44-15.21s34.19-8.32,34.19-8.32l8.87,22.45Z"/><path class="cls-5" d="M633.59,6.65l-.33.1-.23.09-.32.13-.22.11-.31.16-.21.12-.3.2-.2.13-.31.24-.17.13-.38.35-.08.07q-.22.22-.43.47l-.12.15-.29.37-.15.21-.24.35-.15.25-.21.36-.14.27-.19.39-.13.29-.17.42-.12.3c-.06.15-.11.3-.16.46l-.1.3c-.05.17-.1.36-.15.54l-.07.26c-.07.27-.13.55-.19.84-1.76,8.7,2.3,20.56,9.06,26.49.25.22.5.42.75.62l.16.12.61.45.12.08A13.65,13.65,0,0,0,640,43.52h0l.14.07.56.24.1,0a9.72,9.72,0,0,0,1.53.45l.1,0a8.22,8.22,0,0,0,1.07.14h.16a7.13,7.13,0,0,0,1.74-.14l.09,0h0a6.7,6.7,0,0,0,1.71-.64l.16-.09a7.06,7.06,0,0,0,.72-.47l0,0a7.63,7.63,0,0,0,.65-.56l.08-.08,0,0c.16-.16.32-.33.47-.51l.06-.07q.2-.24.39-.5l.13-.19.29-.44.13-.22c.1-.18.2-.36.3-.54l.08-.15q.18-.36.34-.75l.07-.18v0c.08-.2.15-.4.22-.61l.09-.28q.1-.3.18-.61l.07-.27c.08-.3.15-.6.21-.92q.16-.81.26-1.65c0-.19,0-.38,0-.57,0-.38.07-.75.09-1.14,0-.23,0-.47,0-.7s0-.7,0-1.05,0-.51,0-.77,0-.69-.07-1c0-.12,0-.24,0-.36s0-.13,0-.19c0-.38-.09-.75-.15-1.13,0-.19-.06-.38-.1-.57h0c0-.15-.06-.3-.09-.46s-.09-.5-.14-.75l-.09-.43h0c-.05-.23-.12-.46-.17-.69s-.15-.62-.23-.93h0l-.05-.18c-.06-.22-.14-.45-.21-.67s-.16-.52-.24-.78l-.14-.42c-.07-.19-.14-.38-.22-.58s-.21-.6-.33-.89h0l-.05-.14c-.11-.28-.24-.55-.36-.82s-.2-.47-.31-.7h0l-.28-.58c-.16-.34-.33-.67-.51-1l-.33-.6c-.15-.27-.31-.54-.47-.8h0c-.2-.34-.41-.67-.63-1l-.25-.37-.2-.29c-.23-.33-.47-.64-.7-1l-.43-.56,0,0c-.27-.33-.55-.65-.83-1l-.41-.46c-.43-.45-.87-.88-1.32-1.27l-.68-.57-.22-.17-.13-.1-.14-.11-.19-.14-.26-.18-.41-.28L640.63,8l-.39-.23L640,7.61l-.34-.18-.16-.08-.41-.19L639,7.12l-.45-.18-.07,0-.34-.11-.12,0-.5-.14-.1,0-.15,0-.18,0-.59-.09-.2,0c-.24,0-.47,0-.71,0h-.3l-.39,0-.32,0-.14,0-.22,0-.36.08Zm1,3.6a5.48,5.48,0,0,1,.81-.19l.08,0a6.08,6.08,0,0,1,1.78,0l.16,0a7.35,7.35,0,0,1,.75.17l.17,0a8.58,8.58,0,0,1,.9.33l.14.06q.41.19.82.42l.16.09.17.11h0c.24.15.48.3.72.47l.09.06c.33.24.66.51,1,.8,5.48,4.81,8.77,14.42,7.34,21.48-.08.42-.19.82-.3,1.2,0,.13-.08.24-.12.36l-.1.28h0c-.05.15-.1.3-.16.45s-.12.26-.18.39-.18.4-.29.59l-.21.37c-.1.17-.21.34-.32.49l-.25.33q-.17.22-.36.42l-.27.28c-.13.12-.26.24-.4.35l-.29.22c-.15.1-.3.19-.45.28l-.29.16a5.42,5.42,0,0,1-.6.25l-.35.11-.48.11-.35.06-.51,0h-.37l-.52,0-.41,0a7.33,7.33,0,0,1-.79-.18l-.14,0a8.55,8.55,0,0,1-.85-.32l-.17-.08c-.24-.11-.48-.23-.71-.37l-.32-.18c-.25-.15-.51-.32-.76-.5l-.18-.12c-.33-.24-.67-.51-1-.8s-.81-.76-1.2-1.17c-.21-.22-.41-.44-.61-.68l-.3-.36q-.28-.35-.56-.72l-.26-.35c-.22-.3-.42-.62-.63-.93l-.13-.2c-.24-.38-.47-.78-.69-1.18s-.43-.81-.63-1.23l-.13-.27c-.08-.18-.16-.36-.24-.54s-.25-.56-.37-.84l0,0c-.12-.3-.23-.6-.34-.9s-.13-.34-.19-.51q-.24-.7-.44-1.4l-.06-.25h0c-.1-.38-.2-.77-.29-1.15,0-.12,0-.23-.07-.35l0-.15c-.06-.3-.12-.61-.17-.91s0-.31-.07-.46l0-.14c0-.27-.08-.54-.11-.81s0-.39-.05-.59c0-.54-.07-1.07-.07-1.6,0,0,0-.08,0-.12,0-.23,0-.47,0-.69s0-.21,0-.31,0-.37,0-.56v0c0-.23,0-.46.06-.69.05-.44.12-.88.21-1.31s.19-.81.3-1.2l0-.09c.11-.36.23-.7.37-1l.05-.13a9.7,9.7,0,0,1,.43-.89l.07-.13a8.21,8.21,0,0,1,.5-.77l.09-.12a7,7,0,0,1,.56-.65l.09-.09a6.22,6.22,0,0,1,.63-.54L633,11a5.69,5.69,0,0,1,.7-.44l.05,0a5.45,5.45,0,0,1,.77-.33Z"/><polygon class="cls-9" points="649.95 32.39 636.17 39.04 636.2 42.12 627.33 42.27 636.56 46.55 639.5 43.51 639.61 40.35 649.18 35.84 649.95 32.39"/><path class="cls-10" d="M634.41,6.46l.14,0,.24,0h.09l.39,0h.3c.23,0,.47,0,.71,0h.09l.1,0h0l.59.09.18,0,.15,0,.1,0,.5.14h0l.08,0,.34.11.07,0,.45.18.13.05.41.19.16.08.34.18.09,0,.14.08.39.23.12.07.17.11.41.28.26.18.19.14.14.11.13.1.22.17.68.57c.45.4.89.83,1.32,1.27l.41.46h0c.28.31.56.63.83,1h0l0,0L646,13h0c.24.31.48.63.7,1l.2.29.25.37h0c.22.33.43.66.63,1h0L648,16l.24.44h0l.33.6c.17.33.34.66.51,1l.28.58h0l.11.23.2.46c.12.27.24.55.35.82h0l.05.14h0c.12.29.23.59.34.89h0c.07.19.15.38.22.58l.14.42h0c.09.26.16.52.24.78h0c.07.22.14.44.21.67l.05.18h0c.09.31.16.62.23.93s.12.46.17.69h0l.09.43c.05.25.1.5.14.75s.06.3.09.46h0c0,.19.07.38.1.57.06.38.1.75.15,1.13,0,.06,0,.13,0,.19h0c0,.12,0,.24,0,.36,0,.35,0,.69.07,1s0,.51,0,.77,0,.7,0,1.05,0,.47,0,.7c0,.39-.05.76-.09,1.14,0,.19,0,.38,0,.57q-.1.84-.26,1.65c-.06.32-.14.62-.21.92l-.07.27q-.09.31-.18.61l-.09.28c-.07.21-.15.41-.22.61v0l-.07.18q-.16.39-.34.75l-.08.15c-.1.19-.19.37-.3.54l-.13.22-.29.44-.13.19q-.19.26-.39.5l-.06.07c-.15.18-.31.35-.47.51l0,0,0,0-.07.06a7.63,7.63,0,0,1-.65.56l0,0a7.06,7.06,0,0,1-.72.47l-.07,0h0l27.25-15.18a5.16,5.16,0,0,0,.48-.31l.1-.06a5.59,5.59,0,0,0,.6-.52l.16-.18c.13-.14.26-.29.38-.44l.19-.26c.11-.15.21-.31.31-.47l.17-.31c.09-.17.18-.35.26-.53l.15-.34c.08-.21.16-.43.23-.65s.07-.21.11-.32c.1-.34.19-.69.26-1.06s.14-.8.19-1.2h0c0-.33.06-.67.08-1,0-.08,0-.16,0-.24s0-.35,0-.52,0-.11,0-.16,0-.4,0-.6h0c0-.19,0-.38,0-.56s0-.29,0-.44,0-.17,0-.25V18h0c0-.09,0-.18,0-.26h0c0-.32-.08-.64-.12-1h0c0-.14,0-.28-.07-.42l-.06-.3,0-.15,0-.23h0c-.1-.51-.22-1-.36-1.52v-.06l0-.08v0h0v0c-.14-.48-.29-1-.46-1.44l0-.13,0-.09,0-.07c-.1-.27-.19-.54-.3-.81h0l0-.1h0c-.13-.32-.27-.63-.41-.94l0-.05-.05-.12-.21-.43-.14-.28L675.48,9h0l-.24-.43h0l-.18-.32L674.9,8h0q-.22-.37-.46-.73h0l-.32-.48h0c-.17-.24-.34-.47-.51-.7h0l0,0-.31-.4c-.2-.24-.4-.47-.61-.7l-.3-.34h0c-.31-.33-.63-.64-1-.93s-.49-.41-.73-.59L670.55,3l0,0-.27-.18-.45-.3-.1-.06,0,0-.34-.19h0l-.17-.1L668.82,2l-.05,0-.34-.14-.09,0L668,1.63l-.07,0-.14,0-.21-.06-.06,0-.23-.06-.21,0-.33-.06-.09,0h-.94l-.33,0-.23,0h0L634.35,6.47Z"/><polygon class="cls-11" points="627.33 42.27 585.71 69.87 537 69.87 481.15 77.01 415.92 97.74 370.96 93.24 318.69 114.87 262 114.87 213.46 129.47 191.47 118.38 124.26 116.92 76.12 123.88 0 131.87 0 131.87 1366 131.66 1366 101.06 1330.16 113.44 1239.79 117.61 1193.2 106.07 1080.62 128 982.79 118.5 858.69 94.31 782.8 90.26 717.65 60.74 671.69 70.15 636.56 46.55 627.33 42.27"/></g></g></g></svg>