<svg xmlns="http://www.w3.org/2000/svg" viewBox="0 0 238.02 141.55"><defs><style>.cls-1{font-size:49.33px;font-family:Oswald-Medium, Oswald;}.cls-2{letter-spacing:0em;}.cls-3{isolation:isolate;}.cls-10,.cls-11,.cls-12,.cls-4,.cls-5,.cls-7{stroke:#000;stroke-linejoin:round;}.cls-10,.cls-4{stroke-linecap:round;stroke-width:0.75px;}.cls-5,.cls-6{fill:#ffbe2e;}.cls-10,.cls-12,.cls-7{fill:none;}.cls-8{fill:#16110d;}.cls-9{fill:#fec;}.cls-11,.cls-12{stroke-width:0.98px;}</style></defs><title>Title Trckr</title><g id="Layer_2" data-name="Layer 2"><g id="Code"><text class="cls-1" transform="matrix(0.87, 0.5, -0.87, 0.5, 58.2, 57.23)">t<tspan class="cls-2" x="16.38" y="0">r</tspan><tspan x="33.31" y="0">ckr</tspan></text><g class="cls-3"><polygon class="cls-4" points="58.53 4.46 58.51 11.11 53.68 13.92 53.7 7.26 58.53 4.46"/><path class="cls-5" d="M18.6,14.51l0,6.65a.94.94,0,0,0,0-.22,1.25,1.25,0,0,0-.47-.68A9.46,9.46,0,0,0,17,19.53l0-6.65a9.46,9.46,0,0,1,1.12.73,1.25,1.25,0,0,1,.47.68A.94.94,0,0,1,18.6,14.51Z"/><path d="M52.18,6.45A5.11,5.11,0,0,0,49.62,6a6.11,6.11,0,0,0-1.4.43,16.19,16.19,0,0,0-1.69.8q-.8.44-2.24,1.28l-6.52,3.79a24.47,24.47,0,0,1-6.92,2.93A9.77,9.77,0,0,1,25.41,15l0,6.65a9.77,9.77,0,0,0,5.44.27,24.47,24.47,0,0,0,6.92-2.93l6.52-3.79q1.45-.84,2.24-1.28a16.2,16.2,0,0,1,1.69-.8,6.11,6.11,0,0,1,1.4-.43,5.11,5.11,0,0,1,2.56.44q.6.29,1.52.82l0-6.65Q52.79,6.74,52.18,6.45Z"/><path d="M25.89,18.11q-1.07,1.71-5,4l-6.52,3.79q-1.45.84-2.19,1.3a11.94,11.94,0,0,0-1.37,1A2.51,2.51,0,0,0,10,29a.66.66,0,0,0,0,.23l0,6.65a.66.66,0,0,1,0-.23,2.51,2.51,0,0,1,.73-.81,11.93,11.93,0,0,1,1.37-1q.75-.46,2.19-1.3l6.52-3.79q4-2.31,5-4a2.55,2.55,0,0,0,.44-1.34l0-6.65A2.55,2.55,0,0,1,25.89,18.11Z"/><path class="cls-6" d="M.5,34.79l0-6.65a1.9,1.9,0,0,0,.32,1.05,8.27,8.27,0,0,0,1.25,1.42,15.61,15.61,0,0,0,2.14,1.65q1.28.84,3.16,1.92l0,6.65q-1.88-1.08-3.16-1.92a15.61,15.61,0,0,1-2.14-1.65A8.27,8.27,0,0,1,.82,35.85,1.9,1.9,0,0,1,.5,34.79Z"/><path class="cls-7" d="M.5,34.79l0-6.65a1.9,1.9,0,0,0,.32,1.05,8.27,8.27,0,0,0,1.25,1.42,15.61,15.61,0,0,0,2.14,1.65q1.28.84,3.16,1.92l0,6.65q-1.88-1.08-3.16-1.92a15.61,15.61,0,0,1-2.14-1.65A8.27,8.27,0,0,1,.82,35.85,1.9,1.9,0,0,1,.5,34.79Z"/><path class="cls-6" d="M58.53,4.46,53.7,7.26q-.91-.53-1.52-.82A5.11,5.11,0,0,0,49.62,6a6.11,6.11,0,0,0-1.4.43,16.19,16.19,0,0,0-1.69.8q-.8.44-2.24,1.28l-6.52,3.79a24.47,24.47,0,0,1-6.92,2.93A9.77,9.77,0,0,1,25.41,15a2.25,2.25,0,0,1,.49,3.15q-1.07,1.71-5,4l-6.52,3.79q-1.45.84-2.19,1.3a11.94,11.94,0,0,0-1.37,1A2.51,2.51,0,0,0,10,29a.94.94,0,0,0,.08.71,1.91,1.91,0,0,0,.69.77q.51.35,1.42.88L7.39,34.18Q5.51,33.1,4.23,32.26a15.61,15.61,0,0,1-2.14-1.65A8.27,8.27,0,0,1,.84,29.19a1.89,1.89,0,0,1-.3-1.31A2.91,2.91,0,0,1,1,26.61a6.94,6.94,0,0,1,1.36-1.35A22.3,22.3,0,0,1,4.44,23.8q1.09-.69,2.85-1.72l5.86-3.41q1.67-1,2.64-1.57t1.7-1.18a4.42,4.42,0,0,0,1-.91.9.9,0,0,0,.13-.72,1.25,1.25,0,0,0-.47-.68A9.46,9.46,0,0,0,17,12.88l4.81-2.79a11.28,11.28,0,0,0,1.27.65,3.79,3.79,0,0,0,1.18.27,4.25,4.25,0,0,0,1.24-.08,9,9,0,0,0,1.57-.56q1-.43,2-1t2.71-1.53l5.86-3.4q1.77-1,3-1.66t2.53-1.2A14.77,14.77,0,0,1,45.45.8,12.35,12.35,0,0,1,47.63.51,8.78,8.78,0,0,1,49.9.68a20.54,20.54,0,0,1,2.45.72A23.51,23.51,0,0,1,55.2,2.63Q56.65,3.38,58.53,4.46Z"/><polygon class="cls-4" points="12.22 31.37 12.2 38.03 7.37 40.83 7.38 34.18 12.22 31.37"/><g id="_Group_" data-name="&lt;Group&gt;"><path id="_Path_" data-name="&lt;Path&gt;" class="cls-8" d="M33.7,10a.25.25,0,0,1,0-.47.91.91,0,0,1,.82,0,.25.25,0,0,1,0,.47A.91.91,0,0,1,33.7,10Z"/><path id="_Path_2" data-name="&lt;Path&gt;" class="cls-8" d="M31.59,11.28a.25.25,0,0,1,0-.47.91.91,0,0,1,.82,0,.25.25,0,0,1,0,.47A.91.91,0,0,1,31.59,11.28Z"/><path id="_Path_3" data-name="&lt;Path&gt;" class="cls-8" d="M29.47,12.57a.25.25,0,0,1,0-.47.91.91,0,0,1,.82,0,.25.25,0,0,1,0,.47A.91.91,0,0,1,29.47,12.57Z"/><path id="_Path_4" data-name="&lt;Path&gt;" class="cls-8" d="M27.35,13.85a.25.25,0,0,1,0-.47.91.91,0,0,1,.82,0,.25.25,0,0,1,0,.47A.91.91,0,0,1,27.35,13.85Z"/><path id="_Path_5" data-name="&lt;Path&gt;" class="cls-8" d="M25.24,15.13a.25.25,0,0,1,0-.47.91.91,0,0,1,.82,0,.25.25,0,0,1,0,.47A.91.91,0,0,1,25.24,15.13Z"/><path id="_Path_6" data-name="&lt;Path&gt;" class="cls-8" d="M23.12,16.41a.25.25,0,0,1,0-.47.91.91,0,0,1,.82,0,.25.25,0,0,1,0,.47A.91.91,0,0,1,23.12,16.41Z"/><path id="_Path_7" data-name="&lt;Path&gt;" class="cls-8" d="M21,17.7a.25.25,0,0,1,0-.47.91.91,0,0,1,.82,0,.25.25,0,0,1,0,.47A.91.91,0,0,1,21,17.7Z"/><path id="_Path_8" data-name="&lt;Path&gt;" class="cls-8" d="M18.89,19a.25.25,0,0,1,0-.47.91.91,0,0,1,.82,0,.25.25,0,0,1,0,.47A.91.91,0,0,1,18.89,19Z"/><path id="_Path_9" data-name="&lt;Path&gt;" class="cls-8" d="M42.22,7.34a.25.25,0,0,1,0-.47.91.91,0,0,1,.82,0,.25.25,0,0,1,0,.47A.91.91,0,0,1,42.22,7.34Z"/><path id="_Path_10" data-name="&lt;Path&gt;" class="cls-8" d="M40.1,8.62a.25.25,0,0,1,0-.47.91.91,0,0,1,.82,0,.25.25,0,0,1,0,.47A.91.91,0,0,1,40.1,8.62Z"/><path id="_Path_11" data-name="&lt;Path&gt;" class="cls-8" d="M38,9.91a.25.25,0,0,1,0-.47.91.91,0,0,1,.82,0,.25.25,0,0,1,0,.47A.91.91,0,0,1,38,9.91Z"/><path id="_Path_12" data-name="&lt;Path&gt;" class="cls-8" d="M35.87,11.19a.25.25,0,0,1,0-.47.91.91,0,0,1,.82,0,.25.25,0,0,1,0,.47A.91.91,0,0,1,35.87,11.19Z"/><path id="_Path_13" data-name="&lt;Path&gt;" class="cls-8" d="M33.75,12.47a.25.25,0,0,1,0-.47.91.91,0,0,1,.82,0,.25.25,0,0,1,0,.47A.91.91,0,0,1,33.75,12.47Z"/><path id="_Path_14" data-name="&lt;Path&gt;" class="cls-8" d="M31.64,13.76a.25.25,0,0,1,0-.47.91.91,0,0,1,.82,0,.25.25,0,0,1,0,.47A.91.91,0,0,1,31.64,13.76Z"/><path id="_Path_15" data-name="&lt;Path&gt;" class="cls-8" d="M29.52,15a.25.25,0,0,1,0-.47.91.91,0,0,1,.82,0,.25.25,0,0,1,0,.47A.91.91,0,0,1,29.52,15Z"/><path id="_Path_16" data-name="&lt;Path&gt;" class="cls-8" d="M27.41,16.32a.25.25,0,0,1,0-.47.91.91,0,0,1,.82,0,.25.25,0,0,1,0,.47A.91.91,0,0,1,27.41,16.32Z"/><path id="_Path_17" data-name="&lt;Path&gt;" class="cls-8" d="M25.29,17.61a.25.25,0,0,1,0-.47.91.91,0,0,1,.82,0,.25.25,0,0,1,0,.47A.91.91,0,0,1,25.29,17.61Z"/><path id="_Path_18" data-name="&lt;Path&gt;" class="cls-8" d="M23.18,18.89a.25.25,0,0,1,0-.47.91.91,0,0,1,.82,0,.25.25,0,0,1,0,.47A.91.91,0,0,1,23.18,18.89Z"/><path id="_Path_19" data-name="&lt;Path&gt;" class="cls-8" d="M21.06,20.17a.25.25,0,0,1,0-.47.91.91,0,0,1,.82,0,.25.25,0,0,1,0,.47A.91.91,0,0,1,21.06,20.17Z"/><path id="_Path_20" data-name="&lt;Path&gt;" class="cls-8" d="M44.39,8.53a.25.25,0,0,1,0-.47.91.91,0,0,1,.82,0,.25.25,0,0,1,0,.47A.91.91,0,0,1,44.39,8.53Z"/><path id="_Path_21" data-name="&lt;Path&gt;" class="cls-8" d="M42.27,9.81a.25.25,0,0,1,0-.47.91.91,0,0,1,.82,0,.25.25,0,0,1,0,.47A.91.91,0,0,1,42.27,9.81Z"/><path id="_Path_22" data-name="&lt;Path&gt;" class="cls-8" d="M40.16,11.1a.25.25,0,0,1,0-.47.91.91,0,0,1,.82,0,.25.25,0,0,1,0,.47A.91.91,0,0,1,40.16,11.1Z"/><path id="_Path_23" data-name="&lt;Path&gt;" class="cls-8" d="M38,12.38a.25.25,0,0,1,0-.47.91.91,0,0,1,.82,0,.25.25,0,0,1,0,.47A.91.91,0,0,1,38,12.38Z"/><path id="_Path_24" data-name="&lt;Path&gt;" class="cls-8" d="M35.92,13.66a.25.25,0,0,1,0-.47.91.91,0,0,1,.82,0,.25.25,0,0,1,0,.47A.91.91,0,0,1,35.92,13.66Z"/><path id="_Path_25" data-name="&lt;Path&gt;" class="cls-8" d="M33.81,14.95a.25.25,0,0,1,0-.47.91.91,0,0,1,.82,0,.25.25,0,0,1,0,.47A.91.91,0,0,1,33.81,14.95Z"/><path id="_Path_26" data-name="&lt;Path&gt;" class="cls-8" d="M31.69,16.23a.25.25,0,0,1,0-.47.91.91,0,0,1,.82,0,.25.25,0,0,1,0,.47A.91.91,0,0,1,31.69,16.23Z"/><path id="_Path_27" data-name="&lt;Path&gt;" class="cls-8" d="M29.58,17.51a.25.25,0,0,1,0-.47.91.91,0,0,1,.82,0,.25.25,0,0,1,0,.47A.91.91,0,0,1,29.58,17.51Z"/><path id="_Path_28" data-name="&lt;Path&gt;" class="cls-8" d="M27.46,18.8a.25.25,0,0,1,0-.47.9.9,0,0,1,.82,0,.25.25,0,0,1,0,.47A.91.91,0,0,1,27.46,18.8Z"/><path id="_Path_29" data-name="&lt;Path&gt;" class="cls-8" d="M25.35,20.08a.25.25,0,0,1,0-.47.91.91,0,0,1,.82,0,.25.25,0,0,1,0,.47A.91.91,0,0,1,25.35,20.08Z"/><path id="_Path_30" data-name="&lt;Path&gt;" class="cls-8" d="M23.23,21.36a.25.25,0,0,1,0-.47.91.91,0,0,1,.82,0,.25.25,0,0,1,0,.47A.91.91,0,0,1,23.23,21.36Z"/><path id="_Path_31" data-name="&lt;Path&gt;" class="cls-8" d="M50.79,7.16a.25.25,0,0,1,0-.47.91.91,0,0,1,.82,0,.25.25,0,0,1,0,.47A.91.91,0,0,1,50.79,7.16Z"/><path id="_Path_32" data-name="&lt;Path&gt;" class="cls-8" d="M48.67,8.44a.25.25,0,0,1,0-.47.91.91,0,0,1,.82,0,.25.25,0,0,1,0,.47A.91.91,0,0,1,48.67,8.44Z"/><path id="_Path_33" data-name="&lt;Path&gt;" class="cls-8" d="M46.56,9.72a.25.25,0,0,1,0-.47.91.91,0,0,1,.82,0,.25.25,0,0,1,0,.47A.91.91,0,0,1,46.56,9.72Z"/><path id="_Path_34" data-name="&lt;Path&gt;" class="cls-8" d="M44.44,11a.25.25,0,0,1,0-.47.91.91,0,0,1,.82,0,.25.25,0,0,1,0,.47A.91.91,0,0,1,44.44,11Z"/><path id="_Path_35" data-name="&lt;Path&gt;" class="cls-8" d="M42.32,12.29a.25.25,0,0,1,0-.47.91.91,0,0,1,.82,0,.25.25,0,0,1,0,.47A.91.91,0,0,1,42.32,12.29Z"/><path id="_Path_36" data-name="&lt;Path&gt;" class="cls-8" d="M40.21,13.57a.25.25,0,0,1,0-.47.91.91,0,0,1,.82,0,.25.25,0,0,1,0,.47A.91.91,0,0,1,40.21,13.57Z"/><path id="_Path_37" data-name="&lt;Path&gt;" class="cls-8" d="M38.09,14.85a.25.25,0,0,1,0-.47.91.91,0,0,1,.82,0,.25.25,0,0,1,0,.47A.91.91,0,0,1,38.09,14.85Z"/><path id="_Path_38" data-name="&lt;Path&gt;" class="cls-8" d="M36,16.14a.25.25,0,0,1,0-.47.91.91,0,0,1,.82,0,.25.25,0,0,1,0,.47A.91.91,0,0,1,36,16.14Z"/><path id="_Path_39" data-name="&lt;Path&gt;" class="cls-8" d="M33.86,17.42a.25.25,0,0,1,0-.47.91.91,0,0,1,.82,0,.25.25,0,0,1,0,.47A.91.91,0,0,1,33.86,17.42Z"/><path id="_Path_40" data-name="&lt;Path&gt;" class="cls-8" d="M31.75,18.7a.25.25,0,0,1,0-.47.91.91,0,0,1,.82,0,.25.25,0,0,1,0,.47A.91.91,0,0,1,31.75,18.7Z"/><path id="_Path_41" data-name="&lt;Path&gt;" class="cls-8" d="M29.63,20a.25.25,0,0,1,0-.47.91.91,0,0,1,.82,0,.25.25,0,0,1,0,.47A.91.91,0,0,1,29.63,20Z"/><path id="_Path_42" data-name="&lt;Path&gt;" class="cls-8" d="M27.51,21.27a.25.25,0,0,1,0-.47.91.91,0,0,1,.82,0,.25.25,0,0,1,0,.47A.91.91,0,0,1,27.51,21.27Z"/><path id="_Path_43" data-name="&lt;Path&gt;" class="cls-8" d="M25.4,22.55a.25.25,0,0,1,0-.47.91.91,0,0,1,.82,0,.25.25,0,0,1,0,.47A.91.91,0,0,1,25.4,22.55Z"/><path id="_Path_44" data-name="&lt;Path&gt;" class="cls-8" d="M55.07,7.06a.25.25,0,0,1,0-.47.91.91,0,0,1,.82,0,.25.25,0,0,1,0,.47A.91.91,0,0,1,55.07,7.06Z"/><path id="_Path_45" data-name="&lt;Path&gt;" class="cls-8" d="M53,8.35a.25.25,0,0,1,0-.47.91.91,0,0,1,.82,0,.25.25,0,0,1,0,.47A.91.91,0,0,1,53,8.35Z"/><path id="_Path_46" data-name="&lt;Path&gt;" class="cls-8" d="M50.84,9.63a.25.25,0,0,1,0-.47.91.91,0,0,1,.82,0,.25.25,0,0,1,0,.47A.91.91,0,0,1,50.84,9.63Z"/><path id="_Path_47" data-name="&lt;Path&gt;" class="cls-8" d="M48.73,10.91a.25.25,0,0,1,0-.47.91.91,0,0,1,.82,0,.25.25,0,0,1,0,.47A.91.91,0,0,1,48.73,10.91Z"/><path id="_Path_48" data-name="&lt;Path&gt;" class="cls-8" d="M46.61,12.2a.25.25,0,0,1,0-.47.91.91,0,0,1,.82,0,.25.25,0,0,1,0,.47A.91.91,0,0,1,46.61,12.2Z"/><path id="_Path_49" data-name="&lt;Path&gt;" class="cls-8" d="M44.49,13.48a.25.25,0,0,1,0-.47.91.91,0,0,1,.82,0,.25.25,0,0,1,0,.47A.91.91,0,0,1,44.49,13.48Z"/><path id="_Path_50" data-name="&lt;Path&gt;" class="cls-8" d="M42.38,14.76a.25.25,0,0,1,0-.47.91.91,0,0,1,.82,0,.25.25,0,0,1,0,.47A.91.91,0,0,1,42.38,14.76Z"/><path id="_Path_51" data-name="&lt;Path&gt;" class="cls-8" d="M40.26,16a.25.25,0,0,1,0-.47.91.91,0,0,1,.82,0,.25.25,0,0,1,0,.47A.91.91,0,0,1,40.26,16Z"/><path id="_Path_52" data-name="&lt;Path&gt;" class="cls-8" d="M38.15,17.33a.25.25,0,0,1,0-.47.91.91,0,0,1,.82,0,.25.25,0,0,1,0,.47A.91.91,0,0,1,38.15,17.33Z"/><path id="_Path_53" data-name="&lt;Path&gt;" class="cls-8" d="M36,18.61a.25.25,0,0,1,0-.47.91.91,0,0,1,.82,0,.25.25,0,0,1,0,.47A.91.91,0,0,1,36,18.61Z"/><path id="_Path_54" data-name="&lt;Path&gt;" class="cls-8" d="M33.91,19.89a.25.25,0,0,1,0-.47.91.91,0,0,1,.82,0,.25.25,0,0,1,0,.47A.91.91,0,0,1,33.91,19.89Z"/><path id="_Path_55" data-name="&lt;Path&gt;" class="cls-8" d="M31.8,21.18a.25.25,0,0,1,0-.47.91.91,0,0,1,.82,0,.25.25,0,0,1,0,.47A.91.91,0,0,1,31.8,21.18Z"/><path id="_Path_56" data-name="&lt;Path&gt;" class="cls-8" d="M29.68,22.46a.25.25,0,0,1,0-.47.91.91,0,0,1,.82,0,.25.25,0,0,1,0,.47A.91.91,0,0,1,29.68,22.46Z"/><path id="_Path_57" data-name="&lt;Path&gt;" class="cls-8" d="M27.57,23.74a.25.25,0,0,1,0-.47.91.91,0,0,1,.82,0,.25.25,0,0,1,0,.47A.91.91,0,0,1,27.57,23.74Z"/><path id="_Path_58" data-name="&lt;Path&gt;" class="cls-8" d="M57.24,8.25a.25.25,0,0,1,0-.47.9.9,0,0,1,.82,0,.25.25,0,0,1,0,.47A.91.91,0,0,1,57.24,8.25Z"/><path id="_Path_59" data-name="&lt;Path&gt;" class="cls-8" d="M55.13,9.54a.25.25,0,0,1,0-.47.91.91,0,0,1,.82,0,.25.25,0,0,1,0,.47A.91.91,0,0,1,55.13,9.54Z"/><path id="_Path_60" data-name="&lt;Path&gt;" class="cls-8" d="M53,10.82a.25.25,0,0,1,0-.47.91.91,0,0,1,.82,0,.25.25,0,0,1,0,.47A.91.91,0,0,1,53,10.82Z"/><path id="_Path_61" data-name="&lt;Path&gt;" class="cls-8" d="M50.89,12.1a.25.25,0,0,1,0-.47.91.91,0,0,1,.82,0,.25.25,0,0,1,0,.47A.91.91,0,0,1,50.89,12.1Z"/><path id="_Path_62" data-name="&lt;Path&gt;" class="cls-8" d="M48.78,13.39a.25.25,0,0,1,0-.47.91.91,0,0,1,.82,0,.25.25,0,0,1,0,.47A.91.91,0,0,1,48.78,13.39Z"/><path id="_Path_63" data-name="&lt;Path&gt;" class="cls-8" d="M46.66,14.67a.25.25,0,0,1,0-.47.91.91,0,0,1,.82,0,.25.25,0,0,1,0,.47A.91.91,0,0,1,46.66,14.67Z"/><path id="_Path_64" data-name="&lt;Path&gt;" class="cls-8" d="M44.55,16a.25.25,0,0,1,0-.47.91.91,0,0,1,.82,0,.25.25,0,0,1,0,.47A.91.91,0,0,1,44.55,16Z"/><path id="_Path_65" data-name="&lt;Path&gt;" class="cls-8" d="M42.43,17.24a.25.25,0,0,1,0-.47.91.91,0,0,1,.82,0,.25.25,0,0,1,0,.47A.91.91,0,0,1,42.43,17.24Z"/><path id="_Path_66" data-name="&lt;Path&gt;" class="cls-8" d="M40.32,18.52a.25.25,0,0,1,0-.47.91.91,0,0,1,.82,0,.25.25,0,0,1,0,.47A.91.91,0,0,1,40.32,18.52Z"/><path id="_Path_67" data-name="&lt;Path&gt;" class="cls-8" d="M38.2,19.8a.25.25,0,0,1,0-.47.91.91,0,0,1,.82,0,.25.25,0,0,1,0,.47Z"/><path id="_Path_68" data-name="&lt;Path&gt;" class="cls-8" d="M59.41,9.44a.25.25,0,0,1,0-.47.91.91,0,0,1,.82,0,.25.25,0,0,1,0,.47A.91.91,0,0,1,59.41,9.44Z"/><path id="_Path_69" data-name="&lt;Path&gt;" class="cls-8" d="M57.29,10.73a.25.25,0,0,1,0-.47.91.91,0,0,1,.82,0,.25.25,0,0,1,0,.47A.9.9,0,0,1,57.29,10.73Z"/><path id="_Path_70" data-name="&lt;Path&gt;" class="cls-8" d="M55.18,12a.25.25,0,0,1,0-.47.91.91,0,0,1,.82,0A.25.25,0,0,1,56,12,.91.91,0,0,1,55.18,12Z"/><path id="_Path_71" data-name="&lt;Path&gt;" class="cls-8" d="M53.06,13.29a.25.25,0,0,1,0-.47.91.91,0,0,1,.82,0,.25.25,0,0,1,0,.47A.91.91,0,0,1,53.06,13.29Z"/><path id="_Path_72" data-name="&lt;Path&gt;" class="cls-8" d="M50.95,14.58a.25.25,0,0,1,0-.47.91.91,0,0,1,.82,0,.25.25,0,0,1,0,.47A.91.91,0,0,1,50.95,14.58Z"/><path id="_Path_73" data-name="&lt;Path&gt;" class="cls-8" d="M48.83,15.86a.25.25,0,0,1,0-.47.91.91,0,0,1,.82,0,.25.25,0,0,1,0,.47A.91.91,0,0,1,48.83,15.86Z"/><path id="_Path_74" data-name="&lt;Path&gt;" class="cls-8" d="M46.72,17.14a.25.25,0,0,1,0-.47.91.91,0,0,1,.82,0,.25.25,0,0,1,0,.47Z"/><path id="_Path_75" data-name="&lt;Path&gt;" class="cls-8" d="M61.76,10.71c-.44-.12-.45-.47,0-.6a.9.9,0,0,0,.51,0c.44.12.44.47,0,.6A.89.89,0,0,0,61.76,10.71Z"/><path id="_Path_76" data-name="&lt;Path&gt;" class="cls-8" d="M59.64,12c-.44-.12-.44-.47,0-.6a.89.89,0,0,0,.51,0c.44.12.44.47,0,.6A.89.89,0,0,0,59.64,12Z"/><path id="_Path_77" data-name="&lt;Path&gt;" class="cls-8" d="M57.52,13.28c-.44-.12-.44-.46,0-.6a.89.89,0,0,0,.51,0c.44.12.45.47,0,.6A.89.89,0,0,0,57.52,13.28Z"/><path id="_Path_78" data-name="&lt;Path&gt;" class="cls-8" d="M55.41,14.56c-.44-.12-.45-.47,0-.6a.89.89,0,0,0,.51,0c.44.12.44.47,0,.6A.89.89,0,0,0,55.41,14.56Z"/><path id="_Path_79" data-name="&lt;Path&gt;" class="cls-8" d="M53.29,15.84c-.44-.12-.44-.47,0-.6a.89.89,0,0,0,.51,0c.44.12.44.47,0,.6A.89.89,0,0,0,53.29,15.84Z"/><path id="_Path_80" data-name="&lt;Path&gt;" class="cls-8" d="M61.81,13.18c-.44-.12-.44-.46,0-.6a.89.89,0,0,0,.51,0c.44.12.45.47,0,.6A.89.89,0,0,0,61.81,13.18Z"/><path id="_Path_81" data-name="&lt;Path&gt;" class="cls-8" d="M59.69,14.47c-.44-.12-.44-.47,0-.6a.89.89,0,0,0,.51,0c.44.12.44.47,0,.6A.89.89,0,0,0,59.69,14.47Z"/><path id="_Path_82" data-name="&lt;Path&gt;" class="cls-8" d="M57.58,15.75c-.44-.12-.44-.47,0-.6a.89.89,0,0,0,.51,0c.44.12.44.47,0,.6A.89.89,0,0,0,57.58,15.75Z"/><path id="_Path_83" data-name="&lt;Path&gt;" class="cls-8" d="M55.29,16.5a.91.91,0,0,1,.82,0,.25.25,0,0,1,0,.47Z"/><path id="_Path_84" data-name="&lt;Path&gt;" class="cls-8" d="M17.22,35.11c-.44-.12-.45-.47,0-.6a.9.9,0,0,0,.51,0c.44.12.44.47,0,.6A.89.89,0,0,0,17.22,35.11Z"/><path id="_Path_85" data-name="&lt;Path&gt;" class="cls-8" d="M15.1,36.39c-.44-.12-.44-.47,0-.6a.89.89,0,0,0,.51,0c.44.12.44.47,0,.6A.89.89,0,0,0,15.1,36.39Z"/><path id="_Path_86" data-name="&lt;Path&gt;" class="cls-8" d="M13,37.68c-.44-.12-.44-.46,0-.6a.89.89,0,0,0,.51,0c.44.12.45.47,0,.6A.89.89,0,0,0,13,37.68Z"/><path id="_Path_87" data-name="&lt;Path&gt;" class="cls-8" d="M10.87,39c-.44-.12-.45-.47,0-.6a.89.89,0,0,0,.51,0c.44.12.44.47,0,.6A.89.89,0,0,0,10.87,39Z"/><path id="_Path_88" data-name="&lt;Path&gt;" class="cls-8" d="M8.76,40.24c-.44-.12-.44-.47,0-.6a.89.89,0,0,0,.51,0c.44.12.44.47,0,.6A.89.89,0,0,0,8.76,40.24Z"/><path id="_Path_89" data-name="&lt;Path&gt;" class="cls-8" d="M17.27,37.58c-.44-.12-.44-.46,0-.6a.89.89,0,0,0,.51,0c.44.12.45.47,0,.6A.89.89,0,0,0,17.27,37.58Z"/><path id="_Path_90" data-name="&lt;Path&gt;" class="cls-8" d="M15.16,38.87c-.44-.12-.44-.47,0-.6a.89.89,0,0,0,.51,0c.44.12.44.47,0,.6A.89.89,0,0,0,15.16,38.87Z"/><path id="_Path_91" data-name="&lt;Path&gt;" class="cls-8" d="M13,40.15c-.44-.12-.44-.47,0-.6a.89.89,0,0,0,.51,0c.44.12.44.47,0,.6A.89.89,0,0,0,13,40.15Z"/><path id="_Path_92" data-name="&lt;Path&gt;" class="cls-8" d="M10.76,40.9a.91.91,0,0,1,.82,0,.25.25,0,0,1,0,.47Z"/><path id="_Path_93" data-name="&lt;Path&gt;" class="cls-8" d="M17.59,20.23a.91.91,0,0,1-.82,0,.25.25,0,0,1,0-.47.91.91,0,0,1,.82,0A.25.25,0,0,1,17.59,20.23Z"/><path id="_Path_94" data-name="&lt;Path&gt;" class="cls-8" d="M14.65,21.53a.25.25,0,0,1,0-.47.91.91,0,0,1,.82,0,.25.25,0,0,1,0,.47A.91.91,0,0,1,14.65,21.53Z"/><path id="_Path_95" data-name="&lt;Path&gt;" class="cls-8" d="M19.76,21.42a.91.91,0,0,1-.82,0,.25.25,0,0,1,0-.47.91.91,0,0,1,.82,0A.25.25,0,0,1,19.76,21.42Z"/><path id="_Path_96" data-name="&lt;Path&gt;" class="cls-8" d="M16.82,22.72a.25.25,0,0,1,0-.47.91.91,0,0,1,.82,0,.25.25,0,0,1,0,.47A.91.91,0,0,1,16.82,22.72Z"/><path id="_Path_97" data-name="&lt;Path&gt;" class="cls-8" d="M14.71,24a.25.25,0,0,1,0-.47.91.91,0,0,1,.82,0,.25.25,0,0,1,0,.47A.91.91,0,0,1,14.71,24Z"/><path id="_Path_98" data-name="&lt;Path&gt;" class="cls-8" d="M12.59,25.29a.25.25,0,0,1,0-.47.91.91,0,0,1,.82,0,.25.25,0,0,1,0,.47A.91.91,0,0,1,12.59,25.29Z"/><path id="_Path_99" data-name="&lt;Path&gt;" class="cls-8" d="M10.47,26.57a.25.25,0,0,1,0-.47.91.91,0,0,1,.82,0,.25.25,0,0,1,0,.47A.91.91,0,0,1,10.47,26.57Z"/><path id="_Path_100" data-name="&lt;Path&gt;" class="cls-8" d="M21.93,22.61a.91.91,0,0,1-.82,0,.25.25,0,0,1,0-.47.91.91,0,0,1,.82,0A.25.25,0,0,1,21.93,22.61Z"/><path id="_Path_101" data-name="&lt;Path&gt;" class="cls-8" d="M19,23.91a.25.25,0,0,1,0-.47.91.91,0,0,1,.82,0,.25.25,0,0,1,0,.47A.91.91,0,0,1,19,23.91Z"/><path id="_Path_102" data-name="&lt;Path&gt;" class="cls-8" d="M16.88,25.2a.25.25,0,0,1,0-.47.91.91,0,0,1,.82,0,.25.25,0,0,1,0,.47A.91.91,0,0,1,16.88,25.2Z"/><path id="_Path_103" data-name="&lt;Path&gt;" class="cls-8" d="M14.76,26.48a.25.25,0,0,1,0-.47.91.91,0,0,1,.82,0,.25.25,0,0,1,0,.47A.91.91,0,0,1,14.76,26.48Z"/><path id="_Path_104" data-name="&lt;Path&gt;" class="cls-8" d="M12.64,27.76a.25.25,0,0,1,0-.47.9.9,0,0,1,.82,0,.25.25,0,0,1,0,.47A.91.91,0,0,1,12.64,27.76Z"/><path id="_Path_105" data-name="&lt;Path&gt;" class="cls-8" d="M10.53,29a.25.25,0,0,1,0-.47.91.91,0,0,1,.82,0,.25.25,0,0,1,0,.47A.91.91,0,0,1,10.53,29Z"/><path id="_Path_106" data-name="&lt;Path&gt;" class="cls-8" d="M24.1,23.8a.91.91,0,0,1-.82,0,.25.25,0,0,1,0-.47.91.91,0,0,1,.82,0A.25.25,0,0,1,24.1,23.8Z"/><path id="_Path_107" data-name="&lt;Path&gt;" class="cls-8" d="M21.16,25.1a.25.25,0,0,1,0-.47.91.91,0,0,1,.82,0,.25.25,0,0,1,0,.47A.91.91,0,0,1,21.16,25.1Z"/><path id="_Path_108" data-name="&lt;Path&gt;" class="cls-8" d="M26.11,25.08a.91.91,0,0,1-.82,0,.25.25,0,0,1,0-.47.91.91,0,0,1,.82,0A.25.25,0,0,1,26.11,25.08Z"/><path id="_Path_109" data-name="&lt;Path&gt;" class="cls-8" d="M23.17,26.38a.25.25,0,0,1,0-.47.91.91,0,0,1,.82,0,.25.25,0,0,1,0,.47A.91.91,0,0,1,23.17,26.38Z"/><path id="_Path_110" data-name="&lt;Path&gt;" class="cls-8" d="M28.28,26.27a.91.91,0,0,1-.82,0,.25.25,0,0,1,0-.47.91.91,0,0,1,.82,0A.25.25,0,0,1,28.28,26.27Z"/><path id="_Path_111" data-name="&lt;Path&gt;" class="cls-8" d="M25.34,27.57a.25.25,0,0,1,0-.47.91.91,0,0,1,.82,0,.25.25,0,0,1,0,.47A.91.91,0,0,1,25.34,27.57Z"/><path id="_Path_112" data-name="&lt;Path&gt;" class="cls-8" d="M23.69,28.72a.91.91,0,0,1-.82,0,.25.25,0,0,1,0-.47.91.91,0,0,1,.82,0A.25.25,0,0,1,23.69,28.72Z"/><path id="_Path_113" data-name="&lt;Path&gt;" class="cls-8" d="M20.76,30a.25.25,0,0,1,0-.47.91.91,0,0,1,.82,0,.25.25,0,0,1,0,.47A.91.91,0,0,1,20.76,30Z"/><path id="_Path_114" data-name="&lt;Path&gt;" class="cls-8" d="M37.12,21.21a.91.91,0,0,1-.82,0,.25.25,0,0,1,0-.47.91.91,0,0,1,.82,0A.25.25,0,0,1,37.12,21.21Z"/><path id="_Path_115" data-name="&lt;Path&gt;" class="cls-8" d="M34.18,22.52a.25.25,0,0,1,0-.47A.91.91,0,0,1,35,22a.25.25,0,0,1,0,.47A.91.91,0,0,1,34.18,22.52Z"/><path id="_Path_116" data-name="&lt;Path&gt;" class="cls-8" d="M32.54,23.67a.91.91,0,0,1-.82,0,.25.25,0,0,1,0-.47.91.91,0,0,1,.82,0A.25.25,0,0,1,32.54,23.67Z"/><path id="_Path_117" data-name="&lt;Path&gt;" class="cls-8" d="M29.6,25a.25.25,0,0,1,0-.47.91.91,0,0,1,.82,0,.25.25,0,0,1,0,.47A.91.91,0,0,1,29.6,25Z"/><path id="_Path_118" data-name="&lt;Path&gt;" class="cls-8" d="M19,26.39a.25.25,0,0,1,0-.47.91.91,0,0,1,.82,0,.25.25,0,0,1,0,.47A.91.91,0,0,1,19,26.39Z"/><path id="_Path_119" data-name="&lt;Path&gt;" class="cls-8" d="M16.93,27.67a.25.25,0,0,1,0-.47.91.91,0,0,1,.82,0,.25.25,0,0,1,0,.47A.91.91,0,0,1,16.93,27.67Z"/><path id="_Path_120" data-name="&lt;Path&gt;" class="cls-8" d="M14.81,29a.25.25,0,0,1,0-.47.91.91,0,0,1,.82,0,.25.25,0,0,1,0,.47A.91.91,0,0,1,14.81,29Z"/><path id="_Path_121" data-name="&lt;Path&gt;" class="cls-8" d="M12.7,30.24a.25.25,0,0,1,0-.47.91.91,0,0,1,.82,0,.25.25,0,0,1,0,.47A.9.9,0,0,1,12.7,30.24Z"/><path id="_Path_122" data-name="&lt;Path&gt;" class="cls-8" d="M8.47,32.8a.25.25,0,0,1,0-.47.91.91,0,0,1,.82,0,.25.25,0,0,1,0,.47A.91.91,0,0,1,8.47,32.8Z"/><path id="_Path_123" data-name="&lt;Path&gt;" class="cls-8" d="M22,27.56a.91.91,0,0,1-.82,0,.25.25,0,0,1,0-.47.91.91,0,0,1,.82,0Z"/><path id="_Path_124" data-name="&lt;Path&gt;" class="cls-8" d="M19.1,28.86a.25.25,0,0,1,0-.47.91.91,0,0,1,.82,0,.25.25,0,0,1,0,.47A.91.91,0,0,1,19.1,28.86Z"/><path id="_Path_125" data-name="&lt;Path&gt;" class="cls-8" d="M17,30.14a.25.25,0,0,1,0-.47.91.91,0,0,1,.82,0,.25.25,0,0,1,0,.47A.91.91,0,0,1,17,30.14Z"/><path id="_Path_126" data-name="&lt;Path&gt;" class="cls-8" d="M14.87,31.43a.25.25,0,0,1,0-.47.91.91,0,0,1,.82,0,.25.25,0,0,1,0,.47A.91.91,0,0,1,14.87,31.43Z"/><path id="_Path_127" data-name="&lt;Path&gt;" class="cls-8" d="M12.75,32.71a.25.25,0,0,1,0-.47.91.91,0,0,1,.82,0,.25.25,0,0,1,0,.47A.91.91,0,0,1,12.75,32.71Z"/><path id="_Path_128" data-name="&lt;Path&gt;" class="cls-8" d="M10.63,34a.25.25,0,0,1,0-.47.91.91,0,0,1,.82,0,.25.25,0,0,1,0,.47A.91.91,0,0,1,10.63,34Z"/><path id="_Path_129" data-name="&lt;Path&gt;" class="cls-8" d="M8.52,35.28a.25.25,0,0,1,0-.47.91.91,0,0,1,.82,0,.25.25,0,0,1,0,.47A.91.91,0,0,1,8.52,35.28Z"/><path id="_Path_130" data-name="&lt;Path&gt;" class="cls-8" d="M17,32.62a.25.25,0,0,1,0-.47.91.91,0,0,1,.82,0,.25.25,0,0,1,0,.47A.91.91,0,0,1,17,32.62Z"/><path id="_Path_131" data-name="&lt;Path&gt;" class="cls-8" d="M14.92,33.9a.25.25,0,0,1,0-.47.91.91,0,0,1,.82,0,.25.25,0,0,1,0,.47A.91.91,0,0,1,14.92,33.9Z"/><path id="_Path_132" data-name="&lt;Path&gt;" class="cls-8" d="M12.8,35.18a.25.25,0,0,1,0-.47.91.91,0,0,1,.82,0,.25.25,0,0,1,0,.47A.91.91,0,0,1,12.8,35.18Z"/><path id="_Path_133" data-name="&lt;Path&gt;" class="cls-8" d="M10.69,36.47a.25.25,0,0,1,0-.47.91.91,0,0,1,.82,0,.25.25,0,0,1,0,.47A.91.91,0,0,1,10.69,36.47Z"/><path id="_Path_134" data-name="&lt;Path&gt;" class="cls-8" d="M8.57,37.75a.25.25,0,0,1,0-.47.91.91,0,0,1,.82,0,.25.25,0,0,1,0,.47A.91.91,0,0,1,8.57,37.75Z"/><path id="_Path_135" data-name="&lt;Path&gt;" class="cls-8" d="M10.74,38.94a.25.25,0,0,1,0-.47.91.91,0,0,1,.82,0,.25.25,0,0,1,0,.47A.91.91,0,0,1,10.74,38.94Z"/></g><path class="cls-9" d="M58.53,6.18,53.7,9q-.91-.53-1.52-.82a5.11,5.11,0,0,0-2.56-.44,6.11,6.11,0,0,0-1.4.43,16.19,16.19,0,0,0-1.69.8q-.8.44-2.24,1.28L37.76,14a24.47,24.47,0,0,1-6.92,2.93,9.77,9.77,0,0,1-5.44-.27,2.25,2.25,0,0,1,.49,3.15q-1.07,1.71-5,4l-6.52,3.79q-1.45.84-2.19,1.3a11.94,11.94,0,0,0-1.37,1,2.51,2.51,0,0,0-.73.81.94.94,0,0,0,.08.71,1.91,1.91,0,0,0,.69.77q.51.35,1.42.88L7.39,35.9Q5.51,34.81,4.23,34a15.61,15.61,0,0,1-2.14-1.65A8.27,8.27,0,0,1,.84,30.91a1.89,1.89,0,0,1-.3-1.31A2.91,2.91,0,0,1,1,28.33,6.94,6.94,0,0,1,2.38,27a22.3,22.3,0,0,1,2.06-1.47q1.09-.69,2.85-1.72l5.86-3.41q1.67-1,2.64-1.57t1.7-1.18a4.42,4.42,0,0,0,1-.91.9.9,0,0,0,.13-.72,1.25,1.25,0,0,0-.47-.68A9.46,9.46,0,0,0,17,14.6l4.81-2.79a11.28,11.28,0,0,0,1.27.65,3.79,3.79,0,0,0,1.18.27,4.25,4.25,0,0,0,1.24-.08,9,9,0,0,0,1.57-.56q1-.43,2-1t2.71-1.53l5.86-3.4q1.77-1,3-1.66t2.53-1.2a14.77,14.77,0,0,1,2.32-.79,12.35,12.35,0,0,1,2.19-.28,8.78,8.78,0,0,1,2.26.17,20.54,20.54,0,0,1,2.45.72A23.51,23.51,0,0,1,55.2,4.35Q56.65,5.09,58.53,6.18Z"/><polygon class="cls-10" points="58.53 4.46 58.51 11.11 53.68 13.92 53.7 7.26 58.53 4.46"/><path class="cls-7" d="M58.53,4.46,53.7,7.26q-.91-.53-1.52-.82A5.11,5.11,0,0,0,49.62,6a6.11,6.11,0,0,0-1.4.43,16.19,16.19,0,0,0-1.69.8q-.8.44-2.24,1.28l-6.52,3.79a24.47,24.47,0,0,1-6.92,2.93A9.77,9.77,0,0,1,25.41,15a2.25,2.25,0,0,1,.49,3.15q-1.07,1.71-5,4l-6.52,3.79q-1.45.84-2.19,1.3a11.94,11.94,0,0,0-1.37,1A2.51,2.51,0,0,0,10,29a.94.94,0,0,0,.08.71,1.91,1.91,0,0,0,.69.77q.51.35,1.42.88L7.39,34.18Q5.51,33.1,4.23,32.26a15.61,15.61,0,0,1-2.14-1.65A8.27,8.27,0,0,1,.84,29.19a1.89,1.89,0,0,1-.3-1.31A2.91,2.91,0,0,1,1,26.61a6.94,6.94,0,0,1,1.36-1.35A22.3,22.3,0,0,1,4.44,23.8q1.09-.69,2.85-1.72l5.86-3.41q1.67-1,2.64-1.57t1.7-1.18a4.42,4.42,0,0,0,1-.91.9.9,0,0,0,.13-.72,1.25,1.25,0,0,0-.47-.68A9.46,9.46,0,0,0,17,12.88l4.81-2.79a11.28,11.28,0,0,0,1.27.65,3.79,3.79,0,0,0,1.18.27,4.25,4.25,0,0,0,1.24-.08,9,9,0,0,0,1.57-.56q1-.43,2-1t2.71-1.53l5.86-3.4q1.77-1,3-1.66t2.53-1.2A14.77,14.77,0,0,1,45.45.8,12.35,12.35,0,0,1,47.63.51,8.78,8.78,0,0,1,49.9.68a20.54,20.54,0,0,1,2.45.72A23.51,23.51,0,0,1,55.2,2.63Q56.65,3.38,58.53,4.46Z"/><polygon class="cls-10" points="12.22 31.37 12.2 38.03 7.37 40.83 7.38 34.18 12.22 31.37"/></g><g id="_Group_2" data-name="&lt;Group&gt;"><path id="_Path_136" data-name="&lt;Path&gt;" class="cls-8" d="M212,137.9a.25.25,0,0,1,0,.48.91.91,0,0,1-.82,0,.25.25,0,0,1,0-.48A.91.91,0,0,1,212,137.9Z"/><path id="_Path_137" data-name="&lt;Path&gt;" class="cls-8" d="M214.16,136.66a.25.25,0,0,1,0,.48.91.91,0,0,1-.82,0,.25.25,0,0,1,0-.48A.91.91,0,0,1,214.16,136.66Z"/><path id="_Path_138" data-name="&lt;Path&gt;" class="cls-8" d="M216.31,135.41a.25.25,0,0,1,0,.48.91.91,0,0,1-.82,0,.25.25,0,0,1,0-.48A.91.91,0,0,1,216.31,135.41Z"/><path id="_Path_139" data-name="&lt;Path&gt;" class="cls-8" d="M218.47,134.17a.25.25,0,0,1,0,.48.91.91,0,0,1-.82,0,.25.25,0,0,1,0-.48A.91.91,0,0,1,218.47,134.17Z"/><path id="_Path_140" data-name="&lt;Path&gt;" class="cls-8" d="M220.62,132.93a.25.25,0,0,1,0,.48.91.91,0,0,1-.82,0,.25.25,0,0,1,0-.48A.91.91,0,0,1,220.62,132.93Z"/><path id="_Path_141" data-name="&lt;Path&gt;" class="cls-8" d="M222.77,131.68a.25.25,0,0,1,0,.48.91.91,0,0,1-.82,0,.25.25,0,0,1,0-.48A.91.91,0,0,1,222.77,131.68Z"/><path id="_Path_142" data-name="&lt;Path&gt;" class="cls-8" d="M224.93,130.44a.25.25,0,0,1,0,.48.91.91,0,0,1-.82,0,.25.25,0,0,1,0-.48A.91.91,0,0,1,224.93,130.44Z"/><path id="_Path_143" data-name="&lt;Path&gt;" class="cls-8" d="M227.08,129.2a.25.25,0,0,1,0,.48.91.91,0,0,1-.82,0,.25.25,0,0,1,0-.48A.91.91,0,0,1,227.08,129.2Z"/><path id="_Path_144" data-name="&lt;Path&gt;" class="cls-8" d="M203.39,140.38a.25.25,0,0,1,0,.48.91.91,0,0,1-.82,0,.25.25,0,0,1,0-.48A.91.91,0,0,1,203.39,140.38Z"/><path id="_Path_145" data-name="&lt;Path&gt;" class="cls-8" d="M205.55,139.14a.25.25,0,0,1,0,.48.91.91,0,0,1-.82,0,.25.25,0,0,1,0-.48A.91.91,0,0,1,205.55,139.14Z"/><path id="_Path_146" data-name="&lt;Path&gt;" class="cls-8" d="M207.7,137.9a.25.25,0,0,1,0,.48.91.91,0,0,1-.82,0,.25.25,0,0,1,0-.48A.91.91,0,0,1,207.7,137.9Z"/><path id="_Path_147" data-name="&lt;Path&gt;" class="cls-8" d="M209.85,136.66a.25.25,0,0,1,0,.48.91.91,0,0,1-.82,0,.25.25,0,0,1,0-.48A.91.91,0,0,1,209.85,136.66Z"/><path id="_Path_148" data-name="&lt;Path&gt;" class="cls-8" d="M212,135.41a.25.25,0,0,1,0,.48.91.91,0,0,1-.82,0,.25.25,0,0,1,0-.48A.91.91,0,0,1,212,135.41Z"/><path id="_Path_149" data-name="&lt;Path&gt;" class="cls-8" d="M214.16,134.17a.25.25,0,0,1,0,.48.91.91,0,0,1-.82,0,.25.25,0,0,1,0-.48A.91.91,0,0,1,214.16,134.17Z"/><path id="_Path_150" data-name="&lt;Path&gt;" class="cls-8" d="M216.31,132.93a.25.25,0,0,1,0,.48.91.91,0,0,1-.82,0,.25.25,0,0,1,0-.48A.91.91,0,0,1,216.31,132.93Z"/><path id="_Path_151" data-name="&lt;Path&gt;" class="cls-8" d="M218.47,131.68a.25.25,0,0,1,0,.48.91.91,0,0,1-.82,0,.25.25,0,0,1,0-.48A.91.91,0,0,1,218.47,131.68Z"/><path id="_Path_152" data-name="&lt;Path&gt;" class="cls-8" d="M220.62,130.44a.25.25,0,0,1,0,.48.91.91,0,0,1-.82,0,.25.25,0,0,1,0-.48A.91.91,0,0,1,220.62,130.44Z"/><path id="_Path_153" data-name="&lt;Path&gt;" class="cls-8" d="M222.77,129.2a.25.25,0,0,1,0,.48.91.91,0,0,1-.82,0,.25.25,0,0,1,0-.48A.91.91,0,0,1,222.77,129.2Z"/><path id="_Path_154" data-name="&lt;Path&gt;" class="cls-8" d="M224.93,128a.25.25,0,0,1,0,.48.91.91,0,0,1-.82,0,.25.25,0,0,1,0-.48A.91.91,0,0,1,224.93,128Z"/><path id="_Path_155" data-name="&lt;Path&gt;" class="cls-8" d="M201.24,139.14a.25.25,0,0,1,0,.48.91.91,0,0,1-.82,0,.25.25,0,0,1,0-.48A.91.91,0,0,1,201.24,139.14Z"/><path id="_Path_156" data-name="&lt;Path&gt;" class="cls-8" d="M203.39,137.9a.25.25,0,0,1,0,.48.91.91,0,0,1-.82,0,.25.25,0,0,1,0-.48A.91.91,0,0,1,203.39,137.9Z"/><path id="_Path_157" data-name="&lt;Path&gt;" class="cls-8" d="M205.55,136.66a.25.25,0,0,1,0,.48.91.91,0,0,1-.82,0,.25.25,0,0,1,0-.48A.91.91,0,0,1,205.55,136.66Z"/><path id="_Path_158" data-name="&lt;Path&gt;" class="cls-8" d="M207.7,135.41a.25.25,0,0,1,0,.48.91.91,0,0,1-.82,0,.25.25,0,0,1,0-.48A.91.91,0,0,1,207.7,135.41Z"/><path id="_Path_159" data-name="&lt;Path&gt;" class="cls-8" d="M209.85,134.17a.25.25,0,0,1,0,.48.91.91,0,0,1-.82,0,.25.25,0,0,1,0-.48A.91.91,0,0,1,209.85,134.17Z"/><path id="_Path_160" data-name="&lt;Path&gt;" class="cls-8" d="M212,132.93a.25.25,0,0,1,0,.48.91.91,0,0,1-.82,0,.25.25,0,0,1,0-.48A.91.91,0,0,1,212,132.93Z"/><path id="_Path_161" data-name="&lt;Path&gt;" class="cls-8" d="M214.16,131.68a.25.25,0,0,1,0,.48.91.91,0,0,1-.82,0,.25.25,0,0,1,0-.48A.91.91,0,0,1,214.16,131.68Z"/><path id="_Path_162" data-name="&lt;Path&gt;" class="cls-8" d="M216.31,130.44a.25.25,0,0,1,0,.48.91.91,0,0,1-.82,0,.25.25,0,0,1,0-.48A.91.91,0,0,1,216.31,130.44Z"/><path id="_Path_163" data-name="&lt;Path&gt;" class="cls-8" d="M218.47,129.2a.25.25,0,0,1,0,.48.91.91,0,0,1-.82,0,.25.25,0,0,1,0-.48A.91.91,0,0,1,218.47,129.2Z"/><path id="_Path_164" data-name="&lt;Path&gt;" class="cls-8" d="M220.62,128a.25.25,0,0,1,0,.48.91.91,0,0,1-.82,0,.25.25,0,0,1,0-.48A.91.91,0,0,1,220.62,128Z"/><path id="_Path_165" data-name="&lt;Path&gt;" class="cls-8" d="M222.77,126.71a.25.25,0,0,1,0,.48.91.91,0,0,1-.82,0,.25.25,0,0,1,0-.48A.91.91,0,0,1,222.77,126.71Z"/><path id="_Path_166" data-name="&lt;Path&gt;" class="cls-8" d="M194.78,140.38a.25.25,0,0,1,0,.48.91.91,0,0,1-.82,0,.25.25,0,0,1,0-.48A.91.91,0,0,1,194.78,140.38Z"/><path id="_Path_167" data-name="&lt;Path&gt;" class="cls-8" d="M196.94,139.14a.25.25,0,0,1,0,.48.91.91,0,0,1-.82,0,.25.25,0,0,1,0-.48A.91.91,0,0,1,196.94,139.14Z"/><path id="_Path_168" data-name="&lt;Path&gt;" class="cls-8" d="M199.09,137.9a.25.25,0,0,1,0,.48.91.91,0,0,1-.82,0,.25.25,0,0,1,0-.48A.91.91,0,0,1,199.09,137.9Z"/><path id="_Path_169" data-name="&lt;Path&gt;" class="cls-8" d="M201.24,136.66a.25.25,0,0,1,0,.48.91.91,0,0,1-.82,0,.25.25,0,0,1,0-.48A.91.91,0,0,1,201.24,136.66Z"/><path id="_Path_170" data-name="&lt;Path&gt;" class="cls-8" d="M203.39,135.41a.25.25,0,0,1,0,.48.91.91,0,0,1-.82,0,.25.25,0,0,1,0-.48A.91.91,0,0,1,203.39,135.41Z"/><path id="_Path_171" data-name="&lt;Path&gt;" class="cls-8" d="M205.55,134.17a.25.25,0,0,1,0,.48.91.91,0,0,1-.82,0,.25.25,0,0,1,0-.48A.91.91,0,0,1,205.55,134.17Z"/><path id="_Path_172" data-name="&lt;Path&gt;" class="cls-8" d="M207.7,132.93a.25.25,0,0,1,0,.48.91.91,0,0,1-.82,0,.25.25,0,0,1,0-.48A.91.91,0,0,1,207.7,132.93Z"/><path id="_Path_173" data-name="&lt;Path&gt;" class="cls-8" d="M209.85,131.68a.25.25,0,0,1,0,.48.91.91,0,0,1-.82,0,.25.25,0,0,1,0-.48A.91.91,0,0,1,209.85,131.68Z"/><path id="_Path_174" data-name="&lt;Path&gt;" class="cls-8" d="M212,130.44a.25.25,0,0,1,0,.48.91.91,0,0,1-.82,0,.25.25,0,0,1,0-.48A.91.91,0,0,1,212,130.44Z"/><path id="_Path_175" data-name="&lt;Path&gt;" class="cls-8" d="M214.16,129.2a.25.25,0,0,1,0,.48.91.91,0,0,1-.82,0,.25.25,0,0,1,0-.48A.91.91,0,0,1,214.16,129.2Z"/><path id="_Path_176" data-name="&lt;Path&gt;" class="cls-8" d="M216.31,128a.25.25,0,0,1,0,.48.91.91,0,0,1-.82,0,.25.25,0,0,1,0-.48A.91.91,0,0,1,216.31,128Z"/><path id="_Path_177" data-name="&lt;Path&gt;" class="cls-8" d="M218.47,126.71a.25.25,0,0,1,0,.48.91.91,0,0,1-.82,0,.25.25,0,0,1,0-.48A.91.91,0,0,1,218.47,126.71Z"/><path id="_Path_178" data-name="&lt;Path&gt;" class="cls-8" d="M220.62,125.47a.25.25,0,0,1,0,.48.91.91,0,0,1-.82,0,.25.25,0,0,1,0-.48A.91.91,0,0,1,220.62,125.47Z"/><path id="_Path_179" data-name="&lt;Path&gt;" class="cls-8" d="M190.48,140.38a.25.25,0,0,1,0,.48.91.91,0,0,1-.82,0,.25.25,0,0,1,0-.48A.91.91,0,0,1,190.48,140.38Z"/><path id="_Path_180" data-name="&lt;Path&gt;" class="cls-8" d="M192.63,139.14a.25.25,0,0,1,0,.48.91.91,0,0,1-.82,0,.25.25,0,0,1,0-.48A.91.91,0,0,1,192.63,139.14Z"/><path id="_Path_181" data-name="&lt;Path&gt;" class="cls-8" d="M194.78,137.9a.25.25,0,0,1,0,.48.91.91,0,0,1-.82,0,.25.25,0,0,1,0-.48A.91.91,0,0,1,194.78,137.9Z"/><path id="_Path_182" data-name="&lt;Path&gt;" class="cls-8" d="M196.94,136.66a.25.25,0,0,1,0,.48.91.91,0,0,1-.82,0,.25.25,0,0,1,0-.48A.91.91,0,0,1,196.94,136.66Z"/><path id="_Path_183" data-name="&lt;Path&gt;" class="cls-8" d="M199.09,135.41a.25.25,0,0,1,0,.48.91.91,0,0,1-.82,0,.25.25,0,0,1,0-.48A.91.91,0,0,1,199.09,135.41Z"/><path id="_Path_184" data-name="&lt;Path&gt;" class="cls-8" d="M201.24,134.17a.25.25,0,0,1,0,.48.91.91,0,0,1-.82,0,.25.25,0,0,1,0-.48A.91.91,0,0,1,201.24,134.17Z"/><path id="_Path_185" data-name="&lt;Path&gt;" class="cls-8" d="M203.39,132.93a.25.25,0,0,1,0,.48.91.91,0,0,1-.82,0,.25.25,0,0,1,0-.48A.91.91,0,0,1,203.39,132.93Z"/><path id="_Path_186" data-name="&lt;Path&gt;" class="cls-8" d="M205.55,131.68a.25.25,0,0,1,0,.48.91.91,0,0,1-.82,0,.25.25,0,0,1,0-.48A.91.91,0,0,1,205.55,131.68Z"/><path id="_Path_187" data-name="&lt;Path&gt;" class="cls-8" d="M207.7,130.44a.25.25,0,0,1,0,.48.91.91,0,0,1-.82,0,.25.25,0,0,1,0-.48A.91.91,0,0,1,207.7,130.44Z"/><path id="_Path_188" data-name="&lt;Path&gt;" class="cls-8" d="M209.85,129.2a.25.25,0,0,1,0,.48.91.91,0,0,1-.82,0,.25.25,0,0,1,0-.48A.91.91,0,0,1,209.85,129.2Z"/><path id="_Path_189" data-name="&lt;Path&gt;" class="cls-8" d="M212,128a.25.25,0,0,1,0,.48.91.91,0,0,1-.82,0,.25.25,0,0,1,0-.48A.91.91,0,0,1,212,128Z"/><path id="_Path_190" data-name="&lt;Path&gt;" class="cls-8" d="M214.16,126.71a.25.25,0,0,1,0,.48.91.91,0,0,1-.82,0,.25.25,0,0,1,0-.48A.91.91,0,0,1,214.16,126.71Z"/><path id="_Path_191" data-name="&lt;Path&gt;" class="cls-8" d="M216.31,125.47a.25.25,0,0,1,0,.48.91.91,0,0,1-.82,0,.25.25,0,0,1,0-.48A.91.91,0,0,1,216.31,125.47Z"/><path id="_Path_192" data-name="&lt;Path&gt;" class="cls-8" d="M218.47,124.22a.25.25,0,0,1,0,.48.91.91,0,0,1-.82,0,.25.25,0,0,1,0-.48A.91.91,0,0,1,218.47,124.22Z"/><path id="_Path_193" data-name="&lt;Path&gt;" class="cls-8" d="M188.32,139.14a.25.25,0,0,1,0,.48.91.91,0,0,1-.82,0,.25.25,0,0,1,0-.48A.91.91,0,0,1,188.32,139.14Z"/><path id="_Path_194" data-name="&lt;Path&gt;" class="cls-8" d="M190.48,137.9a.25.25,0,0,1,0,.48.91.91,0,0,1-.82,0,.25.25,0,0,1,0-.48A.91.91,0,0,1,190.48,137.9Z"/><path id="_Path_195" data-name="&lt;Path&gt;" class="cls-8" d="M192.63,136.66a.25.25,0,0,1,0,.48.91.91,0,0,1-.82,0,.25.25,0,0,1,0-.48A.91.91,0,0,1,192.63,136.66Z"/><path id="_Path_196" data-name="&lt;Path&gt;" class="cls-8" d="M194.78,135.41a.25.25,0,0,1,0,.48.91.91,0,0,1-.82,0,.25.25,0,0,1,0-.48A.91.91,0,0,1,194.78,135.41Z"/><path id="_Path_197" data-name="&lt;Path&gt;" class="cls-8" d="M196.94,134.17a.25.25,0,0,1,0,.48.91.91,0,0,1-.82,0,.25.25,0,0,1,0-.48A.91.91,0,0,1,196.94,134.17Z"/><path id="_Path_198" data-name="&lt;Path&gt;" class="cls-8" d="M199.09,132.93a.25.25,0,0,1,0,.48.91.91,0,0,1-.82,0,.25.25,0,0,1,0-.48A.91.91,0,0,1,199.09,132.93Z"/><path id="_Path_199" data-name="&lt;Path&gt;" class="cls-8" d="M201.24,131.68a.25.25,0,0,1,0,.48.91.91,0,0,1-.82,0,.25.25,0,0,1,0-.48A.91.91,0,0,1,201.24,131.68Z"/><path id="_Path_200" data-name="&lt;Path&gt;" class="cls-8" d="M203.39,130.44a.25.25,0,0,1,0,.48.91.91,0,0,1-.82,0,.25.25,0,0,1,0-.48A.91.91,0,0,1,203.39,130.44Z"/><path id="_Path_201" data-name="&lt;Path&gt;" class="cls-8" d="M205.55,129.2a.25.25,0,0,1,0,.48.91.91,0,0,1-.82,0,.25.25,0,0,1,0-.48A.91.91,0,0,1,205.55,129.2Z"/><path id="_Path_202" data-name="&lt;Path&gt;" class="cls-8" d="M207.7,128a.25.25,0,0,1,0,.48.91.91,0,0,1-.82,0,.25.25,0,0,1,0-.48Z"/><path id="_Path_203" data-name="&lt;Path&gt;" class="cls-8" d="M186.17,137.9a.25.25,0,0,1,0,.48.91.91,0,0,1-.82,0,.25.25,0,0,1,0-.48A.91.91,0,0,1,186.17,137.9Z"/><path id="_Path_204" data-name="&lt;Path&gt;" class="cls-8" d="M188.32,136.66a.25.25,0,0,1,0,.48.91.91,0,0,1-.82,0,.25.25,0,0,1,0-.48A.91.91,0,0,1,188.32,136.66Z"/><path id="_Path_205" data-name="&lt;Path&gt;" class="cls-8" d="M190.48,135.41a.25.25,0,0,1,0,.48.91.91,0,0,1-.82,0,.25.25,0,0,1,0-.48A.91.91,0,0,1,190.48,135.41Z"/><path id="_Path_206" data-name="&lt;Path&gt;" class="cls-8" d="M192.63,134.17a.25.25,0,0,1,0,.48.91.91,0,0,1-.82,0,.25.25,0,0,1,0-.48A.91.91,0,0,1,192.63,134.17Z"/><path id="_Path_207" data-name="&lt;Path&gt;" class="cls-8" d="M194.78,132.93a.25.25,0,0,1,0,.48.91.91,0,0,1-.82,0,.25.25,0,0,1,0-.48A.91.91,0,0,1,194.78,132.93Z"/><path id="_Path_208" data-name="&lt;Path&gt;" class="cls-8" d="M196.94,131.68a.25.25,0,0,1,0,.48.91.91,0,0,1-.82,0,.25.25,0,0,1,0-.48A.91.91,0,0,1,196.94,131.68Z"/><path id="_Path_209" data-name="&lt;Path&gt;" class="cls-8" d="M199.09,130.44a.25.25,0,0,1,0,.48.91.91,0,0,1-.82,0,.25.25,0,0,1,0-.48Z"/><path id="_Path_210" data-name="&lt;Path&gt;" class="cls-8" d="M184,136.64a.25.25,0,0,1,0,.48.91.91,0,0,1-.82,0,.25.25,0,0,1,0-.48A.91.91,0,0,1,184,136.64Z"/><path id="_Path_211" data-name="&lt;Path&gt;" class="cls-8" d="M186.15,135.4a.25.25,0,0,1,0,.48.91.91,0,0,1-.82,0,.25.25,0,0,1,0-.48A.91.91,0,0,1,186.15,135.4Z"/><path id="_Path_212" data-name="&lt;Path&gt;" class="cls-8" d="M188.3,134.16a.25.25,0,0,1,0,.48.91.91,0,0,1-.82,0,.25.25,0,0,1,0-.48A.91.91,0,0,1,188.3,134.16Z"/><path id="_Path_213" data-name="&lt;Path&gt;" class="cls-8" d="M190.46,132.91a.25.25,0,0,1,0,.48.91.91,0,0,1-.82,0,.25.25,0,0,1,0-.48A.91.91,0,0,1,190.46,132.91Z"/><path id="_Path_214" data-name="&lt;Path&gt;" class="cls-8" d="M192.61,131.67a.25.25,0,0,1,0,.48.91.91,0,0,1-.82,0,.25.25,0,0,1,0-.48A.91.91,0,0,1,192.61,131.67Z"/><path id="_Path_215" data-name="&lt;Path&gt;" class="cls-8" d="M184,134.16a.25.25,0,0,1,0,.48.91.91,0,0,1-.82,0,.25.25,0,0,1,0-.48A.91.91,0,0,1,184,134.16Z"/><path id="_Path_216" data-name="&lt;Path&gt;" class="cls-8" d="M186.15,132.91a.25.25,0,0,1,0,.48.91.91,0,0,1-.82,0,.25.25,0,0,1,0-.48A.91.91,0,0,1,186.15,132.91Z"/><path id="_Path_217" data-name="&lt;Path&gt;" class="cls-8" d="M188.3,131.67a.25.25,0,0,1,0,.48.91.91,0,0,1-.82,0,.25.25,0,0,1,0-.48A.91.91,0,0,1,188.3,131.67Z"/><path id="_Path_218" data-name="&lt;Path&gt;" class="cls-8" d="M190.46,130.9a.91.91,0,0,1-.82,0,.25.25,0,0,1,0-.48Z"/><path id="_Path_219" data-name="&lt;Path&gt;" class="cls-8" d="M184,131.67a.25.25,0,0,1,0,.48.91.91,0,0,1-.82,0,.25.25,0,0,1,0-.48A.91.91,0,0,1,184,131.67Z"/><path id="_Path_220" data-name="&lt;Path&gt;" class="cls-8" d="M186.15,130.43a.25.25,0,0,1,0,.48.91.91,0,0,1-.82,0,.25.25,0,0,1,0-.48A.91.91,0,0,1,186.15,130.43Z"/><path id="_Path_221" data-name="&lt;Path&gt;" class="cls-8" d="M184,129.18a.25.25,0,0,1,0,.48.91.91,0,0,1-.82,0,.25.25,0,0,1,0-.48A.91.91,0,0,1,184,129.18Z"/><path id="_Path_222" data-name="&lt;Path&gt;" class="cls-8" d="M228.41,128a.91.91,0,0,1,.82,0,.25.25,0,0,1,0,.48.91.91,0,0,1-.82,0A.25.25,0,0,1,228.41,128Z"/><path id="_Path_223" data-name="&lt;Path&gt;" class="cls-8" d="M231.39,126.73a.25.25,0,0,1,0,.48.91.91,0,0,1-.82,0,.25.25,0,0,1,0-.48A.91.91,0,0,1,231.39,126.73Z"/><path id="_Path_224" data-name="&lt;Path&gt;" class="cls-8" d="M226.26,126.73a.91.91,0,0,1,.82,0,.25.25,0,0,1,0,.48.91.91,0,0,1-.82,0A.25.25,0,0,1,226.26,126.73Z"/><path id="_Path_225" data-name="&lt;Path&gt;" class="cls-8" d="M229.24,125.48a.25.25,0,0,1,0,.48.91.91,0,0,1-.82,0,.25.25,0,0,1,0-.48A.91.91,0,0,1,229.24,125.48Z"/><path id="_Path_226" data-name="&lt;Path&gt;" class="cls-8" d="M231.39,124.24a.25.25,0,0,1,0,.48.91.91,0,0,1-.82,0,.25.25,0,0,1,0-.48A.91.91,0,0,1,231.39,124.24Z"/><path id="_Path_227" data-name="&lt;Path&gt;" class="cls-8" d="M233.55,123a.25.25,0,0,1,0,.48.91.91,0,0,1-.82,0,.25.25,0,0,1,0-.48A.91.91,0,0,1,233.55,123Z"/><path id="_Path_228" data-name="&lt;Path&gt;" class="cls-8" d="M235.7,121.75a.25.25,0,0,1,0,.48.91.91,0,0,1-.82,0,.25.25,0,0,1,0-.48A.91.91,0,0,1,235.7,121.75Z"/><path id="_Path_229" data-name="&lt;Path&gt;" class="cls-8" d="M224.11,125.48a.91.91,0,0,1,.82,0,.25.25,0,0,1,0,.48.91.91,0,0,1-.82,0A.25.25,0,0,1,224.11,125.48Z"/><path id="_Path_230" data-name="&lt;Path&gt;" class="cls-8" d="M227.09,124.24a.25.25,0,0,1,0,.48.91.91,0,0,1-.82,0,.25.25,0,0,1,0-.48A.91.91,0,0,1,227.09,124.24Z"/><path id="_Path_231" data-name="&lt;Path&gt;" class="cls-8" d="M229.24,123a.25.25,0,0,1,0,.48.91.91,0,0,1-.82,0,.25.25,0,0,1,0-.48A.91.91,0,0,1,229.24,123Z"/><path id="_Path_232" data-name="&lt;Path&gt;" class="cls-8" d="M231.39,121.75a.25.25,0,0,1,0,.48.91.91,0,0,1-.82,0,.25.25,0,0,1,0-.48A.91.91,0,0,1,231.39,121.75Z"/><path id="_Path_233" data-name="&lt;Path&gt;" class="cls-8" d="M233.55,120.51a.25.25,0,0,1,0,.48.91.91,0,0,1-.82,0,.25.25,0,0,1,0-.48A.91.91,0,0,1,233.55,120.51Z"/><path id="_Path_234" data-name="&lt;Path&gt;" class="cls-8" d="M235.7,119.27a.25.25,0,0,1,0,.48.91.91,0,0,1-.82,0,.25.25,0,0,1,0-.48A.91.91,0,0,1,235.7,119.27Z"/><path id="_Path_235" data-name="&lt;Path&gt;" class="cls-8" d="M222,124.24a.91.91,0,0,1,.82,0,.25.25,0,0,1,0,.48.91.91,0,0,1-.82,0A.25.25,0,0,1,222,124.24Z"/><path id="_Path_236" data-name="&lt;Path&gt;" class="cls-8" d="M224.93,123a.25.25,0,0,1,0,.48.91.91,0,0,1-.82,0,.25.25,0,0,1,0-.48A.91.91,0,0,1,224.93,123Z"/><path id="_Path_237" data-name="&lt;Path&gt;" class="cls-8" d="M227.09,121.75a.25.25,0,0,1,0,.48.91.91,0,0,1-.82,0,.25.25,0,0,1,0-.48A.91.91,0,0,1,227.09,121.75Z"/><path id="_Path_238" data-name="&lt;Path&gt;" class="cls-8" d="M229.24,120.51a.25.25,0,0,1,0,.48.91.91,0,0,1-.82,0,.25.25,0,0,1,0-.48A.91.91,0,0,1,229.24,120.51Z"/><path id="_Path_239" data-name="&lt;Path&gt;" class="cls-8" d="M231.39,119.27a.25.25,0,0,1,0,.48.91.91,0,0,1-.82,0,.25.25,0,0,1,0-.48A.91.91,0,0,1,231.39,119.27Z"/><path id="_Path_240" data-name="&lt;Path&gt;" class="cls-8" d="M233.55,118a.25.25,0,0,1,0,.48.91.91,0,0,1-.82,0,.25.25,0,0,1,0-.48A.91.91,0,0,1,233.55,118Z"/><path id="_Path_241" data-name="&lt;Path&gt;" class="cls-8" d="M235.7,116.78a.25.25,0,0,1,0,.48.91.91,0,0,1-.82,0,.25.25,0,0,1,0-.48A.91.91,0,0,1,235.7,116.78Z"/><path id="_Path_242" data-name="&lt;Path&gt;" class="cls-8" d="M237.85,115.54a.25.25,0,0,1,0,.48.91.91,0,0,1-.82,0,.25.25,0,0,1,0-.48A.91.91,0,0,1,237.85,115.54Z"/><path id="_Path_243" data-name="&lt;Path&gt;" class="cls-8" d="M224.11,120.51a.91.91,0,0,1,.82,0,.25.25,0,0,1,0,.48.91.91,0,0,1-.82,0Z"/><path id="_Path_244" data-name="&lt;Path&gt;" class="cls-8" d="M227.09,119.27a.25.25,0,0,1,0,.48.91.91,0,0,1-.82,0,.25.25,0,0,1,0-.48A.91.91,0,0,1,227.09,119.27Z"/><path id="_Path_245" data-name="&lt;Path&gt;" class="cls-8" d="M229.24,118a.25.25,0,0,1,0,.48.91.91,0,0,1-.82,0,.25.25,0,0,1,0-.48A.91.91,0,0,1,229.24,118Z"/><path id="_Path_246" data-name="&lt;Path&gt;" class="cls-8" d="M231.39,116.78a.25.25,0,0,1,0,.48.91.91,0,0,1-.82,0,.25.25,0,0,1,0-.48A.91.91,0,0,1,231.39,116.78Z"/><path id="_Path_247" data-name="&lt;Path&gt;" class="cls-8" d="M233.55,115.54a.25.25,0,0,1,0,.48.91.91,0,0,1-.82,0,.25.25,0,0,1,0-.48A.91.91,0,0,1,233.55,115.54Z"/><path id="_Path_248" data-name="&lt;Path&gt;" class="cls-8" d="M235.7,114.3a.25.25,0,0,1,0,.48.91.91,0,0,1-.82,0,.25.25,0,0,1,0-.48A.91.91,0,0,1,235.7,114.3Z"/><path id="_Path_249" data-name="&lt;Path&gt;" class="cls-8" d="M237.85,113.05a.25.25,0,0,1,0,.48.91.91,0,0,1-.82,0,.25.25,0,0,1,0-.48A.91.91,0,0,1,237.85,113.05Z"/><path id="_Path_250" data-name="&lt;Path&gt;" class="cls-8" d="M229.24,115.54a.25.25,0,0,1,0,.48.91.91,0,0,1-.82,0,.25.25,0,0,1,0-.48A.91.91,0,0,1,229.24,115.54Z"/><path id="_Path_251" data-name="&lt;Path&gt;" class="cls-8" d="M231.39,114.3a.25.25,0,0,1,0,.48.91.91,0,0,1-.82,0,.25.25,0,0,1,0-.48A.91.91,0,0,1,231.39,114.3Z"/><path id="_Path_252" data-name="&lt;Path&gt;" class="cls-8" d="M233.55,113.05a.25.25,0,0,1,0,.48.91.91,0,0,1-.82,0,.25.25,0,0,1,0-.48A.91.91,0,0,1,233.55,113.05Z"/><path id="_Path_253" data-name="&lt;Path&gt;" class="cls-8" d="M235.7,111.81a.25.25,0,0,1,0,.48.91.91,0,0,1-.82,0,.25.25,0,0,1,0-.48A.91.91,0,0,1,235.7,111.81Z"/><path id="_Path_254" data-name="&lt;Path&gt;" class="cls-8" d="M237.85,110.57a.25.25,0,0,1,0,.48.91.91,0,0,1-.82,0,.25.25,0,0,1,0-.48A.91.91,0,0,1,237.85,110.57Z"/><path id="_Path_255" data-name="&lt;Path&gt;" class="cls-8" d="M231.39,111.81a.25.25,0,0,1,0,.48.91.91,0,0,1-.82,0,.25.25,0,0,1,0-.48A.91.91,0,0,1,231.39,111.81Z"/><path id="_Path_256" data-name="&lt;Path&gt;" class="cls-8" d="M233.55,110.57a.25.25,0,0,1,0,.48.91.91,0,0,1-.82,0,.25.25,0,0,1,0-.48A.91.91,0,0,1,233.55,110.57Z"/><path id="_Path_257" data-name="&lt;Path&gt;" class="cls-8" d="M235.7,109.32a.25.25,0,0,1,0,.48.91.91,0,0,1-.82,0,.25.25,0,0,1,0-.48A.91.91,0,0,1,235.7,109.32Z"/><path id="_Path_258" data-name="&lt;Path&gt;" class="cls-8" d="M230.55,109.31a.91.91,0,0,1,.82,0,.25.25,0,0,1,0,.48.91.91,0,0,1-.82,0Z"/></g><g class="cls-3"><path d="M226.66,105.94l0,6.6a1.19,1.19,0,0,0-.12-.48,1.9,1.9,0,0,0-.69-.76q-.5-.35-1.41-.87l0-6.6q.91.52,1.41.87a1.9,1.9,0,0,1,.69.76A1.19,1.19,0,0,1,226.66,105.94Z"/><path d="M210.43,124.92l0-6.6a2.44,2.44,0,0,0,.92,1.79l0,6.6A2.44,2.44,0,0,1,210.43,124.92Z"/><path class="cls-11" d="M236,107.29a2.89,2.89,0,0,1-.48,1.26,6.9,6.9,0,0,1-1.35,1.34,22.41,22.41,0,0,1-2,1.46q-1.08.69-2.83,1.7l-5.81,3.38q-1.66,1-2.62,1.56t-1.69,1.17a4.34,4.34,0,0,0-.95.9.91.91,0,0,0-.16.5l0,6.6a.91.91,0,0,1,.16-.5,4.34,4.34,0,0,1,.95-.9q.73-.57,1.69-1.17T223.5,123l5.81-3.38q1.75-1,2.83-1.7a22.41,22.41,0,0,0,2-1.46,6.9,6.9,0,0,0,1.35-1.34,2.89,2.89,0,0,0,.48-1.26,2,2,0,0,0,0-.26l0-6.6A2,2,0,0,1,236,107.29Z"/><polygon class="cls-11" points="219.72 122.18 219.7 128.78 214.93 131.55 214.95 124.95 219.72 122.18"/><path class="cls-11" d="M213.69,124.31a3.78,3.78,0,0,0-1.17-.27,4.25,4.25,0,0,0-1.23.08,8.9,8.9,0,0,0-1.56.55q-1,.42-2,1T205,127.17s-9.14,5.23-11.25,6.21a12.72,12.72,0,0,1-6.72.9l0,6.6a13.46,13.46,0,0,0,8.24-1.58l9.73-5.53q1.65-1,2.69-1.52t2-1a8.91,8.91,0,0,1,1.56-.55,4.25,4.25,0,0,1,1.23-.08,3.78,3.78,0,0,1,1.17.27,11.38,11.38,0,0,1,1.26.64l0-6.6A11.37,11.37,0,0,0,213.69,124.31Z"/><path class="cls-6" d="M187,140.88a20.38,20.38,0,0,1-2.43-.71,23.7,23.7,0,0,1-2.83-1.22q-1.44-.74-3.3-1.81l0-6.6q1.86,1.07,3.3,1.81a23.7,23.7,0,0,0,2.83,1.22,20.38,20.38,0,0,0,2.43.71"/><path class="cls-12" d="M196.27,138.79q-1.18.63-2.51,1.19a14.63,14.63,0,0,1-2.3.79,12.21,12.21,0,0,1-2.17.28,8.77,8.77,0,0,1-2.25-.17,20.38,20.38,0,0,1-2.43-.71,23.7,23.7,0,0,1-2.83-1.22q-1.44-.74-3.3-1.81l0-6.6q1.86,1.07,3.3,1.81a23.7,23.7,0,0,0,2.83,1.22,20.38,20.38,0,0,0,2.43.71,8.77,8.77,0,0,0,2.25.17,12.21,12.21,0,0,0,2.17-.28,14.63,14.63,0,0,0,2.3-.79q1.33-.56,2.51-1.19"/><path class="cls-6" d="M229.24,101q1.86,1.07,3.13,1.91a15.31,15.31,0,0,1,2.12,1.63,8.21,8.21,0,0,1,1.24,1.41,1.87,1.87,0,0,1,.3,1.3,2.89,2.89,0,0,1-.48,1.26,6.9,6.9,0,0,1-1.35,1.34,22.4,22.4,0,0,1-2,1.46q-1.08.69-2.83,1.7l-5.81,3.38q-1.66,1-2.62,1.56t-1.69,1.17a4.34,4.34,0,0,0-.95.9.89.89,0,0,0-.13.71,1.23,1.23,0,0,0,.47.68,9.23,9.23,0,0,0,1.11.73l-4.77,2.77a11.37,11.37,0,0,0-1.26-.64,3.78,3.78,0,0,0-1.17-.27,4.25,4.25,0,0,0-1.23.08,8.91,8.91,0,0,0-1.56.55q-1,.42-2,1T205,127.17l-5.81,3.38q-1.75,1-2.93,1.65t-2.51,1.19a14.63,14.63,0,0,1-2.3.79,12.21,12.21,0,0,1-2.17.28,8.77,8.77,0,0,1-2.25-.17,20.38,20.38,0,0,1-2.43-.71,23.7,23.7,0,0,1-2.83-1.22q-1.44-.74-3.3-1.81l4.79-2.79c.6.35,1.1.62,1.51.81a4.53,4.53,0,0,0,1.32.4,4.63,4.63,0,0,0,1.22,0,6.1,6.1,0,0,0,1.39-.42,16.35,16.35,0,0,0,1.68-.79q.79-.43,2.23-1.27l6.47-3.76a24.28,24.28,0,0,1,6.87-2.91,9.69,9.69,0,0,1,5.39.27,2.23,2.23,0,0,1-.48-3.12q1.06-1.7,5-4l6.47-3.76q1.43-.83,2.18-1.29a12,12,0,0,0,1.36-1,2.48,2.48,0,0,0,.73-.81.94.94,0,0,0-.08-.71,1.9,1.9,0,0,0-.69-.76q-.5-.35-1.41-.87Z"/><path class="cls-9" d="M229.24,102.84q1.86,1.07,3.13,1.91a15.31,15.31,0,0,1,2.12,1.63,8.21,8.21,0,0,1,1.24,1.41,1.87,1.87,0,0,1,.3,1.3,2.89,2.89,0,0,1-.48,1.26,6.9,6.9,0,0,1-1.35,1.34,22.4,22.4,0,0,1-2,1.46q-1.08.69-2.83,1.7l-5.81,3.38q-1.66,1-2.62,1.56T219.21,121a4.34,4.34,0,0,0-.95.9.89.89,0,0,0-.13.71,1.23,1.23,0,0,0,.47.68,9.23,9.23,0,0,0,1.11.73l-4.77,2.77a11.37,11.37,0,0,0-1.26-.64,3.78,3.78,0,0,0-1.17-.27,4.25,4.25,0,0,0-1.23.08,8.91,8.91,0,0,0-1.56.55q-1,.42-2,1T205,129l-5.81,3.38q-1.75,1-2.93,1.65t-2.51,1.19a14.63,14.63,0,0,1-2.3.79,12.21,12.21,0,0,1-2.17.28,8.77,8.77,0,0,1-2.25-.17,20.38,20.38,0,0,1-2.43-.71,23.7,23.7,0,0,1-2.83-1.22q-1.44-.74-3.3-1.81l4.79-2.79c.6.35,1.1.62,1.51.81a4.53,4.53,0,0,0,1.32.4,4.63,4.63,0,0,0,1.22,0,6.1,6.1,0,0,0,1.39-.42,16.35,16.35,0,0,0,1.68-.79q.79-.43,2.23-1.27l6.47-3.76a24.28,24.28,0,0,1,6.87-2.91,9.69,9.69,0,0,1,5.39.27,2.23,2.23,0,0,1-.48-3.12q1.06-1.7,5-4l6.47-3.76q1.43-.83,2.18-1.29a12,12,0,0,0,1.36-1,2.48,2.48,0,0,0,.73-.81.94.94,0,0,0-.08-.71,1.9,1.9,0,0,0-.69-.76q-.5-.35-1.41-.87Z"/><polygon class="cls-12" points="219.72 122.18 219.7 128.78 214.93 131.55 214.95 124.95 219.72 122.18"/><path class="cls-12" d="M229.24,101q1.86,1.07,3.13,1.91a15.31,15.31,0,0,1,2.12,1.63,8.21,8.21,0,0,1,1.24,1.41,1.87,1.87,0,0,1,.3,1.3,2.89,2.89,0,0,1-.48,1.26,6.9,6.9,0,0,1-1.35,1.34,22.4,22.4,0,0,1-2,1.46q-1.08.69-2.83,1.7l-5.81,3.38q-1.66,1-2.62,1.56t-1.69,1.17a4.34,4.34,0,0,0-.95.9.89.89,0,0,0-.13.71,1.23,1.23,0,0,0,.47.68,9.23,9.23,0,0,0,1.11.73l-4.77,2.77a11.37,11.37,0,0,0-1.26-.64,3.78,3.78,0,0,0-1.17-.27,4.25,4.25,0,0,0-1.23.08,8.91,8.91,0,0,0-1.56.55q-1,.42-2,1T205,127.17l-5.81,3.38q-1.75,1-2.93,1.65t-2.51,1.19a14.63,14.63,0,0,1-2.3.79,12.21,12.21,0,0,1-2.17.28,8.77,8.77,0,0,1-2.25-.17,20.38,20.38,0,0,1-2.43-.71,23.7,23.7,0,0,1-2.83-1.22q-1.44-.74-3.3-1.81l4.79-2.79c.6.35,1.1.62,1.51.81a4.53,4.53,0,0,0,1.32.4,4.63,4.63,0,0,0,1.22,0,6.1,6.1,0,0,0,1.39-.42,16.35,16.35,0,0,0,1.68-.79q.79-.43,2.23-1.27l6.47-3.76a24.28,24.28,0,0,1,6.87-2.91,9.69,9.69,0,0,1,5.39.27,2.23,2.23,0,0,1-.48-3.12q1.06-1.7,5-4l6.47-3.76q1.43-.83,2.18-1.29a12,12,0,0,0,1.36-1,2.48,2.48,0,0,0,.73-.81.94.94,0,0,0-.08-.71,1.9,1.9,0,0,0-.69-.76q-.5-.35-1.41-.87Z"/></g></g></g></svg>