<svg xmlns="http://www.w3.org/2000/svg" viewBox="0 0 89.97 58.09"><defs><style>.cls-1{fill:#fff;}</style></defs><title>Wind 1</title><g id="Layer_2" data-name="Layer 2"><g id="Contact"><g id="_8" data-name="8"><g id="_Group_" data-name="&lt;Group&gt;"><g id="_Group_2" data-name="&lt;Group&gt;"><path id="_Path_" data-name="&lt;Path&gt;" class="cls-1" d="M8.15,58.09H0V55.87A18.09,18.09,0,0,1,8.42,41.29l3.75-2.17c3-1.72,6.11-1.88,8.59-.45s3.91,4.23,3.91,7.66c0,.11,0,.21,0,.29l.26-.14,4.13-2.38a10.08,10.08,0,0,0,4.34-7.52A18.09,18.09,0,0,1,41.82,22l3.57-2.06c3-1.72,6.11-1.88,8.59-.45s3.91,4.22,3.91,7.66c0,.11,0,.2,0,.29l.26-.14,3-1.73a10.08,10.08,0,0,0,4.34-7.52A18.09,18.09,0,0,1,73.91,3.48l3.56-2.06c3-1.72,6.1-1.88,8.59-.45S90,5.2,90,8.63V11.5H81.82V8.63c0-.11,0-.2,0-.29l-.26.14L78,10.53a10.08,10.08,0,0,0-4.34,7.52,18.09,18.09,0,0,1-8.42,14.58l-3,1.73c-3,1.72-6.1,1.88-8.59.45s-3.91-4.23-3.91-7.66c0-.11,0-.2,0-.29l-.26.14L45.9,29.06a10.08,10.08,0,0,0-4.34,7.52,18.09,18.09,0,0,1-8.42,14.58L29,53.55c-3,1.72-6.1,1.88-8.59.45s-3.91-4.23-3.91-7.66c0-.11,0-.2,0-.29l-.26.14-3.75,2.17a10.08,10.08,0,0,0-4.34,7.52Z"/></g></g></g></g></g></svg>