<svg xmlns="http://www.w3.org/2000/svg" viewBox="0 0 544.44 170.52"><defs><style>.cls-1{fill:#fff;}</style></defs><title>Wind 2</title><g id="Layer_2" data-name="Layer 2"><g id="Contact"><g id="_Group_" data-name="&lt;Group&gt;"><g id="_Group_2" data-name="&lt;Group&gt;"><g id="_Group_3" data-name="&lt;Group&gt;"><path id="_Compound_Path_" data-name="&lt;Compound Path&gt;" class="cls-1" d="M16.7,170.52H0v-7.36c0-14,9.47-30.36,21.56-37.34l10.22-5.9c7.22-4.18,14.75-4.63,20.64-1.22s9.27,10.13,9.27,18.48c0,2.75.74,3.89.93,4s1.54.15,3.92-1.23l11.24-6.49c7-4.06,13.2-14.75,13.2-22.87,0-14,9.47-30.35,21.56-37.33l9.72-5.61c7.23-4.18,14.75-4.62,20.64-1.22s9.27,10.13,9.27,18.48c0,2.75.74,3.89.93,4s1.55.15,3.93-1.23L165.19,83c7-4.06,13.21-14.74,13.21-22.87,0-14,9.47-30.36,21.56-37.34l9.71-5.61C216.89,13,224.42,12.6,230.31,16s9.26,10.13,9.26,18.48v9.14h-16.7V34.48c0-2.75-.74-3.89-.93-4s-1.54-.16-3.93,1.22l-9.71,5.61c-7,4.06-13.2,14.75-13.2,22.87,0,14-9.47,30.35-21.56,37.33l-8.18,4.72c-7.23,4.18-14.75,4.62-20.64,1.22s-9.27-10.13-9.27-18.48c0-2.75-.74-3.89-.93-4s-1.54-.15-3.92,1.23l-9.72,5.61c-7,4.06-13.21,14.75-13.21,22.87,0,14-9.47,30.36-21.55,37.34l-11.24,6.49c-7.23,4.17-14.75,4.62-20.64,1.22S45,145.53,45,137.19c0-2.75-.74-3.89-.93-4s-1.55-.14-3.93,1.23l-10.22,5.9c-7,4.06-13.21,14.75-13.21,22.87ZM2.63,167.89H14.07v-4.74c0-8.93,6.78-20.68,14.52-25.14l10.22-5.9c2.7-1.56,5.15-2,6.55-1.23s2.24,3.17,2.24,6.3c0,7.38,2.9,13.29,8,16.21s11.62,2.47,18-1.22l11.24-6.49c11.35-6.55,20.24-22,20.24-35.06,0-8.93,6.78-20.68,14.52-25.14l9.72-5.61c2.7-1.56,5.15-2,6.55-1.23s2.24,3.17,2.24,6.3c0,7.39,2.9,13.29,8,16.21s11.62,2.47,18-1.21l8.18-4.72c11.35-6.56,20.24-22,20.24-35.06,0-8.93,6.78-20.68,14.52-25.14l9.71-5.61c2.72-1.57,5.18-2,6.57-1.21s2.22,3.15,2.22,6.29V41h11.45V34.48c0-7.38-2.9-13.29-8-16.21s-11.62-2.48-18,1.22l-9.71,5.61C189.92,31.65,181,47.05,181,60.16c0,8.93-6.78,20.68-14.52,25.14L158.33,90c-2.73,1.58-5.19,2-6.58,1.21s-2.22-3.15-2.22-6.29c0-7.38-2.9-13.29-8-16.21S130,66.26,123.57,70l-9.72,5.61c-11.35,6.56-20.24,22-20.24,35.06,0,8.93-6.78,20.68-14.51,25.15l-11.24,6.49c-2.72,1.57-5.17,2-6.56,1.22s-2.23-3.16-2.23-6.29c0-7.38-2.9-13.29-8-16.21s-11.62-2.48-18,1.22l-10.22,5.9c-11.35,6.55-20.25,22-20.25,35.06Z"/></g></g><g id="_Group_4" data-name="&lt;Group&gt;"><g id="_Group_5" data-name="&lt;Group&gt;"><path id="_Compound_Path_2" data-name="&lt;Compound Path&gt;" class="cls-1" d="M414.7,91.76H404.49V87.23c0-8.2,5.57-17.84,12.67-21.94l6-3.44c4.28-2.48,8.75-2.73,12.26-.71s5.52,6,5.52,11a3.63,3.63,0,0,0,.45,2.16,5,5,0,0,0,2-.74l6.55-3.78c4-2.29,7.56-8.53,7.56-13.1,0-8.2,5.56-17.84,12.67-21.95l5.66-3.27c4.29-2.48,8.76-2.73,12.26-.71s5.52,6,5.52,11a3.65,3.65,0,0,0,.45,2.16,4.85,4.85,0,0,0,2-.74l4.76-2.75c4-2.28,7.56-8.53,7.56-13.1,0-8.2,5.56-17.84,12.67-21.94l5.66-3.26c4.28-2.48,8.75-2.74,12.26-.71s5.52,6,5.52,11v5.56H534.22V12.33a3.67,3.67,0,0,0-.45-2.16,4.93,4.93,0,0,0-2,.74l-5.66,3.27c-4,2.29-7.56,8.53-7.56,13.1,0,8.2-5.56,17.84-12.67,21.95L501.12,52c-4.29,2.47-8.76,2.73-12.26.71s-5.52-6-5.52-11a3.64,3.64,0,0,0-.45-2.16,5,5,0,0,0-2,.74l-5.66,3.27c-4,2.28-7.56,8.53-7.56,13.1,0,8.2-5.56,17.84-12.67,21.94l-6.55,3.78c-4.28,2.48-8.75,2.73-12.26.71s-5.52-6-5.52-11a3.64,3.64,0,0,0-.45-2.16,5.11,5.11,0,0,0-2,.74l-6,3.43c-4,2.29-7.56,8.53-7.56,13.1Zm-8.19-2h6.17V87.23c0-5.37,3.93-12.17,8.57-14.85l6-3.44c1.65-1,3.17-1.22,4.06-.72s1.43,2,1.43,3.88c0,4.21,1.64,7.57,4.51,9.22s6.6,1.39,10.24-.71L454,76.85c6.54-3.78,11.66-12.65,11.66-20.2,0-5.37,3.93-12.17,8.57-14.85l5.66-3.27c1.65-1,3.17-1.22,4.06-.71s1.43,2,1.43,3.88c0,4.21,1.64,7.57,4.51,9.22s6.59,1.4,10.24-.7l4.76-2.75c6.54-3.78,11.66-12.65,11.66-20.2,0-5.37,3.93-12.17,8.57-14.85l5.66-3.27c1.66-1,3.18-1.23,4.07-.71s1.42,2,1.42,3.88v3.54h6.17V12.33c0-4.21-1.64-7.57-4.5-9.22s-6.6-1.4-10.24.71L522,7.08c-6.54,3.78-11.66,12.65-11.66,20.2,0,5.37-3.93,12.17-8.57,14.85L497,44.87c-1.66,1-3.18,1.23-4.08.71s-1.41-2-1.41-3.87c0-4.21-1.64-7.57-4.51-9.22s-6.59-1.4-10.24.71l-5.66,3.27c-6.54,3.78-11.66,12.65-11.66,20.2,0,5.37-3.92,12.17-8.57,14.85l-6.55,3.78c-1.66,1-3.18,1.23-4.07.71s-1.42-2-1.42-3.88c0-4.21-1.64-7.57-4.51-9.22s-6.6-1.39-10.24.71l-6,3.44c-6.54,3.77-11.66,12.64-11.66,20.2Z"/></g></g></g></g></g></svg>