<svg xmlns="http://www.w3.org/2000/svg" viewBox="0 0 108.83 94.71"><defs><style>.cls-1{fill:#fff;}.cls-2{fill:#16110d;}</style></defs><title>Wind 0</title><g id="Layer_2" data-name="Layer 2"><g id="Contact"><g id="_7" data-name="7"><g id="_Group_" data-name="&lt;Group&gt;"><path id="_Path_" data-name="&lt;Path&gt;" class="cls-1" d="M5.8,92.69H0V90.2A18.77,18.77,0,0,1,8.61,75.29l4.21-2.43c2.8-1.62,5.71-1.8,8-.5s3.55,3.91,3.55,7.15c0,1.21.33,1.94.65,2.12s1.12.1,2.16-.5l4.63-2.67a13,13,0,0,0,5.71-9.89,18.78,18.78,0,0,1,8.61-14.91l4-2.31c2.8-1.62,5.71-1.8,8-.5S61.6,54.74,61.6,58c0,1.21.32,1.94.65,2.12s1.12.1,2.16-.5l3.37-1.94a13,13,0,0,0,5.71-9.89A18.77,18.77,0,0,1,82.1,32.86l4-2.31c2.8-1.62,5.71-1.8,8-.5S97.6,34,97.6,37.19v3.22h-5.8V37.19c0-1.21-.33-1.94-.65-2.12S90,35,89,35.57l-4,2.31a13,13,0,0,0-5.71,9.89,18.78,18.78,0,0,1-8.61,14.91l-3.37,1.94c-2.8,1.62-5.71,1.8-8,.5S55.8,61.22,55.8,58c0-1.21-.33-1.94-.65-2.12s-1.12-.1-2.16.5l-4,2.31a13,13,0,0,0-5.71,9.89,18.77,18.77,0,0,1-8.61,14.91L30,86.14c-2.81,1.62-5.71,1.8-8,.5s-3.55-3.91-3.55-7.15c0-1.21-.33-1.94-.65-2.12s-1.11-.1-2.16.5l-4.21,2.43A13,13,0,0,0,5.8,90.2Z"/></g><g id="_Group_2" data-name="&lt;Group&gt;"><path id="_Path_2" data-name="&lt;Path&gt;" class="cls-2" d="M8.76,94.71H3V92.22a18.77,18.77,0,0,1,8.61-14.91l4.21-2.43c2.8-1.62,5.71-1.8,8-.5s3.55,3.91,3.55,7.15c0,1.21.33,1.94.65,2.12s1.12.1,2.16-.5l4.63-2.67a13,13,0,0,0,5.71-9.89,18.78,18.78,0,0,1,8.61-14.91l4-2.31c2.8-1.62,5.71-1.8,8-.5s3.55,3.91,3.55,7.15c0,1.21.32,1.94.65,2.12s1.12.1,2.16-.5l3.37-1.94a13,13,0,0,0,5.71-9.89,18.77,18.77,0,0,1,8.61-14.91l4-2.31c2.8-1.62,5.71-1.8,8-.5s3.55,3.91,3.55,7.15v3.22h-5.8V39.21c0-1.21-.33-1.94-.65-2.12S93,37,92,37.59L88,39.9a13,13,0,0,0-5.71,9.89A18.78,18.78,0,0,1,73.64,64.7l-3.37,1.94c-2.8,1.62-5.71,1.8-8,.5S58.76,63.24,58.76,60c0-1.21-.33-1.94-.65-2.12s-1.12-.1-2.16.5l-4,2.31a13,13,0,0,0-5.71,9.89,18.77,18.77,0,0,1-8.61,14.91L33,88.16c-2.81,1.62-5.71,1.8-8,.5s-3.55-3.91-3.55-7.15c0-1.21-.33-1.94-.65-2.12s-1.11-.1-2.16.5l-4.21,2.43a13,13,0,0,0-5.71,9.89Z"/></g><g id="_Group_3" data-name="&lt;Group&gt;"><path id="_Path_3" data-name="&lt;Path&gt;" class="cls-1" d="M56.07,36.5H52.73V35.06a10.79,10.79,0,0,1,4.95-8.57l2.42-1.4a4.14,4.14,0,0,1,6.61,3.82c0,.69.19,1.11.37,1.22s.64.06,1.24-.29L71,28.31a7.49,7.49,0,0,0,3.28-5.68,10.79,10.79,0,0,1,4.95-8.57l2.3-1.33a4.52,4.52,0,0,1,4.57-.29,4.52,4.52,0,0,1,2,4.11c0,.69.19,1.11.37,1.22s.64.06,1.24-.29l1.94-1.12A7.49,7.49,0,0,0,95,10.68a10.79,10.79,0,0,1,4.95-8.57l2.3-1.33a4.52,4.52,0,0,1,4.58-.29,4.52,4.52,0,0,1,2,4.11V6.45H105.5V4.6c0-.7-.19-1.11-.37-1.22s-.64-.06-1.24.29L101.58,5a7.49,7.49,0,0,0-3.28,5.68,10.79,10.79,0,0,1-4.95,8.57l-1.94,1.12a4.53,4.53,0,0,1-4.58.29,4.52,4.52,0,0,1-2-4.11c0-.69-.19-1.11-.37-1.22s-.64-.06-1.24.29l-2.3,1.33a7.49,7.49,0,0,0-3.28,5.68,10.79,10.79,0,0,1-4.95,8.57L70,32.73a4.14,4.14,0,0,1-6.61-3.82c0-.69-.19-1.11-.37-1.22s-.64-.06-1.24.29l-2.42,1.4a7.49,7.49,0,0,0-3.28,5.68Z"/></g></g></g></g></svg>