<svg xmlns="http://www.w3.org/2000/svg" viewBox="0 0 370.87 216.07"><defs><style>.cls-1{fill:#fec;}.cls-2{fill:#16110d;}</style></defs><title>Wires 0</title><g id="Layer_2" data-name="Layer 2"><g id="Code"><g id="_Group_" data-name="&lt;Group&gt;"><g id="_Group_2" data-name="&lt;Group&gt;"><g id="_Group_3" data-name="&lt;Group&gt;"><path id="_Compound_Path_" data-name="&lt;Compound Path&gt;" class="cls-1" d="M184.88,143l-1.4,2.4,24.33,14.16L201.52,177l23.83,13.86,30.27-3.47,7.29,4.24a3.31,3.31,0,0,0-.62,1.9,3.71,3.71,0,0,0,2.07,3.14,8.25,8.25,0,0,0,4,1,9,9,0,0,0,4.43-1.1,4,4,0,0,0,2.26-3.35A3.71,3.71,0,0,0,273,190a9.28,9.28,0,0,0-7.72-.24l-9.08-5.28L225.95,188l-21-12.24,6.29-17.42ZM269,191.83a5.5,5.5,0,0,1,2.66.6h0c.41.24.68.53.68.74s-.27.6-.87.95a6.52,6.52,0,0,1-5.7.12c-.41-.24-.68-.53-.68-.74s.27-.6.87-1A6.29,6.29,0,0,1,269,191.83Z"/><path id="_Compound_Path_2" data-name="&lt;Compound Path&gt;" class="cls-2" d="M268.41,196.46a8.64,8.64,0,0,1-4.24-1,4.08,4.08,0,0,1-2.27-3.47,3.62,3.62,0,0,1,.47-1.77l-6.84-4-30.27,3.47-24.21-14.09,6.29-17.42L183,144l1.78-3.06,26.94,15.67L205.39,174,226,186l30.27-3.47,9,5.25a9.58,9.58,0,0,1,7.89.33,4.08,4.08,0,0,1,2.27,3.47,4.37,4.37,0,0,1-2.45,3.69A9.34,9.34,0,0,1,268.41,196.46Zm-12.71-11,7.76,4.51-.24.34a2.91,2.91,0,0,0-.55,1.68,3.34,3.34,0,0,0,1.88,2.81,7.86,7.86,0,0,0,3.86.92,8.56,8.56,0,0,0,4.24-1,3.63,3.63,0,0,0,2.06-3,3.34,3.34,0,0,0-1.88-2.81,8.92,8.92,0,0,0-7.38-.22l-.18.08-9.14-5.32-30.27,3.47-21.42-12.46L210.74,157,185,142l-1,1.74,24.28,14.13L202,175.27l23.44,13.64Zm12.7,8.26a5.85,5.85,0,0,1-2.85-.65c-.26-.15-.87-.56-.87-1.07s.4-.9,1.06-1.28a6.66,6.66,0,0,1,3.24-.77,5.84,5.84,0,0,1,2.85.65c.26.15.87.56.87,1.07s-.4.9-1.06,1.28A6.66,6.66,0,0,1,268.4,193.69Z"/></g><g id="_Group_4" data-name="&lt;Group&gt;"><path id="_Compound_Path_3" data-name="&lt;Compound Path&gt;" class="cls-1" d="M242.3,145,255,152.41l13.71-8.14,40.53,23.58-3.79,13.47,18.72,10.89a3.4,3.4,0,0,0-.84,2.18,3.71,3.71,0,0,0,2.07,3.14,8.26,8.26,0,0,0,4,1,9,9,0,0,0,4.43-1.09,4,4,0,0,0,2.26-3.36,3.71,3.71,0,0,0-2.07-3.14h0a9.26,9.26,0,0,0-7.31-.4L308.75,180l3.79-13.47-43.8-25.48L255,149.19l-10-5.82-.27-7.65-23.23-13.45-1.39,2.4L242,137.36Zm87.77,47.71a5.48,5.48,0,0,1,2.65.6c.41.24.68.53.68.74s-.27.6-.87.95a6.52,6.52,0,0,1-5.7.12c-.41-.24-.68-.53-.68-.74s.27-.6.87-.95A6.29,6.29,0,0,1,330.07,192.72Z"/><path id="_Compound_Path_4" data-name="&lt;Compound Path&gt;" class="cls-2" d="M329.5,197.35a8.64,8.64,0,0,1-4.24-1,4.08,4.08,0,0,1-2.27-3.47,3.67,3.67,0,0,1,.66-2.06L305,180l3.79-13.47-40.08-23.32L255,151.32l-13.12-7.62-.27-7.65-22-12.77,1.78-3.06L245.12,134l.27,7.65,9.63,5.6,13.71-8.14.19.11L313,164.82l-3.8,13.47,17.64,10.26a9.57,9.57,0,0,1,7.46.49,4.08,4.08,0,0,1,2.27,3.48,4.37,4.37,0,0,1-2.45,3.69A9.35,9.35,0,0,1,329.5,197.35Zm-23.55-17.74,18.85,11-.29.35a3,3,0,0,0-.75,1.93,3.34,3.34,0,0,0,1.88,2.81,7.86,7.86,0,0,0,3.86.92,8.58,8.58,0,0,0,4.24-1,3.63,3.63,0,0,0,2.06-3,3.34,3.34,0,0,0-1.88-2.81,8.9,8.9,0,0,0-7-.37l-.17.06L308.3,178.66l3.8-13.47L268.75,140,255,148.11l-10.38-6-.27-7.65-22.71-13.15-1,1.74,21.75,12.6.27,7.65L255,150.44l13.71-8.14,41,23.85Zm23.55,15a5.86,5.86,0,0,1-2.85-.66c-.26-.15-.87-.56-.87-1.07s.4-.9,1.06-1.28a6.67,6.67,0,0,1,3.24-.77,5.83,5.83,0,0,1,2.84.65c.26.15.87.56.87,1.07s-.4.9-1.06,1.28A6.64,6.64,0,0,1,329.49,194.58Z"/></g><g id="_Group_5" data-name="&lt;Group&gt;"><path id="_Compound_Path_5" data-name="&lt;Compound Path&gt;" class="cls-1" d="M279.52,202.69a9.17,9.17,0,0,0-6.65-.61l-18.45-10.73-32.6,3.73-28.27-16.44,6.78-18.77-34-19.75-1.4,2.4,31.95,18.59-6.78,18.77,31.07,18.07,32.6-3.73L270,203.6a3.55,3.55,0,0,0-1.2,2.57,3.71,3.71,0,0,0,2.07,3.14,8.26,8.26,0,0,0,4,1,9,9,0,0,0,4.43-1.09,4,4,0,0,0,2.26-3.35A3.71,3.71,0,0,0,279.52,202.69Zm-1.57,4.1a6.52,6.52,0,0,1-5.7.12c-.41-.24-.68-.53-.68-.74s.27-.6.87-1a6.29,6.29,0,0,1,3-.72,5.5,5.5,0,0,1,2.66.6h0c.41.24.68.53.68.74S278.55,206.44,277.95,206.78Z"/><path id="_Compound_Path_6" data-name="&lt;Compound Path&gt;" class="cls-2" d="M274.91,209.13a8.64,8.64,0,0,1-4.24-1,4.08,4.08,0,0,1-2.27-3.47,3.77,3.77,0,0,1,1-2.48l-15.64-9.1-32.6,3.73-31.46-18.29,6.78-18.77-32-18.62,1.78-3.06,34.56,20.11L194,176.93l27.88,16.21,32.6-3.73,18.42,10.72a9.51,9.51,0,0,1,6.78.69h0A4.09,4.09,0,0,1,282,204.3a4.37,4.37,0,0,1-2.45,3.69A9.35,9.35,0,0,1,274.91,209.13Zm-21-16.86L270.62,202l-.37.35a3.17,3.17,0,0,0-1.08,2.29,3.34,3.34,0,0,0,1.88,2.81,7.87,7.87,0,0,0,3.86.92,8.58,8.58,0,0,0,4.24-1,3.63,3.63,0,0,0,2.06-3,3.35,3.35,0,0,0-1.88-2.81,8.75,8.75,0,0,0-6.35-.58l-.16,0L254.34,190.2l-32.6,3.73-28.66-16.66,6.78-18.77-33.34-19.4-1,1.74L197.4,159.4l-6.78,18.77L221.3,196Zm21,14.09a5.86,5.86,0,0,1-2.85-.65c-.26-.15-.87-.56-.87-1.07s.4-.9,1.06-1.28a6.66,6.66,0,0,1,3.24-.77,5.84,5.84,0,0,1,2.85.65c.26.15.87.56.87,1.07s-.4.9-1.06,1.28h0A6.65,6.65,0,0,1,274.9,206.36Z"/></g><g id="_Group_6" data-name="&lt;Group&gt;"><path id="_Compound_Path_7" data-name="&lt;Compound Path&gt;" class="cls-1" d="M304.37,195.85a9.11,9.11,0,0,0-6.36-.69l-13.76-8,5.6-16.44-21-12.19-16,9.17L250.69,179l-19.54,2.19-14.34-8.34,5.4-15.69-47.38-27.57-1.4,2.4,45.41,26.42-5.4,15.69,17.1,9.95L253,181.54l2.34-12.08,13.51-7.74L286.48,172l-5.6,16.44L295,196.61a3.62,3.62,0,0,0-1.36,2.72,3.71,3.71,0,0,0,2.07,3.14,8.26,8.26,0,0,0,4,1,9,9,0,0,0,4.43-1.09,4,4,0,0,0,2.26-3.36A3.71,3.71,0,0,0,304.37,195.85Zm-1.57,4.1a6.52,6.52,0,0,1-5.7.12c-.41-.24-.68-.53-.68-.74s.27-.6.87-1a6.29,6.29,0,0,1,3-.72,5.49,5.49,0,0,1,2.65.6c.41.24.68.53.68.74S303.4,199.59,302.79,199.94Z"/><path id="_Compound_Path_8" data-name="&lt;Compound Path&gt;" class="cls-2" d="M299.76,202.29a8.64,8.64,0,0,1-4.24-1,4.08,4.08,0,0,1-2.26-3.47,3.87,3.87,0,0,1,1.11-2.64L280.42,187l5.6-16.44-17.15-10-13.17,7.54-2.36,12.19-22.89,2.57L213,172.76l5.4-15.69-45.47-26.45,1.78-3.06,48,27.92-5.4,15.69,14,8.12,19.14-2.15,2.17-11.22,16.35-9.37L290.3,169l-5.6,16.44,13.36,7.77a9.41,9.41,0,0,1,6.49.77h0a4.08,4.08,0,0,1,2.27,3.47,4.37,4.37,0,0,1-2.45,3.69A9.35,9.35,0,0,1,299.76,202.29ZM281.35,186.7l14.3,8.32-.4.35A3.23,3.23,0,0,0,294,197.8a3.34,3.34,0,0,0,1.88,2.81,7.86,7.86,0,0,0,3.86.92,8.57,8.57,0,0,0,4.24-1,3.63,3.63,0,0,0,2.06-3,3.34,3.34,0,0,0-1.88-2.81h0a8.78,8.78,0,0,0-6.08-.65l-.15,0-14.16-8.24,5.6-16.44-20.5-11.92-15.66,9L251,177.83l-19.95,2.24-14.72-8.56,5.4-15.69L175,128.6l-1,1.74,45.35,26.38-5.4,15.69,16.72,9.73,22.08-2.48,2.32-12,13.85-7.94,18.07,10.51Zm18.4,12.82a5.86,5.86,0,0,1-2.85-.66c-.26-.15-.87-.56-.87-1.07s.4-.89,1.06-1.28a6.67,6.67,0,0,1,3.24-.77,5.83,5.83,0,0,1,2.85.65c.26.15.87.56.87,1.07s-.4.9-1.06,1.28A6.63,6.63,0,0,1,299.75,199.52Z"/></g><g id="_Group_7" data-name="&lt;Group&gt;"><path id="_Compound_Path_9" data-name="&lt;Compound Path&gt;" class="cls-1" d="M343,208.48a9.28,9.28,0,0,0-7.67-.26l-39.6-22.81,5.94-16-32.44-18.88-12.8,7.33L200.25,125l-1.4,2.4,57.6,33.66,12.8-7.33,29,16.89-5.94,16L332.95,210a3.32,3.32,0,0,0-.65,1.93,3.71,3.71,0,0,0,2.07,3.14,8.25,8.25,0,0,0,4,1,9,9,0,0,0,4.43-1.1,4,4,0,0,0,2.26-3.35A3.71,3.71,0,0,0,343,208.48Zm-1.57,4.1a6.52,6.52,0,0,1-5.7.12c-.41-.24-.68-.53-.68-.74s.27-.6.87-1a6.29,6.29,0,0,1,3-.72,5.5,5.5,0,0,1,2.66.6h0c.41.24.68.53.68.74S342.06,212.23,341.46,212.58Z"/><path id="_Compound_Path_10" data-name="&lt;Compound Path&gt;" class="cls-2" d="M338.42,214.92a8.64,8.64,0,0,1-4.24-1,4.08,4.08,0,0,1-2.27-3.47,3.62,3.62,0,0,1,.49-1.8l-40.54-23.34,5.95-16-28.57-16.62L256.44,160l-.19-.11L198.32,126l1.79-3.06,56.35,32.93,12.8-7.33.19.11,32.72,19-5.94,16,39.16,22.55a9.61,9.61,0,0,1,7.83.36h0a4.08,4.08,0,0,1,2.27,3.47,4.37,4.37,0,0,1-2.45,3.69A9.35,9.35,0,0,1,338.42,214.92Zm-45.61-30,40.69,23.43-.24.34a2.92,2.92,0,0,0-.58,1.71,3.34,3.34,0,0,0,1.88,2.81,7.86,7.86,0,0,0,3.86.92,8.57,8.57,0,0,0,4.24-1,3.63,3.63,0,0,0,2.06-3,3.34,3.34,0,0,0-1.88-2.81h0a8.93,8.93,0,0,0-7.33-.24l-.18.07-.16-.09-39.88-23,5.94-16-32-18.6-12.8,7.33-.19-.11L200.38,124l-1,1.73,57.08,33.36,12.8-7.33L298.75,169Zm45.6,27.21a5.85,5.85,0,0,1-2.85-.65c-.26-.15-.87-.56-.87-1.07s.4-.9,1.06-1.28a6.66,6.66,0,0,1,3.24-.77,5.83,5.83,0,0,1,2.85.65c.26.15.87.56.87,1.07s-.4.9-1.06,1.28h0A6.65,6.65,0,0,1,338.41,212.15Z"/></g></g><g id="_Group_8" data-name="&lt;Group&gt;"><g id="_Group_9" data-name="&lt;Group&gt;"><g id="_Group_10" data-name="&lt;Group&gt;"><polygon id="_Path_" data-name="&lt;Path&gt;" class="cls-1" points="212.17 70.67 210.79 68.26 230.3 57.07 228.46 36.89 242.69 28.6 244.09 31 231.38 38.4 233.23 58.59 212.17 70.67"/><path id="_Compound_Path_11" data-name="&lt;Compound Path&gt;" class="cls-2" d="M212,69.66l-1.76-3.07L229.9,55.33l-1.84-20.18,14.77-8.6,1.78,3.06-12.82,7.47,1.84,20.2Zm-.72-2.79,1,1.74,20.51-11.76L231,36.66l12.59-7.33-1-1.74-13.69,8,1.84,20.19Z"/></g></g><g id="_Group_11" data-name="&lt;Group&gt;"><g id="_Group_12" data-name="&lt;Group&gt;"><polygon id="_Path_2" data-name="&lt;Path&gt;" class="cls-1" points="218.11 77.62 216.72 75.22 253.81 53.72 282.66 53.59 312.6 71.86 311.15 74.23 281.88 56.37 254.56 56.49 218.11 77.62"/><path id="_Compound_Path_12" data-name="&lt;Compound Path&gt;" class="cls-2" d="M218,76.61l-1.78-3.06L253.7,51.81l29.06-.13L313.12,70.2l-1.84,3-29.5-18-27.11.12Zm-.73-2.79,1,1.74,36.21-21L282,54.46l29,17.71,1-1.72-29.52-18-28.64.13Z"/></g></g></g><g id="_Group_13" data-name="&lt;Group&gt;"><path id="_Compound_Path_13" data-name="&lt;Compound Path&gt;" class="cls-1" d="M368.2,123a7,7,0,0,0-1.92-.73L370.44,102,341.09,85.23l-1.38,2.41,27.61,15.74-.9,4.41-20.92,7.63-4.79,25.73a8.78,8.78,0,0,0-3.86,1.06,4,4,0,0,0-2.26,3.35,3.71,3.71,0,0,0,2.07,3.14,8.27,8.27,0,0,0,4,1,9,9,0,0,0,4.43-1.09,4,4,0,0,0,2.26-3.35,3.71,3.71,0,0,0-2.07-3.14,7,7,0,0,0-1.84-.71l4.45-23.89,17.83-6.5-2.28,11.12a8.74,8.74,0,0,0-3.77,1.06,4,4,0,0,0-2.26,3.36,3.71,3.71,0,0,0,2.07,3.14,8.26,8.26,0,0,0,4,1,9,9,0,0,0,4.43-1.09,4,4,0,0,0,2.26-3.36A3.71,3.71,0,0,0,368.2,123Zm-23.58,22.2c0,.22-.27.6-.87.95a6.52,6.52,0,0,1-5.7.12c-.41-.24-.68-.53-.68-.74s.27-.6.87-.95a6.29,6.29,0,0,1,3-.72,5.49,5.49,0,0,1,2.65.6C344.35,144.74,344.62,145,344.62,145.24Zm22-18.1a6.52,6.52,0,0,1-5.7.12c-.41-.24-.68-.53-.68-.74s.27-.6.87-1a6.29,6.29,0,0,1,3-.72,5.5,5.5,0,0,1,2.66.6h0c.41.24.68.53.68.74S367.23,126.79,366.62,127.14Z"/><path id="_Compound_Path_14" data-name="&lt;Compound Path&gt;" class="cls-2" d="M340.71,148.54a8.65,8.65,0,0,1-4.24-1A4.08,4.08,0,0,1,334.2,144a4.37,4.37,0,0,1,2.45-3.69,8.93,8.93,0,0,1,3.73-1.09l4.78-25.65L366.09,106l.8-3.93-27.7-15.8,1.76-3.08,29.93,17.07-4.14,20.26a7.18,7.18,0,0,1,1.66.68h0a4.08,4.08,0,0,1,2.26,3.47,4.37,4.37,0,0,1-2.45,3.69,9.35,9.35,0,0,1-4.62,1.15,8.64,8.64,0,0,1-4.24-1,4.08,4.08,0,0,1-2.27-3.47,4.37,4.37,0,0,1,2.45-3.69,8.92,8.92,0,0,1,3.65-1.08l2.08-10.17-17,6.19-4.34,23.33a7.06,7.06,0,0,1,1.59.65,4.08,4.08,0,0,1,2.26,3.47,4.37,4.37,0,0,1-2.45,3.69A9.34,9.34,0,0,1,340.71,148.54Zm5.12-34.35L341,140l-.3,0a8.32,8.32,0,0,0-3.69,1,3.63,3.63,0,0,0-2.06,3,3.34,3.34,0,0,0,1.88,2.81,7.88,7.88,0,0,0,3.86.92,8.56,8.56,0,0,0,4.24-1,3.63,3.63,0,0,0,2.06-3,3.34,3.34,0,0,0-1.88-2.81,6.58,6.58,0,0,0-1.74-.66l-.35-.09,4.56-24.47,18.68-6.81-2.47,12.08-.29,0a8.31,8.31,0,0,0-3.6,1,3.63,3.63,0,0,0-2.06,3,3.34,3.34,0,0,0,1.88,2.81,7.87,7.87,0,0,0,3.86.92,8.57,8.57,0,0,0,4.24-1,3.63,3.63,0,0,0,2.06-3,3.34,3.34,0,0,0-1.88-2.81,6.65,6.65,0,0,0-1.81-.69l-.36-.08L370,100.64,341.23,84.22l-1,1.75,27.52,15.69-1,4.9Zm-5.13,31.58a5.87,5.87,0,0,1-2.85-.65c-.26-.15-.87-.56-.87-1.07s.4-.89,1.06-1.28a6.66,6.66,0,0,1,3.24-.77,5.83,5.83,0,0,1,2.85.65c.26.15.87.56.87,1.07s-.4.9-1.06,1.28A6.65,6.65,0,0,1,340.7,145.77Zm22.87-19.05a5.86,5.86,0,0,1-2.85-.65c-.26-.15-.87-.56-.87-1.07s.4-.9,1.06-1.28a6.67,6.67,0,0,1,3.24-.77,5.83,5.83,0,0,1,2.85.65c.26.15.87.56.87,1.07s-.4.89-1.06,1.28h0A6.65,6.65,0,0,1,363.58,126.72Z"/></g><g id="_Group_14" data-name="&lt;Group&gt;"><path id="_Compound_Path_15" data-name="&lt;Compound Path&gt;" class="cls-1" d="M225.42,7.17,198.55,1.94,187.76,8.07a9.42,9.42,0,0,0-7.72.48,4,4,0,0,0-2.26,3.36,3.71,3.71,0,0,0,2.07,3.14,8.25,8.25,0,0,0,4,1,9,9,0,0,0,4.43-1.09,4,4,0,0,0,2.26-3.36,3.15,3.15,0,0,0-.48-1.64L199,4.86l25.42,4.95,8.77,4.94,1.36-2.42Zm-38.48,5.36a6.51,6.51,0,0,1-5.7.12c-.41-.24-.68-.53-.68-.74s.27-.6.87-.95a6.28,6.28,0,0,1,3-.72,5.49,5.49,0,0,1,2.65.6c.41.24.68.53.68.74S187.55,12.18,186.95,12.53Z"/><path id="_Compound_Path_16" data-name="&lt;Compound Path&gt;" class="cls-2" d="M183.91,14.87a8.62,8.62,0,0,1-4.24-1,4.08,4.08,0,0,1-2.27-3.47,4.37,4.37,0,0,1,2.45-3.69,9.77,9.77,0,0,1,7.88-.57L198.49,0l.14,0,27,5.27,9.5,5.34-1.74,3.09-9.05-5.09L199.1,3.73l-8.47,4.82A3.43,3.43,0,0,1,191,10a4.37,4.37,0,0,1-2.45,3.69,9.35,9.35,0,0,1-4.62,1.15Zm.55-8.55a8.62,8.62,0,0,0-4.23,1,3.63,3.63,0,0,0-2.06,3,3.34,3.34,0,0,0,1.88,2.81,7.86,7.86,0,0,0,3.86.92h0a8.58,8.58,0,0,0,4.24-1,3.63,3.63,0,0,0,2.06-3,2.75,2.75,0,0,0-.43-1.44l-.21-.34L199,2.92l.14,0,25.54,5,8.44,4.75,1-1.75L225.29,6,198.62.81,187.79,7l-.17-.07A8.47,8.47,0,0,0,184.46,6.32Zm-.56,5.78a5.86,5.86,0,0,1-2.85-.66c-.26-.15-.87-.56-.87-1.07s.4-.9,1.06-1.28a6.66,6.66,0,0,1,3.24-.77,5.83,5.83,0,0,1,2.85.65c.26.15.87.56.87,1.07s-.4.9-1.06,1.28h0A6.63,6.63,0,0,1,183.9,12.1Z"/></g><g id="_Group_15" data-name="&lt;Group&gt;"><g id="_Group_16" data-name="&lt;Group&gt;"><path id="_Compound_Path_17" data-name="&lt;Compound Path&gt;" class="cls-1" d="M57.79,90.22,36.76,78l6.29-17.42-10.3-6a3.28,3.28,0,0,0,.57-1.82,3.71,3.71,0,0,0-2.07-3.14,9.25,9.25,0,0,0-8.48.13,4,4,0,0,0-2.26,3.36,3.71,3.71,0,0,0,2.07,3.14,8.26,8.26,0,0,0,4,1,9.35,9.35,0,0,0,3.78-.78l9.24,5.38L33.36,79.22,57.19,93.09l30.27-3.47,52.33,31.11,1.42-2.39L88.07,86.75ZM24,53.84c-.41-.24-.68-.53-.68-.74s.27-.6.87-.95a6.29,6.29,0,0,1,3-.72,5.49,5.49,0,0,1,2.65.6h0c.41.24.68.53.68.74s-.27.6-.87.95A6.52,6.52,0,0,1,24,53.84Z"/><path id="_Compound_Path_18" data-name="&lt;Compound Path&gt;" class="cls-2" d="M139.92,119.72l-.33-.2-52.22-31L57.11,91.95,32.89,77.86l6.29-17.42-8.8-5.12a9.73,9.73,0,0,1-3.76.74h0a8.64,8.64,0,0,1-4.24-1,4.08,4.08,0,0,1-2.27-3.47,4.37,4.37,0,0,1,2.45-3.69,9.67,9.67,0,0,1,8.86-.13,4.08,4.08,0,0,1,2.27,3.47,3.55,3.55,0,0,1-.42,1.68l10.25,6L37.23,76.29l20.64,12,30.28-3.47.11.07,53.47,31.78Zm-52.38-32,.11.07,52,30.91,1-1.73L88,85.62,57.71,89.09,36.29,76.63l6.29-17.42-10.38-6,.22-.34a2.89,2.89,0,0,0,.5-1.61,3.34,3.34,0,0,0-1.88-2.81,8.84,8.84,0,0,0-8.1.13,3.63,3.63,0,0,0-2.06,3,3.34,3.34,0,0,0,1.88,2.81,7.87,7.87,0,0,0,3.86.92h0a9,9,0,0,0,3.62-.75l.18-.08,9.69,5.64L33.83,77.52,57.27,91.16ZM26.62,53.29a5.86,5.86,0,0,1-2.85-.65h0c-.26-.15-.87-.56-.87-1.07s.4-.9,1.06-1.28a6.67,6.67,0,0,1,3.24-.77,5.83,5.83,0,0,1,2.85.65c.26.15.87.56.87,1.07s-.4.9-1.06,1.28A6.64,6.64,0,0,1,26.62,53.29Z"/></g><g id="_Group_17" data-name="&lt;Group&gt;"><path id="_Compound_Path_19" data-name="&lt;Compound Path&gt;" class="cls-1" d="M121.68,73l-21-12.19-16,9.17L82.53,81.27,63,83.46,48.64,75.12,54,59.43,12.3,35.07a3.42,3.42,0,0,0,.89-2.24,3.71,3.71,0,0,0-2.07-3.14h0a9.25,9.25,0,0,0-8.48.13A4,4,0,0,0,.38,33.17a3.71,3.71,0,0,0,2.07,3.14,8.26,8.26,0,0,0,4,1,9.66,9.66,0,0,0,3.16-.53l41,23.93-5.4,15.69,17.1,10L84.86,83.8,87.2,71.72,100.71,64l17.61,10.24-5.6,16.44,40.08,23,1.38-2.41L116.09,89.4ZM3.84,33.91c-.41-.24-.68-.53-.68-.74s.27-.6.87-.95a6.29,6.29,0,0,1,3-.72,5.49,5.49,0,0,1,2.65.6c.41.24.68.53.68.74s-.27.6-.87.95A6.52,6.52,0,0,1,3.84,33.91Z"/><path id="_Compound_Path_20" data-name="&lt;Compound Path&gt;" class="cls-2" d="M152.95,112.65,112.26,89.31l5.6-16.45-17.15-10L87.55,70.43,85.19,82.62,62.3,85.19,44.81,75l5.4-15.7L9.62,35.64a9.68,9.68,0,0,1-7.36-.52A4.08,4.08,0,0,1,0,31.64,4.37,4.37,0,0,1,2.45,28a9.67,9.67,0,0,1,8.86-.13,4.08,4.08,0,0,1,2.27,3.47,3.69,3.69,0,0,1-.7,2.13L54.51,57.72l-5.4,15.69,14,8.12,19.14-2.15,2.17-11.22,16.35-9.37,21.42,12.46-5.59,16.43,38.16,21.89ZM113.19,89l39.48,22.65,1-1.74L115.62,88l5.59-16.43-20.5-11.92-15.66,9L82.85,80.09l-20,2.24L48.18,73.76l5.4-15.69L11.71,33.64l.3-.35a3,3,0,0,0,.8-2,3.34,3.34,0,0,0-1.88-2.81,8.83,8.83,0,0,0-8.1.13,3.63,3.63,0,0,0-2.06,3,3.34,3.34,0,0,0,1.88,2.81,8.94,8.94,0,0,0,6.89.41l.17-.06L51.15,59l-5.4,15.69L62.46,84.4l22.08-2.48,2.32-12L100.71,62l18.07,10.51ZM6.5,33.36a5.86,5.86,0,0,1-2.85-.65h0c-.26-.15-.87-.56-.87-1.07s.4-.9,1.06-1.28a6.67,6.67,0,0,1,3.24-.77,5.83,5.83,0,0,1,2.84.65c.26.15.87.56.87,1.07s-.4.9-1.06,1.28A6.64,6.64,0,0,1,6.5,33.36Z"/></g><g id="_Group_18" data-name="&lt;Group&gt;"><path id="_Compound_Path_21" data-name="&lt;Compound Path&gt;" class="cls-1" d="M53.66,97.33,25.39,80.89l6.78-18.77L15.82,52.61a3.44,3.44,0,0,0,.92-2.29,3.71,3.71,0,0,0-2.07-3.14h0a9.25,9.25,0,0,0-8.48.13,4,4,0,0,0-2.26,3.36A3.71,3.71,0,0,0,6,53.8a8.26,8.26,0,0,0,4,1,9.69,9.69,0,0,0,3.09-.51l15.63,9.09L22,82.12l31.07,18.07,32.6-3.73,51.72,30,1.39-2.4L86.26,93.59ZM7.39,51.4c-.41-.24-.68-.53-.68-.74s.27-.6.87-.95a6.29,6.29,0,0,1,3-.72,5.49,5.49,0,0,1,2.65.6c.41.24.68.53.68.74s-.27.6-.87.95A6.52,6.52,0,0,1,7.39,51.4Z"/><path id="_Compound_Path_22" data-name="&lt;Compound Path&gt;" class="cls-2" d="M137.52,125.45,85.58,95.32,53,99.05,21.52,80.76,28.31,62,13.1,53.15a9.63,9.63,0,0,1-7.28-.54,4.08,4.08,0,0,1-2.27-3.47A4.37,4.37,0,0,1,6,45.44a9.67,9.67,0,0,1,8.86-.13,4.08,4.08,0,0,1,2.27,3.47A3.7,3.7,0,0,1,16.39,51l16.25,9.45L25.86,79.19,53.74,95.4l32.6-3.73.11.06,52.84,30.66ZM85.75,94.53l.11.06,51.38,29.81,1-1.74L86.18,92.46l-32.6,3.73L24.92,79.53,31.7,60.76,15.22,51.17l.31-.35a3.06,3.06,0,0,0,.83-2A3.34,3.34,0,0,0,14.48,46a8.84,8.84,0,0,0-8.1.13,3.63,3.63,0,0,0-2.06,3A3.34,3.34,0,0,0,6.2,51.94a8.89,8.89,0,0,0,6.82.43l.16-.06,16.06,9.34L22.46,80.42,53.14,98.26ZM10,50.85A5.86,5.86,0,0,1,7.2,50.2h0c-.26-.15-.87-.56-.87-1.07s.4-.9,1.06-1.28a6.67,6.67,0,0,1,3.24-.77,5.84,5.84,0,0,1,2.85.65c.26.15.87.56.87,1.07s-.4.9-1.06,1.28A6.64,6.64,0,0,1,10,50.85Z"/></g><g id="_Group_19" data-name="&lt;Group&gt;"><path id="_Compound_Path_23" data-name="&lt;Compound Path&gt;" class="cls-1" d="M133.54,71.68,101.1,52.81,88.3,60.14,56.87,41.77a3.3,3.3,0,0,0,.59-1.86,3.71,3.71,0,0,0-2.07-3.14h0a9.25,9.25,0,0,0-8.48.13,4,4,0,0,0-2.26,3.36,3.71,3.71,0,0,0,2.07,3.14,8.26,8.26,0,0,0,4,1,9.38,9.38,0,0,0,3.72-.76L88.28,63.35,101.08,56l29,16.89-5.94,16,43,24.76,1.38-2.41-41-23.59ZM48.11,41c-.41-.24-.68-.53-.68-.74s.27-.6.87-.95a6.29,6.29,0,0,1,3-.72,5.49,5.49,0,0,1,2.65.6c.41.24.68.53.68.74s-.27.6-.87.95A6.52,6.52,0,0,1,48.11,41Z"/><path id="_Compound_Path_24" data-name="&lt;Compound Path&gt;" class="cls-2" d="M167.32,112.65,123.71,87.54l5.94-16L101.08,54.92l-12.8,7.33L54.48,42.5a9.78,9.78,0,0,1-7.94-.31,4.08,4.08,0,0,1-2.27-3.47A4.37,4.37,0,0,1,46.72,35a9.67,9.67,0,0,1,8.86-.13,4.08,4.08,0,0,1,2.27,3.47,3.62,3.62,0,0,1-.45,1.73L88.3,58.17l12.8-7.33L134,70l-5.94,16,41,23.62ZM124.65,87.2,167,111.61l1-1.74L127.13,86.31l5.94-16-32-18.6L88.3,59.05l-32-18.69.23-.34a2.9,2.9,0,0,0,.53-1.65,3.34,3.34,0,0,0-1.88-2.81,8.84,8.84,0,0,0-8.1.13,3.63,3.63,0,0,0-2.06,3,3.34,3.34,0,0,0,1.88,2.81,9,9,0,0,0,7.43.19l.18-.08L88.29,61.37,101.09,54l29.51,17.17ZM50.77,40.44a5.86,5.86,0,0,1-2.85-.65h0c-.26-.15-.87-.56-.87-1.07s.4-.89,1.06-1.28a6.67,6.67,0,0,1,3.24-.77,5.83,5.83,0,0,1,2.85.65c.26.15.87.56.87,1.07s-.4.9-1.06,1.28A6.63,6.63,0,0,1,50.77,40.44Z"/></g><g id="_Group_20" data-name="&lt;Group&gt;"><path id="_Compound_Path_25" data-name="&lt;Compound Path&gt;" class="cls-1" d="M140.59,82.26l3.79-13.47-43.8-25.48L86.87,51.45l-10-5.82L76.59,38l-4.86-2.81a3.46,3.46,0,0,0,1-2.33,3.71,3.71,0,0,0-2.07-3.14h0a9.25,9.25,0,0,0-8.48.13,4,4,0,0,0-2.26,3.36A3.71,3.71,0,0,0,62,36.31a8.26,8.26,0,0,0,4,1,9.72,9.72,0,0,0,3-.48l4.86,2.81.27,7.65,12.74,7.41,13.71-8.14,40.53,23.58-3.79,13.47,35,20.41,1.4-2.4ZM63.35,33.91c-.41-.24-.68-.53-.68-.74s.27-.6.87-.95a6.29,6.29,0,0,1,3-.72,5.49,5.49,0,0,1,2.65.6c.41.24.68.53.68.74s-.27.6-.87.95A6.52,6.52,0,0,1,63.35,33.91Z"/><path id="_Compound_Path_26" data-name="&lt;Compound Path&gt;" class="cls-2" d="M172.5,103,136.89,82.23l3.79-13.47L100.6,45.44,86.89,53.58,73.77,46,73.5,38.3,69,35.68a9.58,9.58,0,0,1-7.19-.57,4.08,4.08,0,0,1-2.27-3.47A4.37,4.37,0,0,1,62,28a9.67,9.67,0,0,1,8.86-.13,4.08,4.08,0,0,1,2.27,3.47,3.71,3.71,0,0,1-.77,2.23L77,36.22l.27,7.65,9.63,5.6,13.71-8.14,44.25,25.75L141,80.55l33.24,19.38ZM137.79,81.86l34.43,20.07,1-1.74L140.14,80.91l3.79-13.47L100.59,42.22,86.87,50.36l-10.38-6-.27-7.65-5.09-2.95.32-.35a3.08,3.08,0,0,0,.87-2.08,3.34,3.34,0,0,0-1.88-2.81,8.84,8.84,0,0,0-8.1.13,3.63,3.63,0,0,0-2.06,3,3.34,3.34,0,0,0,1.88,2.81,8.85,8.85,0,0,0,6.74.45l.16-.05,5.19,3,.27,7.65,12.36,7.19,13.71-8.14,41,23.84ZM66,33.36a5.87,5.87,0,0,1-2.85-.65h0c-.26-.15-.87-.56-.87-1.07s.4-.9,1.06-1.28a6.67,6.67,0,0,1,3.24-.77,5.83,5.83,0,0,1,2.84.65c.26.15.87.56.87,1.07s-.4.9-1.06,1.28A6.64,6.64,0,0,1,66,33.36Z"/></g></g></g></g></g></svg>